<?xml version="1.0" encoding="utf-8" standalone="no"?>
<!DOCTYPE svg PUBLIC "-//W3C//DTD SVG 1.1//EN"
  "http://www.w3.org/Graphics/SVG/1.1/DTD/svg11.dtd">
<!-- Created with matplotlib (https://matplotlib.org/) -->
<svg height="337.906415pt" version="1.1" viewBox="0 0 453.3885 337.906415" width="453.3885pt" xmlns="http://www.w3.org/2000/svg" xmlns:xlink="http://www.w3.org/1999/xlink">
 <metadata>
  <rdf:RDF xmlns:cc="http://creativecommons.org/ns#" xmlns:dc="http://purl.org/dc/elements/1.1/" xmlns:rdf="http://www.w3.org/1999/02/22-rdf-syntax-ns#">
   <cc:Work>
    <dc:type rdf:resource="http://purl.org/dc/dcmitype/StillImage"/>
    <dc:date>2021-04-19T19:47:05.436448</dc:date>
    <dc:format>image/svg+xml</dc:format>
    <dc:creator>
     <cc:Agent>
      <dc:title>Matplotlib v3.3.2, https://matplotlib.org/</dc:title>
     </cc:Agent>
    </dc:creator>
   </cc:Work>
  </rdf:RDF>
 </metadata>
 <defs>
  <style type="text/css">*{stroke-linecap:butt;stroke-linejoin:round;}</style>
 </defs>
 <g id="figure_1">
  <g id="patch_1">
   <path d="M 0 337.906415 
L 453.3885 337.906415 
L 453.3885 0 
L 0 0 
z
" style="fill:#ffffff;"/>
  </g>
  <g id="axes_1">
   <g id="patch_2">
    <path d="M 32.546592 292.6296 
L 446.1885 292.6296 
L 446.1885 9.115344 
L 32.546592 9.115344 
z
" style="fill:#ffffff;"/>
   </g>
   <g id="matplotlib.axis_1">
    <g id="xtick_1">
     <g id="line2d_1">
      <defs>
       <path d="M 0 0 
L 0 3.5 
" id="m3e9c3d13f2" style="stroke:#000000;stroke-width:0.8;"/>
      </defs>
      <g>
       <use style="stroke:#000000;stroke-width:0.8;" x="51.348497" xlink:href="#m3e9c3d13f2" y="292.6296"/>
      </g>
     </g>
     <g id="text_1">
      <!-- 01-05-20 -->
      <g transform="translate(10.999219 328.905352)rotate(-30)scale(0.1 -0.1)">
       <defs>
        <path d="M 31.78125 66.40625 
Q 24.171875 66.40625 20.328125 58.90625 
Q 16.5 51.421875 16.5 36.375 
Q 16.5 21.390625 20.328125 13.890625 
Q 24.171875 6.390625 31.78125 6.390625 
Q 39.453125 6.390625 43.28125 13.890625 
Q 47.125 21.390625 47.125 36.375 
Q 47.125 51.421875 43.28125 58.90625 
Q 39.453125 66.40625 31.78125 66.40625 
z
M 31.78125 74.21875 
Q 44.046875 74.21875 50.515625 64.515625 
Q 56.984375 54.828125 56.984375 36.375 
Q 56.984375 17.96875 50.515625 8.265625 
Q 44.046875 -1.421875 31.78125 -1.421875 
Q 19.53125 -1.421875 13.0625 8.265625 
Q 6.59375 17.96875 6.59375 36.375 
Q 6.59375 54.828125 13.0625 64.515625 
Q 19.53125 74.21875 31.78125 74.21875 
z
" id="DejaVuSans-48"/>
        <path d="M 12.40625 8.296875 
L 28.515625 8.296875 
L 28.515625 63.921875 
L 10.984375 60.40625 
L 10.984375 69.390625 
L 28.421875 72.90625 
L 38.28125 72.90625 
L 38.28125 8.296875 
L 54.390625 8.296875 
L 54.390625 0 
L 12.40625 0 
z
" id="DejaVuSans-49"/>
        <path d="M 4.890625 31.390625 
L 31.203125 31.390625 
L 31.203125 23.390625 
L 4.890625 23.390625 
z
" id="DejaVuSans-45"/>
        <path d="M 10.796875 72.90625 
L 49.515625 72.90625 
L 49.515625 64.59375 
L 19.828125 64.59375 
L 19.828125 46.734375 
Q 21.96875 47.46875 24.109375 47.828125 
Q 26.265625 48.1875 28.421875 48.1875 
Q 40.625 48.1875 47.75 41.5 
Q 54.890625 34.8125 54.890625 23.390625 
Q 54.890625 11.625 47.5625 5.09375 
Q 40.234375 -1.421875 26.90625 -1.421875 
Q 22.3125 -1.421875 17.546875 -0.640625 
Q 12.796875 0.140625 7.71875 1.703125 
L 7.71875 11.625 
Q 12.109375 9.234375 16.796875 8.0625 
Q 21.484375 6.890625 26.703125 6.890625 
Q 35.15625 6.890625 40.078125 11.328125 
Q 45.015625 15.765625 45.015625 23.390625 
Q 45.015625 31 40.078125 35.4375 
Q 35.15625 39.890625 26.703125 39.890625 
Q 22.75 39.890625 18.8125 39.015625 
Q 14.890625 38.140625 10.796875 36.28125 
z
" id="DejaVuSans-53"/>
        <path d="M 19.1875 8.296875 
L 53.609375 8.296875 
L 53.609375 0 
L 7.328125 0 
L 7.328125 8.296875 
Q 12.9375 14.109375 22.625 23.890625 
Q 32.328125 33.6875 34.8125 36.53125 
Q 39.546875 41.84375 41.421875 45.53125 
Q 43.3125 49.21875 43.3125 52.78125 
Q 43.3125 58.59375 39.234375 62.25 
Q 35.15625 65.921875 28.609375 65.921875 
Q 23.96875 65.921875 18.8125 64.3125 
Q 13.671875 62.703125 7.8125 59.421875 
L 7.8125 69.390625 
Q 13.765625 71.78125 18.9375 73 
Q 24.125 74.21875 28.421875 74.21875 
Q 39.75 74.21875 46.484375 68.546875 
Q 53.21875 62.890625 53.21875 53.421875 
Q 53.21875 48.921875 51.53125 44.890625 
Q 49.859375 40.875 45.40625 35.40625 
Q 44.1875 33.984375 37.640625 27.21875 
Q 31.109375 20.453125 19.1875 8.296875 
z
" id="DejaVuSans-50"/>
       </defs>
       <use xlink:href="#DejaVuSans-48"/>
       <use x="63.623047" xlink:href="#DejaVuSans-49"/>
       <use x="127.246094" xlink:href="#DejaVuSans-45"/>
       <use x="163.330078" xlink:href="#DejaVuSans-48"/>
       <use x="226.953125" xlink:href="#DejaVuSans-53"/>
       <use x="290.576172" xlink:href="#DejaVuSans-45"/>
       <use x="326.660156" xlink:href="#DejaVuSans-50"/>
       <use x="390.283203" xlink:href="#DejaVuSans-48"/>
      </g>
     </g>
    </g>
    <g id="xtick_2">
     <g id="line2d_2">
      <g>
       <use style="stroke:#000000;stroke-width:0.8;" x="99.869542" xlink:href="#m3e9c3d13f2" y="292.6296"/>
      </g>
     </g>
     <g id="text_2">
      <!-- 05-05-20 -->
      <g transform="translate(59.520264 328.905352)rotate(-30)scale(0.1 -0.1)">
       <use xlink:href="#DejaVuSans-48"/>
       <use x="63.623047" xlink:href="#DejaVuSans-53"/>
       <use x="127.246094" xlink:href="#DejaVuSans-45"/>
       <use x="163.330078" xlink:href="#DejaVuSans-48"/>
       <use x="226.953125" xlink:href="#DejaVuSans-53"/>
       <use x="290.576172" xlink:href="#DejaVuSans-45"/>
       <use x="326.660156" xlink:href="#DejaVuSans-50"/>
       <use x="390.283203" xlink:href="#DejaVuSans-48"/>
      </g>
     </g>
    </g>
    <g id="xtick_3">
     <g id="line2d_3">
      <g>
       <use style="stroke:#000000;stroke-width:0.8;" x="148.390587" xlink:href="#m3e9c3d13f2" y="292.6296"/>
      </g>
     </g>
     <g id="text_3">
      <!-- 09-05-20 -->
      <g transform="translate(108.041309 328.905352)rotate(-30)scale(0.1 -0.1)">
       <defs>
        <path d="M 10.984375 1.515625 
L 10.984375 10.5 
Q 14.703125 8.734375 18.5 7.8125 
Q 22.3125 6.890625 25.984375 6.890625 
Q 35.75 6.890625 40.890625 13.453125 
Q 46.046875 20.015625 46.78125 33.40625 
Q 43.953125 29.203125 39.59375 26.953125 
Q 35.25 24.703125 29.984375 24.703125 
Q 19.046875 24.703125 12.671875 31.3125 
Q 6.296875 37.9375 6.296875 49.421875 
Q 6.296875 60.640625 12.9375 67.421875 
Q 19.578125 74.21875 30.609375 74.21875 
Q 43.265625 74.21875 49.921875 64.515625 
Q 56.59375 54.828125 56.59375 36.375 
Q 56.59375 19.140625 48.40625 8.859375 
Q 40.234375 -1.421875 26.421875 -1.421875 
Q 22.703125 -1.421875 18.890625 -0.6875 
Q 15.09375 0.046875 10.984375 1.515625 
z
M 30.609375 32.421875 
Q 37.25 32.421875 41.125 36.953125 
Q 45.015625 41.5 45.015625 49.421875 
Q 45.015625 57.28125 41.125 61.84375 
Q 37.25 66.40625 30.609375 66.40625 
Q 23.96875 66.40625 20.09375 61.84375 
Q 16.21875 57.28125 16.21875 49.421875 
Q 16.21875 41.5 20.09375 36.953125 
Q 23.96875 32.421875 30.609375 32.421875 
z
" id="DejaVuSans-57"/>
       </defs>
       <use xlink:href="#DejaVuSans-48"/>
       <use x="63.623047" xlink:href="#DejaVuSans-57"/>
       <use x="127.246094" xlink:href="#DejaVuSans-45"/>
       <use x="163.330078" xlink:href="#DejaVuSans-48"/>
       <use x="226.953125" xlink:href="#DejaVuSans-53"/>
       <use x="290.576172" xlink:href="#DejaVuSans-45"/>
       <use x="326.660156" xlink:href="#DejaVuSans-50"/>
       <use x="390.283203" xlink:href="#DejaVuSans-48"/>
      </g>
     </g>
    </g>
    <g id="xtick_4">
     <g id="line2d_4">
      <g>
       <use style="stroke:#000000;stroke-width:0.8;" x="196.911632" xlink:href="#m3e9c3d13f2" y="292.6296"/>
      </g>
     </g>
     <g id="text_4">
      <!-- 13-05-20 -->
      <g transform="translate(156.562354 328.905352)rotate(-30)scale(0.1 -0.1)">
       <defs>
        <path d="M 40.578125 39.3125 
Q 47.65625 37.796875 51.625 33 
Q 55.609375 28.21875 55.609375 21.1875 
Q 55.609375 10.40625 48.1875 4.484375 
Q 40.765625 -1.421875 27.09375 -1.421875 
Q 22.515625 -1.421875 17.65625 -0.515625 
Q 12.796875 0.390625 7.625 2.203125 
L 7.625 11.71875 
Q 11.71875 9.328125 16.59375 8.109375 
Q 21.484375 6.890625 26.8125 6.890625 
Q 36.078125 6.890625 40.9375 10.546875 
Q 45.796875 14.203125 45.796875 21.1875 
Q 45.796875 27.640625 41.28125 31.265625 
Q 36.765625 34.90625 28.71875 34.90625 
L 20.21875 34.90625 
L 20.21875 43.015625 
L 29.109375 43.015625 
Q 36.375 43.015625 40.234375 45.921875 
Q 44.09375 48.828125 44.09375 54.296875 
Q 44.09375 59.90625 40.109375 62.90625 
Q 36.140625 65.921875 28.71875 65.921875 
Q 24.65625 65.921875 20.015625 65.03125 
Q 15.375 64.15625 9.8125 62.3125 
L 9.8125 71.09375 
Q 15.4375 72.65625 20.34375 73.4375 
Q 25.25 74.21875 29.59375 74.21875 
Q 40.828125 74.21875 47.359375 69.109375 
Q 53.90625 64.015625 53.90625 55.328125 
Q 53.90625 49.265625 50.4375 45.09375 
Q 46.96875 40.921875 40.578125 39.3125 
z
" id="DejaVuSans-51"/>
       </defs>
       <use xlink:href="#DejaVuSans-49"/>
       <use x="63.623047" xlink:href="#DejaVuSans-51"/>
       <use x="127.246094" xlink:href="#DejaVuSans-45"/>
       <use x="163.330078" xlink:href="#DejaVuSans-48"/>
       <use x="226.953125" xlink:href="#DejaVuSans-53"/>
       <use x="290.576172" xlink:href="#DejaVuSans-45"/>
       <use x="326.660156" xlink:href="#DejaVuSans-50"/>
       <use x="390.283203" xlink:href="#DejaVuSans-48"/>
      </g>
     </g>
    </g>
    <g id="xtick_5">
     <g id="line2d_5">
      <g>
       <use style="stroke:#000000;stroke-width:0.8;" x="245.432677" xlink:href="#m3e9c3d13f2" y="292.6296"/>
      </g>
     </g>
     <g id="text_5">
      <!-- 17-05-20 -->
      <g transform="translate(205.083398 328.905352)rotate(-30)scale(0.1 -0.1)">
       <defs>
        <path d="M 8.203125 72.90625 
L 55.078125 72.90625 
L 55.078125 68.703125 
L 28.609375 0 
L 18.3125 0 
L 43.21875 64.59375 
L 8.203125 64.59375 
z
" id="DejaVuSans-55"/>
       </defs>
       <use xlink:href="#DejaVuSans-49"/>
       <use x="63.623047" xlink:href="#DejaVuSans-55"/>
       <use x="127.246094" xlink:href="#DejaVuSans-45"/>
       <use x="163.330078" xlink:href="#DejaVuSans-48"/>
       <use x="226.953125" xlink:href="#DejaVuSans-53"/>
       <use x="290.576172" xlink:href="#DejaVuSans-45"/>
       <use x="326.660156" xlink:href="#DejaVuSans-50"/>
       <use x="390.283203" xlink:href="#DejaVuSans-48"/>
      </g>
     </g>
    </g>
    <g id="xtick_6">
     <g id="line2d_6">
      <g>
       <use style="stroke:#000000;stroke-width:0.8;" x="293.953721" xlink:href="#m3e9c3d13f2" y="292.6296"/>
      </g>
     </g>
     <g id="text_6">
      <!-- 21-05-20 -->
      <g transform="translate(253.604443 328.905352)rotate(-30)scale(0.1 -0.1)">
       <use xlink:href="#DejaVuSans-50"/>
       <use x="63.623047" xlink:href="#DejaVuSans-49"/>
       <use x="127.246094" xlink:href="#DejaVuSans-45"/>
       <use x="163.330078" xlink:href="#DejaVuSans-48"/>
       <use x="226.953125" xlink:href="#DejaVuSans-53"/>
       <use x="290.576172" xlink:href="#DejaVuSans-45"/>
       <use x="326.660156" xlink:href="#DejaVuSans-50"/>
       <use x="390.283203" xlink:href="#DejaVuSans-48"/>
      </g>
     </g>
    </g>
    <g id="xtick_7">
     <g id="line2d_7">
      <g>
       <use style="stroke:#000000;stroke-width:0.8;" x="342.474766" xlink:href="#m3e9c3d13f2" y="292.6296"/>
      </g>
     </g>
     <g id="text_7">
      <!-- 25-05-20 -->
      <g transform="translate(302.125488 328.905352)rotate(-30)scale(0.1 -0.1)">
       <use xlink:href="#DejaVuSans-50"/>
       <use x="63.623047" xlink:href="#DejaVuSans-53"/>
       <use x="127.246094" xlink:href="#DejaVuSans-45"/>
       <use x="163.330078" xlink:href="#DejaVuSans-48"/>
       <use x="226.953125" xlink:href="#DejaVuSans-53"/>
       <use x="290.576172" xlink:href="#DejaVuSans-45"/>
       <use x="326.660156" xlink:href="#DejaVuSans-50"/>
       <use x="390.283203" xlink:href="#DejaVuSans-48"/>
      </g>
     </g>
    </g>
    <g id="xtick_8">
     <g id="line2d_8">
      <g>
       <use style="stroke:#000000;stroke-width:0.8;" x="390.995811" xlink:href="#m3e9c3d13f2" y="292.6296"/>
      </g>
     </g>
     <g id="text_8">
      <!-- 29-05-20 -->
      <g transform="translate(350.646533 328.905352)rotate(-30)scale(0.1 -0.1)">
       <use xlink:href="#DejaVuSans-50"/>
       <use x="63.623047" xlink:href="#DejaVuSans-57"/>
       <use x="127.246094" xlink:href="#DejaVuSans-45"/>
       <use x="163.330078" xlink:href="#DejaVuSans-48"/>
       <use x="226.953125" xlink:href="#DejaVuSans-53"/>
       <use x="290.576172" xlink:href="#DejaVuSans-45"/>
       <use x="326.660156" xlink:href="#DejaVuSans-50"/>
       <use x="390.283203" xlink:href="#DejaVuSans-48"/>
      </g>
     </g>
    </g>
    <g id="xtick_9">
     <g id="line2d_9">
      <g>
       <use style="stroke:#000000;stroke-width:0.8;" x="427.386595" xlink:href="#m3e9c3d13f2" y="292.6296"/>
      </g>
     </g>
     <g id="text_9">
      <!-- 01-06-20 -->
      <g transform="translate(387.037317 328.905352)rotate(-30)scale(0.1 -0.1)">
       <defs>
        <path d="M 33.015625 40.375 
Q 26.375 40.375 22.484375 35.828125 
Q 18.609375 31.296875 18.609375 23.390625 
Q 18.609375 15.53125 22.484375 10.953125 
Q 26.375 6.390625 33.015625 6.390625 
Q 39.65625 6.390625 43.53125 10.953125 
Q 47.40625 15.53125 47.40625 23.390625 
Q 47.40625 31.296875 43.53125 35.828125 
Q 39.65625 40.375 33.015625 40.375 
z
M 52.59375 71.296875 
L 52.59375 62.3125 
Q 48.875 64.0625 45.09375 64.984375 
Q 41.3125 65.921875 37.59375 65.921875 
Q 27.828125 65.921875 22.671875 59.328125 
Q 17.53125 52.734375 16.796875 39.40625 
Q 19.671875 43.65625 24.015625 45.921875 
Q 28.375 48.1875 33.59375 48.1875 
Q 44.578125 48.1875 50.953125 41.515625 
Q 57.328125 34.859375 57.328125 23.390625 
Q 57.328125 12.15625 50.6875 5.359375 
Q 44.046875 -1.421875 33.015625 -1.421875 
Q 20.359375 -1.421875 13.671875 8.265625 
Q 6.984375 17.96875 6.984375 36.375 
Q 6.984375 53.65625 15.1875 63.9375 
Q 23.390625 74.21875 37.203125 74.21875 
Q 40.921875 74.21875 44.703125 73.484375 
Q 48.484375 72.75 52.59375 71.296875 
z
" id="DejaVuSans-54"/>
       </defs>
       <use xlink:href="#DejaVuSans-48"/>
       <use x="63.623047" xlink:href="#DejaVuSans-49"/>
       <use x="127.246094" xlink:href="#DejaVuSans-45"/>
       <use x="163.330078" xlink:href="#DejaVuSans-48"/>
       <use x="226.953125" xlink:href="#DejaVuSans-54"/>
       <use x="290.576172" xlink:href="#DejaVuSans-45"/>
       <use x="326.660156" xlink:href="#DejaVuSans-50"/>
       <use x="390.283203" xlink:href="#DejaVuSans-48"/>
      </g>
     </g>
    </g>
   </g>
   <g id="matplotlib.axis_2">
    <g id="ytick_1">
     <g id="line2d_10">
      <defs>
       <path d="M 0 0 
L -3.5 0 
" id="m8bc364b23a" style="stroke:#000000;stroke-width:0.8;"/>
      </defs>
      <g>
       <use style="stroke:#000000;stroke-width:0.8;" x="32.546592" xlink:href="#m8bc364b23a" y="287.497993"/>
      </g>
     </g>
     <g id="text_10">
      <!-- −6 -->
      <g transform="translate(10.804404 291.297212)scale(0.1 -0.1)">
       <defs>
        <path d="M 10.59375 35.5 
L 73.1875 35.5 
L 73.1875 27.203125 
L 10.59375 27.203125 
z
" id="DejaVuSans-8722"/>
       </defs>
       <use xlink:href="#DejaVuSans-8722"/>
       <use x="83.789062" xlink:href="#DejaVuSans-54"/>
      </g>
     </g>
    </g>
    <g id="ytick_2">
     <g id="line2d_11">
      <g>
       <use style="stroke:#000000;stroke-width:0.8;" x="32.546592" xlink:href="#m8bc364b23a" y="232.198238"/>
      </g>
     </g>
     <g id="text_11">
      <!-- −4 -->
      <g transform="translate(10.804404 235.997457)scale(0.1 -0.1)">
       <defs>
        <path d="M 37.796875 64.3125 
L 12.890625 25.390625 
L 37.796875 25.390625 
z
M 35.203125 72.90625 
L 47.609375 72.90625 
L 47.609375 25.390625 
L 58.015625 25.390625 
L 58.015625 17.1875 
L 47.609375 17.1875 
L 47.609375 0 
L 37.796875 0 
L 37.796875 17.1875 
L 4.890625 17.1875 
L 4.890625 26.703125 
z
" id="DejaVuSans-52"/>
       </defs>
       <use xlink:href="#DejaVuSans-8722"/>
       <use x="83.789062" xlink:href="#DejaVuSans-52"/>
      </g>
     </g>
    </g>
    <g id="ytick_3">
     <g id="line2d_12">
      <g>
       <use style="stroke:#000000;stroke-width:0.8;" x="32.546592" xlink:href="#m8bc364b23a" y="176.898483"/>
      </g>
     </g>
     <g id="text_12">
      <!-- −2 -->
      <g transform="translate(10.804404 180.697702)scale(0.1 -0.1)">
       <use xlink:href="#DejaVuSans-8722"/>
       <use x="83.789062" xlink:href="#DejaVuSans-50"/>
      </g>
     </g>
    </g>
    <g id="ytick_4">
     <g id="line2d_13">
      <g>
       <use style="stroke:#000000;stroke-width:0.8;" x="32.546592" xlink:href="#m8bc364b23a" y="121.598729"/>
      </g>
     </g>
     <g id="text_13">
      <!-- 0 -->
      <g transform="translate(19.184092 125.397947)scale(0.1 -0.1)">
       <use xlink:href="#DejaVuSans-48"/>
      </g>
     </g>
    </g>
    <g id="ytick_5">
     <g id="line2d_14">
      <g>
       <use style="stroke:#000000;stroke-width:0.8;" x="32.546592" xlink:href="#m8bc364b23a" y="66.298974"/>
      </g>
     </g>
     <g id="text_14">
      <!-- 2 -->
      <g transform="translate(19.184092 70.098192)scale(0.1 -0.1)">
       <use xlink:href="#DejaVuSans-50"/>
      </g>
     </g>
    </g>
    <g id="ytick_6">
     <g id="line2d_15">
      <g>
       <use style="stroke:#000000;stroke-width:0.8;" x="32.546592" xlink:href="#m8bc364b23a" y="10.999219"/>
      </g>
     </g>
     <g id="text_15">
      <!-- 4 -->
      <g transform="translate(19.184092 14.798438)scale(0.1 -0.1)">
       <use xlink:href="#DejaVuSans-52"/>
      </g>
     </g>
    </g>
   </g>
   <g id="line2d_16">
    <path clip-path="url(#p2c0b8a65b8)" d="M 51.348497 121.598729 
L 51.853924 279.742588 
L 52.359352 120.898196 
L 52.864779 121.57742 
L 53.875635 121.759719 
L 54.381062 121.728878 
L 54.88649 119.175745 
L 55.391917 122.737981 
L 55.897345 122.995963 
L 56.402772 123.66957 
L 56.9082 127.234566 
L 57.413627 126.823111 
L 57.919055 125.767931 
L 58.424483 125.804427 
L 58.92991 124.878027 
L 59.435338 125.018035 
L 60.95162 114.693979 
L 61.457048 108.633348 
L 61.962475 121.888097 
L 62.467903 121.730793 
L 62.973331 121.773706 
L 63.984186 121.626102 
L 65.500468 121.681944 
L 66.005896 22.002355 
L 66.511323 97.382343 
L 67.016751 108.209732 
L 67.522178 122.309132 
L 68.027606 108.891433 
L 68.533034 117.445087 
L 69.038461 115.087836 
L 69.543889 91.031761 
L 70.049316 115.542784 
L 70.554744 124.492823 
L 71.060171 125.187257 
L 71.565599 121.372634 
L 72.071026 118.527066 
L 72.576454 107.192638 
L 73.081882 117.601467 
L 73.587309 122.500807 
L 74.598164 121.707679 
L 75.609019 121.564121 
L 79.147012 121.56451 
L 79.65244 121.938576 
L 80.157867 123.488889 
L 80.663295 126.116668 
L 81.67415 129.825664 
L 82.685005 131.593727 
L 83.190433 131.455821 
L 83.69586 130.937644 
L 84.201288 130.20653 
L 84.706715 127.352843 
L 85.71757 123.882722 
L 86.728425 122.446327 
L 87.233853 122.59488 
L 88.244708 116.445538 
L 88.750136 116.280427 
L 89.255563 121.612019 
L 91.277273 121.575472 
L 91.782701 122.068011 
L 92.288128 122.962664 
L 93.298984 123.712209 
L 93.804411 127.114777 
L 94.309839 127.432163 
L 94.815266 131.204679 
L 95.320694 131.680963 
L 95.826121 131.01822 
L 96.331549 127.886615 
L 96.836976 126.854441 
L 98.353259 122.697449 
L 98.858687 122.15381 
L 99.364114 122.41402 
L 100.374969 122.302233 
L 100.880397 122.070307 
L 103.407535 121.906072 
L 103.912962 122.455207 
L 104.923817 123.187552 
L 105.429245 120.690042 
L 105.934672 104.677781 
L 106.4401 123.72637 
L 107.450955 113.018066 
L 107.956383 123.84923 
L 108.967238 123.525772 
L 109.472665 122.834966 
L 110.48352 121.834151 
L 114.526941 121.853381 
L 115.537796 121.980047 
L 116.043223 122.823447 
L 117.054079 126.472199 
L 117.559506 126.158744 
L 118.064934 129.273934 
L 118.570361 130.639462 
L 119.075789 131.567039 
L 120.086644 130.87017 
L 120.592071 129.837715 
L 121.602926 126.640184 
L 122.613782 122.707022 
L 123.119209 122.117069 
L 126.151774 121.620725 
L 127.668057 121.615632 
L 128.173485 122.574181 
L 129.18434 126.847957 
L 130.195195 131.347518 
L 131.20605 133.198681 
L 131.711477 133.057236 
L 132.216905 132.523763 
L 132.722333 131.462397 
L 133.22776 129.819149 
L 134.744043 122.683494 
L 135.24947 122.337786 
L 135.754898 122.208787 
L 136.260325 121.816258 
L 138.787463 121.637136 
L 139.798318 121.634241 
L 140.303746 122.564499 
L 142.325456 132.122913 
L 142.830884 133.114132 
L 143.336311 133.417058 
L 143.841739 133.055206 
L 144.347166 133.470454 
L 144.852594 131.364278 
L 145.358021 128.095635 
L 146.368876 124.89869 
L 146.874304 123.293593 
L 147.379732 122.262203 
L 147.885159 122.032317 
L 150.412297 121.640444 
L 151.423152 121.61546 
L 151.92858 121.674742 
L 152.434007 111.354817 
L 152.939435 123.467203 
L 153.444862 127.55333 
L 153.95029 129.345133 
L 154.455717 130.259119 
L 154.961145 127.715767 
L 155.466572 133.730091 
L 156.477428 133.006191 
L 156.982855 131.775197 
L 157.99371 127.2018 
L 158.499138 123.841973 
L 159.004565 122.72642 
L 162.037131 121.654731 
L 163.553413 121.666455 
L 164.058841 105.556975 
L 164.564268 41.163408 
L 165.575123 123.586483 
L 166.080551 123.925831 
L 166.585979 127.383277 
L 167.091406 127.102642 
L 167.596834 132.859517 
L 168.102261 133.084739 
L 168.607689 132.425949 
L 169.113116 131.131457 
L 169.618544 129.44831 
L 170.629399 123.777414 
L 171.134826 122.109097 
L 173.156537 121.68181 
L 175.178247 121.644416 
L 175.683674 121.765234 
L 176.189102 119.099483 
L 176.69453 122.310216 
L 177.199957 120.048092 
L 177.705385 123.282069 
L 178.210812 123.707091 
L 178.71624 127.907739 
L 179.221667 130.88207 
L 179.727095 127.035688 
L 180.232522 124.568329 
L 180.73795 124.090288 
L 181.243378 123.833864 
L 181.748805 104.090036 
L 182.254233 117.299127 
L 182.75966 122.590527 
L 183.265088 108.603985 
L 183.770515 89.514916 
L 184.275943 86.7613 
L 184.78137 102.885035 
L 185.286798 108.2509 
L 185.792225 110.909317 
L 186.297653 119.097649 
L 186.803081 121.83045 
L 188.319363 121.894115 
L 188.824791 122.824534 
L 189.330218 124.241939 
L 189.835646 124.384561 
L 190.341073 123.965451 
L 190.846501 126.124588 
L 191.351929 127.043753 
L 191.857356 127.618302 
L 192.362784 129.182946 
L 192.868211 129.117397 
L 193.373639 128.516544 
L 193.879066 126.971338 
L 194.384494 124.863533 
L 194.889921 123.234025 
L 195.900777 121.887277 
L 196.911632 121.869085 
L 197.922487 121.904585 
L 198.933342 121.922069 
L 199.438769 121.809862 
L 199.944197 121.844115 
L 200.449624 119.128179 
L 200.955052 122.242271 
L 201.46048 119.986881 
L 201.965907 87.972914 
L 202.471335 123.498913 
L 202.976762 123.929607 
L 203.48219 121.22748 
L 203.987617 121.346085 
L 204.493045 124.256821 
L 204.998472 118.510776 
L 205.5039 123.479511 
L 206.009328 123.28128 
L 206.514755 122.783088 
L 207.020183 122.5933 
L 207.52561 122.114009 
L 209.54732 121.821422 
L 210.052748 105.502238 
L 210.558175 81.201189 
L 211.063603 100.08264 
L 211.569031 75.771771 
L 212.074458 100.044717 
L 212.579886 108.303232 
L 213.085313 119.481551 
L 213.590741 122.605521 
L 215.107023 124.061034 
L 215.612451 124.15028 
L 216.117879 124.361262 
L 216.623306 124.434363 
L 217.128734 124.360223 
L 217.634161 123.907378 
L 218.139589 123.716931 
L 219.655871 122.403604 
L 220.666727 122.289801 
L 222.183009 122.320734 
L 223.193864 122.464745 
L 223.699292 122.26346 
L 224.710147 122.383283 
L 226.22643 123.640795 
L 226.731857 123.978974 
L 228.24814 124.505078 
L 229.258995 124.213655 
L 229.764422 124.317866 
L 230.26985 125.300387 
L 230.775278 123.759598 
L 231.786133 122.145925 
L 232.796988 121.741395 
L 233.302415 121.611794 
L 236.840408 121.576736 
L 237.345836 122.843115 
L 237.851263 124.530485 
L 238.862118 129.478769 
L 239.367546 130.167482 
L 239.872973 131.347199 
L 240.378401 132.028502 
L 240.883829 132.08877 
L 241.389256 131.40074 
L 241.894684 130.250512 
L 242.905539 127.065192 
L 243.916394 122.636357 
L 244.421821 122.206101 
L 244.927249 122.144085 
L 245.432677 121.888279 
L 246.443532 121.657936 
L 248.465242 121.595286 
L 248.970669 121.613656 
L 249.476097 122.98254 
L 251.497807 131.779621 
L 252.003235 132.601886 
L 252.508662 133.038598 
L 253.01409 132.942592 
L 253.519517 132.313707 
L 254.024945 131.398291 
L 255.0358 128.202297 
L 256.046655 122.984958 
L 256.552083 122.447021 
L 258.068365 121.899497 
L 258.573793 121.781467 
L 261.100931 121.687056 
L 261.606358 123.178994 
L 263.122641 129.646841 
L 263.628068 131.696078 
L 264.133496 133.011529 
L 264.638923 133.650851 
L 265.144351 133.444714 
L 266.155206 131.477295 
L 266.660634 129.875848 
L 268.176916 122.679187 
L 268.682344 122.512808 
L 269.187771 122.12281 
L 270.704054 121.80213 
L 271.714909 121.759047 
L 272.725764 121.64245 
L 273.231192 121.734657 
L 273.736619 123.463505 
L 275.252902 130.637154 
L 275.75833 132.114141 
L 276.263757 133.043311 
L 276.769185 133.61608 
L 277.274612 131.508534 
L 277.78004 129.95431 
L 278.285467 131.628219 
L 278.790895 129.712894 
L 279.296322 126.154455 
L 280.307178 123.864881 
L 280.812605 123.37222 
L 281.318033 123.301143 
L 281.82346 122.864006 
L 284.856026 122.012272 
L 285.361453 122.141668 
L 286.372308 123.543593 
L 286.877736 125.828113 
L 287.383163 125.770089 
L 287.888591 127.210338 
L 288.394018 132.30077 
L 288.899446 132.306618 
L 289.404873 130.85061 
L 290.415729 129.307736 
L 290.921156 126.301862 
L 291.426584 125.286522 
L 291.932011 124.93415 
L 292.437439 122.847728 
L 292.942866 122.049359 
L 293.953721 121.947297 
L 296.986287 121.604452 
L 297.491714 121.648844 
L 297.997142 123.215992 
L 300.018852 131.49916 
L 300.52428 131.940916 
L 301.029707 130.711677 
L 302.040562 132.391414 
L 302.54599 131.016929 
L 303.556845 127.254185 
L 304.5677 122.137241 
L 305.073128 122.257606 
L 305.578555 121.836915 
L 309.116548 121.604046 
L 309.621976 121.66211 
L 310.127403 123.032259 
L 311.138258 127.833649 
L 311.643686 128.172028 
L 312.149113 131.203887 
L 312.654541 126.95812 
L 313.159968 128.052706 
L 313.665396 132.910329 
L 314.170824 132.01341 
L 314.676251 130.708125 
L 315.181679 125.721831 
L 315.687106 125.081208 
L 317.203389 121.998836 
L 318.214244 121.772047 
L 318.719671 122.370544 
L 319.225099 122.437103 
L 320.235954 122.165251 
L 320.741382 121.715623 
L 321.246809 121.661152 
L 321.752237 121.897149 
L 322.257664 122.355979 
L 322.763092 122.991584 
L 323.268519 118.502201 
L 323.773947 97.233429 
L 324.279375 128.900083 
L 324.784802 130.414943 
L 325.29023 37.320716 
L 325.795657 77.657378 
L 326.301085 64.105562 
L 326.806512 88.140188 
L 327.31194 87.85438 
L 327.817367 79.490746 
L 328.322795 116.863861 
L 328.828222 113.734848 
L 329.33365 121.775491 
L 330.344505 121.566091 
L 332.366215 121.709043 
L 332.871643 121.81595 
L 333.37707 121.780632 
L 333.882498 121.856936 
L 334.387926 122.566846 
L 334.893353 124.569993 
L 335.904208 127.590197 
L 336.409636 128.483582 
L 336.915063 126.05539 
L 337.420491 128.858577 
L 337.925918 130.913976 
L 338.431346 130.557661 
L 339.442201 129.085685 
L 339.947629 127.127333 
L 340.453056 124.687124 
L 341.463911 122.000245 
L 342.474766 121.693308 
L 342.980194 121.807734 
L 345.507332 121.683395 
L 346.012759 121.797281 
L 347.023614 122.749836 
L 348.034469 123.908992 
L 348.539897 127.150564 
L 349.045325 125.6732 
L 349.550752 125.612155 
L 350.05618 127.194195 
L 350.561607 127.873088 
L 351.572462 125.958732 
L 352.07789 125.393259 
L 353.088745 122.163525 
L 354.0996 121.797532 
L 355.110455 121.58873 
L 358.14302 121.620542 
L 359.153876 125.129903 
L 359.659303 127.291475 
L 360.164731 128.575925 
L 360.670158 129.225372 
L 361.175586 131.120674 
L 361.681013 131.821876 
L 362.186441 130.148607 
L 362.691868 130.541283 
L 363.197296 128.435864 
L 363.702724 127.982161 
L 364.208151 127.140362 
L 365.219006 123.352577 
L 365.724434 122.360206 
L 366.229861 122.079832 
L 366.735289 121.955921 
L 367.746144 121.923597 
L 369.767854 121.679177 
L 370.273282 121.764829 
L 370.778709 123.3926 
L 372.294992 130.171089 
L 373.305847 132.189073 
L 373.811275 132.554676 
L 374.316702 132.567921 
L 374.82213 132.046802 
L 375.327557 130.918183 
L 376.338412 127.535845 
L 376.84384 124.989013 
L 377.349267 123.213559 
L 377.854695 122.331295 
L 378.86555 121.890897 
L 379.370978 121.877201 
L 380.381833 121.685144 
L 381.898115 121.653815 
L 382.403543 121.887115 
L 382.90897 122.288342 
L 383.414398 123.146726 
L 383.919826 126.810315 
L 384.930681 130.676131 
L 385.436108 127.883167 
L 385.941536 129.667532 
L 386.446963 130.763304 
L 386.952391 128.138646 
L 387.457818 123.819501 
L 387.963246 127.504028 
L 388.974101 125.490188 
L 389.479529 123.878672 
L 389.984956 122.671719 
L 390.490384 122.230131 
L 390.995811 122.177333 
L 391.501239 122.442483 
L 392.006666 123.008242 
L 393.017522 122.091406 
L 394.028377 122.050961 
L 394.533804 122.205705 
L 395.039232 123.588933 
L 395.544659 125.641987 
L 396.555514 128.541088 
L 397.060942 129.597834 
L 397.566369 130.181571 
L 398.071797 130.049453 
L 398.577225 130.393099 
L 399.082652 130.998198 
L 401.104362 125.066402 
L 401.60979 123.303135 
L 402.115217 122.714279 
L 402.620645 122.599753 
L 403.126073 122.249125 
L 403.6315 122.088564 
L 404.136928 122.214075 
L 406.664065 122.151364 
L 407.169493 123.497189 
L 408.180348 127.286914 
L 408.685776 128.870766 
L 409.696631 131.022854 
L 410.202058 130.759782 
L 410.707486 128.297661 
L 411.212913 127.368675 
L 411.718341 128.409538 
L 412.223768 127.334842 
L 412.729196 126.549508 
L 413.740051 122.996601 
L 414.245479 122.232805 
L 414.750906 122.030498 
L 415.256334 122.044174 
L 416.267189 121.843514 
L 418.288899 121.762997 
L 418.794327 121.864667 
L 419.299754 123.198085 
L 421.321464 130.171372 
L 421.826892 130.569814 
L 422.332319 130.808988 
L 422.837747 130.911788 
L 423.343175 130.222197 
L 424.859457 126.653663 
L 425.364885 125.349578 
L 425.870312 123.550121 
L 426.37574 122.529189 
L 426.881167 122.43319 
L 427.386595 122.461025 
L 427.386595 122.461025 
" style="fill:none;stroke:#ff0000;stroke-linecap:square;stroke-width:0.75;"/>
   </g>
   <g id="line2d_17">
    <path clip-path="url(#p2c0b8a65b8)" d="M 51.348497 121.598729 
L 51.853924 121.699353 
L 52.359352 120.807661 
L 52.864779 121.554278 
L 53.875635 121.634377 
L 54.381062 121.623357 
L 54.88649 119.175745 
L 55.391917 122.730288 
L 55.897345 122.967751 
L 56.402772 122.446335 
L 56.9082 123.910598 
L 57.413627 123.737655 
L 57.919055 123.301484 
L 58.424483 123.316611 
L 58.92991 122.933434 
L 59.435338 122.991696 
L 59.940765 121.644509 
L 60.95162 114.693979 
L 61.457048 108.633348 
L 61.962475 121.887097 
L 62.467903 121.730672 
L 62.973331 121.773062 
L 63.984186 121.625912 
L 65.500468 121.681585 
L 66.005896 22.002355 
L 66.511323 97.382343 
L 67.016751 108.209732 
L 67.522178 122.308593 
L 68.027606 108.891433 
L 68.533034 117.445087 
L 69.038461 115.087836 
L 69.543889 91.031761 
L 70.049316 115.542784 
L 70.554744 124.490702 
L 71.060171 125.158089 
L 71.565599 121.372634 
L 72.071026 118.527066 
L 72.576454 107.192638 
L 73.081882 117.601467 
L 73.587309 122.500128 
L 74.598164 121.707575 
L 75.609019 121.564121 
L 79.147012 121.56451 
L 79.65244 121.937098 
L 80.157867 123.456318 
L 80.663295 125.683668 
L 81.67415 127.109013 
L 82.179577 127.425664 
L 82.685005 127.534231 
L 83.69586 126.957585 
L 84.201288 126.48493 
L 84.706715 124.850328 
L 85.71757 122.876919 
L 86.728425 122.063933 
L 87.233853 122.146866 
L 87.739281 119.588537 
L 88.244708 116.445538 
L 88.750136 116.280427 
L 89.255563 121.612019 
L 91.277273 121.575465 
L 91.782701 122.067607 
L 92.288128 122.95414 
L 93.298984 123.652034 
L 93.804411 126.441132 
L 94.309839 125.51825 
L 94.815266 127.090202 
L 95.320694 127.188635 
L 95.826121 126.78975 
L 96.331549 125.03211 
L 96.836976 124.46372 
L 98.353259 122.184061 
L 98.858687 121.887718 
L 99.364114 122.029359 
L 100.374969 121.96765 
L 101.385824 121.822383 
L 102.902107 121.745533 
L 103.407535 121.75206 
L 104.41839 122.221162 
L 104.923817 122.449928 
L 105.429245 120.690042 
L 105.934672 104.677781 
L 106.4401 123.724806 
L 107.450955 113.018066 
L 107.956383 123.847577 
L 108.967238 123.513689 
L 109.472665 122.823535 
L 110.48352 121.831262 
L 114.526941 121.84708 
L 115.537796 121.968428 
L 116.043223 122.771308 
L 117.054079 125.42979 
L 117.559506 124.833814 
L 118.064934 126.583412 
L 118.570361 126.86166 
L 119.075789 127.277684 
L 120.086644 126.672234 
L 120.592071 126.068496 
L 121.602926 124.328637 
L 122.613782 122.188301 
L 123.119209 121.866569 
L 126.657202 121.587304 
L 127.668057 121.593617 
L 128.173485 122.116037 
L 129.18434 124.443692 
L 130.195195 126.888007 
L 131.20605 127.799894 
L 131.711477 127.724551 
L 132.216905 127.385518 
L 132.722333 126.822288 
L 133.22776 125.949617 
L 134.744043 122.160325 
L 136.260325 121.69919 
L 139.798318 121.602793 
L 140.303746 122.09563 
L 142.325456 127.15952 
L 142.830884 127.658259 
L 143.336311 127.78741 
L 143.841739 127.5974 
L 144.347166 127.79101 
L 144.852594 126.689626 
L 145.358021 124.980793 
L 146.368876 123.309487 
L 146.874304 122.47042 
L 147.379732 121.931081 
L 148.390587 121.759205 
L 150.917724 121.578529 
L 151.92858 121.623727 
L 152.434007 111.354817 
L 152.939435 123.465828 
L 153.444862 127.480022 
L 153.95029 126.277191 
L 154.455717 126.152322 
L 154.961145 124.790872 
L 155.466572 127.930768 
L 156.477428 127.548462 
L 156.982855 126.895856 
L 157.99371 124.481979 
L 158.499138 122.743921 
L 159.004565 122.167235 
L 162.037131 121.612877 
L 163.553413 121.618953 
L 164.058841 105.556975 
L 164.564268 41.163408 
L 165.575123 123.585021 
L 166.080551 123.922852 
L 166.585979 127.308856 
L 167.091406 126.84951 
L 167.596834 131.292997 
L 168.102261 130.465612 
L 169.618544 126.851833 
L 170.629399 122.997134 
L 171.134826 121.920263 
L 173.156537 121.641587 
L 175.683674 121.695503 
L 176.189102 119.099483 
L 176.69453 122.308474 
L 177.199957 120.048092 
L 177.705385 123.280337 
L 178.210812 123.686957 
L 179.221667 127.213216 
L 179.727095 124.825025 
L 180.232522 123.335775 
L 181.243378 122.888212 
L 181.748805 104.090036 
L 182.254233 117.299127 
L 182.75966 122.589332 
L 183.265088 108.603985 
L 183.770515 89.514916 
L 184.275943 86.7613 
L 184.78137 102.885035 
L 185.286798 108.2509 
L 185.792225 110.909317 
L 186.297653 119.097649 
L 186.803081 121.830259 
L 188.319363 121.89363 
L 188.824791 122.819677 
L 189.330218 124.187789 
L 189.835646 124.251951 
L 190.341073 123.775662 
L 190.846501 125.601659 
L 191.351929 126.055815 
L 191.857356 126.207866 
L 192.362784 127.131357 
L 192.868211 126.870877 
L 193.373639 126.338939 
L 194.889921 122.664183 
L 195.900777 121.779252 
L 197.417059 121.743238 
L 198.933342 121.801883 
L 199.944197 121.749989 
L 200.449624 119.128179 
L 200.955052 122.242271 
L 201.46048 119.986881 
L 201.965907 87.972914 
L 202.471335 123.497514 
L 202.976762 123.927562 
L 203.48219 121.22748 
L 203.987617 121.346085 
L 204.493045 124.247909 
L 204.998472 118.510776 
L 205.5039 123.478126 
L 206.009328 123.279377 
L 206.514755 122.771346 
L 207.020183 122.57357 
L 207.52561 122.099748 
L 209.54732 121.81296 
L 210.052748 105.502238 
L 210.558175 81.201189 
L 211.063603 100.08264 
L 211.569031 75.771771 
L 212.074458 100.044717 
L 212.579886 108.303232 
L 213.085313 119.481551 
L 213.590741 122.604768 
L 215.107023 124.023 
L 216.623306 124.171108 
L 217.128734 124.036976 
L 217.634161 123.577196 
L 218.139589 123.3597 
L 219.655871 122.227532 
L 220.666727 122.129831 
L 222.183009 122.137861 
L 223.193864 122.241618 
L 223.699292 122.085727 
L 224.710147 122.171662 
L 225.721002 122.802564 
L 226.731857 123.26334 
L 228.24814 123.518277 
L 229.258995 123.244404 
L 229.764422 123.283376 
L 230.26985 123.880913 
L 230.775278 122.925063 
L 231.786133 121.925853 
L 232.796988 121.674769 
L 233.807843 121.590768 
L 236.334981 121.574374 
L 236.840408 121.572651 
L 237.345836 122.357231 
L 237.851263 123.3947 
L 238.862118 126.389121 
L 239.367546 126.713014 
L 239.872973 127.387795 
L 240.378401 127.762937 
L 240.883829 127.797322 
L 241.389256 127.379782 
L 241.894684 126.699832 
L 242.905539 124.81684 
L 243.916394 122.198737 
L 244.421821 121.944396 
L 244.927249 121.907739 
L 245.938104 121.680391 
L 247.454387 121.595025 
L 248.970669 121.594196 
L 249.476097 122.403418 
L 251.497807 127.585133 
L 252.003235 128.069718 
L 252.508662 128.327091 
L 253.01409 128.270524 
L 253.519517 127.899921 
L 254.024945 127.360459 
L 255.0358 125.477018 
L 256.046655 122.402353 
L 256.552083 122.085342 
L 258.068365 121.762686 
L 259.584648 121.634915 
L 261.100931 121.637507 
L 261.606358 122.516737 
L 263.122641 126.29977 
L 263.628068 127.469357 
L 264.133496 128.235927 
L 264.638923 128.608495 
L 265.144351 128.47822 
L 266.155206 127.321264 
L 266.660634 126.391392 
L 268.176916 122.212663 
L 268.682344 122.11606 
L 269.187771 121.88961 
L 270.704054 121.703416 
L 272.220337 121.643584 
L 273.231192 121.664248 
L 273.736619 122.668109 
L 275.252902 126.833518 
L 275.75833 127.684834 
L 276.263757 128.175538 
L 276.769185 128.505378 
L 277.274612 127.291766 
L 277.78004 126.396783 
L 278.285467 127.36071 
L 278.790895 126.257786 
L 279.296322 124.20868 
L 280.307178 122.890248 
L 280.812605 122.606556 
L 281.318033 122.56563 
L 281.82346 122.31391 
L 284.856026 121.823459 
L 285.361453 121.897973 
L 286.372308 122.705272 
L 286.877736 124.02081 
L 287.383163 123.987402 
L 287.888591 124.814693 
L 288.394018 127.740228 
L 288.899446 127.739572 
L 289.404873 126.892781 
L 290.415729 125.979488 
L 290.921156 124.266094 
L 291.426584 123.687339 
L 291.932011 123.486486 
L 292.437439 122.297192 
L 292.942866 121.842111 
L 294.964577 121.692221 
L 296.480859 121.590715 
L 297.491714 121.613825 
L 297.997142 122.50713 
L 300.018852 127.228712 
L 300.52428 127.480532 
L 301.029707 126.779855 
L 302.040562 127.737361 
L 303.051417 125.976856 
L 303.556845 124.809081 
L 304.5677 121.892342 
L 305.073128 121.960956 
L 305.578555 121.721156 
L 309.621976 121.621525 
L 310.127403 122.402537 
L 311.138258 125.139425 
L 311.643686 125.319847 
L 312.149113 127.042349 
L 312.654541 124.630207 
L 313.159968 125.252085 
L 313.665396 128.011859 
L 314.170824 127.502302 
L 314.676251 126.760742 
L 315.181679 123.927886 
L 315.687106 123.563937 
L 317.203389 121.812449 
L 318.214244 121.683771 
L 318.719671 122.023365 
L 319.730527 122.00368 
L 320.235954 121.906886 
L 320.741382 121.651764 
L 321.246809 121.620858 
L 321.752237 121.754766 
L 322.763092 122.375763 
L 323.268519 118.502201 
L 323.773947 97.233429 
L 324.279375 128.891944 
L 324.784802 130.263519 
L 325.29023 37.320716 
L 325.795657 77.657378 
L 326.301085 64.105562 
L 326.806512 88.140188 
L 327.31194 87.85438 
L 327.817367 79.490746 
L 328.322795 116.863861 
L 328.828222 113.734848 
L 329.33365 121.775338 
L 330.344505 121.566091 
L 332.366215 121.708939 
L 332.871643 121.815769 
L 333.882498 121.856446 
L 334.387926 122.558063 
L 334.893353 124.420389 
L 335.398781 125.530055 
L 335.904208 126.314634 
L 336.409636 126.4985 
L 336.915063 124.659174 
L 337.420491 126.461462 
L 337.925918 127.547905 
L 338.431346 127.22759 
L 339.442201 126.243259 
L 340.958484 122.632005 
L 341.463911 121.836288 
L 342.474766 121.645384 
L 343.485621 121.695779 
L 344.496477 121.599201 
L 346.012759 121.709968 
L 347.529042 122.620626 
L 348.034469 123.018778 
L 348.539897 125.017972 
L 349.045325 124.088158 
L 349.550752 124.029637 
L 350.05618 124.973082 
L 350.561607 125.383166 
L 351.572462 124.208778 
L 352.07789 123.865523 
L 353.088745 121.924988 
L 354.605028 121.622719 
L 356.12131 121.598249 
L 358.14302 121.598926 
L 359.153876 123.706963 
L 359.659303 124.999669 
L 360.164731 125.769967 
L 360.670158 126.159819 
L 361.175586 127.29608 
L 361.681013 127.716602 
L 362.186441 126.704478 
L 362.691868 126.93219 
L 363.197296 125.673426 
L 363.702724 125.40218 
L 364.208151 124.898901 
L 365.219006 122.634298 
L 365.724434 122.04099 
L 366.735289 121.799285 
L 368.251571 121.732419 
L 369.767854 121.633836 
L 370.273282 121.685047 
L 370.778709 122.65825 
L 372.294992 126.710944 
L 373.305847 127.899029 
L 373.811275 128.094086 
L 374.316702 128.079257 
L 374.82213 127.770773 
L 375.327557 127.102654 
L 376.338412 125.085524 
L 376.84384 123.584168 
L 377.349267 122.537538 
L 377.854695 122.017445 
L 379.876405 121.662154 
L 381.898115 121.618081 
L 382.90897 121.992138 
L 383.414398 122.498159 
L 383.919826 124.645968 
L 384.930681 126.916124 
L 385.436108 125.276006 
L 385.941536 126.323858 
L 386.446963 126.967342 
L 386.952391 125.42606 
L 387.457818 122.889715 
L 387.963246 125.053039 
L 389.479529 122.924486 
L 389.984956 122.215725 
L 390.490384 121.956412 
L 390.995811 121.92541 
L 391.501239 122.081117 
L 392.006666 122.413352 
L 393.017522 121.874957 
L 394.028377 121.85121 
L 394.533804 121.942082 
L 395.039232 122.754364 
L 395.544659 123.959992 
L 396.555514 125.662457 
L 397.060942 126.283023 
L 397.566369 126.625823 
L 398.071797 126.548248 
L 398.577225 126.726046 
L 399.082652 127.079745 
L 400.093507 125.494968 
L 400.598935 124.715078 
L 401.60979 122.575584 
L 402.115217 122.23354 
L 402.620645 122.166829 
L 403.6315 121.869706 
L 404.642355 121.934405 
L 406.664065 121.906147 
L 407.169493 122.68691 
L 408.180348 124.885472 
L 408.685776 125.79442 
L 409.696631 127.026228 
L 410.202058 126.842746 
L 410.707486 125.429792 
L 411.212913 124.896674 
L 411.718341 125.494014 
L 412.729196 124.426593 
L 413.740051 122.387659 
L 414.245479 121.949334 
L 414.750906 121.833236 
L 415.761761 121.773613 
L 417.278044 121.683193 
L 418.794327 121.738077 
L 419.299754 122.503302 
L 421.321464 126.505159 
L 422.332319 126.871094 
L 422.837747 126.9301 
L 423.343175 126.534368 
L 424.859457 124.486483 
L 425.364885 123.738101 
L 425.870312 122.705432 
L 426.37574 122.119543 
L 427.386595 122.080429 
L 427.386595 122.080429 
" style="fill:none;stroke:#008000;stroke-linecap:square;stroke-width:0.75;"/>
   </g>
   <g id="patch_3">
    <path d="M 32.546592 292.6296 
L 32.546592 9.115344 
" style="fill:none;stroke:#000000;stroke-linecap:square;stroke-linejoin:miter;stroke-width:0.8;"/>
   </g>
   <g id="patch_4">
    <path d="M 446.1885 292.6296 
L 446.1885 9.115344 
" style="fill:none;stroke:#000000;stroke-linecap:square;stroke-linejoin:miter;stroke-width:0.8;"/>
   </g>
   <g id="patch_5">
    <path d="M 32.546592 292.6296 
L 446.1885 292.6296 
" style="fill:none;stroke:#000000;stroke-linecap:square;stroke-linejoin:miter;stroke-width:0.8;"/>
   </g>
   <g id="patch_6">
    <path d="M 32.546592 9.115344 
L 446.1885 9.115344 
" style="fill:none;stroke:#000000;stroke-linecap:square;stroke-linejoin:miter;stroke-width:0.8;"/>
   </g>
   <g id="legend_1">
    <g id="patch_7">
     <path d="M 123.3885 287.6296 
L 439.1885 287.6296 
Q 441.1885 287.6296 441.1885 285.6296 
L 441.1885 252.2296 
Q 441.1885 250.2296 439.1885 250.2296 
L 123.3885 250.2296 
Q 121.3885 250.2296 121.3885 252.2296 
L 121.3885 285.6296 
Q 121.3885 287.6296 123.3885 287.6296 
z
" style="fill:#ffffff;opacity:0.8;stroke:#cccccc;stroke-linejoin:miter;"/>
    </g>
    <g id="line2d_18">
     <path d="M 125.3885 259.8296 
L 145.3885 259.8296 
" style="fill:none;stroke:#ff0000;stroke-linecap:square;stroke-width:0.75;"/>
    </g>
    <g id="line2d_19"/>
    <g id="text_16">
     <!-- SW discharges as prescribed by GWSWEX ($m^3$/$\delta t_{exchange}$) -->
     <g transform="translate(153.3885 263.3296)scale(0.1 -0.1)">
      <defs>
       <path d="M 53.515625 70.515625 
L 53.515625 60.890625 
Q 47.90625 63.578125 42.921875 64.890625 
Q 37.9375 66.21875 33.296875 66.21875 
Q 25.25 66.21875 20.875 63.09375 
Q 16.5 59.96875 16.5 54.203125 
Q 16.5 49.359375 19.40625 46.890625 
Q 22.3125 44.4375 30.421875 42.921875 
L 36.375 41.703125 
Q 47.40625 39.59375 52.65625 34.296875 
Q 57.90625 29 57.90625 20.125 
Q 57.90625 9.515625 50.796875 4.046875 
Q 43.703125 -1.421875 29.984375 -1.421875 
Q 24.8125 -1.421875 18.96875 -0.25 
Q 13.140625 0.921875 6.890625 3.21875 
L 6.890625 13.375 
Q 12.890625 10.015625 18.65625 8.296875 
Q 24.421875 6.59375 29.984375 6.59375 
Q 38.421875 6.59375 43.015625 9.90625 
Q 47.609375 13.234375 47.609375 19.390625 
Q 47.609375 24.75 44.3125 27.78125 
Q 41.015625 30.8125 33.5 32.328125 
L 27.484375 33.5 
Q 16.453125 35.6875 11.515625 40.375 
Q 6.59375 45.0625 6.59375 53.421875 
Q 6.59375 63.09375 13.40625 68.65625 
Q 20.21875 74.21875 32.171875 74.21875 
Q 37.3125 74.21875 42.625 73.28125 
Q 47.953125 72.359375 53.515625 70.515625 
z
" id="DejaVuSans-83"/>
       <path d="M 3.328125 72.90625 
L 13.28125 72.90625 
L 28.609375 11.28125 
L 43.890625 72.90625 
L 54.984375 72.90625 
L 70.3125 11.28125 
L 85.59375 72.90625 
L 95.609375 72.90625 
L 77.296875 0 
L 64.890625 0 
L 49.515625 63.28125 
L 33.984375 0 
L 21.578125 0 
z
" id="DejaVuSans-87"/>
       <path id="DejaVuSans-32"/>
       <path d="M 45.40625 46.390625 
L 45.40625 75.984375 
L 54.390625 75.984375 
L 54.390625 0 
L 45.40625 0 
L 45.40625 8.203125 
Q 42.578125 3.328125 38.25 0.953125 
Q 33.9375 -1.421875 27.875 -1.421875 
Q 17.96875 -1.421875 11.734375 6.484375 
Q 5.515625 14.40625 5.515625 27.296875 
Q 5.515625 40.1875 11.734375 48.09375 
Q 17.96875 56 27.875 56 
Q 33.9375 56 38.25 53.625 
Q 42.578125 51.265625 45.40625 46.390625 
z
M 14.796875 27.296875 
Q 14.796875 17.390625 18.875 11.75 
Q 22.953125 6.109375 30.078125 6.109375 
Q 37.203125 6.109375 41.296875 11.75 
Q 45.40625 17.390625 45.40625 27.296875 
Q 45.40625 37.203125 41.296875 42.84375 
Q 37.203125 48.484375 30.078125 48.484375 
Q 22.953125 48.484375 18.875 42.84375 
Q 14.796875 37.203125 14.796875 27.296875 
z
" id="DejaVuSans-100"/>
       <path d="M 9.421875 54.6875 
L 18.40625 54.6875 
L 18.40625 0 
L 9.421875 0 
z
M 9.421875 75.984375 
L 18.40625 75.984375 
L 18.40625 64.59375 
L 9.421875 64.59375 
z
" id="DejaVuSans-105"/>
       <path d="M 44.28125 53.078125 
L 44.28125 44.578125 
Q 40.484375 46.53125 36.375 47.5 
Q 32.28125 48.484375 27.875 48.484375 
Q 21.1875 48.484375 17.84375 46.4375 
Q 14.5 44.390625 14.5 40.28125 
Q 14.5 37.15625 16.890625 35.375 
Q 19.28125 33.59375 26.515625 31.984375 
L 29.59375 31.296875 
Q 39.15625 29.25 43.1875 25.515625 
Q 47.21875 21.78125 47.21875 15.09375 
Q 47.21875 7.46875 41.1875 3.015625 
Q 35.15625 -1.421875 24.609375 -1.421875 
Q 20.21875 -1.421875 15.453125 -0.5625 
Q 10.6875 0.296875 5.421875 2 
L 5.421875 11.28125 
Q 10.40625 8.6875 15.234375 7.390625 
Q 20.0625 6.109375 24.8125 6.109375 
Q 31.15625 6.109375 34.5625 8.28125 
Q 37.984375 10.453125 37.984375 14.40625 
Q 37.984375 18.0625 35.515625 20.015625 
Q 33.0625 21.96875 24.703125 23.78125 
L 21.578125 24.515625 
Q 13.234375 26.265625 9.515625 29.90625 
Q 5.8125 33.546875 5.8125 39.890625 
Q 5.8125 47.609375 11.28125 51.796875 
Q 16.75 56 26.8125 56 
Q 31.78125 56 36.171875 55.265625 
Q 40.578125 54.546875 44.28125 53.078125 
z
" id="DejaVuSans-115"/>
       <path d="M 48.78125 52.59375 
L 48.78125 44.1875 
Q 44.96875 46.296875 41.140625 47.34375 
Q 37.3125 48.390625 33.40625 48.390625 
Q 24.65625 48.390625 19.8125 42.84375 
Q 14.984375 37.3125 14.984375 27.296875 
Q 14.984375 17.28125 19.8125 11.734375 
Q 24.65625 6.203125 33.40625 6.203125 
Q 37.3125 6.203125 41.140625 7.25 
Q 44.96875 8.296875 48.78125 10.40625 
L 48.78125 2.09375 
Q 45.015625 0.34375 40.984375 -0.53125 
Q 36.96875 -1.421875 32.421875 -1.421875 
Q 20.0625 -1.421875 12.78125 6.34375 
Q 5.515625 14.109375 5.515625 27.296875 
Q 5.515625 40.671875 12.859375 48.328125 
Q 20.21875 56 33.015625 56 
Q 37.15625 56 41.109375 55.140625 
Q 45.0625 54.296875 48.78125 52.59375 
z
" id="DejaVuSans-99"/>
       <path d="M 54.890625 33.015625 
L 54.890625 0 
L 45.90625 0 
L 45.90625 32.71875 
Q 45.90625 40.484375 42.875 44.328125 
Q 39.84375 48.1875 33.796875 48.1875 
Q 26.515625 48.1875 22.3125 43.546875 
Q 18.109375 38.921875 18.109375 30.90625 
L 18.109375 0 
L 9.078125 0 
L 9.078125 75.984375 
L 18.109375 75.984375 
L 18.109375 46.1875 
Q 21.34375 51.125 25.703125 53.5625 
Q 30.078125 56 35.796875 56 
Q 45.21875 56 50.046875 50.171875 
Q 54.890625 44.34375 54.890625 33.015625 
z
" id="DejaVuSans-104"/>
       <path d="M 34.28125 27.484375 
Q 23.390625 27.484375 19.1875 25 
Q 14.984375 22.515625 14.984375 16.5 
Q 14.984375 11.71875 18.140625 8.90625 
Q 21.296875 6.109375 26.703125 6.109375 
Q 34.1875 6.109375 38.703125 11.40625 
Q 43.21875 16.703125 43.21875 25.484375 
L 43.21875 27.484375 
z
M 52.203125 31.203125 
L 52.203125 0 
L 43.21875 0 
L 43.21875 8.296875 
Q 40.140625 3.328125 35.546875 0.953125 
Q 30.953125 -1.421875 24.3125 -1.421875 
Q 15.921875 -1.421875 10.953125 3.296875 
Q 6 8.015625 6 15.921875 
Q 6 25.140625 12.171875 29.828125 
Q 18.359375 34.515625 30.609375 34.515625 
L 43.21875 34.515625 
L 43.21875 35.40625 
Q 43.21875 41.609375 39.140625 45 
Q 35.0625 48.390625 27.6875 48.390625 
Q 23 48.390625 18.546875 47.265625 
Q 14.109375 46.140625 10.015625 43.890625 
L 10.015625 52.203125 
Q 14.9375 54.109375 19.578125 55.046875 
Q 24.21875 56 28.609375 56 
Q 40.484375 56 46.34375 49.84375 
Q 52.203125 43.703125 52.203125 31.203125 
z
" id="DejaVuSans-97"/>
       <path d="M 41.109375 46.296875 
Q 39.59375 47.171875 37.8125 47.578125 
Q 36.03125 48 33.890625 48 
Q 26.265625 48 22.1875 43.046875 
Q 18.109375 38.09375 18.109375 28.8125 
L 18.109375 0 
L 9.078125 0 
L 9.078125 54.6875 
L 18.109375 54.6875 
L 18.109375 46.1875 
Q 20.953125 51.171875 25.484375 53.578125 
Q 30.03125 56 36.53125 56 
Q 37.453125 56 38.578125 55.875 
Q 39.703125 55.765625 41.0625 55.515625 
z
" id="DejaVuSans-114"/>
       <path d="M 45.40625 27.984375 
Q 45.40625 37.75 41.375 43.109375 
Q 37.359375 48.484375 30.078125 48.484375 
Q 22.859375 48.484375 18.828125 43.109375 
Q 14.796875 37.75 14.796875 27.984375 
Q 14.796875 18.265625 18.828125 12.890625 
Q 22.859375 7.515625 30.078125 7.515625 
Q 37.359375 7.515625 41.375 12.890625 
Q 45.40625 18.265625 45.40625 27.984375 
z
M 54.390625 6.78125 
Q 54.390625 -7.171875 48.1875 -13.984375 
Q 42 -20.796875 29.203125 -20.796875 
Q 24.46875 -20.796875 20.265625 -20.09375 
Q 16.0625 -19.390625 12.109375 -17.921875 
L 12.109375 -9.1875 
Q 16.0625 -11.328125 19.921875 -12.34375 
Q 23.78125 -13.375 27.78125 -13.375 
Q 36.625 -13.375 41.015625 -8.765625 
Q 45.40625 -4.15625 45.40625 5.171875 
L 45.40625 9.625 
Q 42.625 4.78125 38.28125 2.390625 
Q 33.9375 0 27.875 0 
Q 17.828125 0 11.671875 7.65625 
Q 5.515625 15.328125 5.515625 27.984375 
Q 5.515625 40.671875 11.671875 48.328125 
Q 17.828125 56 27.875 56 
Q 33.9375 56 38.28125 53.609375 
Q 42.625 51.21875 45.40625 46.390625 
L 45.40625 54.6875 
L 54.390625 54.6875 
z
" id="DejaVuSans-103"/>
       <path d="M 56.203125 29.59375 
L 56.203125 25.203125 
L 14.890625 25.203125 
Q 15.484375 15.921875 20.484375 11.0625 
Q 25.484375 6.203125 34.421875 6.203125 
Q 39.59375 6.203125 44.453125 7.46875 
Q 49.3125 8.734375 54.109375 11.28125 
L 54.109375 2.78125 
Q 49.265625 0.734375 44.1875 -0.34375 
Q 39.109375 -1.421875 33.890625 -1.421875 
Q 20.796875 -1.421875 13.15625 6.1875 
Q 5.515625 13.8125 5.515625 26.8125 
Q 5.515625 40.234375 12.765625 48.109375 
Q 20.015625 56 32.328125 56 
Q 43.359375 56 49.78125 48.890625 
Q 56.203125 41.796875 56.203125 29.59375 
z
M 47.21875 32.234375 
Q 47.125 39.59375 43.09375 43.984375 
Q 39.0625 48.390625 32.421875 48.390625 
Q 24.90625 48.390625 20.390625 44.140625 
Q 15.875 39.890625 15.1875 32.171875 
z
" id="DejaVuSans-101"/>
       <path d="M 18.109375 8.203125 
L 18.109375 -20.796875 
L 9.078125 -20.796875 
L 9.078125 54.6875 
L 18.109375 54.6875 
L 18.109375 46.390625 
Q 20.953125 51.265625 25.265625 53.625 
Q 29.59375 56 35.59375 56 
Q 45.5625 56 51.78125 48.09375 
Q 58.015625 40.1875 58.015625 27.296875 
Q 58.015625 14.40625 51.78125 6.484375 
Q 45.5625 -1.421875 35.59375 -1.421875 
Q 29.59375 -1.421875 25.265625 0.953125 
Q 20.953125 3.328125 18.109375 8.203125 
z
M 48.6875 27.296875 
Q 48.6875 37.203125 44.609375 42.84375 
Q 40.53125 48.484375 33.40625 48.484375 
Q 26.265625 48.484375 22.1875 42.84375 
Q 18.109375 37.203125 18.109375 27.296875 
Q 18.109375 17.390625 22.1875 11.75 
Q 26.265625 6.109375 33.40625 6.109375 
Q 40.53125 6.109375 44.609375 11.75 
Q 48.6875 17.390625 48.6875 27.296875 
z
" id="DejaVuSans-112"/>
       <path d="M 48.6875 27.296875 
Q 48.6875 37.203125 44.609375 42.84375 
Q 40.53125 48.484375 33.40625 48.484375 
Q 26.265625 48.484375 22.1875 42.84375 
Q 18.109375 37.203125 18.109375 27.296875 
Q 18.109375 17.390625 22.1875 11.75 
Q 26.265625 6.109375 33.40625 6.109375 
Q 40.53125 6.109375 44.609375 11.75 
Q 48.6875 17.390625 48.6875 27.296875 
z
M 18.109375 46.390625 
Q 20.953125 51.265625 25.265625 53.625 
Q 29.59375 56 35.59375 56 
Q 45.5625 56 51.78125 48.09375 
Q 58.015625 40.1875 58.015625 27.296875 
Q 58.015625 14.40625 51.78125 6.484375 
Q 45.5625 -1.421875 35.59375 -1.421875 
Q 29.59375 -1.421875 25.265625 0.953125 
Q 20.953125 3.328125 18.109375 8.203125 
L 18.109375 0 
L 9.078125 0 
L 9.078125 75.984375 
L 18.109375 75.984375 
z
" id="DejaVuSans-98"/>
       <path d="M 32.171875 -5.078125 
Q 28.375 -14.84375 24.75 -17.8125 
Q 21.140625 -20.796875 15.09375 -20.796875 
L 7.90625 -20.796875 
L 7.90625 -13.28125 
L 13.1875 -13.28125 
Q 16.890625 -13.28125 18.9375 -11.515625 
Q 21 -9.765625 23.484375 -3.21875 
L 25.09375 0.875 
L 2.984375 54.6875 
L 12.5 54.6875 
L 29.59375 11.921875 
L 46.6875 54.6875 
L 56.203125 54.6875 
z
" id="DejaVuSans-121"/>
       <path d="M 59.515625 10.40625 
L 59.515625 29.984375 
L 43.40625 29.984375 
L 43.40625 38.09375 
L 69.28125 38.09375 
L 69.28125 6.78125 
Q 63.578125 2.734375 56.6875 0.65625 
Q 49.8125 -1.421875 42 -1.421875 
Q 24.90625 -1.421875 15.25 8.5625 
Q 5.609375 18.5625 5.609375 36.375 
Q 5.609375 54.25 15.25 64.234375 
Q 24.90625 74.21875 42 74.21875 
Q 49.125 74.21875 55.546875 72.453125 
Q 61.96875 70.703125 67.390625 67.28125 
L 67.390625 56.78125 
Q 61.921875 61.421875 55.765625 63.765625 
Q 49.609375 66.109375 42.828125 66.109375 
Q 29.4375 66.109375 22.71875 58.640625 
Q 16.015625 51.171875 16.015625 36.375 
Q 16.015625 21.625 22.71875 14.15625 
Q 29.4375 6.6875 42.828125 6.6875 
Q 48.046875 6.6875 52.140625 7.59375 
Q 56.25 8.5 59.515625 10.40625 
z
" id="DejaVuSans-71"/>
       <path d="M 9.8125 72.90625 
L 55.90625 72.90625 
L 55.90625 64.59375 
L 19.671875 64.59375 
L 19.671875 43.015625 
L 54.390625 43.015625 
L 54.390625 34.71875 
L 19.671875 34.71875 
L 19.671875 8.296875 
L 56.78125 8.296875 
L 56.78125 0 
L 9.8125 0 
z
" id="DejaVuSans-69"/>
       <path d="M 6.296875 72.90625 
L 16.890625 72.90625 
L 35.015625 45.796875 
L 53.21875 72.90625 
L 63.8125 72.90625 
L 40.375 37.890625 
L 65.375 0 
L 54.78125 0 
L 34.28125 31 
L 13.625 0 
L 2.984375 0 
L 29 38.921875 
z
" id="DejaVuSans-88"/>
       <path d="M 31 75.875 
Q 24.46875 64.65625 21.28125 53.65625 
Q 18.109375 42.671875 18.109375 31.390625 
Q 18.109375 20.125 21.3125 9.0625 
Q 24.515625 -2 31 -13.1875 
L 23.1875 -13.1875 
Q 15.875 -1.703125 12.234375 9.375 
Q 8.59375 20.453125 8.59375 31.390625 
Q 8.59375 42.28125 12.203125 53.3125 
Q 15.828125 64.359375 23.1875 75.875 
z
" id="DejaVuSans-40"/>
       <path d="M 89.796875 33.015625 
L 83.40625 0 
L 74.421875 0 
L 80.71875 32.71875 
Q 81.109375 34.8125 81.296875 36.328125 
Q 81.5 37.84375 81.5 38.921875 
Q 81.5 43.3125 79.046875 45.75 
Q 76.609375 48.1875 72.21875 48.1875 
Q 65.671875 48.1875 60.546875 43.28125 
Q 55.421875 38.375 53.90625 30.515625 
L 47.90625 0 
L 38.921875 0 
L 45.3125 32.71875 
Q 45.703125 34.515625 45.890625 36.046875 
Q 46.09375 37.59375 46.09375 38.8125 
Q 46.09375 43.265625 43.65625 45.71875 
Q 41.21875 48.1875 36.921875 48.1875 
Q 30.28125 48.1875 25.140625 43.28125 
Q 20.015625 38.375 18.5 30.515625 
L 12.5 0 
L 3.515625 0 
L 14.203125 54.6875 
L 23.1875 54.6875 
L 21.484375 46.1875 
Q 25.140625 50.984375 30.046875 53.484375 
Q 34.96875 56 40.578125 56 
Q 46.53125 56 50.359375 52.875 
Q 54.203125 49.75 54.984375 44.1875 
Q 59.078125 49.953125 64.46875 52.96875 
Q 69.875 56 75.875 56 
Q 82.90625 56 86.734375 51.953125 
Q 90.578125 47.90625 90.578125 40.484375 
Q 90.578125 38.875 90.375 36.9375 
Q 90.1875 35.015625 89.796875 33.015625 
z
" id="DejaVuSans-Oblique-109"/>
       <path d="M 25.390625 72.90625 
L 33.6875 72.90625 
L 8.296875 -9.28125 
L 0 -9.28125 
z
" id="DejaVuSans-47"/>
       <path d="M 54.25 63.328125 
Q 49.953125 66.75 38.28125 66.75 
Q 25.921875 66.75 24.8125 61.03125 
Q 23.921875 56.546875 36.375 54.203125 
Q 46.140625 52.390625 50.828125 46.921875 
Q 56.5 40.328125 53.859375 26.8125 
Q 51.3125 13.875 43.171875 6.25 
Q 34.96875 -1.421875 23.25 -1.421875 
Q 11.578125 -1.421875 6.34375 6.25 
Q 1.125 13.875 3.765625 27.296875 
Q 5.671875 37.25 13.921875 45.3125 
Q 17.140625 48.4375 21.140625 50.203125 
Q 14.265625 54.046875 15.625 60.9375 
Q 18.21875 74.21875 39.75 74.21875 
Q 50.53125 74.21875 55.71875 70.796875 
z
M 27.390625 47.75 
Q 23.828125 46.34375 20.40625 42.78125 
Q 15.140625 37.25 13.234375 27.296875 
Q 11.28125 17.390625 14.359375 11.8125 
Q 17.484375 6.203125 24.75 6.203125 
Q 31.9375 6.203125 37.203125 11.859375 
Q 42.53125 17.53125 44.34375 26.8125 
Q 46.1875 36.53125 42.671875 41.21875 
Q 38.921875 46.234375 32.859375 46.78125 
Q 29.78125 47.078125 27.390625 47.75 
z
" id="DejaVuSans-Oblique-948"/>
       <path d="M 42.28125 54.6875 
L 40.921875 47.703125 
L 23 47.703125 
L 17.1875 18.015625 
Q 16.890625 16.359375 16.75 15.234375 
Q 16.609375 14.109375 16.609375 13.484375 
Q 16.609375 10.359375 18.484375 8.9375 
Q 20.359375 7.515625 24.515625 7.515625 
L 33.59375 7.515625 
L 32.078125 0 
L 23.484375 0 
Q 15.484375 0 11.546875 3.125 
Q 7.625 6.25 7.625 12.59375 
Q 7.625 13.71875 7.765625 15.0625 
Q 7.90625 16.40625 8.203125 18.015625 
L 14.015625 47.703125 
L 6.390625 47.703125 
L 7.8125 54.6875 
L 15.28125 54.6875 
L 18.3125 70.21875 
L 27.296875 70.21875 
L 24.3125 54.6875 
z
" id="DejaVuSans-Oblique-116"/>
       <path d="M 48.09375 32.234375 
Q 48.25 33.015625 48.3125 33.84375 
Q 48.390625 34.671875 48.390625 35.5 
Q 48.390625 41.453125 44.890625 44.921875 
Q 41.40625 48.390625 35.40625 48.390625 
Q 28.71875 48.390625 23.578125 44.15625 
Q 18.453125 39.9375 15.828125 32.171875 
z
M 55.90625 25.203125 
L 14.109375 25.203125 
Q 13.8125 23.34375 13.71875 22.265625 
Q 13.625 21.1875 13.625 20.40625 
Q 13.625 13.625 17.796875 9.90625 
Q 21.96875 6.203125 29.59375 6.203125 
Q 35.453125 6.203125 40.671875 7.515625 
Q 45.90625 8.84375 50.390625 11.375 
L 48.6875 2.484375 
Q 43.84375 0.53125 38.6875 -0.4375 
Q 33.546875 -1.421875 28.21875 -1.421875 
Q 16.84375 -1.421875 10.71875 4.015625 
Q 4.59375 9.46875 4.59375 19.484375 
Q 4.59375 28.03125 7.640625 35.375 
Q 10.6875 42.71875 16.609375 48.484375 
Q 20.40625 52.09375 25.65625 54.046875 
Q 30.90625 56 36.8125 56 
Q 46.09375 56 51.578125 50.4375 
Q 57.078125 44.875 57.078125 35.5 
Q 57.078125 33.25 56.78125 30.6875 
Q 56.5 28.125 55.90625 25.203125 
z
" id="DejaVuSans-Oblique-101"/>
       <path d="M 60.015625 54.6875 
L 34.90625 27.875 
L 50.296875 0 
L 39.984375 0 
L 28.421875 21.6875 
L 8.296875 0 
L -2.59375 0 
L 24.3125 28.8125 
L 10.015625 54.6875 
L 20.3125 54.6875 
L 30.8125 34.90625 
L 49.125 54.6875 
z
" id="DejaVuSans-Oblique-120"/>
       <path d="M 53.609375 52.59375 
L 51.8125 43.703125 
Q 48.578125 46.046875 44.9375 47.21875 
Q 41.3125 48.390625 37.40625 48.390625 
Q 33.109375 48.390625 29.21875 46.875 
Q 25.34375 45.359375 22.703125 42.578125 
Q 18.5 38.328125 16.203125 32.609375 
Q 13.921875 26.90625 13.921875 20.796875 
Q 13.921875 13.421875 17.609375 9.8125 
Q 21.296875 6.203125 28.8125 6.203125 
Q 32.515625 6.203125 36.6875 7.328125 
Q 40.875 8.453125 45.40625 10.6875 
L 43.703125 1.8125 
Q 39.796875 0.203125 35.671875 -0.609375 
Q 31.546875 -1.421875 27.203125 -1.421875 
Q 16.3125 -1.421875 10.453125 4.015625 
Q 4.59375 9.46875 4.59375 19.578125 
Q 4.59375 28.078125 7.640625 35.234375 
Q 10.6875 42.390625 16.703125 48.09375 
Q 20.796875 52 26.3125 54 
Q 31.84375 56 38.375 56 
Q 42.1875 56 45.9375 55.140625 
Q 49.703125 54.296875 53.609375 52.59375 
z
" id="DejaVuSans-Oblique-99"/>
       <path d="M 55.71875 33.015625 
L 49.3125 0 
L 40.28125 0 
L 46.6875 32.671875 
Q 47.125 34.96875 47.359375 36.71875 
Q 47.609375 38.484375 47.609375 39.5 
Q 47.609375 43.609375 45.015625 45.890625 
Q 42.4375 48.1875 37.796875 48.1875 
Q 30.5625 48.1875 25.265625 43.296875 
Q 19.96875 38.421875 18.40625 30.328125 
L 12.5 0 
L 3.515625 0 
L 18.3125 75.984375 
L 27.296875 75.984375 
L 21.484375 46.09375 
Q 24.90625 50.6875 30.21875 53.34375 
Q 35.546875 56 41.40625 56 
Q 48.640625 56 52.609375 52.09375 
Q 56.59375 48.1875 56.59375 41.109375 
Q 56.59375 39.359375 56.375 37.359375 
Q 56.15625 35.359375 55.71875 33.015625 
z
" id="DejaVuSans-Oblique-104"/>
       <path d="M 53.71875 31.203125 
L 47.609375 0 
L 38.625 0 
L 40.28125 8.296875 
Q 36.328125 3.421875 31.265625 1 
Q 26.21875 -1.421875 20.015625 -1.421875 
Q 13.03125 -1.421875 8.5625 2.84375 
Q 4.109375 7.125 4.109375 13.8125 
Q 4.109375 23.390625 11.75 28.953125 
Q 19.390625 34.515625 32.8125 34.515625 
L 45.3125 34.515625 
L 45.796875 36.921875 
Q 45.90625 37.3125 45.953125 37.765625 
Q 46 38.234375 46 39.203125 
Q 46 43.5625 42.453125 45.96875 
Q 38.921875 48.390625 32.515625 48.390625 
Q 28.125 48.390625 23.5 47.265625 
Q 18.890625 46.140625 14.015625 43.890625 
L 15.578125 52.203125 
Q 20.65625 54.109375 25.515625 55.046875 
Q 30.375 56 34.90625 56 
Q 44.578125 56 49.625 51.796875 
Q 54.6875 47.609375 54.6875 39.59375 
Q 54.6875 37.984375 54.4375 35.8125 
Q 54.203125 33.640625 53.71875 31.203125 
z
M 44 27.484375 
L 35.015625 27.484375 
Q 23.96875 27.484375 18.671875 24.53125 
Q 13.375 21.578125 13.375 15.375 
Q 13.375 11.078125 16.078125 8.640625 
Q 18.796875 6.203125 23.578125 6.203125 
Q 30.90625 6.203125 36.375 11.453125 
Q 41.84375 16.703125 43.609375 25.484375 
z
" id="DejaVuSans-Oblique-97"/>
       <path d="M 55.71875 33.015625 
L 49.3125 0 
L 40.28125 0 
L 46.6875 32.671875 
Q 47.125 34.96875 47.359375 36.71875 
Q 47.609375 38.484375 47.609375 39.5 
Q 47.609375 43.609375 45.015625 45.890625 
Q 42.4375 48.1875 37.796875 48.1875 
Q 30.5625 48.1875 25.34375 43.375 
Q 20.125 38.578125 18.5 30.328125 
L 12.5 0 
L 3.515625 0 
L 14.109375 54.6875 
L 23.09375 54.6875 
L 21.296875 46.09375 
Q 25.046875 50.828125 30.3125 53.40625 
Q 35.59375 56 41.40625 56 
Q 48.640625 56 52.609375 52.09375 
Q 56.59375 48.1875 56.59375 41.109375 
Q 56.59375 39.359375 56.375 37.359375 
Q 56.15625 35.359375 55.71875 33.015625 
z
" id="DejaVuSans-Oblique-110"/>
       <path d="M 59.625 54.6875 
L 50.296875 6.78125 
Q 47.609375 -7.125 40.015625 -13.953125 
Q 32.421875 -20.796875 19.578125 -20.796875 
Q 14.84375 -20.796875 10.78125 -20.09375 
Q 6.734375 -19.390625 3.21875 -17.921875 
L 4.890625 -9.1875 
Q 8.203125 -11.328125 11.90625 -12.34375 
Q 15.625 -13.375 19.828125 -13.375 
Q 28.375 -13.375 33.859375 -8.703125 
Q 39.359375 -4.046875 41.109375 4.6875 
L 41.890625 8.796875 
Q 38.140625 4.5 33.15625 2.25 
Q 28.171875 0 22.40625 0 
Q 14.109375 0 9.34375 5.484375 
Q 4.59375 10.984375 4.59375 20.609375 
Q 4.59375 28.171875 7.46875 35.421875 
Q 10.359375 42.671875 15.578125 48.296875 
Q 19.046875 52 23.65625 54 
Q 28.265625 56 33.296875 56 
Q 38.8125 56 42.90625 53.4375 
Q 47.015625 50.875 49.03125 46.1875 
L 50.59375 54.6875 
z
M 46.09375 34.625 
Q 46.09375 41.265625 42.96875 44.875 
Q 39.84375 48.484375 34.078125 48.484375 
Q 30.515625 48.484375 27.296875 47.0625 
Q 24.078125 45.65625 21.78125 43.109375 
Q 18.0625 38.921875 15.984375 33.234375 
Q 13.921875 27.546875 13.921875 21.484375 
Q 13.921875 14.75 17.0625 11.125 
Q 20.21875 7.515625 26.125 7.515625 
Q 34.671875 7.515625 40.375 15.25 
Q 46.09375 23 46.09375 34.625 
z
" id="DejaVuSans-Oblique-103"/>
       <path d="M 8.015625 75.875 
L 15.828125 75.875 
Q 23.140625 64.359375 26.78125 53.3125 
Q 30.421875 42.28125 30.421875 31.390625 
Q 30.421875 20.453125 26.78125 9.375 
Q 23.140625 -1.703125 15.828125 -13.1875 
L 8.015625 -13.1875 
Q 14.5 -2 17.703125 9.0625 
Q 20.90625 20.125 20.90625 31.390625 
Q 20.90625 42.671875 17.703125 53.65625 
Q 14.5 64.65625 8.015625 75.875 
z
" id="DejaVuSans-41"/>
      </defs>
      <use transform="translate(0 0.765625)" xlink:href="#DejaVuSans-83"/>
      <use transform="translate(63.476562 0.765625)" xlink:href="#DejaVuSans-87"/>
      <use transform="translate(162.353516 0.765625)" xlink:href="#DejaVuSans-32"/>
      <use transform="translate(194.140625 0.765625)" xlink:href="#DejaVuSans-100"/>
      <use transform="translate(257.617188 0.765625)" xlink:href="#DejaVuSans-105"/>
      <use transform="translate(285.400391 0.765625)" xlink:href="#DejaVuSans-115"/>
      <use transform="translate(337.5 0.765625)" xlink:href="#DejaVuSans-99"/>
      <use transform="translate(392.480469 0.765625)" xlink:href="#DejaVuSans-104"/>
      <use transform="translate(455.859375 0.765625)" xlink:href="#DejaVuSans-97"/>
      <use transform="translate(517.138672 0.765625)" xlink:href="#DejaVuSans-114"/>
      <use transform="translate(558.251953 0.765625)" xlink:href="#DejaVuSans-103"/>
      <use transform="translate(621.728516 0.765625)" xlink:href="#DejaVuSans-101"/>
      <use transform="translate(683.251953 0.765625)" xlink:href="#DejaVuSans-115"/>
      <use transform="translate(735.351562 0.765625)" xlink:href="#DejaVuSans-32"/>
      <use transform="translate(767.138672 0.765625)" xlink:href="#DejaVuSans-97"/>
      <use transform="translate(828.417969 0.765625)" xlink:href="#DejaVuSans-115"/>
      <use transform="translate(880.517578 0.765625)" xlink:href="#DejaVuSans-32"/>
      <use transform="translate(912.304688 0.765625)" xlink:href="#DejaVuSans-112"/>
      <use transform="translate(975.78125 0.765625)" xlink:href="#DejaVuSans-114"/>
      <use transform="translate(1016.894531 0.765625)" xlink:href="#DejaVuSans-101"/>
      <use transform="translate(1078.417969 0.765625)" xlink:href="#DejaVuSans-115"/>
      <use transform="translate(1130.517578 0.765625)" xlink:href="#DejaVuSans-99"/>
      <use transform="translate(1185.498047 0.765625)" xlink:href="#DejaVuSans-114"/>
      <use transform="translate(1226.611328 0.765625)" xlink:href="#DejaVuSans-105"/>
      <use transform="translate(1254.394531 0.765625)" xlink:href="#DejaVuSans-98"/>
      <use transform="translate(1317.871094 0.765625)" xlink:href="#DejaVuSans-101"/>
      <use transform="translate(1379.394531 0.765625)" xlink:href="#DejaVuSans-100"/>
      <use transform="translate(1442.871094 0.765625)" xlink:href="#DejaVuSans-32"/>
      <use transform="translate(1474.658203 0.765625)" xlink:href="#DejaVuSans-98"/>
      <use transform="translate(1538.134766 0.765625)" xlink:href="#DejaVuSans-121"/>
      <use transform="translate(1597.314453 0.765625)" xlink:href="#DejaVuSans-32"/>
      <use transform="translate(1629.101562 0.765625)" xlink:href="#DejaVuSans-71"/>
      <use transform="translate(1706.591797 0.765625)" xlink:href="#DejaVuSans-87"/>
      <use transform="translate(1805.46875 0.765625)" xlink:href="#DejaVuSans-83"/>
      <use transform="translate(1868.945312 0.765625)" xlink:href="#DejaVuSans-87"/>
      <use transform="translate(1967.822266 0.765625)" xlink:href="#DejaVuSans-69"/>
      <use transform="translate(2031.005859 0.765625)" xlink:href="#DejaVuSans-88"/>
      <use transform="translate(2099.511719 0.765625)" xlink:href="#DejaVuSans-32"/>
      <use transform="translate(2131.298828 0.765625)" xlink:href="#DejaVuSans-40"/>
      <use transform="translate(2170.3125 0.765625)" xlink:href="#DejaVuSans-Oblique-109"/>
      <use transform="translate(2272.374505 39.046875)scale(0.7)" xlink:href="#DejaVuSans-51"/>
      <use transform="translate(2319.645013 0.765625)" xlink:href="#DejaVuSans-47"/>
      <use transform="translate(2353.336419 0.765625)" xlink:href="#DejaVuSans-Oblique-948"/>
      <use transform="translate(2414.51806 0.765625)" xlink:href="#DejaVuSans-Oblique-116"/>
      <use transform="translate(2453.727044 -15.640625)scale(0.7)" xlink:href="#DejaVuSans-Oblique-101"/>
      <use transform="translate(2496.793451 -15.640625)scale(0.7)" xlink:href="#DejaVuSans-Oblique-120"/>
      <use transform="translate(2538.219232 -15.640625)scale(0.7)" xlink:href="#DejaVuSans-Oblique-99"/>
      <use transform="translate(2576.70556 -15.640625)scale(0.7)" xlink:href="#DejaVuSans-Oblique-104"/>
      <use transform="translate(2621.070794 -15.640625)scale(0.7)" xlink:href="#DejaVuSans-Oblique-97"/>
      <use transform="translate(2663.966302 -15.640625)scale(0.7)" xlink:href="#DejaVuSans-Oblique-110"/>
      <use transform="translate(2708.331536 -15.640625)scale(0.7)" xlink:href="#DejaVuSans-Oblique-103"/>
      <use transform="translate(2752.76513 -15.640625)scale(0.7)" xlink:href="#DejaVuSans-Oblique-101"/>
      <use transform="translate(2798.565911 0.765625)" xlink:href="#DejaVuSans-41"/>
     </g>
    </g>
    <g id="line2d_20">
     <path d="M 125.3885 277.0296 
L 145.3885 277.0296 
" style="fill:none;stroke:#008000;stroke-linecap:square;stroke-width:0.75;"/>
    </g>
    <g id="line2d_21"/>
    <g id="text_17">
     <!-- SW discharges as realised by D-Flow FM ($m^3$/$\delta t_{exchange}$ -->
     <g transform="translate(153.3885 280.5296)scale(0.1 -0.1)">
      <defs>
       <path d="M 9.421875 75.984375 
L 18.40625 75.984375 
L 18.40625 0 
L 9.421875 0 
z
" id="DejaVuSans-108"/>
       <path d="M 19.671875 64.796875 
L 19.671875 8.109375 
L 31.59375 8.109375 
Q 46.6875 8.109375 53.6875 14.9375 
Q 60.6875 21.78125 60.6875 36.53125 
Q 60.6875 51.171875 53.6875 57.984375 
Q 46.6875 64.796875 31.59375 64.796875 
z
M 9.8125 72.90625 
L 30.078125 72.90625 
Q 51.265625 72.90625 61.171875 64.09375 
Q 71.09375 55.28125 71.09375 36.53125 
Q 71.09375 17.671875 61.125 8.828125 
Q 51.171875 0 30.078125 0 
L 9.8125 0 
z
" id="DejaVuSans-68"/>
       <path d="M 9.8125 72.90625 
L 51.703125 72.90625 
L 51.703125 64.59375 
L 19.671875 64.59375 
L 19.671875 43.109375 
L 48.578125 43.109375 
L 48.578125 34.8125 
L 19.671875 34.8125 
L 19.671875 0 
L 9.8125 0 
z
" id="DejaVuSans-70"/>
       <path d="M 30.609375 48.390625 
Q 23.390625 48.390625 19.1875 42.75 
Q 14.984375 37.109375 14.984375 27.296875 
Q 14.984375 17.484375 19.15625 11.84375 
Q 23.34375 6.203125 30.609375 6.203125 
Q 37.796875 6.203125 41.984375 11.859375 
Q 46.1875 17.53125 46.1875 27.296875 
Q 46.1875 37.015625 41.984375 42.703125 
Q 37.796875 48.390625 30.609375 48.390625 
z
M 30.609375 56 
Q 42.328125 56 49.015625 48.375 
Q 55.71875 40.765625 55.71875 27.296875 
Q 55.71875 13.875 49.015625 6.21875 
Q 42.328125 -1.421875 30.609375 -1.421875 
Q 18.84375 -1.421875 12.171875 6.21875 
Q 5.515625 13.875 5.515625 27.296875 
Q 5.515625 40.765625 12.171875 48.375 
Q 18.84375 56 30.609375 56 
z
" id="DejaVuSans-111"/>
       <path d="M 4.203125 54.6875 
L 13.1875 54.6875 
L 24.421875 12.015625 
L 35.59375 54.6875 
L 46.1875 54.6875 
L 57.421875 12.015625 
L 68.609375 54.6875 
L 77.59375 54.6875 
L 63.28125 0 
L 52.6875 0 
L 40.921875 44.828125 
L 29.109375 0 
L 18.5 0 
z
" id="DejaVuSans-119"/>
       <path d="M 9.8125 72.90625 
L 24.515625 72.90625 
L 43.109375 23.296875 
L 61.8125 72.90625 
L 76.515625 72.90625 
L 76.515625 0 
L 66.890625 0 
L 66.890625 64.015625 
L 48.09375 14.015625 
L 38.1875 14.015625 
L 19.390625 64.015625 
L 19.390625 0 
L 9.8125 0 
z
" id="DejaVuSans-77"/>
      </defs>
      <use transform="translate(0 0.765625)" xlink:href="#DejaVuSans-83"/>
      <use transform="translate(63.476562 0.765625)" xlink:href="#DejaVuSans-87"/>
      <use transform="translate(162.353516 0.765625)" xlink:href="#DejaVuSans-32"/>
      <use transform="translate(194.140625 0.765625)" xlink:href="#DejaVuSans-100"/>
      <use transform="translate(257.617188 0.765625)" xlink:href="#DejaVuSans-105"/>
      <use transform="translate(285.400391 0.765625)" xlink:href="#DejaVuSans-115"/>
      <use transform="translate(337.5 0.765625)" xlink:href="#DejaVuSans-99"/>
      <use transform="translate(392.480469 0.765625)" xlink:href="#DejaVuSans-104"/>
      <use transform="translate(455.859375 0.765625)" xlink:href="#DejaVuSans-97"/>
      <use transform="translate(517.138672 0.765625)" xlink:href="#DejaVuSans-114"/>
      <use transform="translate(558.251953 0.765625)" xlink:href="#DejaVuSans-103"/>
      <use transform="translate(621.728516 0.765625)" xlink:href="#DejaVuSans-101"/>
      <use transform="translate(683.251953 0.765625)" xlink:href="#DejaVuSans-115"/>
      <use transform="translate(735.351562 0.765625)" xlink:href="#DejaVuSans-32"/>
      <use transform="translate(767.138672 0.765625)" xlink:href="#DejaVuSans-97"/>
      <use transform="translate(828.417969 0.765625)" xlink:href="#DejaVuSans-115"/>
      <use transform="translate(880.517578 0.765625)" xlink:href="#DejaVuSans-32"/>
      <use transform="translate(912.304688 0.765625)" xlink:href="#DejaVuSans-114"/>
      <use transform="translate(953.417969 0.765625)" xlink:href="#DejaVuSans-101"/>
      <use transform="translate(1014.941406 0.765625)" xlink:href="#DejaVuSans-97"/>
      <use transform="translate(1076.220703 0.765625)" xlink:href="#DejaVuSans-108"/>
      <use transform="translate(1104.003906 0.765625)" xlink:href="#DejaVuSans-105"/>
      <use transform="translate(1131.787109 0.765625)" xlink:href="#DejaVuSans-115"/>
      <use transform="translate(1183.886719 0.765625)" xlink:href="#DejaVuSans-101"/>
      <use transform="translate(1245.410156 0.765625)" xlink:href="#DejaVuSans-100"/>
      <use transform="translate(1308.886719 0.765625)" xlink:href="#DejaVuSans-32"/>
      <use transform="translate(1340.673828 0.765625)" xlink:href="#DejaVuSans-98"/>
      <use transform="translate(1404.150391 0.765625)" xlink:href="#DejaVuSans-121"/>
      <use transform="translate(1463.330078 0.765625)" xlink:href="#DejaVuSans-32"/>
      <use transform="translate(1495.117188 0.765625)" xlink:href="#DejaVuSans-68"/>
      <use transform="translate(1572.119141 0.765625)" xlink:href="#DejaVuSans-45"/>
      <use transform="translate(1608.203125 0.765625)" xlink:href="#DejaVuSans-70"/>
      <use transform="translate(1665.722656 0.765625)" xlink:href="#DejaVuSans-108"/>
      <use transform="translate(1693.505859 0.765625)" xlink:href="#DejaVuSans-111"/>
      <use transform="translate(1754.6875 0.765625)" xlink:href="#DejaVuSans-119"/>
      <use transform="translate(1836.474609 0.765625)" xlink:href="#DejaVuSans-32"/>
      <use transform="translate(1868.261719 0.765625)" xlink:href="#DejaVuSans-70"/>
      <use transform="translate(1925.78125 0.765625)" xlink:href="#DejaVuSans-77"/>
      <use transform="translate(2012.060547 0.765625)" xlink:href="#DejaVuSans-32"/>
      <use transform="translate(2043.847656 0.765625)" xlink:href="#DejaVuSans-40"/>
      <use transform="translate(2082.861328 0.765625)" xlink:href="#DejaVuSans-Oblique-109"/>
      <use transform="translate(2184.923333 39.046875)scale(0.7)" xlink:href="#DejaVuSans-51"/>
      <use transform="translate(2232.193841 0.765625)" xlink:href="#DejaVuSans-47"/>
      <use transform="translate(2265.885247 0.765625)" xlink:href="#DejaVuSans-Oblique-948"/>
      <use transform="translate(2327.066888 0.765625)" xlink:href="#DejaVuSans-Oblique-116"/>
      <use transform="translate(2366.275872 -15.640625)scale(0.7)" xlink:href="#DejaVuSans-Oblique-101"/>
      <use transform="translate(2409.342279 -15.640625)scale(0.7)" xlink:href="#DejaVuSans-Oblique-120"/>
      <use transform="translate(2450.76806 -15.640625)scale(0.7)" xlink:href="#DejaVuSans-Oblique-99"/>
      <use transform="translate(2489.254388 -15.640625)scale(0.7)" xlink:href="#DejaVuSans-Oblique-104"/>
      <use transform="translate(2533.619622 -15.640625)scale(0.7)" xlink:href="#DejaVuSans-Oblique-97"/>
      <use transform="translate(2576.51513 -15.640625)scale(0.7)" xlink:href="#DejaVuSans-Oblique-110"/>
      <use transform="translate(2620.880365 -15.640625)scale(0.7)" xlink:href="#DejaVuSans-Oblique-103"/>
      <use transform="translate(2665.313958 -15.640625)scale(0.7)" xlink:href="#DejaVuSans-Oblique-101"/>
     </g>
    </g>
   </g>
  </g>
 </g>
 <defs>
  <clipPath id="p2c0b8a65b8">
   <rect height="283.514256" width="413.641908" x="32.546592" y="9.115344"/>
  </clipPath>
 </defs>
</svg>
