<?xml version="1.0" encoding="utf-8" standalone="no"?>
<!DOCTYPE svg PUBLIC "-//W3C//DTD SVG 1.1//EN"
  "http://www.w3.org/Graphics/SVG/1.1/DTD/svg11.dtd">
<!-- Created with matplotlib (https://matplotlib.org/) -->
<svg height="338.067279pt" version="1.1" viewBox="0 0 453.5175 338.067279" width="453.5175pt" xmlns="http://www.w3.org/2000/svg" xmlns:xlink="http://www.w3.org/1999/xlink">
 <metadata>
  <rdf:RDF xmlns:cc="http://creativecommons.org/ns#" xmlns:dc="http://purl.org/dc/elements/1.1/" xmlns:rdf="http://www.w3.org/1999/02/22-rdf-syntax-ns#">
   <cc:Work>
    <dc:type rdf:resource="http://purl.org/dc/dcmitype/StillImage"/>
    <dc:date>2021-04-19T19:46:58.911944</dc:date>
    <dc:format>image/svg+xml</dc:format>
    <dc:creator>
     <cc:Agent>
      <dc:title>Matplotlib v3.3.2, https://matplotlib.org/</dc:title>
     </cc:Agent>
    </dc:creator>
   </cc:Work>
  </rdf:RDF>
 </metadata>
 <defs>
  <style type="text/css">*{stroke-linecap:butt;stroke-linejoin:round;}</style>
 </defs>
 <g id="figure_1">
  <g id="patch_1">
   <path d="M 0 338.067279 
L 453.5175 338.067279 
L 453.5175 0 
L 0 0 
z
" style="fill:#ffffff;"/>
  </g>
  <g id="axes_1">
   <g id="patch_2">
    <path d="M 33.2875 292.790464 
L 446.3175 292.790464 
L 446.3175 7.2 
L 33.2875 7.2 
z
" style="fill:#ffffff;"/>
   </g>
   <g id="matplotlib.axis_1">
    <g id="xtick_1">
     <g id="line2d_1">
      <defs>
       <path d="M 0 0 
L 0 3.5 
" id="me6fb7aac72" style="stroke:#000000;stroke-width:0.8;"/>
      </defs>
      <g>
       <use style="stroke:#000000;stroke-width:0.8;" x="52.061591" xlink:href="#me6fb7aac72" y="292.790464"/>
      </g>
     </g>
     <g id="text_1">
      <!-- 01-05-20 -->
      <g transform="translate(11.712313 329.066216)rotate(-30)scale(0.1 -0.1)">
       <defs>
        <path d="M 31.78125 66.40625 
Q 24.171875 66.40625 20.328125 58.90625 
Q 16.5 51.421875 16.5 36.375 
Q 16.5 21.390625 20.328125 13.890625 
Q 24.171875 6.390625 31.78125 6.390625 
Q 39.453125 6.390625 43.28125 13.890625 
Q 47.125 21.390625 47.125 36.375 
Q 47.125 51.421875 43.28125 58.90625 
Q 39.453125 66.40625 31.78125 66.40625 
z
M 31.78125 74.21875 
Q 44.046875 74.21875 50.515625 64.515625 
Q 56.984375 54.828125 56.984375 36.375 
Q 56.984375 17.96875 50.515625 8.265625 
Q 44.046875 -1.421875 31.78125 -1.421875 
Q 19.53125 -1.421875 13.0625 8.265625 
Q 6.59375 17.96875 6.59375 36.375 
Q 6.59375 54.828125 13.0625 64.515625 
Q 19.53125 74.21875 31.78125 74.21875 
z
" id="DejaVuSans-48"/>
        <path d="M 12.40625 8.296875 
L 28.515625 8.296875 
L 28.515625 63.921875 
L 10.984375 60.40625 
L 10.984375 69.390625 
L 28.421875 72.90625 
L 38.28125 72.90625 
L 38.28125 8.296875 
L 54.390625 8.296875 
L 54.390625 0 
L 12.40625 0 
z
" id="DejaVuSans-49"/>
        <path d="M 4.890625 31.390625 
L 31.203125 31.390625 
L 31.203125 23.390625 
L 4.890625 23.390625 
z
" id="DejaVuSans-45"/>
        <path d="M 10.796875 72.90625 
L 49.515625 72.90625 
L 49.515625 64.59375 
L 19.828125 64.59375 
L 19.828125 46.734375 
Q 21.96875 47.46875 24.109375 47.828125 
Q 26.265625 48.1875 28.421875 48.1875 
Q 40.625 48.1875 47.75 41.5 
Q 54.890625 34.8125 54.890625 23.390625 
Q 54.890625 11.625 47.5625 5.09375 
Q 40.234375 -1.421875 26.90625 -1.421875 
Q 22.3125 -1.421875 17.546875 -0.640625 
Q 12.796875 0.140625 7.71875 1.703125 
L 7.71875 11.625 
Q 12.109375 9.234375 16.796875 8.0625 
Q 21.484375 6.890625 26.703125 6.890625 
Q 35.15625 6.890625 40.078125 11.328125 
Q 45.015625 15.765625 45.015625 23.390625 
Q 45.015625 31 40.078125 35.4375 
Q 35.15625 39.890625 26.703125 39.890625 
Q 22.75 39.890625 18.8125 39.015625 
Q 14.890625 38.140625 10.796875 36.28125 
z
" id="DejaVuSans-53"/>
        <path d="M 19.1875 8.296875 
L 53.609375 8.296875 
L 53.609375 0 
L 7.328125 0 
L 7.328125 8.296875 
Q 12.9375 14.109375 22.625 23.890625 
Q 32.328125 33.6875 34.8125 36.53125 
Q 39.546875 41.84375 41.421875 45.53125 
Q 43.3125 49.21875 43.3125 52.78125 
Q 43.3125 58.59375 39.234375 62.25 
Q 35.15625 65.921875 28.609375 65.921875 
Q 23.96875 65.921875 18.8125 64.3125 
Q 13.671875 62.703125 7.8125 59.421875 
L 7.8125 69.390625 
Q 13.765625 71.78125 18.9375 73 
Q 24.125 74.21875 28.421875 74.21875 
Q 39.75 74.21875 46.484375 68.546875 
Q 53.21875 62.890625 53.21875 53.421875 
Q 53.21875 48.921875 51.53125 44.890625 
Q 49.859375 40.875 45.40625 35.40625 
Q 44.1875 33.984375 37.640625 27.21875 
Q 31.109375 20.453125 19.1875 8.296875 
z
" id="DejaVuSans-50"/>
       </defs>
       <use xlink:href="#DejaVuSans-48"/>
       <use x="63.623047" xlink:href="#DejaVuSans-49"/>
       <use x="127.246094" xlink:href="#DejaVuSans-45"/>
       <use x="163.330078" xlink:href="#DejaVuSans-48"/>
       <use x="226.953125" xlink:href="#DejaVuSans-53"/>
       <use x="290.576172" xlink:href="#DejaVuSans-45"/>
       <use x="326.660156" xlink:href="#DejaVuSans-50"/>
       <use x="390.283203" xlink:href="#DejaVuSans-48"/>
      </g>
     </g>
    </g>
    <g id="xtick_2">
     <g id="line2d_2">
      <g>
       <use style="stroke:#000000;stroke-width:0.8;" x="100.510858" xlink:href="#me6fb7aac72" y="292.790464"/>
      </g>
     </g>
     <g id="text_2">
      <!-- 05-05-20 -->
      <g transform="translate(60.16158 329.066216)rotate(-30)scale(0.1 -0.1)">
       <use xlink:href="#DejaVuSans-48"/>
       <use x="63.623047" xlink:href="#DejaVuSans-53"/>
       <use x="127.246094" xlink:href="#DejaVuSans-45"/>
       <use x="163.330078" xlink:href="#DejaVuSans-48"/>
       <use x="226.953125" xlink:href="#DejaVuSans-53"/>
       <use x="290.576172" xlink:href="#DejaVuSans-45"/>
       <use x="326.660156" xlink:href="#DejaVuSans-50"/>
       <use x="390.283203" xlink:href="#DejaVuSans-48"/>
      </g>
     </g>
    </g>
    <g id="xtick_3">
     <g id="line2d_3">
      <g>
       <use style="stroke:#000000;stroke-width:0.8;" x="148.960125" xlink:href="#me6fb7aac72" y="292.790464"/>
      </g>
     </g>
     <g id="text_3">
      <!-- 09-05-20 -->
      <g transform="translate(108.610847 329.066216)rotate(-30)scale(0.1 -0.1)">
       <defs>
        <path d="M 10.984375 1.515625 
L 10.984375 10.5 
Q 14.703125 8.734375 18.5 7.8125 
Q 22.3125 6.890625 25.984375 6.890625 
Q 35.75 6.890625 40.890625 13.453125 
Q 46.046875 20.015625 46.78125 33.40625 
Q 43.953125 29.203125 39.59375 26.953125 
Q 35.25 24.703125 29.984375 24.703125 
Q 19.046875 24.703125 12.671875 31.3125 
Q 6.296875 37.9375 6.296875 49.421875 
Q 6.296875 60.640625 12.9375 67.421875 
Q 19.578125 74.21875 30.609375 74.21875 
Q 43.265625 74.21875 49.921875 64.515625 
Q 56.59375 54.828125 56.59375 36.375 
Q 56.59375 19.140625 48.40625 8.859375 
Q 40.234375 -1.421875 26.421875 -1.421875 
Q 22.703125 -1.421875 18.890625 -0.6875 
Q 15.09375 0.046875 10.984375 1.515625 
z
M 30.609375 32.421875 
Q 37.25 32.421875 41.125 36.953125 
Q 45.015625 41.5 45.015625 49.421875 
Q 45.015625 57.28125 41.125 61.84375 
Q 37.25 66.40625 30.609375 66.40625 
Q 23.96875 66.40625 20.09375 61.84375 
Q 16.21875 57.28125 16.21875 49.421875 
Q 16.21875 41.5 20.09375 36.953125 
Q 23.96875 32.421875 30.609375 32.421875 
z
" id="DejaVuSans-57"/>
       </defs>
       <use xlink:href="#DejaVuSans-48"/>
       <use x="63.623047" xlink:href="#DejaVuSans-57"/>
       <use x="127.246094" xlink:href="#DejaVuSans-45"/>
       <use x="163.330078" xlink:href="#DejaVuSans-48"/>
       <use x="226.953125" xlink:href="#DejaVuSans-53"/>
       <use x="290.576172" xlink:href="#DejaVuSans-45"/>
       <use x="326.660156" xlink:href="#DejaVuSans-50"/>
       <use x="390.283203" xlink:href="#DejaVuSans-48"/>
      </g>
     </g>
    </g>
    <g id="xtick_4">
     <g id="line2d_4">
      <g>
       <use style="stroke:#000000;stroke-width:0.8;" x="197.409391" xlink:href="#me6fb7aac72" y="292.790464"/>
      </g>
     </g>
     <g id="text_4">
      <!-- 13-05-20 -->
      <g transform="translate(157.060113 329.066216)rotate(-30)scale(0.1 -0.1)">
       <defs>
        <path d="M 40.578125 39.3125 
Q 47.65625 37.796875 51.625 33 
Q 55.609375 28.21875 55.609375 21.1875 
Q 55.609375 10.40625 48.1875 4.484375 
Q 40.765625 -1.421875 27.09375 -1.421875 
Q 22.515625 -1.421875 17.65625 -0.515625 
Q 12.796875 0.390625 7.625 2.203125 
L 7.625 11.71875 
Q 11.71875 9.328125 16.59375 8.109375 
Q 21.484375 6.890625 26.8125 6.890625 
Q 36.078125 6.890625 40.9375 10.546875 
Q 45.796875 14.203125 45.796875 21.1875 
Q 45.796875 27.640625 41.28125 31.265625 
Q 36.765625 34.90625 28.71875 34.90625 
L 20.21875 34.90625 
L 20.21875 43.015625 
L 29.109375 43.015625 
Q 36.375 43.015625 40.234375 45.921875 
Q 44.09375 48.828125 44.09375 54.296875 
Q 44.09375 59.90625 40.109375 62.90625 
Q 36.140625 65.921875 28.71875 65.921875 
Q 24.65625 65.921875 20.015625 65.03125 
Q 15.375 64.15625 9.8125 62.3125 
L 9.8125 71.09375 
Q 15.4375 72.65625 20.34375 73.4375 
Q 25.25 74.21875 29.59375 74.21875 
Q 40.828125 74.21875 47.359375 69.109375 
Q 53.90625 64.015625 53.90625 55.328125 
Q 53.90625 49.265625 50.4375 45.09375 
Q 46.96875 40.921875 40.578125 39.3125 
z
" id="DejaVuSans-51"/>
       </defs>
       <use xlink:href="#DejaVuSans-49"/>
       <use x="63.623047" xlink:href="#DejaVuSans-51"/>
       <use x="127.246094" xlink:href="#DejaVuSans-45"/>
       <use x="163.330078" xlink:href="#DejaVuSans-48"/>
       <use x="226.953125" xlink:href="#DejaVuSans-53"/>
       <use x="290.576172" xlink:href="#DejaVuSans-45"/>
       <use x="326.660156" xlink:href="#DejaVuSans-50"/>
       <use x="390.283203" xlink:href="#DejaVuSans-48"/>
      </g>
     </g>
    </g>
    <g id="xtick_5">
     <g id="line2d_5">
      <g>
       <use style="stroke:#000000;stroke-width:0.8;" x="245.858658" xlink:href="#me6fb7aac72" y="292.790464"/>
      </g>
     </g>
     <g id="text_5">
      <!-- 17-05-20 -->
      <g transform="translate(205.50938 329.066216)rotate(-30)scale(0.1 -0.1)">
       <defs>
        <path d="M 8.203125 72.90625 
L 55.078125 72.90625 
L 55.078125 68.703125 
L 28.609375 0 
L 18.3125 0 
L 43.21875 64.59375 
L 8.203125 64.59375 
z
" id="DejaVuSans-55"/>
       </defs>
       <use xlink:href="#DejaVuSans-49"/>
       <use x="63.623047" xlink:href="#DejaVuSans-55"/>
       <use x="127.246094" xlink:href="#DejaVuSans-45"/>
       <use x="163.330078" xlink:href="#DejaVuSans-48"/>
       <use x="226.953125" xlink:href="#DejaVuSans-53"/>
       <use x="290.576172" xlink:href="#DejaVuSans-45"/>
       <use x="326.660156" xlink:href="#DejaVuSans-50"/>
       <use x="390.283203" xlink:href="#DejaVuSans-48"/>
      </g>
     </g>
    </g>
    <g id="xtick_6">
     <g id="line2d_6">
      <g>
       <use style="stroke:#000000;stroke-width:0.8;" x="294.307925" xlink:href="#me6fb7aac72" y="292.790464"/>
      </g>
     </g>
     <g id="text_6">
      <!-- 21-05-20 -->
      <g transform="translate(253.958647 329.066216)rotate(-30)scale(0.1 -0.1)">
       <use xlink:href="#DejaVuSans-50"/>
       <use x="63.623047" xlink:href="#DejaVuSans-49"/>
       <use x="127.246094" xlink:href="#DejaVuSans-45"/>
       <use x="163.330078" xlink:href="#DejaVuSans-48"/>
       <use x="226.953125" xlink:href="#DejaVuSans-53"/>
       <use x="290.576172" xlink:href="#DejaVuSans-45"/>
       <use x="326.660156" xlink:href="#DejaVuSans-50"/>
       <use x="390.283203" xlink:href="#DejaVuSans-48"/>
      </g>
     </g>
    </g>
    <g id="xtick_7">
     <g id="line2d_7">
      <g>
       <use style="stroke:#000000;stroke-width:0.8;" x="342.757192" xlink:href="#me6fb7aac72" y="292.790464"/>
      </g>
     </g>
     <g id="text_7">
      <!-- 25-05-20 -->
      <g transform="translate(302.407914 329.066216)rotate(-30)scale(0.1 -0.1)">
       <use xlink:href="#DejaVuSans-50"/>
       <use x="63.623047" xlink:href="#DejaVuSans-53"/>
       <use x="127.246094" xlink:href="#DejaVuSans-45"/>
       <use x="163.330078" xlink:href="#DejaVuSans-48"/>
       <use x="226.953125" xlink:href="#DejaVuSans-53"/>
       <use x="290.576172" xlink:href="#DejaVuSans-45"/>
       <use x="326.660156" xlink:href="#DejaVuSans-50"/>
       <use x="390.283203" xlink:href="#DejaVuSans-48"/>
      </g>
     </g>
    </g>
    <g id="xtick_8">
     <g id="line2d_8">
      <g>
       <use style="stroke:#000000;stroke-width:0.8;" x="391.206459" xlink:href="#me6fb7aac72" y="292.790464"/>
      </g>
     </g>
     <g id="text_8">
      <!-- 29-05-20 -->
      <g transform="translate(350.857181 329.066216)rotate(-30)scale(0.1 -0.1)">
       <use xlink:href="#DejaVuSans-50"/>
       <use x="63.623047" xlink:href="#DejaVuSans-57"/>
       <use x="127.246094" xlink:href="#DejaVuSans-45"/>
       <use x="163.330078" xlink:href="#DejaVuSans-48"/>
       <use x="226.953125" xlink:href="#DejaVuSans-53"/>
       <use x="290.576172" xlink:href="#DejaVuSans-45"/>
       <use x="326.660156" xlink:href="#DejaVuSans-50"/>
       <use x="390.283203" xlink:href="#DejaVuSans-48"/>
      </g>
     </g>
    </g>
    <g id="xtick_9">
     <g id="line2d_9">
      <g>
       <use style="stroke:#000000;stroke-width:0.8;" x="427.543409" xlink:href="#me6fb7aac72" y="292.790464"/>
      </g>
     </g>
     <g id="text_9">
      <!-- 01-06-20 -->
      <g transform="translate(387.194131 329.066216)rotate(-30)scale(0.1 -0.1)">
       <defs>
        <path d="M 33.015625 40.375 
Q 26.375 40.375 22.484375 35.828125 
Q 18.609375 31.296875 18.609375 23.390625 
Q 18.609375 15.53125 22.484375 10.953125 
Q 26.375 6.390625 33.015625 6.390625 
Q 39.65625 6.390625 43.53125 10.953125 
Q 47.40625 15.53125 47.40625 23.390625 
Q 47.40625 31.296875 43.53125 35.828125 
Q 39.65625 40.375 33.015625 40.375 
z
M 52.59375 71.296875 
L 52.59375 62.3125 
Q 48.875 64.0625 45.09375 64.984375 
Q 41.3125 65.921875 37.59375 65.921875 
Q 27.828125 65.921875 22.671875 59.328125 
Q 17.53125 52.734375 16.796875 39.40625 
Q 19.671875 43.65625 24.015625 45.921875 
Q 28.375 48.1875 33.59375 48.1875 
Q 44.578125 48.1875 50.953125 41.515625 
Q 57.328125 34.859375 57.328125 23.390625 
Q 57.328125 12.15625 50.6875 5.359375 
Q 44.046875 -1.421875 33.015625 -1.421875 
Q 20.359375 -1.421875 13.671875 8.265625 
Q 6.984375 17.96875 6.984375 36.375 
Q 6.984375 53.65625 15.1875 63.9375 
Q 23.390625 74.21875 37.203125 74.21875 
Q 40.921875 74.21875 44.703125 73.484375 
Q 48.484375 72.75 52.59375 71.296875 
z
" id="DejaVuSans-54"/>
       </defs>
       <use xlink:href="#DejaVuSans-48"/>
       <use x="63.623047" xlink:href="#DejaVuSans-49"/>
       <use x="127.246094" xlink:href="#DejaVuSans-45"/>
       <use x="163.330078" xlink:href="#DejaVuSans-48"/>
       <use x="226.953125" xlink:href="#DejaVuSans-54"/>
       <use x="290.576172" xlink:href="#DejaVuSans-45"/>
       <use x="326.660156" xlink:href="#DejaVuSans-50"/>
       <use x="390.283203" xlink:href="#DejaVuSans-48"/>
      </g>
     </g>
    </g>
   </g>
   <g id="matplotlib.axis_2">
    <g id="ytick_1">
     <g id="line2d_10">
      <defs>
       <path d="M 0 0 
L -3.5 0 
" id="ma15ead0e04" style="stroke:#000000;stroke-width:0.8;"/>
      </defs>
      <g>
       <use style="stroke:#000000;stroke-width:0.8;" x="33.2875" xlink:href="#ma15ead0e04" y="254.846094"/>
      </g>
     </g>
     <g id="text_10">
      <!-- 0 -->
      <g transform="translate(19.925 258.645312)scale(0.1 -0.1)">
       <use xlink:href="#DejaVuSans-48"/>
      </g>
     </g>
    </g>
    <g id="ytick_2">
     <g id="line2d_11">
      <g>
       <use style="stroke:#000000;stroke-width:0.8;" x="33.2875" xlink:href="#ma15ead0e04" y="212.876011"/>
      </g>
     </g>
     <g id="text_11">
      <!-- 50 -->
      <g transform="translate(13.5625 216.67523)scale(0.1 -0.1)">
       <use xlink:href="#DejaVuSans-53"/>
       <use x="63.623047" xlink:href="#DejaVuSans-48"/>
      </g>
     </g>
    </g>
    <g id="ytick_3">
     <g id="line2d_12">
      <g>
       <use style="stroke:#000000;stroke-width:0.8;" x="33.2875" xlink:href="#ma15ead0e04" y="170.905928"/>
      </g>
     </g>
     <g id="text_12">
      <!-- 100 -->
      <g transform="translate(7.2 174.705147)scale(0.1 -0.1)">
       <use xlink:href="#DejaVuSans-49"/>
       <use x="63.623047" xlink:href="#DejaVuSans-48"/>
       <use x="127.246094" xlink:href="#DejaVuSans-48"/>
      </g>
     </g>
    </g>
    <g id="ytick_4">
     <g id="line2d_13">
      <g>
       <use style="stroke:#000000;stroke-width:0.8;" x="33.2875" xlink:href="#ma15ead0e04" y="128.935845"/>
      </g>
     </g>
     <g id="text_13">
      <!-- 150 -->
      <g transform="translate(7.2 132.735064)scale(0.1 -0.1)">
       <use xlink:href="#DejaVuSans-49"/>
       <use x="63.623047" xlink:href="#DejaVuSans-53"/>
       <use x="127.246094" xlink:href="#DejaVuSans-48"/>
      </g>
     </g>
    </g>
    <g id="ytick_5">
     <g id="line2d_14">
      <g>
       <use style="stroke:#000000;stroke-width:0.8;" x="33.2875" xlink:href="#ma15ead0e04" y="86.965763"/>
      </g>
     </g>
     <g id="text_14">
      <!-- 200 -->
      <g transform="translate(7.2 90.764981)scale(0.1 -0.1)">
       <use xlink:href="#DejaVuSans-50"/>
       <use x="63.623047" xlink:href="#DejaVuSans-48"/>
       <use x="127.246094" xlink:href="#DejaVuSans-48"/>
      </g>
     </g>
    </g>
    <g id="ytick_6">
     <g id="line2d_15">
      <g>
       <use style="stroke:#000000;stroke-width:0.8;" x="33.2875" xlink:href="#ma15ead0e04" y="44.99568"/>
      </g>
     </g>
     <g id="text_15">
      <!-- 250 -->
      <g transform="translate(7.2 48.794899)scale(0.1 -0.1)">
       <use xlink:href="#DejaVuSans-50"/>
       <use x="63.623047" xlink:href="#DejaVuSans-53"/>
       <use x="127.246094" xlink:href="#DejaVuSans-48"/>
      </g>
     </g>
    </g>
   </g>
   <g id="line2d_16">
    <path clip-path="url(#p0b2727c3d1)" d="M 52.566271 254.814394 
L 53.070951 254.078629 
L 53.57563 254.300902 
L 54.08031 254.228966 
L 55.08967 254.319285 
L 55.59435 249.025179 
L 56.09903 254.777515 
L 56.60371 254.437977 
L 57.613069 254.218137 
L 59.127109 254.098936 
L 59.631789 254.020287 
L 60.136469 253.828446 
L 60.641149 247.89303 
L 61.145828 245.369471 
L 61.650508 236.502926 
L 62.155188 231.864306 
L 62.659868 254.905437 
L 63.164548 254.861587 
L 63.669228 254.554649 
L 64.173908 254.108603 
L 64.678587 253.946175 
L 66.192627 253.919304 
L 66.697307 20.181385 
L 67.201987 214.318993 
L 67.706667 232.337825 
L 68.211347 254.916417 
L 68.716026 232.28656 
L 69.220706 245.815983 
L 69.725386 241.242646 
L 70.230066 199.752297 
L 70.734746 241.403819 
L 71.239426 254.9024 
L 71.744106 254.883562 
L 72.753465 245.666447 
L 73.258145 226.98955 
L 73.762825 245.936129 
L 74.267505 254.888804 
L 75.276865 254.689126 
L 78.809624 254.541488 
L 80.323663 254.509841 
L 83.856422 254.803716 
L 85.875142 254.669578 
L 87.893861 254.555577 
L 88.903221 245.86895 
L 89.407901 245.291563 
L 89.912581 254.901985 
L 90.417261 254.812772 
L 90.92194 254.473592 
L 91.9313 254.40867 
L 93.95002 254.555122 
L 94.454699 254.70029 
L 97.482779 254.755438 
L 100.006178 254.573876 
L 105.557656 254.633977 
L 106.062336 249.881704 
L 106.567016 221.54434 
L 107.071696 254.913663 
L 108.081056 237.882747 
L 108.585736 254.923191 
L 110.099775 254.914052 
L 112.118495 254.68795 
L 113.632534 254.618028 
L 116.660613 254.660502 
L 119.184013 255.013611 
L 120.698052 255.065189 
L 122.716772 254.865987 
L 124.230811 254.758292 
L 128.77293 254.744442 
L 130.79165 255.124061 
L 133.315049 255.163304 
L 134.829088 255.006816 
L 135.838448 254.877403 
L 140.380567 254.800514 
L 141.389927 254.942037 
L 142.903966 255.256561 
L 144.922686 255.343439 
L 149.464804 254.875473 
L 152.492884 254.850794 
L 152.997564 237.955074 
L 153.502243 254.910785 
L 154.511603 255.250685 
L 155.016283 255.293747 
L 155.520963 255.206533 
L 156.025643 255.446182 
L 157.539682 255.430905 
L 160.063082 255.003565 
L 164.100521 254.961008 
L 164.6052 232.395293 
L 165.10988 137.208218 
L 166.11924 254.911 
L 169.651999 254.916367 
L 170.661359 255.130063 
L 172.680078 254.968898 
L 176.212837 254.965876 
L 176.717517 251.228228 
L 177.222197 254.962015 
L 177.726877 251.248622 
L 178.231557 255.039911 
L 178.736237 255.068955 
L 179.745596 255.490754 
L 180.754956 255.142402 
L 181.764316 255.095228 
L 182.268996 229.307757 
L 182.773675 247.596511 
L 183.278355 254.911461 
L 183.783035 236.620927 
L 184.287715 210.920091 
L 184.792395 207.066565 
L 185.297075 229.158443 
L 185.801755 236.503312 
L 186.306435 240.177174 
L 186.811114 251.229366 
L 187.315794 254.912649 
L 200.437471 254.944956 
L 200.942151 251.266815 
L 201.44683 254.956307 
L 201.95151 251.317969 
L 202.45619 206.741164 
L 202.96087 254.912977 
L 203.46555 254.911133 
L 203.97023 251.308997 
L 204.47491 251.312978 
L 204.979589 254.91296 
L 205.484269 247.722662 
L 205.988949 254.922457 
L 209.521708 254.972675 
L 210.026388 254.968059 
L 210.531068 233.413606 
L 211.035748 200.709064 
L 211.540428 226.124915 
L 212.045108 193.277644 
L 212.549787 225.984115 
L 213.054467 236.818338 
L 213.559147 251.295817 
L 214.063827 254.914683 
L 230.213583 254.956979 
L 231.727622 254.981237 
L 235.260381 254.930787 
L 237.783781 255.003716 
L 238.79314 255.287871 
L 239.8025 255.575869 
L 240.81186 255.80276 
L 241.821219 255.811909 
L 243.335259 255.4717 
L 244.344619 255.072228 
L 246.363338 254.986609 
L 249.391417 254.983084 
L 250.400777 255.330261 
L 251.914817 256.100412 
L 252.924176 256.330072 
L 253.933536 256.313032 
L 254.942896 256.072124 
L 255.447576 255.87478 
L 256.456935 255.206952 
L 257.466295 255.093801 
L 261.503734 255.022284 
L 262.513094 255.547246 
L 264.531813 256.752459 
L 265.036493 256.948207 
L 265.541173 257.004699 
L 266.550533 256.782593 
L 267.055213 256.5369 
L 268.569252 255.257568 
L 271.597331 255.085995 
L 273.616051 255.073236 
L 274.120731 255.389858 
L 276.13945 257.166536 
L 277.14881 257.624849 
L 278.15817 256.932678 
L 278.662849 257.321405 
L 279.167529 256.954251 
L 279.672209 256.169662 
L 280.681569 255.617168 
L 281.690929 255.478499 
L 282.700288 255.346377 
L 285.728368 255.225167 
L 286.737727 255.574442 
L 287.242407 256.151111 
L 287.747087 256.176881 
L 288.251767 256.581976 
L 288.756447 257.939876 
L 289.261127 258.06394 
L 289.765806 257.736154 
L 290.775166 257.401652 
L 291.279846 256.569889 
L 291.784526 256.27039 
L 292.289206 256.165549 
L 292.793886 255.558746 
L 293.298565 255.301553 
L 297.840684 255.179672 
L 298.345364 255.653094 
L 300.364084 258.420014 
L 300.868763 258.638091 
L 301.373443 258.342621 
L 302.382803 259.111933 
L 302.887483 258.73395 
L 303.896843 257.400477 
L 304.906202 255.458269 
L 305.410882 255.471952 
L 305.915562 255.318005 
L 309.953001 255.266214 
L 310.457681 255.794534 
L 311.467041 257.714917 
L 311.97172 257.919731 
L 312.4764 259.147188 
L 312.98108 257.556857 
L 313.48576 257.958595 
L 313.99044 260.00002 
L 314.49512 259.745345 
L 314.9998 259.251525 
L 315.504479 257.198349 
L 316.009159 256.921262 
L 317.523199 255.512411 
L 318.532559 255.392292 
L 319.037239 255.665182 
L 320.046598 255.669882 
L 320.551278 255.59165 
L 321.055958 255.385241 
L 321.560638 255.352924 
L 322.569998 255.675926 
L 323.074677 255.981636 
L 323.579357 249.428595 
L 324.084037 225.986539 
L 324.588717 254.910293 
L 325.093397 257.271797 
L 325.598077 161.992384 
L 326.102757 205.170641 
L 326.607436 190.097765 
L 327.112116 216.416961 
L 327.616796 216.260939 
L 328.121476 207.111902 
L 328.626156 248.928277 
L 329.130836 245.930922 
L 329.635516 254.913903 
L 346.289951 254.939771 
L 347.803991 255.093214 
L 348.308671 255.159778 
L 348.81335 255.369209 
L 349.82271 255.349735 
L 351.33675 255.744337 
L 352.346109 255.996494 
L 352.850789 255.790001 
L 353.355469 255.412942 
L 354.869509 255.283338 
L 357.897588 255.278134 
L 358.402268 255.290389 
L 358.906948 255.803767 
L 359.411628 256.492412 
L 360.420987 258.131512 
L 360.925667 258.765512 
L 361.430347 260.104357 
L 361.935027 260.891045 
L 362.439707 260.22372 
L 362.944387 260.5829 
L 363.449066 259.483956 
L 363.953746 259.203176 
L 364.458426 258.741001 
L 365.467786 256.53455 
L 365.972466 255.917926 
L 366.981826 255.663587 
L 368.495865 255.598617 
L 370.009905 255.498393 
L 370.514585 255.550352 
L 371.019264 256.51474 
L 372.028624 259.463726 
L 372.533304 260.894402 
L 373.542664 262.555998 
L 374.047344 262.89159 
L 374.552023 262.953791 
L 375.056703 262.707006 
L 375.561383 262.069397 
L 376.570743 259.821059 
L 377.075423 258.064108 
L 377.580103 256.777641 
L 378.084783 256.116528 
L 379.094142 255.784713 
L 380.103502 255.676178 
L 382.122221 255.62061 
L 382.626901 255.78614 
L 383.131581 256.080014 
L 383.636261 256.7052 
L 384.140941 259.378863 
L 385.150301 262.456697 
L 385.65498 260.480242 
L 386.15966 261.767464 
L 386.66434 262.732692 
L 387.16902 260.839254 
L 387.6737 256.038799 
L 388.17838 259.848843 
L 388.68306 259.452226 
L 389.187739 258.769709 
L 390.197099 256.524645 
L 390.701779 256.151531 
L 391.206459 256.096634 
L 391.711139 256.312193 
L 392.215819 256.772353 
L 393.225178 256.062974 
L 394.234538 256.017898 
L 394.739218 256.142969 
L 395.243898 257.261975 
L 395.748578 258.963527 
L 397.262617 262.460726 
L 397.767297 263.05712 
L 398.271977 263.059387 
L 398.776657 263.463224 
L 399.281337 264.095208 
L 400.795376 260.704614 
L 401.804736 257.34516 
L 402.309416 256.766225 
L 402.814096 256.645855 
L 403.318776 256.329316 
L 403.823456 256.178812 
L 404.328135 256.289445 
L 406.851535 256.249573 
L 407.356215 257.496001 
L 408.870254 262.775333 
L 409.879614 265.045831 
L 410.384294 264.912618 
L 410.888974 262.582439 
L 411.393653 261.635426 
L 411.898333 262.663777 
L 412.907693 260.892556 
L 413.917053 257.290935 
L 414.421733 256.467902 
L 414.926413 256.235975 
L 415.431092 256.241347 
L 416.440452 256.038044 
L 418.459172 255.952761 
L 418.963851 256.05223 
L 419.468531 257.386039 
L 421.487251 264.759679 
L 421.991931 265.261305 
L 422.49661 265.599165 
L 423.00129 265.797432 
L 423.50597 265.129604 
L 424.51533 263.094893 
L 426.534049 256.919248 
L 427.038729 256.77571 
L 427.543409 256.808195 
L 427.543409 256.808195 
" style="fill:none;stroke:#e74c3c;stroke-linecap:square;stroke-width:0.75;"/>
   </g>
   <g id="line2d_17">
    <path clip-path="url(#p0b2727c3d1)" d="M 52.061591 254.846094 
L 52.566271 255.358033 
L 53.57563 254.925909 
L 54.08031 255.214564 
L 54.58499 255.284693 
L 55.08967 255.216003 
L 55.59435 255.507425 
L 56.09903 257.281805 
L 56.60371 257.80476 
L 57.10839 259.184267 
L 57.613069 266.497712 
L 58.117749 265.651288 
L 58.622429 263.483529 
L 59.127109 263.558364 
L 59.631789 261.656012 
L 60.136469 261.942287 
L 60.641149 260.794256 
L 61.145828 258.31847 
L 61.650508 257.356806 
L 62.155188 255.986818 
L 63.164548 255.190099 
L 63.669228 255.277442 
L 64.173908 255.010818 
L 65.687947 254.915891 
L 66.697307 255.292719 
L 67.201987 255.028862 
L 67.706667 255.111777 
L 68.211347 256.37599 
L 68.716026 256.510215 
L 69.220706 257.463743 
L 69.725386 258.160997 
L 70.734746 259.095374 
L 71.744106 262.283303 
L 72.248785 259.988846 
L 72.753465 259.685303 
L 73.258145 258.561958 
L 73.762825 257.785663 
L 74.267505 256.77125 
L 74.772185 256.058221 
L 75.276865 255.141003 
L 75.781544 254.913677 
L 76.790904 254.846094 
L 79.818983 254.846094 
L 80.323663 255.613754 
L 80.828343 258.795649 
L 81.333023 264.18903 
L 82.342383 271.80148 
L 83.351742 275.430167 
L 83.856422 275.146993 
L 84.361102 274.083317 
L 84.865782 272.582591 
L 85.370462 266.725314 
L 86.379822 259.602719 
L 87.389181 256.654349 
L 87.893861 256.959165 
L 88.398541 256.323683 
L 88.903221 255.40962 
L 89.407901 255.070873 
L 89.912581 254.943732 
L 90.417261 254.95364 
L 91.42662 254.846094 
L 91.9313 254.866407 
L 92.43598 255.877279 
L 92.94066 257.713486 
L 93.95002 259.251795 
L 94.454699 266.23546 
L 94.959379 266.886828 
L 95.464059 274.629795 
L 95.968739 275.60729 
L 96.473419 274.246934 
L 96.978099 267.819268 
L 97.482779 265.700661 
L 98.996818 257.168281 
L 99.501498 256.052409 
L 100.006178 256.586433 
L 101.015538 256.356894 
L 101.520217 255.880821 
L 102.024897 255.809419 
L 102.529577 255.606669 
L 104.043617 255.543514 
L 104.548297 256.670566 
L 105.052977 257.311916 
L 105.557656 258.173617 
L 107.576376 259.852019 
L 108.081056 259.443198 
L 108.585736 259.533808 
L 109.595095 258.867827 
L 110.099775 257.449906 
L 110.604455 256.544754 
L 111.109135 255.395672 
L 112.623174 255.41272 
L 113.127854 255.164914 
L 113.632534 255.316409 
L 114.137214 255.135468 
L 114.641894 255.117036 
L 115.146574 255.434915 
L 116.155934 255.694843 
L 116.660613 257.425883 
L 117.669973 264.914845 
L 118.174653 264.271448 
L 118.679333 270.665295 
L 119.184013 273.467982 
L 119.688693 275.371772 
L 120.698052 273.941342 
L 121.202732 271.822181 
L 122.212092 265.259183 
L 123.221452 257.186325 
L 123.726131 255.975416 
L 125.240171 255.333347 
L 125.744851 255.051611 
L 128.26825 254.946002 
L 128.77293 256.91339 
L 129.78229 265.685218 
L 130.79165 274.920442 
L 131.801009 278.719831 
L 132.305689 278.429461 
L 132.810369 277.334456 
L 133.315049 275.15596 
L 133.819729 271.783159 
L 135.333768 257.137174 
L 135.838448 256.427576 
L 136.343128 256.162778 
L 136.847808 255.357092 
L 138.866527 255.029637 
L 140.380567 254.983364 
L 140.885247 256.892689 
L 141.894607 267.340262 
L 142.903966 276.511113 
L 143.408646 278.545531 
L 143.913326 279.167231 
L 144.418006 278.424479 
L 144.922686 279.276715 
L 145.427366 274.953763 
L 145.932045 268.24486 
L 146.941405 261.683079 
L 147.446085 258.3886 
L 147.950765 256.271653 
L 148.455445 255.799788 
L 150.474164 255.069379 
L 151.988204 254.944065 
L 152.492884 255.065726 
L 152.997564 256.024512 
L 153.502243 258.746719 
L 154.006923 267.131534 
L 154.511603 270.809151 
L 155.016283 272.685045 
L 155.520963 267.464801 
L 156.025643 279.809079 
L 157.035002 278.323187 
L 157.539682 275.796534 
L 158.549042 266.409594 
L 159.053722 259.513549 
L 159.558402 257.223853 
L 160.063082 256.824608 
L 160.567761 256.607799 
L 161.072441 255.965951 
L 161.577121 255.788275 
L 162.081801 255.280874 
L 162.586481 255.024102 
L 163.595841 255.134693 
L 164.100521 255.048124 
L 164.6052 255.194084 
L 165.10988 255.871024 
L 165.61456 257.216381 
L 166.11924 258.991757 
L 166.62392 259.686686 
L 167.1286 266.783211 
L 167.63328 266.207286 
L 168.137959 278.023241 
L 168.642639 278.485531 
L 169.147319 277.133367 
L 169.651999 274.476418 
L 170.156679 271.021754 
L 171.166039 259.382257 
L 171.670718 255.958036 
L 173.184758 255.076574 
L 175.708157 255.004231 
L 176.212837 255.252202 
L 176.717517 255.315856 
L 178.231557 258.36729 
L 178.736237 259.237847 
L 179.240916 267.859618 
L 179.745596 273.964368 
L 180.250276 266.069684 
L 180.754956 261.005419 
L 181.259636 260.024216 
L 181.764316 259.497885 
L 182.268996 257.719464 
L 182.773675 257.157598 
L 183.278355 256.94804 
L 183.783035 255.914309 
L 184.287715 255.481797 
L 186.306435 255.113825 
L 186.811114 255.315247 
L 188.829834 255.518218 
L 189.334514 257.427931 
L 189.839194 260.337169 
L 190.343873 260.629919 
L 190.848553 259.769713 
L 191.353233 264.201318 
L 191.857913 266.087895 
L 192.362593 267.267143 
L 192.867273 270.478541 
L 193.371953 270.343983 
L 193.876632 269.110712 
L 194.381312 265.939167 
L 194.885992 261.612894 
L 195.390672 258.268322 
L 196.400032 255.504104 
L 196.904712 255.389915 
L 197.409391 255.466742 
L 197.914071 255.392572 
L 198.923431 255.5713 
L 199.428111 255.575451 
L 199.932791 255.345136 
L 200.942151 255.376077 
L 203.46555 259.696151 
L 203.97023 259.685137 
L 204.47491 259.930396 
L 204.979589 260.369604 
L 206.998309 257.342968 
L 207.502989 256.953409 
L 208.007669 255.969659 
L 209.017028 255.539307 
L 209.521708 255.617296 
L 210.531068 255.084656 
L 212.549787 254.956186 
L 213.054467 255.301852 
L 214.063827 256.982081 
L 215.577867 259.967813 
L 216.082546 260.151024 
L 216.587226 260.584089 
L 217.091906 260.734145 
L 217.596586 260.581985 
L 218.101266 259.652535 
L 218.605946 259.261648 
L 220.119985 256.566064 
L 220.624665 256.378314 
L 221.634025 256.296063 
L 222.138705 256.436488 
L 222.643385 256.395971 
L 223.652744 256.691544 
L 224.157424 256.278406 
L 225.166784 256.52433 
L 226.176144 258.355112 
L 227.185503 259.799436 
L 227.690183 260.200563 
L 228.194863 260.831341 
L 228.699543 260.879219 
L 229.204223 260.481192 
L 229.708903 260.281043 
L 230.213583 260.494919 
L 230.718262 262.511514 
L 231.222942 259.349047 
L 232.232302 256.036966 
L 232.736982 255.499897 
L 233.746342 254.940633 
L 237.279101 254.868621 
L 237.783781 257.467839 
L 238.28846 260.931138 
L 239.29782 271.0874 
L 239.8025 272.500948 
L 240.30718 274.922269 
L 240.81186 276.320596 
L 241.31654 276.444249 
L 241.821219 275.032029 
L 242.325899 272.671152 
L 243.335259 266.133227 
L 244.344619 257.043022 
L 244.849299 256.1599 
L 245.353978 256.032593 
L 245.858658 255.507536 
L 246.868018 255.034729 
L 248.382058 254.910965 
L 249.391417 254.943788 
L 249.896097 257.753394 
L 251.914817 275.80921 
L 252.419497 277.496855 
L 252.924176 278.393151 
L 253.428856 278.196046 
L 253.933536 276.905211 
L 254.438216 275.026273 
L 255.447576 268.466429 
L 256.456935 257.757822 
L 256.961615 256.653684 
L 257.466295 256.209826 
L 257.970975 255.934899 
L 258.475655 255.529842 
L 258.980335 255.287572 
L 259.485015 255.285413 
L 259.989695 255.084766 
L 261.503734 255.093733 
L 262.008414 258.155905 
L 263.522454 271.431017 
L 264.027133 275.637013 
L 264.531813 278.336914 
L 265.036493 279.64906 
L 265.541173 279.225903 
L 266.550533 275.187676 
L 267.055213 271.900669 
L 268.569252 257.12948 
L 269.073932 256.787965 
L 269.578612 255.987482 
L 270.587972 255.497683 
L 271.092652 255.329251 
L 271.597331 255.36617 
L 273.111371 255.001463 
L 273.616051 255.190708 
L 274.120731 258.739136 
L 275.63477 273.46289 
L 276.13945 276.494342 
L 276.64413 278.401398 
L 277.14881 279.576938 
L 277.65349 275.251163 
L 278.15817 272.061075 
L 278.662849 275.496699 
L 279.167529 271.565464 
L 279.672209 264.261761 
L 280.681569 259.562369 
L 281.186249 258.551165 
L 281.690929 258.40526 
L 282.195609 257.508024 
L 285.223688 255.759769 
L 285.728368 256.025342 
L 286.737727 258.902753 
L 287.242407 263.591685 
L 287.747087 263.47257 
L 288.251767 266.428634 
L 288.756447 276.87665 
L 289.261127 276.888605 
L 289.765806 273.900105 
L 290.775166 270.733265 
L 291.279846 264.5637 
L 291.784526 262.479687 
L 292.289206 261.756419 
L 292.793886 257.474039 
L 293.298565 255.835378 
L 293.803245 255.800009 
L 296.326645 254.989729 
L 297.336004 254.922146 
L 297.840684 255.013253 
L 298.345364 258.229798 
L 300.364084 275.230794 
L 300.868763 276.13744 
L 301.373443 273.614385 
L 302.382803 277.061909 
L 302.887483 274.240734 
L 303.896843 266.517638 
L 304.906202 256.015102 
L 305.410882 256.262133 
L 305.915562 255.398661 
L 306.924922 255.321612 
L 307.429602 255.038659 
L 307.934282 255.098825 
L 308.943641 254.960725 
L 309.448321 254.920651 
L 309.953001 255.039821 
L 310.457681 257.852029 
L 311.467041 267.706795 
L 311.97172 268.401281 
L 312.4764 274.624094 
L 312.98108 265.909665 
L 313.48576 268.156243 
L 313.99044 278.126415 
L 314.49512 276.285448 
L 314.9998 273.606303 
L 315.504479 263.371942 
L 316.009159 262.057029 
L 317.523199 255.730433 
L 318.532559 255.264933 
L 319.037239 256.493333 
L 319.541918 256.629939 
L 320.046598 256.422097 
L 320.551278 256.071948 
L 321.055958 255.149084 
L 321.560638 255.037275 
L 322.065318 255.52165 
L 322.569998 256.463388 
L 323.074677 257.767951 
L 323.579357 259.623697 
L 324.084037 260.252372 
L 324.588717 269.897136 
L 325.093397 273.00453 
L 325.598077 259.052311 
L 326.607436 258.679745 
L 327.616796 257.609316 
L 328.121476 257.048834 
L 329.130836 255.379288 
L 329.635516 255.277664 
L 330.644875 254.846094 
L 332.158915 255.041759 
L 332.663595 255.13973 
L 333.168275 255.359195 
L 333.672955 255.286741 
L 334.177634 255.443384 
L 334.682314 256.900494 
L 335.186994 261.01195 
L 336.196354 267.210907 
L 336.701034 269.044568 
L 337.205714 264.060727 
L 337.710393 269.814221 
L 338.215073 274.032892 
L 338.719753 273.301542 
L 339.729113 270.280274 
L 340.233793 266.260755 
L 340.738473 261.252228 
L 341.747832 255.737407 
L 342.757192 255.107405 
L 343.261872 255.342258 
L 343.766552 255.272184 
L 344.271232 254.989784 
L 345.280591 254.964434 
L 346.289951 255.320782 
L 347.299311 257.275883 
L 347.803991 258.335241 
L 348.308671 259.655026 
L 348.81335 266.308302 
L 349.31803 263.276019 
L 349.82271 263.150705 
L 350.32739 266.397804 
L 350.83207 267.791205 
L 351.84143 263.861963 
L 352.346109 262.701312 
L 353.355469 256.07228 
L 353.860149 255.606558 
L 354.869509 255.038604 
L 355.374189 254.892478 
L 357.897588 254.904932 
L 358.402268 254.957736 
L 359.411628 262.160645 
L 359.916307 266.597233 
L 360.420987 269.233536 
L 360.925667 270.566493 
L 361.430347 274.456547 
L 361.935027 275.895723 
L 362.439707 272.461317 
L 362.944387 273.267225 
L 363.449066 268.945822 
L 363.953746 268.014545 
L 364.458426 266.286715 
L 365.467786 258.512253 
L 365.972466 256.4754 
L 366.477146 255.899917 
L 366.981826 255.64558 
L 367.486505 255.672647 
L 368.495865 255.415985 
L 369.505225 255.101205 
L 370.009905 255.077515 
L 370.514585 255.253309 
L 371.019264 258.594283 
L 372.533304 272.506981 
L 373.542664 276.64877 
L 374.047344 277.399106 
L 374.552023 277.426228 
L 375.056703 276.356574 
L 375.561383 274.040032 
L 376.570743 267.097715 
L 377.075423 261.87033 
L 377.580103 258.2262 
L 378.084783 256.415344 
L 379.094142 255.51141 
L 379.598822 255.483292 
L 380.103502 255.178254 
L 381.112862 255.087202 
L 382.122221 255.024766 
L 382.626901 255.503606 
L 383.131581 256.327115 
L 383.636261 258.08893 
L 384.140941 265.608391 
L 385.150301 273.542871 
L 385.65498 267.810301 
L 386.15966 271.472641 
L 386.66434 273.721655 
L 387.16902 268.334528 
L 387.6737 265.004569 
L 388.17838 267.033729 
L 389.187739 262.898471 
L 389.692419 259.590819 
L 390.197099 257.113539 
L 390.701779 256.20717 
L 391.206459 256.098793 
L 391.711139 256.643002 
L 392.215819 257.804206 
L 393.225178 255.92239 
L 394.234538 255.839364 
L 394.739218 256.156966 
L 395.243898 258.996019 
L 395.748578 263.209875 
L 396.757937 269.160196 
L 397.262617 271.329117 
L 397.767297 272.527184 
L 398.271977 272.255966 
L 398.776657 272.961245 
L 399.281337 274.203151 
L 401.300056 262.028025 
L 401.804736 258.408913 
L 402.309416 257.200274 
L 402.814096 256.965199 
L 403.318776 256.245528 
L 403.823456 255.915969 
L 404.328135 256.173572 
L 406.851535 256.044826 
L 407.356215 258.807107 
L 408.365574 266.585443 
L 408.870254 269.83625 
L 409.879614 274.253299 
L 410.384294 273.713297 
L 410.888974 268.659769 
L 411.393653 266.75299 
L 411.898333 268.889309 
L 412.403013 266.683469 
L 412.907693 265.071544 
L 413.917053 257.779187 
L 414.421733 256.211487 
L 414.926413 255.796245 
L 415.431092 255.824308 
L 416.440452 255.412443 
L 418.459172 255.247165 
L 418.963851 255.455838 
L 419.468531 258.192658 
L 421.487251 272.505155 
L 421.991931 273.322907 
L 422.49661 273.813758 
L 423.00129 274.0247 
L 423.50597 272.60927 
L 425.02001 265.284755 
L 425.52469 262.608101 
L 426.02937 258.914709 
L 426.534049 256.819239 
L 427.038729 256.62219 
L 427.543409 256.679312 
L 427.543409 256.679312 
" style="fill:none;stroke:#ff6600;stroke-linecap:square;stroke-width:0.75;"/>
   </g>
   <g id="patch_3">
    <path d="M 33.2875 292.790464 
L 33.2875 7.2 
" style="fill:none;stroke:#000000;stroke-linecap:square;stroke-linejoin:miter;stroke-width:0.8;"/>
   </g>
   <g id="patch_4">
    <path d="M 446.3175 292.790464 
L 446.3175 7.2 
" style="fill:none;stroke:#000000;stroke-linecap:square;stroke-linejoin:miter;stroke-width:0.8;"/>
   </g>
   <g id="patch_5">
    <path d="M 33.2875 292.790464 
L 446.3175 292.790464 
" style="fill:none;stroke:#000000;stroke-linecap:square;stroke-linejoin:miter;stroke-width:0.8;"/>
   </g>
   <g id="patch_6">
    <path d="M 33.2875 7.2 
L 446.3175 7.2 
" style="fill:none;stroke:#000000;stroke-linecap:square;stroke-linejoin:miter;stroke-width:0.8;"/>
   </g>
   <g id="legend_1">
    <g id="patch_7">
     <path d="M 200.4175 49.6 
L 439.3175 49.6 
Q 441.3175 49.6 441.3175 47.6 
L 441.3175 14.2 
Q 441.3175 12.2 439.3175 12.2 
L 200.4175 12.2 
Q 198.4175 12.2 198.4175 14.2 
L 198.4175 47.6 
Q 198.4175 49.6 200.4175 49.6 
z
" style="fill:#ffffff;opacity:0.8;stroke:#cccccc;stroke-linejoin:miter;"/>
    </g>
    <g id="line2d_18">
     <path d="M 202.4175 21.8 
L 222.4175 21.8 
" style="fill:none;stroke:#e74c3c;stroke-linecap:square;stroke-width:0.75;"/>
    </g>
    <g id="line2d_19"/>
    <g id="text_16">
     <!-- GW in-/out-fluxes ($m^3$/$\delta t_{exchange}$) -->
     <g transform="translate(230.4175 25.3)scale(0.1 -0.1)">
      <defs>
       <path d="M 59.515625 10.40625 
L 59.515625 29.984375 
L 43.40625 29.984375 
L 43.40625 38.09375 
L 69.28125 38.09375 
L 69.28125 6.78125 
Q 63.578125 2.734375 56.6875 0.65625 
Q 49.8125 -1.421875 42 -1.421875 
Q 24.90625 -1.421875 15.25 8.5625 
Q 5.609375 18.5625 5.609375 36.375 
Q 5.609375 54.25 15.25 64.234375 
Q 24.90625 74.21875 42 74.21875 
Q 49.125 74.21875 55.546875 72.453125 
Q 61.96875 70.703125 67.390625 67.28125 
L 67.390625 56.78125 
Q 61.921875 61.421875 55.765625 63.765625 
Q 49.609375 66.109375 42.828125 66.109375 
Q 29.4375 66.109375 22.71875 58.640625 
Q 16.015625 51.171875 16.015625 36.375 
Q 16.015625 21.625 22.71875 14.15625 
Q 29.4375 6.6875 42.828125 6.6875 
Q 48.046875 6.6875 52.140625 7.59375 
Q 56.25 8.5 59.515625 10.40625 
z
" id="DejaVuSans-71"/>
       <path d="M 3.328125 72.90625 
L 13.28125 72.90625 
L 28.609375 11.28125 
L 43.890625 72.90625 
L 54.984375 72.90625 
L 70.3125 11.28125 
L 85.59375 72.90625 
L 95.609375 72.90625 
L 77.296875 0 
L 64.890625 0 
L 49.515625 63.28125 
L 33.984375 0 
L 21.578125 0 
z
" id="DejaVuSans-87"/>
       <path id="DejaVuSans-32"/>
       <path d="M 9.421875 54.6875 
L 18.40625 54.6875 
L 18.40625 0 
L 9.421875 0 
z
M 9.421875 75.984375 
L 18.40625 75.984375 
L 18.40625 64.59375 
L 9.421875 64.59375 
z
" id="DejaVuSans-105"/>
       <path d="M 54.890625 33.015625 
L 54.890625 0 
L 45.90625 0 
L 45.90625 32.71875 
Q 45.90625 40.484375 42.875 44.328125 
Q 39.84375 48.1875 33.796875 48.1875 
Q 26.515625 48.1875 22.3125 43.546875 
Q 18.109375 38.921875 18.109375 30.90625 
L 18.109375 0 
L 9.078125 0 
L 9.078125 54.6875 
L 18.109375 54.6875 
L 18.109375 46.1875 
Q 21.34375 51.125 25.703125 53.5625 
Q 30.078125 56 35.796875 56 
Q 45.21875 56 50.046875 50.171875 
Q 54.890625 44.34375 54.890625 33.015625 
z
" id="DejaVuSans-110"/>
       <path d="M 25.390625 72.90625 
L 33.6875 72.90625 
L 8.296875 -9.28125 
L 0 -9.28125 
z
" id="DejaVuSans-47"/>
       <path d="M 30.609375 48.390625 
Q 23.390625 48.390625 19.1875 42.75 
Q 14.984375 37.109375 14.984375 27.296875 
Q 14.984375 17.484375 19.15625 11.84375 
Q 23.34375 6.203125 30.609375 6.203125 
Q 37.796875 6.203125 41.984375 11.859375 
Q 46.1875 17.53125 46.1875 27.296875 
Q 46.1875 37.015625 41.984375 42.703125 
Q 37.796875 48.390625 30.609375 48.390625 
z
M 30.609375 56 
Q 42.328125 56 49.015625 48.375 
Q 55.71875 40.765625 55.71875 27.296875 
Q 55.71875 13.875 49.015625 6.21875 
Q 42.328125 -1.421875 30.609375 -1.421875 
Q 18.84375 -1.421875 12.171875 6.21875 
Q 5.515625 13.875 5.515625 27.296875 
Q 5.515625 40.765625 12.171875 48.375 
Q 18.84375 56 30.609375 56 
z
" id="DejaVuSans-111"/>
       <path d="M 8.5 21.578125 
L 8.5 54.6875 
L 17.484375 54.6875 
L 17.484375 21.921875 
Q 17.484375 14.15625 20.5 10.265625 
Q 23.53125 6.390625 29.59375 6.390625 
Q 36.859375 6.390625 41.078125 11.03125 
Q 45.3125 15.671875 45.3125 23.6875 
L 45.3125 54.6875 
L 54.296875 54.6875 
L 54.296875 0 
L 45.3125 0 
L 45.3125 8.40625 
Q 42.046875 3.421875 37.71875 1 
Q 33.40625 -1.421875 27.6875 -1.421875 
Q 18.265625 -1.421875 13.375 4.4375 
Q 8.5 10.296875 8.5 21.578125 
z
M 31.109375 56 
z
" id="DejaVuSans-117"/>
       <path d="M 18.3125 70.21875 
L 18.3125 54.6875 
L 36.8125 54.6875 
L 36.8125 47.703125 
L 18.3125 47.703125 
L 18.3125 18.015625 
Q 18.3125 11.328125 20.140625 9.421875 
Q 21.96875 7.515625 27.59375 7.515625 
L 36.8125 7.515625 
L 36.8125 0 
L 27.59375 0 
Q 17.1875 0 13.234375 3.875 
Q 9.28125 7.765625 9.28125 18.015625 
L 9.28125 47.703125 
L 2.6875 47.703125 
L 2.6875 54.6875 
L 9.28125 54.6875 
L 9.28125 70.21875 
z
" id="DejaVuSans-116"/>
       <path d="M 37.109375 75.984375 
L 37.109375 68.5 
L 28.515625 68.5 
Q 23.6875 68.5 21.796875 66.546875 
Q 19.921875 64.59375 19.921875 59.515625 
L 19.921875 54.6875 
L 34.71875 54.6875 
L 34.71875 47.703125 
L 19.921875 47.703125 
L 19.921875 0 
L 10.890625 0 
L 10.890625 47.703125 
L 2.296875 47.703125 
L 2.296875 54.6875 
L 10.890625 54.6875 
L 10.890625 58.5 
Q 10.890625 67.625 15.140625 71.796875 
Q 19.390625 75.984375 28.609375 75.984375 
z
" id="DejaVuSans-102"/>
       <path d="M 9.421875 75.984375 
L 18.40625 75.984375 
L 18.40625 0 
L 9.421875 0 
z
" id="DejaVuSans-108"/>
       <path d="M 54.890625 54.6875 
L 35.109375 28.078125 
L 55.90625 0 
L 45.3125 0 
L 29.390625 21.484375 
L 13.484375 0 
L 2.875 0 
L 24.125 28.609375 
L 4.6875 54.6875 
L 15.28125 54.6875 
L 29.78125 35.203125 
L 44.28125 54.6875 
z
" id="DejaVuSans-120"/>
       <path d="M 56.203125 29.59375 
L 56.203125 25.203125 
L 14.890625 25.203125 
Q 15.484375 15.921875 20.484375 11.0625 
Q 25.484375 6.203125 34.421875 6.203125 
Q 39.59375 6.203125 44.453125 7.46875 
Q 49.3125 8.734375 54.109375 11.28125 
L 54.109375 2.78125 
Q 49.265625 0.734375 44.1875 -0.34375 
Q 39.109375 -1.421875 33.890625 -1.421875 
Q 20.796875 -1.421875 13.15625 6.1875 
Q 5.515625 13.8125 5.515625 26.8125 
Q 5.515625 40.234375 12.765625 48.109375 
Q 20.015625 56 32.328125 56 
Q 43.359375 56 49.78125 48.890625 
Q 56.203125 41.796875 56.203125 29.59375 
z
M 47.21875 32.234375 
Q 47.125 39.59375 43.09375 43.984375 
Q 39.0625 48.390625 32.421875 48.390625 
Q 24.90625 48.390625 20.390625 44.140625 
Q 15.875 39.890625 15.1875 32.171875 
z
" id="DejaVuSans-101"/>
       <path d="M 44.28125 53.078125 
L 44.28125 44.578125 
Q 40.484375 46.53125 36.375 47.5 
Q 32.28125 48.484375 27.875 48.484375 
Q 21.1875 48.484375 17.84375 46.4375 
Q 14.5 44.390625 14.5 40.28125 
Q 14.5 37.15625 16.890625 35.375 
Q 19.28125 33.59375 26.515625 31.984375 
L 29.59375 31.296875 
Q 39.15625 29.25 43.1875 25.515625 
Q 47.21875 21.78125 47.21875 15.09375 
Q 47.21875 7.46875 41.1875 3.015625 
Q 35.15625 -1.421875 24.609375 -1.421875 
Q 20.21875 -1.421875 15.453125 -0.5625 
Q 10.6875 0.296875 5.421875 2 
L 5.421875 11.28125 
Q 10.40625 8.6875 15.234375 7.390625 
Q 20.0625 6.109375 24.8125 6.109375 
Q 31.15625 6.109375 34.5625 8.28125 
Q 37.984375 10.453125 37.984375 14.40625 
Q 37.984375 18.0625 35.515625 20.015625 
Q 33.0625 21.96875 24.703125 23.78125 
L 21.578125 24.515625 
Q 13.234375 26.265625 9.515625 29.90625 
Q 5.8125 33.546875 5.8125 39.890625 
Q 5.8125 47.609375 11.28125 51.796875 
Q 16.75 56 26.8125 56 
Q 31.78125 56 36.171875 55.265625 
Q 40.578125 54.546875 44.28125 53.078125 
z
" id="DejaVuSans-115"/>
       <path d="M 31 75.875 
Q 24.46875 64.65625 21.28125 53.65625 
Q 18.109375 42.671875 18.109375 31.390625 
Q 18.109375 20.125 21.3125 9.0625 
Q 24.515625 -2 31 -13.1875 
L 23.1875 -13.1875 
Q 15.875 -1.703125 12.234375 9.375 
Q 8.59375 20.453125 8.59375 31.390625 
Q 8.59375 42.28125 12.203125 53.3125 
Q 15.828125 64.359375 23.1875 75.875 
z
" id="DejaVuSans-40"/>
       <path d="M 89.796875 33.015625 
L 83.40625 0 
L 74.421875 0 
L 80.71875 32.71875 
Q 81.109375 34.8125 81.296875 36.328125 
Q 81.5 37.84375 81.5 38.921875 
Q 81.5 43.3125 79.046875 45.75 
Q 76.609375 48.1875 72.21875 48.1875 
Q 65.671875 48.1875 60.546875 43.28125 
Q 55.421875 38.375 53.90625 30.515625 
L 47.90625 0 
L 38.921875 0 
L 45.3125 32.71875 
Q 45.703125 34.515625 45.890625 36.046875 
Q 46.09375 37.59375 46.09375 38.8125 
Q 46.09375 43.265625 43.65625 45.71875 
Q 41.21875 48.1875 36.921875 48.1875 
Q 30.28125 48.1875 25.140625 43.28125 
Q 20.015625 38.375 18.5 30.515625 
L 12.5 0 
L 3.515625 0 
L 14.203125 54.6875 
L 23.1875 54.6875 
L 21.484375 46.1875 
Q 25.140625 50.984375 30.046875 53.484375 
Q 34.96875 56 40.578125 56 
Q 46.53125 56 50.359375 52.875 
Q 54.203125 49.75 54.984375 44.1875 
Q 59.078125 49.953125 64.46875 52.96875 
Q 69.875 56 75.875 56 
Q 82.90625 56 86.734375 51.953125 
Q 90.578125 47.90625 90.578125 40.484375 
Q 90.578125 38.875 90.375 36.9375 
Q 90.1875 35.015625 89.796875 33.015625 
z
" id="DejaVuSans-Oblique-109"/>
       <path d="M 54.25 63.328125 
Q 49.953125 66.75 38.28125 66.75 
Q 25.921875 66.75 24.8125 61.03125 
Q 23.921875 56.546875 36.375 54.203125 
Q 46.140625 52.390625 50.828125 46.921875 
Q 56.5 40.328125 53.859375 26.8125 
Q 51.3125 13.875 43.171875 6.25 
Q 34.96875 -1.421875 23.25 -1.421875 
Q 11.578125 -1.421875 6.34375 6.25 
Q 1.125 13.875 3.765625 27.296875 
Q 5.671875 37.25 13.921875 45.3125 
Q 17.140625 48.4375 21.140625 50.203125 
Q 14.265625 54.046875 15.625 60.9375 
Q 18.21875 74.21875 39.75 74.21875 
Q 50.53125 74.21875 55.71875 70.796875 
z
M 27.390625 47.75 
Q 23.828125 46.34375 20.40625 42.78125 
Q 15.140625 37.25 13.234375 27.296875 
Q 11.28125 17.390625 14.359375 11.8125 
Q 17.484375 6.203125 24.75 6.203125 
Q 31.9375 6.203125 37.203125 11.859375 
Q 42.53125 17.53125 44.34375 26.8125 
Q 46.1875 36.53125 42.671875 41.21875 
Q 38.921875 46.234375 32.859375 46.78125 
Q 29.78125 47.078125 27.390625 47.75 
z
" id="DejaVuSans-Oblique-948"/>
       <path d="M 42.28125 54.6875 
L 40.921875 47.703125 
L 23 47.703125 
L 17.1875 18.015625 
Q 16.890625 16.359375 16.75 15.234375 
Q 16.609375 14.109375 16.609375 13.484375 
Q 16.609375 10.359375 18.484375 8.9375 
Q 20.359375 7.515625 24.515625 7.515625 
L 33.59375 7.515625 
L 32.078125 0 
L 23.484375 0 
Q 15.484375 0 11.546875 3.125 
Q 7.625 6.25 7.625 12.59375 
Q 7.625 13.71875 7.765625 15.0625 
Q 7.90625 16.40625 8.203125 18.015625 
L 14.015625 47.703125 
L 6.390625 47.703125 
L 7.8125 54.6875 
L 15.28125 54.6875 
L 18.3125 70.21875 
L 27.296875 70.21875 
L 24.3125 54.6875 
z
" id="DejaVuSans-Oblique-116"/>
       <path d="M 48.09375 32.234375 
Q 48.25 33.015625 48.3125 33.84375 
Q 48.390625 34.671875 48.390625 35.5 
Q 48.390625 41.453125 44.890625 44.921875 
Q 41.40625 48.390625 35.40625 48.390625 
Q 28.71875 48.390625 23.578125 44.15625 
Q 18.453125 39.9375 15.828125 32.171875 
z
M 55.90625 25.203125 
L 14.109375 25.203125 
Q 13.8125 23.34375 13.71875 22.265625 
Q 13.625 21.1875 13.625 20.40625 
Q 13.625 13.625 17.796875 9.90625 
Q 21.96875 6.203125 29.59375 6.203125 
Q 35.453125 6.203125 40.671875 7.515625 
Q 45.90625 8.84375 50.390625 11.375 
L 48.6875 2.484375 
Q 43.84375 0.53125 38.6875 -0.4375 
Q 33.546875 -1.421875 28.21875 -1.421875 
Q 16.84375 -1.421875 10.71875 4.015625 
Q 4.59375 9.46875 4.59375 19.484375 
Q 4.59375 28.03125 7.640625 35.375 
Q 10.6875 42.71875 16.609375 48.484375 
Q 20.40625 52.09375 25.65625 54.046875 
Q 30.90625 56 36.8125 56 
Q 46.09375 56 51.578125 50.4375 
Q 57.078125 44.875 57.078125 35.5 
Q 57.078125 33.25 56.78125 30.6875 
Q 56.5 28.125 55.90625 25.203125 
z
" id="DejaVuSans-Oblique-101"/>
       <path d="M 60.015625 54.6875 
L 34.90625 27.875 
L 50.296875 0 
L 39.984375 0 
L 28.421875 21.6875 
L 8.296875 0 
L -2.59375 0 
L 24.3125 28.8125 
L 10.015625 54.6875 
L 20.3125 54.6875 
L 30.8125 34.90625 
L 49.125 54.6875 
z
" id="DejaVuSans-Oblique-120"/>
       <path d="M 53.609375 52.59375 
L 51.8125 43.703125 
Q 48.578125 46.046875 44.9375 47.21875 
Q 41.3125 48.390625 37.40625 48.390625 
Q 33.109375 48.390625 29.21875 46.875 
Q 25.34375 45.359375 22.703125 42.578125 
Q 18.5 38.328125 16.203125 32.609375 
Q 13.921875 26.90625 13.921875 20.796875 
Q 13.921875 13.421875 17.609375 9.8125 
Q 21.296875 6.203125 28.8125 6.203125 
Q 32.515625 6.203125 36.6875 7.328125 
Q 40.875 8.453125 45.40625 10.6875 
L 43.703125 1.8125 
Q 39.796875 0.203125 35.671875 -0.609375 
Q 31.546875 -1.421875 27.203125 -1.421875 
Q 16.3125 -1.421875 10.453125 4.015625 
Q 4.59375 9.46875 4.59375 19.578125 
Q 4.59375 28.078125 7.640625 35.234375 
Q 10.6875 42.390625 16.703125 48.09375 
Q 20.796875 52 26.3125 54 
Q 31.84375 56 38.375 56 
Q 42.1875 56 45.9375 55.140625 
Q 49.703125 54.296875 53.609375 52.59375 
z
" id="DejaVuSans-Oblique-99"/>
       <path d="M 55.71875 33.015625 
L 49.3125 0 
L 40.28125 0 
L 46.6875 32.671875 
Q 47.125 34.96875 47.359375 36.71875 
Q 47.609375 38.484375 47.609375 39.5 
Q 47.609375 43.609375 45.015625 45.890625 
Q 42.4375 48.1875 37.796875 48.1875 
Q 30.5625 48.1875 25.265625 43.296875 
Q 19.96875 38.421875 18.40625 30.328125 
L 12.5 0 
L 3.515625 0 
L 18.3125 75.984375 
L 27.296875 75.984375 
L 21.484375 46.09375 
Q 24.90625 50.6875 30.21875 53.34375 
Q 35.546875 56 41.40625 56 
Q 48.640625 56 52.609375 52.09375 
Q 56.59375 48.1875 56.59375 41.109375 
Q 56.59375 39.359375 56.375 37.359375 
Q 56.15625 35.359375 55.71875 33.015625 
z
" id="DejaVuSans-Oblique-104"/>
       <path d="M 53.71875 31.203125 
L 47.609375 0 
L 38.625 0 
L 40.28125 8.296875 
Q 36.328125 3.421875 31.265625 1 
Q 26.21875 -1.421875 20.015625 -1.421875 
Q 13.03125 -1.421875 8.5625 2.84375 
Q 4.109375 7.125 4.109375 13.8125 
Q 4.109375 23.390625 11.75 28.953125 
Q 19.390625 34.515625 32.8125 34.515625 
L 45.3125 34.515625 
L 45.796875 36.921875 
Q 45.90625 37.3125 45.953125 37.765625 
Q 46 38.234375 46 39.203125 
Q 46 43.5625 42.453125 45.96875 
Q 38.921875 48.390625 32.515625 48.390625 
Q 28.125 48.390625 23.5 47.265625 
Q 18.890625 46.140625 14.015625 43.890625 
L 15.578125 52.203125 
Q 20.65625 54.109375 25.515625 55.046875 
Q 30.375 56 34.90625 56 
Q 44.578125 56 49.625 51.796875 
Q 54.6875 47.609375 54.6875 39.59375 
Q 54.6875 37.984375 54.4375 35.8125 
Q 54.203125 33.640625 53.71875 31.203125 
z
M 44 27.484375 
L 35.015625 27.484375 
Q 23.96875 27.484375 18.671875 24.53125 
Q 13.375 21.578125 13.375 15.375 
Q 13.375 11.078125 16.078125 8.640625 
Q 18.796875 6.203125 23.578125 6.203125 
Q 30.90625 6.203125 36.375 11.453125 
Q 41.84375 16.703125 43.609375 25.484375 
z
" id="DejaVuSans-Oblique-97"/>
       <path d="M 55.71875 33.015625 
L 49.3125 0 
L 40.28125 0 
L 46.6875 32.671875 
Q 47.125 34.96875 47.359375 36.71875 
Q 47.609375 38.484375 47.609375 39.5 
Q 47.609375 43.609375 45.015625 45.890625 
Q 42.4375 48.1875 37.796875 48.1875 
Q 30.5625 48.1875 25.34375 43.375 
Q 20.125 38.578125 18.5 30.328125 
L 12.5 0 
L 3.515625 0 
L 14.109375 54.6875 
L 23.09375 54.6875 
L 21.296875 46.09375 
Q 25.046875 50.828125 30.3125 53.40625 
Q 35.59375 56 41.40625 56 
Q 48.640625 56 52.609375 52.09375 
Q 56.59375 48.1875 56.59375 41.109375 
Q 56.59375 39.359375 56.375 37.359375 
Q 56.15625 35.359375 55.71875 33.015625 
z
" id="DejaVuSans-Oblique-110"/>
       <path d="M 59.625 54.6875 
L 50.296875 6.78125 
Q 47.609375 -7.125 40.015625 -13.953125 
Q 32.421875 -20.796875 19.578125 -20.796875 
Q 14.84375 -20.796875 10.78125 -20.09375 
Q 6.734375 -19.390625 3.21875 -17.921875 
L 4.890625 -9.1875 
Q 8.203125 -11.328125 11.90625 -12.34375 
Q 15.625 -13.375 19.828125 -13.375 
Q 28.375 -13.375 33.859375 -8.703125 
Q 39.359375 -4.046875 41.109375 4.6875 
L 41.890625 8.796875 
Q 38.140625 4.5 33.15625 2.25 
Q 28.171875 0 22.40625 0 
Q 14.109375 0 9.34375 5.484375 
Q 4.59375 10.984375 4.59375 20.609375 
Q 4.59375 28.171875 7.46875 35.421875 
Q 10.359375 42.671875 15.578125 48.296875 
Q 19.046875 52 23.65625 54 
Q 28.265625 56 33.296875 56 
Q 38.8125 56 42.90625 53.4375 
Q 47.015625 50.875 49.03125 46.1875 
L 50.59375 54.6875 
z
M 46.09375 34.625 
Q 46.09375 41.265625 42.96875 44.875 
Q 39.84375 48.484375 34.078125 48.484375 
Q 30.515625 48.484375 27.296875 47.0625 
Q 24.078125 45.65625 21.78125 43.109375 
Q 18.0625 38.921875 15.984375 33.234375 
Q 13.921875 27.546875 13.921875 21.484375 
Q 13.921875 14.75 17.0625 11.125 
Q 20.21875 7.515625 26.125 7.515625 
Q 34.671875 7.515625 40.375 15.25 
Q 46.09375 23 46.09375 34.625 
z
" id="DejaVuSans-Oblique-103"/>
       <path d="M 8.015625 75.875 
L 15.828125 75.875 
Q 23.140625 64.359375 26.78125 53.3125 
Q 30.421875 42.28125 30.421875 31.390625 
Q 30.421875 20.453125 26.78125 9.375 
Q 23.140625 -1.703125 15.828125 -13.1875 
L 8.015625 -13.1875 
Q 14.5 -2 17.703125 9.0625 
Q 20.90625 20.125 20.90625 31.390625 
Q 20.90625 42.671875 17.703125 53.65625 
Q 14.5 64.65625 8.015625 75.875 
z
" id="DejaVuSans-41"/>
      </defs>
      <use transform="translate(0 0.765625)" xlink:href="#DejaVuSans-71"/>
      <use transform="translate(77.490234 0.765625)" xlink:href="#DejaVuSans-87"/>
      <use transform="translate(176.367188 0.765625)" xlink:href="#DejaVuSans-32"/>
      <use transform="translate(208.154297 0.765625)" xlink:href="#DejaVuSans-105"/>
      <use transform="translate(235.9375 0.765625)" xlink:href="#DejaVuSans-110"/>
      <use transform="translate(299.316406 0.765625)" xlink:href="#DejaVuSans-45"/>
      <use transform="translate(335.400391 0.765625)" xlink:href="#DejaVuSans-47"/>
      <use transform="translate(369.091797 0.765625)" xlink:href="#DejaVuSans-111"/>
      <use transform="translate(430.273438 0.765625)" xlink:href="#DejaVuSans-117"/>
      <use transform="translate(493.652344 0.765625)" xlink:href="#DejaVuSans-116"/>
      <use transform="translate(532.861328 0.765625)" xlink:href="#DejaVuSans-45"/>
      <use transform="translate(568.945312 0.765625)" xlink:href="#DejaVuSans-102"/>
      <use transform="translate(604.150391 0.765625)" xlink:href="#DejaVuSans-108"/>
      <use transform="translate(631.933594 0.765625)" xlink:href="#DejaVuSans-117"/>
      <use transform="translate(695.3125 0.765625)" xlink:href="#DejaVuSans-120"/>
      <use transform="translate(754.492188 0.765625)" xlink:href="#DejaVuSans-101"/>
      <use transform="translate(816.015625 0.765625)" xlink:href="#DejaVuSans-115"/>
      <use transform="translate(868.115234 0.765625)" xlink:href="#DejaVuSans-32"/>
      <use transform="translate(899.902344 0.765625)" xlink:href="#DejaVuSans-40"/>
      <use transform="translate(938.916016 0.765625)" xlink:href="#DejaVuSans-Oblique-109"/>
      <use transform="translate(1040.978021 39.046875)scale(0.7)" xlink:href="#DejaVuSans-51"/>
      <use transform="translate(1088.248529 0.765625)" xlink:href="#DejaVuSans-47"/>
      <use transform="translate(1121.939935 0.765625)" xlink:href="#DejaVuSans-Oblique-948"/>
      <use transform="translate(1183.121576 0.765625)" xlink:href="#DejaVuSans-Oblique-116"/>
      <use transform="translate(1222.33056 -15.640625)scale(0.7)" xlink:href="#DejaVuSans-Oblique-101"/>
      <use transform="translate(1265.396966 -15.640625)scale(0.7)" xlink:href="#DejaVuSans-Oblique-120"/>
      <use transform="translate(1306.822747 -15.640625)scale(0.7)" xlink:href="#DejaVuSans-Oblique-99"/>
      <use transform="translate(1345.309076 -15.640625)scale(0.7)" xlink:href="#DejaVuSans-Oblique-104"/>
      <use transform="translate(1389.67431 -15.640625)scale(0.7)" xlink:href="#DejaVuSans-Oblique-97"/>
      <use transform="translate(1432.569818 -15.640625)scale(0.7)" xlink:href="#DejaVuSans-Oblique-110"/>
      <use transform="translate(1476.935052 -15.640625)scale(0.7)" xlink:href="#DejaVuSans-Oblique-103"/>
      <use transform="translate(1521.368646 -15.640625)scale(0.7)" xlink:href="#DejaVuSans-Oblique-101"/>
      <use transform="translate(1567.169427 0.765625)" xlink:href="#DejaVuSans-41"/>
     </g>
    </g>
    <g id="line2d_20">
     <path d="M 202.4175 39 
L 222.4175 39 
" style="fill:none;stroke:#ff6600;stroke-linecap:square;stroke-width:0.75;"/>
    </g>
    <g id="line2d_21"/>
    <g id="text_17">
     <!-- evapotranspiration outflux ($m^3$/$\delta t_{exchange}$) -->
     <g transform="translate(230.4175 42.5)scale(0.1 -0.1)">
      <defs>
       <path d="M 2.984375 54.6875 
L 12.5 54.6875 
L 29.59375 8.796875 
L 46.6875 54.6875 
L 56.203125 54.6875 
L 35.6875 0 
L 23.484375 0 
z
" id="DejaVuSans-118"/>
       <path d="M 34.28125 27.484375 
Q 23.390625 27.484375 19.1875 25 
Q 14.984375 22.515625 14.984375 16.5 
Q 14.984375 11.71875 18.140625 8.90625 
Q 21.296875 6.109375 26.703125 6.109375 
Q 34.1875 6.109375 38.703125 11.40625 
Q 43.21875 16.703125 43.21875 25.484375 
L 43.21875 27.484375 
z
M 52.203125 31.203125 
L 52.203125 0 
L 43.21875 0 
L 43.21875 8.296875 
Q 40.140625 3.328125 35.546875 0.953125 
Q 30.953125 -1.421875 24.3125 -1.421875 
Q 15.921875 -1.421875 10.953125 3.296875 
Q 6 8.015625 6 15.921875 
Q 6 25.140625 12.171875 29.828125 
Q 18.359375 34.515625 30.609375 34.515625 
L 43.21875 34.515625 
L 43.21875 35.40625 
Q 43.21875 41.609375 39.140625 45 
Q 35.0625 48.390625 27.6875 48.390625 
Q 23 48.390625 18.546875 47.265625 
Q 14.109375 46.140625 10.015625 43.890625 
L 10.015625 52.203125 
Q 14.9375 54.109375 19.578125 55.046875 
Q 24.21875 56 28.609375 56 
Q 40.484375 56 46.34375 49.84375 
Q 52.203125 43.703125 52.203125 31.203125 
z
" id="DejaVuSans-97"/>
       <path d="M 18.109375 8.203125 
L 18.109375 -20.796875 
L 9.078125 -20.796875 
L 9.078125 54.6875 
L 18.109375 54.6875 
L 18.109375 46.390625 
Q 20.953125 51.265625 25.265625 53.625 
Q 29.59375 56 35.59375 56 
Q 45.5625 56 51.78125 48.09375 
Q 58.015625 40.1875 58.015625 27.296875 
Q 58.015625 14.40625 51.78125 6.484375 
Q 45.5625 -1.421875 35.59375 -1.421875 
Q 29.59375 -1.421875 25.265625 0.953125 
Q 20.953125 3.328125 18.109375 8.203125 
z
M 48.6875 27.296875 
Q 48.6875 37.203125 44.609375 42.84375 
Q 40.53125 48.484375 33.40625 48.484375 
Q 26.265625 48.484375 22.1875 42.84375 
Q 18.109375 37.203125 18.109375 27.296875 
Q 18.109375 17.390625 22.1875 11.75 
Q 26.265625 6.109375 33.40625 6.109375 
Q 40.53125 6.109375 44.609375 11.75 
Q 48.6875 17.390625 48.6875 27.296875 
z
" id="DejaVuSans-112"/>
       <path d="M 41.109375 46.296875 
Q 39.59375 47.171875 37.8125 47.578125 
Q 36.03125 48 33.890625 48 
Q 26.265625 48 22.1875 43.046875 
Q 18.109375 38.09375 18.109375 28.8125 
L 18.109375 0 
L 9.078125 0 
L 9.078125 54.6875 
L 18.109375 54.6875 
L 18.109375 46.1875 
Q 20.953125 51.171875 25.484375 53.578125 
Q 30.03125 56 36.53125 56 
Q 37.453125 56 38.578125 55.875 
Q 39.703125 55.765625 41.0625 55.515625 
z
" id="DejaVuSans-114"/>
      </defs>
      <use transform="translate(0 0.765625)" xlink:href="#DejaVuSans-101"/>
      <use transform="translate(61.523438 0.765625)" xlink:href="#DejaVuSans-118"/>
      <use transform="translate(120.703125 0.765625)" xlink:href="#DejaVuSans-97"/>
      <use transform="translate(181.982422 0.765625)" xlink:href="#DejaVuSans-112"/>
      <use transform="translate(245.458984 0.765625)" xlink:href="#DejaVuSans-111"/>
      <use transform="translate(306.640625 0.765625)" xlink:href="#DejaVuSans-116"/>
      <use transform="translate(345.849609 0.765625)" xlink:href="#DejaVuSans-114"/>
      <use transform="translate(386.962891 0.765625)" xlink:href="#DejaVuSans-97"/>
      <use transform="translate(448.242188 0.765625)" xlink:href="#DejaVuSans-110"/>
      <use transform="translate(511.621094 0.765625)" xlink:href="#DejaVuSans-115"/>
      <use transform="translate(563.720703 0.765625)" xlink:href="#DejaVuSans-112"/>
      <use transform="translate(627.197266 0.765625)" xlink:href="#DejaVuSans-105"/>
      <use transform="translate(654.980469 0.765625)" xlink:href="#DejaVuSans-114"/>
      <use transform="translate(696.09375 0.765625)" xlink:href="#DejaVuSans-97"/>
      <use transform="translate(757.373047 0.765625)" xlink:href="#DejaVuSans-116"/>
      <use transform="translate(796.582031 0.765625)" xlink:href="#DejaVuSans-105"/>
      <use transform="translate(824.365234 0.765625)" xlink:href="#DejaVuSans-111"/>
      <use transform="translate(885.546875 0.765625)" xlink:href="#DejaVuSans-110"/>
      <use transform="translate(948.925781 0.765625)" xlink:href="#DejaVuSans-32"/>
      <use transform="translate(980.712891 0.765625)" xlink:href="#DejaVuSans-111"/>
      <use transform="translate(1041.894531 0.765625)" xlink:href="#DejaVuSans-117"/>
      <use transform="translate(1105.273438 0.765625)" xlink:href="#DejaVuSans-116"/>
      <use transform="translate(1144.482422 0.765625)" xlink:href="#DejaVuSans-102"/>
      <use transform="translate(1179.6875 0.765625)" xlink:href="#DejaVuSans-108"/>
      <use transform="translate(1207.470703 0.765625)" xlink:href="#DejaVuSans-117"/>
      <use transform="translate(1270.849609 0.765625)" xlink:href="#DejaVuSans-120"/>
      <use transform="translate(1330.029297 0.765625)" xlink:href="#DejaVuSans-32"/>
      <use transform="translate(1361.816406 0.765625)" xlink:href="#DejaVuSans-40"/>
      <use transform="translate(1400.830078 0.765625)" xlink:href="#DejaVuSans-Oblique-109"/>
      <use transform="translate(1502.892083 39.046875)scale(0.7)" xlink:href="#DejaVuSans-51"/>
      <use transform="translate(1550.162591 0.765625)" xlink:href="#DejaVuSans-47"/>
      <use transform="translate(1583.853997 0.765625)" xlink:href="#DejaVuSans-Oblique-948"/>
      <use transform="translate(1645.035638 0.765625)" xlink:href="#DejaVuSans-Oblique-116"/>
      <use transform="translate(1684.244622 -15.640625)scale(0.7)" xlink:href="#DejaVuSans-Oblique-101"/>
      <use transform="translate(1727.311029 -15.640625)scale(0.7)" xlink:href="#DejaVuSans-Oblique-120"/>
      <use transform="translate(1768.73681 -15.640625)scale(0.7)" xlink:href="#DejaVuSans-Oblique-99"/>
      <use transform="translate(1807.223138 -15.640625)scale(0.7)" xlink:href="#DejaVuSans-Oblique-104"/>
      <use transform="translate(1851.588372 -15.640625)scale(0.7)" xlink:href="#DejaVuSans-Oblique-97"/>
      <use transform="translate(1894.48388 -15.640625)scale(0.7)" xlink:href="#DejaVuSans-Oblique-110"/>
      <use transform="translate(1938.849115 -15.640625)scale(0.7)" xlink:href="#DejaVuSans-Oblique-103"/>
      <use transform="translate(1983.282708 -15.640625)scale(0.7)" xlink:href="#DejaVuSans-Oblique-101"/>
      <use transform="translate(2029.08349 0.765625)" xlink:href="#DejaVuSans-41"/>
     </g>
    </g>
   </g>
  </g>
 </g>
 <defs>
  <clipPath id="p0b2727c3d1">
   <rect height="285.590464" width="413.03" x="33.2875" y="7.2"/>
  </clipPath>
 </defs>
</svg>
