<?xml version="1.0" encoding="utf-8" standalone="no"?>
<!DOCTYPE svg PUBLIC "-//W3C//DTD SVG 1.1//EN"
  "http://www.w3.org/Graphics/SVG/1.1/DTD/svg11.dtd">
<!-- Created with matplotlib (https://matplotlib.org/) -->
<svg height="337.920178pt" version="1.1" viewBox="0 0 453.554688 337.920178" width="453.554688pt" xmlns="http://www.w3.org/2000/svg" xmlns:xlink="http://www.w3.org/1999/xlink">
 <metadata>
  <rdf:RDF xmlns:cc="http://creativecommons.org/ns#" xmlns:dc="http://purl.org/dc/elements/1.1/" xmlns:rdf="http://www.w3.org/1999/02/22-rdf-syntax-ns#">
   <cc:Work>
    <dc:type rdf:resource="http://purl.org/dc/dcmitype/StillImage"/>
    <dc:date>2021-04-19T19:46:59.452514</dc:date>
    <dc:format>image/svg+xml</dc:format>
    <dc:creator>
     <cc:Agent>
      <dc:title>Matplotlib v3.3.2, https://matplotlib.org/</dc:title>
     </cc:Agent>
    </dc:creator>
   </cc:Work>
  </rdf:RDF>
 </metadata>
 <defs>
  <style type="text/css">*{stroke-linecap:butt;stroke-linejoin:round;}</style>
 </defs>
 <g id="figure_1">
  <g id="patch_1">
   <path d="M 0 337.920178 
L 453.554688 337.920178 
L 453.554688 0 
L 0 0 
z
" style="fill:#ffffff;"/>
  </g>
  <g id="axes_1">
   <g id="patch_2">
    <path d="M 35.304688 292.643363 
L 446.354688 292.643363 
L 446.354688 8.917344 
L 35.304688 8.917344 
z
" style="fill:#ffffff;"/>
   </g>
   <g id="matplotlib.axis_1">
    <g id="xtick_1">
     <g id="line2d_1">
      <defs>
       <path d="M 0 0 
L 0 3.5 
" id="m13a996158e" style="stroke:#000000;stroke-width:0.8;"/>
      </defs>
      <g>
       <use style="stroke:#000000;stroke-width:0.8;" x="53.988778" xlink:href="#m13a996158e" y="292.643363"/>
      </g>
     </g>
     <g id="text_1">
      <!-- 01-05-20 -->
      <g transform="translate(13.6395 328.919116)rotate(-30)scale(0.1 -0.1)">
       <defs>
        <path d="M 31.78125 66.40625 
Q 24.171875 66.40625 20.328125 58.90625 
Q 16.5 51.421875 16.5 36.375 
Q 16.5 21.390625 20.328125 13.890625 
Q 24.171875 6.390625 31.78125 6.390625 
Q 39.453125 6.390625 43.28125 13.890625 
Q 47.125 21.390625 47.125 36.375 
Q 47.125 51.421875 43.28125 58.90625 
Q 39.453125 66.40625 31.78125 66.40625 
z
M 31.78125 74.21875 
Q 44.046875 74.21875 50.515625 64.515625 
Q 56.984375 54.828125 56.984375 36.375 
Q 56.984375 17.96875 50.515625 8.265625 
Q 44.046875 -1.421875 31.78125 -1.421875 
Q 19.53125 -1.421875 13.0625 8.265625 
Q 6.59375 17.96875 6.59375 36.375 
Q 6.59375 54.828125 13.0625 64.515625 
Q 19.53125 74.21875 31.78125 74.21875 
z
" id="DejaVuSans-48"/>
        <path d="M 12.40625 8.296875 
L 28.515625 8.296875 
L 28.515625 63.921875 
L 10.984375 60.40625 
L 10.984375 69.390625 
L 28.421875 72.90625 
L 38.28125 72.90625 
L 38.28125 8.296875 
L 54.390625 8.296875 
L 54.390625 0 
L 12.40625 0 
z
" id="DejaVuSans-49"/>
        <path d="M 4.890625 31.390625 
L 31.203125 31.390625 
L 31.203125 23.390625 
L 4.890625 23.390625 
z
" id="DejaVuSans-45"/>
        <path d="M 10.796875 72.90625 
L 49.515625 72.90625 
L 49.515625 64.59375 
L 19.828125 64.59375 
L 19.828125 46.734375 
Q 21.96875 47.46875 24.109375 47.828125 
Q 26.265625 48.1875 28.421875 48.1875 
Q 40.625 48.1875 47.75 41.5 
Q 54.890625 34.8125 54.890625 23.390625 
Q 54.890625 11.625 47.5625 5.09375 
Q 40.234375 -1.421875 26.90625 -1.421875 
Q 22.3125 -1.421875 17.546875 -0.640625 
Q 12.796875 0.140625 7.71875 1.703125 
L 7.71875 11.625 
Q 12.109375 9.234375 16.796875 8.0625 
Q 21.484375 6.890625 26.703125 6.890625 
Q 35.15625 6.890625 40.078125 11.328125 
Q 45.015625 15.765625 45.015625 23.390625 
Q 45.015625 31 40.078125 35.4375 
Q 35.15625 39.890625 26.703125 39.890625 
Q 22.75 39.890625 18.8125 39.015625 
Q 14.890625 38.140625 10.796875 36.28125 
z
" id="DejaVuSans-53"/>
        <path d="M 19.1875 8.296875 
L 53.609375 8.296875 
L 53.609375 0 
L 7.328125 0 
L 7.328125 8.296875 
Q 12.9375 14.109375 22.625 23.890625 
Q 32.328125 33.6875 34.8125 36.53125 
Q 39.546875 41.84375 41.421875 45.53125 
Q 43.3125 49.21875 43.3125 52.78125 
Q 43.3125 58.59375 39.234375 62.25 
Q 35.15625 65.921875 28.609375 65.921875 
Q 23.96875 65.921875 18.8125 64.3125 
Q 13.671875 62.703125 7.8125 59.421875 
L 7.8125 69.390625 
Q 13.765625 71.78125 18.9375 73 
Q 24.125 74.21875 28.421875 74.21875 
Q 39.75 74.21875 46.484375 68.546875 
Q 53.21875 62.890625 53.21875 53.421875 
Q 53.21875 48.921875 51.53125 44.890625 
Q 49.859375 40.875 45.40625 35.40625 
Q 44.1875 33.984375 37.640625 27.21875 
Q 31.109375 20.453125 19.1875 8.296875 
z
" id="DejaVuSans-50"/>
       </defs>
       <use xlink:href="#DejaVuSans-48"/>
       <use x="63.623047" xlink:href="#DejaVuSans-49"/>
       <use x="127.246094" xlink:href="#DejaVuSans-45"/>
       <use x="163.330078" xlink:href="#DejaVuSans-48"/>
       <use x="226.953125" xlink:href="#DejaVuSans-53"/>
       <use x="290.576172" xlink:href="#DejaVuSans-45"/>
       <use x="326.660156" xlink:href="#DejaVuSans-50"/>
       <use x="390.283203" xlink:href="#DejaVuSans-48"/>
      </g>
     </g>
    </g>
    <g id="xtick_2">
     <g id="line2d_2">
      <g>
       <use style="stroke:#000000;stroke-width:0.8;" x="102.205787" xlink:href="#m13a996158e" y="292.643363"/>
      </g>
     </g>
     <g id="text_2">
      <!-- 05-05-20 -->
      <g transform="translate(61.856509 328.919116)rotate(-30)scale(0.1 -0.1)">
       <use xlink:href="#DejaVuSans-48"/>
       <use x="63.623047" xlink:href="#DejaVuSans-53"/>
       <use x="127.246094" xlink:href="#DejaVuSans-45"/>
       <use x="163.330078" xlink:href="#DejaVuSans-48"/>
       <use x="226.953125" xlink:href="#DejaVuSans-53"/>
       <use x="290.576172" xlink:href="#DejaVuSans-45"/>
       <use x="326.660156" xlink:href="#DejaVuSans-50"/>
       <use x="390.283203" xlink:href="#DejaVuSans-48"/>
      </g>
     </g>
    </g>
    <g id="xtick_3">
     <g id="line2d_3">
      <g>
       <use style="stroke:#000000;stroke-width:0.8;" x="150.422796" xlink:href="#m13a996158e" y="292.643363"/>
      </g>
     </g>
     <g id="text_3">
      <!-- 09-05-20 -->
      <g transform="translate(110.073518 328.919116)rotate(-30)scale(0.1 -0.1)">
       <defs>
        <path d="M 10.984375 1.515625 
L 10.984375 10.5 
Q 14.703125 8.734375 18.5 7.8125 
Q 22.3125 6.890625 25.984375 6.890625 
Q 35.75 6.890625 40.890625 13.453125 
Q 46.046875 20.015625 46.78125 33.40625 
Q 43.953125 29.203125 39.59375 26.953125 
Q 35.25 24.703125 29.984375 24.703125 
Q 19.046875 24.703125 12.671875 31.3125 
Q 6.296875 37.9375 6.296875 49.421875 
Q 6.296875 60.640625 12.9375 67.421875 
Q 19.578125 74.21875 30.609375 74.21875 
Q 43.265625 74.21875 49.921875 64.515625 
Q 56.59375 54.828125 56.59375 36.375 
Q 56.59375 19.140625 48.40625 8.859375 
Q 40.234375 -1.421875 26.421875 -1.421875 
Q 22.703125 -1.421875 18.890625 -0.6875 
Q 15.09375 0.046875 10.984375 1.515625 
z
M 30.609375 32.421875 
Q 37.25 32.421875 41.125 36.953125 
Q 45.015625 41.5 45.015625 49.421875 
Q 45.015625 57.28125 41.125 61.84375 
Q 37.25 66.40625 30.609375 66.40625 
Q 23.96875 66.40625 20.09375 61.84375 
Q 16.21875 57.28125 16.21875 49.421875 
Q 16.21875 41.5 20.09375 36.953125 
Q 23.96875 32.421875 30.609375 32.421875 
z
" id="DejaVuSans-57"/>
       </defs>
       <use xlink:href="#DejaVuSans-48"/>
       <use x="63.623047" xlink:href="#DejaVuSans-57"/>
       <use x="127.246094" xlink:href="#DejaVuSans-45"/>
       <use x="163.330078" xlink:href="#DejaVuSans-48"/>
       <use x="226.953125" xlink:href="#DejaVuSans-53"/>
       <use x="290.576172" xlink:href="#DejaVuSans-45"/>
       <use x="326.660156" xlink:href="#DejaVuSans-50"/>
       <use x="390.283203" xlink:href="#DejaVuSans-48"/>
      </g>
     </g>
    </g>
    <g id="xtick_4">
     <g id="line2d_4">
      <g>
       <use style="stroke:#000000;stroke-width:0.8;" x="198.639805" xlink:href="#m13a996158e" y="292.643363"/>
      </g>
     </g>
     <g id="text_4">
      <!-- 13-05-20 -->
      <g transform="translate(158.290527 328.919116)rotate(-30)scale(0.1 -0.1)">
       <defs>
        <path d="M 40.578125 39.3125 
Q 47.65625 37.796875 51.625 33 
Q 55.609375 28.21875 55.609375 21.1875 
Q 55.609375 10.40625 48.1875 4.484375 
Q 40.765625 -1.421875 27.09375 -1.421875 
Q 22.515625 -1.421875 17.65625 -0.515625 
Q 12.796875 0.390625 7.625 2.203125 
L 7.625 11.71875 
Q 11.71875 9.328125 16.59375 8.109375 
Q 21.484375 6.890625 26.8125 6.890625 
Q 36.078125 6.890625 40.9375 10.546875 
Q 45.796875 14.203125 45.796875 21.1875 
Q 45.796875 27.640625 41.28125 31.265625 
Q 36.765625 34.90625 28.71875 34.90625 
L 20.21875 34.90625 
L 20.21875 43.015625 
L 29.109375 43.015625 
Q 36.375 43.015625 40.234375 45.921875 
Q 44.09375 48.828125 44.09375 54.296875 
Q 44.09375 59.90625 40.109375 62.90625 
Q 36.140625 65.921875 28.71875 65.921875 
Q 24.65625 65.921875 20.015625 65.03125 
Q 15.375 64.15625 9.8125 62.3125 
L 9.8125 71.09375 
Q 15.4375 72.65625 20.34375 73.4375 
Q 25.25 74.21875 29.59375 74.21875 
Q 40.828125 74.21875 47.359375 69.109375 
Q 53.90625 64.015625 53.90625 55.328125 
Q 53.90625 49.265625 50.4375 45.09375 
Q 46.96875 40.921875 40.578125 39.3125 
z
" id="DejaVuSans-51"/>
       </defs>
       <use xlink:href="#DejaVuSans-49"/>
       <use x="63.623047" xlink:href="#DejaVuSans-51"/>
       <use x="127.246094" xlink:href="#DejaVuSans-45"/>
       <use x="163.330078" xlink:href="#DejaVuSans-48"/>
       <use x="226.953125" xlink:href="#DejaVuSans-53"/>
       <use x="290.576172" xlink:href="#DejaVuSans-45"/>
       <use x="326.660156" xlink:href="#DejaVuSans-50"/>
       <use x="390.283203" xlink:href="#DejaVuSans-48"/>
      </g>
     </g>
    </g>
    <g id="xtick_5">
     <g id="line2d_5">
      <g>
       <use style="stroke:#000000;stroke-width:0.8;" x="246.856814" xlink:href="#m13a996158e" y="292.643363"/>
      </g>
     </g>
     <g id="text_5">
      <!-- 17-05-20 -->
      <g transform="translate(206.507536 328.919116)rotate(-30)scale(0.1 -0.1)">
       <defs>
        <path d="M 8.203125 72.90625 
L 55.078125 72.90625 
L 55.078125 68.703125 
L 28.609375 0 
L 18.3125 0 
L 43.21875 64.59375 
L 8.203125 64.59375 
z
" id="DejaVuSans-55"/>
       </defs>
       <use xlink:href="#DejaVuSans-49"/>
       <use x="63.623047" xlink:href="#DejaVuSans-55"/>
       <use x="127.246094" xlink:href="#DejaVuSans-45"/>
       <use x="163.330078" xlink:href="#DejaVuSans-48"/>
       <use x="226.953125" xlink:href="#DejaVuSans-53"/>
       <use x="290.576172" xlink:href="#DejaVuSans-45"/>
       <use x="326.660156" xlink:href="#DejaVuSans-50"/>
       <use x="390.283203" xlink:href="#DejaVuSans-48"/>
      </g>
     </g>
    </g>
    <g id="xtick_6">
     <g id="line2d_6">
      <g>
       <use style="stroke:#000000;stroke-width:0.8;" x="295.073822" xlink:href="#m13a996158e" y="292.643363"/>
      </g>
     </g>
     <g id="text_6">
      <!-- 21-05-20 -->
      <g transform="translate(254.724544 328.919116)rotate(-30)scale(0.1 -0.1)">
       <use xlink:href="#DejaVuSans-50"/>
       <use x="63.623047" xlink:href="#DejaVuSans-49"/>
       <use x="127.246094" xlink:href="#DejaVuSans-45"/>
       <use x="163.330078" xlink:href="#DejaVuSans-48"/>
       <use x="226.953125" xlink:href="#DejaVuSans-53"/>
       <use x="290.576172" xlink:href="#DejaVuSans-45"/>
       <use x="326.660156" xlink:href="#DejaVuSans-50"/>
       <use x="390.283203" xlink:href="#DejaVuSans-48"/>
      </g>
     </g>
    </g>
    <g id="xtick_7">
     <g id="line2d_7">
      <g>
       <use style="stroke:#000000;stroke-width:0.8;" x="343.290831" xlink:href="#m13a996158e" y="292.643363"/>
      </g>
     </g>
     <g id="text_7">
      <!-- 25-05-20 -->
      <g transform="translate(302.941553 328.919116)rotate(-30)scale(0.1 -0.1)">
       <use xlink:href="#DejaVuSans-50"/>
       <use x="63.623047" xlink:href="#DejaVuSans-53"/>
       <use x="127.246094" xlink:href="#DejaVuSans-45"/>
       <use x="163.330078" xlink:href="#DejaVuSans-48"/>
       <use x="226.953125" xlink:href="#DejaVuSans-53"/>
       <use x="290.576172" xlink:href="#DejaVuSans-45"/>
       <use x="326.660156" xlink:href="#DejaVuSans-50"/>
       <use x="390.283203" xlink:href="#DejaVuSans-48"/>
      </g>
     </g>
    </g>
    <g id="xtick_8">
     <g id="line2d_8">
      <g>
       <use style="stroke:#000000;stroke-width:0.8;" x="391.50784" xlink:href="#m13a996158e" y="292.643363"/>
      </g>
     </g>
     <g id="text_8">
      <!-- 29-05-20 -->
      <g transform="translate(351.158562 328.919116)rotate(-30)scale(0.1 -0.1)">
       <use xlink:href="#DejaVuSans-50"/>
       <use x="63.623047" xlink:href="#DejaVuSans-57"/>
       <use x="127.246094" xlink:href="#DejaVuSans-45"/>
       <use x="163.330078" xlink:href="#DejaVuSans-48"/>
       <use x="226.953125" xlink:href="#DejaVuSans-53"/>
       <use x="290.576172" xlink:href="#DejaVuSans-45"/>
       <use x="326.660156" xlink:href="#DejaVuSans-50"/>
       <use x="390.283203" xlink:href="#DejaVuSans-48"/>
      </g>
     </g>
    </g>
    <g id="xtick_9">
     <g id="line2d_9">
      <g>
       <use style="stroke:#000000;stroke-width:0.8;" x="427.670597" xlink:href="#m13a996158e" y="292.643363"/>
      </g>
     </g>
     <g id="text_9">
      <!-- 01-06-20 -->
      <g transform="translate(387.321318 328.919116)rotate(-30)scale(0.1 -0.1)">
       <defs>
        <path d="M 33.015625 40.375 
Q 26.375 40.375 22.484375 35.828125 
Q 18.609375 31.296875 18.609375 23.390625 
Q 18.609375 15.53125 22.484375 10.953125 
Q 26.375 6.390625 33.015625 6.390625 
Q 39.65625 6.390625 43.53125 10.953125 
Q 47.40625 15.53125 47.40625 23.390625 
Q 47.40625 31.296875 43.53125 35.828125 
Q 39.65625 40.375 33.015625 40.375 
z
M 52.59375 71.296875 
L 52.59375 62.3125 
Q 48.875 64.0625 45.09375 64.984375 
Q 41.3125 65.921875 37.59375 65.921875 
Q 27.828125 65.921875 22.671875 59.328125 
Q 17.53125 52.734375 16.796875 39.40625 
Q 19.671875 43.65625 24.015625 45.921875 
Q 28.375 48.1875 33.59375 48.1875 
Q 44.578125 48.1875 50.953125 41.515625 
Q 57.328125 34.859375 57.328125 23.390625 
Q 57.328125 12.15625 50.6875 5.359375 
Q 44.046875 -1.421875 33.015625 -1.421875 
Q 20.359375 -1.421875 13.671875 8.265625 
Q 6.984375 17.96875 6.984375 36.375 
Q 6.984375 53.65625 15.1875 63.9375 
Q 23.390625 74.21875 37.203125 74.21875 
Q 40.921875 74.21875 44.703125 73.484375 
Q 48.484375 72.75 52.59375 71.296875 
z
" id="DejaVuSans-54"/>
       </defs>
       <use xlink:href="#DejaVuSans-48"/>
       <use x="63.623047" xlink:href="#DejaVuSans-49"/>
       <use x="127.246094" xlink:href="#DejaVuSans-45"/>
       <use x="163.330078" xlink:href="#DejaVuSans-48"/>
       <use x="226.953125" xlink:href="#DejaVuSans-54"/>
       <use x="290.576172" xlink:href="#DejaVuSans-45"/>
       <use x="326.660156" xlink:href="#DejaVuSans-50"/>
       <use x="390.283203" xlink:href="#DejaVuSans-48"/>
      </g>
     </g>
    </g>
   </g>
   <g id="matplotlib.axis_2">
    <g id="ytick_1">
     <g id="line2d_10">
      <defs>
       <path d="M 0 0 
L -3.5 0 
" id="m9b2261fab8" style="stroke:#000000;stroke-width:0.8;"/>
      </defs>
      <g>
       <use style="stroke:#000000;stroke-width:0.8;" x="35.304688" xlink:href="#m9b2261fab8" y="281.765688"/>
      </g>
     </g>
     <g id="text_10">
      <!-- −30 -->
      <g transform="translate(7.2 285.564907)scale(0.1 -0.1)">
       <defs>
        <path d="M 10.59375 35.5 
L 73.1875 35.5 
L 73.1875 27.203125 
L 10.59375 27.203125 
z
" id="DejaVuSans-8722"/>
       </defs>
       <use xlink:href="#DejaVuSans-8722"/>
       <use x="83.789062" xlink:href="#DejaVuSans-51"/>
       <use x="147.412109" xlink:href="#DejaVuSans-48"/>
      </g>
     </g>
    </g>
    <g id="ytick_2">
     <g id="line2d_11">
      <g>
       <use style="stroke:#000000;stroke-width:0.8;" x="35.304688" xlink:href="#m9b2261fab8" y="243.084764"/>
      </g>
     </g>
     <g id="text_11">
      <!-- −25 -->
      <g transform="translate(7.2 246.883983)scale(0.1 -0.1)">
       <use xlink:href="#DejaVuSans-8722"/>
       <use x="83.789062" xlink:href="#DejaVuSans-50"/>
       <use x="147.412109" xlink:href="#DejaVuSans-53"/>
      </g>
     </g>
    </g>
    <g id="ytick_3">
     <g id="line2d_12">
      <g>
       <use style="stroke:#000000;stroke-width:0.8;" x="35.304688" xlink:href="#m9b2261fab8" y="204.40384"/>
      </g>
     </g>
     <g id="text_12">
      <!-- −20 -->
      <g transform="translate(7.2 208.203059)scale(0.1 -0.1)">
       <use xlink:href="#DejaVuSans-8722"/>
       <use x="83.789062" xlink:href="#DejaVuSans-50"/>
       <use x="147.412109" xlink:href="#DejaVuSans-48"/>
      </g>
     </g>
    </g>
    <g id="ytick_4">
     <g id="line2d_13">
      <g>
       <use style="stroke:#000000;stroke-width:0.8;" x="35.304688" xlink:href="#m9b2261fab8" y="165.722916"/>
      </g>
     </g>
     <g id="text_13">
      <!-- −15 -->
      <g transform="translate(7.2 169.522134)scale(0.1 -0.1)">
       <use xlink:href="#DejaVuSans-8722"/>
       <use x="83.789062" xlink:href="#DejaVuSans-49"/>
       <use x="147.412109" xlink:href="#DejaVuSans-53"/>
      </g>
     </g>
    </g>
    <g id="ytick_5">
     <g id="line2d_14">
      <g>
       <use style="stroke:#000000;stroke-width:0.8;" x="35.304688" xlink:href="#m9b2261fab8" y="127.041991"/>
      </g>
     </g>
     <g id="text_14">
      <!-- −10 -->
      <g transform="translate(7.2 130.84121)scale(0.1 -0.1)">
       <use xlink:href="#DejaVuSans-8722"/>
       <use x="83.789062" xlink:href="#DejaVuSans-49"/>
       <use x="147.412109" xlink:href="#DejaVuSans-48"/>
      </g>
     </g>
    </g>
    <g id="ytick_6">
     <g id="line2d_15">
      <g>
       <use style="stroke:#000000;stroke-width:0.8;" x="35.304688" xlink:href="#m9b2261fab8" y="88.361067"/>
      </g>
     </g>
     <g id="text_15">
      <!-- −5 -->
      <g transform="translate(13.5625 92.160286)scale(0.1 -0.1)">
       <use xlink:href="#DejaVuSans-8722"/>
       <use x="83.789062" xlink:href="#DejaVuSans-53"/>
      </g>
     </g>
    </g>
    <g id="ytick_7">
     <g id="line2d_16">
      <g>
       <use style="stroke:#000000;stroke-width:0.8;" x="35.304688" xlink:href="#m9b2261fab8" y="49.680143"/>
      </g>
     </g>
     <g id="text_16">
      <!-- 0 -->
      <g transform="translate(21.942187 53.479362)scale(0.1 -0.1)">
       <use xlink:href="#DejaVuSans-48"/>
      </g>
     </g>
    </g>
    <g id="ytick_8">
     <g id="line2d_17">
      <g>
       <use style="stroke:#000000;stroke-width:0.8;" x="35.304688" xlink:href="#m9b2261fab8" y="10.999219"/>
      </g>
     </g>
     <g id="text_17">
      <!-- 5 -->
      <g transform="translate(21.942187 14.798438)scale(0.1 -0.1)">
       <use xlink:href="#DejaVuSans-53"/>
      </g>
     </g>
    </g>
   </g>
   <g id="line2d_18">
    <path clip-path="url(#p2ca4360156)" d="M 54.491039 49.698912 
L 54.993299 49.532587 
L 55.49556 49.67185 
L 57.002341 49.684735 
L 57.504602 49.002214 
L 58.006862 49.891754 
L 60.015905 50.079336 
L 61.522686 49.929105 
L 62.024947 49.939973 
L 62.527207 49.692951 
L 63.531728 47.748257 
L 64.033989 46.052547 
L 64.536249 49.733976 
L 67.047552 49.691868 
L 68.052073 49.695612 
L 68.554333 21.813981 
L 69.056594 42.904618 
L 69.558854 45.934023 
L 70.061115 49.812555 
L 70.563375 46.124757 
L 71.065636 48.517992 
L 71.567896 47.858454 
L 72.070157 41.127783 
L 72.572417 47.985745 
L 73.074678 50.219588 
L 73.576938 50.347351 
L 74.581459 48.82072 
L 75.08372 45.649449 
L 75.58598 48.561745 
L 76.088241 49.848283 
L 78.097283 49.673688 
L 82.115367 49.743279 
L 82.617627 50.029415 
L 83.119888 50.469895 
L 84.124409 50.768417 
L 85.63119 50.760928 
L 86.635711 50.597837 
L 87.137972 50.288355 
L 88.644753 49.840691 
L 89.649274 49.782483 
L 90.151535 49.11771 
L 90.653796 48.238327 
L 91.156056 48.192131 
L 91.658317 49.682622 
L 94.169619 49.767605 
L 95.17414 49.994586 
L 95.676401 50.0661 
L 96.178661 50.639784 
L 96.680922 50.527233 
L 97.183182 50.750215 
L 98.187703 50.650688 
L 98.689964 50.323033 
L 101.703527 49.76049 
L 106.726132 49.796246 
L 107.228392 49.838907 
L 107.730653 49.425901 
L 108.232913 44.945815 
L 108.735174 50.076723 
L 109.237434 48.844409 
L 109.739695 47.279351 
L 110.241955 50.099653 
L 111.748737 49.908775 
L 113.255518 49.721914 
L 117.775863 49.749142 
L 118.278123 49.900035 
L 119.282644 50.438526 
L 119.784905 50.309809 
L 120.287166 50.647497 
L 121.291687 50.749856 
L 122.798468 50.518591 
L 124.30525 49.96962 
L 124.80751 49.790162 
L 126.314292 49.707327 
L 129.830115 49.67919 
L 130.834636 49.983775 
L 132.341418 50.66783 
L 133.345939 50.840851 
L 134.35046 50.764892 
L 135.354981 50.491704 
L 136.861762 49.784914 
L 139.875325 49.685595 
L 142.386628 49.772829 
L 144.89793 50.814026 
L 146.404712 50.836612 
L 148.916014 49.842762 
L 149.920535 49.7197 
L 153.93862 49.684806 
L 154.44088 46.813989 
L 154.943141 50.028425 
L 155.445401 50.78421 
L 155.947662 51.000465 
L 156.449922 50.551729 
L 156.952183 50.276809 
L 157.454443 50.861339 
L 158.961225 50.669076 
L 160.970267 49.786195 
L 165.490611 49.683915 
L 165.992872 45.191806 
L 166.495132 27.17507 
L 167.499653 50.050659 
L 168.001914 50.113879 
L 168.504174 50.750499 
L 169.006435 50.671141 
L 169.508695 51.584138 
L 170.513216 51.172225 
L 171.517737 50.675745 
L 172.522258 49.942955 
L 173.024519 49.740139 
L 177.544863 49.698207 
L 178.047124 48.980877 
L 178.549384 49.812801 
L 179.051645 49.246289 
L 179.553905 49.994047 
L 180.056166 50.071085 
L 180.558427 50.515702 
L 181.060687 50.741922 
L 181.562948 50.289975 
L 182.065208 50.004839 
L 183.069729 49.921999 
L 183.57199 44.78137 
L 184.07425 48.477154 
L 184.576511 49.864867 
L 185.078771 46.044332 
L 185.581032 40.703383 
L 186.083292 39.932947 
L 186.585553 44.444221 
L 187.087813 45.945542 
L 187.590074 46.689343 
L 188.092334 48.980364 
L 188.594595 49.723332 
L 190.101376 49.73515 
L 191.608158 50.179385 
L 192.110418 50.092151 
L 192.612679 50.44058 
L 194.11946 50.73285 
L 195.123981 50.574467 
L 197.133023 49.785686 
L 198.137544 49.706919 
L 201.653368 49.708427 
L 202.155628 48.988906 
L 202.657889 49.800181 
L 203.160149 49.229163 
L 203.66241 40.271945 
L 204.16467 50.034338 
L 204.666931 50.114565 
L 205.169191 49.576271 
L 205.671452 49.609456 
L 206.173712 50.174987 
L 206.675973 48.816162 
L 207.178233 50.030734 
L 211.196318 49.720104 
L 211.698578 45.176491 
L 212.200839 38.377278 
L 212.703099 43.660137 
L 213.20536 36.858176 
L 213.70762 43.649526 
L 214.209881 45.960184 
L 214.712141 49.087776 
L 215.214402 49.867803 
L 217.223444 50.142215 
L 218.730225 50.141775 
L 221.241528 49.798113 
L 225.259612 49.771098 
L 227.268654 49.907361 
L 229.779956 50.039067 
L 231.286738 49.995774 
L 231.788998 50.106368 
L 232.793519 49.831911 
L 233.79804 49.710965 
L 237.816124 49.6756 
L 238.318385 49.675279 
L 239.322906 50.016116 
L 240.327427 50.576508 
L 242.336469 50.836403 
L 243.34099 50.631675 
L 244.847772 50.046493 
L 245.350032 49.792061 
L 247.359074 49.695381 
L 250.372637 49.679298 
L 251.377158 50.068082 
L 252.88394 50.796771 
L 253.888461 50.935166 
L 254.892982 50.855487 
L 255.897503 50.584682 
L 256.902024 50.114827 
L 257.404284 49.830041 
L 258.911066 49.732418 
L 262.426889 49.687376 
L 263.43141 50.099833 
L 264.938192 50.777099 
L 265.942713 50.987656 
L 266.947234 50.864522 
L 267.951755 50.574106 
L 269.458536 49.794659 
L 274.481142 49.692364 
L 275.485663 50.14287 
L 276.992444 50.815956 
L 277.996965 50.968422 
L 279.001486 50.575111 
L 279.503747 50.75491 
L 280.006007 50.549184 
L 280.508268 50.16697 
L 281.512789 49.921047 
L 283.521831 49.798833 
L 287.037654 49.804215 
L 287.539915 49.886544 
L 288.042175 50.131927 
L 288.544436 50.125696 
L 289.046696 50.280202 
L 289.548957 50.825804 
L 290.051217 50.825954 
L 291.055738 50.580784 
L 291.557999 50.497274 
L 292.060259 50.177679 
L 294.571562 49.723709 
L 298.589646 49.682959 
L 299.594167 50.080938 
L 301.100948 50.730289 
L 301.603209 50.77726 
L 302.10547 50.646565 
L 303.109991 50.825165 
L 304.616772 50.278961 
L 305.621293 49.73491 
L 307.630335 49.698989 
L 310.643898 49.684395 
L 311.648419 50.080174 
L 312.15068 50.340579 
L 312.65294 50.376138 
L 313.155201 50.695527 
L 313.657461 50.245596 
L 314.159722 50.361594 
L 314.661982 50.876367 
L 315.666503 50.642999 
L 316.168764 50.114594 
L 317.675545 49.827652 
L 318.680066 49.706586 
L 322.69815 49.709248 
L 323.702671 49.825081 
L 324.204932 48.813763 
L 324.707192 42.862953 
L 325.209453 51.041095 
L 325.711713 51.313928 
L 326.213974 26.09992 
L 326.716234 37.385752 
L 327.218495 33.594077 
L 327.720755 40.318747 
L 328.223016 40.238781 
L 328.725276 37.898711 
L 329.227537 48.35537 
L 329.729797 47.479901 
L 330.232058 49.713087 
L 332.743361 49.691808 
L 334.752403 49.72824 
L 335.254663 49.859538 
L 336.259184 50.442546 
L 336.761445 50.601868 
L 337.263705 50.634202 
L 337.765966 50.262115 
L 338.770487 50.817762 
L 340.277268 50.548779 
L 342.28631 49.724502 
L 346.304394 49.68774 
L 347.811176 49.811475 
L 348.815697 49.94512 
L 349.317957 50.318632 
L 349.820218 50.146062 
L 350.322478 50.134833 
L 351.326999 50.386195 
L 354.340562 49.715653 
L 358.860907 49.680182 
L 361.87447 50.742854 
L 362.376731 50.821293 
L 362.878991 50.633312 
L 363.381252 50.675537 
L 363.883512 50.440185 
L 364.888033 50.295715 
L 366.394815 49.762637 
L 368.906117 49.70508 
L 370.915159 49.696244 
L 371.91968 50.11629 
L 372.924201 50.633711 
L 373.928722 50.857545 
L 374.933243 50.892381 
L 375.937764 50.706775 
L 376.942285 50.331748 
L 377.946806 49.855257 
L 378.951327 49.736949 
L 381.46263 49.687097 
L 383.471672 49.753525 
L 383.973932 49.847911 
L 384.476193 50.249505 
L 385.480714 50.671982 
L 385.982974 50.366056 
L 386.987495 50.681536 
L 387.992016 50.041349 
L 388.494277 50.324466 
L 391.005579 49.746861 
L 395.023664 49.744188 
L 398.037227 50.617833 
L 399.041748 50.639569 
L 399.544008 50.702502 
L 402.557571 49.798553 
L 407.077916 49.737485 
L 408.082437 50.095862 
L 409.589218 50.588806 
L 410.091479 50.69252 
L 410.593739 50.661075 
L 411.096 50.394741 
L 411.59826 50.2953 
L 412.100521 50.40672 
L 413.607302 50.001989 
L 414.611823 49.74554 
L 418.127647 49.699351 
L 419.132168 49.706135 
L 420.136689 50.04056 
L 421.64347 50.595326 
L 423.150252 50.674589 
L 424.657034 50.381608 
L 426.666076 49.777289 
L 427.670597 49.769993 
L 427.670597 49.769993 
" style="fill:none;stroke:#2980b9;stroke-linecap:square;stroke-width:0.75;"/>
   </g>
   <g id="line2d_19">
    <path clip-path="url(#p2ca4360156)" d="M 53.988778 49.680143 
L 54.491039 54.398335 
L 55.49556 50.41575 
L 55.99782 53.076078 
L 56.500081 53.722413 
L 57.002341 53.089342 
L 57.504602 55.775176 
L 58.006862 72.128413 
L 58.509123 76.948121 
L 59.011383 89.662091 
L 59.513644 157.065056 
L 60.015905 149.264148 
L 60.518165 129.285417 
L 61.020426 129.975113 
L 61.522686 112.442455 
L 62.024947 115.080848 
L 62.527207 104.500242 
L 63.029468 81.682638 
L 63.531728 72.819639 
L 64.033989 60.193412 
L 64.536249 55.853226 
L 65.03851 52.850601 
L 65.54077 53.655586 
L 66.043031 51.19829 
L 66.545291 50.851912 
L 67.047552 51.521202 
L 67.549812 50.323417 
L 68.554333 53.796382 
L 69.056594 51.364592 
L 69.558854 52.128767 
L 70.061115 63.780136 
L 70.563375 65.017201 
L 71.065636 73.80521 
L 71.567896 80.231318 
L 72.572417 88.842822 
L 73.576938 118.223759 
L 74.079199 97.07734 
L 74.581459 94.279787 
L 75.08372 83.926699 
L 75.58598 76.772126 
L 76.088241 67.422974 
L 76.590501 60.85148 
L 77.092762 52.398116 
L 77.595022 50.303012 
L 78.097283 49.680143 
L 81.613106 49.680143 
L 82.115367 56.755136 
L 82.617627 86.080468 
L 83.119888 135.787534 
L 84.124409 205.946221 
L 85.12893 239.389323 
L 85.63119 236.779498 
L 86.133451 226.97633 
L 86.635711 213.145175 
L 87.137972 159.16271 
L 88.142493 93.518673 
L 89.147014 66.34558 
L 89.649274 69.154865 
L 90.151535 63.298063 
L 90.653796 54.873776 
L 91.156056 51.751781 
L 91.658317 50.580012 
L 92.160577 50.671326 
L 92.662838 49.680143 
L 93.165098 49.680143 
L 93.667359 49.867361 
L 94.169619 59.183865 
L 94.67188 76.106917 
L 95.17414 82.473339 
L 95.676401 90.284449 
L 96.178661 154.64806 
L 96.680922 160.651269 
L 97.183182 232.012843 
L 97.685443 241.021739 
L 98.187703 228.484274 
L 98.689964 169.244919 
L 99.192224 149.719184 
L 100.699006 71.082136 
L 101.201266 60.797916 
L 101.703527 65.71965 
L 102.205787 65.029444 
L 102.708048 63.604141 
L 103.210308 59.216513 
L 103.712569 58.558445 
L 104.214829 56.689839 
L 104.71709 56.165426 
L 105.21935 55.894546 
L 105.721611 56.107781 
L 106.223871 66.495048 
L 106.726132 72.405924 
L 107.228392 80.347627 
L 108.232913 87.317533 
L 108.735174 90.558899 
L 109.237434 95.816299 
L 109.739695 92.048479 
L 110.241955 92.883562 
L 111.246476 86.745678 
L 111.748737 73.677678 
L 112.250997 65.335522 
L 112.753258 54.745224 
L 113.757779 54.419761 
L 114.260039 54.902344 
L 114.7623 52.618492 
L 115.26456 54.014717 
L 115.766821 52.347103 
L 116.269081 52.177229 
L 116.771342 55.106906 
L 117.775863 57.502476 
L 118.278123 73.456281 
L 119.282644 142.476868 
L 119.784905 136.547117 
L 120.287166 195.474783 
L 120.789426 221.305215 
L 121.291687 238.851135 
L 122.296208 225.667846 
L 122.798468 206.13701 
L 123.300729 178.931267 
L 123.802989 145.650387 
L 124.80751 71.248439 
L 125.309771 60.088325 
L 125.812031 58.315113 
L 126.314292 55.847104 
L 126.816552 54.170817 
L 127.318813 51.574256 
L 127.821073 51.253894 
L 128.323334 50.697852 
L 128.825594 50.383612 
L 129.327855 50.25863 
L 129.830115 50.600928 
L 130.332376 68.732988 
L 131.336897 149.576858 
L 132.341418 234.691536 
L 133.345939 269.707878 
L 133.848199 267.031736 
L 134.35046 256.939835 
L 134.85272 236.862139 
L 135.354981 205.777368 
L 136.861762 70.795443 
L 137.364023 64.255577 
L 137.866283 61.815115 
L 138.368544 54.389663 
L 138.870804 53.445923 
L 139.373065 52.025211 
L 139.875325 51.845135 
L 140.879846 51.000359 
L 141.382107 50.839668 
L 141.884367 50.945265 
L 142.386628 68.542199 
L 143.391149 164.830254 
L 144.39567 249.351651 
L 144.89793 268.101479 
L 145.400191 273.831259 
L 145.902451 266.985824 
L 146.404712 274.840296 
L 146.906972 234.998634 
L 147.409233 173.167309 
L 148.413754 112.691909 
L 148.916014 82.328972 
L 149.418275 62.818541 
L 149.920535 58.469683 
L 151.427317 52.693481 
L 151.929578 51.738007 
L 152.431838 51.055964 
L 152.934099 50.070903 
L 153.436359 50.583073 
L 153.93862 51.704339 
L 154.44088 60.54081 
L 154.943141 85.629513 
L 155.445401 162.906554 
L 155.947662 196.800611 
L 156.449922 214.089426 
L 156.952183 165.978047 
L 157.454443 279.746726 
L 158.458964 266.052287 
L 158.961225 242.765873 
L 159.965746 156.252929 
L 160.468006 92.696854 
L 160.970267 71.594307 
L 161.472527 67.914739 
L 161.974788 65.91656 
L 162.477048 60.001093 
L 162.979309 58.363576 
L 163.481569 53.687214 
L 163.98383 51.320721 
L 164.988351 52.339961 
L 165.490611 51.542117 
L 165.992872 52.88733 
L 166.495132 59.12622 
L 166.997393 71.525439 
L 167.499653 87.887859 
L 168.001914 94.292541 
L 168.504174 159.696306 
L 169.006435 154.388404 
L 169.508695 263.287892 
L 170.010956 267.548498 
L 170.513216 255.086532 
L 171.015477 230.599273 
L 171.517737 198.76002 
L 172.522258 91.486826 
L 173.024519 59.928144 
L 173.526779 57.39943 
L 174.02904 54.059099 
L 174.5313 51.804324 
L 175.033561 51.845135 
L 175.535821 51.536506 
L 176.038082 50.943735 
L 176.540342 51.424277 
L 177.042603 51.137584 
L 177.544863 53.422967 
L 178.047124 54.009616 
L 179.553905 82.132572 
L 180.056166 90.155897 
L 180.558427 169.616804 
L 181.060687 225.88006 
L 181.562948 153.12022 
L 182.065208 106.446388 
L 182.567469 97.403313 
L 183.069729 92.552487 
L 183.57199 76.162011 
L 184.07425 70.983681 
L 184.576511 69.052329 
L 185.078771 59.525142 
L 185.581032 55.538986 
L 186.585553 53.391849 
L 187.087813 52.871006 
L 187.590074 52.147642 
L 188.092334 54.004005 
L 188.594595 54.685538 
L 189.096855 54.7692 
L 190.101376 55.874651 
L 190.603637 73.475156 
L 191.105897 100.287588 
L 191.608158 102.985666 
L 192.110418 95.057736 
L 192.612679 135.900783 
L 193.114939 153.288053 
L 193.6172 164.156373 
L 194.11946 193.753604 
L 194.621721 192.513478 
L 195.123981 181.147272 
L 195.626242 151.917334 
L 196.128502 112.045064 
L 196.630763 81.22046 
L 197.133023 66.832754 
L 197.635284 55.744568 
L 198.137544 54.69217 
L 198.639805 55.400231 
L 199.142065 54.716656 
L 199.644326 56.071562 
L 200.146586 56.363866 
L 200.648847 56.402126 
L 201.151107 54.279475 
L 201.653368 54.92734 
L 202.155628 54.564638 
L 204.666931 94.379773 
L 205.169191 94.278257 
L 205.671452 96.538643 
L 206.173712 100.586524 
L 207.178233 85.884068 
L 207.680494 82.116248 
L 208.182754 72.692107 
L 208.685015 69.101812 
L 209.187275 60.035272 
L 209.689536 58.315113 
L 210.191796 56.069011 
L 210.694057 56.787784 
L 211.698578 51.878803 
L 212.200839 51.327863 
L 212.703099 51.406933 
L 213.20536 50.653471 
L 213.70762 50.694792 
L 214.209881 53.880553 
L 215.214402 69.366059 
L 216.721183 96.883491 
L 217.223444 98.572021 
L 217.725704 102.563278 
L 218.227965 103.94624 
L 218.730225 102.543893 
L 219.232486 93.97779 
L 219.734746 90.375252 
L 221.241528 65.531922 
L 221.743788 63.801561 
L 222.748309 63.043508 
L 223.25057 64.337708 
L 223.75283 63.964293 
L 224.255091 64.856 
L 224.757351 66.688387 
L 225.259612 62.880777 
L 225.761872 64.34536 
L 226.264133 65.147284 
L 227.268654 82.020344 
L 228.273175 95.331675 
L 228.775435 99.028587 
L 229.277696 104.842029 
L 229.779956 105.283291 
L 230.282217 101.614946 
L 230.784477 99.770316 
L 231.286738 101.741459 
L 231.788998 120.327024 
L 232.291259 91.180748 
L 233.29578 60.65559 
L 233.79804 55.705798 
L 234.802561 50.551445 
L 235.304822 50.437686 
L 235.807082 49.680143 
L 236.309343 49.98367 
L 236.811603 49.680143 
L 237.313864 49.680143 
L 237.816124 49.939799 
L 238.318385 49.887766 
L 238.820645 73.84296 
L 239.322906 105.761793 
L 240.327427 199.365034 
L 240.829687 212.392734 
L 241.331948 234.70837 
L 241.834209 247.595784 
L 242.336469 248.735414 
L 242.83873 235.719958 
L 243.34099 213.961383 
L 244.345511 153.70585 
L 245.350032 69.927712 
L 245.852293 61.788588 
L 246.354553 60.615289 
L 246.856814 55.776196 
L 247.861335 51.418666 
L 248.363595 50.779473 
L 248.865856 50.607559 
L 249.368116 50.278015 
L 249.870377 50.233124 
L 250.372637 50.580522 
L 250.874898 76.47472 
L 252.88394 242.882693 
L 253.3862 258.436556 
L 253.888461 266.697091 
L 254.390721 264.880518 
L 254.892982 252.983777 
L 255.395242 235.666904 
L 256.399763 175.209359 
L 257.404284 76.515531 
L 257.906545 66.339458 
L 258.408805 62.248726 
L 258.911066 59.71491 
L 259.413326 55.981779 
L 259.915587 53.74894 
L 260.417847 53.729045 
L 260.920108 51.879823 
L 261.422368 51.836462 
L 261.924629 52.436375 
L 262.426889 51.962465 
L 262.92915 80.184386 
L 264.435931 202.531921 
L 264.938192 241.295678 
L 265.440452 266.178799 
L 265.942713 278.27194 
L 266.444973 274.371997 
L 267.449494 237.154443 
L 267.951755 206.860374 
L 269.458536 70.724535 
L 269.960797 67.577033 
L 270.463057 60.199533 
L 270.965318 57.621847 
L 271.969839 54.133068 
L 272.4721 54.473324 
L 273.978881 51.112078 
L 274.481142 52.856212 
L 274.983402 85.559625 
L 276.490184 221.258283 
L 276.992444 249.197082 
L 277.494705 266.7731 
L 277.996965 277.607241 
L 278.499226 237.739562 
L 279.001486 208.338731 
L 279.503747 240.002499 
L 280.006007 203.771027 
L 280.508268 136.457845 
L 281.512789 93.146789 
L 282.015049 83.827224 
L 282.51731 82.482521 
L 283.01957 74.213314 
L 283.521831 71.622364 
L 284.024091 70.130744 
L 285.530873 62.297188 
L 286.033133 58.100859 
L 286.535394 60.548462 
L 287.539915 87.06757 
L 288.042175 130.282211 
L 288.544436 129.184411 
L 289.046696 156.428413 
L 289.548957 252.72055 
L 290.051217 252.830738 
L 290.553478 225.287799 
L 291.557999 196.101222 
L 292.060259 139.240604 
L 292.56252 120.0337 
L 293.06478 113.367831 
L 293.567041 73.900094 
L 294.069301 58.797696 
L 294.571562 58.471723 
L 296.078343 53.822909 
L 296.580604 51.59262 
L 297.585125 50.45401 
L 298.087385 50.381062 
L 298.589646 51.220736 
L 299.091906 80.865409 
L 301.100948 237.551834 
L 301.603209 245.907764 
L 302.10547 222.654508 
L 303.109991 254.427955 
L 303.612251 228.427139 
L 304.616772 157.248702 
L 305.621293 60.454088 
L 306.123554 62.730798 
L 306.625814 54.772771 
L 307.128075 54.091747 
L 307.630335 54.06267 
L 308.132596 51.454885 
L 308.634856 52.009397 
L 309.137117 51.110547 
L 310.141638 50.367288 
L 310.643898 51.465598 
L 311.146159 77.383772 
L 312.15068 168.208335 
L 312.65294 174.608936 
L 313.155201 231.9603 
L 313.657461 151.645435 
L 314.159722 172.350591 
L 314.661982 264.238774 
L 315.164243 247.271851 
L 315.666503 222.580029 
L 316.168764 128.256995 
L 316.671024 116.138347 
L 318.177806 57.83049 
L 319.182327 53.540297 
L 319.684587 64.861611 
L 320.186848 66.120612 
L 320.689108 64.205074 
L 321.191369 60.977992 
L 321.693629 52.472595 
L 322.19589 51.442132 
L 322.69815 55.906279 
L 323.200411 64.585631 
L 323.702671 76.608885 
L 324.204932 93.712013 
L 324.707192 99.506069 
L 325.209453 188.395199 
L 325.711713 217.033896 
L 326.213974 88.445941 
L 326.716234 86.292682 
L 327.218495 85.012256 
L 328.223016 75.146852 
L 328.725276 69.981276 
L 329.729797 54.594225 
L 330.232058 53.657626 
L 330.734318 51.299296 
L 331.236579 49.680143 
L 331.73884 50.004076 
L 332.2411 49.979589 
L 332.743361 51.483452 
L 333.245621 52.386383 
L 333.747882 54.409048 
L 334.250142 53.741288 
L 334.752403 55.184956 
L 335.254663 68.614128 
L 335.756924 106.506583 
L 336.761445 163.638081 
L 337.263705 180.537667 
L 337.765966 134.605053 
L 338.268226 187.631024 
L 338.770487 226.511601 
L 339.272747 219.771254 
L 340.277268 191.926319 
L 340.779529 154.881189 
L 341.281789 108.721057 
L 342.28631 57.894766 
L 343.290831 52.088467 
L 343.793092 54.252948 
L 344.295352 53.607124 
L 344.797613 51.00444 
L 345.299873 50.685609 
L 345.802134 50.770801 
L 346.304394 51.900739 
L 346.806655 54.055018 
L 347.811176 72.073829 
L 348.313436 81.837207 
L 348.815697 94.000746 
L 349.317957 155.319391 
L 349.820218 127.37294 
L 350.322478 126.218006 
L 350.824739 156.144271 
L 351.326999 168.986283 
L 352.33152 132.773176 
L 352.833781 122.07626 
L 353.838302 60.981053 
L 354.340562 56.688819 
L 355.345083 51.454375 
L 355.847344 50.107632 
L 356.349604 50.004586 
L 356.851865 50.68816 
L 357.354125 49.9449 
L 357.856386 50.310664 
L 358.358646 50.222411 
L 358.860907 50.709075 
L 359.865428 117.09331 
L 360.367688 157.982269 
L 360.869949 182.27925 
L 361.372209 194.564201 
L 361.87447 230.416136 
L 362.376731 243.680026 
L 362.878991 212.027481 
L 363.381252 219.454973 
L 363.883512 179.627595 
L 364.385773 171.044658 
L 364.888033 155.12044 
L 365.892554 83.468603 
L 366.394815 64.696329 
L 366.897075 59.392508 
L 367.399336 57.048461 
L 367.901596 57.297914 
L 368.403857 56.436815 
L 369.910638 52.031332 
L 370.412899 51.812996 
L 370.915159 53.433169 
L 371.41742 84.224615 
L 372.924201 212.448338 
L 373.928722 250.620344 
L 374.430983 257.535666 
L 374.933243 257.78563 
L 375.435504 247.927368 
L 375.937764 226.577408 
L 376.942285 162.594865 
L 377.444546 114.417679 
L 377.946806 80.832251 
L 378.449067 64.142838 
L 378.951327 60.479085 
L 379.453588 55.811905 
L 379.955848 55.552759 
L 380.458109 52.741433 
L 380.960369 51.919614 
L 381.46263 51.902269 
L 381.96489 51.737497 
L 382.467151 51.326843 
L 382.969411 55.739977 
L 383.471672 63.329691 
L 383.973932 79.567128 
L 384.476193 148.868797 
L 385.480714 221.99542 
L 385.982974 169.162278 
L 386.485235 202.915539 
L 386.987495 223.64314 
L 387.489756 173.993719 
L 387.992016 143.303789 
L 388.494277 162.005154 
L 389.498798 123.893343 
L 390.001058 93.408996 
L 390.503319 70.577618 
L 391.005579 62.224239 
L 391.50784 61.225405 
L 392.010101 66.241003 
L 392.512361 76.94302 
L 393.516882 59.599621 
L 394.019143 58.769639 
L 394.521403 58.834426 
L 395.023664 61.761551 
L 395.525924 87.927139 
L 396.028185 126.763334 
L 397.032706 181.603328 
L 397.534966 201.592772 
L 398.037227 212.634535 
L 398.539487 210.134898 
L 399.041748 216.634975 
L 399.544008 228.080761 
L 401.55305 115.871039 
L 402.055311 82.51619 
L 402.557571 71.376992 
L 403.059832 69.21047 
L 403.562092 62.577759 
L 404.064353 59.540445 
L 404.566613 61.91459 
L 405.068874 61.649833 
L 405.571134 61.069305 
L 406.073395 60.958097 
L 406.575655 59.837851 
L 407.077916 60.728028 
L 407.580176 86.186065 
L 408.584697 157.873612 
L 409.086958 187.834056 
L 410.091479 228.542939 
L 410.593739 223.566111 
L 411.096 176.991243 
L 411.59826 159.417775 
L 412.100521 179.106752 
L 412.602781 158.777052 
L 413.105042 143.921046 
L 414.109563 76.712441 
L 414.611823 62.264029 
L 415.114084 58.437034 
L 415.616344 58.69567 
L 416.118605 56.471503 
L 416.620865 54.899793 
L 417.123126 54.514645 
L 417.625386 53.490814 
L 418.127647 54.100929 
L 418.629907 53.376545 
L 419.132168 55.299735 
L 419.634428 80.523112 
L 421.64347 212.431504 
L 422.145731 219.968164 
L 422.647992 224.491997 
L 423.150252 226.436102 
L 423.652513 213.391058 
L 425.159294 145.886067 
L 425.661555 121.217201 
L 426.163815 87.177758 
L 426.666076 67.865257 
L 427.168336 66.049194 
L 427.670597 66.575648 
L 427.670597 66.575648 
" style="fill:none;stroke:#ff6600;stroke-linecap:square;stroke-width:0.75;"/>
   </g>
   <g id="patch_3">
    <path d="M 35.304688 292.643363 
L 35.304688 8.917344 
" style="fill:none;stroke:#000000;stroke-linecap:square;stroke-linejoin:miter;stroke-width:0.8;"/>
   </g>
   <g id="patch_4">
    <path d="M 446.354688 292.643363 
L 446.354688 8.917344 
" style="fill:none;stroke:#000000;stroke-linecap:square;stroke-linejoin:miter;stroke-width:0.8;"/>
   </g>
   <g id="patch_5">
    <path d="M 35.304688 292.643363 
L 446.354687 292.643363 
" style="fill:none;stroke:#000000;stroke-linecap:square;stroke-linejoin:miter;stroke-width:0.8;"/>
   </g>
   <g id="patch_6">
    <path d="M 35.304688 8.917344 
L 446.354687 8.917344 
" style="fill:none;stroke:#000000;stroke-linecap:square;stroke-linejoin:miter;stroke-width:0.8;"/>
   </g>
   <g id="legend_1">
    <g id="patch_7">
     <path d="M 200.454688 287.643363 
L 439.354688 287.643363 
Q 441.354688 287.643363 441.354688 285.643363 
L 441.354688 252.243363 
Q 441.354688 250.243363 439.354688 250.243363 
L 200.454688 250.243363 
Q 198.454688 250.243363 198.454688 252.243363 
L 198.454688 285.643363 
Q 198.454688 287.643363 200.454688 287.643363 
z
" style="fill:#ffffff;opacity:0.8;stroke:#cccccc;stroke-linejoin:miter;"/>
    </g>
    <g id="line2d_20">
     <path d="M 202.454688 259.843363 
L 222.454688 259.843363 
" style="fill:none;stroke:#2980b9;stroke-linecap:square;stroke-width:0.75;"/>
    </g>
    <g id="line2d_21"/>
    <g id="text_18">
     <!-- SW in-/out-fluxes ($m^3$/$\delta t_{exchange}$) -->
     <g transform="translate(230.454688 263.343363)scale(0.1 -0.1)">
      <defs>
       <path d="M 53.515625 70.515625 
L 53.515625 60.890625 
Q 47.90625 63.578125 42.921875 64.890625 
Q 37.9375 66.21875 33.296875 66.21875 
Q 25.25 66.21875 20.875 63.09375 
Q 16.5 59.96875 16.5 54.203125 
Q 16.5 49.359375 19.40625 46.890625 
Q 22.3125 44.4375 30.421875 42.921875 
L 36.375 41.703125 
Q 47.40625 39.59375 52.65625 34.296875 
Q 57.90625 29 57.90625 20.125 
Q 57.90625 9.515625 50.796875 4.046875 
Q 43.703125 -1.421875 29.984375 -1.421875 
Q 24.8125 -1.421875 18.96875 -0.25 
Q 13.140625 0.921875 6.890625 3.21875 
L 6.890625 13.375 
Q 12.890625 10.015625 18.65625 8.296875 
Q 24.421875 6.59375 29.984375 6.59375 
Q 38.421875 6.59375 43.015625 9.90625 
Q 47.609375 13.234375 47.609375 19.390625 
Q 47.609375 24.75 44.3125 27.78125 
Q 41.015625 30.8125 33.5 32.328125 
L 27.484375 33.5 
Q 16.453125 35.6875 11.515625 40.375 
Q 6.59375 45.0625 6.59375 53.421875 
Q 6.59375 63.09375 13.40625 68.65625 
Q 20.21875 74.21875 32.171875 74.21875 
Q 37.3125 74.21875 42.625 73.28125 
Q 47.953125 72.359375 53.515625 70.515625 
z
" id="DejaVuSans-83"/>
       <path d="M 3.328125 72.90625 
L 13.28125 72.90625 
L 28.609375 11.28125 
L 43.890625 72.90625 
L 54.984375 72.90625 
L 70.3125 11.28125 
L 85.59375 72.90625 
L 95.609375 72.90625 
L 77.296875 0 
L 64.890625 0 
L 49.515625 63.28125 
L 33.984375 0 
L 21.578125 0 
z
" id="DejaVuSans-87"/>
       <path id="DejaVuSans-32"/>
       <path d="M 9.421875 54.6875 
L 18.40625 54.6875 
L 18.40625 0 
L 9.421875 0 
z
M 9.421875 75.984375 
L 18.40625 75.984375 
L 18.40625 64.59375 
L 9.421875 64.59375 
z
" id="DejaVuSans-105"/>
       <path d="M 54.890625 33.015625 
L 54.890625 0 
L 45.90625 0 
L 45.90625 32.71875 
Q 45.90625 40.484375 42.875 44.328125 
Q 39.84375 48.1875 33.796875 48.1875 
Q 26.515625 48.1875 22.3125 43.546875 
Q 18.109375 38.921875 18.109375 30.90625 
L 18.109375 0 
L 9.078125 0 
L 9.078125 54.6875 
L 18.109375 54.6875 
L 18.109375 46.1875 
Q 21.34375 51.125 25.703125 53.5625 
Q 30.078125 56 35.796875 56 
Q 45.21875 56 50.046875 50.171875 
Q 54.890625 44.34375 54.890625 33.015625 
z
" id="DejaVuSans-110"/>
       <path d="M 25.390625 72.90625 
L 33.6875 72.90625 
L 8.296875 -9.28125 
L 0 -9.28125 
z
" id="DejaVuSans-47"/>
       <path d="M 30.609375 48.390625 
Q 23.390625 48.390625 19.1875 42.75 
Q 14.984375 37.109375 14.984375 27.296875 
Q 14.984375 17.484375 19.15625 11.84375 
Q 23.34375 6.203125 30.609375 6.203125 
Q 37.796875 6.203125 41.984375 11.859375 
Q 46.1875 17.53125 46.1875 27.296875 
Q 46.1875 37.015625 41.984375 42.703125 
Q 37.796875 48.390625 30.609375 48.390625 
z
M 30.609375 56 
Q 42.328125 56 49.015625 48.375 
Q 55.71875 40.765625 55.71875 27.296875 
Q 55.71875 13.875 49.015625 6.21875 
Q 42.328125 -1.421875 30.609375 -1.421875 
Q 18.84375 -1.421875 12.171875 6.21875 
Q 5.515625 13.875 5.515625 27.296875 
Q 5.515625 40.765625 12.171875 48.375 
Q 18.84375 56 30.609375 56 
z
" id="DejaVuSans-111"/>
       <path d="M 8.5 21.578125 
L 8.5 54.6875 
L 17.484375 54.6875 
L 17.484375 21.921875 
Q 17.484375 14.15625 20.5 10.265625 
Q 23.53125 6.390625 29.59375 6.390625 
Q 36.859375 6.390625 41.078125 11.03125 
Q 45.3125 15.671875 45.3125 23.6875 
L 45.3125 54.6875 
L 54.296875 54.6875 
L 54.296875 0 
L 45.3125 0 
L 45.3125 8.40625 
Q 42.046875 3.421875 37.71875 1 
Q 33.40625 -1.421875 27.6875 -1.421875 
Q 18.265625 -1.421875 13.375 4.4375 
Q 8.5 10.296875 8.5 21.578125 
z
M 31.109375 56 
z
" id="DejaVuSans-117"/>
       <path d="M 18.3125 70.21875 
L 18.3125 54.6875 
L 36.8125 54.6875 
L 36.8125 47.703125 
L 18.3125 47.703125 
L 18.3125 18.015625 
Q 18.3125 11.328125 20.140625 9.421875 
Q 21.96875 7.515625 27.59375 7.515625 
L 36.8125 7.515625 
L 36.8125 0 
L 27.59375 0 
Q 17.1875 0 13.234375 3.875 
Q 9.28125 7.765625 9.28125 18.015625 
L 9.28125 47.703125 
L 2.6875 47.703125 
L 2.6875 54.6875 
L 9.28125 54.6875 
L 9.28125 70.21875 
z
" id="DejaVuSans-116"/>
       <path d="M 37.109375 75.984375 
L 37.109375 68.5 
L 28.515625 68.5 
Q 23.6875 68.5 21.796875 66.546875 
Q 19.921875 64.59375 19.921875 59.515625 
L 19.921875 54.6875 
L 34.71875 54.6875 
L 34.71875 47.703125 
L 19.921875 47.703125 
L 19.921875 0 
L 10.890625 0 
L 10.890625 47.703125 
L 2.296875 47.703125 
L 2.296875 54.6875 
L 10.890625 54.6875 
L 10.890625 58.5 
Q 10.890625 67.625 15.140625 71.796875 
Q 19.390625 75.984375 28.609375 75.984375 
z
" id="DejaVuSans-102"/>
       <path d="M 9.421875 75.984375 
L 18.40625 75.984375 
L 18.40625 0 
L 9.421875 0 
z
" id="DejaVuSans-108"/>
       <path d="M 54.890625 54.6875 
L 35.109375 28.078125 
L 55.90625 0 
L 45.3125 0 
L 29.390625 21.484375 
L 13.484375 0 
L 2.875 0 
L 24.125 28.609375 
L 4.6875 54.6875 
L 15.28125 54.6875 
L 29.78125 35.203125 
L 44.28125 54.6875 
z
" id="DejaVuSans-120"/>
       <path d="M 56.203125 29.59375 
L 56.203125 25.203125 
L 14.890625 25.203125 
Q 15.484375 15.921875 20.484375 11.0625 
Q 25.484375 6.203125 34.421875 6.203125 
Q 39.59375 6.203125 44.453125 7.46875 
Q 49.3125 8.734375 54.109375 11.28125 
L 54.109375 2.78125 
Q 49.265625 0.734375 44.1875 -0.34375 
Q 39.109375 -1.421875 33.890625 -1.421875 
Q 20.796875 -1.421875 13.15625 6.1875 
Q 5.515625 13.8125 5.515625 26.8125 
Q 5.515625 40.234375 12.765625 48.109375 
Q 20.015625 56 32.328125 56 
Q 43.359375 56 49.78125 48.890625 
Q 56.203125 41.796875 56.203125 29.59375 
z
M 47.21875 32.234375 
Q 47.125 39.59375 43.09375 43.984375 
Q 39.0625 48.390625 32.421875 48.390625 
Q 24.90625 48.390625 20.390625 44.140625 
Q 15.875 39.890625 15.1875 32.171875 
z
" id="DejaVuSans-101"/>
       <path d="M 44.28125 53.078125 
L 44.28125 44.578125 
Q 40.484375 46.53125 36.375 47.5 
Q 32.28125 48.484375 27.875 48.484375 
Q 21.1875 48.484375 17.84375 46.4375 
Q 14.5 44.390625 14.5 40.28125 
Q 14.5 37.15625 16.890625 35.375 
Q 19.28125 33.59375 26.515625 31.984375 
L 29.59375 31.296875 
Q 39.15625 29.25 43.1875 25.515625 
Q 47.21875 21.78125 47.21875 15.09375 
Q 47.21875 7.46875 41.1875 3.015625 
Q 35.15625 -1.421875 24.609375 -1.421875 
Q 20.21875 -1.421875 15.453125 -0.5625 
Q 10.6875 0.296875 5.421875 2 
L 5.421875 11.28125 
Q 10.40625 8.6875 15.234375 7.390625 
Q 20.0625 6.109375 24.8125 6.109375 
Q 31.15625 6.109375 34.5625 8.28125 
Q 37.984375 10.453125 37.984375 14.40625 
Q 37.984375 18.0625 35.515625 20.015625 
Q 33.0625 21.96875 24.703125 23.78125 
L 21.578125 24.515625 
Q 13.234375 26.265625 9.515625 29.90625 
Q 5.8125 33.546875 5.8125 39.890625 
Q 5.8125 47.609375 11.28125 51.796875 
Q 16.75 56 26.8125 56 
Q 31.78125 56 36.171875 55.265625 
Q 40.578125 54.546875 44.28125 53.078125 
z
" id="DejaVuSans-115"/>
       <path d="M 31 75.875 
Q 24.46875 64.65625 21.28125 53.65625 
Q 18.109375 42.671875 18.109375 31.390625 
Q 18.109375 20.125 21.3125 9.0625 
Q 24.515625 -2 31 -13.1875 
L 23.1875 -13.1875 
Q 15.875 -1.703125 12.234375 9.375 
Q 8.59375 20.453125 8.59375 31.390625 
Q 8.59375 42.28125 12.203125 53.3125 
Q 15.828125 64.359375 23.1875 75.875 
z
" id="DejaVuSans-40"/>
       <path d="M 89.796875 33.015625 
L 83.40625 0 
L 74.421875 0 
L 80.71875 32.71875 
Q 81.109375 34.8125 81.296875 36.328125 
Q 81.5 37.84375 81.5 38.921875 
Q 81.5 43.3125 79.046875 45.75 
Q 76.609375 48.1875 72.21875 48.1875 
Q 65.671875 48.1875 60.546875 43.28125 
Q 55.421875 38.375 53.90625 30.515625 
L 47.90625 0 
L 38.921875 0 
L 45.3125 32.71875 
Q 45.703125 34.515625 45.890625 36.046875 
Q 46.09375 37.59375 46.09375 38.8125 
Q 46.09375 43.265625 43.65625 45.71875 
Q 41.21875 48.1875 36.921875 48.1875 
Q 30.28125 48.1875 25.140625 43.28125 
Q 20.015625 38.375 18.5 30.515625 
L 12.5 0 
L 3.515625 0 
L 14.203125 54.6875 
L 23.1875 54.6875 
L 21.484375 46.1875 
Q 25.140625 50.984375 30.046875 53.484375 
Q 34.96875 56 40.578125 56 
Q 46.53125 56 50.359375 52.875 
Q 54.203125 49.75 54.984375 44.1875 
Q 59.078125 49.953125 64.46875 52.96875 
Q 69.875 56 75.875 56 
Q 82.90625 56 86.734375 51.953125 
Q 90.578125 47.90625 90.578125 40.484375 
Q 90.578125 38.875 90.375 36.9375 
Q 90.1875 35.015625 89.796875 33.015625 
z
" id="DejaVuSans-Oblique-109"/>
       <path d="M 54.25 63.328125 
Q 49.953125 66.75 38.28125 66.75 
Q 25.921875 66.75 24.8125 61.03125 
Q 23.921875 56.546875 36.375 54.203125 
Q 46.140625 52.390625 50.828125 46.921875 
Q 56.5 40.328125 53.859375 26.8125 
Q 51.3125 13.875 43.171875 6.25 
Q 34.96875 -1.421875 23.25 -1.421875 
Q 11.578125 -1.421875 6.34375 6.25 
Q 1.125 13.875 3.765625 27.296875 
Q 5.671875 37.25 13.921875 45.3125 
Q 17.140625 48.4375 21.140625 50.203125 
Q 14.265625 54.046875 15.625 60.9375 
Q 18.21875 74.21875 39.75 74.21875 
Q 50.53125 74.21875 55.71875 70.796875 
z
M 27.390625 47.75 
Q 23.828125 46.34375 20.40625 42.78125 
Q 15.140625 37.25 13.234375 27.296875 
Q 11.28125 17.390625 14.359375 11.8125 
Q 17.484375 6.203125 24.75 6.203125 
Q 31.9375 6.203125 37.203125 11.859375 
Q 42.53125 17.53125 44.34375 26.8125 
Q 46.1875 36.53125 42.671875 41.21875 
Q 38.921875 46.234375 32.859375 46.78125 
Q 29.78125 47.078125 27.390625 47.75 
z
" id="DejaVuSans-Oblique-948"/>
       <path d="M 42.28125 54.6875 
L 40.921875 47.703125 
L 23 47.703125 
L 17.1875 18.015625 
Q 16.890625 16.359375 16.75 15.234375 
Q 16.609375 14.109375 16.609375 13.484375 
Q 16.609375 10.359375 18.484375 8.9375 
Q 20.359375 7.515625 24.515625 7.515625 
L 33.59375 7.515625 
L 32.078125 0 
L 23.484375 0 
Q 15.484375 0 11.546875 3.125 
Q 7.625 6.25 7.625 12.59375 
Q 7.625 13.71875 7.765625 15.0625 
Q 7.90625 16.40625 8.203125 18.015625 
L 14.015625 47.703125 
L 6.390625 47.703125 
L 7.8125 54.6875 
L 15.28125 54.6875 
L 18.3125 70.21875 
L 27.296875 70.21875 
L 24.3125 54.6875 
z
" id="DejaVuSans-Oblique-116"/>
       <path d="M 48.09375 32.234375 
Q 48.25 33.015625 48.3125 33.84375 
Q 48.390625 34.671875 48.390625 35.5 
Q 48.390625 41.453125 44.890625 44.921875 
Q 41.40625 48.390625 35.40625 48.390625 
Q 28.71875 48.390625 23.578125 44.15625 
Q 18.453125 39.9375 15.828125 32.171875 
z
M 55.90625 25.203125 
L 14.109375 25.203125 
Q 13.8125 23.34375 13.71875 22.265625 
Q 13.625 21.1875 13.625 20.40625 
Q 13.625 13.625 17.796875 9.90625 
Q 21.96875 6.203125 29.59375 6.203125 
Q 35.453125 6.203125 40.671875 7.515625 
Q 45.90625 8.84375 50.390625 11.375 
L 48.6875 2.484375 
Q 43.84375 0.53125 38.6875 -0.4375 
Q 33.546875 -1.421875 28.21875 -1.421875 
Q 16.84375 -1.421875 10.71875 4.015625 
Q 4.59375 9.46875 4.59375 19.484375 
Q 4.59375 28.03125 7.640625 35.375 
Q 10.6875 42.71875 16.609375 48.484375 
Q 20.40625 52.09375 25.65625 54.046875 
Q 30.90625 56 36.8125 56 
Q 46.09375 56 51.578125 50.4375 
Q 57.078125 44.875 57.078125 35.5 
Q 57.078125 33.25 56.78125 30.6875 
Q 56.5 28.125 55.90625 25.203125 
z
" id="DejaVuSans-Oblique-101"/>
       <path d="M 60.015625 54.6875 
L 34.90625 27.875 
L 50.296875 0 
L 39.984375 0 
L 28.421875 21.6875 
L 8.296875 0 
L -2.59375 0 
L 24.3125 28.8125 
L 10.015625 54.6875 
L 20.3125 54.6875 
L 30.8125 34.90625 
L 49.125 54.6875 
z
" id="DejaVuSans-Oblique-120"/>
       <path d="M 53.609375 52.59375 
L 51.8125 43.703125 
Q 48.578125 46.046875 44.9375 47.21875 
Q 41.3125 48.390625 37.40625 48.390625 
Q 33.109375 48.390625 29.21875 46.875 
Q 25.34375 45.359375 22.703125 42.578125 
Q 18.5 38.328125 16.203125 32.609375 
Q 13.921875 26.90625 13.921875 20.796875 
Q 13.921875 13.421875 17.609375 9.8125 
Q 21.296875 6.203125 28.8125 6.203125 
Q 32.515625 6.203125 36.6875 7.328125 
Q 40.875 8.453125 45.40625 10.6875 
L 43.703125 1.8125 
Q 39.796875 0.203125 35.671875 -0.609375 
Q 31.546875 -1.421875 27.203125 -1.421875 
Q 16.3125 -1.421875 10.453125 4.015625 
Q 4.59375 9.46875 4.59375 19.578125 
Q 4.59375 28.078125 7.640625 35.234375 
Q 10.6875 42.390625 16.703125 48.09375 
Q 20.796875 52 26.3125 54 
Q 31.84375 56 38.375 56 
Q 42.1875 56 45.9375 55.140625 
Q 49.703125 54.296875 53.609375 52.59375 
z
" id="DejaVuSans-Oblique-99"/>
       <path d="M 55.71875 33.015625 
L 49.3125 0 
L 40.28125 0 
L 46.6875 32.671875 
Q 47.125 34.96875 47.359375 36.71875 
Q 47.609375 38.484375 47.609375 39.5 
Q 47.609375 43.609375 45.015625 45.890625 
Q 42.4375 48.1875 37.796875 48.1875 
Q 30.5625 48.1875 25.265625 43.296875 
Q 19.96875 38.421875 18.40625 30.328125 
L 12.5 0 
L 3.515625 0 
L 18.3125 75.984375 
L 27.296875 75.984375 
L 21.484375 46.09375 
Q 24.90625 50.6875 30.21875 53.34375 
Q 35.546875 56 41.40625 56 
Q 48.640625 56 52.609375 52.09375 
Q 56.59375 48.1875 56.59375 41.109375 
Q 56.59375 39.359375 56.375 37.359375 
Q 56.15625 35.359375 55.71875 33.015625 
z
" id="DejaVuSans-Oblique-104"/>
       <path d="M 53.71875 31.203125 
L 47.609375 0 
L 38.625 0 
L 40.28125 8.296875 
Q 36.328125 3.421875 31.265625 1 
Q 26.21875 -1.421875 20.015625 -1.421875 
Q 13.03125 -1.421875 8.5625 2.84375 
Q 4.109375 7.125 4.109375 13.8125 
Q 4.109375 23.390625 11.75 28.953125 
Q 19.390625 34.515625 32.8125 34.515625 
L 45.3125 34.515625 
L 45.796875 36.921875 
Q 45.90625 37.3125 45.953125 37.765625 
Q 46 38.234375 46 39.203125 
Q 46 43.5625 42.453125 45.96875 
Q 38.921875 48.390625 32.515625 48.390625 
Q 28.125 48.390625 23.5 47.265625 
Q 18.890625 46.140625 14.015625 43.890625 
L 15.578125 52.203125 
Q 20.65625 54.109375 25.515625 55.046875 
Q 30.375 56 34.90625 56 
Q 44.578125 56 49.625 51.796875 
Q 54.6875 47.609375 54.6875 39.59375 
Q 54.6875 37.984375 54.4375 35.8125 
Q 54.203125 33.640625 53.71875 31.203125 
z
M 44 27.484375 
L 35.015625 27.484375 
Q 23.96875 27.484375 18.671875 24.53125 
Q 13.375 21.578125 13.375 15.375 
Q 13.375 11.078125 16.078125 8.640625 
Q 18.796875 6.203125 23.578125 6.203125 
Q 30.90625 6.203125 36.375 11.453125 
Q 41.84375 16.703125 43.609375 25.484375 
z
" id="DejaVuSans-Oblique-97"/>
       <path d="M 55.71875 33.015625 
L 49.3125 0 
L 40.28125 0 
L 46.6875 32.671875 
Q 47.125 34.96875 47.359375 36.71875 
Q 47.609375 38.484375 47.609375 39.5 
Q 47.609375 43.609375 45.015625 45.890625 
Q 42.4375 48.1875 37.796875 48.1875 
Q 30.5625 48.1875 25.34375 43.375 
Q 20.125 38.578125 18.5 30.328125 
L 12.5 0 
L 3.515625 0 
L 14.109375 54.6875 
L 23.09375 54.6875 
L 21.296875 46.09375 
Q 25.046875 50.828125 30.3125 53.40625 
Q 35.59375 56 41.40625 56 
Q 48.640625 56 52.609375 52.09375 
Q 56.59375 48.1875 56.59375 41.109375 
Q 56.59375 39.359375 56.375 37.359375 
Q 56.15625 35.359375 55.71875 33.015625 
z
" id="DejaVuSans-Oblique-110"/>
       <path d="M 59.625 54.6875 
L 50.296875 6.78125 
Q 47.609375 -7.125 40.015625 -13.953125 
Q 32.421875 -20.796875 19.578125 -20.796875 
Q 14.84375 -20.796875 10.78125 -20.09375 
Q 6.734375 -19.390625 3.21875 -17.921875 
L 4.890625 -9.1875 
Q 8.203125 -11.328125 11.90625 -12.34375 
Q 15.625 -13.375 19.828125 -13.375 
Q 28.375 -13.375 33.859375 -8.703125 
Q 39.359375 -4.046875 41.109375 4.6875 
L 41.890625 8.796875 
Q 38.140625 4.5 33.15625 2.25 
Q 28.171875 0 22.40625 0 
Q 14.109375 0 9.34375 5.484375 
Q 4.59375 10.984375 4.59375 20.609375 
Q 4.59375 28.171875 7.46875 35.421875 
Q 10.359375 42.671875 15.578125 48.296875 
Q 19.046875 52 23.65625 54 
Q 28.265625 56 33.296875 56 
Q 38.8125 56 42.90625 53.4375 
Q 47.015625 50.875 49.03125 46.1875 
L 50.59375 54.6875 
z
M 46.09375 34.625 
Q 46.09375 41.265625 42.96875 44.875 
Q 39.84375 48.484375 34.078125 48.484375 
Q 30.515625 48.484375 27.296875 47.0625 
Q 24.078125 45.65625 21.78125 43.109375 
Q 18.0625 38.921875 15.984375 33.234375 
Q 13.921875 27.546875 13.921875 21.484375 
Q 13.921875 14.75 17.0625 11.125 
Q 20.21875 7.515625 26.125 7.515625 
Q 34.671875 7.515625 40.375 15.25 
Q 46.09375 23 46.09375 34.625 
z
" id="DejaVuSans-Oblique-103"/>
       <path d="M 8.015625 75.875 
L 15.828125 75.875 
Q 23.140625 64.359375 26.78125 53.3125 
Q 30.421875 42.28125 30.421875 31.390625 
Q 30.421875 20.453125 26.78125 9.375 
Q 23.140625 -1.703125 15.828125 -13.1875 
L 8.015625 -13.1875 
Q 14.5 -2 17.703125 9.0625 
Q 20.90625 20.125 20.90625 31.390625 
Q 20.90625 42.671875 17.703125 53.65625 
Q 14.5 64.65625 8.015625 75.875 
z
" id="DejaVuSans-41"/>
      </defs>
      <use transform="translate(0 0.765625)" xlink:href="#DejaVuSans-83"/>
      <use transform="translate(63.476562 0.765625)" xlink:href="#DejaVuSans-87"/>
      <use transform="translate(162.353516 0.765625)" xlink:href="#DejaVuSans-32"/>
      <use transform="translate(194.140625 0.765625)" xlink:href="#DejaVuSans-105"/>
      <use transform="translate(221.923828 0.765625)" xlink:href="#DejaVuSans-110"/>
      <use transform="translate(285.302734 0.765625)" xlink:href="#DejaVuSans-45"/>
      <use transform="translate(321.386719 0.765625)" xlink:href="#DejaVuSans-47"/>
      <use transform="translate(355.078125 0.765625)" xlink:href="#DejaVuSans-111"/>
      <use transform="translate(416.259766 0.765625)" xlink:href="#DejaVuSans-117"/>
      <use transform="translate(479.638672 0.765625)" xlink:href="#DejaVuSans-116"/>
      <use transform="translate(518.847656 0.765625)" xlink:href="#DejaVuSans-45"/>
      <use transform="translate(554.931641 0.765625)" xlink:href="#DejaVuSans-102"/>
      <use transform="translate(590.136719 0.765625)" xlink:href="#DejaVuSans-108"/>
      <use transform="translate(617.919922 0.765625)" xlink:href="#DejaVuSans-117"/>
      <use transform="translate(681.298828 0.765625)" xlink:href="#DejaVuSans-120"/>
      <use transform="translate(740.478516 0.765625)" xlink:href="#DejaVuSans-101"/>
      <use transform="translate(802.001953 0.765625)" xlink:href="#DejaVuSans-115"/>
      <use transform="translate(854.101562 0.765625)" xlink:href="#DejaVuSans-32"/>
      <use transform="translate(885.888672 0.765625)" xlink:href="#DejaVuSans-40"/>
      <use transform="translate(924.902344 0.765625)" xlink:href="#DejaVuSans-Oblique-109"/>
      <use transform="translate(1026.964349 39.046875)scale(0.7)" xlink:href="#DejaVuSans-51"/>
      <use transform="translate(1074.234857 0.765625)" xlink:href="#DejaVuSans-47"/>
      <use transform="translate(1107.926263 0.765625)" xlink:href="#DejaVuSans-Oblique-948"/>
      <use transform="translate(1169.107904 0.765625)" xlink:href="#DejaVuSans-Oblique-116"/>
      <use transform="translate(1208.316888 -15.640625)scale(0.7)" xlink:href="#DejaVuSans-Oblique-101"/>
      <use transform="translate(1251.383294 -15.640625)scale(0.7)" xlink:href="#DejaVuSans-Oblique-120"/>
      <use transform="translate(1292.809076 -15.640625)scale(0.7)" xlink:href="#DejaVuSans-Oblique-99"/>
      <use transform="translate(1331.295404 -15.640625)scale(0.7)" xlink:href="#DejaVuSans-Oblique-104"/>
      <use transform="translate(1375.660638 -15.640625)scale(0.7)" xlink:href="#DejaVuSans-Oblique-97"/>
      <use transform="translate(1418.556146 -15.640625)scale(0.7)" xlink:href="#DejaVuSans-Oblique-110"/>
      <use transform="translate(1462.92138 -15.640625)scale(0.7)" xlink:href="#DejaVuSans-Oblique-103"/>
      <use transform="translate(1507.354974 -15.640625)scale(0.7)" xlink:href="#DejaVuSans-Oblique-101"/>
      <use transform="translate(1553.155755 0.765625)" xlink:href="#DejaVuSans-41"/>
     </g>
    </g>
    <g id="line2d_22">
     <path d="M 202.454688 277.043363 
L 222.454688 277.043363 
" style="fill:none;stroke:#ff6600;stroke-linecap:square;stroke-width:0.75;"/>
    </g>
    <g id="line2d_23"/>
    <g id="text_19">
     <!-- evapotranspiration outflux ($m^3$/$\delta t_{exchange}$) -->
     <g transform="translate(230.454688 280.543363)scale(0.1 -0.1)">
      <defs>
       <path d="M 2.984375 54.6875 
L 12.5 54.6875 
L 29.59375 8.796875 
L 46.6875 54.6875 
L 56.203125 54.6875 
L 35.6875 0 
L 23.484375 0 
z
" id="DejaVuSans-118"/>
       <path d="M 34.28125 27.484375 
Q 23.390625 27.484375 19.1875 25 
Q 14.984375 22.515625 14.984375 16.5 
Q 14.984375 11.71875 18.140625 8.90625 
Q 21.296875 6.109375 26.703125 6.109375 
Q 34.1875 6.109375 38.703125 11.40625 
Q 43.21875 16.703125 43.21875 25.484375 
L 43.21875 27.484375 
z
M 52.203125 31.203125 
L 52.203125 0 
L 43.21875 0 
L 43.21875 8.296875 
Q 40.140625 3.328125 35.546875 0.953125 
Q 30.953125 -1.421875 24.3125 -1.421875 
Q 15.921875 -1.421875 10.953125 3.296875 
Q 6 8.015625 6 15.921875 
Q 6 25.140625 12.171875 29.828125 
Q 18.359375 34.515625 30.609375 34.515625 
L 43.21875 34.515625 
L 43.21875 35.40625 
Q 43.21875 41.609375 39.140625 45 
Q 35.0625 48.390625 27.6875 48.390625 
Q 23 48.390625 18.546875 47.265625 
Q 14.109375 46.140625 10.015625 43.890625 
L 10.015625 52.203125 
Q 14.9375 54.109375 19.578125 55.046875 
Q 24.21875 56 28.609375 56 
Q 40.484375 56 46.34375 49.84375 
Q 52.203125 43.703125 52.203125 31.203125 
z
" id="DejaVuSans-97"/>
       <path d="M 18.109375 8.203125 
L 18.109375 -20.796875 
L 9.078125 -20.796875 
L 9.078125 54.6875 
L 18.109375 54.6875 
L 18.109375 46.390625 
Q 20.953125 51.265625 25.265625 53.625 
Q 29.59375 56 35.59375 56 
Q 45.5625 56 51.78125 48.09375 
Q 58.015625 40.1875 58.015625 27.296875 
Q 58.015625 14.40625 51.78125 6.484375 
Q 45.5625 -1.421875 35.59375 -1.421875 
Q 29.59375 -1.421875 25.265625 0.953125 
Q 20.953125 3.328125 18.109375 8.203125 
z
M 48.6875 27.296875 
Q 48.6875 37.203125 44.609375 42.84375 
Q 40.53125 48.484375 33.40625 48.484375 
Q 26.265625 48.484375 22.1875 42.84375 
Q 18.109375 37.203125 18.109375 27.296875 
Q 18.109375 17.390625 22.1875 11.75 
Q 26.265625 6.109375 33.40625 6.109375 
Q 40.53125 6.109375 44.609375 11.75 
Q 48.6875 17.390625 48.6875 27.296875 
z
" id="DejaVuSans-112"/>
       <path d="M 41.109375 46.296875 
Q 39.59375 47.171875 37.8125 47.578125 
Q 36.03125 48 33.890625 48 
Q 26.265625 48 22.1875 43.046875 
Q 18.109375 38.09375 18.109375 28.8125 
L 18.109375 0 
L 9.078125 0 
L 9.078125 54.6875 
L 18.109375 54.6875 
L 18.109375 46.1875 
Q 20.953125 51.171875 25.484375 53.578125 
Q 30.03125 56 36.53125 56 
Q 37.453125 56 38.578125 55.875 
Q 39.703125 55.765625 41.0625 55.515625 
z
" id="DejaVuSans-114"/>
      </defs>
      <use transform="translate(0 0.765625)" xlink:href="#DejaVuSans-101"/>
      <use transform="translate(61.523438 0.765625)" xlink:href="#DejaVuSans-118"/>
      <use transform="translate(120.703125 0.765625)" xlink:href="#DejaVuSans-97"/>
      <use transform="translate(181.982422 0.765625)" xlink:href="#DejaVuSans-112"/>
      <use transform="translate(245.458984 0.765625)" xlink:href="#DejaVuSans-111"/>
      <use transform="translate(306.640625 0.765625)" xlink:href="#DejaVuSans-116"/>
      <use transform="translate(345.849609 0.765625)" xlink:href="#DejaVuSans-114"/>
      <use transform="translate(386.962891 0.765625)" xlink:href="#DejaVuSans-97"/>
      <use transform="translate(448.242188 0.765625)" xlink:href="#DejaVuSans-110"/>
      <use transform="translate(511.621094 0.765625)" xlink:href="#DejaVuSans-115"/>
      <use transform="translate(563.720703 0.765625)" xlink:href="#DejaVuSans-112"/>
      <use transform="translate(627.197266 0.765625)" xlink:href="#DejaVuSans-105"/>
      <use transform="translate(654.980469 0.765625)" xlink:href="#DejaVuSans-114"/>
      <use transform="translate(696.09375 0.765625)" xlink:href="#DejaVuSans-97"/>
      <use transform="translate(757.373047 0.765625)" xlink:href="#DejaVuSans-116"/>
      <use transform="translate(796.582031 0.765625)" xlink:href="#DejaVuSans-105"/>
      <use transform="translate(824.365234 0.765625)" xlink:href="#DejaVuSans-111"/>
      <use transform="translate(885.546875 0.765625)" xlink:href="#DejaVuSans-110"/>
      <use transform="translate(948.925781 0.765625)" xlink:href="#DejaVuSans-32"/>
      <use transform="translate(980.712891 0.765625)" xlink:href="#DejaVuSans-111"/>
      <use transform="translate(1041.894531 0.765625)" xlink:href="#DejaVuSans-117"/>
      <use transform="translate(1105.273438 0.765625)" xlink:href="#DejaVuSans-116"/>
      <use transform="translate(1144.482422 0.765625)" xlink:href="#DejaVuSans-102"/>
      <use transform="translate(1179.6875 0.765625)" xlink:href="#DejaVuSans-108"/>
      <use transform="translate(1207.470703 0.765625)" xlink:href="#DejaVuSans-117"/>
      <use transform="translate(1270.849609 0.765625)" xlink:href="#DejaVuSans-120"/>
      <use transform="translate(1330.029297 0.765625)" xlink:href="#DejaVuSans-32"/>
      <use transform="translate(1361.816406 0.765625)" xlink:href="#DejaVuSans-40"/>
      <use transform="translate(1400.830078 0.765625)" xlink:href="#DejaVuSans-Oblique-109"/>
      <use transform="translate(1502.892083 39.046875)scale(0.7)" xlink:href="#DejaVuSans-51"/>
      <use transform="translate(1550.162591 0.765625)" xlink:href="#DejaVuSans-47"/>
      <use transform="translate(1583.853997 0.765625)" xlink:href="#DejaVuSans-Oblique-948"/>
      <use transform="translate(1645.035638 0.765625)" xlink:href="#DejaVuSans-Oblique-116"/>
      <use transform="translate(1684.244622 -15.640625)scale(0.7)" xlink:href="#DejaVuSans-Oblique-101"/>
      <use transform="translate(1727.311029 -15.640625)scale(0.7)" xlink:href="#DejaVuSans-Oblique-120"/>
      <use transform="translate(1768.73681 -15.640625)scale(0.7)" xlink:href="#DejaVuSans-Oblique-99"/>
      <use transform="translate(1807.223138 -15.640625)scale(0.7)" xlink:href="#DejaVuSans-Oblique-104"/>
      <use transform="translate(1851.588372 -15.640625)scale(0.7)" xlink:href="#DejaVuSans-Oblique-97"/>
      <use transform="translate(1894.48388 -15.640625)scale(0.7)" xlink:href="#DejaVuSans-Oblique-110"/>
      <use transform="translate(1938.849115 -15.640625)scale(0.7)" xlink:href="#DejaVuSans-Oblique-103"/>
      <use transform="translate(1983.282708 -15.640625)scale(0.7)" xlink:href="#DejaVuSans-Oblique-101"/>
      <use transform="translate(2029.08349 0.765625)" xlink:href="#DejaVuSans-41"/>
     </g>
    </g>
   </g>
  </g>
 </g>
 <defs>
  <clipPath id="p2ca4360156">
   <rect height="283.726019" width="411.05" x="35.304688" y="8.917344"/>
  </clipPath>
 </defs>
</svg>
