<?xml version="1.0" encoding="utf-8" standalone="no"?>
<!DOCTYPE svg PUBLIC "-//W3C//DTD SVG 1.1//EN"
  "http://www.w3.org/Graphics/SVG/1.1/DTD/svg11.dtd">
<!-- Created with matplotlib (https://matplotlib.org/) -->
<svg height="338.067279pt" version="1.1" viewBox="0 0 453.554687 338.067279" width="453.554687pt" xmlns="http://www.w3.org/2000/svg" xmlns:xlink="http://www.w3.org/1999/xlink">
 <metadata>
  <rdf:RDF xmlns:cc="http://creativecommons.org/ns#" xmlns:dc="http://purl.org/dc/elements/1.1/" xmlns:rdf="http://www.w3.org/1999/02/22-rdf-syntax-ns#">
   <cc:Work>
    <dc:type rdf:resource="http://purl.org/dc/dcmitype/StillImage"/>
    <dc:date>2021-04-19T19:46:58.390503</dc:date>
    <dc:format>image/svg+xml</dc:format>
    <dc:creator>
     <cc:Agent>
      <dc:title>Matplotlib v3.3.2, https://matplotlib.org/</dc:title>
     </cc:Agent>
    </dc:creator>
   </cc:Work>
  </rdf:RDF>
 </metadata>
 <defs>
  <style type="text/css">*{stroke-linecap:butt;stroke-linejoin:round;}</style>
 </defs>
 <g id="figure_1">
  <g id="patch_1">
   <path d="M 0 338.067279 
L 453.554687 338.067279 
L 453.554687 0 
L 0 0 
z
" style="fill:#ffffff;"/>
  </g>
  <g id="axes_1">
   <g id="patch_2">
    <path d="M 35.304688 292.790464 
L 446.354687 292.790464 
L 446.354687 7.2 
L 35.304688 7.2 
z
" style="fill:#ffffff;"/>
   </g>
   <g id="matplotlib.axis_1">
    <g id="xtick_1">
     <g id="line2d_1">
      <defs>
       <path d="M 0 0 
L 0 3.5 
" id="mc921f0bb9c" style="stroke:#000000;stroke-width:0.8;"/>
      </defs>
      <g>
       <use style="stroke:#000000;stroke-width:0.8;" x="53.988778" xlink:href="#mc921f0bb9c" y="292.790464"/>
      </g>
     </g>
     <g id="text_1">
      <!-- 01-05-20 -->
      <g transform="translate(13.6395 329.066216)rotate(-30)scale(0.1 -0.1)">
       <defs>
        <path d="M 31.78125 66.40625 
Q 24.171875 66.40625 20.328125 58.90625 
Q 16.5 51.421875 16.5 36.375 
Q 16.5 21.390625 20.328125 13.890625 
Q 24.171875 6.390625 31.78125 6.390625 
Q 39.453125 6.390625 43.28125 13.890625 
Q 47.125 21.390625 47.125 36.375 
Q 47.125 51.421875 43.28125 58.90625 
Q 39.453125 66.40625 31.78125 66.40625 
z
M 31.78125 74.21875 
Q 44.046875 74.21875 50.515625 64.515625 
Q 56.984375 54.828125 56.984375 36.375 
Q 56.984375 17.96875 50.515625 8.265625 
Q 44.046875 -1.421875 31.78125 -1.421875 
Q 19.53125 -1.421875 13.0625 8.265625 
Q 6.59375 17.96875 6.59375 36.375 
Q 6.59375 54.828125 13.0625 64.515625 
Q 19.53125 74.21875 31.78125 74.21875 
z
" id="DejaVuSans-48"/>
        <path d="M 12.40625 8.296875 
L 28.515625 8.296875 
L 28.515625 63.921875 
L 10.984375 60.40625 
L 10.984375 69.390625 
L 28.421875 72.90625 
L 38.28125 72.90625 
L 38.28125 8.296875 
L 54.390625 8.296875 
L 54.390625 0 
L 12.40625 0 
z
" id="DejaVuSans-49"/>
        <path d="M 4.890625 31.390625 
L 31.203125 31.390625 
L 31.203125 23.390625 
L 4.890625 23.390625 
z
" id="DejaVuSans-45"/>
        <path d="M 10.796875 72.90625 
L 49.515625 72.90625 
L 49.515625 64.59375 
L 19.828125 64.59375 
L 19.828125 46.734375 
Q 21.96875 47.46875 24.109375 47.828125 
Q 26.265625 48.1875 28.421875 48.1875 
Q 40.625 48.1875 47.75 41.5 
Q 54.890625 34.8125 54.890625 23.390625 
Q 54.890625 11.625 47.5625 5.09375 
Q 40.234375 -1.421875 26.90625 -1.421875 
Q 22.3125 -1.421875 17.546875 -0.640625 
Q 12.796875 0.140625 7.71875 1.703125 
L 7.71875 11.625 
Q 12.109375 9.234375 16.796875 8.0625 
Q 21.484375 6.890625 26.703125 6.890625 
Q 35.15625 6.890625 40.078125 11.328125 
Q 45.015625 15.765625 45.015625 23.390625 
Q 45.015625 31 40.078125 35.4375 
Q 35.15625 39.890625 26.703125 39.890625 
Q 22.75 39.890625 18.8125 39.015625 
Q 14.890625 38.140625 10.796875 36.28125 
z
" id="DejaVuSans-53"/>
        <path d="M 19.1875 8.296875 
L 53.609375 8.296875 
L 53.609375 0 
L 7.328125 0 
L 7.328125 8.296875 
Q 12.9375 14.109375 22.625 23.890625 
Q 32.328125 33.6875 34.8125 36.53125 
Q 39.546875 41.84375 41.421875 45.53125 
Q 43.3125 49.21875 43.3125 52.78125 
Q 43.3125 58.59375 39.234375 62.25 
Q 35.15625 65.921875 28.609375 65.921875 
Q 23.96875 65.921875 18.8125 64.3125 
Q 13.671875 62.703125 7.8125 59.421875 
L 7.8125 69.390625 
Q 13.765625 71.78125 18.9375 73 
Q 24.125 74.21875 28.421875 74.21875 
Q 39.75 74.21875 46.484375 68.546875 
Q 53.21875 62.890625 53.21875 53.421875 
Q 53.21875 48.921875 51.53125 44.890625 
Q 49.859375 40.875 45.40625 35.40625 
Q 44.1875 33.984375 37.640625 27.21875 
Q 31.109375 20.453125 19.1875 8.296875 
z
" id="DejaVuSans-50"/>
       </defs>
       <use xlink:href="#DejaVuSans-48"/>
       <use x="63.623047" xlink:href="#DejaVuSans-49"/>
       <use x="127.246094" xlink:href="#DejaVuSans-45"/>
       <use x="163.330078" xlink:href="#DejaVuSans-48"/>
       <use x="226.953125" xlink:href="#DejaVuSans-53"/>
       <use x="290.576172" xlink:href="#DejaVuSans-45"/>
       <use x="326.660156" xlink:href="#DejaVuSans-50"/>
       <use x="390.283203" xlink:href="#DejaVuSans-48"/>
      </g>
     </g>
    </g>
    <g id="xtick_2">
     <g id="line2d_2">
      <g>
       <use style="stroke:#000000;stroke-width:0.8;" x="102.205787" xlink:href="#mc921f0bb9c" y="292.790464"/>
      </g>
     </g>
     <g id="text_2">
      <!-- 05-05-20 -->
      <g transform="translate(61.856509 329.066216)rotate(-30)scale(0.1 -0.1)">
       <use xlink:href="#DejaVuSans-48"/>
       <use x="63.623047" xlink:href="#DejaVuSans-53"/>
       <use x="127.246094" xlink:href="#DejaVuSans-45"/>
       <use x="163.330078" xlink:href="#DejaVuSans-48"/>
       <use x="226.953125" xlink:href="#DejaVuSans-53"/>
       <use x="290.576172" xlink:href="#DejaVuSans-45"/>
       <use x="326.660156" xlink:href="#DejaVuSans-50"/>
       <use x="390.283203" xlink:href="#DejaVuSans-48"/>
      </g>
     </g>
    </g>
    <g id="xtick_3">
     <g id="line2d_3">
      <g>
       <use style="stroke:#000000;stroke-width:0.8;" x="150.422796" xlink:href="#mc921f0bb9c" y="292.790464"/>
      </g>
     </g>
     <g id="text_3">
      <!-- 09-05-20 -->
      <g transform="translate(110.073518 329.066216)rotate(-30)scale(0.1 -0.1)">
       <defs>
        <path d="M 10.984375 1.515625 
L 10.984375 10.5 
Q 14.703125 8.734375 18.5 7.8125 
Q 22.3125 6.890625 25.984375 6.890625 
Q 35.75 6.890625 40.890625 13.453125 
Q 46.046875 20.015625 46.78125 33.40625 
Q 43.953125 29.203125 39.59375 26.953125 
Q 35.25 24.703125 29.984375 24.703125 
Q 19.046875 24.703125 12.671875 31.3125 
Q 6.296875 37.9375 6.296875 49.421875 
Q 6.296875 60.640625 12.9375 67.421875 
Q 19.578125 74.21875 30.609375 74.21875 
Q 43.265625 74.21875 49.921875 64.515625 
Q 56.59375 54.828125 56.59375 36.375 
Q 56.59375 19.140625 48.40625 8.859375 
Q 40.234375 -1.421875 26.421875 -1.421875 
Q 22.703125 -1.421875 18.890625 -0.6875 
Q 15.09375 0.046875 10.984375 1.515625 
z
M 30.609375 32.421875 
Q 37.25 32.421875 41.125 36.953125 
Q 45.015625 41.5 45.015625 49.421875 
Q 45.015625 57.28125 41.125 61.84375 
Q 37.25 66.40625 30.609375 66.40625 
Q 23.96875 66.40625 20.09375 61.84375 
Q 16.21875 57.28125 16.21875 49.421875 
Q 16.21875 41.5 20.09375 36.953125 
Q 23.96875 32.421875 30.609375 32.421875 
z
" id="DejaVuSans-57"/>
       </defs>
       <use xlink:href="#DejaVuSans-48"/>
       <use x="63.623047" xlink:href="#DejaVuSans-57"/>
       <use x="127.246094" xlink:href="#DejaVuSans-45"/>
       <use x="163.330078" xlink:href="#DejaVuSans-48"/>
       <use x="226.953125" xlink:href="#DejaVuSans-53"/>
       <use x="290.576172" xlink:href="#DejaVuSans-45"/>
       <use x="326.660156" xlink:href="#DejaVuSans-50"/>
       <use x="390.283203" xlink:href="#DejaVuSans-48"/>
      </g>
     </g>
    </g>
    <g id="xtick_4">
     <g id="line2d_4">
      <g>
       <use style="stroke:#000000;stroke-width:0.8;" x="198.639805" xlink:href="#mc921f0bb9c" y="292.790464"/>
      </g>
     </g>
     <g id="text_4">
      <!-- 13-05-20 -->
      <g transform="translate(158.290527 329.066216)rotate(-30)scale(0.1 -0.1)">
       <defs>
        <path d="M 40.578125 39.3125 
Q 47.65625 37.796875 51.625 33 
Q 55.609375 28.21875 55.609375 21.1875 
Q 55.609375 10.40625 48.1875 4.484375 
Q 40.765625 -1.421875 27.09375 -1.421875 
Q 22.515625 -1.421875 17.65625 -0.515625 
Q 12.796875 0.390625 7.625 2.203125 
L 7.625 11.71875 
Q 11.71875 9.328125 16.59375 8.109375 
Q 21.484375 6.890625 26.8125 6.890625 
Q 36.078125 6.890625 40.9375 10.546875 
Q 45.796875 14.203125 45.796875 21.1875 
Q 45.796875 27.640625 41.28125 31.265625 
Q 36.765625 34.90625 28.71875 34.90625 
L 20.21875 34.90625 
L 20.21875 43.015625 
L 29.109375 43.015625 
Q 36.375 43.015625 40.234375 45.921875 
Q 44.09375 48.828125 44.09375 54.296875 
Q 44.09375 59.90625 40.109375 62.90625 
Q 36.140625 65.921875 28.71875 65.921875 
Q 24.65625 65.921875 20.015625 65.03125 
Q 15.375 64.15625 9.8125 62.3125 
L 9.8125 71.09375 
Q 15.4375 72.65625 20.34375 73.4375 
Q 25.25 74.21875 29.59375 74.21875 
Q 40.828125 74.21875 47.359375 69.109375 
Q 53.90625 64.015625 53.90625 55.328125 
Q 53.90625 49.265625 50.4375 45.09375 
Q 46.96875 40.921875 40.578125 39.3125 
z
" id="DejaVuSans-51"/>
       </defs>
       <use xlink:href="#DejaVuSans-49"/>
       <use x="63.623047" xlink:href="#DejaVuSans-51"/>
       <use x="127.246094" xlink:href="#DejaVuSans-45"/>
       <use x="163.330078" xlink:href="#DejaVuSans-48"/>
       <use x="226.953125" xlink:href="#DejaVuSans-53"/>
       <use x="290.576172" xlink:href="#DejaVuSans-45"/>
       <use x="326.660156" xlink:href="#DejaVuSans-50"/>
       <use x="390.283203" xlink:href="#DejaVuSans-48"/>
      </g>
     </g>
    </g>
    <g id="xtick_5">
     <g id="line2d_5">
      <g>
       <use style="stroke:#000000;stroke-width:0.8;" x="246.856814" xlink:href="#mc921f0bb9c" y="292.790464"/>
      </g>
     </g>
     <g id="text_5">
      <!-- 17-05-20 -->
      <g transform="translate(206.507536 329.066216)rotate(-30)scale(0.1 -0.1)">
       <defs>
        <path d="M 8.203125 72.90625 
L 55.078125 72.90625 
L 55.078125 68.703125 
L 28.609375 0 
L 18.3125 0 
L 43.21875 64.59375 
L 8.203125 64.59375 
z
" id="DejaVuSans-55"/>
       </defs>
       <use xlink:href="#DejaVuSans-49"/>
       <use x="63.623047" xlink:href="#DejaVuSans-55"/>
       <use x="127.246094" xlink:href="#DejaVuSans-45"/>
       <use x="163.330078" xlink:href="#DejaVuSans-48"/>
       <use x="226.953125" xlink:href="#DejaVuSans-53"/>
       <use x="290.576172" xlink:href="#DejaVuSans-45"/>
       <use x="326.660156" xlink:href="#DejaVuSans-50"/>
       <use x="390.283203" xlink:href="#DejaVuSans-48"/>
      </g>
     </g>
    </g>
    <g id="xtick_6">
     <g id="line2d_6">
      <g>
       <use style="stroke:#000000;stroke-width:0.8;" x="295.073822" xlink:href="#mc921f0bb9c" y="292.790464"/>
      </g>
     </g>
     <g id="text_6">
      <!-- 21-05-20 -->
      <g transform="translate(254.724544 329.066216)rotate(-30)scale(0.1 -0.1)">
       <use xlink:href="#DejaVuSans-50"/>
       <use x="63.623047" xlink:href="#DejaVuSans-49"/>
       <use x="127.246094" xlink:href="#DejaVuSans-45"/>
       <use x="163.330078" xlink:href="#DejaVuSans-48"/>
       <use x="226.953125" xlink:href="#DejaVuSans-53"/>
       <use x="290.576172" xlink:href="#DejaVuSans-45"/>
       <use x="326.660156" xlink:href="#DejaVuSans-50"/>
       <use x="390.283203" xlink:href="#DejaVuSans-48"/>
      </g>
     </g>
    </g>
    <g id="xtick_7">
     <g id="line2d_7">
      <g>
       <use style="stroke:#000000;stroke-width:0.8;" x="343.290831" xlink:href="#mc921f0bb9c" y="292.790464"/>
      </g>
     </g>
     <g id="text_7">
      <!-- 25-05-20 -->
      <g transform="translate(302.941553 329.066216)rotate(-30)scale(0.1 -0.1)">
       <use xlink:href="#DejaVuSans-50"/>
       <use x="63.623047" xlink:href="#DejaVuSans-53"/>
       <use x="127.246094" xlink:href="#DejaVuSans-45"/>
       <use x="163.330078" xlink:href="#DejaVuSans-48"/>
       <use x="226.953125" xlink:href="#DejaVuSans-53"/>
       <use x="290.576172" xlink:href="#DejaVuSans-45"/>
       <use x="326.660156" xlink:href="#DejaVuSans-50"/>
       <use x="390.283203" xlink:href="#DejaVuSans-48"/>
      </g>
     </g>
    </g>
    <g id="xtick_8">
     <g id="line2d_8">
      <g>
       <use style="stroke:#000000;stroke-width:0.8;" x="391.50784" xlink:href="#mc921f0bb9c" y="292.790464"/>
      </g>
     </g>
     <g id="text_8">
      <!-- 29-05-20 -->
      <g transform="translate(351.158562 329.066216)rotate(-30)scale(0.1 -0.1)">
       <use xlink:href="#DejaVuSans-50"/>
       <use x="63.623047" xlink:href="#DejaVuSans-57"/>
       <use x="127.246094" xlink:href="#DejaVuSans-45"/>
       <use x="163.330078" xlink:href="#DejaVuSans-48"/>
       <use x="226.953125" xlink:href="#DejaVuSans-53"/>
       <use x="290.576172" xlink:href="#DejaVuSans-45"/>
       <use x="326.660156" xlink:href="#DejaVuSans-50"/>
       <use x="390.283203" xlink:href="#DejaVuSans-48"/>
      </g>
     </g>
    </g>
    <g id="xtick_9">
     <g id="line2d_9">
      <g>
       <use style="stroke:#000000;stroke-width:0.8;" x="427.670597" xlink:href="#mc921f0bb9c" y="292.790464"/>
      </g>
     </g>
     <g id="text_9">
      <!-- 01-06-20 -->
      <g transform="translate(387.321318 329.066216)rotate(-30)scale(0.1 -0.1)">
       <defs>
        <path d="M 33.015625 40.375 
Q 26.375 40.375 22.484375 35.828125 
Q 18.609375 31.296875 18.609375 23.390625 
Q 18.609375 15.53125 22.484375 10.953125 
Q 26.375 6.390625 33.015625 6.390625 
Q 39.65625 6.390625 43.53125 10.953125 
Q 47.40625 15.53125 47.40625 23.390625 
Q 47.40625 31.296875 43.53125 35.828125 
Q 39.65625 40.375 33.015625 40.375 
z
M 52.59375 71.296875 
L 52.59375 62.3125 
Q 48.875 64.0625 45.09375 64.984375 
Q 41.3125 65.921875 37.59375 65.921875 
Q 27.828125 65.921875 22.671875 59.328125 
Q 17.53125 52.734375 16.796875 39.40625 
Q 19.671875 43.65625 24.015625 45.921875 
Q 28.375 48.1875 33.59375 48.1875 
Q 44.578125 48.1875 50.953125 41.515625 
Q 57.328125 34.859375 57.328125 23.390625 
Q 57.328125 12.15625 50.6875 5.359375 
Q 44.046875 -1.421875 33.015625 -1.421875 
Q 20.359375 -1.421875 13.671875 8.265625 
Q 6.984375 17.96875 6.984375 36.375 
Q 6.984375 53.65625 15.1875 63.9375 
Q 23.390625 74.21875 37.203125 74.21875 
Q 40.921875 74.21875 44.703125 73.484375 
Q 48.484375 72.75 52.59375 71.296875 
z
" id="DejaVuSans-54"/>
       </defs>
       <use xlink:href="#DejaVuSans-48"/>
       <use x="63.623047" xlink:href="#DejaVuSans-49"/>
       <use x="127.246094" xlink:href="#DejaVuSans-45"/>
       <use x="163.330078" xlink:href="#DejaVuSans-48"/>
       <use x="226.953125" xlink:href="#DejaVuSans-54"/>
       <use x="290.576172" xlink:href="#DejaVuSans-45"/>
       <use x="326.660156" xlink:href="#DejaVuSans-50"/>
       <use x="390.283203" xlink:href="#DejaVuSans-48"/>
      </g>
     </g>
    </g>
   </g>
   <g id="matplotlib.axis_2">
    <g id="ytick_1">
     <g id="line2d_10">
      <defs>
       <path d="M 0 0 
L -3.5 0 
" id="m10a8397c20" style="stroke:#000000;stroke-width:0.8;"/>
      </defs>
      <g>
       <use style="stroke:#000000;stroke-width:0.8;" x="35.304688" xlink:href="#m10a8397c20" y="280.212224"/>
      </g>
     </g>
     <g id="text_10">
      <!-- −40 -->
      <g transform="translate(7.2 284.011443)scale(0.1 -0.1)">
       <defs>
        <path d="M 10.59375 35.5 
L 73.1875 35.5 
L 73.1875 27.203125 
L 10.59375 27.203125 
z
" id="DejaVuSans-8722"/>
        <path d="M 37.796875 64.3125 
L 12.890625 25.390625 
L 37.796875 25.390625 
z
M 35.203125 72.90625 
L 47.609375 72.90625 
L 47.609375 25.390625 
L 58.015625 25.390625 
L 58.015625 17.1875 
L 47.609375 17.1875 
L 47.609375 0 
L 37.796875 0 
L 37.796875 17.1875 
L 4.890625 17.1875 
L 4.890625 26.703125 
z
" id="DejaVuSans-52"/>
       </defs>
       <use xlink:href="#DejaVuSans-8722"/>
       <use x="83.789062" xlink:href="#DejaVuSans-52"/>
       <use x="147.412109" xlink:href="#DejaVuSans-48"/>
      </g>
     </g>
    </g>
    <g id="ytick_2">
     <g id="line2d_11">
      <g>
       <use style="stroke:#000000;stroke-width:0.8;" x="35.304688" xlink:href="#m10a8397c20" y="240.890883"/>
      </g>
     </g>
     <g id="text_11">
      <!-- −20 -->
      <g transform="translate(7.2 244.690102)scale(0.1 -0.1)">
       <use xlink:href="#DejaVuSans-8722"/>
       <use x="83.789062" xlink:href="#DejaVuSans-50"/>
       <use x="147.412109" xlink:href="#DejaVuSans-48"/>
      </g>
     </g>
    </g>
    <g id="ytick_3">
     <g id="line2d_12">
      <g>
       <use style="stroke:#000000;stroke-width:0.8;" x="35.304688" xlink:href="#m10a8397c20" y="201.569542"/>
      </g>
     </g>
     <g id="text_12">
      <!-- 0 -->
      <g transform="translate(21.942187 205.368761)scale(0.1 -0.1)">
       <use xlink:href="#DejaVuSans-48"/>
      </g>
     </g>
    </g>
    <g id="ytick_4">
     <g id="line2d_13">
      <g>
       <use style="stroke:#000000;stroke-width:0.8;" x="35.304688" xlink:href="#m10a8397c20" y="162.248201"/>
      </g>
     </g>
     <g id="text_13">
      <!-- 20 -->
      <g transform="translate(15.579687 166.04742)scale(0.1 -0.1)">
       <use xlink:href="#DejaVuSans-50"/>
       <use x="63.623047" xlink:href="#DejaVuSans-48"/>
      </g>
     </g>
    </g>
    <g id="ytick_5">
     <g id="line2d_14">
      <g>
       <use style="stroke:#000000;stroke-width:0.8;" x="35.304688" xlink:href="#m10a8397c20" y="122.926861"/>
      </g>
     </g>
     <g id="text_14">
      <!-- 40 -->
      <g transform="translate(15.579687 126.726079)scale(0.1 -0.1)">
       <use xlink:href="#DejaVuSans-52"/>
       <use x="63.623047" xlink:href="#DejaVuSans-48"/>
      </g>
     </g>
    </g>
    <g id="ytick_6">
     <g id="line2d_15">
      <g>
       <use style="stroke:#000000;stroke-width:0.8;" x="35.304688" xlink:href="#m10a8397c20" y="83.60552"/>
      </g>
     </g>
     <g id="text_15">
      <!-- 60 -->
      <g transform="translate(15.579687 87.404739)scale(0.1 -0.1)">
       <use xlink:href="#DejaVuSans-54"/>
       <use x="63.623047" xlink:href="#DejaVuSans-48"/>
      </g>
     </g>
    </g>
    <g id="ytick_7">
     <g id="line2d_16">
      <g>
       <use style="stroke:#000000;stroke-width:0.8;" x="35.304688" xlink:href="#m10a8397c20" y="44.284179"/>
      </g>
     </g>
     <g id="text_16">
      <!-- 80 -->
      <g transform="translate(15.579687 48.083398)scale(0.1 -0.1)">
       <defs>
        <path d="M 31.78125 34.625 
Q 24.75 34.625 20.71875 30.859375 
Q 16.703125 27.09375 16.703125 20.515625 
Q 16.703125 13.921875 20.71875 10.15625 
Q 24.75 6.390625 31.78125 6.390625 
Q 38.8125 6.390625 42.859375 10.171875 
Q 46.921875 13.96875 46.921875 20.515625 
Q 46.921875 27.09375 42.890625 30.859375 
Q 38.875 34.625 31.78125 34.625 
z
M 21.921875 38.8125 
Q 15.578125 40.375 12.03125 44.71875 
Q 8.5 49.078125 8.5 55.328125 
Q 8.5 64.0625 14.71875 69.140625 
Q 20.953125 74.21875 31.78125 74.21875 
Q 42.671875 74.21875 48.875 69.140625 
Q 55.078125 64.0625 55.078125 55.328125 
Q 55.078125 49.078125 51.53125 44.71875 
Q 48 40.375 41.703125 38.8125 
Q 48.828125 37.15625 52.796875 32.3125 
Q 56.78125 27.484375 56.78125 20.515625 
Q 56.78125 9.90625 50.3125 4.234375 
Q 43.84375 -1.421875 31.78125 -1.421875 
Q 19.734375 -1.421875 13.25 4.234375 
Q 6.78125 9.90625 6.78125 20.515625 
Q 6.78125 27.484375 10.78125 32.3125 
Q 14.796875 37.15625 21.921875 38.8125 
z
M 18.3125 54.390625 
Q 18.3125 48.734375 21.84375 45.5625 
Q 25.390625 42.390625 31.78125 42.390625 
Q 38.140625 42.390625 41.71875 45.5625 
Q 45.3125 48.734375 45.3125 54.390625 
Q 45.3125 60.0625 41.71875 63.234375 
Q 38.140625 66.40625 31.78125 66.40625 
Q 25.390625 66.40625 21.84375 63.234375 
Q 18.3125 60.0625 18.3125 54.390625 
z
" id="DejaVuSans-56"/>
       </defs>
       <use xlink:href="#DejaVuSans-56"/>
       <use x="63.623047" xlink:href="#DejaVuSans-48"/>
      </g>
     </g>
    </g>
   </g>
   <g id="line2d_17">
    <path clip-path="url(#p5ea098572d)" d="M 54.491039 210.938675 
L 54.993299 204.488751 
L 55.49556 203.316172 
L 55.99782 204.130948 
L 56.500081 204.176997 
L 57.002341 203.894461 
L 57.504602 204.184768 
L 58.006862 207.576708 
L 58.509123 209.563814 
L 59.011383 213.079486 
L 59.513644 230.125755 
L 60.015905 228.183867 
L 60.518165 223.250559 
L 61.020426 223.610207 
L 61.522686 219.401572 
L 62.024947 220.508656 
L 62.527207 218.986296 
L 63.029468 206.413872 
L 63.531728 212.187793 
L 64.033989 194.343992 
L 64.536249 203.151403 
L 65.03851 202.495541 
L 65.54077 203.414376 
L 66.545291 204.134698 
L 67.047552 204.385113 
L 67.549812 204.104475 
L 68.052073 204.454883 
L 68.554333 279.809079 
L 69.056594 182.124735 
L 69.558854 191.202829 
L 70.061115 205.10102 
L 70.563375 194.548306 
L 71.065636 203.383371 
L 71.567896 202.932388 
L 72.070157 186.177784 
L 72.572417 204.712463 
L 73.074678 215.486286 
L 73.576938 218.80957 
L 74.079199 211.653776 
L 74.581459 208.862 
L 75.08372 198.924953 
L 75.58598 203.846937 
L 76.088241 206.082061 
L 76.590501 204.788373 
L 77.092762 202.782331 
L 77.595022 202.273732 
L 78.097283 202.134517 
L 81.110846 202.50762 
L 81.613106 202.526146 
L 82.115367 204.29058 
L 82.617627 211.501603 
L 83.119888 223.724337 
L 84.124409 241.016083 
L 85.12893 249.285149 
L 85.63119 248.674986 
L 86.133451 246.240407 
L 86.635711 242.802462 
L 87.137972 229.416047 
L 88.142493 213.226193 
L 89.147014 206.583851 
L 89.649274 207.284201 
L 90.151535 204.437951 
L 90.653796 198.513394 
L 91.156056 199.084333 
L 91.658317 201.826444 
L 92.160577 202.053538 
L 92.662838 202.599582 
L 93.667359 202.798116 
L 94.169619 205.057312 
L 94.67188 209.164526 
L 95.17414 210.689105 
L 95.676401 212.574138 
L 96.178661 228.349298 
L 96.680922 229.797347 
L 97.183182 247.362058 
L 97.685443 249.549817 
L 98.187703 246.438004 
L 98.689964 231.792267 
L 99.192224 226.985171 
L 100.699006 207.647746 
L 101.201266 205.152468 
L 101.703527 206.377855 
L 102.205787 206.1906 
L 102.708048 205.829747 
L 103.210308 204.767452 
L 103.712569 204.601443 
L 104.214829 204.146209 
L 105.21935 203.935231 
L 105.721611 203.977917 
L 106.223871 206.527761 
L 106.726132 207.982814 
L 107.228392 209.898526 
L 107.730653 209.200258 
L 108.232913 199.74256 
L 108.735174 211.804771 
L 109.237434 207.355051 
L 109.739695 200.977349 
L 110.241955 212.364653 
L 111.246476 210.773075 
L 111.748737 207.572363 
L 112.250997 205.675901 
L 112.753258 203.21846 
L 113.757779 203.279818 
L 114.260039 203.535389 
L 114.7623 203.001866 
L 115.26456 203.34197 
L 115.766821 202.941476 
L 116.269081 202.898327 
L 116.771342 203.609087 
L 117.775863 204.206763 
L 118.278123 208.10986 
L 119.282644 224.956037 
L 119.784905 223.465036 
L 120.287166 237.965589 
L 120.789426 244.300969 
L 121.291687 248.586558 
L 122.296208 245.272109 
L 122.798468 240.43692 
L 123.802989 225.514767 
L 124.80751 207.224524 
L 125.309771 204.485089 
L 125.812031 204.088274 
L 126.314292 203.497148 
L 126.816552 203.118126 
L 127.318813 202.495666 
L 129.327855 202.223288 
L 129.830115 202.302543 
L 130.332376 206.72876 
L 131.336897 226.458376 
L 132.341418 247.392002 
L 133.345939 256.038334 
L 133.848199 255.340445 
L 134.35046 252.827855 
L 134.85272 247.842886 
L 135.354981 240.119786 
L 136.861762 206.84047 
L 137.364023 205.294761 
L 137.866283 204.72075 
L 138.368544 202.928011 
L 139.875325 202.363276 
L 141.382107 202.109815 
L 141.884367 202.141851 
L 142.386628 206.468132 
L 143.391149 230.02393 
L 144.39567 250.750261 
L 144.89793 255.349718 
L 145.400191 256.743312 
L 145.902451 255.016208 
L 146.404712 256.928147 
L 146.906972 247.096884 
L 147.409233 231.857486 
L 148.413754 216.974128 
L 148.916014 209.508288 
L 149.418275 204.803139 
L 149.920535 203.751269 
L 151.427317 202.421197 
L 152.934099 201.817728 
L 153.436359 201.94138 
L 153.93862 202.212196 
L 154.44088 192.90781 
L 155.445401 229.485354 
L 155.947662 237.604921 
L 156.449922 241.832693 
L 156.952183 229.990777 
L 157.454443 257.91487 
L 158.458964 254.458409 
L 158.961225 248.690957 
L 159.965746 227.495036 
L 160.468006 211.95716 
L 160.970267 206.810017 
L 161.472527 205.912184 
L 161.974788 205.423676 
L 162.477048 203.977148 
L 162.979309 203.577357 
L 163.481569 202.434913 
L 163.98383 201.857638 
L 164.988351 202.107113 
L 165.490611 201.912165 
L 165.992872 178.466998 
L 166.495132 96.439835 
L 167.499653 211.135995 
L 168.001914 212.739601 
L 168.504174 229.115404 
L 169.006435 227.786411 
L 169.508695 255.05268 
L 170.010956 256.119451 
L 170.513216 252.999223 
L 171.015477 246.852521 
L 171.517737 238.627647 
L 172.522258 211.675743 
L 173.024519 203.954971 
L 173.526779 203.342533 
L 174.02904 202.527108 
L 174.5313 201.975877 
L 175.535821 201.912431 
L 176.038082 201.768462 
L 176.540342 201.886438 
L 177.042603 201.817008 
L 177.544863 202.374795 
L 178.047124 198.503327 
L 178.549384 204.973215 
L 179.051645 202.94861 
L 179.553905 209.393904 
L 180.056166 211.330578 
L 180.558427 230.691705 
L 181.060687 244.325206 
L 181.562948 226.579606 
L 182.065208 215.237085 
L 182.567469 213.046479 
L 183.069729 211.868641 
L 183.57199 178.756271 
L 184.07425 198.491369 
L 184.576511 206.419953 
L 185.078771 183.007434 
L 185.581032 152.802594 
L 186.083292 148.787414 
L 186.585553 173.410845 
L 187.087813 181.623116 
L 187.590074 185.61009 
L 188.092334 198.506667 
L 188.594595 202.822794 
L 189.096855 202.843741 
L 190.101376 203.152435 
L 190.603637 207.560722 
L 191.105897 214.261892 
L 191.608158 214.934442 
L 192.110418 212.952364 
L 192.612679 223.160488 
L 193.114939 227.510905 
L 193.6172 230.232116 
L 194.11946 237.642675 
L 194.621721 237.327168 
L 195.123981 234.448536 
L 195.626242 227.095082 
L 196.128502 217.047395 
L 196.630763 209.338257 
L 197.133023 205.755836 
L 197.635284 203.003824 
L 198.137544 202.768317 
L 198.639805 202.946588 
L 199.142065 202.774054 
L 199.644326 203.101789 
L 200.648847 203.171798 
L 201.151107 202.649002 
L 201.653368 202.803485 
L 202.155628 198.554987 
L 202.657889 204.671054 
L 203.160149 202.502347 
L 203.66241 155.292546 
L 204.16467 210.725866 
L 204.666931 212.761442 
L 205.169191 208.400308 
L 205.671452 208.961265 
L 206.173712 214.315489 
L 206.675973 203.933365 
L 207.178233 210.612393 
L 207.680494 209.618105 
L 208.182754 207.194055 
L 208.685015 206.259555 
L 209.187275 204.015509 
L 210.191796 203.032191 
L 210.694057 203.204932 
L 211.196318 202.643005 
L 211.698578 175.836104 
L 212.200839 137.350689 
L 212.703099 167.249828 
L 213.20536 129.043645 
L 213.70762 167.40263 
L 214.209881 181.142954 
L 214.712141 200.178441 
L 215.214402 206.498505 
L 216.721183 213.388323 
L 217.223444 213.811097 
L 217.725704 214.810429 
L 218.227965 215.156695 
L 218.730225 214.805575 
L 219.232486 212.660793 
L 219.734746 211.758789 
L 221.241528 205.538513 
L 221.743788 205.105265 
L 222.748309 204.915463 
L 223.25057 205.239505 
L 223.75283 205.14601 
L 224.255091 205.369275 
L 224.757351 205.828069 
L 225.259612 204.876863 
L 225.761872 205.259473 
L 226.264133 205.461539 
L 227.268654 209.677367 
L 228.273175 212.983406 
L 228.775435 213.890118 
L 229.277696 215.334035 
L 229.779956 215.44025 
L 230.282217 214.5161 
L 230.784477 214.039287 
L 231.286738 214.501583 
L 231.788998 219.058197 
L 232.291259 211.774315 
L 233.29578 204.206483 
L 233.79804 203.004376 
L 234.802561 201.739987 
L 235.304822 201.710424 
L 235.807082 201.522471 
L 236.309343 201.603462 
L 237.313864 201.526988 
L 238.318385 201.57832 
L 238.820645 207.406482 
L 239.322906 215.145528 
L 240.327427 237.716277 
L 240.829687 240.75644 
L 241.331948 246.026218 
L 241.834209 249.038954 
L 242.336469 249.249181 
L 242.83873 246.043818 
L 243.34099 240.787027 
L 244.345511 226.305638 
L 245.350032 206.264765 
L 245.852293 204.331293 
L 246.354553 204.051682 
L 246.856814 202.893797 
L 247.861335 201.85068 
L 248.865856 201.652136 
L 249.870377 201.547816 
L 250.372637 201.629 
L 250.874898 207.803894 
L 252.88394 247.160323 
L 253.3862 250.739586 
L 253.888461 252.58484 
L 254.390721 252.084466 
L 254.892982 249.191102 
L 255.395242 245.030062 
L 256.399763 230.74396 
L 257.404284 207.596974 
L 257.906545 205.2414 
L 258.408805 204.289759 
L 258.911066 203.696904 
L 259.413326 202.823944 
L 259.915587 202.302527 
L 260.417847 202.297683 
L 260.920108 201.864759 
L 261.422368 201.855214 
L 261.924629 201.993944 
L 262.426889 201.881643 
L 262.92915 208.46817 
L 264.435931 236.810244 
L 264.938192 245.780847 
L 265.440452 251.464274 
L 265.942713 254.033532 
L 266.444973 252.924576 
L 267.449494 244.125896 
L 267.951755 237.116352 
L 269.458536 206.026808 
L 269.960797 205.348797 
L 270.463057 203.665377 
L 271.467579 202.63522 
L 271.969839 202.281613 
L 272.4721 202.359411 
L 273.978881 201.586785 
L 274.481142 201.984353 
L 274.983402 209.430965 
L 276.490184 240.026757 
L 276.992444 246.240821 
L 277.494705 250.050647 
L 277.996965 252.280427 
L 278.499226 243.182269 
L 279.001486 236.557893 
L 279.503747 243.575389 
L 280.006007 235.363554 
L 280.508268 220.347144 
L 281.512789 210.796958 
L 282.015049 208.745245 
L 282.51731 208.451518 
L 283.01957 206.610828 
L 283.521831 206.04174 
L 284.024091 205.704293 
L 285.530873 203.956867 
L 286.033133 203.011134 
L 286.535394 203.552673 
L 287.539915 209.374392 
L 288.042175 218.843839 
L 288.544436 218.508424 
L 289.046696 224.380949 
L 289.548957 245.310114 
L 290.051217 245.046926 
L 290.553478 238.918386 
L 291.557999 232.393814 
L 292.060259 220.105115 
L 292.56252 215.997548 
L 293.06478 214.573909 
L 293.567041 206.113199 
L 294.069301 202.934292 
L 294.571562 202.881597 
L 297.082864 201.278711 
L 298.087385 201.145171 
L 298.589646 201.322439 
L 299.091906 207.636067 
L 300.598688 232.864873 
L 301.100948 240.386169 
L 301.603209 241.967466 
L 302.10547 236.83722 
L 303.109991 242.990457 
L 304.114512 230.610755 
L 304.616772 222.666887 
L 305.621293 202.980435 
L 306.123554 203.51843 
L 306.625814 201.886337 
L 307.128075 201.744549 
L 307.630335 201.731089 
L 308.132596 201.193612 
L 308.634856 201.308564 
L 309.639377 201.044848 
L 310.141638 200.963454 
L 310.643898 201.179493 
L 311.146159 206.431532 
L 312.15068 224.674107 
L 312.65294 225.79685 
L 313.155201 237.2814 
L 313.657461 220.897137 
L 314.159722 225.14014 
L 314.661982 243.365622 
L 315.164243 239.713672 
L 315.666503 234.687836 
L 316.168764 215.880083 
L 316.671024 213.494738 
L 318.177806 202.195411 
L 319.182327 201.40246 
L 319.684587 203.597827 
L 320.186848 203.805819 
L 320.689108 203.422484 
L 321.191369 202.797771 
L 321.693629 201.151633 
L 322.19589 200.969155 
L 322.69815 201.837182 
L 323.200411 203.503547 
L 323.702671 205.797939 
L 324.204932 199.883528 
L 324.707192 154.064153 
L 325.209453 236.301037 
L 325.711713 237.936116 
L 326.213974 20.181385 
L 326.716234 110.103532 
L 327.218495 81.225282 
L 327.720755 133.416794 
L 328.223016 132.431481 
L 328.725276 114.250526 
L 329.227537 193.318966 
L 329.729797 185.521543 
L 330.232058 202.565425 
L 330.734318 201.974946 
L 331.236579 201.569542 
L 332.2411 201.644518 
L 332.743361 202.021055 
L 333.245621 202.247131 
L 333.747882 202.753566 
L 334.250142 202.586372 
L 334.752403 202.947838 
L 335.254663 206.310236 
L 335.756924 215.797754 
L 336.761445 230.102346 
L 337.263705 234.333667 
L 337.765966 222.833053 
L 338.268226 236.109703 
L 338.770487 245.844627 
L 339.272747 244.156978 
L 340.277268 237.185159 
L 340.779529 227.909795 
L 341.281789 216.352215 
L 342.28631 203.626321 
L 343.290831 202.172539 
L 343.793092 202.714482 
L 344.295352 202.55278 
L 344.797613 201.90112 
L 345.802134 201.842621 
L 346.304394 202.121017 
L 346.806655 202.600575 
L 347.811176 206.936086 
L 348.313436 209.197218 
L 348.815697 212.086889 
L 349.317957 226.949228 
L 349.820218 220.072866 
L 350.322478 219.70843 
L 350.824739 226.813985 
L 351.326999 229.645003 
L 352.33152 220.123351 
L 352.833781 217.156309 
L 353.838302 203.226085 
L 354.340562 202.312885 
L 355.345083 201.144145 
L 355.847344 200.84756 
L 356.349604 200.820142 
L 356.851865 200.962235 
L 357.354125 200.797272 
L 358.860907 200.940906 
L 359.865428 214.746877 
L 360.367688 222.851451 
L 360.869949 227.228877 
L 361.372209 228.819738 
L 361.87447 234.660376 
L 362.376731 236.138812 
L 362.878991 229.776518 
L 363.381252 230.794839 
L 363.883512 223.396732 
L 364.385773 221.905287 
L 364.888033 219.000416 
L 365.892554 206.228218 
L 366.394815 202.972083 
L 366.897075 202.061758 
L 367.399336 201.652988 
L 367.901596 201.696993 
L 368.906117 201.275147 
L 369.910638 200.767236 
L 370.412899 200.728841 
L 370.915159 201.012857 
L 371.41742 206.463528 
L 372.924201 228.310008 
L 373.426462 231.583221 
L 373.928722 233.975428 
L 374.430983 234.920724 
L 374.933243 234.837457 
L 375.435504 232.946933 
L 375.937764 229.094709 
L 376.942285 218.340488 
L 377.444546 210.393081 
L 377.946806 204.997052 
L 378.449067 202.366722 
L 378.951327 201.82333 
L 379.453588 201.057924 
L 379.955848 201.002939 
L 380.458109 200.543368 
L 380.960369 200.415107 
L 382.467151 200.319319 
L 382.969411 201.036532 
L 383.471672 202.248563 
L 383.973932 204.849747 
L 384.476193 215.939208 
L 385.480714 227.039461 
L 385.982974 218.44029 
L 386.485235 223.876312 
L 386.987495 226.805278 
L 387.992016 209.595491 
L 388.494277 218.130915 
L 388.996537 213.794561 
L 389.498798 211.111732 
L 390.001058 206.435768 
L 390.503319 203.020848 
L 391.005579 201.803145 
L 391.50784 201.681621 
L 392.010101 202.432522 
L 392.512361 204.034243 
L 393.516882 201.353259 
L 394.521403 201.267224 
L 395.023664 201.707123 
L 395.525924 205.637524 
L 396.028185 211.375944 
L 397.032706 219.265697 
L 397.534966 221.920223 
L 398.037227 223.288043 
L 398.539487 222.656695 
L 399.041748 223.338081 
L 399.544008 224.72352 
L 400.548529 217.188808 
L 401.05079 213.663514 
L 402.055311 204.08667 
L 402.557571 202.653688 
L 403.059832 202.393128 
L 403.562092 201.473713 
L 404.064353 201.065737 
L 404.566613 201.400998 
L 406.073395 201.235451 
L 406.575655 201.073816 
L 407.077916 201.197354 
L 407.580176 204.652167 
L 408.584697 214.026563 
L 409.086958 217.737103 
L 410.091479 222.61176 
L 410.593739 221.677525 
L 411.096 215.473775 
L 411.59826 213.291724 
L 412.100521 215.812776 
L 412.602781 213.030056 
L 413.105042 211.151317 
L 414.109563 202.759277 
L 414.611823 201.06935 
L 415.114084 200.654365 
L 415.616344 200.706575 
L 416.620865 200.232285 
L 418.629907 200.050656 
L 419.132168 200.299105 
L 419.634428 203.490531 
L 421.64347 219.246713 
L 422.145731 219.958792 
L 422.647992 220.30004 
L 423.150252 220.322255 
L 423.652513 218.62012 
L 425.661555 207.374516 
L 426.163815 203.491991 
L 426.666076 201.413243 
L 427.168336 201.294767 
L 427.670597 201.350559 
L 427.670597 201.350559 
" style="fill:none;stroke:#2ecc71;stroke-linecap:square;stroke-width:0.75;"/>
   </g>
   <g id="line2d_18">
    <path clip-path="url(#p5ea098572d)" d="M 53.988778 201.569542 
L 54.491039 202.768619 
L 55.49556 201.756489 
L 55.99782 202.432582 
L 56.500081 202.596841 
L 57.002341 202.435953 
L 57.504602 203.118528 
L 58.006862 207.274525 
L 58.509123 208.499402 
L 59.011383 211.730518 
L 59.513644 228.860247 
L 60.015905 226.877731 
L 60.518165 221.800355 
L 61.020426 221.975633 
L 61.522686 217.5199 
L 62.024947 218.190418 
L 62.527207 215.501473 
L 63.029468 209.702627 
L 63.531728 207.450193 
L 64.033989 204.241375 
L 64.536249 203.138364 
L 65.03851 202.37528 
L 65.54077 202.579858 
L 66.043031 201.955363 
L 66.545291 201.867334 
L 67.047552 202.037427 
L 67.549812 201.733023 
L 68.554333 202.61564 
L 69.056594 201.997627 
L 69.558854 202.191833 
L 70.061115 205.152902 
L 70.563375 205.467288 
L 71.065636 207.700665 
L 71.567896 209.33379 
L 72.572417 211.52231 
L 73.576938 218.989155 
L 74.079199 213.615023 
L 74.581459 212.904056 
L 75.08372 210.272931 
L 75.58598 208.454674 
L 76.088241 206.078689 
L 76.590501 204.408616 
L 77.092762 202.260285 
L 77.595022 201.727838 
L 78.097283 201.569542 
L 81.613106 201.569542 
L 82.115367 203.367575 
L 82.617627 210.820288 
L 83.119888 223.452797 
L 84.124409 241.282862 
L 85.12893 249.782062 
L 85.63119 249.118803 
L 86.133451 246.627435 
L 86.635711 243.112398 
L 87.137972 229.393343 
L 88.142493 212.710627 
L 89.147014 205.804881 
L 89.649274 206.518831 
L 90.151535 205.030388 
L 90.653796 202.889448 
L 91.156056 202.096026 
L 91.658317 201.798234 
L 92.160577 201.821441 
L 92.662838 201.569542 
L 93.667359 201.617122 
L 94.169619 203.98481 
L 94.67188 208.285619 
L 95.676401 211.888684 
L 96.178661 228.245994 
L 96.680922 229.771644 
L 97.183182 247.90741 
L 97.685443 250.196923 
L 98.187703 247.010663 
L 98.689964 231.955627 
L 99.192224 226.993374 
L 100.699006 207.008626 
L 101.201266 204.395003 
L 101.703527 205.645808 
L 102.205787 205.4704 
L 102.708048 205.108175 
L 103.210308 203.993107 
L 103.712569 203.825866 
L 104.214829 203.35098 
L 105.21935 203.148865 
L 105.721611 203.203056 
L 106.223871 205.842867 
L 106.726132 207.345052 
L 107.228392 209.363349 
L 108.232913 211.134675 
L 108.735174 211.958433 
L 109.237434 213.294543 
L 109.739695 212.336993 
L 110.241955 212.54922 
L 111.246476 210.989344 
L 111.748737 207.668254 
L 112.250997 205.548186 
L 112.753258 202.856777 
L 113.757779 202.774064 
L 114.260039 202.896708 
L 114.7623 202.316292 
L 115.26456 202.671127 
L 115.766821 202.247321 
L 116.269081 202.20415 
L 116.771342 202.948695 
L 117.775863 203.557503 
L 118.278123 207.611989 
L 119.282644 225.152818 
L 119.784905 223.645837 
L 120.287166 238.621661 
L 120.789426 245.186183 
L 121.291687 249.645288 
L 122.296208 246.294898 
L 122.798468 241.331349 
L 123.300729 234.417306 
L 123.802989 225.959334 
L 124.80751 207.05089 
L 125.309771 204.214668 
L 125.812031 203.764026 
L 126.314292 203.136808 
L 126.816552 202.710798 
L 127.318813 202.05091 
L 129.327855 201.716559 
L 129.830115 201.80355 
L 130.332376 206.411615 
L 131.336897 226.957203 
L 132.341418 248.588171 
L 133.345939 257.487192 
L 133.848199 256.80708 
L 134.35046 254.242333 
L 134.85272 249.139806 
L 135.354981 241.23995 
L 136.861762 206.935766 
L 137.364023 205.27373 
L 137.866283 204.653513 
L 138.368544 202.766415 
L 139.875325 202.119751 
L 141.382107 201.864223 
L 141.884367 201.891059 
L 142.386628 206.363128 
L 143.391149 230.833688 
L 144.39567 252.313879 
L 144.89793 257.078944 
L 145.400191 258.535105 
L 145.902451 256.795412 
L 146.404712 258.79154 
L 146.906972 248.666216 
L 147.409233 232.952459 
L 148.413754 217.583296 
L 148.916014 209.866886 
L 149.418275 204.908523 
L 149.920535 203.803308 
L 151.427317 202.335349 
L 152.934099 201.66885 
L 153.436359 201.799012 
L 153.93862 202.08397 
L 154.44088 204.329662 
L 154.943141 210.705683 
L 155.445401 230.3448 
L 155.947662 238.958605 
L 156.449922 243.352369 
L 156.952183 231.125387 
L 157.454443 260.038456 
L 158.458964 256.558164 
L 158.961225 250.640176 
L 159.965746 228.653854 
L 160.468006 212.50177 
L 160.970267 207.138788 
L 161.472527 206.203666 
L 161.974788 205.695851 
L 162.477048 204.192499 
L 162.979309 203.776342 
L 163.481569 202.587896 
L 163.98383 201.986477 
L 164.988351 202.245506 
L 165.490611 202.042743 
L 165.992872 202.384614 
L 166.495132 203.97016 
L 166.997393 207.121286 
L 167.499653 211.279617 
L 168.001914 212.907297 
L 168.504174 229.528951 
L 169.006435 228.180005 
L 169.508695 255.855623 
L 170.010956 256.938409 
L 170.513216 253.771337 
L 171.015477 247.548167 
L 171.517737 239.456568 
L 172.522258 212.194255 
L 173.024519 204.17396 
L 173.526779 203.531315 
L 174.02904 202.682406 
L 174.5313 202.10938 
L 175.535821 202.041317 
L 176.038082 201.89067 
L 176.540342 202.012795 
L 177.042603 201.939935 
L 177.544863 202.52074 
L 178.047124 202.669831 
L 179.553905 209.816973 
L 180.056166 211.856014 
L 180.558427 232.050137 
L 181.060687 246.34883 
L 181.562948 227.85771 
L 182.065208 215.996064 
L 182.567469 213.697866 
L 183.069729 212.465081 
L 183.57199 208.29962 
L 184.07425 206.983604 
L 184.576511 206.492772 
L 185.078771 204.071541 
L 185.581032 203.058503 
L 186.585553 202.512832 
L 187.590074 202.19663 
L 188.092334 202.668405 
L 188.594595 202.841609 
L 189.096855 202.862871 
L 190.101376 203.143809 
L 190.603637 207.616785 
L 191.105897 214.430873 
L 191.608158 215.11656 
L 192.110418 213.101763 
L 192.612679 223.481578 
L 193.114939 227.900363 
L 193.6172 230.662428 
L 194.11946 238.184242 
L 194.621721 237.869077 
L 195.123981 234.98048 
L 195.626242 227.55201 
L 196.128502 217.418907 
L 196.630763 209.58517 
L 197.133023 205.928691 
L 197.635284 203.11075 
L 198.137544 202.843294 
L 198.639805 203.02324 
L 199.142065 202.849517 
L 199.644326 203.193852 
L 200.648847 203.277861 
L 201.151107 202.738412 
L 201.653368 202.90306 
L 202.155628 202.810883 
L 204.666931 212.929466 
L 205.169191 212.903667 
L 205.671452 213.478119 
L 206.173712 214.506844 
L 207.178233 210.770375 
L 207.680494 209.812825 
L 208.182754 207.417782 
L 208.685015 206.505348 
L 209.187275 204.201185 
L 210.191796 203.193203 
L 210.694057 203.375872 
L 211.698578 202.128308 
L 212.200839 201.988292 
L 212.703099 202.008387 
L 213.20536 201.816903 
L 213.70762 201.827404 
L 214.209881 202.637031 
L 215.214402 206.572503 
L 216.721183 213.565759 
L 217.223444 213.99488 
L 217.725704 215.009215 
L 218.227965 215.360679 
L 218.730225 215.004288 
L 219.232486 212.827306 
L 219.734746 211.911761 
L 221.241528 205.598099 
L 221.743788 205.158347 
L 222.748309 204.965696 
L 223.25057 205.294603 
L 223.75283 205.199703 
L 224.255091 205.426321 
L 224.757351 205.892002 
L 225.259612 204.924339 
L 225.761872 205.296547 
L 226.264133 205.500348 
L 227.268654 209.788452 
L 228.273175 213.171382 
L 228.775435 214.110911 
L 229.277696 215.588334 
L 229.779956 215.700476 
L 230.282217 214.768206 
L 230.784477 214.299414 
L 231.286738 214.800358 
L 231.788998 219.523677 
L 232.291259 212.116469 
L 233.29578 204.358832 
L 233.79804 203.100897 
L 234.802561 201.790974 
L 235.304822 201.762064 
L 235.807082 201.569542 
L 236.309343 201.64668 
L 237.313864 201.569542 
L 238.318385 201.622307 
L 238.820645 207.710259 
L 239.322906 215.822082 
L 240.327427 239.610325 
L 240.829687 242.921173 
L 241.331948 248.592449 
L 241.834209 251.867645 
L 242.336469 252.157269 
L 242.83873 248.849533 
L 243.34099 243.319829 
L 244.345511 228.006542 
L 245.350032 206.715241 
L 245.852293 204.646772 
L 246.354553 204.348591 
L 246.856814 203.118788 
L 247.861335 202.011369 
L 248.363595 201.848925 
L 249.870377 201.710076 
L 250.372637 201.798364 
L 250.874898 208.379092 
L 252.88394 250.669864 
L 253.3862 254.622709 
L 253.888461 256.722034 
L 254.390721 256.260371 
L 254.892982 253.236944 
L 255.395242 248.83605 
L 256.399763 233.471424 
L 257.404284 208.389464 
L 257.906545 205.803326 
L 258.408805 204.763711 
L 258.911066 204.119769 
L 259.413326 203.171034 
L 259.915587 202.603583 
L 260.417847 202.598527 
L 260.920108 202.128567 
L 261.422368 202.117547 
L 261.924629 202.270009 
L 262.426889 202.149569 
L 262.92915 209.321863 
L 264.435931 240.415155 
L 264.938192 250.266542 
L 265.440452 256.590315 
L 265.942713 259.663655 
L 266.444973 258.672527 
L 267.449494 249.214092 
L 267.951755 241.515184 
L 269.458536 206.917745 
L 269.960797 206.117842 
L 270.463057 204.242931 
L 271.467579 203.095711 
L 271.969839 202.701205 
L 272.4721 202.787677 
L 273.978881 201.933453 
L 274.481142 202.376706 
L 274.983402 210.687922 
L 276.490184 245.174256 
L 276.992444 252.274597 
L 277.494705 256.741351 
L 277.996965 259.494729 
L 278.499226 249.362793 
L 279.001486 241.890893 
L 279.503747 249.937894 
L 280.006007 240.73006 
L 280.508268 223.623149 
L 281.512789 212.616116 
L 282.015049 210.247651 
L 282.51731 209.905909 
L 283.01957 207.80438 
L 283.521831 207.145919 
L 284.024091 206.76684 
L 285.530873 204.776027 
L 286.033133 203.709575 
L 286.535394 204.331607 
L 287.539915 211.071149 
L 288.042175 222.053679 
L 288.544436 221.774685 
L 289.046696 228.698451 
L 289.548957 253.170048 
L 290.051217 253.198051 
L 290.553478 246.198314 
L 291.557999 238.780863 
L 292.060259 224.330357 
L 292.56252 219.449132 
L 293.06478 217.755074 
L 293.567041 207.724779 
L 294.069301 203.886669 
L 294.571562 203.803827 
L 297.082864 201.905968 
L 297.585125 201.766212 
L 298.087385 201.747673 
L 298.589646 201.961067 
L 299.091906 209.494938 
L 301.100948 249.315084 
L 301.603209 251.438653 
L 302.10547 245.529091 
L 303.109991 253.603966 
L 303.612251 246.996143 
L 304.616772 228.906919 
L 305.621293 204.307623 
L 306.123554 204.886224 
L 306.625814 202.863778 
L 307.128075 202.690703 
L 307.630335 202.683314 
L 308.132596 202.020574 
L 308.634856 202.161497 
L 309.137117 201.933064 
L 310.141638 201.744173 
L 310.643898 202.023296 
L 311.146159 208.610118 
L 312.15068 231.69219 
L 312.65294 233.318833 
L 313.155201 247.894057 
L 313.657461 227.48291 
L 314.159722 232.744899 
L 314.661982 256.097279 
L 315.164243 251.785321 
L 315.666503 245.510163 
L 316.168764 221.538993 
L 316.671024 218.45917 
L 318.177806 203.640864 
L 319.182327 202.550558 
L 319.684587 205.427747 
L 320.186848 205.747708 
L 320.689108 205.260895 
L 321.191369 204.440767 
L 321.693629 202.279213 
L 322.19589 202.017333 
L 322.69815 203.151847 
L 323.200411 205.35761 
L 323.702671 208.413188 
L 324.204932 212.759762 
L 324.707192 214.232258 
L 325.209453 236.822461 
L 325.711713 244.100674 
L 326.213974 211.421447 
L 326.716234 210.87422 
L 327.218495 210.548814 
L 328.223016 208.041629 
L 328.725276 206.728854 
L 329.729797 202.818403 
L 330.232058 202.580376 
L 330.734318 201.981032 
L 331.236579 201.569542 
L 332.2411 201.645643 
L 332.743361 202.027834 
L 333.245621 202.257304 
L 333.747882 202.771342 
L 334.250142 202.601638 
L 334.752403 202.96853 
L 335.254663 206.381408 
L 335.756924 216.011362 
L 336.761445 230.53071 
L 337.263705 234.825555 
L 337.765966 223.152282 
L 338.268226 236.628255 
L 338.770487 246.50933 
L 339.272747 244.796344 
L 340.277268 237.719857 
L 340.779529 228.305241 
L 341.281789 216.574147 
L 342.28631 203.657199 
L 343.290831 202.181591 
L 343.793092 202.731671 
L 344.295352 202.567542 
L 344.797613 201.906098 
L 345.802134 201.846721 
L 346.304394 202.133882 
L 346.806655 202.681369 
L 347.811176 207.260653 
L 348.313436 209.741909 
L 348.815697 212.83314 
L 349.317957 228.416605 
L 349.820218 221.31432 
L 350.322478 221.020806 
L 350.824739 228.62624 
L 351.326999 231.889897 
L 352.33152 222.686731 
L 352.833781 219.968226 
L 353.838302 204.441545 
L 354.340562 203.350721 
L 355.345083 202.020444 
L 355.847344 201.678184 
L 356.349604 201.651996 
L 356.851865 201.825719 
L 357.354125 201.636827 
L 357.856386 201.729782 
L 358.358646 201.707354 
L 358.860907 201.831034 
L 359.865428 218.701864 
L 360.367688 229.093347 
L 360.869949 235.26816 
L 361.372209 238.390246 
L 361.87447 247.501625 
L 362.376731 250.872498 
L 362.878991 242.828348 
L 363.381252 244.715964 
L 363.883512 234.59427 
L 364.385773 232.413011 
L 364.888033 228.366044 
L 365.892554 210.156511 
L 366.394815 205.385742 
L 366.897075 204.037834 
L 367.399336 203.44212 
L 367.901596 203.505516 
L 368.403857 203.286677 
L 369.910638 202.167071 
L 370.412899 202.111584 
L 370.915159 202.523333 
L 371.41742 210.348643 
L 372.924201 242.935304 
L 373.928722 252.636304 
L 374.430983 254.393758 
L 374.933243 254.457283 
L 375.435504 251.951913 
L 375.937764 246.526054 
L 376.942285 230.265588 
L 377.444546 218.021881 
L 377.946806 209.486511 
L 378.449067 205.245079 
L 378.951327 204.313976 
L 379.453588 203.127863 
L 379.955848 203.062004 
L 380.458109 202.347536 
L 380.960369 202.138679 
L 381.96489 202.092396 
L 382.467151 201.988033 
L 382.969411 203.109583 
L 383.471672 205.038426 
L 383.973932 209.164994 
L 384.476193 226.777257 
L 385.480714 245.361591 
L 385.982974 231.934624 
L 386.485235 240.512648 
L 386.987495 245.780341 
L 387.489756 233.162482 
L 387.992016 225.362971 
L 388.494277 230.115719 
L 389.498798 220.430018 
L 390.001058 212.682753 
L 390.503319 206.880408 
L 391.005579 204.757488 
L 391.50784 204.503645 
L 392.010101 205.778304 
L 392.512361 208.498105 
L 393.516882 204.090469 
L 394.019143 203.879539 
L 394.521403 203.896003 
L 395.023664 204.639901 
L 395.525924 211.289599 
L 396.028185 221.159395 
L 397.032706 235.096382 
L 397.534966 240.176481 
L 398.037227 242.982625 
L 398.539487 242.347369 
L 399.041748 243.999293 
L 399.544008 246.908114 
L 401.55305 218.391237 
L 402.055311 209.914466 
L 402.557571 207.08356 
L 403.059832 206.532962 
L 403.562092 204.847331 
L 404.064353 204.075431 
L 404.566613 204.678794 
L 406.073395 204.435711 
L 406.575655 204.151013 
L 407.077916 204.377242 
L 407.580176 210.847124 
L 408.584697 229.065733 
L 409.086958 236.679853 
L 410.091479 247.025572 
L 410.593739 245.760765 
L 411.096 233.92427 
L 411.59826 229.458165 
L 412.100521 234.461904 
L 412.602781 229.295332 
L 413.105042 225.51984 
L 414.109563 208.439506 
L 414.611823 204.7676 
L 415.114084 203.795011 
L 415.616344 203.86074 
L 416.620865 202.896059 
L 417.123126 202.798178 
L 417.625386 202.537983 
L 418.127647 202.693037 
L 418.629907 202.508943 
L 419.132168 202.9977 
L 419.634428 209.407947 
L 421.64347 242.931026 
L 422.145731 244.846386 
L 422.647992 245.996069 
L 423.150252 246.490142 
L 423.652513 243.174887 
L 425.159294 226.019229 
L 425.661555 219.749906 
L 426.163815 211.099152 
L 426.666076 206.191091 
L 427.168336 205.729558 
L 427.670597 205.863351 
L 427.670597 205.863351 
" style="fill:none;stroke:#ff6600;stroke-linecap:square;stroke-width:0.75;"/>
   </g>
   <g id="patch_3">
    <path d="M 35.304688 292.790464 
L 35.304688 7.2 
" style="fill:none;stroke:#000000;stroke-linecap:square;stroke-linejoin:miter;stroke-width:0.8;"/>
   </g>
   <g id="patch_4">
    <path d="M 446.354687 292.790464 
L 446.354687 7.2 
" style="fill:none;stroke:#000000;stroke-linecap:square;stroke-linejoin:miter;stroke-width:0.8;"/>
   </g>
   <g id="patch_5">
    <path d="M 35.304688 292.790464 
L 446.354687 292.790464 
" style="fill:none;stroke:#000000;stroke-linecap:square;stroke-linejoin:miter;stroke-width:0.8;"/>
   </g>
   <g id="patch_6">
    <path d="M 35.304688 7.2 
L 446.354687 7.2 
" style="fill:none;stroke:#000000;stroke-linecap:square;stroke-linejoin:miter;stroke-width:0.8;"/>
   </g>
   <g id="legend_1">
    <g id="patch_7">
     <path d="M 42.304688 49.6 
L 281.204687 49.6 
Q 283.204687 49.6 283.204687 47.6 
L 283.204687 14.2 
Q 283.204687 12.2 281.204687 12.2 
L 42.304688 12.2 
Q 40.304688 12.2 40.304688 14.2 
L 40.304688 47.6 
Q 40.304688 49.6 42.304688 49.6 
z
" style="fill:#ffffff;opacity:0.8;stroke:#cccccc;stroke-linejoin:miter;"/>
    </g>
    <g id="line2d_19">
     <path d="M 44.304688 21.8 
L 64.304688 21.8 
" style="fill:none;stroke:#2ecc71;stroke-linecap:square;stroke-width:0.75;"/>
    </g>
    <g id="line2d_20"/>
    <g id="text_17">
     <!-- SM in-/out-fluxes ($m^3$/$\delta t_{exchange}$) -->
     <g transform="translate(72.304688 25.3)scale(0.1 -0.1)">
      <defs>
       <path d="M 53.515625 70.515625 
L 53.515625 60.890625 
Q 47.90625 63.578125 42.921875 64.890625 
Q 37.9375 66.21875 33.296875 66.21875 
Q 25.25 66.21875 20.875 63.09375 
Q 16.5 59.96875 16.5 54.203125 
Q 16.5 49.359375 19.40625 46.890625 
Q 22.3125 44.4375 30.421875 42.921875 
L 36.375 41.703125 
Q 47.40625 39.59375 52.65625 34.296875 
Q 57.90625 29 57.90625 20.125 
Q 57.90625 9.515625 50.796875 4.046875 
Q 43.703125 -1.421875 29.984375 -1.421875 
Q 24.8125 -1.421875 18.96875 -0.25 
Q 13.140625 0.921875 6.890625 3.21875 
L 6.890625 13.375 
Q 12.890625 10.015625 18.65625 8.296875 
Q 24.421875 6.59375 29.984375 6.59375 
Q 38.421875 6.59375 43.015625 9.90625 
Q 47.609375 13.234375 47.609375 19.390625 
Q 47.609375 24.75 44.3125 27.78125 
Q 41.015625 30.8125 33.5 32.328125 
L 27.484375 33.5 
Q 16.453125 35.6875 11.515625 40.375 
Q 6.59375 45.0625 6.59375 53.421875 
Q 6.59375 63.09375 13.40625 68.65625 
Q 20.21875 74.21875 32.171875 74.21875 
Q 37.3125 74.21875 42.625 73.28125 
Q 47.953125 72.359375 53.515625 70.515625 
z
" id="DejaVuSans-83"/>
       <path d="M 9.8125 72.90625 
L 24.515625 72.90625 
L 43.109375 23.296875 
L 61.8125 72.90625 
L 76.515625 72.90625 
L 76.515625 0 
L 66.890625 0 
L 66.890625 64.015625 
L 48.09375 14.015625 
L 38.1875 14.015625 
L 19.390625 64.015625 
L 19.390625 0 
L 9.8125 0 
z
" id="DejaVuSans-77"/>
       <path id="DejaVuSans-32"/>
       <path d="M 9.421875 54.6875 
L 18.40625 54.6875 
L 18.40625 0 
L 9.421875 0 
z
M 9.421875 75.984375 
L 18.40625 75.984375 
L 18.40625 64.59375 
L 9.421875 64.59375 
z
" id="DejaVuSans-105"/>
       <path d="M 54.890625 33.015625 
L 54.890625 0 
L 45.90625 0 
L 45.90625 32.71875 
Q 45.90625 40.484375 42.875 44.328125 
Q 39.84375 48.1875 33.796875 48.1875 
Q 26.515625 48.1875 22.3125 43.546875 
Q 18.109375 38.921875 18.109375 30.90625 
L 18.109375 0 
L 9.078125 0 
L 9.078125 54.6875 
L 18.109375 54.6875 
L 18.109375 46.1875 
Q 21.34375 51.125 25.703125 53.5625 
Q 30.078125 56 35.796875 56 
Q 45.21875 56 50.046875 50.171875 
Q 54.890625 44.34375 54.890625 33.015625 
z
" id="DejaVuSans-110"/>
       <path d="M 25.390625 72.90625 
L 33.6875 72.90625 
L 8.296875 -9.28125 
L 0 -9.28125 
z
" id="DejaVuSans-47"/>
       <path d="M 30.609375 48.390625 
Q 23.390625 48.390625 19.1875 42.75 
Q 14.984375 37.109375 14.984375 27.296875 
Q 14.984375 17.484375 19.15625 11.84375 
Q 23.34375 6.203125 30.609375 6.203125 
Q 37.796875 6.203125 41.984375 11.859375 
Q 46.1875 17.53125 46.1875 27.296875 
Q 46.1875 37.015625 41.984375 42.703125 
Q 37.796875 48.390625 30.609375 48.390625 
z
M 30.609375 56 
Q 42.328125 56 49.015625 48.375 
Q 55.71875 40.765625 55.71875 27.296875 
Q 55.71875 13.875 49.015625 6.21875 
Q 42.328125 -1.421875 30.609375 -1.421875 
Q 18.84375 -1.421875 12.171875 6.21875 
Q 5.515625 13.875 5.515625 27.296875 
Q 5.515625 40.765625 12.171875 48.375 
Q 18.84375 56 30.609375 56 
z
" id="DejaVuSans-111"/>
       <path d="M 8.5 21.578125 
L 8.5 54.6875 
L 17.484375 54.6875 
L 17.484375 21.921875 
Q 17.484375 14.15625 20.5 10.265625 
Q 23.53125 6.390625 29.59375 6.390625 
Q 36.859375 6.390625 41.078125 11.03125 
Q 45.3125 15.671875 45.3125 23.6875 
L 45.3125 54.6875 
L 54.296875 54.6875 
L 54.296875 0 
L 45.3125 0 
L 45.3125 8.40625 
Q 42.046875 3.421875 37.71875 1 
Q 33.40625 -1.421875 27.6875 -1.421875 
Q 18.265625 -1.421875 13.375 4.4375 
Q 8.5 10.296875 8.5 21.578125 
z
M 31.109375 56 
z
" id="DejaVuSans-117"/>
       <path d="M 18.3125 70.21875 
L 18.3125 54.6875 
L 36.8125 54.6875 
L 36.8125 47.703125 
L 18.3125 47.703125 
L 18.3125 18.015625 
Q 18.3125 11.328125 20.140625 9.421875 
Q 21.96875 7.515625 27.59375 7.515625 
L 36.8125 7.515625 
L 36.8125 0 
L 27.59375 0 
Q 17.1875 0 13.234375 3.875 
Q 9.28125 7.765625 9.28125 18.015625 
L 9.28125 47.703125 
L 2.6875 47.703125 
L 2.6875 54.6875 
L 9.28125 54.6875 
L 9.28125 70.21875 
z
" id="DejaVuSans-116"/>
       <path d="M 37.109375 75.984375 
L 37.109375 68.5 
L 28.515625 68.5 
Q 23.6875 68.5 21.796875 66.546875 
Q 19.921875 64.59375 19.921875 59.515625 
L 19.921875 54.6875 
L 34.71875 54.6875 
L 34.71875 47.703125 
L 19.921875 47.703125 
L 19.921875 0 
L 10.890625 0 
L 10.890625 47.703125 
L 2.296875 47.703125 
L 2.296875 54.6875 
L 10.890625 54.6875 
L 10.890625 58.5 
Q 10.890625 67.625 15.140625 71.796875 
Q 19.390625 75.984375 28.609375 75.984375 
z
" id="DejaVuSans-102"/>
       <path d="M 9.421875 75.984375 
L 18.40625 75.984375 
L 18.40625 0 
L 9.421875 0 
z
" id="DejaVuSans-108"/>
       <path d="M 54.890625 54.6875 
L 35.109375 28.078125 
L 55.90625 0 
L 45.3125 0 
L 29.390625 21.484375 
L 13.484375 0 
L 2.875 0 
L 24.125 28.609375 
L 4.6875 54.6875 
L 15.28125 54.6875 
L 29.78125 35.203125 
L 44.28125 54.6875 
z
" id="DejaVuSans-120"/>
       <path d="M 56.203125 29.59375 
L 56.203125 25.203125 
L 14.890625 25.203125 
Q 15.484375 15.921875 20.484375 11.0625 
Q 25.484375 6.203125 34.421875 6.203125 
Q 39.59375 6.203125 44.453125 7.46875 
Q 49.3125 8.734375 54.109375 11.28125 
L 54.109375 2.78125 
Q 49.265625 0.734375 44.1875 -0.34375 
Q 39.109375 -1.421875 33.890625 -1.421875 
Q 20.796875 -1.421875 13.15625 6.1875 
Q 5.515625 13.8125 5.515625 26.8125 
Q 5.515625 40.234375 12.765625 48.109375 
Q 20.015625 56 32.328125 56 
Q 43.359375 56 49.78125 48.890625 
Q 56.203125 41.796875 56.203125 29.59375 
z
M 47.21875 32.234375 
Q 47.125 39.59375 43.09375 43.984375 
Q 39.0625 48.390625 32.421875 48.390625 
Q 24.90625 48.390625 20.390625 44.140625 
Q 15.875 39.890625 15.1875 32.171875 
z
" id="DejaVuSans-101"/>
       <path d="M 44.28125 53.078125 
L 44.28125 44.578125 
Q 40.484375 46.53125 36.375 47.5 
Q 32.28125 48.484375 27.875 48.484375 
Q 21.1875 48.484375 17.84375 46.4375 
Q 14.5 44.390625 14.5 40.28125 
Q 14.5 37.15625 16.890625 35.375 
Q 19.28125 33.59375 26.515625 31.984375 
L 29.59375 31.296875 
Q 39.15625 29.25 43.1875 25.515625 
Q 47.21875 21.78125 47.21875 15.09375 
Q 47.21875 7.46875 41.1875 3.015625 
Q 35.15625 -1.421875 24.609375 -1.421875 
Q 20.21875 -1.421875 15.453125 -0.5625 
Q 10.6875 0.296875 5.421875 2 
L 5.421875 11.28125 
Q 10.40625 8.6875 15.234375 7.390625 
Q 20.0625 6.109375 24.8125 6.109375 
Q 31.15625 6.109375 34.5625 8.28125 
Q 37.984375 10.453125 37.984375 14.40625 
Q 37.984375 18.0625 35.515625 20.015625 
Q 33.0625 21.96875 24.703125 23.78125 
L 21.578125 24.515625 
Q 13.234375 26.265625 9.515625 29.90625 
Q 5.8125 33.546875 5.8125 39.890625 
Q 5.8125 47.609375 11.28125 51.796875 
Q 16.75 56 26.8125 56 
Q 31.78125 56 36.171875 55.265625 
Q 40.578125 54.546875 44.28125 53.078125 
z
" id="DejaVuSans-115"/>
       <path d="M 31 75.875 
Q 24.46875 64.65625 21.28125 53.65625 
Q 18.109375 42.671875 18.109375 31.390625 
Q 18.109375 20.125 21.3125 9.0625 
Q 24.515625 -2 31 -13.1875 
L 23.1875 -13.1875 
Q 15.875 -1.703125 12.234375 9.375 
Q 8.59375 20.453125 8.59375 31.390625 
Q 8.59375 42.28125 12.203125 53.3125 
Q 15.828125 64.359375 23.1875 75.875 
z
" id="DejaVuSans-40"/>
       <path d="M 89.796875 33.015625 
L 83.40625 0 
L 74.421875 0 
L 80.71875 32.71875 
Q 81.109375 34.8125 81.296875 36.328125 
Q 81.5 37.84375 81.5 38.921875 
Q 81.5 43.3125 79.046875 45.75 
Q 76.609375 48.1875 72.21875 48.1875 
Q 65.671875 48.1875 60.546875 43.28125 
Q 55.421875 38.375 53.90625 30.515625 
L 47.90625 0 
L 38.921875 0 
L 45.3125 32.71875 
Q 45.703125 34.515625 45.890625 36.046875 
Q 46.09375 37.59375 46.09375 38.8125 
Q 46.09375 43.265625 43.65625 45.71875 
Q 41.21875 48.1875 36.921875 48.1875 
Q 30.28125 48.1875 25.140625 43.28125 
Q 20.015625 38.375 18.5 30.515625 
L 12.5 0 
L 3.515625 0 
L 14.203125 54.6875 
L 23.1875 54.6875 
L 21.484375 46.1875 
Q 25.140625 50.984375 30.046875 53.484375 
Q 34.96875 56 40.578125 56 
Q 46.53125 56 50.359375 52.875 
Q 54.203125 49.75 54.984375 44.1875 
Q 59.078125 49.953125 64.46875 52.96875 
Q 69.875 56 75.875 56 
Q 82.90625 56 86.734375 51.953125 
Q 90.578125 47.90625 90.578125 40.484375 
Q 90.578125 38.875 90.375 36.9375 
Q 90.1875 35.015625 89.796875 33.015625 
z
" id="DejaVuSans-Oblique-109"/>
       <path d="M 54.25 63.328125 
Q 49.953125 66.75 38.28125 66.75 
Q 25.921875 66.75 24.8125 61.03125 
Q 23.921875 56.546875 36.375 54.203125 
Q 46.140625 52.390625 50.828125 46.921875 
Q 56.5 40.328125 53.859375 26.8125 
Q 51.3125 13.875 43.171875 6.25 
Q 34.96875 -1.421875 23.25 -1.421875 
Q 11.578125 -1.421875 6.34375 6.25 
Q 1.125 13.875 3.765625 27.296875 
Q 5.671875 37.25 13.921875 45.3125 
Q 17.140625 48.4375 21.140625 50.203125 
Q 14.265625 54.046875 15.625 60.9375 
Q 18.21875 74.21875 39.75 74.21875 
Q 50.53125 74.21875 55.71875 70.796875 
z
M 27.390625 47.75 
Q 23.828125 46.34375 20.40625 42.78125 
Q 15.140625 37.25 13.234375 27.296875 
Q 11.28125 17.390625 14.359375 11.8125 
Q 17.484375 6.203125 24.75 6.203125 
Q 31.9375 6.203125 37.203125 11.859375 
Q 42.53125 17.53125 44.34375 26.8125 
Q 46.1875 36.53125 42.671875 41.21875 
Q 38.921875 46.234375 32.859375 46.78125 
Q 29.78125 47.078125 27.390625 47.75 
z
" id="DejaVuSans-Oblique-948"/>
       <path d="M 42.28125 54.6875 
L 40.921875 47.703125 
L 23 47.703125 
L 17.1875 18.015625 
Q 16.890625 16.359375 16.75 15.234375 
Q 16.609375 14.109375 16.609375 13.484375 
Q 16.609375 10.359375 18.484375 8.9375 
Q 20.359375 7.515625 24.515625 7.515625 
L 33.59375 7.515625 
L 32.078125 0 
L 23.484375 0 
Q 15.484375 0 11.546875 3.125 
Q 7.625 6.25 7.625 12.59375 
Q 7.625 13.71875 7.765625 15.0625 
Q 7.90625 16.40625 8.203125 18.015625 
L 14.015625 47.703125 
L 6.390625 47.703125 
L 7.8125 54.6875 
L 15.28125 54.6875 
L 18.3125 70.21875 
L 27.296875 70.21875 
L 24.3125 54.6875 
z
" id="DejaVuSans-Oblique-116"/>
       <path d="M 48.09375 32.234375 
Q 48.25 33.015625 48.3125 33.84375 
Q 48.390625 34.671875 48.390625 35.5 
Q 48.390625 41.453125 44.890625 44.921875 
Q 41.40625 48.390625 35.40625 48.390625 
Q 28.71875 48.390625 23.578125 44.15625 
Q 18.453125 39.9375 15.828125 32.171875 
z
M 55.90625 25.203125 
L 14.109375 25.203125 
Q 13.8125 23.34375 13.71875 22.265625 
Q 13.625 21.1875 13.625 20.40625 
Q 13.625 13.625 17.796875 9.90625 
Q 21.96875 6.203125 29.59375 6.203125 
Q 35.453125 6.203125 40.671875 7.515625 
Q 45.90625 8.84375 50.390625 11.375 
L 48.6875 2.484375 
Q 43.84375 0.53125 38.6875 -0.4375 
Q 33.546875 -1.421875 28.21875 -1.421875 
Q 16.84375 -1.421875 10.71875 4.015625 
Q 4.59375 9.46875 4.59375 19.484375 
Q 4.59375 28.03125 7.640625 35.375 
Q 10.6875 42.71875 16.609375 48.484375 
Q 20.40625 52.09375 25.65625 54.046875 
Q 30.90625 56 36.8125 56 
Q 46.09375 56 51.578125 50.4375 
Q 57.078125 44.875 57.078125 35.5 
Q 57.078125 33.25 56.78125 30.6875 
Q 56.5 28.125 55.90625 25.203125 
z
" id="DejaVuSans-Oblique-101"/>
       <path d="M 60.015625 54.6875 
L 34.90625 27.875 
L 50.296875 0 
L 39.984375 0 
L 28.421875 21.6875 
L 8.296875 0 
L -2.59375 0 
L 24.3125 28.8125 
L 10.015625 54.6875 
L 20.3125 54.6875 
L 30.8125 34.90625 
L 49.125 54.6875 
z
" id="DejaVuSans-Oblique-120"/>
       <path d="M 53.609375 52.59375 
L 51.8125 43.703125 
Q 48.578125 46.046875 44.9375 47.21875 
Q 41.3125 48.390625 37.40625 48.390625 
Q 33.109375 48.390625 29.21875 46.875 
Q 25.34375 45.359375 22.703125 42.578125 
Q 18.5 38.328125 16.203125 32.609375 
Q 13.921875 26.90625 13.921875 20.796875 
Q 13.921875 13.421875 17.609375 9.8125 
Q 21.296875 6.203125 28.8125 6.203125 
Q 32.515625 6.203125 36.6875 7.328125 
Q 40.875 8.453125 45.40625 10.6875 
L 43.703125 1.8125 
Q 39.796875 0.203125 35.671875 -0.609375 
Q 31.546875 -1.421875 27.203125 -1.421875 
Q 16.3125 -1.421875 10.453125 4.015625 
Q 4.59375 9.46875 4.59375 19.578125 
Q 4.59375 28.078125 7.640625 35.234375 
Q 10.6875 42.390625 16.703125 48.09375 
Q 20.796875 52 26.3125 54 
Q 31.84375 56 38.375 56 
Q 42.1875 56 45.9375 55.140625 
Q 49.703125 54.296875 53.609375 52.59375 
z
" id="DejaVuSans-Oblique-99"/>
       <path d="M 55.71875 33.015625 
L 49.3125 0 
L 40.28125 0 
L 46.6875 32.671875 
Q 47.125 34.96875 47.359375 36.71875 
Q 47.609375 38.484375 47.609375 39.5 
Q 47.609375 43.609375 45.015625 45.890625 
Q 42.4375 48.1875 37.796875 48.1875 
Q 30.5625 48.1875 25.265625 43.296875 
Q 19.96875 38.421875 18.40625 30.328125 
L 12.5 0 
L 3.515625 0 
L 18.3125 75.984375 
L 27.296875 75.984375 
L 21.484375 46.09375 
Q 24.90625 50.6875 30.21875 53.34375 
Q 35.546875 56 41.40625 56 
Q 48.640625 56 52.609375 52.09375 
Q 56.59375 48.1875 56.59375 41.109375 
Q 56.59375 39.359375 56.375 37.359375 
Q 56.15625 35.359375 55.71875 33.015625 
z
" id="DejaVuSans-Oblique-104"/>
       <path d="M 53.71875 31.203125 
L 47.609375 0 
L 38.625 0 
L 40.28125 8.296875 
Q 36.328125 3.421875 31.265625 1 
Q 26.21875 -1.421875 20.015625 -1.421875 
Q 13.03125 -1.421875 8.5625 2.84375 
Q 4.109375 7.125 4.109375 13.8125 
Q 4.109375 23.390625 11.75 28.953125 
Q 19.390625 34.515625 32.8125 34.515625 
L 45.3125 34.515625 
L 45.796875 36.921875 
Q 45.90625 37.3125 45.953125 37.765625 
Q 46 38.234375 46 39.203125 
Q 46 43.5625 42.453125 45.96875 
Q 38.921875 48.390625 32.515625 48.390625 
Q 28.125 48.390625 23.5 47.265625 
Q 18.890625 46.140625 14.015625 43.890625 
L 15.578125 52.203125 
Q 20.65625 54.109375 25.515625 55.046875 
Q 30.375 56 34.90625 56 
Q 44.578125 56 49.625 51.796875 
Q 54.6875 47.609375 54.6875 39.59375 
Q 54.6875 37.984375 54.4375 35.8125 
Q 54.203125 33.640625 53.71875 31.203125 
z
M 44 27.484375 
L 35.015625 27.484375 
Q 23.96875 27.484375 18.671875 24.53125 
Q 13.375 21.578125 13.375 15.375 
Q 13.375 11.078125 16.078125 8.640625 
Q 18.796875 6.203125 23.578125 6.203125 
Q 30.90625 6.203125 36.375 11.453125 
Q 41.84375 16.703125 43.609375 25.484375 
z
" id="DejaVuSans-Oblique-97"/>
       <path d="M 55.71875 33.015625 
L 49.3125 0 
L 40.28125 0 
L 46.6875 32.671875 
Q 47.125 34.96875 47.359375 36.71875 
Q 47.609375 38.484375 47.609375 39.5 
Q 47.609375 43.609375 45.015625 45.890625 
Q 42.4375 48.1875 37.796875 48.1875 
Q 30.5625 48.1875 25.34375 43.375 
Q 20.125 38.578125 18.5 30.328125 
L 12.5 0 
L 3.515625 0 
L 14.109375 54.6875 
L 23.09375 54.6875 
L 21.296875 46.09375 
Q 25.046875 50.828125 30.3125 53.40625 
Q 35.59375 56 41.40625 56 
Q 48.640625 56 52.609375 52.09375 
Q 56.59375 48.1875 56.59375 41.109375 
Q 56.59375 39.359375 56.375 37.359375 
Q 56.15625 35.359375 55.71875 33.015625 
z
" id="DejaVuSans-Oblique-110"/>
       <path d="M 59.625 54.6875 
L 50.296875 6.78125 
Q 47.609375 -7.125 40.015625 -13.953125 
Q 32.421875 -20.796875 19.578125 -20.796875 
Q 14.84375 -20.796875 10.78125 -20.09375 
Q 6.734375 -19.390625 3.21875 -17.921875 
L 4.890625 -9.1875 
Q 8.203125 -11.328125 11.90625 -12.34375 
Q 15.625 -13.375 19.828125 -13.375 
Q 28.375 -13.375 33.859375 -8.703125 
Q 39.359375 -4.046875 41.109375 4.6875 
L 41.890625 8.796875 
Q 38.140625 4.5 33.15625 2.25 
Q 28.171875 0 22.40625 0 
Q 14.109375 0 9.34375 5.484375 
Q 4.59375 10.984375 4.59375 20.609375 
Q 4.59375 28.171875 7.46875 35.421875 
Q 10.359375 42.671875 15.578125 48.296875 
Q 19.046875 52 23.65625 54 
Q 28.265625 56 33.296875 56 
Q 38.8125 56 42.90625 53.4375 
Q 47.015625 50.875 49.03125 46.1875 
L 50.59375 54.6875 
z
M 46.09375 34.625 
Q 46.09375 41.265625 42.96875 44.875 
Q 39.84375 48.484375 34.078125 48.484375 
Q 30.515625 48.484375 27.296875 47.0625 
Q 24.078125 45.65625 21.78125 43.109375 
Q 18.0625 38.921875 15.984375 33.234375 
Q 13.921875 27.546875 13.921875 21.484375 
Q 13.921875 14.75 17.0625 11.125 
Q 20.21875 7.515625 26.125 7.515625 
Q 34.671875 7.515625 40.375 15.25 
Q 46.09375 23 46.09375 34.625 
z
" id="DejaVuSans-Oblique-103"/>
       <path d="M 8.015625 75.875 
L 15.828125 75.875 
Q 23.140625 64.359375 26.78125 53.3125 
Q 30.421875 42.28125 30.421875 31.390625 
Q 30.421875 20.453125 26.78125 9.375 
Q 23.140625 -1.703125 15.828125 -13.1875 
L 8.015625 -13.1875 
Q 14.5 -2 17.703125 9.0625 
Q 20.90625 20.125 20.90625 31.390625 
Q 20.90625 42.671875 17.703125 53.65625 
Q 14.5 64.65625 8.015625 75.875 
z
" id="DejaVuSans-41"/>
      </defs>
      <use transform="translate(0 0.765625)" xlink:href="#DejaVuSans-83"/>
      <use transform="translate(63.476562 0.765625)" xlink:href="#DejaVuSans-77"/>
      <use transform="translate(149.755859 0.765625)" xlink:href="#DejaVuSans-32"/>
      <use transform="translate(181.542969 0.765625)" xlink:href="#DejaVuSans-105"/>
      <use transform="translate(209.326172 0.765625)" xlink:href="#DejaVuSans-110"/>
      <use transform="translate(272.705078 0.765625)" xlink:href="#DejaVuSans-45"/>
      <use transform="translate(308.789062 0.765625)" xlink:href="#DejaVuSans-47"/>
      <use transform="translate(342.480469 0.765625)" xlink:href="#DejaVuSans-111"/>
      <use transform="translate(403.662109 0.765625)" xlink:href="#DejaVuSans-117"/>
      <use transform="translate(467.041016 0.765625)" xlink:href="#DejaVuSans-116"/>
      <use transform="translate(506.25 0.765625)" xlink:href="#DejaVuSans-45"/>
      <use transform="translate(542.333984 0.765625)" xlink:href="#DejaVuSans-102"/>
      <use transform="translate(577.539062 0.765625)" xlink:href="#DejaVuSans-108"/>
      <use transform="translate(605.322266 0.765625)" xlink:href="#DejaVuSans-117"/>
      <use transform="translate(668.701172 0.765625)" xlink:href="#DejaVuSans-120"/>
      <use transform="translate(727.880859 0.765625)" xlink:href="#DejaVuSans-101"/>
      <use transform="translate(789.404297 0.765625)" xlink:href="#DejaVuSans-115"/>
      <use transform="translate(841.503906 0.765625)" xlink:href="#DejaVuSans-32"/>
      <use transform="translate(873.291016 0.765625)" xlink:href="#DejaVuSans-40"/>
      <use transform="translate(912.304688 0.765625)" xlink:href="#DejaVuSans-Oblique-109"/>
      <use transform="translate(1014.366693 39.046875)scale(0.7)" xlink:href="#DejaVuSans-51"/>
      <use transform="translate(1061.637201 0.765625)" xlink:href="#DejaVuSans-47"/>
      <use transform="translate(1095.328607 0.765625)" xlink:href="#DejaVuSans-Oblique-948"/>
      <use transform="translate(1156.510247 0.765625)" xlink:href="#DejaVuSans-Oblique-116"/>
      <use transform="translate(1195.719232 -15.640625)scale(0.7)" xlink:href="#DejaVuSans-Oblique-101"/>
      <use transform="translate(1238.785638 -15.640625)scale(0.7)" xlink:href="#DejaVuSans-Oblique-120"/>
      <use transform="translate(1280.211419 -15.640625)scale(0.7)" xlink:href="#DejaVuSans-Oblique-99"/>
      <use transform="translate(1318.697747 -15.640625)scale(0.7)" xlink:href="#DejaVuSans-Oblique-104"/>
      <use transform="translate(1363.062982 -15.640625)scale(0.7)" xlink:href="#DejaVuSans-Oblique-97"/>
      <use transform="translate(1405.95849 -15.640625)scale(0.7)" xlink:href="#DejaVuSans-Oblique-110"/>
      <use transform="translate(1450.323724 -15.640625)scale(0.7)" xlink:href="#DejaVuSans-Oblique-103"/>
      <use transform="translate(1494.757318 -15.640625)scale(0.7)" xlink:href="#DejaVuSans-Oblique-101"/>
      <use transform="translate(1540.558099 0.765625)" xlink:href="#DejaVuSans-41"/>
     </g>
    </g>
    <g id="line2d_21">
     <path d="M 44.304688 39 
L 64.304688 39 
" style="fill:none;stroke:#ff6600;stroke-linecap:square;stroke-width:0.75;"/>
    </g>
    <g id="line2d_22"/>
    <g id="text_18">
     <!-- evapotranspiration outflux ($m^3$/$\delta t_{exchange}$) -->
     <g transform="translate(72.304688 42.5)scale(0.1 -0.1)">
      <defs>
       <path d="M 2.984375 54.6875 
L 12.5 54.6875 
L 29.59375 8.796875 
L 46.6875 54.6875 
L 56.203125 54.6875 
L 35.6875 0 
L 23.484375 0 
z
" id="DejaVuSans-118"/>
       <path d="M 34.28125 27.484375 
Q 23.390625 27.484375 19.1875 25 
Q 14.984375 22.515625 14.984375 16.5 
Q 14.984375 11.71875 18.140625 8.90625 
Q 21.296875 6.109375 26.703125 6.109375 
Q 34.1875 6.109375 38.703125 11.40625 
Q 43.21875 16.703125 43.21875 25.484375 
L 43.21875 27.484375 
z
M 52.203125 31.203125 
L 52.203125 0 
L 43.21875 0 
L 43.21875 8.296875 
Q 40.140625 3.328125 35.546875 0.953125 
Q 30.953125 -1.421875 24.3125 -1.421875 
Q 15.921875 -1.421875 10.953125 3.296875 
Q 6 8.015625 6 15.921875 
Q 6 25.140625 12.171875 29.828125 
Q 18.359375 34.515625 30.609375 34.515625 
L 43.21875 34.515625 
L 43.21875 35.40625 
Q 43.21875 41.609375 39.140625 45 
Q 35.0625 48.390625 27.6875 48.390625 
Q 23 48.390625 18.546875 47.265625 
Q 14.109375 46.140625 10.015625 43.890625 
L 10.015625 52.203125 
Q 14.9375 54.109375 19.578125 55.046875 
Q 24.21875 56 28.609375 56 
Q 40.484375 56 46.34375 49.84375 
Q 52.203125 43.703125 52.203125 31.203125 
z
" id="DejaVuSans-97"/>
       <path d="M 18.109375 8.203125 
L 18.109375 -20.796875 
L 9.078125 -20.796875 
L 9.078125 54.6875 
L 18.109375 54.6875 
L 18.109375 46.390625 
Q 20.953125 51.265625 25.265625 53.625 
Q 29.59375 56 35.59375 56 
Q 45.5625 56 51.78125 48.09375 
Q 58.015625 40.1875 58.015625 27.296875 
Q 58.015625 14.40625 51.78125 6.484375 
Q 45.5625 -1.421875 35.59375 -1.421875 
Q 29.59375 -1.421875 25.265625 0.953125 
Q 20.953125 3.328125 18.109375 8.203125 
z
M 48.6875 27.296875 
Q 48.6875 37.203125 44.609375 42.84375 
Q 40.53125 48.484375 33.40625 48.484375 
Q 26.265625 48.484375 22.1875 42.84375 
Q 18.109375 37.203125 18.109375 27.296875 
Q 18.109375 17.390625 22.1875 11.75 
Q 26.265625 6.109375 33.40625 6.109375 
Q 40.53125 6.109375 44.609375 11.75 
Q 48.6875 17.390625 48.6875 27.296875 
z
" id="DejaVuSans-112"/>
       <path d="M 41.109375 46.296875 
Q 39.59375 47.171875 37.8125 47.578125 
Q 36.03125 48 33.890625 48 
Q 26.265625 48 22.1875 43.046875 
Q 18.109375 38.09375 18.109375 28.8125 
L 18.109375 0 
L 9.078125 0 
L 9.078125 54.6875 
L 18.109375 54.6875 
L 18.109375 46.1875 
Q 20.953125 51.171875 25.484375 53.578125 
Q 30.03125 56 36.53125 56 
Q 37.453125 56 38.578125 55.875 
Q 39.703125 55.765625 41.0625 55.515625 
z
" id="DejaVuSans-114"/>
      </defs>
      <use transform="translate(0 0.765625)" xlink:href="#DejaVuSans-101"/>
      <use transform="translate(61.523438 0.765625)" xlink:href="#DejaVuSans-118"/>
      <use transform="translate(120.703125 0.765625)" xlink:href="#DejaVuSans-97"/>
      <use transform="translate(181.982422 0.765625)" xlink:href="#DejaVuSans-112"/>
      <use transform="translate(245.458984 0.765625)" xlink:href="#DejaVuSans-111"/>
      <use transform="translate(306.640625 0.765625)" xlink:href="#DejaVuSans-116"/>
      <use transform="translate(345.849609 0.765625)" xlink:href="#DejaVuSans-114"/>
      <use transform="translate(386.962891 0.765625)" xlink:href="#DejaVuSans-97"/>
      <use transform="translate(448.242188 0.765625)" xlink:href="#DejaVuSans-110"/>
      <use transform="translate(511.621094 0.765625)" xlink:href="#DejaVuSans-115"/>
      <use transform="translate(563.720703 0.765625)" xlink:href="#DejaVuSans-112"/>
      <use transform="translate(627.197266 0.765625)" xlink:href="#DejaVuSans-105"/>
      <use transform="translate(654.980469 0.765625)" xlink:href="#DejaVuSans-114"/>
      <use transform="translate(696.09375 0.765625)" xlink:href="#DejaVuSans-97"/>
      <use transform="translate(757.373047 0.765625)" xlink:href="#DejaVuSans-116"/>
      <use transform="translate(796.582031 0.765625)" xlink:href="#DejaVuSans-105"/>
      <use transform="translate(824.365234 0.765625)" xlink:href="#DejaVuSans-111"/>
      <use transform="translate(885.546875 0.765625)" xlink:href="#DejaVuSans-110"/>
      <use transform="translate(948.925781 0.765625)" xlink:href="#DejaVuSans-32"/>
      <use transform="translate(980.712891 0.765625)" xlink:href="#DejaVuSans-111"/>
      <use transform="translate(1041.894531 0.765625)" xlink:href="#DejaVuSans-117"/>
      <use transform="translate(1105.273438 0.765625)" xlink:href="#DejaVuSans-116"/>
      <use transform="translate(1144.482422 0.765625)" xlink:href="#DejaVuSans-102"/>
      <use transform="translate(1179.6875 0.765625)" xlink:href="#DejaVuSans-108"/>
      <use transform="translate(1207.470703 0.765625)" xlink:href="#DejaVuSans-117"/>
      <use transform="translate(1270.849609 0.765625)" xlink:href="#DejaVuSans-120"/>
      <use transform="translate(1330.029297 0.765625)" xlink:href="#DejaVuSans-32"/>
      <use transform="translate(1361.816406 0.765625)" xlink:href="#DejaVuSans-40"/>
      <use transform="translate(1400.830078 0.765625)" xlink:href="#DejaVuSans-Oblique-109"/>
      <use transform="translate(1502.892083 39.046875)scale(0.7)" xlink:href="#DejaVuSans-51"/>
      <use transform="translate(1550.162591 0.765625)" xlink:href="#DejaVuSans-47"/>
      <use transform="translate(1583.853997 0.765625)" xlink:href="#DejaVuSans-Oblique-948"/>
      <use transform="translate(1645.035638 0.765625)" xlink:href="#DejaVuSans-Oblique-116"/>
      <use transform="translate(1684.244622 -15.640625)scale(0.7)" xlink:href="#DejaVuSans-Oblique-101"/>
      <use transform="translate(1727.311029 -15.640625)scale(0.7)" xlink:href="#DejaVuSans-Oblique-120"/>
      <use transform="translate(1768.73681 -15.640625)scale(0.7)" xlink:href="#DejaVuSans-Oblique-99"/>
      <use transform="translate(1807.223138 -15.640625)scale(0.7)" xlink:href="#DejaVuSans-Oblique-104"/>
      <use transform="translate(1851.588372 -15.640625)scale(0.7)" xlink:href="#DejaVuSans-Oblique-97"/>
      <use transform="translate(1894.48388 -15.640625)scale(0.7)" xlink:href="#DejaVuSans-Oblique-110"/>
      <use transform="translate(1938.849115 -15.640625)scale(0.7)" xlink:href="#DejaVuSans-Oblique-103"/>
      <use transform="translate(1983.282708 -15.640625)scale(0.7)" xlink:href="#DejaVuSans-Oblique-101"/>
      <use transform="translate(2029.08349 0.765625)" xlink:href="#DejaVuSans-41"/>
     </g>
    </g>
   </g>
  </g>
 </g>
 <defs>
  <clipPath id="p5ea098572d">
   <rect height="285.590464" width="411.05" x="35.304688" y="7.2"/>
  </clipPath>
 </defs>
</svg>
