<?xml version="1.0" encoding="utf-8" standalone="no"?>
<!DOCTYPE svg PUBLIC "-//W3C//DTD SVG 1.1//EN"
  "http://www.w3.org/Graphics/SVG/1.1/DTD/svg11.dtd">
<!-- Created with matplotlib (https://matplotlib.org/) -->
<svg height="340.469779pt" version="1.1" viewBox="0 0 493.852088 340.469779" width="493.852088pt" xmlns="http://www.w3.org/2000/svg" xmlns:xlink="http://www.w3.org/1999/xlink">
 <metadata>
  <rdf:RDF xmlns:cc="http://creativecommons.org/ns#" xmlns:dc="http://purl.org/dc/elements/1.1/" xmlns:rdf="http://www.w3.org/1999/02/22-rdf-syntax-ns#">
   <cc:Work>
    <dc:type rdf:resource="http://purl.org/dc/dcmitype/StillImage"/>
    <dc:date>2021-04-19T19:46:57.774299</dc:date>
    <dc:format>image/svg+xml</dc:format>
    <dc:creator>
     <cc:Agent>
      <dc:title>Matplotlib v3.3.2, https://matplotlib.org/</dc:title>
     </cc:Agent>
    </dc:creator>
   </cc:Work>
  </rdf:RDF>
 </metadata>
 <defs>
  <style type="text/css">*{stroke-linecap:butt;stroke-linejoin:round;}</style>
 </defs>
 <g id="figure_1">
  <g id="patch_1">
   <path d="M 0 340.469779 
L 493.852088 340.469779 
L 493.852088 0 
L 0 0 
z
" style="fill:#ffffff;"/>
  </g>
  <g id="axes_1">
   <g id="patch_2">
    <path d="M 49.4875 288.830464 
L 444.364588 288.830464 
L 444.364588 7.2 
L 49.4875 7.2 
z
" style="fill:#ffffff;"/>
   </g>
   <g id="matplotlib.axis_1">
    <g id="xtick_1">
     <g id="line2d_1">
      <defs>
       <path d="M 0 0 
L 0 3.5 
" id="mb2d5840e10" style="stroke:#000000;stroke-width:0.8;"/>
      </defs>
      <g>
       <use style="stroke:#000000;stroke-width:0.8;" x="67.436459" xlink:href="#mb2d5840e10" y="288.830464"/>
      </g>
     </g>
     <g id="text_1">
      <!-- 2020-05-01 -->
      <g transform="translate(16.067007 331.468716)rotate(-30)scale(0.1 -0.1)">
       <defs>
        <path d="M 19.1875 8.296875 
L 53.609375 8.296875 
L 53.609375 0 
L 7.328125 0 
L 7.328125 8.296875 
Q 12.9375 14.109375 22.625 23.890625 
Q 32.328125 33.6875 34.8125 36.53125 
Q 39.546875 41.84375 41.421875 45.53125 
Q 43.3125 49.21875 43.3125 52.78125 
Q 43.3125 58.59375 39.234375 62.25 
Q 35.15625 65.921875 28.609375 65.921875 
Q 23.96875 65.921875 18.8125 64.3125 
Q 13.671875 62.703125 7.8125 59.421875 
L 7.8125 69.390625 
Q 13.765625 71.78125 18.9375 73 
Q 24.125 74.21875 28.421875 74.21875 
Q 39.75 74.21875 46.484375 68.546875 
Q 53.21875 62.890625 53.21875 53.421875 
Q 53.21875 48.921875 51.53125 44.890625 
Q 49.859375 40.875 45.40625 35.40625 
Q 44.1875 33.984375 37.640625 27.21875 
Q 31.109375 20.453125 19.1875 8.296875 
z
" id="DejaVuSans-50"/>
        <path d="M 31.78125 66.40625 
Q 24.171875 66.40625 20.328125 58.90625 
Q 16.5 51.421875 16.5 36.375 
Q 16.5 21.390625 20.328125 13.890625 
Q 24.171875 6.390625 31.78125 6.390625 
Q 39.453125 6.390625 43.28125 13.890625 
Q 47.125 21.390625 47.125 36.375 
Q 47.125 51.421875 43.28125 58.90625 
Q 39.453125 66.40625 31.78125 66.40625 
z
M 31.78125 74.21875 
Q 44.046875 74.21875 50.515625 64.515625 
Q 56.984375 54.828125 56.984375 36.375 
Q 56.984375 17.96875 50.515625 8.265625 
Q 44.046875 -1.421875 31.78125 -1.421875 
Q 19.53125 -1.421875 13.0625 8.265625 
Q 6.59375 17.96875 6.59375 36.375 
Q 6.59375 54.828125 13.0625 64.515625 
Q 19.53125 74.21875 31.78125 74.21875 
z
" id="DejaVuSans-48"/>
        <path d="M 4.890625 31.390625 
L 31.203125 31.390625 
L 31.203125 23.390625 
L 4.890625 23.390625 
z
" id="DejaVuSans-45"/>
        <path d="M 10.796875 72.90625 
L 49.515625 72.90625 
L 49.515625 64.59375 
L 19.828125 64.59375 
L 19.828125 46.734375 
Q 21.96875 47.46875 24.109375 47.828125 
Q 26.265625 48.1875 28.421875 48.1875 
Q 40.625 48.1875 47.75 41.5 
Q 54.890625 34.8125 54.890625 23.390625 
Q 54.890625 11.625 47.5625 5.09375 
Q 40.234375 -1.421875 26.90625 -1.421875 
Q 22.3125 -1.421875 17.546875 -0.640625 
Q 12.796875 0.140625 7.71875 1.703125 
L 7.71875 11.625 
Q 12.109375 9.234375 16.796875 8.0625 
Q 21.484375 6.890625 26.703125 6.890625 
Q 35.15625 6.890625 40.078125 11.328125 
Q 45.015625 15.765625 45.015625 23.390625 
Q 45.015625 31 40.078125 35.4375 
Q 35.15625 39.890625 26.703125 39.890625 
Q 22.75 39.890625 18.8125 39.015625 
Q 14.890625 38.140625 10.796875 36.28125 
z
" id="DejaVuSans-53"/>
        <path d="M 12.40625 8.296875 
L 28.515625 8.296875 
L 28.515625 63.921875 
L 10.984375 60.40625 
L 10.984375 69.390625 
L 28.421875 72.90625 
L 38.28125 72.90625 
L 38.28125 8.296875 
L 54.390625 8.296875 
L 54.390625 0 
L 12.40625 0 
z
" id="DejaVuSans-49"/>
       </defs>
       <use xlink:href="#DejaVuSans-50"/>
       <use x="63.623047" xlink:href="#DejaVuSans-48"/>
       <use x="127.246094" xlink:href="#DejaVuSans-50"/>
       <use x="190.869141" xlink:href="#DejaVuSans-48"/>
       <use x="254.492188" xlink:href="#DejaVuSans-45"/>
       <use x="290.576172" xlink:href="#DejaVuSans-48"/>
       <use x="354.199219" xlink:href="#DejaVuSans-53"/>
       <use x="417.822266" xlink:href="#DejaVuSans-45"/>
       <use x="453.90625" xlink:href="#DejaVuSans-48"/>
       <use x="517.529297" xlink:href="#DejaVuSans-49"/>
      </g>
     </g>
    </g>
    <g id="xtick_2">
     <g id="line2d_2">
      <g>
       <use style="stroke:#000000;stroke-width:0.8;" x="113.756352" xlink:href="#mb2d5840e10" y="288.830464"/>
      </g>
     </g>
     <g id="text_2">
      <!-- 2020-05-05 -->
      <g transform="translate(62.3869 331.468716)rotate(-30)scale(0.1 -0.1)">
       <use xlink:href="#DejaVuSans-50"/>
       <use x="63.623047" xlink:href="#DejaVuSans-48"/>
       <use x="127.246094" xlink:href="#DejaVuSans-50"/>
       <use x="190.869141" xlink:href="#DejaVuSans-48"/>
       <use x="254.492188" xlink:href="#DejaVuSans-45"/>
       <use x="290.576172" xlink:href="#DejaVuSans-48"/>
       <use x="354.199219" xlink:href="#DejaVuSans-53"/>
       <use x="417.822266" xlink:href="#DejaVuSans-45"/>
       <use x="453.90625" xlink:href="#DejaVuSans-48"/>
       <use x="517.529297" xlink:href="#DejaVuSans-53"/>
      </g>
     </g>
    </g>
    <g id="xtick_3">
     <g id="line2d_3">
      <g>
       <use style="stroke:#000000;stroke-width:0.8;" x="160.076244" xlink:href="#mb2d5840e10" y="288.830464"/>
      </g>
     </g>
     <g id="text_3">
      <!-- 2020-05-09 -->
      <g transform="translate(108.706793 331.468716)rotate(-30)scale(0.1 -0.1)">
       <defs>
        <path d="M 10.984375 1.515625 
L 10.984375 10.5 
Q 14.703125 8.734375 18.5 7.8125 
Q 22.3125 6.890625 25.984375 6.890625 
Q 35.75 6.890625 40.890625 13.453125 
Q 46.046875 20.015625 46.78125 33.40625 
Q 43.953125 29.203125 39.59375 26.953125 
Q 35.25 24.703125 29.984375 24.703125 
Q 19.046875 24.703125 12.671875 31.3125 
Q 6.296875 37.9375 6.296875 49.421875 
Q 6.296875 60.640625 12.9375 67.421875 
Q 19.578125 74.21875 30.609375 74.21875 
Q 43.265625 74.21875 49.921875 64.515625 
Q 56.59375 54.828125 56.59375 36.375 
Q 56.59375 19.140625 48.40625 8.859375 
Q 40.234375 -1.421875 26.421875 -1.421875 
Q 22.703125 -1.421875 18.890625 -0.6875 
Q 15.09375 0.046875 10.984375 1.515625 
z
M 30.609375 32.421875 
Q 37.25 32.421875 41.125 36.953125 
Q 45.015625 41.5 45.015625 49.421875 
Q 45.015625 57.28125 41.125 61.84375 
Q 37.25 66.40625 30.609375 66.40625 
Q 23.96875 66.40625 20.09375 61.84375 
Q 16.21875 57.28125 16.21875 49.421875 
Q 16.21875 41.5 20.09375 36.953125 
Q 23.96875 32.421875 30.609375 32.421875 
z
" id="DejaVuSans-57"/>
       </defs>
       <use xlink:href="#DejaVuSans-50"/>
       <use x="63.623047" xlink:href="#DejaVuSans-48"/>
       <use x="127.246094" xlink:href="#DejaVuSans-50"/>
       <use x="190.869141" xlink:href="#DejaVuSans-48"/>
       <use x="254.492188" xlink:href="#DejaVuSans-45"/>
       <use x="290.576172" xlink:href="#DejaVuSans-48"/>
       <use x="354.199219" xlink:href="#DejaVuSans-53"/>
       <use x="417.822266" xlink:href="#DejaVuSans-45"/>
       <use x="453.90625" xlink:href="#DejaVuSans-48"/>
       <use x="517.529297" xlink:href="#DejaVuSans-57"/>
      </g>
     </g>
    </g>
    <g id="xtick_4">
     <g id="line2d_4">
      <g>
       <use style="stroke:#000000;stroke-width:0.8;" x="206.396137" xlink:href="#mb2d5840e10" y="288.830464"/>
      </g>
     </g>
     <g id="text_4">
      <!-- 2020-05-13 -->
      <g transform="translate(155.026686 331.468716)rotate(-30)scale(0.1 -0.1)">
       <defs>
        <path d="M 40.578125 39.3125 
Q 47.65625 37.796875 51.625 33 
Q 55.609375 28.21875 55.609375 21.1875 
Q 55.609375 10.40625 48.1875 4.484375 
Q 40.765625 -1.421875 27.09375 -1.421875 
Q 22.515625 -1.421875 17.65625 -0.515625 
Q 12.796875 0.390625 7.625 2.203125 
L 7.625 11.71875 
Q 11.71875 9.328125 16.59375 8.109375 
Q 21.484375 6.890625 26.8125 6.890625 
Q 36.078125 6.890625 40.9375 10.546875 
Q 45.796875 14.203125 45.796875 21.1875 
Q 45.796875 27.640625 41.28125 31.265625 
Q 36.765625 34.90625 28.71875 34.90625 
L 20.21875 34.90625 
L 20.21875 43.015625 
L 29.109375 43.015625 
Q 36.375 43.015625 40.234375 45.921875 
Q 44.09375 48.828125 44.09375 54.296875 
Q 44.09375 59.90625 40.109375 62.90625 
Q 36.140625 65.921875 28.71875 65.921875 
Q 24.65625 65.921875 20.015625 65.03125 
Q 15.375 64.15625 9.8125 62.3125 
L 9.8125 71.09375 
Q 15.4375 72.65625 20.34375 73.4375 
Q 25.25 74.21875 29.59375 74.21875 
Q 40.828125 74.21875 47.359375 69.109375 
Q 53.90625 64.015625 53.90625 55.328125 
Q 53.90625 49.265625 50.4375 45.09375 
Q 46.96875 40.921875 40.578125 39.3125 
z
" id="DejaVuSans-51"/>
       </defs>
       <use xlink:href="#DejaVuSans-50"/>
       <use x="63.623047" xlink:href="#DejaVuSans-48"/>
       <use x="127.246094" xlink:href="#DejaVuSans-50"/>
       <use x="190.869141" xlink:href="#DejaVuSans-48"/>
       <use x="254.492188" xlink:href="#DejaVuSans-45"/>
       <use x="290.576172" xlink:href="#DejaVuSans-48"/>
       <use x="354.199219" xlink:href="#DejaVuSans-53"/>
       <use x="417.822266" xlink:href="#DejaVuSans-45"/>
       <use x="453.90625" xlink:href="#DejaVuSans-49"/>
       <use x="517.529297" xlink:href="#DejaVuSans-51"/>
      </g>
     </g>
    </g>
    <g id="xtick_5">
     <g id="line2d_5">
      <g>
       <use style="stroke:#000000;stroke-width:0.8;" x="252.71603" xlink:href="#mb2d5840e10" y="288.830464"/>
      </g>
     </g>
     <g id="text_5">
      <!-- 2020-05-17 -->
      <g transform="translate(201.346579 331.468716)rotate(-30)scale(0.1 -0.1)">
       <defs>
        <path d="M 8.203125 72.90625 
L 55.078125 72.90625 
L 55.078125 68.703125 
L 28.609375 0 
L 18.3125 0 
L 43.21875 64.59375 
L 8.203125 64.59375 
z
" id="DejaVuSans-55"/>
       </defs>
       <use xlink:href="#DejaVuSans-50"/>
       <use x="63.623047" xlink:href="#DejaVuSans-48"/>
       <use x="127.246094" xlink:href="#DejaVuSans-50"/>
       <use x="190.869141" xlink:href="#DejaVuSans-48"/>
       <use x="254.492188" xlink:href="#DejaVuSans-45"/>
       <use x="290.576172" xlink:href="#DejaVuSans-48"/>
       <use x="354.199219" xlink:href="#DejaVuSans-53"/>
       <use x="417.822266" xlink:href="#DejaVuSans-45"/>
       <use x="453.90625" xlink:href="#DejaVuSans-49"/>
       <use x="517.529297" xlink:href="#DejaVuSans-55"/>
      </g>
     </g>
    </g>
    <g id="xtick_6">
     <g id="line2d_6">
      <g>
       <use style="stroke:#000000;stroke-width:0.8;" x="299.035923" xlink:href="#mb2d5840e10" y="288.830464"/>
      </g>
     </g>
     <g id="text_6">
      <!-- 2020-05-21 -->
      <g transform="translate(247.666472 331.468716)rotate(-30)scale(0.1 -0.1)">
       <use xlink:href="#DejaVuSans-50"/>
       <use x="63.623047" xlink:href="#DejaVuSans-48"/>
       <use x="127.246094" xlink:href="#DejaVuSans-50"/>
       <use x="190.869141" xlink:href="#DejaVuSans-48"/>
       <use x="254.492188" xlink:href="#DejaVuSans-45"/>
       <use x="290.576172" xlink:href="#DejaVuSans-48"/>
       <use x="354.199219" xlink:href="#DejaVuSans-53"/>
       <use x="417.822266" xlink:href="#DejaVuSans-45"/>
       <use x="453.90625" xlink:href="#DejaVuSans-50"/>
       <use x="517.529297" xlink:href="#DejaVuSans-49"/>
      </g>
     </g>
    </g>
    <g id="xtick_7">
     <g id="line2d_7">
      <g>
       <use style="stroke:#000000;stroke-width:0.8;" x="345.355816" xlink:href="#mb2d5840e10" y="288.830464"/>
      </g>
     </g>
     <g id="text_7">
      <!-- 2020-05-25 -->
      <g transform="translate(293.986365 331.468716)rotate(-30)scale(0.1 -0.1)">
       <use xlink:href="#DejaVuSans-50"/>
       <use x="63.623047" xlink:href="#DejaVuSans-48"/>
       <use x="127.246094" xlink:href="#DejaVuSans-50"/>
       <use x="190.869141" xlink:href="#DejaVuSans-48"/>
       <use x="254.492188" xlink:href="#DejaVuSans-45"/>
       <use x="290.576172" xlink:href="#DejaVuSans-48"/>
       <use x="354.199219" xlink:href="#DejaVuSans-53"/>
       <use x="417.822266" xlink:href="#DejaVuSans-45"/>
       <use x="453.90625" xlink:href="#DejaVuSans-50"/>
       <use x="517.529297" xlink:href="#DejaVuSans-53"/>
      </g>
     </g>
    </g>
    <g id="xtick_8">
     <g id="line2d_8">
      <g>
       <use style="stroke:#000000;stroke-width:0.8;" x="391.675709" xlink:href="#mb2d5840e10" y="288.830464"/>
      </g>
     </g>
     <g id="text_8">
      <!-- 2020-05-29 -->
      <g transform="translate(340.306258 331.468716)rotate(-30)scale(0.1 -0.1)">
       <use xlink:href="#DejaVuSans-50"/>
       <use x="63.623047" xlink:href="#DejaVuSans-48"/>
       <use x="127.246094" xlink:href="#DejaVuSans-50"/>
       <use x="190.869141" xlink:href="#DejaVuSans-48"/>
       <use x="254.492188" xlink:href="#DejaVuSans-45"/>
       <use x="290.576172" xlink:href="#DejaVuSans-48"/>
       <use x="354.199219" xlink:href="#DejaVuSans-53"/>
       <use x="417.822266" xlink:href="#DejaVuSans-45"/>
       <use x="453.90625" xlink:href="#DejaVuSans-50"/>
       <use x="517.529297" xlink:href="#DejaVuSans-57"/>
      </g>
     </g>
    </g>
    <g id="xtick_9">
     <g id="line2d_9">
      <g>
       <use style="stroke:#000000;stroke-width:0.8;" x="426.415629" xlink:href="#mb2d5840e10" y="288.830464"/>
      </g>
     </g>
     <g id="text_9">
      <!-- 2020-06-01 -->
      <g transform="translate(375.046178 331.468716)rotate(-30)scale(0.1 -0.1)">
       <defs>
        <path d="M 33.015625 40.375 
Q 26.375 40.375 22.484375 35.828125 
Q 18.609375 31.296875 18.609375 23.390625 
Q 18.609375 15.53125 22.484375 10.953125 
Q 26.375 6.390625 33.015625 6.390625 
Q 39.65625 6.390625 43.53125 10.953125 
Q 47.40625 15.53125 47.40625 23.390625 
Q 47.40625 31.296875 43.53125 35.828125 
Q 39.65625 40.375 33.015625 40.375 
z
M 52.59375 71.296875 
L 52.59375 62.3125 
Q 48.875 64.0625 45.09375 64.984375 
Q 41.3125 65.921875 37.59375 65.921875 
Q 27.828125 65.921875 22.671875 59.328125 
Q 17.53125 52.734375 16.796875 39.40625 
Q 19.671875 43.65625 24.015625 45.921875 
Q 28.375 48.1875 33.59375 48.1875 
Q 44.578125 48.1875 50.953125 41.515625 
Q 57.328125 34.859375 57.328125 23.390625 
Q 57.328125 12.15625 50.6875 5.359375 
Q 44.046875 -1.421875 33.015625 -1.421875 
Q 20.359375 -1.421875 13.671875 8.265625 
Q 6.984375 17.96875 6.984375 36.375 
Q 6.984375 53.65625 15.1875 63.9375 
Q 23.390625 74.21875 37.203125 74.21875 
Q 40.921875 74.21875 44.703125 73.484375 
Q 48.484375 72.75 52.59375 71.296875 
z
" id="DejaVuSans-54"/>
       </defs>
       <use xlink:href="#DejaVuSans-50"/>
       <use x="63.623047" xlink:href="#DejaVuSans-48"/>
       <use x="127.246094" xlink:href="#DejaVuSans-50"/>
       <use x="190.869141" xlink:href="#DejaVuSans-48"/>
       <use x="254.492188" xlink:href="#DejaVuSans-45"/>
       <use x="290.576172" xlink:href="#DejaVuSans-48"/>
       <use x="354.199219" xlink:href="#DejaVuSans-54"/>
       <use x="417.822266" xlink:href="#DejaVuSans-45"/>
       <use x="453.90625" xlink:href="#DejaVuSans-48"/>
       <use x="517.529297" xlink:href="#DejaVuSans-49"/>
      </g>
     </g>
    </g>
   </g>
   <g id="matplotlib.axis_2">
    <g id="ytick_1">
     <g id="line2d_10">
      <defs>
       <path d="M 0 0 
L -3.5 0 
" id="mc43c692fd5" style="stroke:#000000;stroke-width:0.8;"/>
      </defs>
      <g>
       <use style="stroke:#000000;stroke-width:0.8;" x="49.4875" xlink:href="#mc43c692fd5" y="248.158092"/>
      </g>
     </g>
     <g id="text_10">
      <!-- 0 -->
      <g style="fill:#ff0000;" transform="translate(36.125 251.957311)scale(0.1 -0.1)">
       <use xlink:href="#DejaVuSans-48"/>
      </g>
     </g>
    </g>
    <g id="ytick_2">
     <g id="line2d_11">
      <g>
       <use style="stroke:#000000;stroke-width:0.8;" x="49.4875" xlink:href="#mc43c692fd5" y="201.298807"/>
      </g>
     </g>
     <g id="text_11">
      <!-- 50 -->
      <g style="fill:#ff0000;" transform="translate(29.7625 205.098026)scale(0.1 -0.1)">
       <use xlink:href="#DejaVuSans-53"/>
       <use x="63.623047" xlink:href="#DejaVuSans-48"/>
      </g>
     </g>
    </g>
    <g id="ytick_3">
     <g id="line2d_12">
      <g>
       <use style="stroke:#000000;stroke-width:0.8;" x="49.4875" xlink:href="#mc43c692fd5" y="154.439522"/>
      </g>
     </g>
     <g id="text_12">
      <!-- 100 -->
      <g style="fill:#ff0000;" transform="translate(23.4 158.238741)scale(0.1 -0.1)">
       <use xlink:href="#DejaVuSans-49"/>
       <use x="63.623047" xlink:href="#DejaVuSans-48"/>
       <use x="127.246094" xlink:href="#DejaVuSans-48"/>
      </g>
     </g>
    </g>
    <g id="ytick_4">
     <g id="line2d_13">
      <g>
       <use style="stroke:#000000;stroke-width:0.8;" x="49.4875" xlink:href="#mc43c692fd5" y="107.580238"/>
      </g>
     </g>
     <g id="text_13">
      <!-- 150 -->
      <g style="fill:#ff0000;" transform="translate(23.4 111.379457)scale(0.1 -0.1)">
       <use xlink:href="#DejaVuSans-49"/>
       <use x="63.623047" xlink:href="#DejaVuSans-53"/>
       <use x="127.246094" xlink:href="#DejaVuSans-48"/>
      </g>
     </g>
    </g>
    <g id="ytick_5">
     <g id="line2d_14">
      <g>
       <use style="stroke:#000000;stroke-width:0.8;" x="49.4875" xlink:href="#mc43c692fd5" y="60.720953"/>
      </g>
     </g>
     <g id="text_14">
      <!-- 200 -->
      <g style="fill:#ff0000;" transform="translate(23.4 64.520172)scale(0.1 -0.1)">
       <use xlink:href="#DejaVuSans-50"/>
       <use x="63.623047" xlink:href="#DejaVuSans-48"/>
       <use x="127.246094" xlink:href="#DejaVuSans-48"/>
      </g>
     </g>
    </g>
    <g id="ytick_6">
     <g id="line2d_15">
      <g>
       <use style="stroke:#000000;stroke-width:0.8;" x="49.4875" xlink:href="#mc43c692fd5" y="13.861668"/>
      </g>
     </g>
     <g id="text_15">
      <!-- 250 -->
      <g style="fill:#ff0000;" transform="translate(23.4 17.660887)scale(0.1 -0.1)">
       <use xlink:href="#DejaVuSans-50"/>
       <use x="63.623047" xlink:href="#DejaVuSans-53"/>
       <use x="127.246094" xlink:href="#DejaVuSans-48"/>
      </g>
     </g>
    </g>
    <g id="text_16">
     <!-- total influx (p-et) ($m^3$/$\delta t_{exchange}$) -->
     <g style="fill:#ff0000;" transform="translate(16.3 227.315232)rotate(-90)scale(0.1 -0.1)">
      <defs>
       <path d="M 18.3125 70.21875 
L 18.3125 54.6875 
L 36.8125 54.6875 
L 36.8125 47.703125 
L 18.3125 47.703125 
L 18.3125 18.015625 
Q 18.3125 11.328125 20.140625 9.421875 
Q 21.96875 7.515625 27.59375 7.515625 
L 36.8125 7.515625 
L 36.8125 0 
L 27.59375 0 
Q 17.1875 0 13.234375 3.875 
Q 9.28125 7.765625 9.28125 18.015625 
L 9.28125 47.703125 
L 2.6875 47.703125 
L 2.6875 54.6875 
L 9.28125 54.6875 
L 9.28125 70.21875 
z
" id="DejaVuSans-116"/>
       <path d="M 30.609375 48.390625 
Q 23.390625 48.390625 19.1875 42.75 
Q 14.984375 37.109375 14.984375 27.296875 
Q 14.984375 17.484375 19.15625 11.84375 
Q 23.34375 6.203125 30.609375 6.203125 
Q 37.796875 6.203125 41.984375 11.859375 
Q 46.1875 17.53125 46.1875 27.296875 
Q 46.1875 37.015625 41.984375 42.703125 
Q 37.796875 48.390625 30.609375 48.390625 
z
M 30.609375 56 
Q 42.328125 56 49.015625 48.375 
Q 55.71875 40.765625 55.71875 27.296875 
Q 55.71875 13.875 49.015625 6.21875 
Q 42.328125 -1.421875 30.609375 -1.421875 
Q 18.84375 -1.421875 12.171875 6.21875 
Q 5.515625 13.875 5.515625 27.296875 
Q 5.515625 40.765625 12.171875 48.375 
Q 18.84375 56 30.609375 56 
z
" id="DejaVuSans-111"/>
       <path d="M 34.28125 27.484375 
Q 23.390625 27.484375 19.1875 25 
Q 14.984375 22.515625 14.984375 16.5 
Q 14.984375 11.71875 18.140625 8.90625 
Q 21.296875 6.109375 26.703125 6.109375 
Q 34.1875 6.109375 38.703125 11.40625 
Q 43.21875 16.703125 43.21875 25.484375 
L 43.21875 27.484375 
z
M 52.203125 31.203125 
L 52.203125 0 
L 43.21875 0 
L 43.21875 8.296875 
Q 40.140625 3.328125 35.546875 0.953125 
Q 30.953125 -1.421875 24.3125 -1.421875 
Q 15.921875 -1.421875 10.953125 3.296875 
Q 6 8.015625 6 15.921875 
Q 6 25.140625 12.171875 29.828125 
Q 18.359375 34.515625 30.609375 34.515625 
L 43.21875 34.515625 
L 43.21875 35.40625 
Q 43.21875 41.609375 39.140625 45 
Q 35.0625 48.390625 27.6875 48.390625 
Q 23 48.390625 18.546875 47.265625 
Q 14.109375 46.140625 10.015625 43.890625 
L 10.015625 52.203125 
Q 14.9375 54.109375 19.578125 55.046875 
Q 24.21875 56 28.609375 56 
Q 40.484375 56 46.34375 49.84375 
Q 52.203125 43.703125 52.203125 31.203125 
z
" id="DejaVuSans-97"/>
       <path d="M 9.421875 75.984375 
L 18.40625 75.984375 
L 18.40625 0 
L 9.421875 0 
z
" id="DejaVuSans-108"/>
       <path id="DejaVuSans-32"/>
       <path d="M 9.421875 54.6875 
L 18.40625 54.6875 
L 18.40625 0 
L 9.421875 0 
z
M 9.421875 75.984375 
L 18.40625 75.984375 
L 18.40625 64.59375 
L 9.421875 64.59375 
z
" id="DejaVuSans-105"/>
       <path d="M 54.890625 33.015625 
L 54.890625 0 
L 45.90625 0 
L 45.90625 32.71875 
Q 45.90625 40.484375 42.875 44.328125 
Q 39.84375 48.1875 33.796875 48.1875 
Q 26.515625 48.1875 22.3125 43.546875 
Q 18.109375 38.921875 18.109375 30.90625 
L 18.109375 0 
L 9.078125 0 
L 9.078125 54.6875 
L 18.109375 54.6875 
L 18.109375 46.1875 
Q 21.34375 51.125 25.703125 53.5625 
Q 30.078125 56 35.796875 56 
Q 45.21875 56 50.046875 50.171875 
Q 54.890625 44.34375 54.890625 33.015625 
z
" id="DejaVuSans-110"/>
       <path d="M 37.109375 75.984375 
L 37.109375 68.5 
L 28.515625 68.5 
Q 23.6875 68.5 21.796875 66.546875 
Q 19.921875 64.59375 19.921875 59.515625 
L 19.921875 54.6875 
L 34.71875 54.6875 
L 34.71875 47.703125 
L 19.921875 47.703125 
L 19.921875 0 
L 10.890625 0 
L 10.890625 47.703125 
L 2.296875 47.703125 
L 2.296875 54.6875 
L 10.890625 54.6875 
L 10.890625 58.5 
Q 10.890625 67.625 15.140625 71.796875 
Q 19.390625 75.984375 28.609375 75.984375 
z
" id="DejaVuSans-102"/>
       <path d="M 8.5 21.578125 
L 8.5 54.6875 
L 17.484375 54.6875 
L 17.484375 21.921875 
Q 17.484375 14.15625 20.5 10.265625 
Q 23.53125 6.390625 29.59375 6.390625 
Q 36.859375 6.390625 41.078125 11.03125 
Q 45.3125 15.671875 45.3125 23.6875 
L 45.3125 54.6875 
L 54.296875 54.6875 
L 54.296875 0 
L 45.3125 0 
L 45.3125 8.40625 
Q 42.046875 3.421875 37.71875 1 
Q 33.40625 -1.421875 27.6875 -1.421875 
Q 18.265625 -1.421875 13.375 4.4375 
Q 8.5 10.296875 8.5 21.578125 
z
M 31.109375 56 
z
" id="DejaVuSans-117"/>
       <path d="M 54.890625 54.6875 
L 35.109375 28.078125 
L 55.90625 0 
L 45.3125 0 
L 29.390625 21.484375 
L 13.484375 0 
L 2.875 0 
L 24.125 28.609375 
L 4.6875 54.6875 
L 15.28125 54.6875 
L 29.78125 35.203125 
L 44.28125 54.6875 
z
" id="DejaVuSans-120"/>
       <path d="M 31 75.875 
Q 24.46875 64.65625 21.28125 53.65625 
Q 18.109375 42.671875 18.109375 31.390625 
Q 18.109375 20.125 21.3125 9.0625 
Q 24.515625 -2 31 -13.1875 
L 23.1875 -13.1875 
Q 15.875 -1.703125 12.234375 9.375 
Q 8.59375 20.453125 8.59375 31.390625 
Q 8.59375 42.28125 12.203125 53.3125 
Q 15.828125 64.359375 23.1875 75.875 
z
" id="DejaVuSans-40"/>
       <path d="M 18.109375 8.203125 
L 18.109375 -20.796875 
L 9.078125 -20.796875 
L 9.078125 54.6875 
L 18.109375 54.6875 
L 18.109375 46.390625 
Q 20.953125 51.265625 25.265625 53.625 
Q 29.59375 56 35.59375 56 
Q 45.5625 56 51.78125 48.09375 
Q 58.015625 40.1875 58.015625 27.296875 
Q 58.015625 14.40625 51.78125 6.484375 
Q 45.5625 -1.421875 35.59375 -1.421875 
Q 29.59375 -1.421875 25.265625 0.953125 
Q 20.953125 3.328125 18.109375 8.203125 
z
M 48.6875 27.296875 
Q 48.6875 37.203125 44.609375 42.84375 
Q 40.53125 48.484375 33.40625 48.484375 
Q 26.265625 48.484375 22.1875 42.84375 
Q 18.109375 37.203125 18.109375 27.296875 
Q 18.109375 17.390625 22.1875 11.75 
Q 26.265625 6.109375 33.40625 6.109375 
Q 40.53125 6.109375 44.609375 11.75 
Q 48.6875 17.390625 48.6875 27.296875 
z
" id="DejaVuSans-112"/>
       <path d="M 56.203125 29.59375 
L 56.203125 25.203125 
L 14.890625 25.203125 
Q 15.484375 15.921875 20.484375 11.0625 
Q 25.484375 6.203125 34.421875 6.203125 
Q 39.59375 6.203125 44.453125 7.46875 
Q 49.3125 8.734375 54.109375 11.28125 
L 54.109375 2.78125 
Q 49.265625 0.734375 44.1875 -0.34375 
Q 39.109375 -1.421875 33.890625 -1.421875 
Q 20.796875 -1.421875 13.15625 6.1875 
Q 5.515625 13.8125 5.515625 26.8125 
Q 5.515625 40.234375 12.765625 48.109375 
Q 20.015625 56 32.328125 56 
Q 43.359375 56 49.78125 48.890625 
Q 56.203125 41.796875 56.203125 29.59375 
z
M 47.21875 32.234375 
Q 47.125 39.59375 43.09375 43.984375 
Q 39.0625 48.390625 32.421875 48.390625 
Q 24.90625 48.390625 20.390625 44.140625 
Q 15.875 39.890625 15.1875 32.171875 
z
" id="DejaVuSans-101"/>
       <path d="M 8.015625 75.875 
L 15.828125 75.875 
Q 23.140625 64.359375 26.78125 53.3125 
Q 30.421875 42.28125 30.421875 31.390625 
Q 30.421875 20.453125 26.78125 9.375 
Q 23.140625 -1.703125 15.828125 -13.1875 
L 8.015625 -13.1875 
Q 14.5 -2 17.703125 9.0625 
Q 20.90625 20.125 20.90625 31.390625 
Q 20.90625 42.671875 17.703125 53.65625 
Q 14.5 64.65625 8.015625 75.875 
z
" id="DejaVuSans-41"/>
       <path d="M 89.796875 33.015625 
L 83.40625 0 
L 74.421875 0 
L 80.71875 32.71875 
Q 81.109375 34.8125 81.296875 36.328125 
Q 81.5 37.84375 81.5 38.921875 
Q 81.5 43.3125 79.046875 45.75 
Q 76.609375 48.1875 72.21875 48.1875 
Q 65.671875 48.1875 60.546875 43.28125 
Q 55.421875 38.375 53.90625 30.515625 
L 47.90625 0 
L 38.921875 0 
L 45.3125 32.71875 
Q 45.703125 34.515625 45.890625 36.046875 
Q 46.09375 37.59375 46.09375 38.8125 
Q 46.09375 43.265625 43.65625 45.71875 
Q 41.21875 48.1875 36.921875 48.1875 
Q 30.28125 48.1875 25.140625 43.28125 
Q 20.015625 38.375 18.5 30.515625 
L 12.5 0 
L 3.515625 0 
L 14.203125 54.6875 
L 23.1875 54.6875 
L 21.484375 46.1875 
Q 25.140625 50.984375 30.046875 53.484375 
Q 34.96875 56 40.578125 56 
Q 46.53125 56 50.359375 52.875 
Q 54.203125 49.75 54.984375 44.1875 
Q 59.078125 49.953125 64.46875 52.96875 
Q 69.875 56 75.875 56 
Q 82.90625 56 86.734375 51.953125 
Q 90.578125 47.90625 90.578125 40.484375 
Q 90.578125 38.875 90.375 36.9375 
Q 90.1875 35.015625 89.796875 33.015625 
z
" id="DejaVuSans-Oblique-109"/>
       <path d="M 25.390625 72.90625 
L 33.6875 72.90625 
L 8.296875 -9.28125 
L 0 -9.28125 
z
" id="DejaVuSans-47"/>
       <path d="M 54.25 63.328125 
Q 49.953125 66.75 38.28125 66.75 
Q 25.921875 66.75 24.8125 61.03125 
Q 23.921875 56.546875 36.375 54.203125 
Q 46.140625 52.390625 50.828125 46.921875 
Q 56.5 40.328125 53.859375 26.8125 
Q 51.3125 13.875 43.171875 6.25 
Q 34.96875 -1.421875 23.25 -1.421875 
Q 11.578125 -1.421875 6.34375 6.25 
Q 1.125 13.875 3.765625 27.296875 
Q 5.671875 37.25 13.921875 45.3125 
Q 17.140625 48.4375 21.140625 50.203125 
Q 14.265625 54.046875 15.625 60.9375 
Q 18.21875 74.21875 39.75 74.21875 
Q 50.53125 74.21875 55.71875 70.796875 
z
M 27.390625 47.75 
Q 23.828125 46.34375 20.40625 42.78125 
Q 15.140625 37.25 13.234375 27.296875 
Q 11.28125 17.390625 14.359375 11.8125 
Q 17.484375 6.203125 24.75 6.203125 
Q 31.9375 6.203125 37.203125 11.859375 
Q 42.53125 17.53125 44.34375 26.8125 
Q 46.1875 36.53125 42.671875 41.21875 
Q 38.921875 46.234375 32.859375 46.78125 
Q 29.78125 47.078125 27.390625 47.75 
z
" id="DejaVuSans-Oblique-948"/>
       <path d="M 42.28125 54.6875 
L 40.921875 47.703125 
L 23 47.703125 
L 17.1875 18.015625 
Q 16.890625 16.359375 16.75 15.234375 
Q 16.609375 14.109375 16.609375 13.484375 
Q 16.609375 10.359375 18.484375 8.9375 
Q 20.359375 7.515625 24.515625 7.515625 
L 33.59375 7.515625 
L 32.078125 0 
L 23.484375 0 
Q 15.484375 0 11.546875 3.125 
Q 7.625 6.25 7.625 12.59375 
Q 7.625 13.71875 7.765625 15.0625 
Q 7.90625 16.40625 8.203125 18.015625 
L 14.015625 47.703125 
L 6.390625 47.703125 
L 7.8125 54.6875 
L 15.28125 54.6875 
L 18.3125 70.21875 
L 27.296875 70.21875 
L 24.3125 54.6875 
z
" id="DejaVuSans-Oblique-116"/>
       <path d="M 48.09375 32.234375 
Q 48.25 33.015625 48.3125 33.84375 
Q 48.390625 34.671875 48.390625 35.5 
Q 48.390625 41.453125 44.890625 44.921875 
Q 41.40625 48.390625 35.40625 48.390625 
Q 28.71875 48.390625 23.578125 44.15625 
Q 18.453125 39.9375 15.828125 32.171875 
z
M 55.90625 25.203125 
L 14.109375 25.203125 
Q 13.8125 23.34375 13.71875 22.265625 
Q 13.625 21.1875 13.625 20.40625 
Q 13.625 13.625 17.796875 9.90625 
Q 21.96875 6.203125 29.59375 6.203125 
Q 35.453125 6.203125 40.671875 7.515625 
Q 45.90625 8.84375 50.390625 11.375 
L 48.6875 2.484375 
Q 43.84375 0.53125 38.6875 -0.4375 
Q 33.546875 -1.421875 28.21875 -1.421875 
Q 16.84375 -1.421875 10.71875 4.015625 
Q 4.59375 9.46875 4.59375 19.484375 
Q 4.59375 28.03125 7.640625 35.375 
Q 10.6875 42.71875 16.609375 48.484375 
Q 20.40625 52.09375 25.65625 54.046875 
Q 30.90625 56 36.8125 56 
Q 46.09375 56 51.578125 50.4375 
Q 57.078125 44.875 57.078125 35.5 
Q 57.078125 33.25 56.78125 30.6875 
Q 56.5 28.125 55.90625 25.203125 
z
" id="DejaVuSans-Oblique-101"/>
       <path d="M 60.015625 54.6875 
L 34.90625 27.875 
L 50.296875 0 
L 39.984375 0 
L 28.421875 21.6875 
L 8.296875 0 
L -2.59375 0 
L 24.3125 28.8125 
L 10.015625 54.6875 
L 20.3125 54.6875 
L 30.8125 34.90625 
L 49.125 54.6875 
z
" id="DejaVuSans-Oblique-120"/>
       <path d="M 53.609375 52.59375 
L 51.8125 43.703125 
Q 48.578125 46.046875 44.9375 47.21875 
Q 41.3125 48.390625 37.40625 48.390625 
Q 33.109375 48.390625 29.21875 46.875 
Q 25.34375 45.359375 22.703125 42.578125 
Q 18.5 38.328125 16.203125 32.609375 
Q 13.921875 26.90625 13.921875 20.796875 
Q 13.921875 13.421875 17.609375 9.8125 
Q 21.296875 6.203125 28.8125 6.203125 
Q 32.515625 6.203125 36.6875 7.328125 
Q 40.875 8.453125 45.40625 10.6875 
L 43.703125 1.8125 
Q 39.796875 0.203125 35.671875 -0.609375 
Q 31.546875 -1.421875 27.203125 -1.421875 
Q 16.3125 -1.421875 10.453125 4.015625 
Q 4.59375 9.46875 4.59375 19.578125 
Q 4.59375 28.078125 7.640625 35.234375 
Q 10.6875 42.390625 16.703125 48.09375 
Q 20.796875 52 26.3125 54 
Q 31.84375 56 38.375 56 
Q 42.1875 56 45.9375 55.140625 
Q 49.703125 54.296875 53.609375 52.59375 
z
" id="DejaVuSans-Oblique-99"/>
       <path d="M 55.71875 33.015625 
L 49.3125 0 
L 40.28125 0 
L 46.6875 32.671875 
Q 47.125 34.96875 47.359375 36.71875 
Q 47.609375 38.484375 47.609375 39.5 
Q 47.609375 43.609375 45.015625 45.890625 
Q 42.4375 48.1875 37.796875 48.1875 
Q 30.5625 48.1875 25.265625 43.296875 
Q 19.96875 38.421875 18.40625 30.328125 
L 12.5 0 
L 3.515625 0 
L 18.3125 75.984375 
L 27.296875 75.984375 
L 21.484375 46.09375 
Q 24.90625 50.6875 30.21875 53.34375 
Q 35.546875 56 41.40625 56 
Q 48.640625 56 52.609375 52.09375 
Q 56.59375 48.1875 56.59375 41.109375 
Q 56.59375 39.359375 56.375 37.359375 
Q 56.15625 35.359375 55.71875 33.015625 
z
" id="DejaVuSans-Oblique-104"/>
       <path d="M 53.71875 31.203125 
L 47.609375 0 
L 38.625 0 
L 40.28125 8.296875 
Q 36.328125 3.421875 31.265625 1 
Q 26.21875 -1.421875 20.015625 -1.421875 
Q 13.03125 -1.421875 8.5625 2.84375 
Q 4.109375 7.125 4.109375 13.8125 
Q 4.109375 23.390625 11.75 28.953125 
Q 19.390625 34.515625 32.8125 34.515625 
L 45.3125 34.515625 
L 45.796875 36.921875 
Q 45.90625 37.3125 45.953125 37.765625 
Q 46 38.234375 46 39.203125 
Q 46 43.5625 42.453125 45.96875 
Q 38.921875 48.390625 32.515625 48.390625 
Q 28.125 48.390625 23.5 47.265625 
Q 18.890625 46.140625 14.015625 43.890625 
L 15.578125 52.203125 
Q 20.65625 54.109375 25.515625 55.046875 
Q 30.375 56 34.90625 56 
Q 44.578125 56 49.625 51.796875 
Q 54.6875 47.609375 54.6875 39.59375 
Q 54.6875 37.984375 54.4375 35.8125 
Q 54.203125 33.640625 53.71875 31.203125 
z
M 44 27.484375 
L 35.015625 27.484375 
Q 23.96875 27.484375 18.671875 24.53125 
Q 13.375 21.578125 13.375 15.375 
Q 13.375 11.078125 16.078125 8.640625 
Q 18.796875 6.203125 23.578125 6.203125 
Q 30.90625 6.203125 36.375 11.453125 
Q 41.84375 16.703125 43.609375 25.484375 
z
" id="DejaVuSans-Oblique-97"/>
       <path d="M 55.71875 33.015625 
L 49.3125 0 
L 40.28125 0 
L 46.6875 32.671875 
Q 47.125 34.96875 47.359375 36.71875 
Q 47.609375 38.484375 47.609375 39.5 
Q 47.609375 43.609375 45.015625 45.890625 
Q 42.4375 48.1875 37.796875 48.1875 
Q 30.5625 48.1875 25.34375 43.375 
Q 20.125 38.578125 18.5 30.328125 
L 12.5 0 
L 3.515625 0 
L 14.109375 54.6875 
L 23.09375 54.6875 
L 21.296875 46.09375 
Q 25.046875 50.828125 30.3125 53.40625 
Q 35.59375 56 41.40625 56 
Q 48.640625 56 52.609375 52.09375 
Q 56.59375 48.1875 56.59375 41.109375 
Q 56.59375 39.359375 56.375 37.359375 
Q 56.15625 35.359375 55.71875 33.015625 
z
" id="DejaVuSans-Oblique-110"/>
       <path d="M 59.625 54.6875 
L 50.296875 6.78125 
Q 47.609375 -7.125 40.015625 -13.953125 
Q 32.421875 -20.796875 19.578125 -20.796875 
Q 14.84375 -20.796875 10.78125 -20.09375 
Q 6.734375 -19.390625 3.21875 -17.921875 
L 4.890625 -9.1875 
Q 8.203125 -11.328125 11.90625 -12.34375 
Q 15.625 -13.375 19.828125 -13.375 
Q 28.375 -13.375 33.859375 -8.703125 
Q 39.359375 -4.046875 41.109375 4.6875 
L 41.890625 8.796875 
Q 38.140625 4.5 33.15625 2.25 
Q 28.171875 0 22.40625 0 
Q 14.109375 0 9.34375 5.484375 
Q 4.59375 10.984375 4.59375 20.609375 
Q 4.59375 28.171875 7.46875 35.421875 
Q 10.359375 42.671875 15.578125 48.296875 
Q 19.046875 52 23.65625 54 
Q 28.265625 56 33.296875 56 
Q 38.8125 56 42.90625 53.4375 
Q 47.015625 50.875 49.03125 46.1875 
L 50.59375 54.6875 
z
M 46.09375 34.625 
Q 46.09375 41.265625 42.96875 44.875 
Q 39.84375 48.484375 34.078125 48.484375 
Q 30.515625 48.484375 27.296875 47.0625 
Q 24.078125 45.65625 21.78125 43.109375 
Q 18.0625 38.921875 15.984375 33.234375 
Q 13.921875 27.546875 13.921875 21.484375 
Q 13.921875 14.75 17.0625 11.125 
Q 20.21875 7.515625 26.125 7.515625 
Q 34.671875 7.515625 40.375 15.25 
Q 46.09375 23 46.09375 34.625 
z
" id="DejaVuSans-Oblique-103"/>
      </defs>
      <use transform="translate(0 0.765625)" xlink:href="#DejaVuSans-116"/>
      <use transform="translate(39.208984 0.765625)" xlink:href="#DejaVuSans-111"/>
      <use transform="translate(100.390625 0.765625)" xlink:href="#DejaVuSans-116"/>
      <use transform="translate(139.599609 0.765625)" xlink:href="#DejaVuSans-97"/>
      <use transform="translate(200.878906 0.765625)" xlink:href="#DejaVuSans-108"/>
      <use transform="translate(228.662109 0.765625)" xlink:href="#DejaVuSans-32"/>
      <use transform="translate(260.449219 0.765625)" xlink:href="#DejaVuSans-105"/>
      <use transform="translate(288.232422 0.765625)" xlink:href="#DejaVuSans-110"/>
      <use transform="translate(351.611328 0.765625)" xlink:href="#DejaVuSans-102"/>
      <use transform="translate(386.816406 0.765625)" xlink:href="#DejaVuSans-108"/>
      <use transform="translate(414.599609 0.765625)" xlink:href="#DejaVuSans-117"/>
      <use transform="translate(477.978516 0.765625)" xlink:href="#DejaVuSans-120"/>
      <use transform="translate(537.158203 0.765625)" xlink:href="#DejaVuSans-32"/>
      <use transform="translate(568.945312 0.765625)" xlink:href="#DejaVuSans-40"/>
      <use transform="translate(607.958984 0.765625)" xlink:href="#DejaVuSans-112"/>
      <use transform="translate(671.435547 0.765625)" xlink:href="#DejaVuSans-45"/>
      <use transform="translate(707.519531 0.765625)" xlink:href="#DejaVuSans-101"/>
      <use transform="translate(769.042969 0.765625)" xlink:href="#DejaVuSans-116"/>
      <use transform="translate(808.251953 0.765625)" xlink:href="#DejaVuSans-41"/>
      <use transform="translate(847.265625 0.765625)" xlink:href="#DejaVuSans-32"/>
      <use transform="translate(879.052734 0.765625)" xlink:href="#DejaVuSans-40"/>
      <use transform="translate(918.066406 0.765625)" xlink:href="#DejaVuSans-Oblique-109"/>
      <use transform="translate(1020.128411 39.046875)scale(0.7)" xlink:href="#DejaVuSans-51"/>
      <use transform="translate(1067.398919 0.765625)" xlink:href="#DejaVuSans-47"/>
      <use transform="translate(1101.090326 0.765625)" xlink:href="#DejaVuSans-Oblique-948"/>
      <use transform="translate(1162.271966 0.765625)" xlink:href="#DejaVuSans-Oblique-116"/>
      <use transform="translate(1201.480951 -15.640625)scale(0.7)" xlink:href="#DejaVuSans-Oblique-101"/>
      <use transform="translate(1244.547357 -15.640625)scale(0.7)" xlink:href="#DejaVuSans-Oblique-120"/>
      <use transform="translate(1285.973138 -15.640625)scale(0.7)" xlink:href="#DejaVuSans-Oblique-99"/>
      <use transform="translate(1324.459466 -15.640625)scale(0.7)" xlink:href="#DejaVuSans-Oblique-104"/>
      <use transform="translate(1368.824701 -15.640625)scale(0.7)" xlink:href="#DejaVuSans-Oblique-97"/>
      <use transform="translate(1411.720208 -15.640625)scale(0.7)" xlink:href="#DejaVuSans-Oblique-110"/>
      <use transform="translate(1456.085443 -15.640625)scale(0.7)" xlink:href="#DejaVuSans-Oblique-103"/>
      <use transform="translate(1500.519036 -15.640625)scale(0.7)" xlink:href="#DejaVuSans-Oblique-101"/>
      <use transform="translate(1546.319818 0.765625)" xlink:href="#DejaVuSans-41"/>
     </g>
    </g>
   </g>
   <g id="line2d_16">
    <path clip-path="url(#pf93b4aeafe)" d="M 67.436459 248.158092 
L 67.918957 248.729668 
L 68.883955 248.247206 
L 69.366454 248.569486 
L 69.848953 248.647785 
L 70.331452 248.571093 
L 70.813951 242.716589 
L 71.29645 250.877546 
L 71.778948 251.46142 
L 72.261447 253.00163 
L 72.743946 261.167037 
L 73.226445 260.22201 
L 73.708944 257.801724 
L 74.191443 257.885276 
L 74.673942 255.761315 
L 75.156441 256.080938 
L 76.603937 232.421659 
L 77.086436 218.532329 
L 77.568935 248.905918 
L 78.051434 248.542171 
L 78.533933 248.639689 
L 79.016432 248.342005 
L 79.498931 248.300044 
L 79.98143 248.381124 
L 80.463928 248.23602 
L 80.946427 248.426298 
L 81.428926 20.001385 
L 81.911425 192.74328 
L 82.393924 217.555353 
L 82.876423 249.866209 
L 83.358922 219.116698 
L 83.841421 238.720929 
L 84.32392 233.319533 
L 84.806418 178.193445 
L 85.288917 234.362758 
L 85.771416 254.872711 
L 86.253915 256.46168 
L 86.736414 247.720062 
L 87.218913 241.201283 
L 87.701412 215.227579 
L 88.183911 239.08035 
L 88.666409 250.307514 
L 89.148908 249.511423 
L 89.631407 248.487356 
L 90.113906 248.233548 
L 91.078904 248.158092 
L 93.973897 248.158092 
L 94.456396 249.015179 
L 94.938895 252.567741 
L 95.421394 258.589411 
L 96.386392 267.088655 
L 97.351389 271.140057 
L 97.833888 270.823894 
L 98.316387 269.636308 
L 98.798886 267.960758 
L 99.281385 261.421153 
L 100.246383 253.468829 
L 101.21138 250.176995 
L 101.693879 250.517321 
L 102.658877 236.427516 
L 103.141376 236.049307 
L 103.623875 248.267105 
L 104.106374 248.278167 
L 104.588873 248.158092 
L 105.55387 248.180772 
L 106.036369 249.309402 
L 106.518868 251.359514 
L 107.483866 253.077025 
L 107.966365 260.874234 
L 108.448864 261.601482 
L 108.931363 270.246447 
L 109.413862 271.337813 
L 109.89636 269.818985 
L 110.378859 262.642544 
L 110.861358 260.277135 
L 112.308855 250.750796 
L 112.791354 249.504934 
L 113.273853 250.101168 
L 114.23885 249.844889 
L 114.721349 249.313358 
L 115.203848 249.233637 
L 115.686347 249.007268 
L 116.651345 248.910924 
L 117.133844 248.936756 
L 117.616343 250.195102 
L 118.098841 250.911164 
L 118.58134 251.873247 
L 119.063839 246.149942 
L 119.546338 209.458481 
L 120.028837 253.110273 
L 120.993835 228.571226 
L 121.476334 253.391889 
L 122.441331 252.648327 
L 122.92383 251.065228 
L 123.406329 250.054634 
L 123.888828 248.771692 
L 125.336325 248.790726 
L 125.818824 248.514053 
L 126.301323 248.683196 
L 126.783821 248.481176 
L 127.26632 248.460597 
L 127.748819 248.815507 
L 128.713817 249.105714 
L 129.196316 251.038408 
L 130.161314 259.399778 
L 130.643812 258.68143 
L 131.126311 265.820112 
L 131.60881 268.949291 
L 132.091309 271.074859 
L 133.056307 269.477794 
L 133.538806 267.111767 
L 134.503804 259.784228 
L 135.468801 250.770943 
L 135.9513 249.418972 
L 137.398797 248.702106 
L 137.881296 248.387551 
L 140.29379 248.269639 
L 140.776289 250.466213 
L 141.741287 260.259893 
L 142.706285 270.570952 
L 143.671282 274.812942 
L 144.153781 274.488745 
L 144.63628 273.266181 
L 145.118779 270.833906 
L 145.601278 267.068199 
L 147.048775 250.716066 
L 147.531273 249.923806 
L 148.013772 249.62816 
L 148.496271 248.728618 
L 150.426267 248.363016 
L 151.873763 248.311353 
L 152.356262 250.4431 
L 154.286258 272.346925 
L 154.768757 274.618337 
L 155.251256 275.312461 
L 155.733755 274.483184 
L 156.216253 275.434699 
L 156.698752 270.608155 
L 157.181251 263.117714 
L 158.146249 255.791535 
L 158.628748 252.113273 
L 159.111247 249.749719 
L 159.593746 249.222884 
L 161.523741 248.407388 
L 162.971238 248.267476 
L 163.453737 248.403309 
L 163.936236 224.754289 
L 164.418734 252.513111 
L 164.901233 261.874694 
L 165.383732 265.980727 
L 165.866231 268.075148 
L 166.34873 262.246785 
L 166.831229 276.029079 
L 167.796227 274.370092 
L 168.278726 271.549103 
L 169.243723 261.068653 
L 169.726222 253.369271 
L 170.208721 250.812842 
L 170.69122 250.367088 
L 171.173719 250.125022 
L 171.656218 249.408404 
L 172.138717 249.21003 
L 172.621216 248.643521 
L 173.103714 248.356837 
L 174.068712 248.48031 
L 174.551211 248.383657 
L 175.03371 211.467373 
L 175.516209 63.90618 
L 176.481207 252.786694 
L 176.963705 253.562578 
L 177.446204 261.485795 
L 177.928703 260.842779 
L 178.411202 274.035204 
L 178.893701 274.551348 
L 179.3762 273.041666 
L 179.858699 270.075203 
L 180.341198 266.218096 
L 181.306195 253.222684 
L 181.788694 249.399567 
L 183.236191 248.415422 
L 184.201189 248.382977 
L 184.683688 248.311167 
L 185.648685 248.334651 
L 186.131184 248.611509 
L 186.613683 242.502703 
L 187.096182 249.862378 
L 187.578681 244.676536 
L 188.06118 252.089481 
L 188.543679 253.061452 
L 189.026178 262.687595 
L 189.508676 269.503502 
L 189.991175 260.689147 
L 190.473674 255.034933 
L 190.956173 253.939426 
L 191.438672 253.351782 
L 191.921171 208.107066 
L 192.40367 238.37912 
L 192.886169 250.504899 
L 193.368668 218.451373 
L 193.851166 174.709355 
L 194.333665 168.399394 
L 194.816164 205.348617 
L 195.298663 217.64527 
L 195.781162 223.737514 
L 196.263661 242.502023 
L 196.74616 248.764461 
L 197.711158 248.84721 
L 198.193656 248.908514 
L 198.676155 251.040694 
L 199.158654 254.288836 
L 199.641153 254.61569 
L 200.123652 253.655276 
L 200.606151 258.603131 
L 201.08865 260.709479 
L 201.571149 262.026101 
L 202.053648 265.611603 
L 202.536146 265.46137 
L 203.018645 264.084432 
L 203.501144 260.543426 
L 204.466142 251.978985 
L 205.43114 248.892755 
L 205.913639 248.765265 
L 206.396137 248.851041 
L 206.878636 248.768231 
L 207.361135 248.932368 
L 208.326133 248.972414 
L 208.808632 248.715269 
L 209.291131 248.793754 
L 209.77363 242.56994 
L 210.256129 249.70819 
L 210.738627 244.537736 
L 211.221126 171.177 
L 211.703625 252.588259 
L 212.186124 253.573145 
L 212.668623 247.380973 
L 213.151122 247.654803 
L 213.633621 254.325051 
L 214.11612 241.155429 
L 214.598619 252.543949 
L 215.081117 252.087503 
L 215.563616 250.945833 
L 216.046115 250.510894 
L 216.528614 249.412545 
L 217.493612 248.932059 
L 217.976111 249.019134 
L 218.45861 248.742028 
L 218.941108 211.345197 
L 219.423607 155.659582 
L 219.906106 198.928284 
L 220.388605 143.218135 
L 220.871104 198.842013 
L 221.353603 217.76757 
L 221.836102 243.384015 
L 222.318601 250.542905 
L 223.766097 253.876453 
L 224.248596 254.081007 
L 224.731095 254.564521 
L 225.213594 254.732057 
L 225.696093 254.562172 
L 226.178592 253.524448 
L 226.661091 253.088025 
L 228.108587 250.078426 
L 228.591086 249.868805 
L 229.556084 249.776972 
L 230.038583 249.933755 
L 230.521082 249.888519 
L 231.003581 249.996543 
L 231.48608 250.218524 
L 231.968578 249.757258 
L 232.933576 250.03183 
L 233.898574 252.075885 
L 234.863572 253.688462 
L 235.346071 254.136317 
L 235.828569 254.840576 
L 236.311068 254.894032 
L 236.793567 254.449637 
L 237.276066 254.226173 
L 237.758565 254.464963 
L 238.241064 256.716477 
L 238.723563 253.185605 
L 239.688561 249.487692 
L 240.171059 248.888059 
L 241.136057 248.263644 
L 244.513549 248.183244 
L 244.996048 251.085251 
L 245.478547 254.951999 
L 246.443545 266.291389 
L 246.926044 267.869605 
L 247.408543 270.572991 
L 247.891042 272.134213 
L 248.37354 272.272272 
L 248.856039 270.695538 
L 249.338538 268.059636 
L 250.303536 260.760092 
L 251.268534 250.610946 
L 251.751033 249.624947 
L 252.233532 249.48281 
L 252.71603 248.896587 
L 253.681028 248.368702 
L 255.128525 248.23052 
L 256.093523 248.267167 
L 256.576022 251.404071 
L 258.506017 271.563255 
L 258.988516 273.447498 
L 259.471015 274.448205 
L 259.953514 274.22814 
L 260.436013 272.786932 
L 260.918512 270.689111 
L 261.883509 263.365095 
L 262.848507 251.409015 
L 263.331006 250.176253 
L 263.813505 249.680689 
L 264.296004 249.373735 
L 264.778503 248.921492 
L 265.261001 248.650999 
L 265.7435 248.648588 
L 266.225999 248.424568 
L 267.673496 248.434579 
L 268.155995 251.853471 
L 269.603491 266.675036 
L 270.08599 271.370999 
L 270.568489 274.385418 
L 271.050988 275.850419 
L 271.533487 275.377968 
L 272.498485 270.869316 
L 272.980984 267.199398 
L 274.42848 250.707476 
L 274.910979 250.326177 
L 275.393478 249.432444 
L 276.358476 248.885587 
L 276.840975 248.697533 
L 277.323474 248.738753 
L 278.77097 248.331561 
L 279.253469 248.542851 
L 279.735968 252.504645 
L 281.183465 268.943606 
L 281.665964 272.328199 
L 282.148462 274.457413 
L 282.630961 275.769895 
L 283.11346 270.9402 
L 283.595959 267.378491 
L 284.078458 271.214339 
L 284.560957 266.825145 
L 285.043456 258.670615 
L 286.008454 253.423778 
L 286.490952 252.294776 
L 286.973451 252.131875 
L 287.45595 251.130117 
L 287.938449 250.816241 
L 288.420948 250.635542 
L 289.868445 249.68656 
L 290.350944 249.178204 
L 290.833442 249.474714 
L 291.79844 252.687322 
L 292.280939 257.922479 
L 292.763438 257.789488 
L 293.245937 261.089912 
L 293.728436 272.755043 
L 294.210935 272.768392 
L 294.693433 269.431754 
L 295.658431 265.896001 
L 296.14093 259.007727 
L 296.623429 256.680942 
L 297.105928 255.873418 
L 297.588427 251.092173 
L 298.070926 249.262621 
L 298.553425 249.223131 
L 300.965919 248.31846 
L 301.930917 248.243003 
L 302.413416 248.344724 
L 302.895915 251.935973 
L 304.82591 270.917458 
L 305.308409 271.929721 
L 305.790908 269.112749 
L 306.755906 272.961884 
L 307.238404 269.812064 
L 308.203402 261.189284 
L 309.1684 249.463281 
L 309.650899 249.739089 
L 310.133398 248.775029 
L 311.098396 248.689005 
L 311.580894 248.37309 
L 312.063393 248.440265 
L 313.028391 248.286077 
L 313.51089 248.241335 
L 313.993389 248.374387 
L 314.475888 251.514196 
L 315.440886 262.516969 
L 315.923384 263.292358 
L 316.405883 270.240082 
L 316.888382 260.510487 
L 317.370881 263.018775 
L 317.85338 274.150397 
L 318.335879 272.094971 
L 318.818378 269.103726 
L 319.300877 257.677138 
L 319.783376 256.209047 
L 321.230872 249.14545 
L 322.19587 248.625723 
L 322.678369 249.997223 
L 323.160868 250.149742 
L 323.643367 249.917688 
L 324.125865 249.526749 
L 324.608364 248.496378 
L 325.090863 248.371545 
L 325.573362 248.912346 
L 326.055861 249.963789 
L 326.53836 251.420324 
L 327.020859 241.132501 
L 327.503358 192.395415 
L 327.985857 264.962469 
L 328.468355 268.43185 
L 328.950854 55.098314 
L 329.433353 147.535581 
L 329.915852 116.481093 
L 330.398351 171.559102 
L 330.88085 170.904839 
L 331.363349 151.739441 
L 331.845848 237.383728 
L 332.328347 230.213775 
L 332.810845 248.639937 
L 333.775843 248.158092 
L 335.22334 248.37655 
L 335.705839 248.485934 
L 336.188338 248.730966 
L 336.670836 248.650072 
L 337.153335 248.824962 
L 337.635834 250.451814 
L 338.118333 255.042225 
L 339.083331 261.963314 
L 339.56583 264.010583 
L 340.048329 258.446162 
L 340.530828 264.869894 
L 341.013326 269.580009 
L 341.495825 268.763462 
L 342.460823 265.39024 
L 342.943322 260.902476 
L 343.425821 255.310493 
L 344.390819 249.153237 
L 345.355816 248.449844 
L 345.838315 248.712056 
L 346.320814 248.633819 
L 346.803313 248.318521 
L 347.768311 248.290218 
L 348.25081 248.427102 
L 348.733309 248.688078 
L 349.698306 250.870933 
L 350.663304 253.527229 
L 351.145803 260.955562 
L 351.628302 257.570041 
L 352.110801 257.430129 
L 352.5933 261.05549 
L 353.075799 262.611212 
L 354.040796 258.224242 
L 354.523295 256.928385 
L 355.488293 249.527119 
L 355.970792 249.007145 
L 356.93579 248.373028 
L 357.418289 248.209879 
L 359.830783 248.223784 
L 360.313282 248.28274 
L 361.27828 256.324734 
L 361.760779 261.278151 
L 362.243277 264.221564 
L 362.725776 265.709801 
L 363.208275 270.053017 
L 363.690774 271.659846 
L 364.173273 267.825357 
L 364.655772 268.725147 
L 365.138271 263.900334 
L 365.62077 262.86057 
L 366.103268 260.93146 
L 367.068266 252.251332 
L 367.550765 249.9772 
L 368.033264 249.334678 
L 368.515763 249.050713 
L 368.998262 249.080933 
L 369.96326 248.794372 
L 370.928257 248.442922 
L 371.410756 248.416472 
L 371.893255 248.612745 
L 372.375754 252.342918 
L 373.823251 267.876341 
L 374.788248 272.500618 
L 375.270747 273.338362 
L 375.753246 273.368643 
L 376.235745 272.174382 
L 376.718244 269.587981 
L 377.683242 261.836935 
L 378.165741 256.0006 
L 378.64824 251.931956 
L 379.130738 249.910148 
L 380.095736 248.900913 
L 380.578235 248.869519 
L 381.060734 248.528946 
L 382.025732 248.427287 
L 382.990729 248.357578 
L 383.473228 248.892199 
L 383.955727 249.811641 
L 384.438226 251.778695 
L 384.920725 260.174116 
L 385.885723 269.032905 
L 386.368222 262.632532 
L 386.850721 266.721508 
L 387.333219 269.232515 
L 387.815718 263.217828 
L 388.298217 253.320079 
L 388.780716 261.765496 
L 389.745714 257.148512 
L 390.228213 253.455542 
L 390.710712 250.689677 
L 391.193211 249.677723 
L 391.675709 249.556721 
L 392.158208 250.164326 
L 392.640707 251.460802 
L 393.605705 249.359768 
L 394.570703 249.26707 
L 395.053202 249.621672 
L 395.5357 252.791453 
L 396.018199 257.496191 
L 396.983197 264.13968 
L 397.465696 266.561264 
L 397.948195 267.898898 
L 398.430694 267.596084 
L 398.913193 268.383524 
L 399.395692 269.770102 
L 401.325687 256.176665 
L 401.808186 252.135954 
L 402.290685 250.786516 
L 402.773184 250.524057 
L 403.255683 249.72055 
L 403.738182 249.3526 
L 404.22068 249.640211 
L 405.668177 249.524339 
L 406.150676 249.388628 
L 406.633175 249.496467 
L 407.115674 252.580534 
L 408.080672 261.264988 
L 408.56317 264.89449 
L 409.528168 269.826092 
L 410.010667 269.223183 
L 410.493166 263.580958 
L 410.975665 261.452053 
L 411.458164 263.837237 
L 411.940663 261.374434 
L 412.423161 259.57473 
L 413.388159 251.432869 
L 413.870658 249.682543 
L 414.353157 249.218929 
L 414.835656 249.250261 
L 415.800654 248.790417 
L 417.730649 248.605886 
L 418.213148 248.838867 
L 418.695647 251.894506 
L 420.625643 267.874302 
L 421.108141 268.787317 
L 421.59064 269.335348 
L 422.073139 269.570863 
L 422.555638 267.990545 
L 424.003135 259.812779 
L 424.485634 256.824315 
L 424.968132 252.70067 
L 425.450631 250.361094 
L 425.93313 250.14109 
L 426.415629 250.204866 
L 426.415629 250.204866 
" style="fill:none;stroke:#ff0000;stroke-linecap:square;stroke-width:0.75;"/>
   </g>
   <g id="patch_3">
    <path d="M 49.4875 288.830464 
L 49.4875 7.2 
" style="fill:none;stroke:#000000;stroke-linecap:square;stroke-linejoin:miter;stroke-width:0.8;"/>
   </g>
   <g id="patch_4">
    <path d="M 444.364588 288.830464 
L 444.364588 7.2 
" style="fill:none;stroke:#000000;stroke-linecap:square;stroke-linejoin:miter;stroke-width:0.8;"/>
   </g>
   <g id="patch_5">
    <path d="M 49.4875 288.830464 
L 444.364588 288.830464 
" style="fill:none;stroke:#000000;stroke-linecap:square;stroke-linejoin:miter;stroke-width:0.8;"/>
   </g>
   <g id="patch_6">
    <path d="M 49.4875 7.2 
L 444.364588 7.2 
" style="fill:none;stroke:#000000;stroke-linecap:square;stroke-linejoin:miter;stroke-width:0.8;"/>
   </g>
   <g id="legend_1">
    <g id="patch_7">
     <path d="M 433.364588 20.2 
L 437.364588 20.2 
Q 439.364588 20.2 439.364588 18.2 
L 439.364588 14.2 
Q 439.364588 12.2 437.364588 12.2 
L 433.364588 12.2 
Q 431.364588 12.2 431.364588 14.2 
L 431.364588 18.2 
Q 431.364588 20.2 433.364588 20.2 
z
" style="fill:#ffffff;opacity:0.8;stroke:#cccccc;stroke-linejoin:miter;"/>
    </g>
   </g>
  </g>
  <g id="axes_2">
   <g id="matplotlib.axis_3">
    <g id="ytick_7">
     <g id="line2d_17">
      <defs>
       <path d="M 0 0 
L 3.5 0 
" id="m30dcd2e386" style="stroke:#000000;stroke-width:0.8;"/>
      </defs>
      <g>
       <use style="stroke:#000000;stroke-width:0.8;" x="444.364588" xlink:href="#m30dcd2e386" y="248.327635"/>
      </g>
     </g>
     <g id="text_17">
      <!-- 0 -->
      <g style="fill:#008000;" transform="translate(451.364588 252.126854)scale(0.1 -0.1)">
       <use xlink:href="#DejaVuSans-48"/>
      </g>
     </g>
    </g>
    <g id="ytick_8">
     <g id="line2d_18">
      <g>
       <use style="stroke:#000000;stroke-width:0.8;" x="444.364588" xlink:href="#m30dcd2e386" y="201.418156"/>
      </g>
     </g>
     <g id="text_18">
      <!-- 50 -->
      <g style="fill:#008000;" transform="translate(451.364588 205.217375)scale(0.1 -0.1)">
       <use xlink:href="#DejaVuSans-53"/>
       <use x="63.623047" xlink:href="#DejaVuSans-48"/>
      </g>
     </g>
    </g>
    <g id="ytick_9">
     <g id="line2d_19">
      <g>
       <use style="stroke:#000000;stroke-width:0.8;" x="444.364588" xlink:href="#m30dcd2e386" y="154.508677"/>
      </g>
     </g>
     <g id="text_19">
      <!-- 100 -->
      <g style="fill:#008000;" transform="translate(451.364588 158.307896)scale(0.1 -0.1)">
       <use xlink:href="#DejaVuSans-49"/>
       <use x="63.623047" xlink:href="#DejaVuSans-48"/>
       <use x="127.246094" xlink:href="#DejaVuSans-48"/>
      </g>
     </g>
    </g>
    <g id="ytick_10">
     <g id="line2d_20">
      <g>
       <use style="stroke:#000000;stroke-width:0.8;" x="444.364588" xlink:href="#m30dcd2e386" y="107.599199"/>
      </g>
     </g>
     <g id="text_20">
      <!-- 150 -->
      <g style="fill:#008000;" transform="translate(451.364588 111.398417)scale(0.1 -0.1)">
       <use xlink:href="#DejaVuSans-49"/>
       <use x="63.623047" xlink:href="#DejaVuSans-53"/>
       <use x="127.246094" xlink:href="#DejaVuSans-48"/>
      </g>
     </g>
    </g>
    <g id="ytick_11">
     <g id="line2d_21">
      <g>
       <use style="stroke:#000000;stroke-width:0.8;" x="444.364588" xlink:href="#m30dcd2e386" y="60.68972"/>
      </g>
     </g>
     <g id="text_21">
      <!-- 200 -->
      <g style="fill:#008000;" transform="translate(451.364588 64.488939)scale(0.1 -0.1)">
       <use xlink:href="#DejaVuSans-50"/>
       <use x="63.623047" xlink:href="#DejaVuSans-48"/>
       <use x="127.246094" xlink:href="#DejaVuSans-48"/>
      </g>
     </g>
    </g>
    <g id="ytick_12">
     <g id="line2d_22">
      <g>
       <use style="stroke:#000000;stroke-width:0.8;" x="444.364588" xlink:href="#m30dcd2e386" y="13.780241"/>
      </g>
     </g>
     <g id="text_22">
      <!-- 250 -->
      <g style="fill:#008000;" transform="translate(451.364588 17.57946)scale(0.1 -0.1)">
       <use xlink:href="#DejaVuSans-50"/>
       <use x="63.623047" xlink:href="#DejaVuSans-53"/>
       <use x="127.246094" xlink:href="#DejaVuSans-48"/>
      </g>
     </g>
    </g>
    <g id="text_23">
     <!-- total outflux (discharges in storage) ($m^3$/$\delta t_{exchange}$) -->
     <g style="fill:#008000;" transform="translate(483.552088 274.715232)rotate(-90)scale(0.1 -0.1)">
      <defs>
       <path d="M 45.40625 46.390625 
L 45.40625 75.984375 
L 54.390625 75.984375 
L 54.390625 0 
L 45.40625 0 
L 45.40625 8.203125 
Q 42.578125 3.328125 38.25 0.953125 
Q 33.9375 -1.421875 27.875 -1.421875 
Q 17.96875 -1.421875 11.734375 6.484375 
Q 5.515625 14.40625 5.515625 27.296875 
Q 5.515625 40.1875 11.734375 48.09375 
Q 17.96875 56 27.875 56 
Q 33.9375 56 38.25 53.625 
Q 42.578125 51.265625 45.40625 46.390625 
z
M 14.796875 27.296875 
Q 14.796875 17.390625 18.875 11.75 
Q 22.953125 6.109375 30.078125 6.109375 
Q 37.203125 6.109375 41.296875 11.75 
Q 45.40625 17.390625 45.40625 27.296875 
Q 45.40625 37.203125 41.296875 42.84375 
Q 37.203125 48.484375 30.078125 48.484375 
Q 22.953125 48.484375 18.875 42.84375 
Q 14.796875 37.203125 14.796875 27.296875 
z
" id="DejaVuSans-100"/>
       <path d="M 44.28125 53.078125 
L 44.28125 44.578125 
Q 40.484375 46.53125 36.375 47.5 
Q 32.28125 48.484375 27.875 48.484375 
Q 21.1875 48.484375 17.84375 46.4375 
Q 14.5 44.390625 14.5 40.28125 
Q 14.5 37.15625 16.890625 35.375 
Q 19.28125 33.59375 26.515625 31.984375 
L 29.59375 31.296875 
Q 39.15625 29.25 43.1875 25.515625 
Q 47.21875 21.78125 47.21875 15.09375 
Q 47.21875 7.46875 41.1875 3.015625 
Q 35.15625 -1.421875 24.609375 -1.421875 
Q 20.21875 -1.421875 15.453125 -0.5625 
Q 10.6875 0.296875 5.421875 2 
L 5.421875 11.28125 
Q 10.40625 8.6875 15.234375 7.390625 
Q 20.0625 6.109375 24.8125 6.109375 
Q 31.15625 6.109375 34.5625 8.28125 
Q 37.984375 10.453125 37.984375 14.40625 
Q 37.984375 18.0625 35.515625 20.015625 
Q 33.0625 21.96875 24.703125 23.78125 
L 21.578125 24.515625 
Q 13.234375 26.265625 9.515625 29.90625 
Q 5.8125 33.546875 5.8125 39.890625 
Q 5.8125 47.609375 11.28125 51.796875 
Q 16.75 56 26.8125 56 
Q 31.78125 56 36.171875 55.265625 
Q 40.578125 54.546875 44.28125 53.078125 
z
" id="DejaVuSans-115"/>
       <path d="M 48.78125 52.59375 
L 48.78125 44.1875 
Q 44.96875 46.296875 41.140625 47.34375 
Q 37.3125 48.390625 33.40625 48.390625 
Q 24.65625 48.390625 19.8125 42.84375 
Q 14.984375 37.3125 14.984375 27.296875 
Q 14.984375 17.28125 19.8125 11.734375 
Q 24.65625 6.203125 33.40625 6.203125 
Q 37.3125 6.203125 41.140625 7.25 
Q 44.96875 8.296875 48.78125 10.40625 
L 48.78125 2.09375 
Q 45.015625 0.34375 40.984375 -0.53125 
Q 36.96875 -1.421875 32.421875 -1.421875 
Q 20.0625 -1.421875 12.78125 6.34375 
Q 5.515625 14.109375 5.515625 27.296875 
Q 5.515625 40.671875 12.859375 48.328125 
Q 20.21875 56 33.015625 56 
Q 37.15625 56 41.109375 55.140625 
Q 45.0625 54.296875 48.78125 52.59375 
z
" id="DejaVuSans-99"/>
       <path d="M 54.890625 33.015625 
L 54.890625 0 
L 45.90625 0 
L 45.90625 32.71875 
Q 45.90625 40.484375 42.875 44.328125 
Q 39.84375 48.1875 33.796875 48.1875 
Q 26.515625 48.1875 22.3125 43.546875 
Q 18.109375 38.921875 18.109375 30.90625 
L 18.109375 0 
L 9.078125 0 
L 9.078125 75.984375 
L 18.109375 75.984375 
L 18.109375 46.1875 
Q 21.34375 51.125 25.703125 53.5625 
Q 30.078125 56 35.796875 56 
Q 45.21875 56 50.046875 50.171875 
Q 54.890625 44.34375 54.890625 33.015625 
z
" id="DejaVuSans-104"/>
       <path d="M 41.109375 46.296875 
Q 39.59375 47.171875 37.8125 47.578125 
Q 36.03125 48 33.890625 48 
Q 26.265625 48 22.1875 43.046875 
Q 18.109375 38.09375 18.109375 28.8125 
L 18.109375 0 
L 9.078125 0 
L 9.078125 54.6875 
L 18.109375 54.6875 
L 18.109375 46.1875 
Q 20.953125 51.171875 25.484375 53.578125 
Q 30.03125 56 36.53125 56 
Q 37.453125 56 38.578125 55.875 
Q 39.703125 55.765625 41.0625 55.515625 
z
" id="DejaVuSans-114"/>
       <path d="M 45.40625 27.984375 
Q 45.40625 37.75 41.375 43.109375 
Q 37.359375 48.484375 30.078125 48.484375 
Q 22.859375 48.484375 18.828125 43.109375 
Q 14.796875 37.75 14.796875 27.984375 
Q 14.796875 18.265625 18.828125 12.890625 
Q 22.859375 7.515625 30.078125 7.515625 
Q 37.359375 7.515625 41.375 12.890625 
Q 45.40625 18.265625 45.40625 27.984375 
z
M 54.390625 6.78125 
Q 54.390625 -7.171875 48.1875 -13.984375 
Q 42 -20.796875 29.203125 -20.796875 
Q 24.46875 -20.796875 20.265625 -20.09375 
Q 16.0625 -19.390625 12.109375 -17.921875 
L 12.109375 -9.1875 
Q 16.0625 -11.328125 19.921875 -12.34375 
Q 23.78125 -13.375 27.78125 -13.375 
Q 36.625 -13.375 41.015625 -8.765625 
Q 45.40625 -4.15625 45.40625 5.171875 
L 45.40625 9.625 
Q 42.625 4.78125 38.28125 2.390625 
Q 33.9375 0 27.875 0 
Q 17.828125 0 11.671875 7.65625 
Q 5.515625 15.328125 5.515625 27.984375 
Q 5.515625 40.671875 11.671875 48.328125 
Q 17.828125 56 27.875 56 
Q 33.9375 56 38.28125 53.609375 
Q 42.625 51.21875 45.40625 46.390625 
L 45.40625 54.6875 
L 54.390625 54.6875 
z
" id="DejaVuSans-103"/>
      </defs>
      <use transform="translate(0 0.765625)" xlink:href="#DejaVuSans-116"/>
      <use transform="translate(39.208984 0.765625)" xlink:href="#DejaVuSans-111"/>
      <use transform="translate(100.390625 0.765625)" xlink:href="#DejaVuSans-116"/>
      <use transform="translate(139.599609 0.765625)" xlink:href="#DejaVuSans-97"/>
      <use transform="translate(200.878906 0.765625)" xlink:href="#DejaVuSans-108"/>
      <use transform="translate(228.662109 0.765625)" xlink:href="#DejaVuSans-32"/>
      <use transform="translate(260.449219 0.765625)" xlink:href="#DejaVuSans-111"/>
      <use transform="translate(321.630859 0.765625)" xlink:href="#DejaVuSans-117"/>
      <use transform="translate(385.009766 0.765625)" xlink:href="#DejaVuSans-116"/>
      <use transform="translate(424.21875 0.765625)" xlink:href="#DejaVuSans-102"/>
      <use transform="translate(459.423828 0.765625)" xlink:href="#DejaVuSans-108"/>
      <use transform="translate(487.207031 0.765625)" xlink:href="#DejaVuSans-117"/>
      <use transform="translate(550.585938 0.765625)" xlink:href="#DejaVuSans-120"/>
      <use transform="translate(609.765625 0.765625)" xlink:href="#DejaVuSans-32"/>
      <use transform="translate(641.552734 0.765625)" xlink:href="#DejaVuSans-40"/>
      <use transform="translate(680.566406 0.765625)" xlink:href="#DejaVuSans-100"/>
      <use transform="translate(744.042969 0.765625)" xlink:href="#DejaVuSans-105"/>
      <use transform="translate(771.826172 0.765625)" xlink:href="#DejaVuSans-115"/>
      <use transform="translate(823.925781 0.765625)" xlink:href="#DejaVuSans-99"/>
      <use transform="translate(878.90625 0.765625)" xlink:href="#DejaVuSans-104"/>
      <use transform="translate(942.285156 0.765625)" xlink:href="#DejaVuSans-97"/>
      <use transform="translate(1003.564453 0.765625)" xlink:href="#DejaVuSans-114"/>
      <use transform="translate(1044.677734 0.765625)" xlink:href="#DejaVuSans-103"/>
      <use transform="translate(1108.154297 0.765625)" xlink:href="#DejaVuSans-101"/>
      <use transform="translate(1169.677734 0.765625)" xlink:href="#DejaVuSans-115"/>
      <use transform="translate(1221.777344 0.765625)" xlink:href="#DejaVuSans-32"/>
      <use transform="translate(1253.564453 0.765625)" xlink:href="#DejaVuSans-105"/>
      <use transform="translate(1281.347656 0.765625)" xlink:href="#DejaVuSans-110"/>
      <use transform="translate(1344.726562 0.765625)" xlink:href="#DejaVuSans-32"/>
      <use transform="translate(1376.513672 0.765625)" xlink:href="#DejaVuSans-115"/>
      <use transform="translate(1428.613281 0.765625)" xlink:href="#DejaVuSans-116"/>
      <use transform="translate(1467.822266 0.765625)" xlink:href="#DejaVuSans-111"/>
      <use transform="translate(1529.003906 0.765625)" xlink:href="#DejaVuSans-114"/>
      <use transform="translate(1570.117188 0.765625)" xlink:href="#DejaVuSans-97"/>
      <use transform="translate(1631.396484 0.765625)" xlink:href="#DejaVuSans-103"/>
      <use transform="translate(1694.873047 0.765625)" xlink:href="#DejaVuSans-101"/>
      <use transform="translate(1756.396484 0.765625)" xlink:href="#DejaVuSans-41"/>
      <use transform="translate(1795.410156 0.765625)" xlink:href="#DejaVuSans-32"/>
      <use transform="translate(1827.197266 0.765625)" xlink:href="#DejaVuSans-40"/>
      <use transform="translate(1866.210938 0.765625)" xlink:href="#DejaVuSans-Oblique-109"/>
      <use transform="translate(1968.272943 39.046875)scale(0.7)" xlink:href="#DejaVuSans-51"/>
      <use transform="translate(2015.543451 0.765625)" xlink:href="#DejaVuSans-47"/>
      <use transform="translate(2049.234857 0.765625)" xlink:href="#DejaVuSans-Oblique-948"/>
      <use transform="translate(2110.416497 0.765625)" xlink:href="#DejaVuSans-Oblique-116"/>
      <use transform="translate(2149.625482 -15.640625)scale(0.7)" xlink:href="#DejaVuSans-Oblique-101"/>
      <use transform="translate(2192.691888 -15.640625)scale(0.7)" xlink:href="#DejaVuSans-Oblique-120"/>
      <use transform="translate(2234.117669 -15.640625)scale(0.7)" xlink:href="#DejaVuSans-Oblique-99"/>
      <use transform="translate(2272.603997 -15.640625)scale(0.7)" xlink:href="#DejaVuSans-Oblique-104"/>
      <use transform="translate(2316.969232 -15.640625)scale(0.7)" xlink:href="#DejaVuSans-Oblique-97"/>
      <use transform="translate(2359.86474 -15.640625)scale(0.7)" xlink:href="#DejaVuSans-Oblique-110"/>
      <use transform="translate(2404.229974 -15.640625)scale(0.7)" xlink:href="#DejaVuSans-Oblique-103"/>
      <use transform="translate(2448.663568 -15.640625)scale(0.7)" xlink:href="#DejaVuSans-Oblique-101"/>
      <use transform="translate(2494.464349 0.765625)" xlink:href="#DejaVuSans-41"/>
     </g>
    </g>
   </g>
   <g id="line2d_23">
    <path clip-path="url(#pf93b4aeafe)" d="M 67.918957 252.765347 
L 68.401456 248.844974 
L 68.883955 248.550751 
L 69.366454 248.860542 
L 69.848953 248.930675 
L 70.331452 248.848814 
L 70.813951 242.987413 
L 71.29645 251.143213 
L 71.778948 251.717558 
L 72.261447 253.228523 
L 72.743946 261.305006 
L 73.226445 260.366664 
L 73.708944 257.967875 
L 74.191443 258.049013 
L 74.673942 255.944117 
L 75.156441 256.259308 
L 76.603937 232.658336 
L 77.086436 218.753258 
L 77.568935 249.15534 
L 78.051434 248.78981 
L 78.533933 248.886176 
L 79.016432 248.588906 
L 79.498931 248.546492 
L 79.98143 248.626594 
L 80.463928 248.481492 
L 80.946427 248.670508 
L 81.428926 20.001385 
L 81.911425 192.930385 
L 82.393924 217.769197 
L 82.876423 250.107482 
L 83.358922 219.331461 
L 83.841421 238.959389 
L 84.32392 233.552635 
L 84.806418 178.367953 
L 85.288917 234.597649 
L 85.771416 255.096933 
L 86.253915 256.677214 
L 86.736414 247.967019 
L 87.218913 241.44332 
L 87.701412 215.441908 
L 88.183911 239.320191 
L 88.666409 250.549096 
L 89.148908 249.753692 
L 89.631407 248.733388 
L 90.113906 248.48043 
L 91.078904 248.405038 
L 93.973897 248.404245 
L 94.456396 249.257921 
L 94.938895 252.796266 
L 95.421394 258.788539 
L 96.386392 267.206952 
L 97.351389 271.209321 
L 97.833888 270.889635 
L 98.316387 269.709142 
L 98.798886 268.045762 
L 99.281385 261.558298 
L 100.246383 253.670124 
L 101.21138 250.404932 
L 101.693879 250.742322 
L 102.658877 236.660765 
L 103.141376 236.282271 
L 103.623875 248.512996 
L 104.106374 248.521782 
L 104.588873 248.402068 
L 105.55387 248.424469 
L 106.036369 249.548658 
L 106.518868 251.590706 
L 107.483866 253.30052 
L 107.966365 261.060109 
L 108.448864 261.763725 
L 108.931363 270.316877 
L 109.413862 271.391006 
L 109.89636 269.883057 
L 110.378859 262.765318 
L 110.861358 260.419255 
L 112.308855 250.971899 
L 112.791354 249.73637 
L 113.273853 250.327608 
L 114.23885 250.073294 
L 114.721349 249.546159 
L 115.203848 249.466978 
L 115.686347 249.242526 
L 116.651345 249.146864 
L 117.133844 249.172534 
L 117.616343 250.42027 
L 118.098841 251.130277 
L 118.58134 252.084325 
L 119.063839 246.38947 
L 119.546338 209.660683 
L 120.028837 253.33541 
L 120.993835 228.794158 
L 121.476334 253.616011 
L 122.441331 252.872947 
L 122.92383 251.295811 
L 123.406329 250.28912 
L 123.888828 249.011288 
L 125.336325 249.03012 
L 125.818824 248.75444 
L 126.301323 248.922874 
L 126.783821 248.72164 
L 127.26632 248.701137 
L 127.748819 249.054513 
L 128.713817 249.343401 
L 129.196316 251.267849 
L 130.161314 259.579619 
L 130.643812 258.85552 
L 131.126311 265.937012 
L 131.60881 269.030879 
L 132.091309 271.131918 
L 133.056307 269.542331 
L 133.538806 267.195057 
L 134.503804 259.928063 
L 135.468801 250.990135 
L 135.9513 249.649355 
L 137.398797 248.938407 
L 137.881296 248.626455 
L 140.29379 248.509458 
L 140.776289 250.687668 
L 141.741287 260.399365 
L 142.706285 270.624162 
L 143.671282 274.82875 
L 144.153781 274.506764 
L 144.63628 273.293906 
L 145.118779 270.881565 
L 145.601278 267.147813 
L 147.048775 250.934416 
L 147.531273 250.148798 
L 148.013772 249.855602 
L 148.496271 248.963709 
L 150.426267 248.601109 
L 151.873763 248.549884 
L 152.356262 250.663491 
L 154.286258 272.380797 
L 154.768757 274.632745 
L 155.251256 275.320362 
L 155.733755 274.497499 
L 156.216253 275.440391 
L 156.698752 270.65505 
L 157.181251 263.228801 
L 158.146249 255.965325 
L 158.628748 252.318571 
L 159.111247 249.975216 
L 159.593746 249.4529 
L 161.523741 248.644269 
L 162.971238 248.505499 
L 163.453737 248.640123 
L 163.936236 224.967848 
L 164.418734 252.737378 
L 164.901233 262.059938 
L 165.383732 266.135721 
L 165.866231 268.146886 
L 166.34873 262.365212 
L 166.831229 276.029079 
L 167.796227 274.384078 
L 168.278726 271.587119 
L 169.243723 261.196059 
L 169.726222 253.562793 
L 170.208721 251.028466 
L 170.69122 250.586495 
L 171.173719 250.346518 
L 171.656218 249.635982 
L 172.138717 249.439314 
L 172.621216 248.877747 
L 173.103714 248.593495 
L 174.068712 248.715894 
L 174.551211 248.620027 
L 175.03371 211.665993 
L 175.516209 63.948925 
L 176.481207 253.010139 
L 176.963705 253.781293 
L 177.446204 261.673062 
L 177.928703 261.029337 
L 178.411202 274.151325 
L 178.893701 274.641465 
L 179.3762 273.121498 
L 179.858699 270.166974 
L 180.341198 266.331347 
L 181.306195 253.425555 
L 181.788694 249.630363 
L 183.236191 248.65335 
L 184.201189 248.621083 
L 184.683688 248.549859 
L 185.648685 248.57308 
L 186.131184 248.847965 
L 186.613683 242.736015 
L 187.096182 250.097489 
L 187.578681 244.912246 
L 188.06118 252.316046 
L 188.543679 253.282014 
L 189.026178 262.829796 
L 189.508676 269.579549 
L 189.991175 260.831346 
L 190.473674 255.220222 
L 190.956173 254.133172 
L 191.438672 253.550058 
L 191.921171 208.303353 
L 192.40367 238.610093 
L 192.886169 250.73767 
L 193.368668 218.658979 
L 193.851166 174.872258 
L 194.333665 168.555776 
L 194.816164 205.54479 
L 195.298663 217.854957 
L 195.781162 223.953941 
L 196.263661 242.738819 
L 196.74616 249.005301 
L 197.711158 249.085886 
L 198.193656 249.146993 
L 198.676155 251.27093 
L 199.158654 254.505915 
L 199.641153 254.829752 
L 200.123652 253.871963 
L 200.606151 258.794117 
L 201.08865 260.88407 
L 201.571149 262.184836 
L 202.053648 265.741746 
L 202.536146 265.587175 
L 203.018645 264.216293 
L 203.501144 260.697372 
L 204.466142 252.192788 
L 205.43114 249.128807 
L 205.913639 249.002194 
L 206.396137 249.087331 
L 206.878636 249.005114 
L 207.361135 249.168048 
L 208.326133 249.207796 
L 208.808632 248.952429 
L 209.291131 249.030388 
L 209.77363 242.804769 
L 210.256129 249.94539 
L 210.738627 244.774725 
L 211.221126 171.337381 
L 211.703625 252.81466 
L 212.186124 253.793686 
L 212.668623 247.621246 
L 213.151122 247.897404 
L 213.633621 254.544633 
L 214.11612 241.389075 
L 214.598619 252.77067 
L 215.081117 252.313882 
L 215.563616 251.176488 
L 216.046115 250.742999 
L 216.528614 249.648891 
L 217.493612 249.170293 
L 217.976111 249.257009 
L 218.45861 248.981047 
L 218.941108 211.546853 
L 219.423607 155.803907 
L 219.906106 199.11918 
L 220.388605 143.349622 
L 220.871104 199.033438 
L 221.353603 217.979705 
L 221.836102 243.623872 
L 222.318601 250.779111 
L 223.766097 254.097337 
L 224.248596 254.30007 
L 224.731095 254.780371 
L 225.213594 254.945417 
L 225.696093 254.774634 
L 226.178592 253.740592 
L 226.661091 253.30526 
L 228.108587 250.310813 
L 228.591086 250.102266 
L 229.556084 250.010832 
L 230.038583 250.166549 
L 230.521082 250.121409 
L 231.48608 250.449225 
L 231.968578 249.990764 
L 232.933576 250.263489 
L 233.898574 252.294044 
L 234.863572 253.89468 
L 235.346071 254.33891 
L 235.828569 255.037341 
L 236.311068 255.089401 
L 236.793567 254.647679 
L 237.276066 254.424952 
L 237.758565 254.660901 
L 238.241064 256.894847 
L 238.723563 253.390803 
L 239.688561 249.721029 
L 240.171059 249.125949 
L 241.136057 248.506245 
L 244.513549 248.426389 
L 244.996048 251.306361 
L 245.478547 255.143561 
L 246.443545 266.395072 
L 246.926044 267.959907 
L 247.408543 270.640658 
L 247.891042 272.188604 
L 248.37354 272.325154 
L 248.856039 270.760733 
L 249.338538 268.145458 
L 250.303536 260.903507 
L 251.268534 250.834474 
L 251.751033 249.856173 
L 252.233532 249.715161 
L 252.71603 249.133596 
L 253.681028 248.609764 
L 255.128525 248.472698 
L 256.093523 248.509018 
L 256.576022 251.621129 
L 258.506017 271.6205 
L 258.988516 273.489846 
L 259.471015 274.482504 
L 259.953514 274.264122 
L 260.436013 272.834334 
L 260.918512 270.753021 
L 261.883509 263.486887 
L 262.848507 251.625378 
L 263.331006 250.402393 
L 263.813505 249.910682 
L 264.296004 249.606102 
L 264.778503 249.157444 
L 265.261001 248.889135 
L 265.7435 248.886717 
L 266.225999 248.664471 
L 267.673496 248.67437 
L 268.155995 252.066115 
L 269.603491 266.769963 
L 270.08599 271.427716 
L 270.568489 274.417814 
L 271.050988 275.871055 
L 271.533487 275.402179 
L 272.498485 270.928997 
L 272.980984 267.288463 
L 274.42848 250.92839 
L 274.910979 250.550126 
L 275.393478 249.663539 
L 276.358476 249.120976 
L 276.840975 248.93446 
L 277.323474 248.975292 
L 278.77097 248.571338 
L 279.253469 248.780935 
L 279.735968 252.710985 
L 281.183465 269.018276 
L 281.665964 272.375644 
L 282.148462 274.487469 
L 282.630961 275.788431 
L 283.11346 270.997608 
L 283.595959 267.464449 
L 284.078458 271.269416 
L 284.560957 266.915488 
L 285.043456 258.826515 
L 286.008454 253.621911 
L 286.490952 252.501898 
L 286.973451 252.340356 
L 287.45595 251.346627 
L 290.350944 249.410357 
L 290.833442 249.704423 
L 291.79844 252.891137 
L 292.280939 258.084167 
L 292.763438 257.952157 
L 293.245937 261.225981 
L 293.728436 272.797066 
L 294.210935 272.810158 
L 294.693433 269.50023 
L 295.658431 265.992115 
L 296.14093 259.159648 
L 296.623429 256.851716 
L 297.105928 256.050645 
L 297.588427 251.30815 
L 298.070926 249.493448 
L 298.553425 249.454289 
L 300.965919 248.556911 
L 301.930917 248.482067 
L 302.413416 248.582897 
L 302.895915 252.14505 
L 304.82591 270.972465 
L 305.308409 271.976484 
L 305.790908 269.182284 
L 306.755906 273.000064 
L 307.238404 269.87575 
L 308.203402 261.322724 
L 309.1684 249.691764 
L 309.650899 249.965334 
L 310.133398 249.009026 
L 311.098396 248.923764 
L 311.580894 248.610342 
L 312.063393 248.677019 
L 313.028391 248.52404 
L 313.51089 248.4796 
L 313.993389 248.611586 
L 314.475888 251.725976 
L 315.440886 262.63947 
L 315.923384 263.408463 
L 316.405883 270.299435 
L 316.888382 260.648953 
L 317.370881 263.136761 
L 317.85338 274.177903 
L 318.335879 272.139052 
L 318.818378 269.172057 
L 319.300877 257.838272 
L 319.783376 256.382078 
L 321.230872 249.375867 
L 322.19587 248.860308 
L 322.678369 250.220605 
L 323.160868 250.371937 
L 323.643367 250.141742 
L 324.125865 249.754005 
L 324.608364 248.732011 
L 325.090863 248.608115 
L 325.573362 249.144509 
L 326.055861 250.187438 
L 326.53836 251.632148 
L 327.020859 241.36294 
L 327.503358 192.575757 
L 327.985857 265.137994 
L 328.468355 268.590752 
L 328.950854 55.129666 
L 329.433353 147.668216 
L 329.915852 116.581166 
L 330.398351 171.718671 
L 330.88085 171.064406 
L 331.363349 151.879058 
L 331.845848 237.6156 
L 332.328347 230.438459 
L 332.810845 248.882646 
L 333.775843 248.400725 
L 335.22334 248.618536 
L 335.705839 248.727548 
L 336.188338 248.971675 
L 336.670836 248.891133 
L 337.153335 249.065377 
L 337.635834 250.685836 
L 338.118333 255.256737 
L 339.083331 262.129297 
L 339.56583 264.152366 
L 340.048329 258.619245 
L 340.530828 264.995591 
L 341.013326 269.667524 
L 341.495825 268.852408 
L 342.460823 265.502602 
L 342.943322 261.048661 
L 343.425821 255.499036 
L 344.390819 249.388559 
L 345.355816 248.690483 
L 345.838315 248.950702 
L 346.320814 248.873058 
L 346.803313 248.560145 
L 347.768311 248.532048 
L 348.25081 248.667895 
L 348.733309 248.926861 
L 349.698306 251.093192 
L 350.663304 253.729155 
L 351.145803 261.100705 
L 351.628302 257.740834 
L 352.110801 257.601405 
L 352.5933 261.198214 
L 353.075799 262.741771 
L 354.040796 258.388573 
L 354.523295 257.102573 
L 355.488293 249.759066 
L 355.970792 249.243098 
L 356.93579 248.613883 
L 357.418289 248.452058 
L 359.830783 248.465784 
L 360.313282 248.524244 
L 361.27828 256.503511 
L 361.760779 261.418222 
L 362.243277 264.33847 
L 362.725776 265.815048 
L 363.208275 270.124263 
L 363.690774 271.718543 
L 364.173273 267.913856 
L 364.655772 268.806362 
L 365.138271 264.019232 
L 365.62077 262.987567 
L 366.103268 261.073437 
L 367.068266 252.461307 
L 367.550765 250.204893 
L 368.033264 249.567431 
L 368.515763 249.285694 
L 368.998262 249.315596 
L 369.96326 249.031263 
L 370.928257 248.682586 
L 371.410756 248.656321 
L 371.893255 248.851083 
L 372.375754 252.551995 
L 373.823251 267.963712 
L 374.788248 272.551492 
L 375.270747 273.382225 
L 375.753246 273.411677 
L 376.235745 272.226312 
L 376.718244 269.660303 
L 377.683242 261.970064 
L 378.165741 256.179798 
L 378.64824 252.143316 
L 379.130738 250.137463 
L 380.095736 249.136178 
L 380.578235 249.105066 
L 381.060734 248.767164 
L 382.025732 248.666276 
L 382.990729 248.597145 
L 383.473228 249.127514 
L 383.955727 250.039695 
L 384.438226 251.991167 
L 384.920725 260.319983 
L 385.885723 269.108219 
L 386.368222 262.758609 
L 386.850721 266.815047 
L 387.333219 269.306104 
L 387.815718 263.339065 
L 388.298217 253.534423 
L 388.780716 261.900228 
L 389.745714 257.317858 
L 390.228213 253.65418 
L 390.710712 250.910239 
L 391.193211 249.906271 
L 391.675709 249.786222 
L 392.158208 250.388995 
L 392.640707 251.675153 
L 393.605705 249.590768 
L 394.570703 249.498795 
L 395.053202 249.850557 
L 395.5357 252.995184 
L 396.018199 257.662583 
L 396.983197 264.253281 
L 397.465696 266.655546 
L 397.948195 267.982595 
L 398.430694 267.682101 
L 398.913193 268.463006 
L 399.395692 269.838119 
L 401.325687 256.352462 
L 401.808186 252.344061 
L 402.290685 251.005448 
L 402.773184 250.745068 
L 403.255683 249.947923 
L 403.738182 249.582917 
L 404.22068 249.868201 
L 405.668177 249.753264 
L 406.150676 249.61869 
L 406.633175 249.725637 
L 407.115674 252.785022 
L 408.080672 261.399859 
L 408.56317 265.000091 
L 409.528168 269.891696 
L 410.010667 269.293183 
L 410.493166 263.696096 
L 410.975665 261.584315 
L 411.458164 263.950227 
L 411.940663 261.507234 
L 412.423161 259.722001 
L 413.388159 251.645783 
L 413.870658 249.909555 
L 414.353157 249.449679 
L 414.835656 249.480776 
L 415.800654 249.024614 
L 417.730649 248.841577 
L 418.213148 249.07263 
L 418.695647 252.103643 
L 420.625643 267.95431 
L 421.108141 268.859942 
L 421.59064 269.403509 
L 422.073139 269.637045 
L 422.555638 268.069426 
L 424.003135 259.957557 
L 424.485634 256.993096 
L 424.968132 252.902715 
L 425.450631 250.581972 
L 425.93313 250.36376 
L 426.415629 250.427053 
L 426.415629 250.427053 
" style="fill:none;stroke:#008000;stroke-linecap:square;stroke-width:0.75;"/>
   </g>
   <g id="patch_8">
    <path d="M 49.4875 288.830464 
L 49.4875 7.2 
" style="fill:none;stroke:#000000;stroke-linecap:square;stroke-linejoin:miter;stroke-width:0.8;"/>
   </g>
   <g id="patch_9">
    <path d="M 444.364588 288.830464 
L 444.364588 7.2 
" style="fill:none;stroke:#000000;stroke-linecap:square;stroke-linejoin:miter;stroke-width:0.8;"/>
   </g>
   <g id="patch_10">
    <path d="M 49.4875 288.830464 
L 444.364588 288.830464 
" style="fill:none;stroke:#000000;stroke-linecap:square;stroke-linejoin:miter;stroke-width:0.8;"/>
   </g>
   <g id="patch_11">
    <path d="M 49.4875 7.2 
L 444.364588 7.2 
" style="fill:none;stroke:#000000;stroke-linecap:square;stroke-linejoin:miter;stroke-width:0.8;"/>
   </g>
   <g id="legend_2">
    <g id="patch_12">
     <path d="M 433.364588 20.2 
L 437.364588 20.2 
Q 439.364588 20.2 439.364588 18.2 
L 439.364588 14.2 
Q 439.364588 12.2 437.364588 12.2 
L 433.364588 12.2 
Q 431.364588 12.2 431.364588 14.2 
L 431.364588 18.2 
Q 431.364588 20.2 433.364588 20.2 
z
" style="fill:#ffffff;opacity:0.8;stroke:#cccccc;stroke-linejoin:miter;"/>
    </g>
   </g>
  </g>
 </g>
 <defs>
  <clipPath id="pf93b4aeafe">
   <rect height="281.630464" width="394.877088" x="49.4875" y="7.2"/>
  </clipPath>
 </defs>
</svg>
