<?xml version="1.0" encoding="utf-8" standalone="no"?>
<!DOCTYPE svg PUBLIC "-//W3C//DTD SVG 1.1//EN"
  "http://www.w3.org/Graphics/SVG/1.1/DTD/svg11.dtd">
<!-- Created with matplotlib (https://matplotlib.org/) -->
<svg height="338.067279pt" version="1.1" viewBox="0 0 453.5175 338.067279" width="453.5175pt" xmlns="http://www.w3.org/2000/svg" xmlns:xlink="http://www.w3.org/1999/xlink">
 <metadata>
  <rdf:RDF xmlns:cc="http://creativecommons.org/ns#" xmlns:dc="http://purl.org/dc/elements/1.1/" xmlns:rdf="http://www.w3.org/1999/02/22-rdf-syntax-ns#">
   <cc:Work>
    <dc:type rdf:resource="http://purl.org/dc/dcmitype/StillImage"/>
    <dc:date>2021-04-19T19:46:57.285663</dc:date>
    <dc:format>image/svg+xml</dc:format>
    <dc:creator>
     <cc:Agent>
      <dc:title>Matplotlib v3.3.2, https://matplotlib.org/</dc:title>
     </cc:Agent>
    </dc:creator>
   </cc:Work>
  </rdf:RDF>
 </metadata>
 <defs>
  <style type="text/css">*{stroke-linecap:butt;stroke-linejoin:round;}</style>
 </defs>
 <g id="figure_1">
  <g id="patch_1">
   <path d="M 0 338.067279 
L 453.5175 338.067279 
L 453.5175 0 
L 0 0 
z
" style="fill:#ffffff;"/>
  </g>
  <g id="axes_1">
   <g id="patch_2">
    <path d="M 33.2875 292.790464 
L 446.3175 292.790464 
L 446.3175 7.2 
L 33.2875 7.2 
z
" style="fill:#ffffff;"/>
   </g>
   <g id="matplotlib.axis_1">
    <g id="xtick_1">
     <g id="line2d_1">
      <defs>
       <path d="M 0 0 
L 0 3.5 
" id="m36b59a8d7e" style="stroke:#000000;stroke-width:0.8;"/>
      </defs>
      <g>
       <use style="stroke:#000000;stroke-width:0.8;" x="52.061591" xlink:href="#m36b59a8d7e" y="292.790464"/>
      </g>
     </g>
     <g id="text_1">
      <!-- 01-05-20 -->
      <g transform="translate(11.712313 329.066216)rotate(-30)scale(0.1 -0.1)">
       <defs>
        <path d="M 31.78125 66.40625 
Q 24.171875 66.40625 20.328125 58.90625 
Q 16.5 51.421875 16.5 36.375 
Q 16.5 21.390625 20.328125 13.890625 
Q 24.171875 6.390625 31.78125 6.390625 
Q 39.453125 6.390625 43.28125 13.890625 
Q 47.125 21.390625 47.125 36.375 
Q 47.125 51.421875 43.28125 58.90625 
Q 39.453125 66.40625 31.78125 66.40625 
z
M 31.78125 74.21875 
Q 44.046875 74.21875 50.515625 64.515625 
Q 56.984375 54.828125 56.984375 36.375 
Q 56.984375 17.96875 50.515625 8.265625 
Q 44.046875 -1.421875 31.78125 -1.421875 
Q 19.53125 -1.421875 13.0625 8.265625 
Q 6.59375 17.96875 6.59375 36.375 
Q 6.59375 54.828125 13.0625 64.515625 
Q 19.53125 74.21875 31.78125 74.21875 
z
" id="DejaVuSans-48"/>
        <path d="M 12.40625 8.296875 
L 28.515625 8.296875 
L 28.515625 63.921875 
L 10.984375 60.40625 
L 10.984375 69.390625 
L 28.421875 72.90625 
L 38.28125 72.90625 
L 38.28125 8.296875 
L 54.390625 8.296875 
L 54.390625 0 
L 12.40625 0 
z
" id="DejaVuSans-49"/>
        <path d="M 4.890625 31.390625 
L 31.203125 31.390625 
L 31.203125 23.390625 
L 4.890625 23.390625 
z
" id="DejaVuSans-45"/>
        <path d="M 10.796875 72.90625 
L 49.515625 72.90625 
L 49.515625 64.59375 
L 19.828125 64.59375 
L 19.828125 46.734375 
Q 21.96875 47.46875 24.109375 47.828125 
Q 26.265625 48.1875 28.421875 48.1875 
Q 40.625 48.1875 47.75 41.5 
Q 54.890625 34.8125 54.890625 23.390625 
Q 54.890625 11.625 47.5625 5.09375 
Q 40.234375 -1.421875 26.90625 -1.421875 
Q 22.3125 -1.421875 17.546875 -0.640625 
Q 12.796875 0.140625 7.71875 1.703125 
L 7.71875 11.625 
Q 12.109375 9.234375 16.796875 8.0625 
Q 21.484375 6.890625 26.703125 6.890625 
Q 35.15625 6.890625 40.078125 11.328125 
Q 45.015625 15.765625 45.015625 23.390625 
Q 45.015625 31 40.078125 35.4375 
Q 35.15625 39.890625 26.703125 39.890625 
Q 22.75 39.890625 18.8125 39.015625 
Q 14.890625 38.140625 10.796875 36.28125 
z
" id="DejaVuSans-53"/>
        <path d="M 19.1875 8.296875 
L 53.609375 8.296875 
L 53.609375 0 
L 7.328125 0 
L 7.328125 8.296875 
Q 12.9375 14.109375 22.625 23.890625 
Q 32.328125 33.6875 34.8125 36.53125 
Q 39.546875 41.84375 41.421875 45.53125 
Q 43.3125 49.21875 43.3125 52.78125 
Q 43.3125 58.59375 39.234375 62.25 
Q 35.15625 65.921875 28.609375 65.921875 
Q 23.96875 65.921875 18.8125 64.3125 
Q 13.671875 62.703125 7.8125 59.421875 
L 7.8125 69.390625 
Q 13.765625 71.78125 18.9375 73 
Q 24.125 74.21875 28.421875 74.21875 
Q 39.75 74.21875 46.484375 68.546875 
Q 53.21875 62.890625 53.21875 53.421875 
Q 53.21875 48.921875 51.53125 44.890625 
Q 49.859375 40.875 45.40625 35.40625 
Q 44.1875 33.984375 37.640625 27.21875 
Q 31.109375 20.453125 19.1875 8.296875 
z
" id="DejaVuSans-50"/>
       </defs>
       <use xlink:href="#DejaVuSans-48"/>
       <use x="63.623047" xlink:href="#DejaVuSans-49"/>
       <use x="127.246094" xlink:href="#DejaVuSans-45"/>
       <use x="163.330078" xlink:href="#DejaVuSans-48"/>
       <use x="226.953125" xlink:href="#DejaVuSans-53"/>
       <use x="290.576172" xlink:href="#DejaVuSans-45"/>
       <use x="326.660156" xlink:href="#DejaVuSans-50"/>
       <use x="390.283203" xlink:href="#DejaVuSans-48"/>
      </g>
     </g>
    </g>
    <g id="xtick_2">
     <g id="line2d_2">
      <g>
       <use style="stroke:#000000;stroke-width:0.8;" x="100.510858" xlink:href="#m36b59a8d7e" y="292.790464"/>
      </g>
     </g>
     <g id="text_2">
      <!-- 05-05-20 -->
      <g transform="translate(60.16158 329.066216)rotate(-30)scale(0.1 -0.1)">
       <use xlink:href="#DejaVuSans-48"/>
       <use x="63.623047" xlink:href="#DejaVuSans-53"/>
       <use x="127.246094" xlink:href="#DejaVuSans-45"/>
       <use x="163.330078" xlink:href="#DejaVuSans-48"/>
       <use x="226.953125" xlink:href="#DejaVuSans-53"/>
       <use x="290.576172" xlink:href="#DejaVuSans-45"/>
       <use x="326.660156" xlink:href="#DejaVuSans-50"/>
       <use x="390.283203" xlink:href="#DejaVuSans-48"/>
      </g>
     </g>
    </g>
    <g id="xtick_3">
     <g id="line2d_3">
      <g>
       <use style="stroke:#000000;stroke-width:0.8;" x="148.960125" xlink:href="#m36b59a8d7e" y="292.790464"/>
      </g>
     </g>
     <g id="text_3">
      <!-- 09-05-20 -->
      <g transform="translate(108.610847 329.066216)rotate(-30)scale(0.1 -0.1)">
       <defs>
        <path d="M 10.984375 1.515625 
L 10.984375 10.5 
Q 14.703125 8.734375 18.5 7.8125 
Q 22.3125 6.890625 25.984375 6.890625 
Q 35.75 6.890625 40.890625 13.453125 
Q 46.046875 20.015625 46.78125 33.40625 
Q 43.953125 29.203125 39.59375 26.953125 
Q 35.25 24.703125 29.984375 24.703125 
Q 19.046875 24.703125 12.671875 31.3125 
Q 6.296875 37.9375 6.296875 49.421875 
Q 6.296875 60.640625 12.9375 67.421875 
Q 19.578125 74.21875 30.609375 74.21875 
Q 43.265625 74.21875 49.921875 64.515625 
Q 56.59375 54.828125 56.59375 36.375 
Q 56.59375 19.140625 48.40625 8.859375 
Q 40.234375 -1.421875 26.421875 -1.421875 
Q 22.703125 -1.421875 18.890625 -0.6875 
Q 15.09375 0.046875 10.984375 1.515625 
z
M 30.609375 32.421875 
Q 37.25 32.421875 41.125 36.953125 
Q 45.015625 41.5 45.015625 49.421875 
Q 45.015625 57.28125 41.125 61.84375 
Q 37.25 66.40625 30.609375 66.40625 
Q 23.96875 66.40625 20.09375 61.84375 
Q 16.21875 57.28125 16.21875 49.421875 
Q 16.21875 41.5 20.09375 36.953125 
Q 23.96875 32.421875 30.609375 32.421875 
z
" id="DejaVuSans-57"/>
       </defs>
       <use xlink:href="#DejaVuSans-48"/>
       <use x="63.623047" xlink:href="#DejaVuSans-57"/>
       <use x="127.246094" xlink:href="#DejaVuSans-45"/>
       <use x="163.330078" xlink:href="#DejaVuSans-48"/>
       <use x="226.953125" xlink:href="#DejaVuSans-53"/>
       <use x="290.576172" xlink:href="#DejaVuSans-45"/>
       <use x="326.660156" xlink:href="#DejaVuSans-50"/>
       <use x="390.283203" xlink:href="#DejaVuSans-48"/>
      </g>
     </g>
    </g>
    <g id="xtick_4">
     <g id="line2d_4">
      <g>
       <use style="stroke:#000000;stroke-width:0.8;" x="197.409391" xlink:href="#m36b59a8d7e" y="292.790464"/>
      </g>
     </g>
     <g id="text_4">
      <!-- 13-05-20 -->
      <g transform="translate(157.060113 329.066216)rotate(-30)scale(0.1 -0.1)">
       <defs>
        <path d="M 40.578125 39.3125 
Q 47.65625 37.796875 51.625 33 
Q 55.609375 28.21875 55.609375 21.1875 
Q 55.609375 10.40625 48.1875 4.484375 
Q 40.765625 -1.421875 27.09375 -1.421875 
Q 22.515625 -1.421875 17.65625 -0.515625 
Q 12.796875 0.390625 7.625 2.203125 
L 7.625 11.71875 
Q 11.71875 9.328125 16.59375 8.109375 
Q 21.484375 6.890625 26.8125 6.890625 
Q 36.078125 6.890625 40.9375 10.546875 
Q 45.796875 14.203125 45.796875 21.1875 
Q 45.796875 27.640625 41.28125 31.265625 
Q 36.765625 34.90625 28.71875 34.90625 
L 20.21875 34.90625 
L 20.21875 43.015625 
L 29.109375 43.015625 
Q 36.375 43.015625 40.234375 45.921875 
Q 44.09375 48.828125 44.09375 54.296875 
Q 44.09375 59.90625 40.109375 62.90625 
Q 36.140625 65.921875 28.71875 65.921875 
Q 24.65625 65.921875 20.015625 65.03125 
Q 15.375 64.15625 9.8125 62.3125 
L 9.8125 71.09375 
Q 15.4375 72.65625 20.34375 73.4375 
Q 25.25 74.21875 29.59375 74.21875 
Q 40.828125 74.21875 47.359375 69.109375 
Q 53.90625 64.015625 53.90625 55.328125 
Q 53.90625 49.265625 50.4375 45.09375 
Q 46.96875 40.921875 40.578125 39.3125 
z
" id="DejaVuSans-51"/>
       </defs>
       <use xlink:href="#DejaVuSans-49"/>
       <use x="63.623047" xlink:href="#DejaVuSans-51"/>
       <use x="127.246094" xlink:href="#DejaVuSans-45"/>
       <use x="163.330078" xlink:href="#DejaVuSans-48"/>
       <use x="226.953125" xlink:href="#DejaVuSans-53"/>
       <use x="290.576172" xlink:href="#DejaVuSans-45"/>
       <use x="326.660156" xlink:href="#DejaVuSans-50"/>
       <use x="390.283203" xlink:href="#DejaVuSans-48"/>
      </g>
     </g>
    </g>
    <g id="xtick_5">
     <g id="line2d_5">
      <g>
       <use style="stroke:#000000;stroke-width:0.8;" x="245.858658" xlink:href="#m36b59a8d7e" y="292.790464"/>
      </g>
     </g>
     <g id="text_5">
      <!-- 17-05-20 -->
      <g transform="translate(205.50938 329.066216)rotate(-30)scale(0.1 -0.1)">
       <defs>
        <path d="M 8.203125 72.90625 
L 55.078125 72.90625 
L 55.078125 68.703125 
L 28.609375 0 
L 18.3125 0 
L 43.21875 64.59375 
L 8.203125 64.59375 
z
" id="DejaVuSans-55"/>
       </defs>
       <use xlink:href="#DejaVuSans-49"/>
       <use x="63.623047" xlink:href="#DejaVuSans-55"/>
       <use x="127.246094" xlink:href="#DejaVuSans-45"/>
       <use x="163.330078" xlink:href="#DejaVuSans-48"/>
       <use x="226.953125" xlink:href="#DejaVuSans-53"/>
       <use x="290.576172" xlink:href="#DejaVuSans-45"/>
       <use x="326.660156" xlink:href="#DejaVuSans-50"/>
       <use x="390.283203" xlink:href="#DejaVuSans-48"/>
      </g>
     </g>
    </g>
    <g id="xtick_6">
     <g id="line2d_6">
      <g>
       <use style="stroke:#000000;stroke-width:0.8;" x="294.307925" xlink:href="#m36b59a8d7e" y="292.790464"/>
      </g>
     </g>
     <g id="text_6">
      <!-- 21-05-20 -->
      <g transform="translate(253.958647 329.066216)rotate(-30)scale(0.1 -0.1)">
       <use xlink:href="#DejaVuSans-50"/>
       <use x="63.623047" xlink:href="#DejaVuSans-49"/>
       <use x="127.246094" xlink:href="#DejaVuSans-45"/>
       <use x="163.330078" xlink:href="#DejaVuSans-48"/>
       <use x="226.953125" xlink:href="#DejaVuSans-53"/>
       <use x="290.576172" xlink:href="#DejaVuSans-45"/>
       <use x="326.660156" xlink:href="#DejaVuSans-50"/>
       <use x="390.283203" xlink:href="#DejaVuSans-48"/>
      </g>
     </g>
    </g>
    <g id="xtick_7">
     <g id="line2d_7">
      <g>
       <use style="stroke:#000000;stroke-width:0.8;" x="342.757192" xlink:href="#m36b59a8d7e" y="292.790464"/>
      </g>
     </g>
     <g id="text_7">
      <!-- 25-05-20 -->
      <g transform="translate(302.407914 329.066216)rotate(-30)scale(0.1 -0.1)">
       <use xlink:href="#DejaVuSans-50"/>
       <use x="63.623047" xlink:href="#DejaVuSans-53"/>
       <use x="127.246094" xlink:href="#DejaVuSans-45"/>
       <use x="163.330078" xlink:href="#DejaVuSans-48"/>
       <use x="226.953125" xlink:href="#DejaVuSans-53"/>
       <use x="290.576172" xlink:href="#DejaVuSans-45"/>
       <use x="326.660156" xlink:href="#DejaVuSans-50"/>
       <use x="390.283203" xlink:href="#DejaVuSans-48"/>
      </g>
     </g>
    </g>
    <g id="xtick_8">
     <g id="line2d_8">
      <g>
       <use style="stroke:#000000;stroke-width:0.8;" x="391.206459" xlink:href="#m36b59a8d7e" y="292.790464"/>
      </g>
     </g>
     <g id="text_8">
      <!-- 29-05-20 -->
      <g transform="translate(350.857181 329.066216)rotate(-30)scale(0.1 -0.1)">
       <use xlink:href="#DejaVuSans-50"/>
       <use x="63.623047" xlink:href="#DejaVuSans-57"/>
       <use x="127.246094" xlink:href="#DejaVuSans-45"/>
       <use x="163.330078" xlink:href="#DejaVuSans-48"/>
       <use x="226.953125" xlink:href="#DejaVuSans-53"/>
       <use x="290.576172" xlink:href="#DejaVuSans-45"/>
       <use x="326.660156" xlink:href="#DejaVuSans-50"/>
       <use x="390.283203" xlink:href="#DejaVuSans-48"/>
      </g>
     </g>
    </g>
    <g id="xtick_9">
     <g id="line2d_9">
      <g>
       <use style="stroke:#000000;stroke-width:0.8;" x="427.543409" xlink:href="#m36b59a8d7e" y="292.790464"/>
      </g>
     </g>
     <g id="text_9">
      <!-- 01-06-20 -->
      <g transform="translate(387.194131 329.066216)rotate(-30)scale(0.1 -0.1)">
       <defs>
        <path d="M 33.015625 40.375 
Q 26.375 40.375 22.484375 35.828125 
Q 18.609375 31.296875 18.609375 23.390625 
Q 18.609375 15.53125 22.484375 10.953125 
Q 26.375 6.390625 33.015625 6.390625 
Q 39.65625 6.390625 43.53125 10.953125 
Q 47.40625 15.53125 47.40625 23.390625 
Q 47.40625 31.296875 43.53125 35.828125 
Q 39.65625 40.375 33.015625 40.375 
z
M 52.59375 71.296875 
L 52.59375 62.3125 
Q 48.875 64.0625 45.09375 64.984375 
Q 41.3125 65.921875 37.59375 65.921875 
Q 27.828125 65.921875 22.671875 59.328125 
Q 17.53125 52.734375 16.796875 39.40625 
Q 19.671875 43.65625 24.015625 45.921875 
Q 28.375 48.1875 33.59375 48.1875 
Q 44.578125 48.1875 50.953125 41.515625 
Q 57.328125 34.859375 57.328125 23.390625 
Q 57.328125 12.15625 50.6875 5.359375 
Q 44.046875 -1.421875 33.015625 -1.421875 
Q 20.359375 -1.421875 13.671875 8.265625 
Q 6.984375 17.96875 6.984375 36.375 
Q 6.984375 53.65625 15.1875 63.9375 
Q 23.390625 74.21875 37.203125 74.21875 
Q 40.921875 74.21875 44.703125 73.484375 
Q 48.484375 72.75 52.59375 71.296875 
z
" id="DejaVuSans-54"/>
       </defs>
       <use xlink:href="#DejaVuSans-48"/>
       <use x="63.623047" xlink:href="#DejaVuSans-49"/>
       <use x="127.246094" xlink:href="#DejaVuSans-45"/>
       <use x="163.330078" xlink:href="#DejaVuSans-48"/>
       <use x="226.953125" xlink:href="#DejaVuSans-54"/>
       <use x="290.576172" xlink:href="#DejaVuSans-45"/>
       <use x="326.660156" xlink:href="#DejaVuSans-50"/>
       <use x="390.283203" xlink:href="#DejaVuSans-48"/>
      </g>
     </g>
    </g>
   </g>
   <g id="matplotlib.axis_2">
    <g id="ytick_1">
     <g id="line2d_10">
      <defs>
       <path d="M 0 0 
L -3.5 0 
" id="m7b2e0f3c40" style="stroke:#000000;stroke-width:0.8;"/>
      </defs>
      <g>
       <use style="stroke:#000000;stroke-width:0.8;" x="33.2875" xlink:href="#m7b2e0f3c40" y="251.601138"/>
      </g>
     </g>
     <g id="text_10">
      <!-- 0 -->
      <g transform="translate(19.925 255.400357)scale(0.1 -0.1)">
       <use xlink:href="#DejaVuSans-48"/>
      </g>
     </g>
    </g>
    <g id="ytick_2">
     <g id="line2d_11">
      <g>
       <use style="stroke:#000000;stroke-width:0.8;" x="33.2875" xlink:href="#m7b2e0f3c40" y="204.175335"/>
      </g>
     </g>
     <g id="text_11">
      <!-- 50 -->
      <g transform="translate(13.5625 207.974554)scale(0.1 -0.1)">
       <use xlink:href="#DejaVuSans-53"/>
       <use x="63.623047" xlink:href="#DejaVuSans-48"/>
      </g>
     </g>
    </g>
    <g id="ytick_3">
     <g id="line2d_12">
      <g>
       <use style="stroke:#000000;stroke-width:0.8;" x="33.2875" xlink:href="#m7b2e0f3c40" y="156.749532"/>
      </g>
     </g>
     <g id="text_12">
      <!-- 100 -->
      <g transform="translate(7.2 160.548751)scale(0.1 -0.1)">
       <use xlink:href="#DejaVuSans-49"/>
       <use x="63.623047" xlink:href="#DejaVuSans-48"/>
       <use x="127.246094" xlink:href="#DejaVuSans-48"/>
      </g>
     </g>
    </g>
    <g id="ytick_4">
     <g id="line2d_13">
      <g>
       <use style="stroke:#000000;stroke-width:0.8;" x="33.2875" xlink:href="#m7b2e0f3c40" y="109.323729"/>
      </g>
     </g>
     <g id="text_13">
      <!-- 150 -->
      <g transform="translate(7.2 113.122948)scale(0.1 -0.1)">
       <use xlink:href="#DejaVuSans-49"/>
       <use x="63.623047" xlink:href="#DejaVuSans-53"/>
       <use x="127.246094" xlink:href="#DejaVuSans-48"/>
      </g>
     </g>
    </g>
    <g id="ytick_5">
     <g id="line2d_14">
      <g>
       <use style="stroke:#000000;stroke-width:0.8;" x="33.2875" xlink:href="#m7b2e0f3c40" y="61.897926"/>
      </g>
     </g>
     <g id="text_14">
      <!-- 200 -->
      <g transform="translate(7.2 65.697145)scale(0.1 -0.1)">
       <use xlink:href="#DejaVuSans-50"/>
       <use x="63.623047" xlink:href="#DejaVuSans-48"/>
       <use x="127.246094" xlink:href="#DejaVuSans-48"/>
      </g>
     </g>
    </g>
    <g id="ytick_6">
     <g id="line2d_15">
      <g>
       <use style="stroke:#000000;stroke-width:0.8;" x="33.2875" xlink:href="#m7b2e0f3c40" y="14.472123"/>
      </g>
     </g>
     <g id="text_15">
      <!-- 250 -->
      <g transform="translate(7.2 18.271342)scale(0.1 -0.1)">
       <use xlink:href="#DejaVuSans-50"/>
       <use x="63.623047" xlink:href="#DejaVuSans-53"/>
       <use x="127.246094" xlink:href="#DejaVuSans-48"/>
      </g>
     </g>
    </g>
   </g>
   <g id="line2d_16">
    <path clip-path="url(#p500e149d7b)" d="M 52.061591 251.601138 
L 55.08967 251.601138 
L 55.59435 245.34655 
L 56.09903 251.601138 
L 60.136469 251.601138 
L 61.650508 232.837374 
L 62.155188 220.328198 
L 62.659868 251.601138 
L 66.192627 251.601138 
L 66.697307 20.181385 
L 67.201987 195.309847 
L 67.706667 220.328198 
L 68.211347 251.601138 
L 68.716026 220.328198 
L 69.220706 239.091962 
L 69.725386 232.837374 
L 70.230066 176.546083 
L 70.734746 232.837374 
L 71.239426 251.601138 
L 71.744106 251.601138 
L 72.753465 239.091962 
L 73.258145 214.07361 
L 73.762825 239.091962 
L 74.267505 251.601138 
L 87.893861 251.601138 
L 88.903221 239.091962 
L 89.407901 239.091962 
L 89.912581 251.601138 
L 105.557656 251.601138 
L 106.062336 245.34655 
L 106.567016 207.819022 
L 107.071696 251.601138 
L 108.081056 226.582786 
L 108.585736 251.601138 
L 152.492884 251.601138 
L 152.997564 226.582786 
L 153.502243 251.601138 
L 164.100521 251.601138 
L 164.6052 214.07361 
L 165.10988 63.9635 
L 166.11924 251.601138 
L 176.212837 251.601138 
L 176.717517 245.34655 
L 177.222197 251.601138 
L 177.726877 245.34655 
L 178.231557 251.601138 
L 181.764316 251.601138 
L 182.268996 207.819022 
L 182.773675 239.091962 
L 183.278355 251.601138 
L 183.783035 220.328198 
L 184.287715 176.546083 
L 184.792395 170.291495 
L 185.297075 207.819022 
L 185.801755 220.328198 
L 186.306435 226.582786 
L 186.811114 245.34655 
L 187.315794 251.601138 
L 200.437471 251.601138 
L 200.942151 245.34655 
L 201.44683 251.601138 
L 201.95151 245.34655 
L 202.45619 170.291495 
L 202.96087 251.601138 
L 203.46555 251.601138 
L 203.97023 245.34655 
L 204.47491 245.34655 
L 204.979589 251.601138 
L 205.484269 239.091962 
L 205.988949 251.601138 
L 210.026388 251.601138 
L 210.531068 214.07361 
L 211.035748 157.782319 
L 211.540428 201.564434 
L 212.045108 145.273143 
L 212.549787 201.564434 
L 213.054467 220.328198 
L 213.559147 245.34655 
L 214.063827 251.601138 
L 323.074677 251.601138 
L 323.579357 239.091962 
L 324.084037 189.055259 
L 324.588717 251.601138 
L 325.093397 251.601138 
L 325.598077 51.454324 
L 326.102757 145.273143 
L 326.607436 114.000204 
L 327.112116 170.291495 
L 327.616796 170.291495 
L 328.121476 151.527731 
L 328.626156 239.091962 
L 329.130836 232.837374 
L 329.635516 251.601138 
L 387.16902 251.601138 
L 387.6737 245.34655 
L 388.17838 251.601138 
L 427.543409 251.601138 
L 427.543409 251.601138 
" style="fill:none;stroke:#1a3bff;stroke-linecap:square;stroke-width:0.75;"/>
   </g>
   <g id="line2d_17">
    <path clip-path="url(#p500e149d7b)" d="M 52.061591 251.601138 
L 52.566271 252.179625 
L 53.57563 251.691329 
L 54.08031 252.017506 
L 54.58499 252.096751 
L 55.08967 252.019132 
L 55.59435 252.348436 
L 56.09903 254.353469 
L 56.60371 254.944403 
L 57.10839 256.503234 
L 57.613069 264.767358 
L 58.117749 263.810907 
L 58.622429 261.36136 
L 59.127109 261.445922 
L 59.631789 259.296282 
L 60.136469 259.61977 
L 60.641149 258.322506 
L 61.145828 255.524891 
L 61.650508 254.438219 
L 62.155188 252.890146 
L 62.659868 252.358006 
L 63.164548 251.98986 
L 63.669228 252.088558 
L 64.173908 251.787274 
L 64.678587 251.744806 
L 65.183267 251.826866 
L 65.687947 251.680008 
L 66.697307 252.105821 
L 67.201987 251.807664 
L 67.706667 251.901358 
L 68.211347 253.329906 
L 68.716026 253.48158 
L 69.220706 254.559058 
L 69.725386 255.346948 
L 70.734746 256.402785 
L 71.744106 260.005115 
L 72.248785 257.412401 
L 72.753465 257.069399 
L 73.258145 255.80003 
L 73.762825 254.922824 
L 74.267505 253.776546 
L 74.772185 252.97083 
L 75.276865 251.934382 
L 75.781544 251.677506 
L 76.790904 251.601138 
L 79.818983 251.601138 
L 80.323663 252.468587 
L 80.828343 256.064099 
L 81.333023 262.15857 
L 82.342383 270.760567 
L 83.351742 274.86095 
L 83.856422 274.540965 
L 84.361102 273.339021 
L 84.865782 271.643214 
L 85.370462 265.024547 
L 86.379822 256.976081 
L 87.389181 253.644449 
L 87.893861 253.988889 
L 88.398541 253.2708 
L 88.903221 252.237917 
L 89.407901 251.855137 
L 89.912581 251.711469 
L 90.417261 251.722665 
L 90.92194 251.601138 
L 91.9313 251.624092 
L 92.43598 252.766368 
L 92.94066 254.841265 
L 93.95002 256.57954 
L 94.454699 264.471016 
L 94.959379 265.207056 
L 95.464059 273.956536 
L 95.968739 275.061096 
L 96.473419 273.523906 
L 96.978099 266.260704 
L 97.482779 263.866698 
L 98.996818 254.225188 
L 99.501498 252.964263 
L 100.006178 253.567705 
L 101.015538 253.308328 
L 101.520217 252.770371 
L 102.024897 252.689686 
L 102.529577 252.460581 
L 103.538937 252.363072 
L 104.043617 252.389216 
L 104.548297 253.662775 
L 105.052977 254.387494 
L 105.557656 255.361208 
L 107.576376 257.257787 
L 108.081056 256.795823 
L 108.585736 256.898211 
L 109.595095 256.145659 
L 110.099775 254.543421 
L 110.604455 253.520608 
L 111.109135 252.222156 
L 112.623174 252.24142 
L 113.127854 251.961402 
L 113.632534 252.13259 
L 114.137214 251.928128 
L 114.641894 251.9073 
L 115.146574 252.266501 
L 116.155934 252.560216 
L 116.660613 254.516276 
L 117.669973 262.978734 
L 118.174653 262.2517 
L 118.679333 269.476688 
L 119.184013 272.643698 
L 119.688693 274.794964 
L 120.698052 273.178591 
L 121.202732 270.783959 
L 121.707412 267.448325 
L 122.212092 263.367832 
L 123.221452 254.245578 
L 123.726131 252.877261 
L 125.240171 252.151729 
L 125.744851 251.833371 
L 128.26825 251.714033 
L 128.77293 253.937164 
L 129.78229 263.849247 
L 130.79165 274.284965 
L 131.801009 278.578239 
L 132.305689 278.250123 
L 132.810369 277.012778 
L 133.315049 274.551097 
L 133.819729 270.739864 
L 135.333768 254.190037 
L 135.838448 253.388199 
L 136.343128 253.088979 
L 136.847808 252.178561 
L 138.866527 251.80854 
L 140.380567 251.756252 
L 140.885247 253.913772 
L 141.894607 265.719432 
L 142.903966 276.082408 
L 143.408646 278.381282 
L 143.913326 279.083797 
L 144.418006 278.244494 
L 144.922686 279.207513 
L 145.427366 274.322617 
L 145.932045 266.741619 
L 146.941405 259.326867 
L 147.446085 255.604137 
L 147.950765 253.212007 
L 148.455445 252.678803 
L 150.474164 251.853448 
L 151.988204 251.711844 
L 152.492884 251.84932 
L 152.997564 252.93274 
L 153.502243 256.008809 
L 154.006923 265.483571 
L 154.511603 269.639244 
L 155.016283 271.758987 
L 155.520963 265.86016 
L 156.025643 279.809079 
L 157.035002 278.130035 
L 157.539682 275.274941 
L 158.549042 264.667785 
L 159.053722 256.875319 
L 159.558402 254.287984 
L 160.063082 253.83684 
L 160.567761 253.591848 
L 161.072441 252.866566 
L 161.577121 252.665794 
L 162.081801 252.092436 
L 162.586481 251.802285 
L 163.595841 251.927252 
L 164.100521 251.82943 
L 164.6052 251.994364 
L 165.10988 252.7593 
L 165.61456 254.27954 
L 166.11924 256.285699 
L 166.62392 257.070963 
L 167.1286 265.08997 
L 167.63328 264.43918 
L 168.137959 277.791099 
L 168.642639 278.313482 
L 169.147319 276.785549 
L 169.651999 273.783222 
L 170.156679 269.879483 
L 171.166039 256.72696 
L 171.670718 252.857622 
L 173.184758 251.861579 
L 174.194118 251.828742 
L 174.698798 251.756064 
L 175.708157 251.779831 
L 176.212837 252.060037 
L 176.717517 252.131965 
L 178.231557 255.580057 
L 178.736237 256.563778 
L 179.240916 266.3063 
L 179.745596 273.20461 
L 180.250276 264.283691 
L 180.754956 258.561118 
L 181.259636 257.452367 
L 181.764316 256.857619 
L 182.268996 254.84802 
L 182.773675 254.213116 
L 183.278355 253.976318 
L 183.783035 252.808211 
L 184.287715 252.319477 
L 186.306435 251.903672 
L 186.811114 252.131277 
L 188.829834 252.360632 
L 189.334514 254.51859 
L 189.839194 257.806002 
L 190.343873 258.136807 
L 190.848553 257.164781 
L 191.353233 262.172455 
L 191.857913 264.304268 
L 192.362593 265.636808 
L 192.867273 269.265658 
L 193.371953 269.113609 
L 193.876632 267.720024 
L 194.381312 264.136208 
L 194.885992 259.247559 
L 195.390672 255.468224 
L 195.895352 253.704181 
L 196.400032 252.344683 
L 196.904712 252.215651 
L 197.409391 252.302465 
L 197.914071 252.218653 
L 198.418751 252.384775 
L 199.428111 252.425305 
L 199.932791 252.165052 
L 200.437471 252.244485 
L 200.942151 252.200015 
L 203.46555 257.081658 
L 203.97023 257.069211 
L 204.47491 257.346352 
L 204.979589 257.842654 
L 206.998309 254.422582 
L 207.502989 253.982385 
L 208.007669 252.870757 
L 209.017028 252.384462 
L 209.521708 252.47259 
L 210.531068 251.870711 
L 212.045108 251.720475 
L 212.549787 251.725542 
L 213.054467 252.116141 
L 214.063827 254.014783 
L 215.577867 257.388633 
L 216.082546 257.59566 
L 216.587226 258.085019 
L 217.091906 258.254581 
L 217.596586 258.082642 
L 218.101266 257.032372 
L 218.605946 256.590673 
L 220.119985 253.544689 
L 220.624665 253.332533 
L 221.634025 253.23959 
L 222.138705 253.398269 
L 222.643385 253.352485 
L 223.148065 253.461815 
L 223.652744 253.68648 
L 224.157424 253.219638 
L 225.166784 253.497529 
L 226.176144 255.566296 
L 227.185503 257.198369 
L 227.690183 257.651639 
L 228.194863 258.364411 
L 228.699543 258.418514 
L 229.204223 257.968746 
L 229.708903 257.74258 
L 230.213583 257.984258 
L 230.718262 260.262992 
L 231.222942 256.689433 
L 232.232302 252.946812 
L 232.736982 252.33993 
L 233.746342 251.707966 
L 237.279101 251.626594 
L 237.783781 254.563686 
L 238.28846 258.477182 
L 239.29782 269.953662 
L 239.8025 271.550959 
L 240.30718 274.287029 
L 240.81186 275.867125 
L 241.31654 276.006853 
L 241.821219 274.411057 
L 242.325899 271.743288 
L 243.335259 264.355494 
L 244.344619 254.083646 
L 244.849299 253.085727 
L 245.353978 252.941871 
L 245.858658 252.348561 
L 246.868018 251.814294 
L 248.382058 251.674442 
L 249.391417 251.711531 
L 249.896097 254.88636 
L 251.914817 275.289264 
L 252.419497 277.196288 
L 252.924176 278.209093 
L 253.428856 277.986367 
L 253.933536 276.527735 
L 254.438216 274.404552 
L 255.447576 266.99199 
L 256.456935 254.891364 
L 256.961615 253.643699 
L 257.466295 253.142143 
L 257.970975 252.831478 
L 258.475655 252.373767 
L 258.980335 252.100004 
L 259.485015 252.097565 
L 259.989695 251.870836 
L 261.503734 251.880968 
L 262.008414 255.341194 
L 263.522454 270.341947 
L 264.027133 275.094684 
L 264.531813 278.145546 
L 265.036493 279.628259 
L 265.541173 279.150096 
L 266.550533 274.586936 
L 267.055213 270.872649 
L 268.569252 254.181343 
L 269.073932 253.795435 
L 269.578612 252.890896 
L 270.587972 252.337428 
L 271.092652 252.147101 
L 271.597331 252.188819 
L 273.111371 251.776704 
L 273.616051 251.990549 
L 274.120731 256.00024 
L 275.63477 272.637944 
L 276.13945 276.063457 
L 276.64413 278.218412 
L 277.14881 279.546762 
L 277.65349 274.658676 
L 278.15817 271.053907 
L 278.662849 274.93613 
L 279.167529 270.493871 
L 279.672209 262.240755 
L 280.681569 256.930485 
L 281.186249 255.787834 
L 281.690929 255.622963 
L 282.195609 254.609094 
L 282.700288 254.291424 
L 283.204968 254.10854 
L 284.719008 253.148085 
L 285.223688 252.633583 
L 285.728368 252.933678 
L 286.737727 256.185125 
L 287.242407 261.483574 
L 287.747087 261.348976 
L 288.251767 264.689301 
L 288.756447 276.495461 
L 289.261127 276.508971 
L 289.765806 273.131994 
L 290.775166 269.553494 
L 291.279846 262.581943 
L 291.784526 260.227028 
L 292.289206 259.409741 
L 292.793886 254.570691 
L 293.298565 252.71902 
L 293.803245 252.679054 
L 296.326645 251.763444 
L 297.336004 251.687076 
L 297.840684 251.790026 
L 298.345364 255.424693 
L 300.364084 274.635659 
L 300.868763 275.660161 
L 301.373443 272.809132 
L 302.382803 276.704802 
L 302.887483 273.516901 
L 303.896843 264.789875 
L 304.906202 252.922107 
L 305.410882 253.201249 
L 305.915562 252.225533 
L 306.924922 252.13847 
L 307.429602 251.818735 
L 307.934282 251.886722 
L 308.943641 251.73067 
L 309.448321 251.685387 
L 309.953001 251.820048 
L 310.457681 254.997817 
L 311.467041 266.13361 
L 311.97172 266.918373 
L 312.4764 273.950094 
L 312.98108 264.102871 
L 313.48576 266.641483 
L 313.99044 277.907684 
L 314.49512 275.827409 
L 314.9998 272.8 
L 315.504479 261.235267 
L 316.009159 259.749427 
L 317.523199 252.600433 
L 318.532559 252.074423 
L 319.037239 253.462503 
L 319.541918 253.616866 
L 320.046598 253.382007 
L 320.551278 252.986341 
L 321.055958 251.943514 
L 321.560638 251.817171 
L 322.065318 252.36451 
L 322.569998 253.428666 
L 323.074677 254.90281 
L 323.579357 256.999785 
L 324.084037 257.710182 
L 324.588717 268.608676 
L 325.093397 272.120002 
L 325.598077 256.354124 
L 326.607436 255.933128 
L 327.616796 254.723553 
L 328.121476 254.090214 
L 329.130836 252.203642 
L 329.635516 252.088808 
L 330.644875 251.601138 
L 332.158915 251.822238 
L 332.663595 251.932944 
L 333.168275 252.180938 
L 333.672955 252.099066 
L 334.177634 252.27607 
L 334.682314 253.922591 
L 335.186994 258.568499 
L 336.196354 265.573262 
L 336.701034 267.645282 
L 337.205714 262.013588 
L 337.710393 268.514982 
L 338.215073 273.282041 
L 338.719753 272.455623 
L 339.729113 269.041618 
L 340.233793 264.499599 
L 340.738473 258.84001 
L 341.747832 252.608314 
L 342.757192 251.896417 
L 343.261872 252.161799 
L 343.766552 252.082616 
L 344.271232 251.763507 
L 345.280591 251.734861 
L 345.785271 251.8734 
L 346.289951 252.137531 
L 347.299311 254.346777 
L 347.803991 255.543842 
L 348.308671 257.035186 
L 348.81335 264.553326 
L 349.31803 261.126875 
L 349.82271 260.985271 
L 350.32739 264.654463 
L 350.83207 266.228993 
L 351.84143 261.788986 
L 352.346109 260.477461 
L 353.355469 252.986717 
L 353.860149 252.460456 
L 354.869509 251.818672 
L 355.374189 251.653551 
L 357.897588 251.667624 
L 358.402268 251.727293 
L 359.411628 259.866513 
L 359.916307 264.879816 
L 360.420987 267.858813 
L 360.925667 269.365043 
L 361.430347 273.760768 
L 361.935027 275.387023 
L 362.439707 271.506176 
L 362.944387 272.416844 
L 363.449066 267.5337 
L 363.953746 266.481365 
L 364.458426 264.528933 
L 365.467786 255.743864 
L 365.972466 253.442238 
L 366.477146 252.791949 
L 366.981826 252.504551 
L 367.486505 252.535135 
L 368.495865 252.24511 
L 369.505225 251.889412 
L 370.009905 251.862642 
L 370.514585 252.061288 
L 371.019264 255.836557 
L 372.533304 271.557777 
L 373.542664 276.23796 
L 374.047344 277.085832 
L 374.552023 277.116479 
L 375.056703 275.90778 
L 375.561383 273.29011 
L 376.570743 265.445355 
L 377.075423 259.53846 
L 377.580103 255.420627 
L 378.084783 253.374376 
L 379.094142 252.352939 
L 379.598822 252.321166 
L 380.103502 251.976476 
L 381.112862 251.873588 
L 382.122221 251.803036 
L 382.626901 252.34412 
L 383.131581 253.274678 
L 383.636261 255.265513 
L 384.140941 263.762434 
L 385.150301 272.728323 
L 385.65498 266.250571 
L 386.15966 270.388982 
L 386.66434 272.930346 
L 387.16902 266.842943 
L 387.6737 263.080121 
L 388.17838 265.373052 
L 389.187739 260.70025 
L 389.692419 256.962633 
L 390.197099 254.16333 
L 390.701779 253.139141 
L 391.206459 253.016676 
L 391.711139 253.631627 
L 392.215819 254.943777 
L 393.225178 252.817342 
L 394.234538 252.723524 
L 394.739218 253.082412 
L 395.243898 256.290515 
L 395.748578 261.052133 
L 396.757937 267.77594 
L 397.262617 270.2268 
L 397.767297 271.580606 
L 398.271977 271.274131 
L 398.776657 272.071091 
L 399.281337 273.474433 
L 401.300056 259.716653 
L 401.804736 255.627091 
L 402.309416 254.261339 
L 402.814096 253.995707 
L 403.318776 253.182485 
L 403.823456 252.810087 
L 404.328135 253.101176 
L 405.842175 252.983902 
L 406.346855 252.846551 
L 406.851535 252.955694 
L 407.356215 256.077046 
L 408.365574 264.866493 
L 408.870254 268.539875 
L 409.879614 273.531099 
L 410.384294 272.920902 
L 410.888974 267.210463 
L 411.393653 265.05582 
L 411.898333 267.469841 
L 412.403013 264.977262 
L 412.907693 263.155801 
L 413.917053 254.915507 
L 414.421733 253.14402 
L 414.926413 252.6748 
L 415.431092 252.706511 
L 416.440452 252.241107 
L 418.459172 252.054345 
L 418.963851 252.290143 
L 419.468531 255.382724 
L 421.487251 271.555713 
L 421.991931 272.479765 
L 422.49661 273.034422 
L 423.00129 273.272785 
L 423.50597 271.673361 
L 425.02001 263.396728 
L 425.52469 260.372134 
L 426.02937 256.198635 
L 426.534049 253.830773 
L 427.038729 253.60811 
L 427.543409 253.672657 
L 427.543409 253.672657 
" style="fill:none;stroke:#ff6600;stroke-linecap:square;stroke-width:0.75;"/>
   </g>
   <g id="patch_3">
    <path d="M 33.2875 292.790464 
L 33.2875 7.2 
" style="fill:none;stroke:#000000;stroke-linecap:square;stroke-linejoin:miter;stroke-width:0.8;"/>
   </g>
   <g id="patch_4">
    <path d="M 446.3175 292.790464 
L 446.3175 7.2 
" style="fill:none;stroke:#000000;stroke-linecap:square;stroke-linejoin:miter;stroke-width:0.8;"/>
   </g>
   <g id="patch_5">
    <path d="M 33.2875 292.790464 
L 446.3175 292.790464 
" style="fill:none;stroke:#000000;stroke-linecap:square;stroke-linejoin:miter;stroke-width:0.8;"/>
   </g>
   <g id="patch_6">
    <path d="M 33.2875 7.2 
L 446.3175 7.2 
" style="fill:none;stroke:#000000;stroke-linecap:square;stroke-linejoin:miter;stroke-width:0.8;"/>
   </g>
   <g id="legend_1">
    <g id="patch_7">
     <path d="M 200.4175 49.6 
L 439.3175 49.6 
Q 441.3175 49.6 441.3175 47.6 
L 441.3175 14.2 
Q 441.3175 12.2 439.3175 12.2 
L 200.4175 12.2 
Q 198.4175 12.2 198.4175 14.2 
L 198.4175 47.6 
Q 198.4175 49.6 200.4175 49.6 
z
" style="fill:#ffffff;opacity:0.8;stroke:#cccccc;stroke-linejoin:miter;"/>
    </g>
    <g id="line2d_18">
     <path d="M 202.4175 21.8 
L 222.4175 21.8 
" style="fill:none;stroke:#1a3bff;stroke-linecap:square;stroke-width:0.75;"/>
    </g>
    <g id="line2d_19"/>
    <g id="text_16">
     <!-- precipitation influx ($m^3$/$\delta t_{exchange}$) -->
     <g transform="translate(230.4175 25.3)scale(0.1 -0.1)">
      <defs>
       <path d="M 18.109375 8.203125 
L 18.109375 -20.796875 
L 9.078125 -20.796875 
L 9.078125 54.6875 
L 18.109375 54.6875 
L 18.109375 46.390625 
Q 20.953125 51.265625 25.265625 53.625 
Q 29.59375 56 35.59375 56 
Q 45.5625 56 51.78125 48.09375 
Q 58.015625 40.1875 58.015625 27.296875 
Q 58.015625 14.40625 51.78125 6.484375 
Q 45.5625 -1.421875 35.59375 -1.421875 
Q 29.59375 -1.421875 25.265625 0.953125 
Q 20.953125 3.328125 18.109375 8.203125 
z
M 48.6875 27.296875 
Q 48.6875 37.203125 44.609375 42.84375 
Q 40.53125 48.484375 33.40625 48.484375 
Q 26.265625 48.484375 22.1875 42.84375 
Q 18.109375 37.203125 18.109375 27.296875 
Q 18.109375 17.390625 22.1875 11.75 
Q 26.265625 6.109375 33.40625 6.109375 
Q 40.53125 6.109375 44.609375 11.75 
Q 48.6875 17.390625 48.6875 27.296875 
z
" id="DejaVuSans-112"/>
       <path d="M 41.109375 46.296875 
Q 39.59375 47.171875 37.8125 47.578125 
Q 36.03125 48 33.890625 48 
Q 26.265625 48 22.1875 43.046875 
Q 18.109375 38.09375 18.109375 28.8125 
L 18.109375 0 
L 9.078125 0 
L 9.078125 54.6875 
L 18.109375 54.6875 
L 18.109375 46.1875 
Q 20.953125 51.171875 25.484375 53.578125 
Q 30.03125 56 36.53125 56 
Q 37.453125 56 38.578125 55.875 
Q 39.703125 55.765625 41.0625 55.515625 
z
" id="DejaVuSans-114"/>
       <path d="M 56.203125 29.59375 
L 56.203125 25.203125 
L 14.890625 25.203125 
Q 15.484375 15.921875 20.484375 11.0625 
Q 25.484375 6.203125 34.421875 6.203125 
Q 39.59375 6.203125 44.453125 7.46875 
Q 49.3125 8.734375 54.109375 11.28125 
L 54.109375 2.78125 
Q 49.265625 0.734375 44.1875 -0.34375 
Q 39.109375 -1.421875 33.890625 -1.421875 
Q 20.796875 -1.421875 13.15625 6.1875 
Q 5.515625 13.8125 5.515625 26.8125 
Q 5.515625 40.234375 12.765625 48.109375 
Q 20.015625 56 32.328125 56 
Q 43.359375 56 49.78125 48.890625 
Q 56.203125 41.796875 56.203125 29.59375 
z
M 47.21875 32.234375 
Q 47.125 39.59375 43.09375 43.984375 
Q 39.0625 48.390625 32.421875 48.390625 
Q 24.90625 48.390625 20.390625 44.140625 
Q 15.875 39.890625 15.1875 32.171875 
z
" id="DejaVuSans-101"/>
       <path d="M 48.78125 52.59375 
L 48.78125 44.1875 
Q 44.96875 46.296875 41.140625 47.34375 
Q 37.3125 48.390625 33.40625 48.390625 
Q 24.65625 48.390625 19.8125 42.84375 
Q 14.984375 37.3125 14.984375 27.296875 
Q 14.984375 17.28125 19.8125 11.734375 
Q 24.65625 6.203125 33.40625 6.203125 
Q 37.3125 6.203125 41.140625 7.25 
Q 44.96875 8.296875 48.78125 10.40625 
L 48.78125 2.09375 
Q 45.015625 0.34375 40.984375 -0.53125 
Q 36.96875 -1.421875 32.421875 -1.421875 
Q 20.0625 -1.421875 12.78125 6.34375 
Q 5.515625 14.109375 5.515625 27.296875 
Q 5.515625 40.671875 12.859375 48.328125 
Q 20.21875 56 33.015625 56 
Q 37.15625 56 41.109375 55.140625 
Q 45.0625 54.296875 48.78125 52.59375 
z
" id="DejaVuSans-99"/>
       <path d="M 9.421875 54.6875 
L 18.40625 54.6875 
L 18.40625 0 
L 9.421875 0 
z
M 9.421875 75.984375 
L 18.40625 75.984375 
L 18.40625 64.59375 
L 9.421875 64.59375 
z
" id="DejaVuSans-105"/>
       <path d="M 18.3125 70.21875 
L 18.3125 54.6875 
L 36.8125 54.6875 
L 36.8125 47.703125 
L 18.3125 47.703125 
L 18.3125 18.015625 
Q 18.3125 11.328125 20.140625 9.421875 
Q 21.96875 7.515625 27.59375 7.515625 
L 36.8125 7.515625 
L 36.8125 0 
L 27.59375 0 
Q 17.1875 0 13.234375 3.875 
Q 9.28125 7.765625 9.28125 18.015625 
L 9.28125 47.703125 
L 2.6875 47.703125 
L 2.6875 54.6875 
L 9.28125 54.6875 
L 9.28125 70.21875 
z
" id="DejaVuSans-116"/>
       <path d="M 34.28125 27.484375 
Q 23.390625 27.484375 19.1875 25 
Q 14.984375 22.515625 14.984375 16.5 
Q 14.984375 11.71875 18.140625 8.90625 
Q 21.296875 6.109375 26.703125 6.109375 
Q 34.1875 6.109375 38.703125 11.40625 
Q 43.21875 16.703125 43.21875 25.484375 
L 43.21875 27.484375 
z
M 52.203125 31.203125 
L 52.203125 0 
L 43.21875 0 
L 43.21875 8.296875 
Q 40.140625 3.328125 35.546875 0.953125 
Q 30.953125 -1.421875 24.3125 -1.421875 
Q 15.921875 -1.421875 10.953125 3.296875 
Q 6 8.015625 6 15.921875 
Q 6 25.140625 12.171875 29.828125 
Q 18.359375 34.515625 30.609375 34.515625 
L 43.21875 34.515625 
L 43.21875 35.40625 
Q 43.21875 41.609375 39.140625 45 
Q 35.0625 48.390625 27.6875 48.390625 
Q 23 48.390625 18.546875 47.265625 
Q 14.109375 46.140625 10.015625 43.890625 
L 10.015625 52.203125 
Q 14.9375 54.109375 19.578125 55.046875 
Q 24.21875 56 28.609375 56 
Q 40.484375 56 46.34375 49.84375 
Q 52.203125 43.703125 52.203125 31.203125 
z
" id="DejaVuSans-97"/>
       <path d="M 30.609375 48.390625 
Q 23.390625 48.390625 19.1875 42.75 
Q 14.984375 37.109375 14.984375 27.296875 
Q 14.984375 17.484375 19.15625 11.84375 
Q 23.34375 6.203125 30.609375 6.203125 
Q 37.796875 6.203125 41.984375 11.859375 
Q 46.1875 17.53125 46.1875 27.296875 
Q 46.1875 37.015625 41.984375 42.703125 
Q 37.796875 48.390625 30.609375 48.390625 
z
M 30.609375 56 
Q 42.328125 56 49.015625 48.375 
Q 55.71875 40.765625 55.71875 27.296875 
Q 55.71875 13.875 49.015625 6.21875 
Q 42.328125 -1.421875 30.609375 -1.421875 
Q 18.84375 -1.421875 12.171875 6.21875 
Q 5.515625 13.875 5.515625 27.296875 
Q 5.515625 40.765625 12.171875 48.375 
Q 18.84375 56 30.609375 56 
z
" id="DejaVuSans-111"/>
       <path d="M 54.890625 33.015625 
L 54.890625 0 
L 45.90625 0 
L 45.90625 32.71875 
Q 45.90625 40.484375 42.875 44.328125 
Q 39.84375 48.1875 33.796875 48.1875 
Q 26.515625 48.1875 22.3125 43.546875 
Q 18.109375 38.921875 18.109375 30.90625 
L 18.109375 0 
L 9.078125 0 
L 9.078125 54.6875 
L 18.109375 54.6875 
L 18.109375 46.1875 
Q 21.34375 51.125 25.703125 53.5625 
Q 30.078125 56 35.796875 56 
Q 45.21875 56 50.046875 50.171875 
Q 54.890625 44.34375 54.890625 33.015625 
z
" id="DejaVuSans-110"/>
       <path id="DejaVuSans-32"/>
       <path d="M 37.109375 75.984375 
L 37.109375 68.5 
L 28.515625 68.5 
Q 23.6875 68.5 21.796875 66.546875 
Q 19.921875 64.59375 19.921875 59.515625 
L 19.921875 54.6875 
L 34.71875 54.6875 
L 34.71875 47.703125 
L 19.921875 47.703125 
L 19.921875 0 
L 10.890625 0 
L 10.890625 47.703125 
L 2.296875 47.703125 
L 2.296875 54.6875 
L 10.890625 54.6875 
L 10.890625 58.5 
Q 10.890625 67.625 15.140625 71.796875 
Q 19.390625 75.984375 28.609375 75.984375 
z
" id="DejaVuSans-102"/>
       <path d="M 9.421875 75.984375 
L 18.40625 75.984375 
L 18.40625 0 
L 9.421875 0 
z
" id="DejaVuSans-108"/>
       <path d="M 8.5 21.578125 
L 8.5 54.6875 
L 17.484375 54.6875 
L 17.484375 21.921875 
Q 17.484375 14.15625 20.5 10.265625 
Q 23.53125 6.390625 29.59375 6.390625 
Q 36.859375 6.390625 41.078125 11.03125 
Q 45.3125 15.671875 45.3125 23.6875 
L 45.3125 54.6875 
L 54.296875 54.6875 
L 54.296875 0 
L 45.3125 0 
L 45.3125 8.40625 
Q 42.046875 3.421875 37.71875 1 
Q 33.40625 -1.421875 27.6875 -1.421875 
Q 18.265625 -1.421875 13.375 4.4375 
Q 8.5 10.296875 8.5 21.578125 
z
M 31.109375 56 
z
" id="DejaVuSans-117"/>
       <path d="M 54.890625 54.6875 
L 35.109375 28.078125 
L 55.90625 0 
L 45.3125 0 
L 29.390625 21.484375 
L 13.484375 0 
L 2.875 0 
L 24.125 28.609375 
L 4.6875 54.6875 
L 15.28125 54.6875 
L 29.78125 35.203125 
L 44.28125 54.6875 
z
" id="DejaVuSans-120"/>
       <path d="M 31 75.875 
Q 24.46875 64.65625 21.28125 53.65625 
Q 18.109375 42.671875 18.109375 31.390625 
Q 18.109375 20.125 21.3125 9.0625 
Q 24.515625 -2 31 -13.1875 
L 23.1875 -13.1875 
Q 15.875 -1.703125 12.234375 9.375 
Q 8.59375 20.453125 8.59375 31.390625 
Q 8.59375 42.28125 12.203125 53.3125 
Q 15.828125 64.359375 23.1875 75.875 
z
" id="DejaVuSans-40"/>
       <path d="M 89.796875 33.015625 
L 83.40625 0 
L 74.421875 0 
L 80.71875 32.71875 
Q 81.109375 34.8125 81.296875 36.328125 
Q 81.5 37.84375 81.5 38.921875 
Q 81.5 43.3125 79.046875 45.75 
Q 76.609375 48.1875 72.21875 48.1875 
Q 65.671875 48.1875 60.546875 43.28125 
Q 55.421875 38.375 53.90625 30.515625 
L 47.90625 0 
L 38.921875 0 
L 45.3125 32.71875 
Q 45.703125 34.515625 45.890625 36.046875 
Q 46.09375 37.59375 46.09375 38.8125 
Q 46.09375 43.265625 43.65625 45.71875 
Q 41.21875 48.1875 36.921875 48.1875 
Q 30.28125 48.1875 25.140625 43.28125 
Q 20.015625 38.375 18.5 30.515625 
L 12.5 0 
L 3.515625 0 
L 14.203125 54.6875 
L 23.1875 54.6875 
L 21.484375 46.1875 
Q 25.140625 50.984375 30.046875 53.484375 
Q 34.96875 56 40.578125 56 
Q 46.53125 56 50.359375 52.875 
Q 54.203125 49.75 54.984375 44.1875 
Q 59.078125 49.953125 64.46875 52.96875 
Q 69.875 56 75.875 56 
Q 82.90625 56 86.734375 51.953125 
Q 90.578125 47.90625 90.578125 40.484375 
Q 90.578125 38.875 90.375 36.9375 
Q 90.1875 35.015625 89.796875 33.015625 
z
" id="DejaVuSans-Oblique-109"/>
       <path d="M 25.390625 72.90625 
L 33.6875 72.90625 
L 8.296875 -9.28125 
L 0 -9.28125 
z
" id="DejaVuSans-47"/>
       <path d="M 54.25 63.328125 
Q 49.953125 66.75 38.28125 66.75 
Q 25.921875 66.75 24.8125 61.03125 
Q 23.921875 56.546875 36.375 54.203125 
Q 46.140625 52.390625 50.828125 46.921875 
Q 56.5 40.328125 53.859375 26.8125 
Q 51.3125 13.875 43.171875 6.25 
Q 34.96875 -1.421875 23.25 -1.421875 
Q 11.578125 -1.421875 6.34375 6.25 
Q 1.125 13.875 3.765625 27.296875 
Q 5.671875 37.25 13.921875 45.3125 
Q 17.140625 48.4375 21.140625 50.203125 
Q 14.265625 54.046875 15.625 60.9375 
Q 18.21875 74.21875 39.75 74.21875 
Q 50.53125 74.21875 55.71875 70.796875 
z
M 27.390625 47.75 
Q 23.828125 46.34375 20.40625 42.78125 
Q 15.140625 37.25 13.234375 27.296875 
Q 11.28125 17.390625 14.359375 11.8125 
Q 17.484375 6.203125 24.75 6.203125 
Q 31.9375 6.203125 37.203125 11.859375 
Q 42.53125 17.53125 44.34375 26.8125 
Q 46.1875 36.53125 42.671875 41.21875 
Q 38.921875 46.234375 32.859375 46.78125 
Q 29.78125 47.078125 27.390625 47.75 
z
" id="DejaVuSans-Oblique-948"/>
       <path d="M 42.28125 54.6875 
L 40.921875 47.703125 
L 23 47.703125 
L 17.1875 18.015625 
Q 16.890625 16.359375 16.75 15.234375 
Q 16.609375 14.109375 16.609375 13.484375 
Q 16.609375 10.359375 18.484375 8.9375 
Q 20.359375 7.515625 24.515625 7.515625 
L 33.59375 7.515625 
L 32.078125 0 
L 23.484375 0 
Q 15.484375 0 11.546875 3.125 
Q 7.625 6.25 7.625 12.59375 
Q 7.625 13.71875 7.765625 15.0625 
Q 7.90625 16.40625 8.203125 18.015625 
L 14.015625 47.703125 
L 6.390625 47.703125 
L 7.8125 54.6875 
L 15.28125 54.6875 
L 18.3125 70.21875 
L 27.296875 70.21875 
L 24.3125 54.6875 
z
" id="DejaVuSans-Oblique-116"/>
       <path d="M 48.09375 32.234375 
Q 48.25 33.015625 48.3125 33.84375 
Q 48.390625 34.671875 48.390625 35.5 
Q 48.390625 41.453125 44.890625 44.921875 
Q 41.40625 48.390625 35.40625 48.390625 
Q 28.71875 48.390625 23.578125 44.15625 
Q 18.453125 39.9375 15.828125 32.171875 
z
M 55.90625 25.203125 
L 14.109375 25.203125 
Q 13.8125 23.34375 13.71875 22.265625 
Q 13.625 21.1875 13.625 20.40625 
Q 13.625 13.625 17.796875 9.90625 
Q 21.96875 6.203125 29.59375 6.203125 
Q 35.453125 6.203125 40.671875 7.515625 
Q 45.90625 8.84375 50.390625 11.375 
L 48.6875 2.484375 
Q 43.84375 0.53125 38.6875 -0.4375 
Q 33.546875 -1.421875 28.21875 -1.421875 
Q 16.84375 -1.421875 10.71875 4.015625 
Q 4.59375 9.46875 4.59375 19.484375 
Q 4.59375 28.03125 7.640625 35.375 
Q 10.6875 42.71875 16.609375 48.484375 
Q 20.40625 52.09375 25.65625 54.046875 
Q 30.90625 56 36.8125 56 
Q 46.09375 56 51.578125 50.4375 
Q 57.078125 44.875 57.078125 35.5 
Q 57.078125 33.25 56.78125 30.6875 
Q 56.5 28.125 55.90625 25.203125 
z
" id="DejaVuSans-Oblique-101"/>
       <path d="M 60.015625 54.6875 
L 34.90625 27.875 
L 50.296875 0 
L 39.984375 0 
L 28.421875 21.6875 
L 8.296875 0 
L -2.59375 0 
L 24.3125 28.8125 
L 10.015625 54.6875 
L 20.3125 54.6875 
L 30.8125 34.90625 
L 49.125 54.6875 
z
" id="DejaVuSans-Oblique-120"/>
       <path d="M 53.609375 52.59375 
L 51.8125 43.703125 
Q 48.578125 46.046875 44.9375 47.21875 
Q 41.3125 48.390625 37.40625 48.390625 
Q 33.109375 48.390625 29.21875 46.875 
Q 25.34375 45.359375 22.703125 42.578125 
Q 18.5 38.328125 16.203125 32.609375 
Q 13.921875 26.90625 13.921875 20.796875 
Q 13.921875 13.421875 17.609375 9.8125 
Q 21.296875 6.203125 28.8125 6.203125 
Q 32.515625 6.203125 36.6875 7.328125 
Q 40.875 8.453125 45.40625 10.6875 
L 43.703125 1.8125 
Q 39.796875 0.203125 35.671875 -0.609375 
Q 31.546875 -1.421875 27.203125 -1.421875 
Q 16.3125 -1.421875 10.453125 4.015625 
Q 4.59375 9.46875 4.59375 19.578125 
Q 4.59375 28.078125 7.640625 35.234375 
Q 10.6875 42.390625 16.703125 48.09375 
Q 20.796875 52 26.3125 54 
Q 31.84375 56 38.375 56 
Q 42.1875 56 45.9375 55.140625 
Q 49.703125 54.296875 53.609375 52.59375 
z
" id="DejaVuSans-Oblique-99"/>
       <path d="M 55.71875 33.015625 
L 49.3125 0 
L 40.28125 0 
L 46.6875 32.671875 
Q 47.125 34.96875 47.359375 36.71875 
Q 47.609375 38.484375 47.609375 39.5 
Q 47.609375 43.609375 45.015625 45.890625 
Q 42.4375 48.1875 37.796875 48.1875 
Q 30.5625 48.1875 25.265625 43.296875 
Q 19.96875 38.421875 18.40625 30.328125 
L 12.5 0 
L 3.515625 0 
L 18.3125 75.984375 
L 27.296875 75.984375 
L 21.484375 46.09375 
Q 24.90625 50.6875 30.21875 53.34375 
Q 35.546875 56 41.40625 56 
Q 48.640625 56 52.609375 52.09375 
Q 56.59375 48.1875 56.59375 41.109375 
Q 56.59375 39.359375 56.375 37.359375 
Q 56.15625 35.359375 55.71875 33.015625 
z
" id="DejaVuSans-Oblique-104"/>
       <path d="M 53.71875 31.203125 
L 47.609375 0 
L 38.625 0 
L 40.28125 8.296875 
Q 36.328125 3.421875 31.265625 1 
Q 26.21875 -1.421875 20.015625 -1.421875 
Q 13.03125 -1.421875 8.5625 2.84375 
Q 4.109375 7.125 4.109375 13.8125 
Q 4.109375 23.390625 11.75 28.953125 
Q 19.390625 34.515625 32.8125 34.515625 
L 45.3125 34.515625 
L 45.796875 36.921875 
Q 45.90625 37.3125 45.953125 37.765625 
Q 46 38.234375 46 39.203125 
Q 46 43.5625 42.453125 45.96875 
Q 38.921875 48.390625 32.515625 48.390625 
Q 28.125 48.390625 23.5 47.265625 
Q 18.890625 46.140625 14.015625 43.890625 
L 15.578125 52.203125 
Q 20.65625 54.109375 25.515625 55.046875 
Q 30.375 56 34.90625 56 
Q 44.578125 56 49.625 51.796875 
Q 54.6875 47.609375 54.6875 39.59375 
Q 54.6875 37.984375 54.4375 35.8125 
Q 54.203125 33.640625 53.71875 31.203125 
z
M 44 27.484375 
L 35.015625 27.484375 
Q 23.96875 27.484375 18.671875 24.53125 
Q 13.375 21.578125 13.375 15.375 
Q 13.375 11.078125 16.078125 8.640625 
Q 18.796875 6.203125 23.578125 6.203125 
Q 30.90625 6.203125 36.375 11.453125 
Q 41.84375 16.703125 43.609375 25.484375 
z
" id="DejaVuSans-Oblique-97"/>
       <path d="M 55.71875 33.015625 
L 49.3125 0 
L 40.28125 0 
L 46.6875 32.671875 
Q 47.125 34.96875 47.359375 36.71875 
Q 47.609375 38.484375 47.609375 39.5 
Q 47.609375 43.609375 45.015625 45.890625 
Q 42.4375 48.1875 37.796875 48.1875 
Q 30.5625 48.1875 25.34375 43.375 
Q 20.125 38.578125 18.5 30.328125 
L 12.5 0 
L 3.515625 0 
L 14.109375 54.6875 
L 23.09375 54.6875 
L 21.296875 46.09375 
Q 25.046875 50.828125 30.3125 53.40625 
Q 35.59375 56 41.40625 56 
Q 48.640625 56 52.609375 52.09375 
Q 56.59375 48.1875 56.59375 41.109375 
Q 56.59375 39.359375 56.375 37.359375 
Q 56.15625 35.359375 55.71875 33.015625 
z
" id="DejaVuSans-Oblique-110"/>
       <path d="M 59.625 54.6875 
L 50.296875 6.78125 
Q 47.609375 -7.125 40.015625 -13.953125 
Q 32.421875 -20.796875 19.578125 -20.796875 
Q 14.84375 -20.796875 10.78125 -20.09375 
Q 6.734375 -19.390625 3.21875 -17.921875 
L 4.890625 -9.1875 
Q 8.203125 -11.328125 11.90625 -12.34375 
Q 15.625 -13.375 19.828125 -13.375 
Q 28.375 -13.375 33.859375 -8.703125 
Q 39.359375 -4.046875 41.109375 4.6875 
L 41.890625 8.796875 
Q 38.140625 4.5 33.15625 2.25 
Q 28.171875 0 22.40625 0 
Q 14.109375 0 9.34375 5.484375 
Q 4.59375 10.984375 4.59375 20.609375 
Q 4.59375 28.171875 7.46875 35.421875 
Q 10.359375 42.671875 15.578125 48.296875 
Q 19.046875 52 23.65625 54 
Q 28.265625 56 33.296875 56 
Q 38.8125 56 42.90625 53.4375 
Q 47.015625 50.875 49.03125 46.1875 
L 50.59375 54.6875 
z
M 46.09375 34.625 
Q 46.09375 41.265625 42.96875 44.875 
Q 39.84375 48.484375 34.078125 48.484375 
Q 30.515625 48.484375 27.296875 47.0625 
Q 24.078125 45.65625 21.78125 43.109375 
Q 18.0625 38.921875 15.984375 33.234375 
Q 13.921875 27.546875 13.921875 21.484375 
Q 13.921875 14.75 17.0625 11.125 
Q 20.21875 7.515625 26.125 7.515625 
Q 34.671875 7.515625 40.375 15.25 
Q 46.09375 23 46.09375 34.625 
z
" id="DejaVuSans-Oblique-103"/>
       <path d="M 8.015625 75.875 
L 15.828125 75.875 
Q 23.140625 64.359375 26.78125 53.3125 
Q 30.421875 42.28125 30.421875 31.390625 
Q 30.421875 20.453125 26.78125 9.375 
Q 23.140625 -1.703125 15.828125 -13.1875 
L 8.015625 -13.1875 
Q 14.5 -2 17.703125 9.0625 
Q 20.90625 20.125 20.90625 31.390625 
Q 20.90625 42.671875 17.703125 53.65625 
Q 14.5 64.65625 8.015625 75.875 
z
" id="DejaVuSans-41"/>
      </defs>
      <use transform="translate(0 0.765625)" xlink:href="#DejaVuSans-112"/>
      <use transform="translate(63.476562 0.765625)" xlink:href="#DejaVuSans-114"/>
      <use transform="translate(104.589844 0.765625)" xlink:href="#DejaVuSans-101"/>
      <use transform="translate(166.113281 0.765625)" xlink:href="#DejaVuSans-99"/>
      <use transform="translate(221.09375 0.765625)" xlink:href="#DejaVuSans-105"/>
      <use transform="translate(248.876953 0.765625)" xlink:href="#DejaVuSans-112"/>
      <use transform="translate(312.353516 0.765625)" xlink:href="#DejaVuSans-105"/>
      <use transform="translate(340.136719 0.765625)" xlink:href="#DejaVuSans-116"/>
      <use transform="translate(379.345703 0.765625)" xlink:href="#DejaVuSans-97"/>
      <use transform="translate(440.625 0.765625)" xlink:href="#DejaVuSans-116"/>
      <use transform="translate(479.833984 0.765625)" xlink:href="#DejaVuSans-105"/>
      <use transform="translate(507.617188 0.765625)" xlink:href="#DejaVuSans-111"/>
      <use transform="translate(568.798828 0.765625)" xlink:href="#DejaVuSans-110"/>
      <use transform="translate(632.177734 0.765625)" xlink:href="#DejaVuSans-32"/>
      <use transform="translate(663.964844 0.765625)" xlink:href="#DejaVuSans-105"/>
      <use transform="translate(691.748047 0.765625)" xlink:href="#DejaVuSans-110"/>
      <use transform="translate(755.126953 0.765625)" xlink:href="#DejaVuSans-102"/>
      <use transform="translate(790.332031 0.765625)" xlink:href="#DejaVuSans-108"/>
      <use transform="translate(818.115234 0.765625)" xlink:href="#DejaVuSans-117"/>
      <use transform="translate(881.494141 0.765625)" xlink:href="#DejaVuSans-120"/>
      <use transform="translate(940.673828 0.765625)" xlink:href="#DejaVuSans-32"/>
      <use transform="translate(972.460938 0.765625)" xlink:href="#DejaVuSans-40"/>
      <use transform="translate(1011.474609 0.765625)" xlink:href="#DejaVuSans-Oblique-109"/>
      <use transform="translate(1113.536615 39.046875)scale(0.7)" xlink:href="#DejaVuSans-51"/>
      <use transform="translate(1160.807122 0.765625)" xlink:href="#DejaVuSans-47"/>
      <use transform="translate(1194.498529 0.765625)" xlink:href="#DejaVuSans-Oblique-948"/>
      <use transform="translate(1255.680169 0.765625)" xlink:href="#DejaVuSans-Oblique-116"/>
      <use transform="translate(1294.889154 -15.640625)scale(0.7)" xlink:href="#DejaVuSans-Oblique-101"/>
      <use transform="translate(1337.95556 -15.640625)scale(0.7)" xlink:href="#DejaVuSans-Oblique-120"/>
      <use transform="translate(1379.381341 -15.640625)scale(0.7)" xlink:href="#DejaVuSans-Oblique-99"/>
      <use transform="translate(1417.867669 -15.640625)scale(0.7)" xlink:href="#DejaVuSans-Oblique-104"/>
      <use transform="translate(1462.232904 -15.640625)scale(0.7)" xlink:href="#DejaVuSans-Oblique-97"/>
      <use transform="translate(1505.128411 -15.640625)scale(0.7)" xlink:href="#DejaVuSans-Oblique-110"/>
      <use transform="translate(1549.493646 -15.640625)scale(0.7)" xlink:href="#DejaVuSans-Oblique-103"/>
      <use transform="translate(1593.92724 -15.640625)scale(0.7)" xlink:href="#DejaVuSans-Oblique-101"/>
      <use transform="translate(1639.728021 0.765625)" xlink:href="#DejaVuSans-41"/>
     </g>
    </g>
    <g id="line2d_20">
     <path d="M 202.4175 39 
L 222.4175 39 
" style="fill:none;stroke:#ff6600;stroke-linecap:square;stroke-width:0.75;"/>
    </g>
    <g id="line2d_21"/>
    <g id="text_17">
     <!-- evapotranspiration outflux ($m^3$/$\delta t_{exchange}$) -->
     <g transform="translate(230.4175 42.5)scale(0.1 -0.1)">
      <defs>
       <path d="M 2.984375 54.6875 
L 12.5 54.6875 
L 29.59375 8.796875 
L 46.6875 54.6875 
L 56.203125 54.6875 
L 35.6875 0 
L 23.484375 0 
z
" id="DejaVuSans-118"/>
       <path d="M 44.28125 53.078125 
L 44.28125 44.578125 
Q 40.484375 46.53125 36.375 47.5 
Q 32.28125 48.484375 27.875 48.484375 
Q 21.1875 48.484375 17.84375 46.4375 
Q 14.5 44.390625 14.5 40.28125 
Q 14.5 37.15625 16.890625 35.375 
Q 19.28125 33.59375 26.515625 31.984375 
L 29.59375 31.296875 
Q 39.15625 29.25 43.1875 25.515625 
Q 47.21875 21.78125 47.21875 15.09375 
Q 47.21875 7.46875 41.1875 3.015625 
Q 35.15625 -1.421875 24.609375 -1.421875 
Q 20.21875 -1.421875 15.453125 -0.5625 
Q 10.6875 0.296875 5.421875 2 
L 5.421875 11.28125 
Q 10.40625 8.6875 15.234375 7.390625 
Q 20.0625 6.109375 24.8125 6.109375 
Q 31.15625 6.109375 34.5625 8.28125 
Q 37.984375 10.453125 37.984375 14.40625 
Q 37.984375 18.0625 35.515625 20.015625 
Q 33.0625 21.96875 24.703125 23.78125 
L 21.578125 24.515625 
Q 13.234375 26.265625 9.515625 29.90625 
Q 5.8125 33.546875 5.8125 39.890625 
Q 5.8125 47.609375 11.28125 51.796875 
Q 16.75 56 26.8125 56 
Q 31.78125 56 36.171875 55.265625 
Q 40.578125 54.546875 44.28125 53.078125 
z
" id="DejaVuSans-115"/>
      </defs>
      <use transform="translate(0 0.765625)" xlink:href="#DejaVuSans-101"/>
      <use transform="translate(61.523438 0.765625)" xlink:href="#DejaVuSans-118"/>
      <use transform="translate(120.703125 0.765625)" xlink:href="#DejaVuSans-97"/>
      <use transform="translate(181.982422 0.765625)" xlink:href="#DejaVuSans-112"/>
      <use transform="translate(245.458984 0.765625)" xlink:href="#DejaVuSans-111"/>
      <use transform="translate(306.640625 0.765625)" xlink:href="#DejaVuSans-116"/>
      <use transform="translate(345.849609 0.765625)" xlink:href="#DejaVuSans-114"/>
      <use transform="translate(386.962891 0.765625)" xlink:href="#DejaVuSans-97"/>
      <use transform="translate(448.242188 0.765625)" xlink:href="#DejaVuSans-110"/>
      <use transform="translate(511.621094 0.765625)" xlink:href="#DejaVuSans-115"/>
      <use transform="translate(563.720703 0.765625)" xlink:href="#DejaVuSans-112"/>
      <use transform="translate(627.197266 0.765625)" xlink:href="#DejaVuSans-105"/>
      <use transform="translate(654.980469 0.765625)" xlink:href="#DejaVuSans-114"/>
      <use transform="translate(696.09375 0.765625)" xlink:href="#DejaVuSans-97"/>
      <use transform="translate(757.373047 0.765625)" xlink:href="#DejaVuSans-116"/>
      <use transform="translate(796.582031 0.765625)" xlink:href="#DejaVuSans-105"/>
      <use transform="translate(824.365234 0.765625)" xlink:href="#DejaVuSans-111"/>
      <use transform="translate(885.546875 0.765625)" xlink:href="#DejaVuSans-110"/>
      <use transform="translate(948.925781 0.765625)" xlink:href="#DejaVuSans-32"/>
      <use transform="translate(980.712891 0.765625)" xlink:href="#DejaVuSans-111"/>
      <use transform="translate(1041.894531 0.765625)" xlink:href="#DejaVuSans-117"/>
      <use transform="translate(1105.273438 0.765625)" xlink:href="#DejaVuSans-116"/>
      <use transform="translate(1144.482422 0.765625)" xlink:href="#DejaVuSans-102"/>
      <use transform="translate(1179.6875 0.765625)" xlink:href="#DejaVuSans-108"/>
      <use transform="translate(1207.470703 0.765625)" xlink:href="#DejaVuSans-117"/>
      <use transform="translate(1270.849609 0.765625)" xlink:href="#DejaVuSans-120"/>
      <use transform="translate(1330.029297 0.765625)" xlink:href="#DejaVuSans-32"/>
      <use transform="translate(1361.816406 0.765625)" xlink:href="#DejaVuSans-40"/>
      <use transform="translate(1400.830078 0.765625)" xlink:href="#DejaVuSans-Oblique-109"/>
      <use transform="translate(1502.892083 39.046875)scale(0.7)" xlink:href="#DejaVuSans-51"/>
      <use transform="translate(1550.162591 0.765625)" xlink:href="#DejaVuSans-47"/>
      <use transform="translate(1583.853997 0.765625)" xlink:href="#DejaVuSans-Oblique-948"/>
      <use transform="translate(1645.035638 0.765625)" xlink:href="#DejaVuSans-Oblique-116"/>
      <use transform="translate(1684.244622 -15.640625)scale(0.7)" xlink:href="#DejaVuSans-Oblique-101"/>
      <use transform="translate(1727.311029 -15.640625)scale(0.7)" xlink:href="#DejaVuSans-Oblique-120"/>
      <use transform="translate(1768.73681 -15.640625)scale(0.7)" xlink:href="#DejaVuSans-Oblique-99"/>
      <use transform="translate(1807.223138 -15.640625)scale(0.7)" xlink:href="#DejaVuSans-Oblique-104"/>
      <use transform="translate(1851.588372 -15.640625)scale(0.7)" xlink:href="#DejaVuSans-Oblique-97"/>
      <use transform="translate(1894.48388 -15.640625)scale(0.7)" xlink:href="#DejaVuSans-Oblique-110"/>
      <use transform="translate(1938.849115 -15.640625)scale(0.7)" xlink:href="#DejaVuSans-Oblique-103"/>
      <use transform="translate(1983.282708 -15.640625)scale(0.7)" xlink:href="#DejaVuSans-Oblique-101"/>
      <use transform="translate(2029.08349 0.765625)" xlink:href="#DejaVuSans-41"/>
     </g>
    </g>
   </g>
  </g>
 </g>
 <defs>
  <clipPath id="p500e149d7b">
   <rect height="285.590464" width="413.03" x="33.2875" y="7.2"/>
  </clipPath>
 </defs>
</svg>
