<?xml version="1.0" encoding="utf-8" standalone="no"?>
<!DOCTYPE svg PUBLIC "-//W3C//DTD SVG 1.1//EN"
  "http://www.w3.org/Graphics/SVG/1.1/DTD/svg11.dtd">
<!-- Created with matplotlib (https://matplotlib.org/) -->
<svg height="338.067279pt" version="1.1" viewBox="0 0 453.554688 338.067279" width="453.554688pt" xmlns="http://www.w3.org/2000/svg" xmlns:xlink="http://www.w3.org/1999/xlink">
 <metadata>
  <rdf:RDF xmlns:cc="http://creativecommons.org/ns#" xmlns:dc="http://purl.org/dc/elements/1.1/" xmlns:rdf="http://www.w3.org/1999/02/22-rdf-syntax-ns#">
   <cc:Work>
    <dc:type rdf:resource="http://purl.org/dc/dcmitype/StillImage"/>
    <dc:date>2021-04-19T19:46:59.983098</dc:date>
    <dc:format>image/svg+xml</dc:format>
    <dc:creator>
     <cc:Agent>
      <dc:title>Matplotlib v3.3.2, https://matplotlib.org/</dc:title>
     </cc:Agent>
    </dc:creator>
   </cc:Work>
  </rdf:RDF>
 </metadata>
 <defs>
  <style type="text/css">*{stroke-linecap:butt;stroke-linejoin:round;}</style>
 </defs>
 <g id="figure_1">
  <g id="patch_1">
   <path d="M 0 338.067279 
L 453.554688 338.067279 
L 453.554688 0 
L 0 0 
z
" style="fill:#ffffff;"/>
  </g>
  <g id="axes_1">
   <g id="patch_2">
    <path d="M 35.304688 292.790464 
L 446.354688 292.790464 
L 446.354688 7.2 
L 35.304688 7.2 
z
" style="fill:#ffffff;"/>
   </g>
   <g id="matplotlib.axis_1">
    <g id="xtick_1">
     <g id="line2d_1">
      <defs>
       <path d="M 0 0 
L 0 3.5 
" id="md04a7e03c8" style="stroke:#000000;stroke-width:0.8;"/>
      </defs>
      <g>
       <use style="stroke:#000000;stroke-width:0.8;" x="53.988778" xlink:href="#md04a7e03c8" y="292.790464"/>
      </g>
     </g>
     <g id="text_1">
      <!-- 01-05-20 -->
      <g transform="translate(13.6395 329.066216)rotate(-30)scale(0.1 -0.1)">
       <defs>
        <path d="M 31.78125 66.40625 
Q 24.171875 66.40625 20.328125 58.90625 
Q 16.5 51.421875 16.5 36.375 
Q 16.5 21.390625 20.328125 13.890625 
Q 24.171875 6.390625 31.78125 6.390625 
Q 39.453125 6.390625 43.28125 13.890625 
Q 47.125 21.390625 47.125 36.375 
Q 47.125 51.421875 43.28125 58.90625 
Q 39.453125 66.40625 31.78125 66.40625 
z
M 31.78125 74.21875 
Q 44.046875 74.21875 50.515625 64.515625 
Q 56.984375 54.828125 56.984375 36.375 
Q 56.984375 17.96875 50.515625 8.265625 
Q 44.046875 -1.421875 31.78125 -1.421875 
Q 19.53125 -1.421875 13.0625 8.265625 
Q 6.59375 17.96875 6.59375 36.375 
Q 6.59375 54.828125 13.0625 64.515625 
Q 19.53125 74.21875 31.78125 74.21875 
z
" id="DejaVuSans-48"/>
        <path d="M 12.40625 8.296875 
L 28.515625 8.296875 
L 28.515625 63.921875 
L 10.984375 60.40625 
L 10.984375 69.390625 
L 28.421875 72.90625 
L 38.28125 72.90625 
L 38.28125 8.296875 
L 54.390625 8.296875 
L 54.390625 0 
L 12.40625 0 
z
" id="DejaVuSans-49"/>
        <path d="M 4.890625 31.390625 
L 31.203125 31.390625 
L 31.203125 23.390625 
L 4.890625 23.390625 
z
" id="DejaVuSans-45"/>
        <path d="M 10.796875 72.90625 
L 49.515625 72.90625 
L 49.515625 64.59375 
L 19.828125 64.59375 
L 19.828125 46.734375 
Q 21.96875 47.46875 24.109375 47.828125 
Q 26.265625 48.1875 28.421875 48.1875 
Q 40.625 48.1875 47.75 41.5 
Q 54.890625 34.8125 54.890625 23.390625 
Q 54.890625 11.625 47.5625 5.09375 
Q 40.234375 -1.421875 26.90625 -1.421875 
Q 22.3125 -1.421875 17.546875 -0.640625 
Q 12.796875 0.140625 7.71875 1.703125 
L 7.71875 11.625 
Q 12.109375 9.234375 16.796875 8.0625 
Q 21.484375 6.890625 26.703125 6.890625 
Q 35.15625 6.890625 40.078125 11.328125 
Q 45.015625 15.765625 45.015625 23.390625 
Q 45.015625 31 40.078125 35.4375 
Q 35.15625 39.890625 26.703125 39.890625 
Q 22.75 39.890625 18.8125 39.015625 
Q 14.890625 38.140625 10.796875 36.28125 
z
" id="DejaVuSans-53"/>
        <path d="M 19.1875 8.296875 
L 53.609375 8.296875 
L 53.609375 0 
L 7.328125 0 
L 7.328125 8.296875 
Q 12.9375 14.109375 22.625 23.890625 
Q 32.328125 33.6875 34.8125 36.53125 
Q 39.546875 41.84375 41.421875 45.53125 
Q 43.3125 49.21875 43.3125 52.78125 
Q 43.3125 58.59375 39.234375 62.25 
Q 35.15625 65.921875 28.609375 65.921875 
Q 23.96875 65.921875 18.8125 64.3125 
Q 13.671875 62.703125 7.8125 59.421875 
L 7.8125 69.390625 
Q 13.765625 71.78125 18.9375 73 
Q 24.125 74.21875 28.421875 74.21875 
Q 39.75 74.21875 46.484375 68.546875 
Q 53.21875 62.890625 53.21875 53.421875 
Q 53.21875 48.921875 51.53125 44.890625 
Q 49.859375 40.875 45.40625 35.40625 
Q 44.1875 33.984375 37.640625 27.21875 
Q 31.109375 20.453125 19.1875 8.296875 
z
" id="DejaVuSans-50"/>
       </defs>
       <use xlink:href="#DejaVuSans-48"/>
       <use x="63.623047" xlink:href="#DejaVuSans-49"/>
       <use x="127.246094" xlink:href="#DejaVuSans-45"/>
       <use x="163.330078" xlink:href="#DejaVuSans-48"/>
       <use x="226.953125" xlink:href="#DejaVuSans-53"/>
       <use x="290.576172" xlink:href="#DejaVuSans-45"/>
       <use x="326.660156" xlink:href="#DejaVuSans-50"/>
       <use x="390.283203" xlink:href="#DejaVuSans-48"/>
      </g>
     </g>
    </g>
    <g id="xtick_2">
     <g id="line2d_2">
      <g>
       <use style="stroke:#000000;stroke-width:0.8;" x="102.205787" xlink:href="#md04a7e03c8" y="292.790464"/>
      </g>
     </g>
     <g id="text_2">
      <!-- 05-05-20 -->
      <g transform="translate(61.856509 329.066216)rotate(-30)scale(0.1 -0.1)">
       <use xlink:href="#DejaVuSans-48"/>
       <use x="63.623047" xlink:href="#DejaVuSans-53"/>
       <use x="127.246094" xlink:href="#DejaVuSans-45"/>
       <use x="163.330078" xlink:href="#DejaVuSans-48"/>
       <use x="226.953125" xlink:href="#DejaVuSans-53"/>
       <use x="290.576172" xlink:href="#DejaVuSans-45"/>
       <use x="326.660156" xlink:href="#DejaVuSans-50"/>
       <use x="390.283203" xlink:href="#DejaVuSans-48"/>
      </g>
     </g>
    </g>
    <g id="xtick_3">
     <g id="line2d_3">
      <g>
       <use style="stroke:#000000;stroke-width:0.8;" x="150.422796" xlink:href="#md04a7e03c8" y="292.790464"/>
      </g>
     </g>
     <g id="text_3">
      <!-- 09-05-20 -->
      <g transform="translate(110.073518 329.066216)rotate(-30)scale(0.1 -0.1)">
       <defs>
        <path d="M 10.984375 1.515625 
L 10.984375 10.5 
Q 14.703125 8.734375 18.5 7.8125 
Q 22.3125 6.890625 25.984375 6.890625 
Q 35.75 6.890625 40.890625 13.453125 
Q 46.046875 20.015625 46.78125 33.40625 
Q 43.953125 29.203125 39.59375 26.953125 
Q 35.25 24.703125 29.984375 24.703125 
Q 19.046875 24.703125 12.671875 31.3125 
Q 6.296875 37.9375 6.296875 49.421875 
Q 6.296875 60.640625 12.9375 67.421875 
Q 19.578125 74.21875 30.609375 74.21875 
Q 43.265625 74.21875 49.921875 64.515625 
Q 56.59375 54.828125 56.59375 36.375 
Q 56.59375 19.140625 48.40625 8.859375 
Q 40.234375 -1.421875 26.421875 -1.421875 
Q 22.703125 -1.421875 18.890625 -0.6875 
Q 15.09375 0.046875 10.984375 1.515625 
z
M 30.609375 32.421875 
Q 37.25 32.421875 41.125 36.953125 
Q 45.015625 41.5 45.015625 49.421875 
Q 45.015625 57.28125 41.125 61.84375 
Q 37.25 66.40625 30.609375 66.40625 
Q 23.96875 66.40625 20.09375 61.84375 
Q 16.21875 57.28125 16.21875 49.421875 
Q 16.21875 41.5 20.09375 36.953125 
Q 23.96875 32.421875 30.609375 32.421875 
z
" id="DejaVuSans-57"/>
       </defs>
       <use xlink:href="#DejaVuSans-48"/>
       <use x="63.623047" xlink:href="#DejaVuSans-57"/>
       <use x="127.246094" xlink:href="#DejaVuSans-45"/>
       <use x="163.330078" xlink:href="#DejaVuSans-48"/>
       <use x="226.953125" xlink:href="#DejaVuSans-53"/>
       <use x="290.576172" xlink:href="#DejaVuSans-45"/>
       <use x="326.660156" xlink:href="#DejaVuSans-50"/>
       <use x="390.283203" xlink:href="#DejaVuSans-48"/>
      </g>
     </g>
    </g>
    <g id="xtick_4">
     <g id="line2d_4">
      <g>
       <use style="stroke:#000000;stroke-width:0.8;" x="198.639805" xlink:href="#md04a7e03c8" y="292.790464"/>
      </g>
     </g>
     <g id="text_4">
      <!-- 13-05-20 -->
      <g transform="translate(158.290527 329.066216)rotate(-30)scale(0.1 -0.1)">
       <defs>
        <path d="M 40.578125 39.3125 
Q 47.65625 37.796875 51.625 33 
Q 55.609375 28.21875 55.609375 21.1875 
Q 55.609375 10.40625 48.1875 4.484375 
Q 40.765625 -1.421875 27.09375 -1.421875 
Q 22.515625 -1.421875 17.65625 -0.515625 
Q 12.796875 0.390625 7.625 2.203125 
L 7.625 11.71875 
Q 11.71875 9.328125 16.59375 8.109375 
Q 21.484375 6.890625 26.8125 6.890625 
Q 36.078125 6.890625 40.9375 10.546875 
Q 45.796875 14.203125 45.796875 21.1875 
Q 45.796875 27.640625 41.28125 31.265625 
Q 36.765625 34.90625 28.71875 34.90625 
L 20.21875 34.90625 
L 20.21875 43.015625 
L 29.109375 43.015625 
Q 36.375 43.015625 40.234375 45.921875 
Q 44.09375 48.828125 44.09375 54.296875 
Q 44.09375 59.90625 40.109375 62.90625 
Q 36.140625 65.921875 28.71875 65.921875 
Q 24.65625 65.921875 20.015625 65.03125 
Q 15.375 64.15625 9.8125 62.3125 
L 9.8125 71.09375 
Q 15.4375 72.65625 20.34375 73.4375 
Q 25.25 74.21875 29.59375 74.21875 
Q 40.828125 74.21875 47.359375 69.109375 
Q 53.90625 64.015625 53.90625 55.328125 
Q 53.90625 49.265625 50.4375 45.09375 
Q 46.96875 40.921875 40.578125 39.3125 
z
" id="DejaVuSans-51"/>
       </defs>
       <use xlink:href="#DejaVuSans-49"/>
       <use x="63.623047" xlink:href="#DejaVuSans-51"/>
       <use x="127.246094" xlink:href="#DejaVuSans-45"/>
       <use x="163.330078" xlink:href="#DejaVuSans-48"/>
       <use x="226.953125" xlink:href="#DejaVuSans-53"/>
       <use x="290.576172" xlink:href="#DejaVuSans-45"/>
       <use x="326.660156" xlink:href="#DejaVuSans-50"/>
       <use x="390.283203" xlink:href="#DejaVuSans-48"/>
      </g>
     </g>
    </g>
    <g id="xtick_5">
     <g id="line2d_5">
      <g>
       <use style="stroke:#000000;stroke-width:0.8;" x="246.856814" xlink:href="#md04a7e03c8" y="292.790464"/>
      </g>
     </g>
     <g id="text_5">
      <!-- 17-05-20 -->
      <g transform="translate(206.507536 329.066216)rotate(-30)scale(0.1 -0.1)">
       <defs>
        <path d="M 8.203125 72.90625 
L 55.078125 72.90625 
L 55.078125 68.703125 
L 28.609375 0 
L 18.3125 0 
L 43.21875 64.59375 
L 8.203125 64.59375 
z
" id="DejaVuSans-55"/>
       </defs>
       <use xlink:href="#DejaVuSans-49"/>
       <use x="63.623047" xlink:href="#DejaVuSans-55"/>
       <use x="127.246094" xlink:href="#DejaVuSans-45"/>
       <use x="163.330078" xlink:href="#DejaVuSans-48"/>
       <use x="226.953125" xlink:href="#DejaVuSans-53"/>
       <use x="290.576172" xlink:href="#DejaVuSans-45"/>
       <use x="326.660156" xlink:href="#DejaVuSans-50"/>
       <use x="390.283203" xlink:href="#DejaVuSans-48"/>
      </g>
     </g>
    </g>
    <g id="xtick_6">
     <g id="line2d_6">
      <g>
       <use style="stroke:#000000;stroke-width:0.8;" x="295.073822" xlink:href="#md04a7e03c8" y="292.790464"/>
      </g>
     </g>
     <g id="text_6">
      <!-- 21-05-20 -->
      <g transform="translate(254.724544 329.066216)rotate(-30)scale(0.1 -0.1)">
       <use xlink:href="#DejaVuSans-50"/>
       <use x="63.623047" xlink:href="#DejaVuSans-49"/>
       <use x="127.246094" xlink:href="#DejaVuSans-45"/>
       <use x="163.330078" xlink:href="#DejaVuSans-48"/>
       <use x="226.953125" xlink:href="#DejaVuSans-53"/>
       <use x="290.576172" xlink:href="#DejaVuSans-45"/>
       <use x="326.660156" xlink:href="#DejaVuSans-50"/>
       <use x="390.283203" xlink:href="#DejaVuSans-48"/>
      </g>
     </g>
    </g>
    <g id="xtick_7">
     <g id="line2d_7">
      <g>
       <use style="stroke:#000000;stroke-width:0.8;" x="343.290831" xlink:href="#md04a7e03c8" y="292.790464"/>
      </g>
     </g>
     <g id="text_7">
      <!-- 25-05-20 -->
      <g transform="translate(302.941553 329.066216)rotate(-30)scale(0.1 -0.1)">
       <use xlink:href="#DejaVuSans-50"/>
       <use x="63.623047" xlink:href="#DejaVuSans-53"/>
       <use x="127.246094" xlink:href="#DejaVuSans-45"/>
       <use x="163.330078" xlink:href="#DejaVuSans-48"/>
       <use x="226.953125" xlink:href="#DejaVuSans-53"/>
       <use x="290.576172" xlink:href="#DejaVuSans-45"/>
       <use x="326.660156" xlink:href="#DejaVuSans-50"/>
       <use x="390.283203" xlink:href="#DejaVuSans-48"/>
      </g>
     </g>
    </g>
    <g id="xtick_8">
     <g id="line2d_8">
      <g>
       <use style="stroke:#000000;stroke-width:0.8;" x="391.50784" xlink:href="#md04a7e03c8" y="292.790464"/>
      </g>
     </g>
     <g id="text_8">
      <!-- 29-05-20 -->
      <g transform="translate(351.158562 329.066216)rotate(-30)scale(0.1 -0.1)">
       <use xlink:href="#DejaVuSans-50"/>
       <use x="63.623047" xlink:href="#DejaVuSans-57"/>
       <use x="127.246094" xlink:href="#DejaVuSans-45"/>
       <use x="163.330078" xlink:href="#DejaVuSans-48"/>
       <use x="226.953125" xlink:href="#DejaVuSans-53"/>
       <use x="290.576172" xlink:href="#DejaVuSans-45"/>
       <use x="326.660156" xlink:href="#DejaVuSans-50"/>
       <use x="390.283203" xlink:href="#DejaVuSans-48"/>
      </g>
     </g>
    </g>
    <g id="xtick_9">
     <g id="line2d_9">
      <g>
       <use style="stroke:#000000;stroke-width:0.8;" x="427.670597" xlink:href="#md04a7e03c8" y="292.790464"/>
      </g>
     </g>
     <g id="text_9">
      <!-- 01-06-20 -->
      <g transform="translate(387.321318 329.066216)rotate(-30)scale(0.1 -0.1)">
       <defs>
        <path d="M 33.015625 40.375 
Q 26.375 40.375 22.484375 35.828125 
Q 18.609375 31.296875 18.609375 23.390625 
Q 18.609375 15.53125 22.484375 10.953125 
Q 26.375 6.390625 33.015625 6.390625 
Q 39.65625 6.390625 43.53125 10.953125 
Q 47.40625 15.53125 47.40625 23.390625 
Q 47.40625 31.296875 43.53125 35.828125 
Q 39.65625 40.375 33.015625 40.375 
z
M 52.59375 71.296875 
L 52.59375 62.3125 
Q 48.875 64.0625 45.09375 64.984375 
Q 41.3125 65.921875 37.59375 65.921875 
Q 27.828125 65.921875 22.671875 59.328125 
Q 17.53125 52.734375 16.796875 39.40625 
Q 19.671875 43.65625 24.015625 45.921875 
Q 28.375 48.1875 33.59375 48.1875 
Q 44.578125 48.1875 50.953125 41.515625 
Q 57.328125 34.859375 57.328125 23.390625 
Q 57.328125 12.15625 50.6875 5.359375 
Q 44.046875 -1.421875 33.015625 -1.421875 
Q 20.359375 -1.421875 13.671875 8.265625 
Q 6.984375 17.96875 6.984375 36.375 
Q 6.984375 53.65625 15.1875 63.9375 
Q 23.390625 74.21875 37.203125 74.21875 
Q 40.921875 74.21875 44.703125 73.484375 
Q 48.484375 72.75 52.59375 71.296875 
z
" id="DejaVuSans-54"/>
       </defs>
       <use xlink:href="#DejaVuSans-48"/>
       <use x="63.623047" xlink:href="#DejaVuSans-49"/>
       <use x="127.246094" xlink:href="#DejaVuSans-45"/>
       <use x="163.330078" xlink:href="#DejaVuSans-48"/>
       <use x="226.953125" xlink:href="#DejaVuSans-54"/>
       <use x="290.576172" xlink:href="#DejaVuSans-45"/>
       <use x="326.660156" xlink:href="#DejaVuSans-50"/>
       <use x="390.283203" xlink:href="#DejaVuSans-48"/>
      </g>
     </g>
    </g>
   </g>
   <g id="matplotlib.axis_2">
    <g id="ytick_1">
     <g id="line2d_10">
      <defs>
       <path d="M 0 0 
L -3.5 0 
" id="m92564bb610" style="stroke:#000000;stroke-width:0.8;"/>
      </defs>
      <g>
       <use style="stroke:#000000;stroke-width:0.8;" x="35.304688" xlink:href="#m92564bb610" y="289.145724"/>
      </g>
     </g>
     <g id="text_10">
      <!-- −50 -->
      <g transform="translate(7.2 292.944943)scale(0.1 -0.1)">
       <defs>
        <path d="M 10.59375 35.5 
L 73.1875 35.5 
L 73.1875 27.203125 
L 10.59375 27.203125 
z
" id="DejaVuSans-8722"/>
       </defs>
       <use xlink:href="#DejaVuSans-8722"/>
       <use x="83.789062" xlink:href="#DejaVuSans-53"/>
       <use x="147.412109" xlink:href="#DejaVuSans-48"/>
      </g>
     </g>
    </g>
    <g id="ytick_2">
     <g id="line2d_11">
      <g>
       <use style="stroke:#000000;stroke-width:0.8;" x="35.304688" xlink:href="#m92564bb610" y="243.40051"/>
      </g>
     </g>
     <g id="text_11">
      <!-- 0 -->
      <g transform="translate(21.942187 247.199729)scale(0.1 -0.1)">
       <use xlink:href="#DejaVuSans-48"/>
      </g>
     </g>
    </g>
    <g id="ytick_3">
     <g id="line2d_12">
      <g>
       <use style="stroke:#000000;stroke-width:0.8;" x="35.304688" xlink:href="#m92564bb610" y="197.655295"/>
      </g>
     </g>
     <g id="text_12">
      <!-- 50 -->
      <g transform="translate(15.579687 201.454514)scale(0.1 -0.1)">
       <use xlink:href="#DejaVuSans-53"/>
       <use x="63.623047" xlink:href="#DejaVuSans-48"/>
      </g>
     </g>
    </g>
    <g id="ytick_4">
     <g id="line2d_13">
      <g>
       <use style="stroke:#000000;stroke-width:0.8;" x="35.304688" xlink:href="#m92564bb610" y="151.910081"/>
      </g>
     </g>
     <g id="text_13">
      <!-- 100 -->
      <g transform="translate(9.217187 155.7093)scale(0.1 -0.1)">
       <use xlink:href="#DejaVuSans-49"/>
       <use x="63.623047" xlink:href="#DejaVuSans-48"/>
       <use x="127.246094" xlink:href="#DejaVuSans-48"/>
      </g>
     </g>
    </g>
    <g id="ytick_5">
     <g id="line2d_14">
      <g>
       <use style="stroke:#000000;stroke-width:0.8;" x="35.304688" xlink:href="#m92564bb610" y="106.164867"/>
      </g>
     </g>
     <g id="text_14">
      <!-- 150 -->
      <g transform="translate(9.217187 109.964085)scale(0.1 -0.1)">
       <use xlink:href="#DejaVuSans-49"/>
       <use x="63.623047" xlink:href="#DejaVuSans-53"/>
       <use x="127.246094" xlink:href="#DejaVuSans-48"/>
      </g>
     </g>
    </g>
    <g id="ytick_6">
     <g id="line2d_15">
      <g>
       <use style="stroke:#000000;stroke-width:0.8;" x="35.304688" xlink:href="#m92564bb610" y="60.419652"/>
      </g>
     </g>
     <g id="text_15">
      <!-- 200 -->
      <g transform="translate(9.217187 64.218871)scale(0.1 -0.1)">
       <use xlink:href="#DejaVuSans-50"/>
       <use x="63.623047" xlink:href="#DejaVuSans-48"/>
       <use x="127.246094" xlink:href="#DejaVuSans-48"/>
      </g>
     </g>
    </g>
    <g id="ytick_7">
     <g id="line2d_16">
      <g>
       <use style="stroke:#000000;stroke-width:0.8;" x="35.304688" xlink:href="#m92564bb610" y="14.674438"/>
      </g>
     </g>
     <g id="text_16">
      <!-- 250 -->
      <g transform="translate(9.217187 18.473656)scale(0.1 -0.1)">
       <use xlink:href="#DejaVuSans-50"/>
       <use x="63.623047" xlink:href="#DejaVuSans-53"/>
       <use x="127.246094" xlink:href="#DejaVuSans-48"/>
      </g>
     </g>
    </g>
   </g>
   <g id="line2d_17">
    <path clip-path="url(#p9b12871eea)" d="M 53.988778 243.40051 
L 57.002341 243.40051 
L 57.504602 237.367561 
L 58.006862 243.40051 
L 62.024947 243.40051 
L 63.531728 225.301662 
L 64.033989 213.235763 
L 64.536249 243.40051 
L 68.052073 243.40051 
L 68.554333 20.181385 
L 69.056594 189.103966 
L 69.558854 213.235763 
L 70.061115 243.40051 
L 70.563375 213.235763 
L 71.065636 231.334611 
L 71.567896 225.301662 
L 72.070157 171.005118 
L 72.572417 225.301662 
L 73.074678 243.40051 
L 73.576938 243.40051 
L 74.581459 231.334611 
L 75.08372 207.202814 
L 75.58598 231.334611 
L 76.088241 243.40051 
L 89.649274 243.40051 
L 90.653796 231.334611 
L 91.156056 231.334611 
L 91.658317 243.40051 
L 107.228392 243.40051 
L 107.730653 237.367561 
L 108.232913 201.169865 
L 108.735174 243.40051 
L 109.739695 219.268713 
L 110.241955 243.40051 
L 153.93862 243.40051 
L 154.44088 219.268713 
L 154.943141 243.40051 
L 165.490611 243.40051 
L 165.992872 207.202814 
L 166.495132 62.41203 
L 167.499653 243.40051 
L 177.544863 243.40051 
L 178.047124 237.367561 
L 178.549384 243.40051 
L 179.051645 237.367561 
L 179.553905 243.40051 
L 183.069729 243.40051 
L 183.57199 201.169865 
L 184.07425 231.334611 
L 184.576511 243.40051 
L 185.078771 213.235763 
L 185.581032 171.005118 
L 186.083292 164.972169 
L 186.585553 201.169865 
L 187.087813 213.235763 
L 187.590074 219.268713 
L 188.092334 237.367561 
L 188.594595 243.40051 
L 201.653368 243.40051 
L 202.155628 237.367561 
L 202.657889 243.40051 
L 203.160149 237.367561 
L 203.66241 164.972169 
L 204.16467 243.40051 
L 204.666931 243.40051 
L 205.169191 237.367561 
L 205.671452 237.367561 
L 206.173712 243.40051 
L 206.675973 231.334611 
L 207.178233 243.40051 
L 211.196318 243.40051 
L 211.698578 207.202814 
L 212.200839 152.90627 
L 212.703099 195.136915 
L 213.20536 140.840371 
L 213.70762 195.136915 
L 214.209881 213.235763 
L 214.712141 237.367561 
L 215.214402 243.40051 
L 323.702671 243.40051 
L 324.204932 231.334611 
L 324.707192 183.071017 
L 325.209453 243.40051 
L 325.711713 243.40051 
L 326.213974 50.346131 
L 326.716234 140.840371 
L 327.218495 110.675625 
L 327.720755 164.972169 
L 328.223016 164.972169 
L 328.725276 146.873321 
L 329.227537 231.334611 
L 329.729797 225.301662 
L 330.232058 243.40051 
L 387.489756 243.40051 
L 387.992016 237.367561 
L 388.494277 243.40051 
L 427.670597 243.40051 
L 427.670597 243.40051 
" style="fill:none;stroke:#1a3bff;stroke-linecap:square;stroke-width:0.75;"/>
   </g>
   <g id="line2d_18">
    <path clip-path="url(#p9b12871eea)" d="M 54.491039 247.760412 
L 54.993299 244.758956 
L 55.49556 244.2133 
L 55.99782 244.592454 
L 56.500081 244.613883 
L 57.002341 244.482405 
L 57.504602 244.617499 
L 58.006862 246.195929 
L 58.509123 247.120624 
L 59.011383 248.756633 
L 59.513644 256.689071 
L 60.015905 255.785418 
L 60.518165 253.489716 
L 61.020426 253.657077 
L 61.522686 251.698599 
L 62.024947 252.213778 
L 62.527207 251.505352 
L 63.029468 245.654806 
L 63.531728 248.341686 
L 64.033989 240.038119 
L 64.536249 244.136625 
L 65.03851 243.831421 
L 65.54077 244.258999 
L 66.545291 244.594199 
L 67.047552 244.710728 
L 67.549812 244.580135 
L 68.052073 244.743196 
L 68.554333 279.809079 
L 69.056594 234.351918 
L 69.558854 238.576386 
L 70.061115 245.043874 
L 70.563375 240.133196 
L 71.065636 244.244571 
L 71.567896 244.034707 
L 72.070157 236.237995 
L 72.572417 244.86306 
L 73.074678 249.876631 
L 73.576938 251.423113 
L 74.079199 248.093183 
L 74.581459 246.794036 
L 75.08372 242.169857 
L 75.58598 244.46029 
L 76.088241 245.500399 
L 76.590501 244.898385 
L 77.092762 243.964878 
L 77.595022 243.728203 
L 78.599543 243.700519 
L 81.613106 243.845663 
L 82.115367 244.666738 
L 82.617627 248.022369 
L 83.119888 253.710187 
L 84.124409 261.756857 
L 85.12893 265.604846 
L 85.63119 265.320908 
L 86.133451 264.187983 
L 86.635711 262.588144 
L 87.137972 256.35881 
L 88.142493 248.824903 
L 89.147014 245.733906 
L 89.649274 246.059812 
L 90.151535 244.735317 
L 90.653796 241.978339 
L 91.156056 242.244024 
L 91.658317 243.520058 
L 92.160577 243.625736 
L 92.662838 243.879836 
L 93.667359 243.972224 
L 94.169619 245.023535 
L 94.67188 246.934816 
L 95.676401 248.521471 
L 96.178661 255.862401 
L 96.680922 256.536247 
L 97.183182 264.709941 
L 97.685443 265.728009 
L 98.187703 264.279934 
L 98.689964 257.464578 
L 99.192224 255.227608 
L 100.699006 246.228986 
L 101.201266 245.067815 
L 101.703527 245.638046 
L 102.708048 245.382985 
L 103.210308 244.888649 
L 103.712569 244.811397 
L 104.214829 244.599555 
L 105.721611 244.521241 
L 106.223871 245.707805 
L 106.726132 246.38491 
L 107.228392 247.276381 
L 107.730653 246.951444 
L 108.232913 242.550328 
L 108.735174 248.163448 
L 109.237434 246.092782 
L 109.739695 243.124934 
L 110.241955 248.423987 
L 111.246476 247.683351 
L 111.748737 246.193907 
L 112.250997 245.311393 
L 112.753258 244.16783 
L 114.260039 244.315312 
L 114.7623 244.067038 
L 115.26456 244.225305 
L 115.766821 244.038936 
L 116.269081 244.018856 
L 116.771342 244.349607 
L 117.775863 244.627734 
L 118.278123 246.44403 
L 119.282644 254.283355 
L 119.784905 253.589522 
L 120.287166 260.337318 
L 120.789426 263.285471 
L 121.291687 265.279759 
L 122.296208 263.737388 
L 122.798468 261.487345 
L 123.802989 254.543359 
L 124.80751 246.032041 
L 125.309771 244.757252 
L 126.816552 244.12114 
L 127.318813 243.831479 
L 129.830115 243.74161 
L 130.332376 245.801339 
L 131.336897 254.982465 
L 132.341418 264.723875 
L 133.345939 268.747424 
L 133.848199 268.422663 
L 134.35046 267.253435 
L 134.85272 264.933693 
L 135.354981 261.339768 
L 136.861762 245.853323 
L 137.364023 245.134031 
L 137.866283 244.866917 
L 138.368544 244.03267 
L 140.377586 243.714969 
L 141.884367 243.666832 
L 142.386628 245.680056 
L 143.391149 256.641687 
L 144.39567 266.286632 
L 144.89793 268.426978 
L 145.400191 269.075483 
L 145.902451 268.27178 
L 146.404712 269.161496 
L 146.906972 264.586542 
L 147.409233 257.494928 
L 148.413754 250.568995 
L 148.916014 247.094785 
L 149.418275 244.905256 
L 149.920535 244.415771 
L 151.929578 243.695539 
L 153.436359 243.573544 
L 153.93862 243.699567 
L 154.44088 239.369795 
L 155.445401 256.391062 
L 155.947662 260.169482 
L 156.449922 262.136865 
L 156.952183 256.626259 
L 157.454443 269.620665 
L 158.458964 268.012209 
L 158.961225 265.32834 
L 159.965746 255.464872 
L 160.468006 248.234361 
L 160.970267 245.839152 
L 161.472527 245.421347 
L 161.974788 245.194021 
L 162.477048 244.520883 
L 162.979309 244.334842 
L 163.481569 243.803208 
L 163.98383 243.534575 
L 164.988351 243.650667 
L 165.490611 243.559948 
L 165.992872 232.6498 
L 166.495132 194.478668 
L 167.499653 247.852235 
L 168.001914 248.598468 
L 168.504174 256.218907 
L 169.006435 255.600463 
L 169.508695 268.288752 
L 170.010956 268.785171 
L 170.513216 267.333181 
L 171.015477 264.472829 
L 171.517737 260.645404 
L 172.522258 248.103405 
L 173.024519 244.510563 
L 174.5313 243.589597 
L 175.535821 243.560072 
L 176.038082 243.493077 
L 177.042603 243.515667 
L 177.544863 243.775232 
L 178.047124 241.973654 
L 178.549384 244.9844 
L 179.051645 244.042256 
L 179.553905 247.041557 
L 180.056166 247.942783 
L 180.558427 256.952434 
L 181.060687 263.296749 
L 181.562948 255.038879 
L 182.065208 249.760666 
L 182.567469 248.741273 
L 183.069729 248.193169 
L 183.57199 232.784412 
L 184.07425 241.96809 
L 184.576511 245.657636 
L 185.078771 234.76268 
L 185.581032 220.706935 
L 186.083292 218.838481 
L 186.585553 230.296932 
L 187.087813 234.118491 
L 187.590074 235.973819 
L 188.092334 241.975209 
L 188.594595 243.983707 
L 189.599116 244.063294 
L 190.101376 244.137105 
L 190.603637 246.18849 
L 191.105897 249.306863 
L 191.608158 249.619832 
L 192.110418 248.697477 
L 192.612679 253.447801 
L 193.114939 255.472257 
L 193.6172 256.738566 
L 194.11946 260.187051 
L 194.621721 260.04023 
L 195.123981 258.700666 
L 195.626242 255.278755 
L 196.128502 250.603089 
L 196.630763 247.015661 
L 197.133023 245.348591 
L 197.635284 244.067949 
L 198.137544 243.958357 
L 198.639805 244.041315 
L 199.142065 243.961027 
L 199.644326 244.113537 
L 200.648847 244.146115 
L 201.151107 243.902834 
L 201.653368 243.974722 
L 202.155628 241.997694 
L 202.657889 244.84379 
L 203.160149 243.834588 
L 203.66241 221.865628 
L 204.16467 247.661382 
L 204.666931 248.608632 
L 205.169191 246.579189 
L 205.671452 246.840229 
L 206.173712 249.331804 
L 206.675973 244.500509 
L 207.178233 247.608577 
L 207.680494 247.145888 
L 208.182754 246.017863 
L 208.685015 245.582996 
L 209.187275 244.538734 
L 210.191796 244.08115 
L 210.694057 244.161534 
L 211.196318 243.900043 
L 211.698578 231.42552 
L 212.200839 213.51643 
L 212.703099 227.429918 
L 213.20536 209.650769 
L 213.70762 227.501024 
L 214.209881 233.895049 
L 214.712141 242.753164 
L 215.214402 245.69419 
L 216.721183 248.900349 
L 217.223444 249.097086 
L 217.725704 249.562123 
L 218.227965 249.723257 
L 218.730225 249.559864 
L 219.232486 248.561795 
L 219.734746 248.14205 
L 221.241528 245.24746 
L 221.743788 245.045849 
L 222.748309 244.957526 
L 223.25057 245.108318 
L 223.75283 245.06481 
L 224.757351 245.382204 
L 225.259612 244.939563 
L 226.264133 245.211641 
L 227.268654 247.173466 
L 228.273175 248.711922 
L 228.775435 249.133859 
L 229.277696 249.805782 
L 229.779956 249.855209 
L 230.282217 249.425158 
L 230.784477 249.203274 
L 231.286738 249.418402 
L 231.788998 251.538811 
L 232.291259 248.149275 
L 233.29578 244.627604 
L 233.79804 244.068206 
L 234.802561 243.479826 
L 238.318385 243.404595 
L 238.820645 246.116715 
L 239.322906 249.71806 
L 240.327427 260.221301 
L 240.829687 261.636033 
L 241.331948 264.088311 
L 241.834209 265.49028 
L 242.336469 265.588109 
L 242.83873 264.096501 
L 243.34099 261.650267 
L 244.345511 254.911389 
L 245.350032 245.58542 
L 245.852293 244.685684 
L 246.354553 244.555567 
L 246.856814 244.016748 
L 247.861335 243.531337 
L 249.368116 243.400106 
L 250.372637 243.428179 
L 250.874898 246.30165 
L 252.88394 264.616064 
L 253.3862 266.281664 
L 253.888461 267.140349 
L 254.390721 266.907501 
L 254.892982 265.561082 
L 255.395242 263.624752 
L 256.399763 256.976751 
L 257.404284 246.20536 
L 257.906545 245.109199 
L 258.408805 244.666356 
L 258.911066 244.390472 
L 259.413326 243.984243 
L 259.915587 243.741602 
L 260.417847 243.739349 
L 260.920108 243.537888 
L 262.426889 243.545745 
L 262.92915 246.610769 
L 264.435931 259.799681 
L 264.938192 263.974128 
L 265.440452 266.618896 
L 265.942713 267.814494 
L 266.444973 267.298444 
L 267.449494 263.204001 
L 267.951755 259.942127 
L 269.458536 245.474687 
L 269.960797 245.159176 
L 270.463057 244.375801 
L 271.467579 243.89642 
L 271.969839 243.73187 
L 272.4721 243.768073 
L 273.978881 243.408534 
L 274.481142 243.593541 
L 274.983402 247.058803 
L 276.490184 261.296477 
L 276.992444 264.188176 
L 277.494705 265.961069 
L 277.996965 266.998691 
L 278.499226 262.764886 
L 279.001486 259.68225 
L 279.503747 262.947824 
L 280.006007 259.126467 
L 280.508268 252.138619 
L 281.512789 247.694464 
L 282.015049 246.739705 
L 282.51731 246.60302 
L 283.01957 245.74646 
L 286.033133 244.071351 
L 286.535394 244.323355 
L 287.539915 247.032477 
L 288.042175 251.43906 
L 288.544436 251.282975 
L 289.046696 254.01574 
L 289.548957 263.755073 
L 290.051217 263.6326 
L 290.553478 260.780699 
L 291.557999 257.744506 
L 292.060259 252.025992 
L 292.56252 250.114546 
L 293.06478 249.452059 
L 293.567041 245.514889 
L 294.069301 244.035593 
L 294.571562 244.011071 
L 297.082864 243.265173 
L 298.087385 243.20303 
L 298.589646 243.285521 
L 299.091906 246.223552 
L 300.598688 257.963712 
L 301.100948 261.463728 
L 301.603209 262.199581 
L 302.10547 259.812234 
L 303.109991 262.675627 
L 304.114512 256.914764 
L 304.616772 253.218105 
L 305.621293 244.057065 
L 306.123554 244.30742 
L 306.625814 243.54793 
L 307.630335 243.475685 
L 308.132596 243.225572 
L 308.634856 243.279064 
L 310.141638 243.118468 
L 310.643898 243.219002 
L 311.146159 245.663025 
L 312.15068 254.15216 
L 312.65294 254.674626 
L 313.155201 260.018932 
L 313.657461 252.394557 
L 314.159722 254.369028 
L 314.661982 262.850209 
L 315.164243 261.150784 
L 315.666503 258.812024 
L 316.168764 250.059884 
L 316.671024 248.94987 
L 318.177806 243.691756 
L 319.182327 243.322759 
L 319.684587 244.344367 
L 320.186848 244.441156 
L 321.191369 243.972063 
L 321.693629 243.206037 
L 322.19589 243.121121 
L 322.69815 243.525055 
L 323.200411 244.300494 
L 323.702671 245.368183 
L 324.204932 242.615928 
L 324.707192 221.293998 
L 325.209453 259.562723 
L 325.711713 260.323602 
L 326.213974 158.991993 
L 326.716234 200.837035 
L 327.218495 187.398615 
L 327.720755 211.685802 
L 328.223016 211.227289 
L 328.725276 202.766828 
L 329.227537 239.561125 
L 329.729797 235.932614 
L 330.232058 243.863942 
L 331.236579 243.40051 
L 332.743361 243.61062 
L 333.245621 243.715824 
L 333.747882 243.951492 
L 334.250142 243.873689 
L 334.752403 244.041896 
L 335.254663 245.60658 
L 335.756924 250.021572 
L 336.761445 256.678178 
L 337.263705 258.647212 
L 337.765966 253.29543 
L 338.268226 259.473686 
L 338.770487 264.003808 
L 339.272747 263.218465 
L 340.277268 259.974147 
L 340.779529 255.657879 
L 341.281789 250.279589 
L 342.28631 244.357627 
L 343.290831 243.681113 
L 343.793092 243.933305 
L 344.295352 243.858057 
L 344.797613 243.554809 
L 345.802134 243.527587 
L 346.806655 243.880299 
L 347.811176 245.897818 
L 348.313436 246.95003 
L 348.815697 248.294731 
L 349.317957 255.210882 
L 349.820218 252.010985 
L 350.322478 251.841395 
L 350.824739 255.147947 
L 351.326999 256.465354 
L 352.33152 252.034478 
L 352.833781 250.653772 
L 353.838302 244.171378 
L 354.340562 243.746422 
L 355.345083 243.202553 
L 355.847344 243.064537 
L 358.358646 243.064667 
L 358.860907 243.107976 
L 359.865428 249.532549 
L 360.367688 253.303992 
L 360.869949 255.341016 
L 361.372209 256.081319 
L 361.87447 258.799245 
L 362.376731 259.487232 
L 362.878991 256.526554 
L 363.381252 257.000427 
L 363.883512 253.557737 
L 364.385773 252.863697 
L 364.888033 251.511923 
L 365.892554 245.568413 
L 366.394815 244.053179 
L 366.897075 243.629561 
L 367.399336 243.439341 
L 368.403857 243.387421 
L 369.910638 243.027159 
L 370.412899 243.009292 
L 370.915159 243.141458 
L 371.41742 245.677914 
L 372.924201 255.844117 
L 373.426462 257.367299 
L 373.928722 258.480506 
L 374.430983 258.920397 
L 374.933243 258.881649 
L 375.435504 258.001899 
L 375.937764 256.209276 
L 376.942285 251.204827 
L 377.444546 247.506521 
L 377.946806 244.995493 
L 378.449067 243.771476 
L 379.955848 243.136842 
L 380.458109 242.922982 
L 381.96489 242.850507 
L 382.467151 242.818722 
L 382.969411 243.152475 
L 383.471672 243.716491 
L 383.973932 244.926945 
L 384.476193 250.087397 
L 385.480714 255.252872 
L 385.982974 251.251269 
L 386.485235 253.780908 
L 386.987495 255.143895 
L 387.992016 247.135365 
L 388.494277 251.107303 
L 388.996537 249.089391 
L 389.498798 247.840944 
L 390.001058 245.664996 
L 390.503319 244.075871 
L 391.005579 243.509216 
L 391.50784 243.452666 
L 392.010101 243.802095 
L 392.512361 244.547452 
L 393.516882 243.299863 
L 394.521403 243.259827 
L 395.023664 243.464533 
L 395.525924 245.293535 
L 396.028185 247.963894 
L 397.032706 251.635371 
L 397.534966 252.870648 
L 398.037227 253.507159 
L 398.539487 253.213363 
L 399.041748 253.530444 
L 399.544008 254.175155 
L 400.548529 250.668896 
L 401.05079 249.028409 
L 402.055311 244.571849 
L 402.557571 243.905014 
L 403.059832 243.783764 
L 403.562092 243.355916 
L 404.064353 243.166066 
L 404.566613 243.322078 
L 407.077916 243.227313 
L 407.580176 244.835002 
L 408.584697 249.197353 
L 409.086958 250.924043 
L 410.091479 253.192453 
L 410.593739 252.757709 
L 411.096 249.870809 
L 411.59826 248.855397 
L 412.100521 250.028562 
L 412.602781 248.733631 
L 413.105042 247.859365 
L 414.109563 243.95415 
L 414.611823 243.167747 
L 415.114084 242.974635 
L 415.616344 242.99893 
L 416.620865 242.778221 
L 418.629907 242.6937 
L 419.132168 242.809315 
L 419.634428 244.294437 
L 421.64347 251.626537 
L 422.145731 251.957901 
L 422.647992 252.116699 
L 423.150252 252.127037 
L 423.652513 251.334953 
L 425.661555 246.10184 
L 426.163815 244.295117 
L 426.666076 243.327777 
L 427.670597 243.298607 
L 427.670597 243.298607 
" style="fill:none;stroke:#2ecc71;stroke-linecap:square;stroke-width:0.75;"/>
   </g>
   <g id="patch_3">
    <path d="M 35.304688 292.790464 
L 35.304688 7.2 
" style="fill:none;stroke:#000000;stroke-linecap:square;stroke-linejoin:miter;stroke-width:0.8;"/>
   </g>
   <g id="patch_4">
    <path d="M 446.354688 292.790464 
L 446.354688 7.2 
" style="fill:none;stroke:#000000;stroke-linecap:square;stroke-linejoin:miter;stroke-width:0.8;"/>
   </g>
   <g id="patch_5">
    <path d="M 35.304688 292.790464 
L 446.354687 292.790464 
" style="fill:none;stroke:#000000;stroke-linecap:square;stroke-linejoin:miter;stroke-width:0.8;"/>
   </g>
   <g id="patch_6">
    <path d="M 35.304688 7.2 
L 446.354687 7.2 
" style="fill:none;stroke:#000000;stroke-linecap:square;stroke-linejoin:miter;stroke-width:0.8;"/>
   </g>
   <g id="legend_1">
    <g id="patch_7">
     <path d="M 239.454688 49.6 
L 439.354688 49.6 
Q 441.354688 49.6 441.354688 47.6 
L 441.354688 14.2 
Q 441.354688 12.2 439.354688 12.2 
L 239.454688 12.2 
Q 237.454688 12.2 237.454688 14.2 
L 237.454688 47.6 
Q 237.454688 49.6 239.454688 49.6 
z
" style="fill:#ffffff;opacity:0.8;stroke:#cccccc;stroke-linejoin:miter;"/>
    </g>
    <g id="line2d_19">
     <path d="M 241.454688 21.8 
L 261.454687 21.8 
" style="fill:none;stroke:#1a3bff;stroke-linecap:square;stroke-width:0.75;"/>
    </g>
    <g id="line2d_20"/>
    <g id="text_17">
     <!-- precipitation influx ($m^3$/$\delta t_{exchange}$) -->
     <g transform="translate(269.454687 25.3)scale(0.1 -0.1)">
      <defs>
       <path d="M 18.109375 8.203125 
L 18.109375 -20.796875 
L 9.078125 -20.796875 
L 9.078125 54.6875 
L 18.109375 54.6875 
L 18.109375 46.390625 
Q 20.953125 51.265625 25.265625 53.625 
Q 29.59375 56 35.59375 56 
Q 45.5625 56 51.78125 48.09375 
Q 58.015625 40.1875 58.015625 27.296875 
Q 58.015625 14.40625 51.78125 6.484375 
Q 45.5625 -1.421875 35.59375 -1.421875 
Q 29.59375 -1.421875 25.265625 0.953125 
Q 20.953125 3.328125 18.109375 8.203125 
z
M 48.6875 27.296875 
Q 48.6875 37.203125 44.609375 42.84375 
Q 40.53125 48.484375 33.40625 48.484375 
Q 26.265625 48.484375 22.1875 42.84375 
Q 18.109375 37.203125 18.109375 27.296875 
Q 18.109375 17.390625 22.1875 11.75 
Q 26.265625 6.109375 33.40625 6.109375 
Q 40.53125 6.109375 44.609375 11.75 
Q 48.6875 17.390625 48.6875 27.296875 
z
" id="DejaVuSans-112"/>
       <path d="M 41.109375 46.296875 
Q 39.59375 47.171875 37.8125 47.578125 
Q 36.03125 48 33.890625 48 
Q 26.265625 48 22.1875 43.046875 
Q 18.109375 38.09375 18.109375 28.8125 
L 18.109375 0 
L 9.078125 0 
L 9.078125 54.6875 
L 18.109375 54.6875 
L 18.109375 46.1875 
Q 20.953125 51.171875 25.484375 53.578125 
Q 30.03125 56 36.53125 56 
Q 37.453125 56 38.578125 55.875 
Q 39.703125 55.765625 41.0625 55.515625 
z
" id="DejaVuSans-114"/>
       <path d="M 56.203125 29.59375 
L 56.203125 25.203125 
L 14.890625 25.203125 
Q 15.484375 15.921875 20.484375 11.0625 
Q 25.484375 6.203125 34.421875 6.203125 
Q 39.59375 6.203125 44.453125 7.46875 
Q 49.3125 8.734375 54.109375 11.28125 
L 54.109375 2.78125 
Q 49.265625 0.734375 44.1875 -0.34375 
Q 39.109375 -1.421875 33.890625 -1.421875 
Q 20.796875 -1.421875 13.15625 6.1875 
Q 5.515625 13.8125 5.515625 26.8125 
Q 5.515625 40.234375 12.765625 48.109375 
Q 20.015625 56 32.328125 56 
Q 43.359375 56 49.78125 48.890625 
Q 56.203125 41.796875 56.203125 29.59375 
z
M 47.21875 32.234375 
Q 47.125 39.59375 43.09375 43.984375 
Q 39.0625 48.390625 32.421875 48.390625 
Q 24.90625 48.390625 20.390625 44.140625 
Q 15.875 39.890625 15.1875 32.171875 
z
" id="DejaVuSans-101"/>
       <path d="M 48.78125 52.59375 
L 48.78125 44.1875 
Q 44.96875 46.296875 41.140625 47.34375 
Q 37.3125 48.390625 33.40625 48.390625 
Q 24.65625 48.390625 19.8125 42.84375 
Q 14.984375 37.3125 14.984375 27.296875 
Q 14.984375 17.28125 19.8125 11.734375 
Q 24.65625 6.203125 33.40625 6.203125 
Q 37.3125 6.203125 41.140625 7.25 
Q 44.96875 8.296875 48.78125 10.40625 
L 48.78125 2.09375 
Q 45.015625 0.34375 40.984375 -0.53125 
Q 36.96875 -1.421875 32.421875 -1.421875 
Q 20.0625 -1.421875 12.78125 6.34375 
Q 5.515625 14.109375 5.515625 27.296875 
Q 5.515625 40.671875 12.859375 48.328125 
Q 20.21875 56 33.015625 56 
Q 37.15625 56 41.109375 55.140625 
Q 45.0625 54.296875 48.78125 52.59375 
z
" id="DejaVuSans-99"/>
       <path d="M 9.421875 54.6875 
L 18.40625 54.6875 
L 18.40625 0 
L 9.421875 0 
z
M 9.421875 75.984375 
L 18.40625 75.984375 
L 18.40625 64.59375 
L 9.421875 64.59375 
z
" id="DejaVuSans-105"/>
       <path d="M 18.3125 70.21875 
L 18.3125 54.6875 
L 36.8125 54.6875 
L 36.8125 47.703125 
L 18.3125 47.703125 
L 18.3125 18.015625 
Q 18.3125 11.328125 20.140625 9.421875 
Q 21.96875 7.515625 27.59375 7.515625 
L 36.8125 7.515625 
L 36.8125 0 
L 27.59375 0 
Q 17.1875 0 13.234375 3.875 
Q 9.28125 7.765625 9.28125 18.015625 
L 9.28125 47.703125 
L 2.6875 47.703125 
L 2.6875 54.6875 
L 9.28125 54.6875 
L 9.28125 70.21875 
z
" id="DejaVuSans-116"/>
       <path d="M 34.28125 27.484375 
Q 23.390625 27.484375 19.1875 25 
Q 14.984375 22.515625 14.984375 16.5 
Q 14.984375 11.71875 18.140625 8.90625 
Q 21.296875 6.109375 26.703125 6.109375 
Q 34.1875 6.109375 38.703125 11.40625 
Q 43.21875 16.703125 43.21875 25.484375 
L 43.21875 27.484375 
z
M 52.203125 31.203125 
L 52.203125 0 
L 43.21875 0 
L 43.21875 8.296875 
Q 40.140625 3.328125 35.546875 0.953125 
Q 30.953125 -1.421875 24.3125 -1.421875 
Q 15.921875 -1.421875 10.953125 3.296875 
Q 6 8.015625 6 15.921875 
Q 6 25.140625 12.171875 29.828125 
Q 18.359375 34.515625 30.609375 34.515625 
L 43.21875 34.515625 
L 43.21875 35.40625 
Q 43.21875 41.609375 39.140625 45 
Q 35.0625 48.390625 27.6875 48.390625 
Q 23 48.390625 18.546875 47.265625 
Q 14.109375 46.140625 10.015625 43.890625 
L 10.015625 52.203125 
Q 14.9375 54.109375 19.578125 55.046875 
Q 24.21875 56 28.609375 56 
Q 40.484375 56 46.34375 49.84375 
Q 52.203125 43.703125 52.203125 31.203125 
z
" id="DejaVuSans-97"/>
       <path d="M 30.609375 48.390625 
Q 23.390625 48.390625 19.1875 42.75 
Q 14.984375 37.109375 14.984375 27.296875 
Q 14.984375 17.484375 19.15625 11.84375 
Q 23.34375 6.203125 30.609375 6.203125 
Q 37.796875 6.203125 41.984375 11.859375 
Q 46.1875 17.53125 46.1875 27.296875 
Q 46.1875 37.015625 41.984375 42.703125 
Q 37.796875 48.390625 30.609375 48.390625 
z
M 30.609375 56 
Q 42.328125 56 49.015625 48.375 
Q 55.71875 40.765625 55.71875 27.296875 
Q 55.71875 13.875 49.015625 6.21875 
Q 42.328125 -1.421875 30.609375 -1.421875 
Q 18.84375 -1.421875 12.171875 6.21875 
Q 5.515625 13.875 5.515625 27.296875 
Q 5.515625 40.765625 12.171875 48.375 
Q 18.84375 56 30.609375 56 
z
" id="DejaVuSans-111"/>
       <path d="M 54.890625 33.015625 
L 54.890625 0 
L 45.90625 0 
L 45.90625 32.71875 
Q 45.90625 40.484375 42.875 44.328125 
Q 39.84375 48.1875 33.796875 48.1875 
Q 26.515625 48.1875 22.3125 43.546875 
Q 18.109375 38.921875 18.109375 30.90625 
L 18.109375 0 
L 9.078125 0 
L 9.078125 54.6875 
L 18.109375 54.6875 
L 18.109375 46.1875 
Q 21.34375 51.125 25.703125 53.5625 
Q 30.078125 56 35.796875 56 
Q 45.21875 56 50.046875 50.171875 
Q 54.890625 44.34375 54.890625 33.015625 
z
" id="DejaVuSans-110"/>
       <path id="DejaVuSans-32"/>
       <path d="M 37.109375 75.984375 
L 37.109375 68.5 
L 28.515625 68.5 
Q 23.6875 68.5 21.796875 66.546875 
Q 19.921875 64.59375 19.921875 59.515625 
L 19.921875 54.6875 
L 34.71875 54.6875 
L 34.71875 47.703125 
L 19.921875 47.703125 
L 19.921875 0 
L 10.890625 0 
L 10.890625 47.703125 
L 2.296875 47.703125 
L 2.296875 54.6875 
L 10.890625 54.6875 
L 10.890625 58.5 
Q 10.890625 67.625 15.140625 71.796875 
Q 19.390625 75.984375 28.609375 75.984375 
z
" id="DejaVuSans-102"/>
       <path d="M 9.421875 75.984375 
L 18.40625 75.984375 
L 18.40625 0 
L 9.421875 0 
z
" id="DejaVuSans-108"/>
       <path d="M 8.5 21.578125 
L 8.5 54.6875 
L 17.484375 54.6875 
L 17.484375 21.921875 
Q 17.484375 14.15625 20.5 10.265625 
Q 23.53125 6.390625 29.59375 6.390625 
Q 36.859375 6.390625 41.078125 11.03125 
Q 45.3125 15.671875 45.3125 23.6875 
L 45.3125 54.6875 
L 54.296875 54.6875 
L 54.296875 0 
L 45.3125 0 
L 45.3125 8.40625 
Q 42.046875 3.421875 37.71875 1 
Q 33.40625 -1.421875 27.6875 -1.421875 
Q 18.265625 -1.421875 13.375 4.4375 
Q 8.5 10.296875 8.5 21.578125 
z
M 31.109375 56 
z
" id="DejaVuSans-117"/>
       <path d="M 54.890625 54.6875 
L 35.109375 28.078125 
L 55.90625 0 
L 45.3125 0 
L 29.390625 21.484375 
L 13.484375 0 
L 2.875 0 
L 24.125 28.609375 
L 4.6875 54.6875 
L 15.28125 54.6875 
L 29.78125 35.203125 
L 44.28125 54.6875 
z
" id="DejaVuSans-120"/>
       <path d="M 31 75.875 
Q 24.46875 64.65625 21.28125 53.65625 
Q 18.109375 42.671875 18.109375 31.390625 
Q 18.109375 20.125 21.3125 9.0625 
Q 24.515625 -2 31 -13.1875 
L 23.1875 -13.1875 
Q 15.875 -1.703125 12.234375 9.375 
Q 8.59375 20.453125 8.59375 31.390625 
Q 8.59375 42.28125 12.203125 53.3125 
Q 15.828125 64.359375 23.1875 75.875 
z
" id="DejaVuSans-40"/>
       <path d="M 89.796875 33.015625 
L 83.40625 0 
L 74.421875 0 
L 80.71875 32.71875 
Q 81.109375 34.8125 81.296875 36.328125 
Q 81.5 37.84375 81.5 38.921875 
Q 81.5 43.3125 79.046875 45.75 
Q 76.609375 48.1875 72.21875 48.1875 
Q 65.671875 48.1875 60.546875 43.28125 
Q 55.421875 38.375 53.90625 30.515625 
L 47.90625 0 
L 38.921875 0 
L 45.3125 32.71875 
Q 45.703125 34.515625 45.890625 36.046875 
Q 46.09375 37.59375 46.09375 38.8125 
Q 46.09375 43.265625 43.65625 45.71875 
Q 41.21875 48.1875 36.921875 48.1875 
Q 30.28125 48.1875 25.140625 43.28125 
Q 20.015625 38.375 18.5 30.515625 
L 12.5 0 
L 3.515625 0 
L 14.203125 54.6875 
L 23.1875 54.6875 
L 21.484375 46.1875 
Q 25.140625 50.984375 30.046875 53.484375 
Q 34.96875 56 40.578125 56 
Q 46.53125 56 50.359375 52.875 
Q 54.203125 49.75 54.984375 44.1875 
Q 59.078125 49.953125 64.46875 52.96875 
Q 69.875 56 75.875 56 
Q 82.90625 56 86.734375 51.953125 
Q 90.578125 47.90625 90.578125 40.484375 
Q 90.578125 38.875 90.375 36.9375 
Q 90.1875 35.015625 89.796875 33.015625 
z
" id="DejaVuSans-Oblique-109"/>
       <path d="M 25.390625 72.90625 
L 33.6875 72.90625 
L 8.296875 -9.28125 
L 0 -9.28125 
z
" id="DejaVuSans-47"/>
       <path d="M 54.25 63.328125 
Q 49.953125 66.75 38.28125 66.75 
Q 25.921875 66.75 24.8125 61.03125 
Q 23.921875 56.546875 36.375 54.203125 
Q 46.140625 52.390625 50.828125 46.921875 
Q 56.5 40.328125 53.859375 26.8125 
Q 51.3125 13.875 43.171875 6.25 
Q 34.96875 -1.421875 23.25 -1.421875 
Q 11.578125 -1.421875 6.34375 6.25 
Q 1.125 13.875 3.765625 27.296875 
Q 5.671875 37.25 13.921875 45.3125 
Q 17.140625 48.4375 21.140625 50.203125 
Q 14.265625 54.046875 15.625 60.9375 
Q 18.21875 74.21875 39.75 74.21875 
Q 50.53125 74.21875 55.71875 70.796875 
z
M 27.390625 47.75 
Q 23.828125 46.34375 20.40625 42.78125 
Q 15.140625 37.25 13.234375 27.296875 
Q 11.28125 17.390625 14.359375 11.8125 
Q 17.484375 6.203125 24.75 6.203125 
Q 31.9375 6.203125 37.203125 11.859375 
Q 42.53125 17.53125 44.34375 26.8125 
Q 46.1875 36.53125 42.671875 41.21875 
Q 38.921875 46.234375 32.859375 46.78125 
Q 29.78125 47.078125 27.390625 47.75 
z
" id="DejaVuSans-Oblique-948"/>
       <path d="M 42.28125 54.6875 
L 40.921875 47.703125 
L 23 47.703125 
L 17.1875 18.015625 
Q 16.890625 16.359375 16.75 15.234375 
Q 16.609375 14.109375 16.609375 13.484375 
Q 16.609375 10.359375 18.484375 8.9375 
Q 20.359375 7.515625 24.515625 7.515625 
L 33.59375 7.515625 
L 32.078125 0 
L 23.484375 0 
Q 15.484375 0 11.546875 3.125 
Q 7.625 6.25 7.625 12.59375 
Q 7.625 13.71875 7.765625 15.0625 
Q 7.90625 16.40625 8.203125 18.015625 
L 14.015625 47.703125 
L 6.390625 47.703125 
L 7.8125 54.6875 
L 15.28125 54.6875 
L 18.3125 70.21875 
L 27.296875 70.21875 
L 24.3125 54.6875 
z
" id="DejaVuSans-Oblique-116"/>
       <path d="M 48.09375 32.234375 
Q 48.25 33.015625 48.3125 33.84375 
Q 48.390625 34.671875 48.390625 35.5 
Q 48.390625 41.453125 44.890625 44.921875 
Q 41.40625 48.390625 35.40625 48.390625 
Q 28.71875 48.390625 23.578125 44.15625 
Q 18.453125 39.9375 15.828125 32.171875 
z
M 55.90625 25.203125 
L 14.109375 25.203125 
Q 13.8125 23.34375 13.71875 22.265625 
Q 13.625 21.1875 13.625 20.40625 
Q 13.625 13.625 17.796875 9.90625 
Q 21.96875 6.203125 29.59375 6.203125 
Q 35.453125 6.203125 40.671875 7.515625 
Q 45.90625 8.84375 50.390625 11.375 
L 48.6875 2.484375 
Q 43.84375 0.53125 38.6875 -0.4375 
Q 33.546875 -1.421875 28.21875 -1.421875 
Q 16.84375 -1.421875 10.71875 4.015625 
Q 4.59375 9.46875 4.59375 19.484375 
Q 4.59375 28.03125 7.640625 35.375 
Q 10.6875 42.71875 16.609375 48.484375 
Q 20.40625 52.09375 25.65625 54.046875 
Q 30.90625 56 36.8125 56 
Q 46.09375 56 51.578125 50.4375 
Q 57.078125 44.875 57.078125 35.5 
Q 57.078125 33.25 56.78125 30.6875 
Q 56.5 28.125 55.90625 25.203125 
z
" id="DejaVuSans-Oblique-101"/>
       <path d="M 60.015625 54.6875 
L 34.90625 27.875 
L 50.296875 0 
L 39.984375 0 
L 28.421875 21.6875 
L 8.296875 0 
L -2.59375 0 
L 24.3125 28.8125 
L 10.015625 54.6875 
L 20.3125 54.6875 
L 30.8125 34.90625 
L 49.125 54.6875 
z
" id="DejaVuSans-Oblique-120"/>
       <path d="M 53.609375 52.59375 
L 51.8125 43.703125 
Q 48.578125 46.046875 44.9375 47.21875 
Q 41.3125 48.390625 37.40625 48.390625 
Q 33.109375 48.390625 29.21875 46.875 
Q 25.34375 45.359375 22.703125 42.578125 
Q 18.5 38.328125 16.203125 32.609375 
Q 13.921875 26.90625 13.921875 20.796875 
Q 13.921875 13.421875 17.609375 9.8125 
Q 21.296875 6.203125 28.8125 6.203125 
Q 32.515625 6.203125 36.6875 7.328125 
Q 40.875 8.453125 45.40625 10.6875 
L 43.703125 1.8125 
Q 39.796875 0.203125 35.671875 -0.609375 
Q 31.546875 -1.421875 27.203125 -1.421875 
Q 16.3125 -1.421875 10.453125 4.015625 
Q 4.59375 9.46875 4.59375 19.578125 
Q 4.59375 28.078125 7.640625 35.234375 
Q 10.6875 42.390625 16.703125 48.09375 
Q 20.796875 52 26.3125 54 
Q 31.84375 56 38.375 56 
Q 42.1875 56 45.9375 55.140625 
Q 49.703125 54.296875 53.609375 52.59375 
z
" id="DejaVuSans-Oblique-99"/>
       <path d="M 55.71875 33.015625 
L 49.3125 0 
L 40.28125 0 
L 46.6875 32.671875 
Q 47.125 34.96875 47.359375 36.71875 
Q 47.609375 38.484375 47.609375 39.5 
Q 47.609375 43.609375 45.015625 45.890625 
Q 42.4375 48.1875 37.796875 48.1875 
Q 30.5625 48.1875 25.265625 43.296875 
Q 19.96875 38.421875 18.40625 30.328125 
L 12.5 0 
L 3.515625 0 
L 18.3125 75.984375 
L 27.296875 75.984375 
L 21.484375 46.09375 
Q 24.90625 50.6875 30.21875 53.34375 
Q 35.546875 56 41.40625 56 
Q 48.640625 56 52.609375 52.09375 
Q 56.59375 48.1875 56.59375 41.109375 
Q 56.59375 39.359375 56.375 37.359375 
Q 56.15625 35.359375 55.71875 33.015625 
z
" id="DejaVuSans-Oblique-104"/>
       <path d="M 53.71875 31.203125 
L 47.609375 0 
L 38.625 0 
L 40.28125 8.296875 
Q 36.328125 3.421875 31.265625 1 
Q 26.21875 -1.421875 20.015625 -1.421875 
Q 13.03125 -1.421875 8.5625 2.84375 
Q 4.109375 7.125 4.109375 13.8125 
Q 4.109375 23.390625 11.75 28.953125 
Q 19.390625 34.515625 32.8125 34.515625 
L 45.3125 34.515625 
L 45.796875 36.921875 
Q 45.90625 37.3125 45.953125 37.765625 
Q 46 38.234375 46 39.203125 
Q 46 43.5625 42.453125 45.96875 
Q 38.921875 48.390625 32.515625 48.390625 
Q 28.125 48.390625 23.5 47.265625 
Q 18.890625 46.140625 14.015625 43.890625 
L 15.578125 52.203125 
Q 20.65625 54.109375 25.515625 55.046875 
Q 30.375 56 34.90625 56 
Q 44.578125 56 49.625 51.796875 
Q 54.6875 47.609375 54.6875 39.59375 
Q 54.6875 37.984375 54.4375 35.8125 
Q 54.203125 33.640625 53.71875 31.203125 
z
M 44 27.484375 
L 35.015625 27.484375 
Q 23.96875 27.484375 18.671875 24.53125 
Q 13.375 21.578125 13.375 15.375 
Q 13.375 11.078125 16.078125 8.640625 
Q 18.796875 6.203125 23.578125 6.203125 
Q 30.90625 6.203125 36.375 11.453125 
Q 41.84375 16.703125 43.609375 25.484375 
z
" id="DejaVuSans-Oblique-97"/>
       <path d="M 55.71875 33.015625 
L 49.3125 0 
L 40.28125 0 
L 46.6875 32.671875 
Q 47.125 34.96875 47.359375 36.71875 
Q 47.609375 38.484375 47.609375 39.5 
Q 47.609375 43.609375 45.015625 45.890625 
Q 42.4375 48.1875 37.796875 48.1875 
Q 30.5625 48.1875 25.34375 43.375 
Q 20.125 38.578125 18.5 30.328125 
L 12.5 0 
L 3.515625 0 
L 14.109375 54.6875 
L 23.09375 54.6875 
L 21.296875 46.09375 
Q 25.046875 50.828125 30.3125 53.40625 
Q 35.59375 56 41.40625 56 
Q 48.640625 56 52.609375 52.09375 
Q 56.59375 48.1875 56.59375 41.109375 
Q 56.59375 39.359375 56.375 37.359375 
Q 56.15625 35.359375 55.71875 33.015625 
z
" id="DejaVuSans-Oblique-110"/>
       <path d="M 59.625 54.6875 
L 50.296875 6.78125 
Q 47.609375 -7.125 40.015625 -13.953125 
Q 32.421875 -20.796875 19.578125 -20.796875 
Q 14.84375 -20.796875 10.78125 -20.09375 
Q 6.734375 -19.390625 3.21875 -17.921875 
L 4.890625 -9.1875 
Q 8.203125 -11.328125 11.90625 -12.34375 
Q 15.625 -13.375 19.828125 -13.375 
Q 28.375 -13.375 33.859375 -8.703125 
Q 39.359375 -4.046875 41.109375 4.6875 
L 41.890625 8.796875 
Q 38.140625 4.5 33.15625 2.25 
Q 28.171875 0 22.40625 0 
Q 14.109375 0 9.34375 5.484375 
Q 4.59375 10.984375 4.59375 20.609375 
Q 4.59375 28.171875 7.46875 35.421875 
Q 10.359375 42.671875 15.578125 48.296875 
Q 19.046875 52 23.65625 54 
Q 28.265625 56 33.296875 56 
Q 38.8125 56 42.90625 53.4375 
Q 47.015625 50.875 49.03125 46.1875 
L 50.59375 54.6875 
z
M 46.09375 34.625 
Q 46.09375 41.265625 42.96875 44.875 
Q 39.84375 48.484375 34.078125 48.484375 
Q 30.515625 48.484375 27.296875 47.0625 
Q 24.078125 45.65625 21.78125 43.109375 
Q 18.0625 38.921875 15.984375 33.234375 
Q 13.921875 27.546875 13.921875 21.484375 
Q 13.921875 14.75 17.0625 11.125 
Q 20.21875 7.515625 26.125 7.515625 
Q 34.671875 7.515625 40.375 15.25 
Q 46.09375 23 46.09375 34.625 
z
" id="DejaVuSans-Oblique-103"/>
       <path d="M 8.015625 75.875 
L 15.828125 75.875 
Q 23.140625 64.359375 26.78125 53.3125 
Q 30.421875 42.28125 30.421875 31.390625 
Q 30.421875 20.453125 26.78125 9.375 
Q 23.140625 -1.703125 15.828125 -13.1875 
L 8.015625 -13.1875 
Q 14.5 -2 17.703125 9.0625 
Q 20.90625 20.125 20.90625 31.390625 
Q 20.90625 42.671875 17.703125 53.65625 
Q 14.5 64.65625 8.015625 75.875 
z
" id="DejaVuSans-41"/>
      </defs>
      <use transform="translate(0 0.765625)" xlink:href="#DejaVuSans-112"/>
      <use transform="translate(63.476562 0.765625)" xlink:href="#DejaVuSans-114"/>
      <use transform="translate(104.589844 0.765625)" xlink:href="#DejaVuSans-101"/>
      <use transform="translate(166.113281 0.765625)" xlink:href="#DejaVuSans-99"/>
      <use transform="translate(221.09375 0.765625)" xlink:href="#DejaVuSans-105"/>
      <use transform="translate(248.876953 0.765625)" xlink:href="#DejaVuSans-112"/>
      <use transform="translate(312.353516 0.765625)" xlink:href="#DejaVuSans-105"/>
      <use transform="translate(340.136719 0.765625)" xlink:href="#DejaVuSans-116"/>
      <use transform="translate(379.345703 0.765625)" xlink:href="#DejaVuSans-97"/>
      <use transform="translate(440.625 0.765625)" xlink:href="#DejaVuSans-116"/>
      <use transform="translate(479.833984 0.765625)" xlink:href="#DejaVuSans-105"/>
      <use transform="translate(507.617188 0.765625)" xlink:href="#DejaVuSans-111"/>
      <use transform="translate(568.798828 0.765625)" xlink:href="#DejaVuSans-110"/>
      <use transform="translate(632.177734 0.765625)" xlink:href="#DejaVuSans-32"/>
      <use transform="translate(663.964844 0.765625)" xlink:href="#DejaVuSans-105"/>
      <use transform="translate(691.748047 0.765625)" xlink:href="#DejaVuSans-110"/>
      <use transform="translate(755.126953 0.765625)" xlink:href="#DejaVuSans-102"/>
      <use transform="translate(790.332031 0.765625)" xlink:href="#DejaVuSans-108"/>
      <use transform="translate(818.115234 0.765625)" xlink:href="#DejaVuSans-117"/>
      <use transform="translate(881.494141 0.765625)" xlink:href="#DejaVuSans-120"/>
      <use transform="translate(940.673828 0.765625)" xlink:href="#DejaVuSans-32"/>
      <use transform="translate(972.460938 0.765625)" xlink:href="#DejaVuSans-40"/>
      <use transform="translate(1011.474609 0.765625)" xlink:href="#DejaVuSans-Oblique-109"/>
      <use transform="translate(1113.536615 39.046875)scale(0.7)" xlink:href="#DejaVuSans-51"/>
      <use transform="translate(1160.807122 0.765625)" xlink:href="#DejaVuSans-47"/>
      <use transform="translate(1194.498529 0.765625)" xlink:href="#DejaVuSans-Oblique-948"/>
      <use transform="translate(1255.680169 0.765625)" xlink:href="#DejaVuSans-Oblique-116"/>
      <use transform="translate(1294.889154 -15.640625)scale(0.7)" xlink:href="#DejaVuSans-Oblique-101"/>
      <use transform="translate(1337.95556 -15.640625)scale(0.7)" xlink:href="#DejaVuSans-Oblique-120"/>
      <use transform="translate(1379.381341 -15.640625)scale(0.7)" xlink:href="#DejaVuSans-Oblique-99"/>
      <use transform="translate(1417.867669 -15.640625)scale(0.7)" xlink:href="#DejaVuSans-Oblique-104"/>
      <use transform="translate(1462.232904 -15.640625)scale(0.7)" xlink:href="#DejaVuSans-Oblique-97"/>
      <use transform="translate(1505.128411 -15.640625)scale(0.7)" xlink:href="#DejaVuSans-Oblique-110"/>
      <use transform="translate(1549.493646 -15.640625)scale(0.7)" xlink:href="#DejaVuSans-Oblique-103"/>
      <use transform="translate(1593.92724 -15.640625)scale(0.7)" xlink:href="#DejaVuSans-Oblique-101"/>
      <use transform="translate(1639.728021 0.765625)" xlink:href="#DejaVuSans-41"/>
     </g>
    </g>
    <g id="line2d_21">
     <path d="M 241.454688 39 
L 261.454687 39 
" style="fill:none;stroke:#2ecc71;stroke-linecap:square;stroke-width:0.75;"/>
    </g>
    <g id="line2d_22"/>
    <g id="text_18">
     <!-- SM in-/out-fluxes ($m^3$/$\delta t_{exchange}$) -->
     <g transform="translate(269.454687 42.5)scale(0.1 -0.1)">
      <defs>
       <path d="M 53.515625 70.515625 
L 53.515625 60.890625 
Q 47.90625 63.578125 42.921875 64.890625 
Q 37.9375 66.21875 33.296875 66.21875 
Q 25.25 66.21875 20.875 63.09375 
Q 16.5 59.96875 16.5 54.203125 
Q 16.5 49.359375 19.40625 46.890625 
Q 22.3125 44.4375 30.421875 42.921875 
L 36.375 41.703125 
Q 47.40625 39.59375 52.65625 34.296875 
Q 57.90625 29 57.90625 20.125 
Q 57.90625 9.515625 50.796875 4.046875 
Q 43.703125 -1.421875 29.984375 -1.421875 
Q 24.8125 -1.421875 18.96875 -0.25 
Q 13.140625 0.921875 6.890625 3.21875 
L 6.890625 13.375 
Q 12.890625 10.015625 18.65625 8.296875 
Q 24.421875 6.59375 29.984375 6.59375 
Q 38.421875 6.59375 43.015625 9.90625 
Q 47.609375 13.234375 47.609375 19.390625 
Q 47.609375 24.75 44.3125 27.78125 
Q 41.015625 30.8125 33.5 32.328125 
L 27.484375 33.5 
Q 16.453125 35.6875 11.515625 40.375 
Q 6.59375 45.0625 6.59375 53.421875 
Q 6.59375 63.09375 13.40625 68.65625 
Q 20.21875 74.21875 32.171875 74.21875 
Q 37.3125 74.21875 42.625 73.28125 
Q 47.953125 72.359375 53.515625 70.515625 
z
" id="DejaVuSans-83"/>
       <path d="M 9.8125 72.90625 
L 24.515625 72.90625 
L 43.109375 23.296875 
L 61.8125 72.90625 
L 76.515625 72.90625 
L 76.515625 0 
L 66.890625 0 
L 66.890625 64.015625 
L 48.09375 14.015625 
L 38.1875 14.015625 
L 19.390625 64.015625 
L 19.390625 0 
L 9.8125 0 
z
" id="DejaVuSans-77"/>
       <path d="M 44.28125 53.078125 
L 44.28125 44.578125 
Q 40.484375 46.53125 36.375 47.5 
Q 32.28125 48.484375 27.875 48.484375 
Q 21.1875 48.484375 17.84375 46.4375 
Q 14.5 44.390625 14.5 40.28125 
Q 14.5 37.15625 16.890625 35.375 
Q 19.28125 33.59375 26.515625 31.984375 
L 29.59375 31.296875 
Q 39.15625 29.25 43.1875 25.515625 
Q 47.21875 21.78125 47.21875 15.09375 
Q 47.21875 7.46875 41.1875 3.015625 
Q 35.15625 -1.421875 24.609375 -1.421875 
Q 20.21875 -1.421875 15.453125 -0.5625 
Q 10.6875 0.296875 5.421875 2 
L 5.421875 11.28125 
Q 10.40625 8.6875 15.234375 7.390625 
Q 20.0625 6.109375 24.8125 6.109375 
Q 31.15625 6.109375 34.5625 8.28125 
Q 37.984375 10.453125 37.984375 14.40625 
Q 37.984375 18.0625 35.515625 20.015625 
Q 33.0625 21.96875 24.703125 23.78125 
L 21.578125 24.515625 
Q 13.234375 26.265625 9.515625 29.90625 
Q 5.8125 33.546875 5.8125 39.890625 
Q 5.8125 47.609375 11.28125 51.796875 
Q 16.75 56 26.8125 56 
Q 31.78125 56 36.171875 55.265625 
Q 40.578125 54.546875 44.28125 53.078125 
z
" id="DejaVuSans-115"/>
      </defs>
      <use transform="translate(0 0.765625)" xlink:href="#DejaVuSans-83"/>
      <use transform="translate(63.476562 0.765625)" xlink:href="#DejaVuSans-77"/>
      <use transform="translate(149.755859 0.765625)" xlink:href="#DejaVuSans-32"/>
      <use transform="translate(181.542969 0.765625)" xlink:href="#DejaVuSans-105"/>
      <use transform="translate(209.326172 0.765625)" xlink:href="#DejaVuSans-110"/>
      <use transform="translate(272.705078 0.765625)" xlink:href="#DejaVuSans-45"/>
      <use transform="translate(308.789062 0.765625)" xlink:href="#DejaVuSans-47"/>
      <use transform="translate(342.480469 0.765625)" xlink:href="#DejaVuSans-111"/>
      <use transform="translate(403.662109 0.765625)" xlink:href="#DejaVuSans-117"/>
      <use transform="translate(467.041016 0.765625)" xlink:href="#DejaVuSans-116"/>
      <use transform="translate(506.25 0.765625)" xlink:href="#DejaVuSans-45"/>
      <use transform="translate(542.333984 0.765625)" xlink:href="#DejaVuSans-102"/>
      <use transform="translate(577.539062 0.765625)" xlink:href="#DejaVuSans-108"/>
      <use transform="translate(605.322266 0.765625)" xlink:href="#DejaVuSans-117"/>
      <use transform="translate(668.701172 0.765625)" xlink:href="#DejaVuSans-120"/>
      <use transform="translate(727.880859 0.765625)" xlink:href="#DejaVuSans-101"/>
      <use transform="translate(789.404297 0.765625)" xlink:href="#DejaVuSans-115"/>
      <use transform="translate(841.503906 0.765625)" xlink:href="#DejaVuSans-32"/>
      <use transform="translate(873.291016 0.765625)" xlink:href="#DejaVuSans-40"/>
      <use transform="translate(912.304688 0.765625)" xlink:href="#DejaVuSans-Oblique-109"/>
      <use transform="translate(1014.366693 39.046875)scale(0.7)" xlink:href="#DejaVuSans-51"/>
      <use transform="translate(1061.637201 0.765625)" xlink:href="#DejaVuSans-47"/>
      <use transform="translate(1095.328607 0.765625)" xlink:href="#DejaVuSans-Oblique-948"/>
      <use transform="translate(1156.510247 0.765625)" xlink:href="#DejaVuSans-Oblique-116"/>
      <use transform="translate(1195.719232 -15.640625)scale(0.7)" xlink:href="#DejaVuSans-Oblique-101"/>
      <use transform="translate(1238.785638 -15.640625)scale(0.7)" xlink:href="#DejaVuSans-Oblique-120"/>
      <use transform="translate(1280.211419 -15.640625)scale(0.7)" xlink:href="#DejaVuSans-Oblique-99"/>
      <use transform="translate(1318.697747 -15.640625)scale(0.7)" xlink:href="#DejaVuSans-Oblique-104"/>
      <use transform="translate(1363.062982 -15.640625)scale(0.7)" xlink:href="#DejaVuSans-Oblique-97"/>
      <use transform="translate(1405.95849 -15.640625)scale(0.7)" xlink:href="#DejaVuSans-Oblique-110"/>
      <use transform="translate(1450.323724 -15.640625)scale(0.7)" xlink:href="#DejaVuSans-Oblique-103"/>
      <use transform="translate(1494.757318 -15.640625)scale(0.7)" xlink:href="#DejaVuSans-Oblique-101"/>
      <use transform="translate(1540.558099 0.765625)" xlink:href="#DejaVuSans-41"/>
     </g>
    </g>
   </g>
  </g>
 </g>
 <defs>
  <clipPath id="p9b12871eea">
   <rect height="285.590464" width="411.05" x="35.304688" y="7.2"/>
  </clipPath>
 </defs>
</svg>
