<?xml version="1.0" encoding="utf-8" standalone="no"?>
<!DOCTYPE svg PUBLIC "-//W3C//DTD SVG 1.1//EN"
  "http://www.w3.org/Graphics/SVG/1.1/DTD/svg11.dtd">
<!-- Created with matplotlib (https://matplotlib.org/) -->
<svg height="338.067279pt" version="1.1" viewBox="0 0 453.5175 338.067279" width="453.5175pt" xmlns="http://www.w3.org/2000/svg" xmlns:xlink="http://www.w3.org/1999/xlink">
 <metadata>
  <rdf:RDF xmlns:cc="http://creativecommons.org/ns#" xmlns:dc="http://purl.org/dc/elements/1.1/" xmlns:rdf="http://www.w3.org/1999/02/22-rdf-syntax-ns#">
   <cc:Work>
    <dc:type rdf:resource="http://purl.org/dc/dcmitype/StillImage"/>
    <dc:date>2021-04-19T19:47:00.540410</dc:date>
    <dc:format>image/svg+xml</dc:format>
    <dc:creator>
     <cc:Agent>
      <dc:title>Matplotlib v3.3.2, https://matplotlib.org/</dc:title>
     </cc:Agent>
    </dc:creator>
   </cc:Work>
  </rdf:RDF>
 </metadata>
 <defs>
  <style type="text/css">*{stroke-linecap:butt;stroke-linejoin:round;}</style>
 </defs>
 <g id="figure_1">
  <g id="patch_1">
   <path d="M 0 338.067279 
L 453.5175 338.067279 
L 453.5175 0 
L 0 0 
z
" style="fill:#ffffff;"/>
  </g>
  <g id="axes_1">
   <g id="patch_2">
    <path d="M 33.2875 292.790464 
L 446.3175 292.790464 
L 446.3175 7.2 
L 33.2875 7.2 
z
" style="fill:#ffffff;"/>
   </g>
   <g id="matplotlib.axis_1">
    <g id="xtick_1">
     <g id="line2d_1">
      <defs>
       <path d="M 0 0 
L 0 3.5 
" id="md4d431b9f7" style="stroke:#000000;stroke-width:0.8;"/>
      </defs>
      <g>
       <use style="stroke:#000000;stroke-width:0.8;" x="52.061591" xlink:href="#md4d431b9f7" y="292.790464"/>
      </g>
     </g>
     <g id="text_1">
      <!-- 01-05-20 -->
      <g transform="translate(11.712313 329.066216)rotate(-30)scale(0.1 -0.1)">
       <defs>
        <path d="M 31.78125 66.40625 
Q 24.171875 66.40625 20.328125 58.90625 
Q 16.5 51.421875 16.5 36.375 
Q 16.5 21.390625 20.328125 13.890625 
Q 24.171875 6.390625 31.78125 6.390625 
Q 39.453125 6.390625 43.28125 13.890625 
Q 47.125 21.390625 47.125 36.375 
Q 47.125 51.421875 43.28125 58.90625 
Q 39.453125 66.40625 31.78125 66.40625 
z
M 31.78125 74.21875 
Q 44.046875 74.21875 50.515625 64.515625 
Q 56.984375 54.828125 56.984375 36.375 
Q 56.984375 17.96875 50.515625 8.265625 
Q 44.046875 -1.421875 31.78125 -1.421875 
Q 19.53125 -1.421875 13.0625 8.265625 
Q 6.59375 17.96875 6.59375 36.375 
Q 6.59375 54.828125 13.0625 64.515625 
Q 19.53125 74.21875 31.78125 74.21875 
z
" id="DejaVuSans-48"/>
        <path d="M 12.40625 8.296875 
L 28.515625 8.296875 
L 28.515625 63.921875 
L 10.984375 60.40625 
L 10.984375 69.390625 
L 28.421875 72.90625 
L 38.28125 72.90625 
L 38.28125 8.296875 
L 54.390625 8.296875 
L 54.390625 0 
L 12.40625 0 
z
" id="DejaVuSans-49"/>
        <path d="M 4.890625 31.390625 
L 31.203125 31.390625 
L 31.203125 23.390625 
L 4.890625 23.390625 
z
" id="DejaVuSans-45"/>
        <path d="M 10.796875 72.90625 
L 49.515625 72.90625 
L 49.515625 64.59375 
L 19.828125 64.59375 
L 19.828125 46.734375 
Q 21.96875 47.46875 24.109375 47.828125 
Q 26.265625 48.1875 28.421875 48.1875 
Q 40.625 48.1875 47.75 41.5 
Q 54.890625 34.8125 54.890625 23.390625 
Q 54.890625 11.625 47.5625 5.09375 
Q 40.234375 -1.421875 26.90625 -1.421875 
Q 22.3125 -1.421875 17.546875 -0.640625 
Q 12.796875 0.140625 7.71875 1.703125 
L 7.71875 11.625 
Q 12.109375 9.234375 16.796875 8.0625 
Q 21.484375 6.890625 26.703125 6.890625 
Q 35.15625 6.890625 40.078125 11.328125 
Q 45.015625 15.765625 45.015625 23.390625 
Q 45.015625 31 40.078125 35.4375 
Q 35.15625 39.890625 26.703125 39.890625 
Q 22.75 39.890625 18.8125 39.015625 
Q 14.890625 38.140625 10.796875 36.28125 
z
" id="DejaVuSans-53"/>
        <path d="M 19.1875 8.296875 
L 53.609375 8.296875 
L 53.609375 0 
L 7.328125 0 
L 7.328125 8.296875 
Q 12.9375 14.109375 22.625 23.890625 
Q 32.328125 33.6875 34.8125 36.53125 
Q 39.546875 41.84375 41.421875 45.53125 
Q 43.3125 49.21875 43.3125 52.78125 
Q 43.3125 58.59375 39.234375 62.25 
Q 35.15625 65.921875 28.609375 65.921875 
Q 23.96875 65.921875 18.8125 64.3125 
Q 13.671875 62.703125 7.8125 59.421875 
L 7.8125 69.390625 
Q 13.765625 71.78125 18.9375 73 
Q 24.125 74.21875 28.421875 74.21875 
Q 39.75 74.21875 46.484375 68.546875 
Q 53.21875 62.890625 53.21875 53.421875 
Q 53.21875 48.921875 51.53125 44.890625 
Q 49.859375 40.875 45.40625 35.40625 
Q 44.1875 33.984375 37.640625 27.21875 
Q 31.109375 20.453125 19.1875 8.296875 
z
" id="DejaVuSans-50"/>
       </defs>
       <use xlink:href="#DejaVuSans-48"/>
       <use x="63.623047" xlink:href="#DejaVuSans-49"/>
       <use x="127.246094" xlink:href="#DejaVuSans-45"/>
       <use x="163.330078" xlink:href="#DejaVuSans-48"/>
       <use x="226.953125" xlink:href="#DejaVuSans-53"/>
       <use x="290.576172" xlink:href="#DejaVuSans-45"/>
       <use x="326.660156" xlink:href="#DejaVuSans-50"/>
       <use x="390.283203" xlink:href="#DejaVuSans-48"/>
      </g>
     </g>
    </g>
    <g id="xtick_2">
     <g id="line2d_2">
      <g>
       <use style="stroke:#000000;stroke-width:0.8;" x="100.510858" xlink:href="#md4d431b9f7" y="292.790464"/>
      </g>
     </g>
     <g id="text_2">
      <!-- 05-05-20 -->
      <g transform="translate(60.16158 329.066216)rotate(-30)scale(0.1 -0.1)">
       <use xlink:href="#DejaVuSans-48"/>
       <use x="63.623047" xlink:href="#DejaVuSans-53"/>
       <use x="127.246094" xlink:href="#DejaVuSans-45"/>
       <use x="163.330078" xlink:href="#DejaVuSans-48"/>
       <use x="226.953125" xlink:href="#DejaVuSans-53"/>
       <use x="290.576172" xlink:href="#DejaVuSans-45"/>
       <use x="326.660156" xlink:href="#DejaVuSans-50"/>
       <use x="390.283203" xlink:href="#DejaVuSans-48"/>
      </g>
     </g>
    </g>
    <g id="xtick_3">
     <g id="line2d_3">
      <g>
       <use style="stroke:#000000;stroke-width:0.8;" x="148.960125" xlink:href="#md4d431b9f7" y="292.790464"/>
      </g>
     </g>
     <g id="text_3">
      <!-- 09-05-20 -->
      <g transform="translate(108.610847 329.066216)rotate(-30)scale(0.1 -0.1)">
       <defs>
        <path d="M 10.984375 1.515625 
L 10.984375 10.5 
Q 14.703125 8.734375 18.5 7.8125 
Q 22.3125 6.890625 25.984375 6.890625 
Q 35.75 6.890625 40.890625 13.453125 
Q 46.046875 20.015625 46.78125 33.40625 
Q 43.953125 29.203125 39.59375 26.953125 
Q 35.25 24.703125 29.984375 24.703125 
Q 19.046875 24.703125 12.671875 31.3125 
Q 6.296875 37.9375 6.296875 49.421875 
Q 6.296875 60.640625 12.9375 67.421875 
Q 19.578125 74.21875 30.609375 74.21875 
Q 43.265625 74.21875 49.921875 64.515625 
Q 56.59375 54.828125 56.59375 36.375 
Q 56.59375 19.140625 48.40625 8.859375 
Q 40.234375 -1.421875 26.421875 -1.421875 
Q 22.703125 -1.421875 18.890625 -0.6875 
Q 15.09375 0.046875 10.984375 1.515625 
z
M 30.609375 32.421875 
Q 37.25 32.421875 41.125 36.953125 
Q 45.015625 41.5 45.015625 49.421875 
Q 45.015625 57.28125 41.125 61.84375 
Q 37.25 66.40625 30.609375 66.40625 
Q 23.96875 66.40625 20.09375 61.84375 
Q 16.21875 57.28125 16.21875 49.421875 
Q 16.21875 41.5 20.09375 36.953125 
Q 23.96875 32.421875 30.609375 32.421875 
z
" id="DejaVuSans-57"/>
       </defs>
       <use xlink:href="#DejaVuSans-48"/>
       <use x="63.623047" xlink:href="#DejaVuSans-57"/>
       <use x="127.246094" xlink:href="#DejaVuSans-45"/>
       <use x="163.330078" xlink:href="#DejaVuSans-48"/>
       <use x="226.953125" xlink:href="#DejaVuSans-53"/>
       <use x="290.576172" xlink:href="#DejaVuSans-45"/>
       <use x="326.660156" xlink:href="#DejaVuSans-50"/>
       <use x="390.283203" xlink:href="#DejaVuSans-48"/>
      </g>
     </g>
    </g>
    <g id="xtick_4">
     <g id="line2d_4">
      <g>
       <use style="stroke:#000000;stroke-width:0.8;" x="197.409391" xlink:href="#md4d431b9f7" y="292.790464"/>
      </g>
     </g>
     <g id="text_4">
      <!-- 13-05-20 -->
      <g transform="translate(157.060113 329.066216)rotate(-30)scale(0.1 -0.1)">
       <defs>
        <path d="M 40.578125 39.3125 
Q 47.65625 37.796875 51.625 33 
Q 55.609375 28.21875 55.609375 21.1875 
Q 55.609375 10.40625 48.1875 4.484375 
Q 40.765625 -1.421875 27.09375 -1.421875 
Q 22.515625 -1.421875 17.65625 -0.515625 
Q 12.796875 0.390625 7.625 2.203125 
L 7.625 11.71875 
Q 11.71875 9.328125 16.59375 8.109375 
Q 21.484375 6.890625 26.8125 6.890625 
Q 36.078125 6.890625 40.9375 10.546875 
Q 45.796875 14.203125 45.796875 21.1875 
Q 45.796875 27.640625 41.28125 31.265625 
Q 36.765625 34.90625 28.71875 34.90625 
L 20.21875 34.90625 
L 20.21875 43.015625 
L 29.109375 43.015625 
Q 36.375 43.015625 40.234375 45.921875 
Q 44.09375 48.828125 44.09375 54.296875 
Q 44.09375 59.90625 40.109375 62.90625 
Q 36.140625 65.921875 28.71875 65.921875 
Q 24.65625 65.921875 20.015625 65.03125 
Q 15.375 64.15625 9.8125 62.3125 
L 9.8125 71.09375 
Q 15.4375 72.65625 20.34375 73.4375 
Q 25.25 74.21875 29.59375 74.21875 
Q 40.828125 74.21875 47.359375 69.109375 
Q 53.90625 64.015625 53.90625 55.328125 
Q 53.90625 49.265625 50.4375 45.09375 
Q 46.96875 40.921875 40.578125 39.3125 
z
" id="DejaVuSans-51"/>
       </defs>
       <use xlink:href="#DejaVuSans-49"/>
       <use x="63.623047" xlink:href="#DejaVuSans-51"/>
       <use x="127.246094" xlink:href="#DejaVuSans-45"/>
       <use x="163.330078" xlink:href="#DejaVuSans-48"/>
       <use x="226.953125" xlink:href="#DejaVuSans-53"/>
       <use x="290.576172" xlink:href="#DejaVuSans-45"/>
       <use x="326.660156" xlink:href="#DejaVuSans-50"/>
       <use x="390.283203" xlink:href="#DejaVuSans-48"/>
      </g>
     </g>
    </g>
    <g id="xtick_5">
     <g id="line2d_5">
      <g>
       <use style="stroke:#000000;stroke-width:0.8;" x="245.858658" xlink:href="#md4d431b9f7" y="292.790464"/>
      </g>
     </g>
     <g id="text_5">
      <!-- 17-05-20 -->
      <g transform="translate(205.50938 329.066216)rotate(-30)scale(0.1 -0.1)">
       <defs>
        <path d="M 8.203125 72.90625 
L 55.078125 72.90625 
L 55.078125 68.703125 
L 28.609375 0 
L 18.3125 0 
L 43.21875 64.59375 
L 8.203125 64.59375 
z
" id="DejaVuSans-55"/>
       </defs>
       <use xlink:href="#DejaVuSans-49"/>
       <use x="63.623047" xlink:href="#DejaVuSans-55"/>
       <use x="127.246094" xlink:href="#DejaVuSans-45"/>
       <use x="163.330078" xlink:href="#DejaVuSans-48"/>
       <use x="226.953125" xlink:href="#DejaVuSans-53"/>
       <use x="290.576172" xlink:href="#DejaVuSans-45"/>
       <use x="326.660156" xlink:href="#DejaVuSans-50"/>
       <use x="390.283203" xlink:href="#DejaVuSans-48"/>
      </g>
     </g>
    </g>
    <g id="xtick_6">
     <g id="line2d_6">
      <g>
       <use style="stroke:#000000;stroke-width:0.8;" x="294.307925" xlink:href="#md4d431b9f7" y="292.790464"/>
      </g>
     </g>
     <g id="text_6">
      <!-- 21-05-20 -->
      <g transform="translate(253.958647 329.066216)rotate(-30)scale(0.1 -0.1)">
       <use xlink:href="#DejaVuSans-50"/>
       <use x="63.623047" xlink:href="#DejaVuSans-49"/>
       <use x="127.246094" xlink:href="#DejaVuSans-45"/>
       <use x="163.330078" xlink:href="#DejaVuSans-48"/>
       <use x="226.953125" xlink:href="#DejaVuSans-53"/>
       <use x="290.576172" xlink:href="#DejaVuSans-45"/>
       <use x="326.660156" xlink:href="#DejaVuSans-50"/>
       <use x="390.283203" xlink:href="#DejaVuSans-48"/>
      </g>
     </g>
    </g>
    <g id="xtick_7">
     <g id="line2d_7">
      <g>
       <use style="stroke:#000000;stroke-width:0.8;" x="342.757192" xlink:href="#md4d431b9f7" y="292.790464"/>
      </g>
     </g>
     <g id="text_7">
      <!-- 25-05-20 -->
      <g transform="translate(302.407914 329.066216)rotate(-30)scale(0.1 -0.1)">
       <use xlink:href="#DejaVuSans-50"/>
       <use x="63.623047" xlink:href="#DejaVuSans-53"/>
       <use x="127.246094" xlink:href="#DejaVuSans-45"/>
       <use x="163.330078" xlink:href="#DejaVuSans-48"/>
       <use x="226.953125" xlink:href="#DejaVuSans-53"/>
       <use x="290.576172" xlink:href="#DejaVuSans-45"/>
       <use x="326.660156" xlink:href="#DejaVuSans-50"/>
       <use x="390.283203" xlink:href="#DejaVuSans-48"/>
      </g>
     </g>
    </g>
    <g id="xtick_8">
     <g id="line2d_8">
      <g>
       <use style="stroke:#000000;stroke-width:0.8;" x="391.206459" xlink:href="#md4d431b9f7" y="292.790464"/>
      </g>
     </g>
     <g id="text_8">
      <!-- 29-05-20 -->
      <g transform="translate(350.857181 329.066216)rotate(-30)scale(0.1 -0.1)">
       <use xlink:href="#DejaVuSans-50"/>
       <use x="63.623047" xlink:href="#DejaVuSans-57"/>
       <use x="127.246094" xlink:href="#DejaVuSans-45"/>
       <use x="163.330078" xlink:href="#DejaVuSans-48"/>
       <use x="226.953125" xlink:href="#DejaVuSans-53"/>
       <use x="290.576172" xlink:href="#DejaVuSans-45"/>
       <use x="326.660156" xlink:href="#DejaVuSans-50"/>
       <use x="390.283203" xlink:href="#DejaVuSans-48"/>
      </g>
     </g>
    </g>
    <g id="xtick_9">
     <g id="line2d_9">
      <g>
       <use style="stroke:#000000;stroke-width:0.8;" x="427.543409" xlink:href="#md4d431b9f7" y="292.790464"/>
      </g>
     </g>
     <g id="text_9">
      <!-- 01-06-20 -->
      <g transform="translate(387.194131 329.066216)rotate(-30)scale(0.1 -0.1)">
       <defs>
        <path d="M 33.015625 40.375 
Q 26.375 40.375 22.484375 35.828125 
Q 18.609375 31.296875 18.609375 23.390625 
Q 18.609375 15.53125 22.484375 10.953125 
Q 26.375 6.390625 33.015625 6.390625 
Q 39.65625 6.390625 43.53125 10.953125 
Q 47.40625 15.53125 47.40625 23.390625 
Q 47.40625 31.296875 43.53125 35.828125 
Q 39.65625 40.375 33.015625 40.375 
z
M 52.59375 71.296875 
L 52.59375 62.3125 
Q 48.875 64.0625 45.09375 64.984375 
Q 41.3125 65.921875 37.59375 65.921875 
Q 27.828125 65.921875 22.671875 59.328125 
Q 17.53125 52.734375 16.796875 39.40625 
Q 19.671875 43.65625 24.015625 45.921875 
Q 28.375 48.1875 33.59375 48.1875 
Q 44.578125 48.1875 50.953125 41.515625 
Q 57.328125 34.859375 57.328125 23.390625 
Q 57.328125 12.15625 50.6875 5.359375 
Q 44.046875 -1.421875 33.015625 -1.421875 
Q 20.359375 -1.421875 13.671875 8.265625 
Q 6.984375 17.96875 6.984375 36.375 
Q 6.984375 53.65625 15.1875 63.9375 
Q 23.390625 74.21875 37.203125 74.21875 
Q 40.921875 74.21875 44.703125 73.484375 
Q 48.484375 72.75 52.59375 71.296875 
z
" id="DejaVuSans-54"/>
       </defs>
       <use xlink:href="#DejaVuSans-48"/>
       <use x="63.623047" xlink:href="#DejaVuSans-49"/>
       <use x="127.246094" xlink:href="#DejaVuSans-45"/>
       <use x="163.330078" xlink:href="#DejaVuSans-48"/>
       <use x="226.953125" xlink:href="#DejaVuSans-54"/>
       <use x="290.576172" xlink:href="#DejaVuSans-45"/>
       <use x="326.660156" xlink:href="#DejaVuSans-50"/>
       <use x="390.283203" xlink:href="#DejaVuSans-48"/>
      </g>
     </g>
    </g>
   </g>
   <g id="matplotlib.axis_2">
    <g id="ytick_1">
     <g id="line2d_10">
      <defs>
       <path d="M 0 0 
L -3.5 0 
" id="m1a2d8b23e2" style="stroke:#000000;stroke-width:0.8;"/>
      </defs>
      <g>
       <use style="stroke:#000000;stroke-width:0.8;" x="33.2875" xlink:href="#m1a2d8b23e2" y="268.233001"/>
      </g>
     </g>
     <g id="text_10">
      <!-- 0 -->
      <g transform="translate(19.925 272.03222)scale(0.1 -0.1)">
       <use xlink:href="#DejaVuSans-48"/>
      </g>
     </g>
    </g>
    <g id="ytick_2">
     <g id="line2d_11">
      <g>
       <use style="stroke:#000000;stroke-width:0.8;" x="33.2875" xlink:href="#m1a2d8b23e2" y="223.868653"/>
      </g>
     </g>
     <g id="text_11">
      <!-- 50 -->
      <g transform="translate(13.5625 227.667871)scale(0.1 -0.1)">
       <use xlink:href="#DejaVuSans-53"/>
       <use x="63.623047" xlink:href="#DejaVuSans-48"/>
      </g>
     </g>
    </g>
    <g id="ytick_3">
     <g id="line2d_12">
      <g>
       <use style="stroke:#000000;stroke-width:0.8;" x="33.2875" xlink:href="#m1a2d8b23e2" y="179.504304"/>
      </g>
     </g>
     <g id="text_12">
      <!-- 100 -->
      <g transform="translate(7.2 183.303523)scale(0.1 -0.1)">
       <use xlink:href="#DejaVuSans-49"/>
       <use x="63.623047" xlink:href="#DejaVuSans-48"/>
       <use x="127.246094" xlink:href="#DejaVuSans-48"/>
      </g>
     </g>
    </g>
    <g id="ytick_4">
     <g id="line2d_13">
      <g>
       <use style="stroke:#000000;stroke-width:0.8;" x="33.2875" xlink:href="#m1a2d8b23e2" y="135.139956"/>
      </g>
     </g>
     <g id="text_13">
      <!-- 150 -->
      <g transform="translate(7.2 138.939175)scale(0.1 -0.1)">
       <use xlink:href="#DejaVuSans-49"/>
       <use x="63.623047" xlink:href="#DejaVuSans-53"/>
       <use x="127.246094" xlink:href="#DejaVuSans-48"/>
      </g>
     </g>
    </g>
    <g id="ytick_5">
     <g id="line2d_14">
      <g>
       <use style="stroke:#000000;stroke-width:0.8;" x="33.2875" xlink:href="#m1a2d8b23e2" y="90.775608"/>
      </g>
     </g>
     <g id="text_14">
      <!-- 200 -->
      <g transform="translate(7.2 94.574827)scale(0.1 -0.1)">
       <use xlink:href="#DejaVuSans-50"/>
       <use x="63.623047" xlink:href="#DejaVuSans-48"/>
       <use x="127.246094" xlink:href="#DejaVuSans-48"/>
      </g>
     </g>
    </g>
    <g id="ytick_6">
     <g id="line2d_15">
      <g>
       <use style="stroke:#000000;stroke-width:0.8;" x="33.2875" xlink:href="#m1a2d8b23e2" y="46.41126"/>
      </g>
     </g>
     <g id="text_15">
      <!-- 250 -->
      <g transform="translate(7.2 50.210479)scale(0.1 -0.1)">
       <use xlink:href="#DejaVuSans-50"/>
       <use x="63.623047" xlink:href="#DejaVuSans-53"/>
       <use x="127.246094" xlink:href="#DejaVuSans-48"/>
      </g>
     </g>
    </g>
   </g>
   <g id="line2d_16">
    <path clip-path="url(#pa01178756d)" d="M 52.061591 268.233001 
L 55.08967 268.233001 
L 55.59435 262.382162 
L 56.09903 268.233001 
L 60.136469 268.233001 
L 61.650508 250.680485 
L 62.155188 238.978808 
L 62.659868 268.233001 
L 66.192627 268.233001 
L 66.697307 51.751974 
L 67.201987 215.575454 
L 67.706667 238.978808 
L 68.211347 268.233001 
L 68.716026 238.978808 
L 69.220706 256.531324 
L 69.725386 250.680485 
L 70.230066 198.022938 
L 70.734746 250.680485 
L 71.239426 268.233001 
L 71.744106 268.233001 
L 72.753465 256.531324 
L 73.258145 233.127969 
L 73.762825 256.531324 
L 74.267505 268.233001 
L 87.893861 268.233001 
L 88.903221 256.531324 
L 89.407901 256.531324 
L 89.912581 268.233001 
L 105.557656 268.233001 
L 106.062336 262.382162 
L 106.567016 227.277131 
L 107.071696 268.233001 
L 108.081056 244.829647 
L 108.585736 268.233001 
L 152.492884 268.233001 
L 152.997564 244.829647 
L 153.502243 268.233001 
L 164.100521 268.233001 
L 164.6052 233.127969 
L 165.10988 92.707844 
L 166.11924 268.233001 
L 176.212837 268.233001 
L 176.717517 262.382162 
L 177.222197 268.233001 
L 177.726877 262.382162 
L 178.231557 268.233001 
L 181.764316 268.233001 
L 182.268996 227.277131 
L 182.773675 256.531324 
L 183.278355 268.233001 
L 183.783035 238.978808 
L 184.287715 198.022938 
L 184.792395 192.172099 
L 185.297075 227.277131 
L 185.801755 238.978808 
L 186.306435 244.829647 
L 186.811114 262.382162 
L 187.315794 268.233001 
L 200.437471 268.233001 
L 200.942151 262.382162 
L 201.44683 268.233001 
L 201.95151 262.382162 
L 202.45619 192.172099 
L 202.96087 268.233001 
L 203.46555 268.233001 
L 203.97023 262.382162 
L 204.47491 262.382162 
L 204.979589 268.233001 
L 205.484269 256.531324 
L 205.988949 268.233001 
L 210.026388 268.233001 
L 210.531068 233.127969 
L 211.035748 180.470422 
L 211.540428 221.426292 
L 212.045108 168.768745 
L 212.549787 221.426292 
L 213.054467 238.978808 
L 213.559147 262.382162 
L 214.063827 268.233001 
L 323.074677 268.233001 
L 323.579357 256.531324 
L 324.084037 209.724615 
L 324.588717 268.233001 
L 325.093397 268.233001 
L 325.598077 81.006167 
L 326.102757 168.768745 
L 326.607436 139.514552 
L 327.112116 192.172099 
L 327.616796 192.172099 
L 328.121476 174.619584 
L 328.626156 256.531324 
L 329.130836 250.680485 
L 329.635516 268.233001 
L 387.16902 268.233001 
L 387.6737 262.382162 
L 388.17838 268.233001 
L 427.543409 268.233001 
L 427.543409 268.233001 
" style="fill:none;stroke:#1a3bff;stroke-linecap:square;stroke-width:0.75;"/>
   </g>
   <g id="line2d_17">
    <path clip-path="url(#pa01178756d)" d="M 52.566271 268.199492 
L 53.070951 267.421754 
L 53.57563 267.656708 
L 54.08031 267.580667 
L 55.08967 267.67614 
L 55.59435 262.080021 
L 56.09903 268.160509 
L 56.60371 267.801602 
L 57.613069 267.569221 
L 59.127109 267.44322 
L 59.631789 267.360084 
L 60.136469 267.157299 
L 60.641149 260.883286 
L 61.145828 258.215766 
L 61.650508 248.843411 
L 62.155188 243.940172 
L 62.659868 268.295729 
L 63.164548 268.249378 
L 63.669228 267.92493 
L 64.173908 267.453438 
L 64.678587 267.281745 
L 66.192627 267.253341 
L 66.697307 20.181385 
L 67.201987 225.393952 
L 67.706667 244.440704 
L 68.211347 268.307336 
L 68.716026 244.386514 
L 69.220706 258.68775 
L 69.725386 253.853518 
L 70.230066 209.996271 
L 70.734746 254.023886 
L 71.239426 268.292519 
L 71.744106 268.272607 
L 72.753465 258.529683 
L 73.258145 238.787326 
L 73.762825 258.81475 
L 74.267505 268.278148 
L 75.276865 268.067078 
L 78.809624 267.911019 
L 80.323663 267.877566 
L 83.856422 268.188205 
L 85.875142 268.046416 
L 87.893861 267.925911 
L 88.903221 258.743738 
L 89.407901 258.133414 
L 89.912581 268.292081 
L 90.417261 268.197778 
L 90.92194 267.839249 
L 91.9313 267.770623 
L 93.95002 267.92543 
L 94.454699 268.078879 
L 94.959379 268.103723 
L 95.968739 268.270871 
L 97.482779 268.137174 
L 100.006178 267.945254 
L 105.557656 268.008783 
L 106.062336 262.985408 
L 106.567016 233.031484 
L 107.071696 268.304425 
L 108.081056 250.301947 
L 108.585736 268.314496 
L 110.099775 268.304836 
L 112.118495 268.065836 
L 113.632534 267.991925 
L 116.660613 268.036822 
L 119.184013 268.410074 
L 120.698052 268.464595 
L 122.716772 268.254029 
L 124.230811 268.140191 
L 128.77293 268.12555 
L 130.79165 268.526825 
L 133.315049 268.568307 
L 134.829088 268.402891 
L 135.838448 268.266097 
L 140.380567 268.184821 
L 141.389927 268.334418 
L 142.903966 268.666884 
L 144.922686 268.758718 
L 149.464804 268.264056 
L 152.492884 268.23797 
L 152.997564 250.3784 
L 153.502243 268.301383 
L 154.511603 268.660673 
L 155.016283 268.706191 
L 155.520963 268.614002 
L 156.025643 268.867322 
L 157.539682 268.851174 
L 160.063082 268.399456 
L 164.100521 268.35447 
L 164.6052 244.501451 
L 165.10988 143.884243 
L 166.11924 268.301609 
L 169.651999 268.307283 
L 170.661359 268.53317 
L 172.680078 268.362811 
L 176.212837 268.359617 
L 176.717517 264.408747 
L 177.222197 268.355535 
L 177.726877 264.430304 
L 178.231557 268.437875 
L 178.736237 268.468575 
L 179.745596 268.914437 
L 180.754956 268.546213 
L 181.764316 268.496348 
L 182.268996 241.23778 
L 182.773675 260.569852 
L 183.278355 268.302097 
L 183.783035 248.968144 
L 184.287715 221.801153 
L 184.792395 217.727796 
L 185.297075 241.079948 
L 185.801755 248.843819 
L 186.306435 252.727264 
L 186.811114 264.40995 
L 187.315794 268.303353 
L 200.437471 268.337503 
L 200.942151 264.449535 
L 201.44683 268.349502 
L 201.95151 264.503608 
L 202.45619 217.383831 
L 202.96087 268.3037 
L 203.46555 268.30175 
L 203.97023 264.494124 
L 204.47491 264.498332 
L 204.979589 268.303681 
L 205.484269 260.703199 
L 205.988949 268.313721 
L 209.521708 268.366804 
L 210.026388 268.361924 
L 210.531068 245.577855 
L 211.035748 211.007618 
L 211.540428 237.873366 
L 212.045108 203.152259 
L 212.549787 237.724534 
L 213.054467 249.176817 
L 213.559147 264.480191 
L 214.063827 268.305503 
L 230.213583 268.350211 
L 231.727622 268.375854 
L 235.260381 268.322525 
L 237.783781 268.399615 
L 238.79314 268.69998 
L 239.8025 269.004408 
L 240.81186 269.244242 
L 241.821219 269.253913 
L 243.335259 268.894296 
L 244.344619 268.472036 
L 246.363338 268.381533 
L 249.391417 268.377806 
L 250.400777 268.744788 
L 251.914817 269.558874 
L 252.924176 269.801635 
L 253.933536 269.783623 
L 254.942896 269.528972 
L 255.447576 269.320371 
L 256.456935 268.614445 
L 257.466295 268.494839 
L 261.503734 268.419242 
L 262.008414 268.635652 
L 264.531813 270.248118 
L 265.036493 270.455034 
L 265.541173 270.514748 
L 266.550533 270.279972 
L 267.055213 270.020263 
L 268.569252 268.667949 
L 271.092652 268.483304 
L 273.616051 268.473101 
L 274.120731 268.807785 
L 276.13945 270.685817 
L 277.14881 271.170276 
L 278.15817 270.438619 
L 278.662849 270.849521 
L 279.167529 270.461422 
L 279.672209 269.632075 
L 280.681569 269.048063 
L 281.690929 268.901483 
L 282.700288 268.761824 
L 285.728368 268.6337 
L 286.737727 269.0029 
L 287.242407 269.612466 
L 287.747087 269.639706 
L 288.251767 270.06791 
L 288.756447 271.503274 
L 289.261127 271.634415 
L 289.765806 271.28793 
L 290.775166 270.934346 
L 291.279846 270.055133 
L 291.784526 269.738549 
L 292.289206 269.627727 
L 292.793886 268.986307 
L 293.298565 268.714443 
L 297.840684 268.585609 
L 298.345364 269.086038 
L 300.364084 272.010802 
L 300.868763 272.24132 
L 301.373443 271.928995 
L 302.382803 272.742193 
L 302.887483 272.342648 
L 303.392163 271.727226 
L 303.896843 270.933104 
L 304.906202 268.880099 
L 305.410882 268.894562 
L 305.915562 268.731834 
L 309.953001 268.677088 
L 310.457681 269.235546 
L 311.467041 271.265481 
L 311.97172 271.481979 
L 312.4764 272.779459 
L 312.98108 271.098405 
L 313.48576 271.523061 
L 313.99044 273.680943 
L 314.49512 273.41174 
L 314.9998 272.889749 
L 315.504479 270.719445 
L 316.009159 270.426552 
L 317.523199 268.937329 
L 318.532559 268.810358 
L 319.037239 269.098815 
L 320.046598 269.103784 
L 320.551278 269.021089 
L 321.055958 268.802905 
L 321.560638 268.768745 
L 322.065318 268.88143 
L 323.074677 269.433323 
L 323.579357 262.506451 
L 324.084037 237.727097 
L 324.588717 268.300862 
L 325.093397 270.797083 
L 325.598077 170.08227 
L 326.102757 215.723715 
L 326.607436 199.790977 
L 327.112116 227.611603 
L 327.616796 227.44668 
L 328.121476 217.775719 
L 328.626156 261.977591 
L 329.130836 258.809246 
L 329.635516 268.304679 
L 346.289951 268.332022 
L 347.803991 268.494218 
L 348.308671 268.56458 
L 348.81335 268.785958 
L 349.82271 268.765373 
L 351.33675 269.182487 
L 352.346109 269.449028 
L 352.850789 269.230755 
L 353.355469 268.832186 
L 354.869509 268.695189 
L 357.897588 268.689687 
L 358.402268 268.702642 
L 358.906948 269.245307 
L 359.411628 269.973237 
L 360.420987 271.705842 
L 360.925667 272.37601 
L 361.430347 273.791232 
L 361.935027 274.622798 
L 362.439707 273.917405 
L 362.944387 274.297075 
L 363.449066 273.135439 
L 363.953746 272.838641 
L 364.458426 272.350101 
L 365.467786 270.017778 
L 365.972466 269.365978 
L 366.981826 269.09713 
L 368.495865 269.028454 
L 370.009905 268.922512 
L 370.514585 268.977435 
L 371.019264 269.996839 
L 372.028624 273.114055 
L 372.533304 274.626347 
L 373.542664 276.382732 
L 374.047344 276.737469 
L 374.552023 276.803217 
L 375.056703 276.542354 
L 375.561383 275.868371 
L 376.570743 273.491773 
L 377.075423 271.634593 
L 377.580103 270.274737 
L 378.084783 269.57591 
L 379.094142 269.225165 
L 380.103502 269.110439 
L 382.122221 269.0517 
L 382.626901 269.226673 
L 383.131581 269.537313 
L 383.636261 270.198164 
L 384.140941 273.02435 
L 385.150301 276.277765 
L 385.65498 274.18856 
L 386.15966 275.549214 
L 386.66434 276.569506 
L 387.16902 274.568052 
L 387.6737 269.493747 
L 388.17838 273.521142 
L 388.68306 273.101899 
L 389.187739 272.380446 
L 390.197099 270.007308 
L 390.701779 269.612909 
L 391.206459 269.554881 
L 391.711139 269.782736 
L 392.215819 270.269147 
L 393.225178 269.519301 
L 394.234538 269.471653 
L 394.739218 269.603859 
L 395.243898 270.786701 
L 395.748578 272.585321 
L 397.262617 276.282024 
L 397.767297 276.912442 
L 398.271977 276.914838 
L 398.776657 277.341712 
L 399.281337 278.009749 
L 400.795376 274.425732 
L 401.804736 270.874632 
L 402.309416 270.26267 
L 402.814096 270.135433 
L 403.318776 269.800837 
L 403.823456 269.641746 
L 404.328135 269.758691 
L 406.851535 269.716545 
L 407.356215 271.034077 
L 408.870254 276.614579 
L 409.879614 279.014602 
L 410.384294 278.87379 
L 410.888974 276.410681 
L 411.393653 275.409644 
L 411.898333 276.496659 
L 412.907693 274.624395 
L 413.917053 270.817313 
L 414.421733 269.947328 
L 414.926413 269.702171 
L 415.431092 269.707849 
L 416.440452 269.492948 
L 418.459172 269.4028 
L 418.963851 269.507943 
L 419.468531 270.917842 
L 421.487251 278.712126 
L 421.991931 279.242369 
L 422.49661 279.599502 
L 423.00129 279.809079 
L 423.50597 279.103154 
L 424.51533 276.952369 
L 426.534049 270.424422 
L 427.038729 270.272696 
L 427.543409 270.307034 
L 427.543409 270.307034 
" style="fill:none;stroke:#e74c3c;stroke-linecap:square;stroke-width:0.75;"/>
   </g>
   <g id="patch_3">
    <path d="M 33.2875 292.790464 
L 33.2875 7.2 
" style="fill:none;stroke:#000000;stroke-linecap:square;stroke-linejoin:miter;stroke-width:0.8;"/>
   </g>
   <g id="patch_4">
    <path d="M 446.3175 292.790464 
L 446.3175 7.2 
" style="fill:none;stroke:#000000;stroke-linecap:square;stroke-linejoin:miter;stroke-width:0.8;"/>
   </g>
   <g id="patch_5">
    <path d="M 33.2875 292.790464 
L 446.3175 292.790464 
" style="fill:none;stroke:#000000;stroke-linecap:square;stroke-linejoin:miter;stroke-width:0.8;"/>
   </g>
   <g id="patch_6">
    <path d="M 33.2875 7.2 
L 446.3175 7.2 
" style="fill:none;stroke:#000000;stroke-linecap:square;stroke-linejoin:miter;stroke-width:0.8;"/>
   </g>
   <g id="legend_1">
    <g id="patch_7">
     <path d="M 239.4175 49.6 
L 439.3175 49.6 
Q 441.3175 49.6 441.3175 47.6 
L 441.3175 14.2 
Q 441.3175 12.2 439.3175 12.2 
L 239.4175 12.2 
Q 237.4175 12.2 237.4175 14.2 
L 237.4175 47.6 
Q 237.4175 49.6 239.4175 49.6 
z
" style="fill:#ffffff;opacity:0.8;stroke:#cccccc;stroke-linejoin:miter;"/>
    </g>
    <g id="line2d_18">
     <path d="M 241.4175 21.8 
L 261.4175 21.8 
" style="fill:none;stroke:#1a3bff;stroke-linecap:square;stroke-width:0.75;"/>
    </g>
    <g id="line2d_19"/>
    <g id="text_16">
     <!-- precipitation influx ($m^3$/$\delta t_{exchange}$) -->
     <g transform="translate(269.4175 25.3)scale(0.1 -0.1)">
      <defs>
       <path d="M 18.109375 8.203125 
L 18.109375 -20.796875 
L 9.078125 -20.796875 
L 9.078125 54.6875 
L 18.109375 54.6875 
L 18.109375 46.390625 
Q 20.953125 51.265625 25.265625 53.625 
Q 29.59375 56 35.59375 56 
Q 45.5625 56 51.78125 48.09375 
Q 58.015625 40.1875 58.015625 27.296875 
Q 58.015625 14.40625 51.78125 6.484375 
Q 45.5625 -1.421875 35.59375 -1.421875 
Q 29.59375 -1.421875 25.265625 0.953125 
Q 20.953125 3.328125 18.109375 8.203125 
z
M 48.6875 27.296875 
Q 48.6875 37.203125 44.609375 42.84375 
Q 40.53125 48.484375 33.40625 48.484375 
Q 26.265625 48.484375 22.1875 42.84375 
Q 18.109375 37.203125 18.109375 27.296875 
Q 18.109375 17.390625 22.1875 11.75 
Q 26.265625 6.109375 33.40625 6.109375 
Q 40.53125 6.109375 44.609375 11.75 
Q 48.6875 17.390625 48.6875 27.296875 
z
" id="DejaVuSans-112"/>
       <path d="M 41.109375 46.296875 
Q 39.59375 47.171875 37.8125 47.578125 
Q 36.03125 48 33.890625 48 
Q 26.265625 48 22.1875 43.046875 
Q 18.109375 38.09375 18.109375 28.8125 
L 18.109375 0 
L 9.078125 0 
L 9.078125 54.6875 
L 18.109375 54.6875 
L 18.109375 46.1875 
Q 20.953125 51.171875 25.484375 53.578125 
Q 30.03125 56 36.53125 56 
Q 37.453125 56 38.578125 55.875 
Q 39.703125 55.765625 41.0625 55.515625 
z
" id="DejaVuSans-114"/>
       <path d="M 56.203125 29.59375 
L 56.203125 25.203125 
L 14.890625 25.203125 
Q 15.484375 15.921875 20.484375 11.0625 
Q 25.484375 6.203125 34.421875 6.203125 
Q 39.59375 6.203125 44.453125 7.46875 
Q 49.3125 8.734375 54.109375 11.28125 
L 54.109375 2.78125 
Q 49.265625 0.734375 44.1875 -0.34375 
Q 39.109375 -1.421875 33.890625 -1.421875 
Q 20.796875 -1.421875 13.15625 6.1875 
Q 5.515625 13.8125 5.515625 26.8125 
Q 5.515625 40.234375 12.765625 48.109375 
Q 20.015625 56 32.328125 56 
Q 43.359375 56 49.78125 48.890625 
Q 56.203125 41.796875 56.203125 29.59375 
z
M 47.21875 32.234375 
Q 47.125 39.59375 43.09375 43.984375 
Q 39.0625 48.390625 32.421875 48.390625 
Q 24.90625 48.390625 20.390625 44.140625 
Q 15.875 39.890625 15.1875 32.171875 
z
" id="DejaVuSans-101"/>
       <path d="M 48.78125 52.59375 
L 48.78125 44.1875 
Q 44.96875 46.296875 41.140625 47.34375 
Q 37.3125 48.390625 33.40625 48.390625 
Q 24.65625 48.390625 19.8125 42.84375 
Q 14.984375 37.3125 14.984375 27.296875 
Q 14.984375 17.28125 19.8125 11.734375 
Q 24.65625 6.203125 33.40625 6.203125 
Q 37.3125 6.203125 41.140625 7.25 
Q 44.96875 8.296875 48.78125 10.40625 
L 48.78125 2.09375 
Q 45.015625 0.34375 40.984375 -0.53125 
Q 36.96875 -1.421875 32.421875 -1.421875 
Q 20.0625 -1.421875 12.78125 6.34375 
Q 5.515625 14.109375 5.515625 27.296875 
Q 5.515625 40.671875 12.859375 48.328125 
Q 20.21875 56 33.015625 56 
Q 37.15625 56 41.109375 55.140625 
Q 45.0625 54.296875 48.78125 52.59375 
z
" id="DejaVuSans-99"/>
       <path d="M 9.421875 54.6875 
L 18.40625 54.6875 
L 18.40625 0 
L 9.421875 0 
z
M 9.421875 75.984375 
L 18.40625 75.984375 
L 18.40625 64.59375 
L 9.421875 64.59375 
z
" id="DejaVuSans-105"/>
       <path d="M 18.3125 70.21875 
L 18.3125 54.6875 
L 36.8125 54.6875 
L 36.8125 47.703125 
L 18.3125 47.703125 
L 18.3125 18.015625 
Q 18.3125 11.328125 20.140625 9.421875 
Q 21.96875 7.515625 27.59375 7.515625 
L 36.8125 7.515625 
L 36.8125 0 
L 27.59375 0 
Q 17.1875 0 13.234375 3.875 
Q 9.28125 7.765625 9.28125 18.015625 
L 9.28125 47.703125 
L 2.6875 47.703125 
L 2.6875 54.6875 
L 9.28125 54.6875 
L 9.28125 70.21875 
z
" id="DejaVuSans-116"/>
       <path d="M 34.28125 27.484375 
Q 23.390625 27.484375 19.1875 25 
Q 14.984375 22.515625 14.984375 16.5 
Q 14.984375 11.71875 18.140625 8.90625 
Q 21.296875 6.109375 26.703125 6.109375 
Q 34.1875 6.109375 38.703125 11.40625 
Q 43.21875 16.703125 43.21875 25.484375 
L 43.21875 27.484375 
z
M 52.203125 31.203125 
L 52.203125 0 
L 43.21875 0 
L 43.21875 8.296875 
Q 40.140625 3.328125 35.546875 0.953125 
Q 30.953125 -1.421875 24.3125 -1.421875 
Q 15.921875 -1.421875 10.953125 3.296875 
Q 6 8.015625 6 15.921875 
Q 6 25.140625 12.171875 29.828125 
Q 18.359375 34.515625 30.609375 34.515625 
L 43.21875 34.515625 
L 43.21875 35.40625 
Q 43.21875 41.609375 39.140625 45 
Q 35.0625 48.390625 27.6875 48.390625 
Q 23 48.390625 18.546875 47.265625 
Q 14.109375 46.140625 10.015625 43.890625 
L 10.015625 52.203125 
Q 14.9375 54.109375 19.578125 55.046875 
Q 24.21875 56 28.609375 56 
Q 40.484375 56 46.34375 49.84375 
Q 52.203125 43.703125 52.203125 31.203125 
z
" id="DejaVuSans-97"/>
       <path d="M 30.609375 48.390625 
Q 23.390625 48.390625 19.1875 42.75 
Q 14.984375 37.109375 14.984375 27.296875 
Q 14.984375 17.484375 19.15625 11.84375 
Q 23.34375 6.203125 30.609375 6.203125 
Q 37.796875 6.203125 41.984375 11.859375 
Q 46.1875 17.53125 46.1875 27.296875 
Q 46.1875 37.015625 41.984375 42.703125 
Q 37.796875 48.390625 30.609375 48.390625 
z
M 30.609375 56 
Q 42.328125 56 49.015625 48.375 
Q 55.71875 40.765625 55.71875 27.296875 
Q 55.71875 13.875 49.015625 6.21875 
Q 42.328125 -1.421875 30.609375 -1.421875 
Q 18.84375 -1.421875 12.171875 6.21875 
Q 5.515625 13.875 5.515625 27.296875 
Q 5.515625 40.765625 12.171875 48.375 
Q 18.84375 56 30.609375 56 
z
" id="DejaVuSans-111"/>
       <path d="M 54.890625 33.015625 
L 54.890625 0 
L 45.90625 0 
L 45.90625 32.71875 
Q 45.90625 40.484375 42.875 44.328125 
Q 39.84375 48.1875 33.796875 48.1875 
Q 26.515625 48.1875 22.3125 43.546875 
Q 18.109375 38.921875 18.109375 30.90625 
L 18.109375 0 
L 9.078125 0 
L 9.078125 54.6875 
L 18.109375 54.6875 
L 18.109375 46.1875 
Q 21.34375 51.125 25.703125 53.5625 
Q 30.078125 56 35.796875 56 
Q 45.21875 56 50.046875 50.171875 
Q 54.890625 44.34375 54.890625 33.015625 
z
" id="DejaVuSans-110"/>
       <path id="DejaVuSans-32"/>
       <path d="M 37.109375 75.984375 
L 37.109375 68.5 
L 28.515625 68.5 
Q 23.6875 68.5 21.796875 66.546875 
Q 19.921875 64.59375 19.921875 59.515625 
L 19.921875 54.6875 
L 34.71875 54.6875 
L 34.71875 47.703125 
L 19.921875 47.703125 
L 19.921875 0 
L 10.890625 0 
L 10.890625 47.703125 
L 2.296875 47.703125 
L 2.296875 54.6875 
L 10.890625 54.6875 
L 10.890625 58.5 
Q 10.890625 67.625 15.140625 71.796875 
Q 19.390625 75.984375 28.609375 75.984375 
z
" id="DejaVuSans-102"/>
       <path d="M 9.421875 75.984375 
L 18.40625 75.984375 
L 18.40625 0 
L 9.421875 0 
z
" id="DejaVuSans-108"/>
       <path d="M 8.5 21.578125 
L 8.5 54.6875 
L 17.484375 54.6875 
L 17.484375 21.921875 
Q 17.484375 14.15625 20.5 10.265625 
Q 23.53125 6.390625 29.59375 6.390625 
Q 36.859375 6.390625 41.078125 11.03125 
Q 45.3125 15.671875 45.3125 23.6875 
L 45.3125 54.6875 
L 54.296875 54.6875 
L 54.296875 0 
L 45.3125 0 
L 45.3125 8.40625 
Q 42.046875 3.421875 37.71875 1 
Q 33.40625 -1.421875 27.6875 -1.421875 
Q 18.265625 -1.421875 13.375 4.4375 
Q 8.5 10.296875 8.5 21.578125 
z
M 31.109375 56 
z
" id="DejaVuSans-117"/>
       <path d="M 54.890625 54.6875 
L 35.109375 28.078125 
L 55.90625 0 
L 45.3125 0 
L 29.390625 21.484375 
L 13.484375 0 
L 2.875 0 
L 24.125 28.609375 
L 4.6875 54.6875 
L 15.28125 54.6875 
L 29.78125 35.203125 
L 44.28125 54.6875 
z
" id="DejaVuSans-120"/>
       <path d="M 31 75.875 
Q 24.46875 64.65625 21.28125 53.65625 
Q 18.109375 42.671875 18.109375 31.390625 
Q 18.109375 20.125 21.3125 9.0625 
Q 24.515625 -2 31 -13.1875 
L 23.1875 -13.1875 
Q 15.875 -1.703125 12.234375 9.375 
Q 8.59375 20.453125 8.59375 31.390625 
Q 8.59375 42.28125 12.203125 53.3125 
Q 15.828125 64.359375 23.1875 75.875 
z
" id="DejaVuSans-40"/>
       <path d="M 89.796875 33.015625 
L 83.40625 0 
L 74.421875 0 
L 80.71875 32.71875 
Q 81.109375 34.8125 81.296875 36.328125 
Q 81.5 37.84375 81.5 38.921875 
Q 81.5 43.3125 79.046875 45.75 
Q 76.609375 48.1875 72.21875 48.1875 
Q 65.671875 48.1875 60.546875 43.28125 
Q 55.421875 38.375 53.90625 30.515625 
L 47.90625 0 
L 38.921875 0 
L 45.3125 32.71875 
Q 45.703125 34.515625 45.890625 36.046875 
Q 46.09375 37.59375 46.09375 38.8125 
Q 46.09375 43.265625 43.65625 45.71875 
Q 41.21875 48.1875 36.921875 48.1875 
Q 30.28125 48.1875 25.140625 43.28125 
Q 20.015625 38.375 18.5 30.515625 
L 12.5 0 
L 3.515625 0 
L 14.203125 54.6875 
L 23.1875 54.6875 
L 21.484375 46.1875 
Q 25.140625 50.984375 30.046875 53.484375 
Q 34.96875 56 40.578125 56 
Q 46.53125 56 50.359375 52.875 
Q 54.203125 49.75 54.984375 44.1875 
Q 59.078125 49.953125 64.46875 52.96875 
Q 69.875 56 75.875 56 
Q 82.90625 56 86.734375 51.953125 
Q 90.578125 47.90625 90.578125 40.484375 
Q 90.578125 38.875 90.375 36.9375 
Q 90.1875 35.015625 89.796875 33.015625 
z
" id="DejaVuSans-Oblique-109"/>
       <path d="M 25.390625 72.90625 
L 33.6875 72.90625 
L 8.296875 -9.28125 
L 0 -9.28125 
z
" id="DejaVuSans-47"/>
       <path d="M 54.25 63.328125 
Q 49.953125 66.75 38.28125 66.75 
Q 25.921875 66.75 24.8125 61.03125 
Q 23.921875 56.546875 36.375 54.203125 
Q 46.140625 52.390625 50.828125 46.921875 
Q 56.5 40.328125 53.859375 26.8125 
Q 51.3125 13.875 43.171875 6.25 
Q 34.96875 -1.421875 23.25 -1.421875 
Q 11.578125 -1.421875 6.34375 6.25 
Q 1.125 13.875 3.765625 27.296875 
Q 5.671875 37.25 13.921875 45.3125 
Q 17.140625 48.4375 21.140625 50.203125 
Q 14.265625 54.046875 15.625 60.9375 
Q 18.21875 74.21875 39.75 74.21875 
Q 50.53125 74.21875 55.71875 70.796875 
z
M 27.390625 47.75 
Q 23.828125 46.34375 20.40625 42.78125 
Q 15.140625 37.25 13.234375 27.296875 
Q 11.28125 17.390625 14.359375 11.8125 
Q 17.484375 6.203125 24.75 6.203125 
Q 31.9375 6.203125 37.203125 11.859375 
Q 42.53125 17.53125 44.34375 26.8125 
Q 46.1875 36.53125 42.671875 41.21875 
Q 38.921875 46.234375 32.859375 46.78125 
Q 29.78125 47.078125 27.390625 47.75 
z
" id="DejaVuSans-Oblique-948"/>
       <path d="M 42.28125 54.6875 
L 40.921875 47.703125 
L 23 47.703125 
L 17.1875 18.015625 
Q 16.890625 16.359375 16.75 15.234375 
Q 16.609375 14.109375 16.609375 13.484375 
Q 16.609375 10.359375 18.484375 8.9375 
Q 20.359375 7.515625 24.515625 7.515625 
L 33.59375 7.515625 
L 32.078125 0 
L 23.484375 0 
Q 15.484375 0 11.546875 3.125 
Q 7.625 6.25 7.625 12.59375 
Q 7.625 13.71875 7.765625 15.0625 
Q 7.90625 16.40625 8.203125 18.015625 
L 14.015625 47.703125 
L 6.390625 47.703125 
L 7.8125 54.6875 
L 15.28125 54.6875 
L 18.3125 70.21875 
L 27.296875 70.21875 
L 24.3125 54.6875 
z
" id="DejaVuSans-Oblique-116"/>
       <path d="M 48.09375 32.234375 
Q 48.25 33.015625 48.3125 33.84375 
Q 48.390625 34.671875 48.390625 35.5 
Q 48.390625 41.453125 44.890625 44.921875 
Q 41.40625 48.390625 35.40625 48.390625 
Q 28.71875 48.390625 23.578125 44.15625 
Q 18.453125 39.9375 15.828125 32.171875 
z
M 55.90625 25.203125 
L 14.109375 25.203125 
Q 13.8125 23.34375 13.71875 22.265625 
Q 13.625 21.1875 13.625 20.40625 
Q 13.625 13.625 17.796875 9.90625 
Q 21.96875 6.203125 29.59375 6.203125 
Q 35.453125 6.203125 40.671875 7.515625 
Q 45.90625 8.84375 50.390625 11.375 
L 48.6875 2.484375 
Q 43.84375 0.53125 38.6875 -0.4375 
Q 33.546875 -1.421875 28.21875 -1.421875 
Q 16.84375 -1.421875 10.71875 4.015625 
Q 4.59375 9.46875 4.59375 19.484375 
Q 4.59375 28.03125 7.640625 35.375 
Q 10.6875 42.71875 16.609375 48.484375 
Q 20.40625 52.09375 25.65625 54.046875 
Q 30.90625 56 36.8125 56 
Q 46.09375 56 51.578125 50.4375 
Q 57.078125 44.875 57.078125 35.5 
Q 57.078125 33.25 56.78125 30.6875 
Q 56.5 28.125 55.90625 25.203125 
z
" id="DejaVuSans-Oblique-101"/>
       <path d="M 60.015625 54.6875 
L 34.90625 27.875 
L 50.296875 0 
L 39.984375 0 
L 28.421875 21.6875 
L 8.296875 0 
L -2.59375 0 
L 24.3125 28.8125 
L 10.015625 54.6875 
L 20.3125 54.6875 
L 30.8125 34.90625 
L 49.125 54.6875 
z
" id="DejaVuSans-Oblique-120"/>
       <path d="M 53.609375 52.59375 
L 51.8125 43.703125 
Q 48.578125 46.046875 44.9375 47.21875 
Q 41.3125 48.390625 37.40625 48.390625 
Q 33.109375 48.390625 29.21875 46.875 
Q 25.34375 45.359375 22.703125 42.578125 
Q 18.5 38.328125 16.203125 32.609375 
Q 13.921875 26.90625 13.921875 20.796875 
Q 13.921875 13.421875 17.609375 9.8125 
Q 21.296875 6.203125 28.8125 6.203125 
Q 32.515625 6.203125 36.6875 7.328125 
Q 40.875 8.453125 45.40625 10.6875 
L 43.703125 1.8125 
Q 39.796875 0.203125 35.671875 -0.609375 
Q 31.546875 -1.421875 27.203125 -1.421875 
Q 16.3125 -1.421875 10.453125 4.015625 
Q 4.59375 9.46875 4.59375 19.578125 
Q 4.59375 28.078125 7.640625 35.234375 
Q 10.6875 42.390625 16.703125 48.09375 
Q 20.796875 52 26.3125 54 
Q 31.84375 56 38.375 56 
Q 42.1875 56 45.9375 55.140625 
Q 49.703125 54.296875 53.609375 52.59375 
z
" id="DejaVuSans-Oblique-99"/>
       <path d="M 55.71875 33.015625 
L 49.3125 0 
L 40.28125 0 
L 46.6875 32.671875 
Q 47.125 34.96875 47.359375 36.71875 
Q 47.609375 38.484375 47.609375 39.5 
Q 47.609375 43.609375 45.015625 45.890625 
Q 42.4375 48.1875 37.796875 48.1875 
Q 30.5625 48.1875 25.265625 43.296875 
Q 19.96875 38.421875 18.40625 30.328125 
L 12.5 0 
L 3.515625 0 
L 18.3125 75.984375 
L 27.296875 75.984375 
L 21.484375 46.09375 
Q 24.90625 50.6875 30.21875 53.34375 
Q 35.546875 56 41.40625 56 
Q 48.640625 56 52.609375 52.09375 
Q 56.59375 48.1875 56.59375 41.109375 
Q 56.59375 39.359375 56.375 37.359375 
Q 56.15625 35.359375 55.71875 33.015625 
z
" id="DejaVuSans-Oblique-104"/>
       <path d="M 53.71875 31.203125 
L 47.609375 0 
L 38.625 0 
L 40.28125 8.296875 
Q 36.328125 3.421875 31.265625 1 
Q 26.21875 -1.421875 20.015625 -1.421875 
Q 13.03125 -1.421875 8.5625 2.84375 
Q 4.109375 7.125 4.109375 13.8125 
Q 4.109375 23.390625 11.75 28.953125 
Q 19.390625 34.515625 32.8125 34.515625 
L 45.3125 34.515625 
L 45.796875 36.921875 
Q 45.90625 37.3125 45.953125 37.765625 
Q 46 38.234375 46 39.203125 
Q 46 43.5625 42.453125 45.96875 
Q 38.921875 48.390625 32.515625 48.390625 
Q 28.125 48.390625 23.5 47.265625 
Q 18.890625 46.140625 14.015625 43.890625 
L 15.578125 52.203125 
Q 20.65625 54.109375 25.515625 55.046875 
Q 30.375 56 34.90625 56 
Q 44.578125 56 49.625 51.796875 
Q 54.6875 47.609375 54.6875 39.59375 
Q 54.6875 37.984375 54.4375 35.8125 
Q 54.203125 33.640625 53.71875 31.203125 
z
M 44 27.484375 
L 35.015625 27.484375 
Q 23.96875 27.484375 18.671875 24.53125 
Q 13.375 21.578125 13.375 15.375 
Q 13.375 11.078125 16.078125 8.640625 
Q 18.796875 6.203125 23.578125 6.203125 
Q 30.90625 6.203125 36.375 11.453125 
Q 41.84375 16.703125 43.609375 25.484375 
z
" id="DejaVuSans-Oblique-97"/>
       <path d="M 55.71875 33.015625 
L 49.3125 0 
L 40.28125 0 
L 46.6875 32.671875 
Q 47.125 34.96875 47.359375 36.71875 
Q 47.609375 38.484375 47.609375 39.5 
Q 47.609375 43.609375 45.015625 45.890625 
Q 42.4375 48.1875 37.796875 48.1875 
Q 30.5625 48.1875 25.34375 43.375 
Q 20.125 38.578125 18.5 30.328125 
L 12.5 0 
L 3.515625 0 
L 14.109375 54.6875 
L 23.09375 54.6875 
L 21.296875 46.09375 
Q 25.046875 50.828125 30.3125 53.40625 
Q 35.59375 56 41.40625 56 
Q 48.640625 56 52.609375 52.09375 
Q 56.59375 48.1875 56.59375 41.109375 
Q 56.59375 39.359375 56.375 37.359375 
Q 56.15625 35.359375 55.71875 33.015625 
z
" id="DejaVuSans-Oblique-110"/>
       <path d="M 59.625 54.6875 
L 50.296875 6.78125 
Q 47.609375 -7.125 40.015625 -13.953125 
Q 32.421875 -20.796875 19.578125 -20.796875 
Q 14.84375 -20.796875 10.78125 -20.09375 
Q 6.734375 -19.390625 3.21875 -17.921875 
L 4.890625 -9.1875 
Q 8.203125 -11.328125 11.90625 -12.34375 
Q 15.625 -13.375 19.828125 -13.375 
Q 28.375 -13.375 33.859375 -8.703125 
Q 39.359375 -4.046875 41.109375 4.6875 
L 41.890625 8.796875 
Q 38.140625 4.5 33.15625 2.25 
Q 28.171875 0 22.40625 0 
Q 14.109375 0 9.34375 5.484375 
Q 4.59375 10.984375 4.59375 20.609375 
Q 4.59375 28.171875 7.46875 35.421875 
Q 10.359375 42.671875 15.578125 48.296875 
Q 19.046875 52 23.65625 54 
Q 28.265625 56 33.296875 56 
Q 38.8125 56 42.90625 53.4375 
Q 47.015625 50.875 49.03125 46.1875 
L 50.59375 54.6875 
z
M 46.09375 34.625 
Q 46.09375 41.265625 42.96875 44.875 
Q 39.84375 48.484375 34.078125 48.484375 
Q 30.515625 48.484375 27.296875 47.0625 
Q 24.078125 45.65625 21.78125 43.109375 
Q 18.0625 38.921875 15.984375 33.234375 
Q 13.921875 27.546875 13.921875 21.484375 
Q 13.921875 14.75 17.0625 11.125 
Q 20.21875 7.515625 26.125 7.515625 
Q 34.671875 7.515625 40.375 15.25 
Q 46.09375 23 46.09375 34.625 
z
" id="DejaVuSans-Oblique-103"/>
       <path d="M 8.015625 75.875 
L 15.828125 75.875 
Q 23.140625 64.359375 26.78125 53.3125 
Q 30.421875 42.28125 30.421875 31.390625 
Q 30.421875 20.453125 26.78125 9.375 
Q 23.140625 -1.703125 15.828125 -13.1875 
L 8.015625 -13.1875 
Q 14.5 -2 17.703125 9.0625 
Q 20.90625 20.125 20.90625 31.390625 
Q 20.90625 42.671875 17.703125 53.65625 
Q 14.5 64.65625 8.015625 75.875 
z
" id="DejaVuSans-41"/>
      </defs>
      <use transform="translate(0 0.765625)" xlink:href="#DejaVuSans-112"/>
      <use transform="translate(63.476562 0.765625)" xlink:href="#DejaVuSans-114"/>
      <use transform="translate(104.589844 0.765625)" xlink:href="#DejaVuSans-101"/>
      <use transform="translate(166.113281 0.765625)" xlink:href="#DejaVuSans-99"/>
      <use transform="translate(221.09375 0.765625)" xlink:href="#DejaVuSans-105"/>
      <use transform="translate(248.876953 0.765625)" xlink:href="#DejaVuSans-112"/>
      <use transform="translate(312.353516 0.765625)" xlink:href="#DejaVuSans-105"/>
      <use transform="translate(340.136719 0.765625)" xlink:href="#DejaVuSans-116"/>
      <use transform="translate(379.345703 0.765625)" xlink:href="#DejaVuSans-97"/>
      <use transform="translate(440.625 0.765625)" xlink:href="#DejaVuSans-116"/>
      <use transform="translate(479.833984 0.765625)" xlink:href="#DejaVuSans-105"/>
      <use transform="translate(507.617188 0.765625)" xlink:href="#DejaVuSans-111"/>
      <use transform="translate(568.798828 0.765625)" xlink:href="#DejaVuSans-110"/>
      <use transform="translate(632.177734 0.765625)" xlink:href="#DejaVuSans-32"/>
      <use transform="translate(663.964844 0.765625)" xlink:href="#DejaVuSans-105"/>
      <use transform="translate(691.748047 0.765625)" xlink:href="#DejaVuSans-110"/>
      <use transform="translate(755.126953 0.765625)" xlink:href="#DejaVuSans-102"/>
      <use transform="translate(790.332031 0.765625)" xlink:href="#DejaVuSans-108"/>
      <use transform="translate(818.115234 0.765625)" xlink:href="#DejaVuSans-117"/>
      <use transform="translate(881.494141 0.765625)" xlink:href="#DejaVuSans-120"/>
      <use transform="translate(940.673828 0.765625)" xlink:href="#DejaVuSans-32"/>
      <use transform="translate(972.460938 0.765625)" xlink:href="#DejaVuSans-40"/>
      <use transform="translate(1011.474609 0.765625)" xlink:href="#DejaVuSans-Oblique-109"/>
      <use transform="translate(1113.536615 39.046875)scale(0.7)" xlink:href="#DejaVuSans-51"/>
      <use transform="translate(1160.807122 0.765625)" xlink:href="#DejaVuSans-47"/>
      <use transform="translate(1194.498529 0.765625)" xlink:href="#DejaVuSans-Oblique-948"/>
      <use transform="translate(1255.680169 0.765625)" xlink:href="#DejaVuSans-Oblique-116"/>
      <use transform="translate(1294.889154 -15.640625)scale(0.7)" xlink:href="#DejaVuSans-Oblique-101"/>
      <use transform="translate(1337.95556 -15.640625)scale(0.7)" xlink:href="#DejaVuSans-Oblique-120"/>
      <use transform="translate(1379.381341 -15.640625)scale(0.7)" xlink:href="#DejaVuSans-Oblique-99"/>
      <use transform="translate(1417.867669 -15.640625)scale(0.7)" xlink:href="#DejaVuSans-Oblique-104"/>
      <use transform="translate(1462.232904 -15.640625)scale(0.7)" xlink:href="#DejaVuSans-Oblique-97"/>
      <use transform="translate(1505.128411 -15.640625)scale(0.7)" xlink:href="#DejaVuSans-Oblique-110"/>
      <use transform="translate(1549.493646 -15.640625)scale(0.7)" xlink:href="#DejaVuSans-Oblique-103"/>
      <use transform="translate(1593.92724 -15.640625)scale(0.7)" xlink:href="#DejaVuSans-Oblique-101"/>
      <use transform="translate(1639.728021 0.765625)" xlink:href="#DejaVuSans-41"/>
     </g>
    </g>
    <g id="line2d_20">
     <path d="M 241.4175 39 
L 261.4175 39 
" style="fill:none;stroke:#e74c3c;stroke-linecap:square;stroke-width:0.75;"/>
    </g>
    <g id="line2d_21"/>
    <g id="text_17">
     <!-- GW in-/out-fluxes ($m^3$/$\delta t_{exchange}$) -->
     <g transform="translate(269.4175 42.5)scale(0.1 -0.1)">
      <defs>
       <path d="M 59.515625 10.40625 
L 59.515625 29.984375 
L 43.40625 29.984375 
L 43.40625 38.09375 
L 69.28125 38.09375 
L 69.28125 6.78125 
Q 63.578125 2.734375 56.6875 0.65625 
Q 49.8125 -1.421875 42 -1.421875 
Q 24.90625 -1.421875 15.25 8.5625 
Q 5.609375 18.5625 5.609375 36.375 
Q 5.609375 54.25 15.25 64.234375 
Q 24.90625 74.21875 42 74.21875 
Q 49.125 74.21875 55.546875 72.453125 
Q 61.96875 70.703125 67.390625 67.28125 
L 67.390625 56.78125 
Q 61.921875 61.421875 55.765625 63.765625 
Q 49.609375 66.109375 42.828125 66.109375 
Q 29.4375 66.109375 22.71875 58.640625 
Q 16.015625 51.171875 16.015625 36.375 
Q 16.015625 21.625 22.71875 14.15625 
Q 29.4375 6.6875 42.828125 6.6875 
Q 48.046875 6.6875 52.140625 7.59375 
Q 56.25 8.5 59.515625 10.40625 
z
" id="DejaVuSans-71"/>
       <path d="M 3.328125 72.90625 
L 13.28125 72.90625 
L 28.609375 11.28125 
L 43.890625 72.90625 
L 54.984375 72.90625 
L 70.3125 11.28125 
L 85.59375 72.90625 
L 95.609375 72.90625 
L 77.296875 0 
L 64.890625 0 
L 49.515625 63.28125 
L 33.984375 0 
L 21.578125 0 
z
" id="DejaVuSans-87"/>
       <path d="M 44.28125 53.078125 
L 44.28125 44.578125 
Q 40.484375 46.53125 36.375 47.5 
Q 32.28125 48.484375 27.875 48.484375 
Q 21.1875 48.484375 17.84375 46.4375 
Q 14.5 44.390625 14.5 40.28125 
Q 14.5 37.15625 16.890625 35.375 
Q 19.28125 33.59375 26.515625 31.984375 
L 29.59375 31.296875 
Q 39.15625 29.25 43.1875 25.515625 
Q 47.21875 21.78125 47.21875 15.09375 
Q 47.21875 7.46875 41.1875 3.015625 
Q 35.15625 -1.421875 24.609375 -1.421875 
Q 20.21875 -1.421875 15.453125 -0.5625 
Q 10.6875 0.296875 5.421875 2 
L 5.421875 11.28125 
Q 10.40625 8.6875 15.234375 7.390625 
Q 20.0625 6.109375 24.8125 6.109375 
Q 31.15625 6.109375 34.5625 8.28125 
Q 37.984375 10.453125 37.984375 14.40625 
Q 37.984375 18.0625 35.515625 20.015625 
Q 33.0625 21.96875 24.703125 23.78125 
L 21.578125 24.515625 
Q 13.234375 26.265625 9.515625 29.90625 
Q 5.8125 33.546875 5.8125 39.890625 
Q 5.8125 47.609375 11.28125 51.796875 
Q 16.75 56 26.8125 56 
Q 31.78125 56 36.171875 55.265625 
Q 40.578125 54.546875 44.28125 53.078125 
z
" id="DejaVuSans-115"/>
      </defs>
      <use transform="translate(0 0.765625)" xlink:href="#DejaVuSans-71"/>
      <use transform="translate(77.490234 0.765625)" xlink:href="#DejaVuSans-87"/>
      <use transform="translate(176.367188 0.765625)" xlink:href="#DejaVuSans-32"/>
      <use transform="translate(208.154297 0.765625)" xlink:href="#DejaVuSans-105"/>
      <use transform="translate(235.9375 0.765625)" xlink:href="#DejaVuSans-110"/>
      <use transform="translate(299.316406 0.765625)" xlink:href="#DejaVuSans-45"/>
      <use transform="translate(335.400391 0.765625)" xlink:href="#DejaVuSans-47"/>
      <use transform="translate(369.091797 0.765625)" xlink:href="#DejaVuSans-111"/>
      <use transform="translate(430.273438 0.765625)" xlink:href="#DejaVuSans-117"/>
      <use transform="translate(493.652344 0.765625)" xlink:href="#DejaVuSans-116"/>
      <use transform="translate(532.861328 0.765625)" xlink:href="#DejaVuSans-45"/>
      <use transform="translate(568.945312 0.765625)" xlink:href="#DejaVuSans-102"/>
      <use transform="translate(604.150391 0.765625)" xlink:href="#DejaVuSans-108"/>
      <use transform="translate(631.933594 0.765625)" xlink:href="#DejaVuSans-117"/>
      <use transform="translate(695.3125 0.765625)" xlink:href="#DejaVuSans-120"/>
      <use transform="translate(754.492188 0.765625)" xlink:href="#DejaVuSans-101"/>
      <use transform="translate(816.015625 0.765625)" xlink:href="#DejaVuSans-115"/>
      <use transform="translate(868.115234 0.765625)" xlink:href="#DejaVuSans-32"/>
      <use transform="translate(899.902344 0.765625)" xlink:href="#DejaVuSans-40"/>
      <use transform="translate(938.916016 0.765625)" xlink:href="#DejaVuSans-Oblique-109"/>
      <use transform="translate(1040.978021 39.046875)scale(0.7)" xlink:href="#DejaVuSans-51"/>
      <use transform="translate(1088.248529 0.765625)" xlink:href="#DejaVuSans-47"/>
      <use transform="translate(1121.939935 0.765625)" xlink:href="#DejaVuSans-Oblique-948"/>
      <use transform="translate(1183.121576 0.765625)" xlink:href="#DejaVuSans-Oblique-116"/>
      <use transform="translate(1222.33056 -15.640625)scale(0.7)" xlink:href="#DejaVuSans-Oblique-101"/>
      <use transform="translate(1265.396966 -15.640625)scale(0.7)" xlink:href="#DejaVuSans-Oblique-120"/>
      <use transform="translate(1306.822747 -15.640625)scale(0.7)" xlink:href="#DejaVuSans-Oblique-99"/>
      <use transform="translate(1345.309076 -15.640625)scale(0.7)" xlink:href="#DejaVuSans-Oblique-104"/>
      <use transform="translate(1389.67431 -15.640625)scale(0.7)" xlink:href="#DejaVuSans-Oblique-97"/>
      <use transform="translate(1432.569818 -15.640625)scale(0.7)" xlink:href="#DejaVuSans-Oblique-110"/>
      <use transform="translate(1476.935052 -15.640625)scale(0.7)" xlink:href="#DejaVuSans-Oblique-103"/>
      <use transform="translate(1521.368646 -15.640625)scale(0.7)" xlink:href="#DejaVuSans-Oblique-101"/>
      <use transform="translate(1567.169427 0.765625)" xlink:href="#DejaVuSans-41"/>
     </g>
    </g>
   </g>
  </g>
 </g>
 <defs>
  <clipPath id="pa01178756d">
   <rect height="285.590464" width="413.03" x="33.2875" y="7.2"/>
  </clipPath>
 </defs>
</svg>
