<?xml version="1.0" encoding="utf-8" standalone="no"?>
<!DOCTYPE svg PUBLIC "-//W3C//DTD SVG 1.1//EN"
  "http://www.w3.org/Graphics/SVG/1.1/DTD/svg11.dtd">
<!-- Created with matplotlib (https://matplotlib.org/) -->
<svg height="351.068216pt" version="1.1" viewBox="0 0 520.614588 351.068216" width="520.614588pt" xmlns="http://www.w3.org/2000/svg" xmlns:xlink="http://www.w3.org/1999/xlink">
 <metadata>
  <rdf:RDF xmlns:cc="http://creativecommons.org/ns#" xmlns:dc="http://purl.org/dc/elements/1.1/" xmlns:rdf="http://www.w3.org/1999/02/22-rdf-syntax-ns#">
   <cc:Work>
    <dc:type rdf:resource="http://purl.org/dc/dcmitype/StillImage"/>
    <dc:date>2021-04-19T19:47:03.627410</dc:date>
    <dc:format>image/svg+xml</dc:format>
    <dc:creator>
     <cc:Agent>
      <dc:title>Matplotlib v3.3.2, https://matplotlib.org/</dc:title>
     </cc:Agent>
    </dc:creator>
   </cc:Work>
  </rdf:RDF>
 </metadata>
 <defs>
  <style type="text/css">*{stroke-linecap:butt;stroke-linejoin:round;}</style>
 </defs>
 <g id="figure_1">
  <g id="patch_1">
   <path d="M 0 351.068216 
L 520.614588 351.068216 
L 520.614588 0 
L 0 0 
z
" style="fill:#ffffff;"/>
  </g>
  <g id="axes_1">
   <g id="patch_2">
    <path d="M 69.23125 299.428901 
L 464.108338 299.428901 
L 464.108338 17.798437 
L 69.23125 17.798437 
z
" style="fill:#ffffff;"/>
   </g>
   <g id="matplotlib.axis_1">
    <g id="xtick_1">
     <g id="line2d_1">
      <defs>
       <path d="M 0 0 
L 0 3.5 
" id="m8826b7e111" style="stroke:#000000;stroke-width:0.8;"/>
      </defs>
      <g>
       <use style="stroke:#000000;stroke-width:0.8;" x="87.180209" xlink:href="#m8826b7e111" y="299.428901"/>
      </g>
     </g>
     <g id="text_1">
      <!-- 2020-05-01 -->
      <g transform="translate(35.810757 342.067154)rotate(-30)scale(0.1 -0.1)">
       <defs>
        <path d="M 19.1875 8.296875 
L 53.609375 8.296875 
L 53.609375 0 
L 7.328125 0 
L 7.328125 8.296875 
Q 12.9375 14.109375 22.625 23.890625 
Q 32.328125 33.6875 34.8125 36.53125 
Q 39.546875 41.84375 41.421875 45.53125 
Q 43.3125 49.21875 43.3125 52.78125 
Q 43.3125 58.59375 39.234375 62.25 
Q 35.15625 65.921875 28.609375 65.921875 
Q 23.96875 65.921875 18.8125 64.3125 
Q 13.671875 62.703125 7.8125 59.421875 
L 7.8125 69.390625 
Q 13.765625 71.78125 18.9375 73 
Q 24.125 74.21875 28.421875 74.21875 
Q 39.75 74.21875 46.484375 68.546875 
Q 53.21875 62.890625 53.21875 53.421875 
Q 53.21875 48.921875 51.53125 44.890625 
Q 49.859375 40.875 45.40625 35.40625 
Q 44.1875 33.984375 37.640625 27.21875 
Q 31.109375 20.453125 19.1875 8.296875 
z
" id="DejaVuSans-50"/>
        <path d="M 31.78125 66.40625 
Q 24.171875 66.40625 20.328125 58.90625 
Q 16.5 51.421875 16.5 36.375 
Q 16.5 21.390625 20.328125 13.890625 
Q 24.171875 6.390625 31.78125 6.390625 
Q 39.453125 6.390625 43.28125 13.890625 
Q 47.125 21.390625 47.125 36.375 
Q 47.125 51.421875 43.28125 58.90625 
Q 39.453125 66.40625 31.78125 66.40625 
z
M 31.78125 74.21875 
Q 44.046875 74.21875 50.515625 64.515625 
Q 56.984375 54.828125 56.984375 36.375 
Q 56.984375 17.96875 50.515625 8.265625 
Q 44.046875 -1.421875 31.78125 -1.421875 
Q 19.53125 -1.421875 13.0625 8.265625 
Q 6.59375 17.96875 6.59375 36.375 
Q 6.59375 54.828125 13.0625 64.515625 
Q 19.53125 74.21875 31.78125 74.21875 
z
" id="DejaVuSans-48"/>
        <path d="M 4.890625 31.390625 
L 31.203125 31.390625 
L 31.203125 23.390625 
L 4.890625 23.390625 
z
" id="DejaVuSans-45"/>
        <path d="M 10.796875 72.90625 
L 49.515625 72.90625 
L 49.515625 64.59375 
L 19.828125 64.59375 
L 19.828125 46.734375 
Q 21.96875 47.46875 24.109375 47.828125 
Q 26.265625 48.1875 28.421875 48.1875 
Q 40.625 48.1875 47.75 41.5 
Q 54.890625 34.8125 54.890625 23.390625 
Q 54.890625 11.625 47.5625 5.09375 
Q 40.234375 -1.421875 26.90625 -1.421875 
Q 22.3125 -1.421875 17.546875 -0.640625 
Q 12.796875 0.140625 7.71875 1.703125 
L 7.71875 11.625 
Q 12.109375 9.234375 16.796875 8.0625 
Q 21.484375 6.890625 26.703125 6.890625 
Q 35.15625 6.890625 40.078125 11.328125 
Q 45.015625 15.765625 45.015625 23.390625 
Q 45.015625 31 40.078125 35.4375 
Q 35.15625 39.890625 26.703125 39.890625 
Q 22.75 39.890625 18.8125 39.015625 
Q 14.890625 38.140625 10.796875 36.28125 
z
" id="DejaVuSans-53"/>
        <path d="M 12.40625 8.296875 
L 28.515625 8.296875 
L 28.515625 63.921875 
L 10.984375 60.40625 
L 10.984375 69.390625 
L 28.421875 72.90625 
L 38.28125 72.90625 
L 38.28125 8.296875 
L 54.390625 8.296875 
L 54.390625 0 
L 12.40625 0 
z
" id="DejaVuSans-49"/>
       </defs>
       <use xlink:href="#DejaVuSans-50"/>
       <use x="63.623047" xlink:href="#DejaVuSans-48"/>
       <use x="127.246094" xlink:href="#DejaVuSans-50"/>
       <use x="190.869141" xlink:href="#DejaVuSans-48"/>
       <use x="254.492188" xlink:href="#DejaVuSans-45"/>
       <use x="290.576172" xlink:href="#DejaVuSans-48"/>
       <use x="354.199219" xlink:href="#DejaVuSans-53"/>
       <use x="417.822266" xlink:href="#DejaVuSans-45"/>
       <use x="453.90625" xlink:href="#DejaVuSans-48"/>
       <use x="517.529297" xlink:href="#DejaVuSans-49"/>
      </g>
     </g>
    </g>
    <g id="xtick_2">
     <g id="line2d_2">
      <g>
       <use style="stroke:#000000;stroke-width:0.8;" x="133.500102" xlink:href="#m8826b7e111" y="299.428901"/>
      </g>
     </g>
     <g id="text_2">
      <!-- 2020-05-05 -->
      <g transform="translate(82.13065 342.067154)rotate(-30)scale(0.1 -0.1)">
       <use xlink:href="#DejaVuSans-50"/>
       <use x="63.623047" xlink:href="#DejaVuSans-48"/>
       <use x="127.246094" xlink:href="#DejaVuSans-50"/>
       <use x="190.869141" xlink:href="#DejaVuSans-48"/>
       <use x="254.492188" xlink:href="#DejaVuSans-45"/>
       <use x="290.576172" xlink:href="#DejaVuSans-48"/>
       <use x="354.199219" xlink:href="#DejaVuSans-53"/>
       <use x="417.822266" xlink:href="#DejaVuSans-45"/>
       <use x="453.90625" xlink:href="#DejaVuSans-48"/>
       <use x="517.529297" xlink:href="#DejaVuSans-53"/>
      </g>
     </g>
    </g>
    <g id="xtick_3">
     <g id="line2d_3">
      <g>
       <use style="stroke:#000000;stroke-width:0.8;" x="179.819994" xlink:href="#m8826b7e111" y="299.428901"/>
      </g>
     </g>
     <g id="text_3">
      <!-- 2020-05-09 -->
      <g transform="translate(128.450543 342.067154)rotate(-30)scale(0.1 -0.1)">
       <defs>
        <path d="M 10.984375 1.515625 
L 10.984375 10.5 
Q 14.703125 8.734375 18.5 7.8125 
Q 22.3125 6.890625 25.984375 6.890625 
Q 35.75 6.890625 40.890625 13.453125 
Q 46.046875 20.015625 46.78125 33.40625 
Q 43.953125 29.203125 39.59375 26.953125 
Q 35.25 24.703125 29.984375 24.703125 
Q 19.046875 24.703125 12.671875 31.3125 
Q 6.296875 37.9375 6.296875 49.421875 
Q 6.296875 60.640625 12.9375 67.421875 
Q 19.578125 74.21875 30.609375 74.21875 
Q 43.265625 74.21875 49.921875 64.515625 
Q 56.59375 54.828125 56.59375 36.375 
Q 56.59375 19.140625 48.40625 8.859375 
Q 40.234375 -1.421875 26.421875 -1.421875 
Q 22.703125 -1.421875 18.890625 -0.6875 
Q 15.09375 0.046875 10.984375 1.515625 
z
M 30.609375 32.421875 
Q 37.25 32.421875 41.125 36.953125 
Q 45.015625 41.5 45.015625 49.421875 
Q 45.015625 57.28125 41.125 61.84375 
Q 37.25 66.40625 30.609375 66.40625 
Q 23.96875 66.40625 20.09375 61.84375 
Q 16.21875 57.28125 16.21875 49.421875 
Q 16.21875 41.5 20.09375 36.953125 
Q 23.96875 32.421875 30.609375 32.421875 
z
" id="DejaVuSans-57"/>
       </defs>
       <use xlink:href="#DejaVuSans-50"/>
       <use x="63.623047" xlink:href="#DejaVuSans-48"/>
       <use x="127.246094" xlink:href="#DejaVuSans-50"/>
       <use x="190.869141" xlink:href="#DejaVuSans-48"/>
       <use x="254.492188" xlink:href="#DejaVuSans-45"/>
       <use x="290.576172" xlink:href="#DejaVuSans-48"/>
       <use x="354.199219" xlink:href="#DejaVuSans-53"/>
       <use x="417.822266" xlink:href="#DejaVuSans-45"/>
       <use x="453.90625" xlink:href="#DejaVuSans-48"/>
       <use x="517.529297" xlink:href="#DejaVuSans-57"/>
      </g>
     </g>
    </g>
    <g id="xtick_4">
     <g id="line2d_4">
      <g>
       <use style="stroke:#000000;stroke-width:0.8;" x="226.139887" xlink:href="#m8826b7e111" y="299.428901"/>
      </g>
     </g>
     <g id="text_4">
      <!-- 2020-05-13 -->
      <g transform="translate(174.770436 342.067154)rotate(-30)scale(0.1 -0.1)">
       <defs>
        <path d="M 40.578125 39.3125 
Q 47.65625 37.796875 51.625 33 
Q 55.609375 28.21875 55.609375 21.1875 
Q 55.609375 10.40625 48.1875 4.484375 
Q 40.765625 -1.421875 27.09375 -1.421875 
Q 22.515625 -1.421875 17.65625 -0.515625 
Q 12.796875 0.390625 7.625 2.203125 
L 7.625 11.71875 
Q 11.71875 9.328125 16.59375 8.109375 
Q 21.484375 6.890625 26.8125 6.890625 
Q 36.078125 6.890625 40.9375 10.546875 
Q 45.796875 14.203125 45.796875 21.1875 
Q 45.796875 27.640625 41.28125 31.265625 
Q 36.765625 34.90625 28.71875 34.90625 
L 20.21875 34.90625 
L 20.21875 43.015625 
L 29.109375 43.015625 
Q 36.375 43.015625 40.234375 45.921875 
Q 44.09375 48.828125 44.09375 54.296875 
Q 44.09375 59.90625 40.109375 62.90625 
Q 36.140625 65.921875 28.71875 65.921875 
Q 24.65625 65.921875 20.015625 65.03125 
Q 15.375 64.15625 9.8125 62.3125 
L 9.8125 71.09375 
Q 15.4375 72.65625 20.34375 73.4375 
Q 25.25 74.21875 29.59375 74.21875 
Q 40.828125 74.21875 47.359375 69.109375 
Q 53.90625 64.015625 53.90625 55.328125 
Q 53.90625 49.265625 50.4375 45.09375 
Q 46.96875 40.921875 40.578125 39.3125 
z
" id="DejaVuSans-51"/>
       </defs>
       <use xlink:href="#DejaVuSans-50"/>
       <use x="63.623047" xlink:href="#DejaVuSans-48"/>
       <use x="127.246094" xlink:href="#DejaVuSans-50"/>
       <use x="190.869141" xlink:href="#DejaVuSans-48"/>
       <use x="254.492188" xlink:href="#DejaVuSans-45"/>
       <use x="290.576172" xlink:href="#DejaVuSans-48"/>
       <use x="354.199219" xlink:href="#DejaVuSans-53"/>
       <use x="417.822266" xlink:href="#DejaVuSans-45"/>
       <use x="453.90625" xlink:href="#DejaVuSans-49"/>
       <use x="517.529297" xlink:href="#DejaVuSans-51"/>
      </g>
     </g>
    </g>
    <g id="xtick_5">
     <g id="line2d_5">
      <g>
       <use style="stroke:#000000;stroke-width:0.8;" x="272.45978" xlink:href="#m8826b7e111" y="299.428901"/>
      </g>
     </g>
     <g id="text_5">
      <!-- 2020-05-17 -->
      <g transform="translate(221.090329 342.067154)rotate(-30)scale(0.1 -0.1)">
       <defs>
        <path d="M 8.203125 72.90625 
L 55.078125 72.90625 
L 55.078125 68.703125 
L 28.609375 0 
L 18.3125 0 
L 43.21875 64.59375 
L 8.203125 64.59375 
z
" id="DejaVuSans-55"/>
       </defs>
       <use xlink:href="#DejaVuSans-50"/>
       <use x="63.623047" xlink:href="#DejaVuSans-48"/>
       <use x="127.246094" xlink:href="#DejaVuSans-50"/>
       <use x="190.869141" xlink:href="#DejaVuSans-48"/>
       <use x="254.492188" xlink:href="#DejaVuSans-45"/>
       <use x="290.576172" xlink:href="#DejaVuSans-48"/>
       <use x="354.199219" xlink:href="#DejaVuSans-53"/>
       <use x="417.822266" xlink:href="#DejaVuSans-45"/>
       <use x="453.90625" xlink:href="#DejaVuSans-49"/>
       <use x="517.529297" xlink:href="#DejaVuSans-55"/>
      </g>
     </g>
    </g>
    <g id="xtick_6">
     <g id="line2d_6">
      <g>
       <use style="stroke:#000000;stroke-width:0.8;" x="318.779673" xlink:href="#m8826b7e111" y="299.428901"/>
      </g>
     </g>
     <g id="text_6">
      <!-- 2020-05-21 -->
      <g transform="translate(267.410222 342.067154)rotate(-30)scale(0.1 -0.1)">
       <use xlink:href="#DejaVuSans-50"/>
       <use x="63.623047" xlink:href="#DejaVuSans-48"/>
       <use x="127.246094" xlink:href="#DejaVuSans-50"/>
       <use x="190.869141" xlink:href="#DejaVuSans-48"/>
       <use x="254.492188" xlink:href="#DejaVuSans-45"/>
       <use x="290.576172" xlink:href="#DejaVuSans-48"/>
       <use x="354.199219" xlink:href="#DejaVuSans-53"/>
       <use x="417.822266" xlink:href="#DejaVuSans-45"/>
       <use x="453.90625" xlink:href="#DejaVuSans-50"/>
       <use x="517.529297" xlink:href="#DejaVuSans-49"/>
      </g>
     </g>
    </g>
    <g id="xtick_7">
     <g id="line2d_7">
      <g>
       <use style="stroke:#000000;stroke-width:0.8;" x="365.099566" xlink:href="#m8826b7e111" y="299.428901"/>
      </g>
     </g>
     <g id="text_7">
      <!-- 2020-05-25 -->
      <g transform="translate(313.730115 342.067154)rotate(-30)scale(0.1 -0.1)">
       <use xlink:href="#DejaVuSans-50"/>
       <use x="63.623047" xlink:href="#DejaVuSans-48"/>
       <use x="127.246094" xlink:href="#DejaVuSans-50"/>
       <use x="190.869141" xlink:href="#DejaVuSans-48"/>
       <use x="254.492188" xlink:href="#DejaVuSans-45"/>
       <use x="290.576172" xlink:href="#DejaVuSans-48"/>
       <use x="354.199219" xlink:href="#DejaVuSans-53"/>
       <use x="417.822266" xlink:href="#DejaVuSans-45"/>
       <use x="453.90625" xlink:href="#DejaVuSans-50"/>
       <use x="517.529297" xlink:href="#DejaVuSans-53"/>
      </g>
     </g>
    </g>
    <g id="xtick_8">
     <g id="line2d_8">
      <g>
       <use style="stroke:#000000;stroke-width:0.8;" x="411.419459" xlink:href="#m8826b7e111" y="299.428901"/>
      </g>
     </g>
     <g id="text_8">
      <!-- 2020-05-29 -->
      <g transform="translate(360.050008 342.067154)rotate(-30)scale(0.1 -0.1)">
       <use xlink:href="#DejaVuSans-50"/>
       <use x="63.623047" xlink:href="#DejaVuSans-48"/>
       <use x="127.246094" xlink:href="#DejaVuSans-50"/>
       <use x="190.869141" xlink:href="#DejaVuSans-48"/>
       <use x="254.492188" xlink:href="#DejaVuSans-45"/>
       <use x="290.576172" xlink:href="#DejaVuSans-48"/>
       <use x="354.199219" xlink:href="#DejaVuSans-53"/>
       <use x="417.822266" xlink:href="#DejaVuSans-45"/>
       <use x="453.90625" xlink:href="#DejaVuSans-50"/>
       <use x="517.529297" xlink:href="#DejaVuSans-57"/>
      </g>
     </g>
    </g>
    <g id="xtick_9">
     <g id="line2d_9">
      <g>
       <use style="stroke:#000000;stroke-width:0.8;" x="446.159379" xlink:href="#m8826b7e111" y="299.428901"/>
      </g>
     </g>
     <g id="text_9">
      <!-- 2020-06-01 -->
      <g transform="translate(394.789928 342.067154)rotate(-30)scale(0.1 -0.1)">
       <defs>
        <path d="M 33.015625 40.375 
Q 26.375 40.375 22.484375 35.828125 
Q 18.609375 31.296875 18.609375 23.390625 
Q 18.609375 15.53125 22.484375 10.953125 
Q 26.375 6.390625 33.015625 6.390625 
Q 39.65625 6.390625 43.53125 10.953125 
Q 47.40625 15.53125 47.40625 23.390625 
Q 47.40625 31.296875 43.53125 35.828125 
Q 39.65625 40.375 33.015625 40.375 
z
M 52.59375 71.296875 
L 52.59375 62.3125 
Q 48.875 64.0625 45.09375 64.984375 
Q 41.3125 65.921875 37.59375 65.921875 
Q 27.828125 65.921875 22.671875 59.328125 
Q 17.53125 52.734375 16.796875 39.40625 
Q 19.671875 43.65625 24.015625 45.921875 
Q 28.375 48.1875 33.59375 48.1875 
Q 44.578125 48.1875 50.953125 41.515625 
Q 57.328125 34.859375 57.328125 23.390625 
Q 57.328125 12.15625 50.6875 5.359375 
Q 44.046875 -1.421875 33.015625 -1.421875 
Q 20.359375 -1.421875 13.671875 8.265625 
Q 6.984375 17.96875 6.984375 36.375 
Q 6.984375 53.65625 15.1875 63.9375 
Q 23.390625 74.21875 37.203125 74.21875 
Q 40.921875 74.21875 44.703125 73.484375 
Q 48.484375 72.75 52.59375 71.296875 
z
" id="DejaVuSans-54"/>
       </defs>
       <use xlink:href="#DejaVuSans-50"/>
       <use x="63.623047" xlink:href="#DejaVuSans-48"/>
       <use x="127.246094" xlink:href="#DejaVuSans-50"/>
       <use x="190.869141" xlink:href="#DejaVuSans-48"/>
       <use x="254.492188" xlink:href="#DejaVuSans-45"/>
       <use x="290.576172" xlink:href="#DejaVuSans-48"/>
       <use x="354.199219" xlink:href="#DejaVuSans-54"/>
       <use x="417.822266" xlink:href="#DejaVuSans-45"/>
       <use x="453.90625" xlink:href="#DejaVuSans-48"/>
       <use x="517.529297" xlink:href="#DejaVuSans-49"/>
      </g>
     </g>
    </g>
   </g>
   <g id="matplotlib.axis_2">
    <g id="ytick_1">
     <g id="line2d_10">
      <defs>
       <path d="M 0 0 
L -3.5 0 
" id="mf2cd661c7f" style="stroke:#000000;stroke-width:0.8;"/>
      </defs>
      <g>
       <use style="stroke:#000000;stroke-width:0.8;" x="69.23125" xlink:href="#mf2cd661c7f" y="286.627517"/>
      </g>
     </g>
     <g id="text_10">
      <!-- 461.640 -->
      <g style="fill:#808080;" transform="translate(20.878125 290.426735)scale(0.1 -0.1)">
       <defs>
        <path d="M 37.796875 64.3125 
L 12.890625 25.390625 
L 37.796875 25.390625 
z
M 35.203125 72.90625 
L 47.609375 72.90625 
L 47.609375 25.390625 
L 58.015625 25.390625 
L 58.015625 17.1875 
L 47.609375 17.1875 
L 47.609375 0 
L 37.796875 0 
L 37.796875 17.1875 
L 4.890625 17.1875 
L 4.890625 26.703125 
z
" id="DejaVuSans-52"/>
        <path d="M 10.6875 12.40625 
L 21 12.40625 
L 21 0 
L 10.6875 0 
z
" id="DejaVuSans-46"/>
       </defs>
       <use xlink:href="#DejaVuSans-52"/>
       <use x="63.623047" xlink:href="#DejaVuSans-54"/>
       <use x="127.246094" xlink:href="#DejaVuSans-49"/>
       <use x="190.869141" xlink:href="#DejaVuSans-46"/>
       <use x="222.65625" xlink:href="#DejaVuSans-54"/>
       <use x="286.279297" xlink:href="#DejaVuSans-52"/>
       <use x="349.902344" xlink:href="#DejaVuSans-48"/>
      </g>
     </g>
    </g>
    <g id="ytick_2">
     <g id="line2d_11">
      <g>
       <use style="stroke:#000000;stroke-width:0.8;" x="69.23125" xlink:href="#mf2cd661c7f" y="243.956234"/>
      </g>
     </g>
     <g id="text_11">
      <!-- 461.645 -->
      <g style="fill:#808080;" transform="translate(20.878125 247.755453)scale(0.1 -0.1)">
       <use xlink:href="#DejaVuSans-52"/>
       <use x="63.623047" xlink:href="#DejaVuSans-54"/>
       <use x="127.246094" xlink:href="#DejaVuSans-49"/>
       <use x="190.869141" xlink:href="#DejaVuSans-46"/>
       <use x="222.65625" xlink:href="#DejaVuSans-54"/>
       <use x="286.279297" xlink:href="#DejaVuSans-52"/>
       <use x="349.902344" xlink:href="#DejaVuSans-53"/>
      </g>
     </g>
    </g>
    <g id="ytick_3">
     <g id="line2d_12">
      <g>
       <use style="stroke:#000000;stroke-width:0.8;" x="69.23125" xlink:href="#mf2cd661c7f" y="201.284952"/>
      </g>
     </g>
     <g id="text_12">
      <!-- 461.650 -->
      <g style="fill:#808080;" transform="translate(20.878125 205.084171)scale(0.1 -0.1)">
       <use xlink:href="#DejaVuSans-52"/>
       <use x="63.623047" xlink:href="#DejaVuSans-54"/>
       <use x="127.246094" xlink:href="#DejaVuSans-49"/>
       <use x="190.869141" xlink:href="#DejaVuSans-46"/>
       <use x="222.65625" xlink:href="#DejaVuSans-54"/>
       <use x="286.279297" xlink:href="#DejaVuSans-53"/>
       <use x="349.902344" xlink:href="#DejaVuSans-48"/>
      </g>
     </g>
    </g>
    <g id="ytick_4">
     <g id="line2d_13">
      <g>
       <use style="stroke:#000000;stroke-width:0.8;" x="69.23125" xlink:href="#mf2cd661c7f" y="158.613669"/>
      </g>
     </g>
     <g id="text_13">
      <!-- 461.655 -->
      <g style="fill:#808080;" transform="translate(20.878125 162.412888)scale(0.1 -0.1)">
       <use xlink:href="#DejaVuSans-52"/>
       <use x="63.623047" xlink:href="#DejaVuSans-54"/>
       <use x="127.246094" xlink:href="#DejaVuSans-49"/>
       <use x="190.869141" xlink:href="#DejaVuSans-46"/>
       <use x="222.65625" xlink:href="#DejaVuSans-54"/>
       <use x="286.279297" xlink:href="#DejaVuSans-53"/>
       <use x="349.902344" xlink:href="#DejaVuSans-53"/>
      </g>
     </g>
    </g>
    <g id="ytick_5">
     <g id="line2d_14">
      <g>
       <use style="stroke:#000000;stroke-width:0.8;" x="69.23125" xlink:href="#mf2cd661c7f" y="115.942387"/>
      </g>
     </g>
     <g id="text_14">
      <!-- 461.660 -->
      <g style="fill:#808080;" transform="translate(20.878125 119.741606)scale(0.1 -0.1)">
       <use xlink:href="#DejaVuSans-52"/>
       <use x="63.623047" xlink:href="#DejaVuSans-54"/>
       <use x="127.246094" xlink:href="#DejaVuSans-49"/>
       <use x="190.869141" xlink:href="#DejaVuSans-46"/>
       <use x="222.65625" xlink:href="#DejaVuSans-54"/>
       <use x="286.279297" xlink:href="#DejaVuSans-54"/>
       <use x="349.902344" xlink:href="#DejaVuSans-48"/>
      </g>
     </g>
    </g>
    <g id="ytick_6">
     <g id="line2d_15">
      <g>
       <use style="stroke:#000000;stroke-width:0.8;" x="69.23125" xlink:href="#mf2cd661c7f" y="73.271105"/>
      </g>
     </g>
     <g id="text_15">
      <!-- 461.665 -->
      <g style="fill:#808080;" transform="translate(20.878125 77.070323)scale(0.1 -0.1)">
       <use xlink:href="#DejaVuSans-52"/>
       <use x="63.623047" xlink:href="#DejaVuSans-54"/>
       <use x="127.246094" xlink:href="#DejaVuSans-49"/>
       <use x="190.869141" xlink:href="#DejaVuSans-46"/>
       <use x="222.65625" xlink:href="#DejaVuSans-54"/>
       <use x="286.279297" xlink:href="#DejaVuSans-54"/>
       <use x="349.902344" xlink:href="#DejaVuSans-53"/>
      </g>
     </g>
    </g>
    <g id="ytick_7">
     <g id="line2d_16">
      <g>
       <use style="stroke:#000000;stroke-width:0.8;" x="69.23125" xlink:href="#mf2cd661c7f" y="30.599822"/>
      </g>
     </g>
     <g id="text_16">
      <!-- 461.670 -->
      <g style="fill:#808080;" transform="translate(20.878125 34.399041)scale(0.1 -0.1)">
       <use xlink:href="#DejaVuSans-52"/>
       <use x="63.623047" xlink:href="#DejaVuSans-54"/>
       <use x="127.246094" xlink:href="#DejaVuSans-49"/>
       <use x="190.869141" xlink:href="#DejaVuSans-46"/>
       <use x="222.65625" xlink:href="#DejaVuSans-54"/>
       <use x="286.279297" xlink:href="#DejaVuSans-55"/>
       <use x="349.902344" xlink:href="#DejaVuSans-48"/>
      </g>
     </g>
    </g>
    <g id="text_17">
     <!-- observed (m) -->
     <g style="fill:#808080;" transform="translate(14.798437 192.155076)rotate(-90)scale(0.1 -0.1)">
      <defs>
       <path d="M 30.609375 48.390625 
Q 23.390625 48.390625 19.1875 42.75 
Q 14.984375 37.109375 14.984375 27.296875 
Q 14.984375 17.484375 19.15625 11.84375 
Q 23.34375 6.203125 30.609375 6.203125 
Q 37.796875 6.203125 41.984375 11.859375 
Q 46.1875 17.53125 46.1875 27.296875 
Q 46.1875 37.015625 41.984375 42.703125 
Q 37.796875 48.390625 30.609375 48.390625 
z
M 30.609375 56 
Q 42.328125 56 49.015625 48.375 
Q 55.71875 40.765625 55.71875 27.296875 
Q 55.71875 13.875 49.015625 6.21875 
Q 42.328125 -1.421875 30.609375 -1.421875 
Q 18.84375 -1.421875 12.171875 6.21875 
Q 5.515625 13.875 5.515625 27.296875 
Q 5.515625 40.765625 12.171875 48.375 
Q 18.84375 56 30.609375 56 
z
" id="DejaVuSans-111"/>
       <path d="M 48.6875 27.296875 
Q 48.6875 37.203125 44.609375 42.84375 
Q 40.53125 48.484375 33.40625 48.484375 
Q 26.265625 48.484375 22.1875 42.84375 
Q 18.109375 37.203125 18.109375 27.296875 
Q 18.109375 17.390625 22.1875 11.75 
Q 26.265625 6.109375 33.40625 6.109375 
Q 40.53125 6.109375 44.609375 11.75 
Q 48.6875 17.390625 48.6875 27.296875 
z
M 18.109375 46.390625 
Q 20.953125 51.265625 25.265625 53.625 
Q 29.59375 56 35.59375 56 
Q 45.5625 56 51.78125 48.09375 
Q 58.015625 40.1875 58.015625 27.296875 
Q 58.015625 14.40625 51.78125 6.484375 
Q 45.5625 -1.421875 35.59375 -1.421875 
Q 29.59375 -1.421875 25.265625 0.953125 
Q 20.953125 3.328125 18.109375 8.203125 
L 18.109375 0 
L 9.078125 0 
L 9.078125 75.984375 
L 18.109375 75.984375 
z
" id="DejaVuSans-98"/>
       <path d="M 44.28125 53.078125 
L 44.28125 44.578125 
Q 40.484375 46.53125 36.375 47.5 
Q 32.28125 48.484375 27.875 48.484375 
Q 21.1875 48.484375 17.84375 46.4375 
Q 14.5 44.390625 14.5 40.28125 
Q 14.5 37.15625 16.890625 35.375 
Q 19.28125 33.59375 26.515625 31.984375 
L 29.59375 31.296875 
Q 39.15625 29.25 43.1875 25.515625 
Q 47.21875 21.78125 47.21875 15.09375 
Q 47.21875 7.46875 41.1875 3.015625 
Q 35.15625 -1.421875 24.609375 -1.421875 
Q 20.21875 -1.421875 15.453125 -0.5625 
Q 10.6875 0.296875 5.421875 2 
L 5.421875 11.28125 
Q 10.40625 8.6875 15.234375 7.390625 
Q 20.0625 6.109375 24.8125 6.109375 
Q 31.15625 6.109375 34.5625 8.28125 
Q 37.984375 10.453125 37.984375 14.40625 
Q 37.984375 18.0625 35.515625 20.015625 
Q 33.0625 21.96875 24.703125 23.78125 
L 21.578125 24.515625 
Q 13.234375 26.265625 9.515625 29.90625 
Q 5.8125 33.546875 5.8125 39.890625 
Q 5.8125 47.609375 11.28125 51.796875 
Q 16.75 56 26.8125 56 
Q 31.78125 56 36.171875 55.265625 
Q 40.578125 54.546875 44.28125 53.078125 
z
" id="DejaVuSans-115"/>
       <path d="M 56.203125 29.59375 
L 56.203125 25.203125 
L 14.890625 25.203125 
Q 15.484375 15.921875 20.484375 11.0625 
Q 25.484375 6.203125 34.421875 6.203125 
Q 39.59375 6.203125 44.453125 7.46875 
Q 49.3125 8.734375 54.109375 11.28125 
L 54.109375 2.78125 
Q 49.265625 0.734375 44.1875 -0.34375 
Q 39.109375 -1.421875 33.890625 -1.421875 
Q 20.796875 -1.421875 13.15625 6.1875 
Q 5.515625 13.8125 5.515625 26.8125 
Q 5.515625 40.234375 12.765625 48.109375 
Q 20.015625 56 32.328125 56 
Q 43.359375 56 49.78125 48.890625 
Q 56.203125 41.796875 56.203125 29.59375 
z
M 47.21875 32.234375 
Q 47.125 39.59375 43.09375 43.984375 
Q 39.0625 48.390625 32.421875 48.390625 
Q 24.90625 48.390625 20.390625 44.140625 
Q 15.875 39.890625 15.1875 32.171875 
z
" id="DejaVuSans-101"/>
       <path d="M 41.109375 46.296875 
Q 39.59375 47.171875 37.8125 47.578125 
Q 36.03125 48 33.890625 48 
Q 26.265625 48 22.1875 43.046875 
Q 18.109375 38.09375 18.109375 28.8125 
L 18.109375 0 
L 9.078125 0 
L 9.078125 54.6875 
L 18.109375 54.6875 
L 18.109375 46.1875 
Q 20.953125 51.171875 25.484375 53.578125 
Q 30.03125 56 36.53125 56 
Q 37.453125 56 38.578125 55.875 
Q 39.703125 55.765625 41.0625 55.515625 
z
" id="DejaVuSans-114"/>
       <path d="M 2.984375 54.6875 
L 12.5 54.6875 
L 29.59375 8.796875 
L 46.6875 54.6875 
L 56.203125 54.6875 
L 35.6875 0 
L 23.484375 0 
z
" id="DejaVuSans-118"/>
       <path d="M 45.40625 46.390625 
L 45.40625 75.984375 
L 54.390625 75.984375 
L 54.390625 0 
L 45.40625 0 
L 45.40625 8.203125 
Q 42.578125 3.328125 38.25 0.953125 
Q 33.9375 -1.421875 27.875 -1.421875 
Q 17.96875 -1.421875 11.734375 6.484375 
Q 5.515625 14.40625 5.515625 27.296875 
Q 5.515625 40.1875 11.734375 48.09375 
Q 17.96875 56 27.875 56 
Q 33.9375 56 38.25 53.625 
Q 42.578125 51.265625 45.40625 46.390625 
z
M 14.796875 27.296875 
Q 14.796875 17.390625 18.875 11.75 
Q 22.953125 6.109375 30.078125 6.109375 
Q 37.203125 6.109375 41.296875 11.75 
Q 45.40625 17.390625 45.40625 27.296875 
Q 45.40625 37.203125 41.296875 42.84375 
Q 37.203125 48.484375 30.078125 48.484375 
Q 22.953125 48.484375 18.875 42.84375 
Q 14.796875 37.203125 14.796875 27.296875 
z
" id="DejaVuSans-100"/>
       <path id="DejaVuSans-32"/>
       <path d="M 31 75.875 
Q 24.46875 64.65625 21.28125 53.65625 
Q 18.109375 42.671875 18.109375 31.390625 
Q 18.109375 20.125 21.3125 9.0625 
Q 24.515625 -2 31 -13.1875 
L 23.1875 -13.1875 
Q 15.875 -1.703125 12.234375 9.375 
Q 8.59375 20.453125 8.59375 31.390625 
Q 8.59375 42.28125 12.203125 53.3125 
Q 15.828125 64.359375 23.1875 75.875 
z
" id="DejaVuSans-40"/>
       <path d="M 52 44.1875 
Q 55.375 50.25 60.0625 53.125 
Q 64.75 56 71.09375 56 
Q 79.640625 56 84.28125 50.015625 
Q 88.921875 44.046875 88.921875 33.015625 
L 88.921875 0 
L 79.890625 0 
L 79.890625 32.71875 
Q 79.890625 40.578125 77.09375 44.375 
Q 74.3125 48.1875 68.609375 48.1875 
Q 61.625 48.1875 57.5625 43.546875 
Q 53.515625 38.921875 53.515625 30.90625 
L 53.515625 0 
L 44.484375 0 
L 44.484375 32.71875 
Q 44.484375 40.625 41.703125 44.40625 
Q 38.921875 48.1875 33.109375 48.1875 
Q 26.21875 48.1875 22.15625 43.53125 
Q 18.109375 38.875 18.109375 30.90625 
L 18.109375 0 
L 9.078125 0 
L 9.078125 54.6875 
L 18.109375 54.6875 
L 18.109375 46.1875 
Q 21.1875 51.21875 25.484375 53.609375 
Q 29.78125 56 35.6875 56 
Q 41.65625 56 45.828125 52.96875 
Q 50 49.953125 52 44.1875 
z
" id="DejaVuSans-109"/>
       <path d="M 8.015625 75.875 
L 15.828125 75.875 
Q 23.140625 64.359375 26.78125 53.3125 
Q 30.421875 42.28125 30.421875 31.390625 
Q 30.421875 20.453125 26.78125 9.375 
Q 23.140625 -1.703125 15.828125 -13.1875 
L 8.015625 -13.1875 
Q 14.5 -2 17.703125 9.0625 
Q 20.90625 20.125 20.90625 31.390625 
Q 20.90625 42.671875 17.703125 53.65625 
Q 14.5 64.65625 8.015625 75.875 
z
" id="DejaVuSans-41"/>
      </defs>
      <use xlink:href="#DejaVuSans-111"/>
      <use x="61.181641" xlink:href="#DejaVuSans-98"/>
      <use x="124.658203" xlink:href="#DejaVuSans-115"/>
      <use x="176.757812" xlink:href="#DejaVuSans-101"/>
      <use x="238.28125" xlink:href="#DejaVuSans-114"/>
      <use x="279.394531" xlink:href="#DejaVuSans-118"/>
      <use x="338.574219" xlink:href="#DejaVuSans-101"/>
      <use x="400.097656" xlink:href="#DejaVuSans-100"/>
      <use x="463.574219" xlink:href="#DejaVuSans-32"/>
      <use x="495.361328" xlink:href="#DejaVuSans-40"/>
      <use x="534.375" xlink:href="#DejaVuSans-109"/>
      <use x="631.787109" xlink:href="#DejaVuSans-41"/>
     </g>
    </g>
   </g>
   <g id="line2d_17">
    <path clip-path="url(#p9c4f211668)" d="M 87.180209 115.942387 
L 114.682645 115.942387 
L 115.165144 30.599822 
L 133.017603 30.599822 
L 133.500102 115.942387 
L 133.9826 115.942387 
L 134.465099 30.599822 
L 135.912596 30.599822 
L 136.395095 115.942387 
L 136.877594 115.942387 
L 137.360093 30.599822 
L 137.842591 30.599822 
L 138.32509 115.942387 
L 139.772587 115.942387 
L 140.255086 30.599822 
L 140.737585 30.599822 
L 141.220084 115.942387 
L 174.512507 115.942387 
L 174.995006 201.284952 
L 175.477505 201.284952 
L 175.960003 115.942387 
L 176.442502 115.942387 
L 176.925001 201.284952 
L 177.4075 201.284952 
L 177.889999 115.942387 
L 184.162484 115.942387 
L 184.644983 201.284952 
L 185.127482 201.284952 
L 185.609981 115.942387 
L 186.09248 115.942387 
L 186.574979 201.284952 
L 188.022476 201.284952 
L 188.504974 115.942387 
L 190.917469 115.942387 
L 191.399968 201.284952 
L 195.742458 201.284952 
L 196.224957 115.942387 
L 196.707455 115.942387 
L 197.189954 201.284952 
L 198.637451 201.284952 
L 199.11995 115.942387 
L 199.602449 115.942387 
L 200.084948 201.284952 
L 203.46244 201.284952 
L 203.944939 115.942387 
L 205.392435 115.942387 
L 205.874934 201.284952 
L 207.322431 201.284952 
L 207.80493 115.942387 
L 208.287429 115.942387 
L 208.769928 201.284952 
L 209.252426 201.284952 
L 209.734925 115.942387 
L 211.182422 115.942387 
L 211.664921 201.284952 
L 285.48725 201.284952 
L 285.969749 286.627517 
L 286.452248 286.627517 
L 286.934747 201.284952 
L 308.647197 201.284952 
L 309.129696 286.627517 
L 309.612195 286.627517 
L 310.094694 201.284952 
L 446.159379 201.284952 
L 446.159379 201.284952 
" style="fill:none;stroke:#808080;stroke-linecap:square;stroke-width:0.75;"/>
   </g>
   <g id="patch_3">
    <path d="M 69.23125 299.428901 
L 69.23125 17.798437 
" style="fill:none;stroke:#000000;stroke-linecap:square;stroke-linejoin:miter;stroke-width:0.8;"/>
   </g>
   <g id="patch_4">
    <path d="M 464.108338 299.428901 
L 464.108338 17.798437 
" style="fill:none;stroke:#000000;stroke-linecap:square;stroke-linejoin:miter;stroke-width:0.8;"/>
   </g>
   <g id="patch_5">
    <path d="M 69.23125 299.428901 
L 464.108338 299.428901 
" style="fill:none;stroke:#000000;stroke-linecap:square;stroke-linejoin:miter;stroke-width:0.8;"/>
   </g>
   <g id="patch_6">
    <path d="M 69.23125 17.798437 
L 464.108338 17.798437 
" style="fill:none;stroke:#000000;stroke-linecap:square;stroke-linejoin:miter;stroke-width:0.8;"/>
   </g>
   <g id="legend_1">
    <g id="patch_7">
     <path d="M 453.108338 30.798437 
L 457.108338 30.798437 
Q 459.108338 30.798437 459.108338 28.798437 
L 459.108338 24.798437 
Q 459.108338 22.798437 457.108338 22.798437 
L 453.108338 22.798437 
Q 451.108338 22.798437 451.108338 24.798437 
L 451.108338 28.798437 
Q 451.108338 30.798437 453.108338 30.798437 
z
" style="fill:#ffffff;opacity:0.8;stroke:#cccccc;stroke-linejoin:miter;"/>
    </g>
   </g>
  </g>
  <g id="axes_2">
   <g id="matplotlib.axis_3">
    <g id="ytick_8">
     <g id="line2d_18">
      <defs>
       <path d="M 0 0 
L 3.5 0 
" id="madb17c4df8" style="stroke:#000000;stroke-width:0.8;"/>
      </defs>
      <g>
       <use style="stroke:#000000;stroke-width:0.8;" x="464.108338" xlink:href="#madb17c4df8" y="277.880733"/>
      </g>
     </g>
     <g id="text_18">
      <!-- 0.030 -->
      <g style="fill:#e74c3c;" transform="translate(471.108338 281.679952)scale(0.1 -0.1)">
       <use xlink:href="#DejaVuSans-48"/>
       <use x="63.623047" xlink:href="#DejaVuSans-46"/>
       <use x="95.410156" xlink:href="#DejaVuSans-48"/>
       <use x="159.033203" xlink:href="#DejaVuSans-51"/>
       <use x="222.65625" xlink:href="#DejaVuSans-48"/>
      </g>
     </g>
    </g>
    <g id="ytick_9">
     <g id="line2d_19">
      <g>
       <use style="stroke:#000000;stroke-width:0.8;" x="464.108338" xlink:href="#madb17c4df8" y="216.140181"/>
      </g>
     </g>
     <g id="text_19">
      <!-- 0.035 -->
      <g style="fill:#e74c3c;" transform="translate(471.108338 219.9394)scale(0.1 -0.1)">
       <use xlink:href="#DejaVuSans-48"/>
       <use x="63.623047" xlink:href="#DejaVuSans-46"/>
       <use x="95.410156" xlink:href="#DejaVuSans-48"/>
       <use x="159.033203" xlink:href="#DejaVuSans-51"/>
       <use x="222.65625" xlink:href="#DejaVuSans-53"/>
      </g>
     </g>
    </g>
    <g id="ytick_10">
     <g id="line2d_20">
      <g>
       <use style="stroke:#000000;stroke-width:0.8;" x="464.108338" xlink:href="#madb17c4df8" y="154.39963"/>
      </g>
     </g>
     <g id="text_20">
      <!-- 0.040 -->
      <g style="fill:#e74c3c;" transform="translate(471.108338 158.198849)scale(0.1 -0.1)">
       <use xlink:href="#DejaVuSans-48"/>
       <use x="63.623047" xlink:href="#DejaVuSans-46"/>
       <use x="95.410156" xlink:href="#DejaVuSans-48"/>
       <use x="159.033203" xlink:href="#DejaVuSans-52"/>
       <use x="222.65625" xlink:href="#DejaVuSans-48"/>
      </g>
     </g>
    </g>
    <g id="ytick_11">
     <g id="line2d_21">
      <g>
       <use style="stroke:#000000;stroke-width:0.8;" x="464.108338" xlink:href="#madb17c4df8" y="92.659078"/>
      </g>
     </g>
     <g id="text_21">
      <!-- 0.045 -->
      <g style="fill:#e74c3c;" transform="translate(471.108338 96.458297)scale(0.1 -0.1)">
       <use xlink:href="#DejaVuSans-48"/>
       <use x="63.623047" xlink:href="#DejaVuSans-46"/>
       <use x="95.410156" xlink:href="#DejaVuSans-48"/>
       <use x="159.033203" xlink:href="#DejaVuSans-52"/>
       <use x="222.65625" xlink:href="#DejaVuSans-53"/>
      </g>
     </g>
    </g>
    <g id="ytick_12">
     <g id="line2d_22">
      <g>
       <use style="stroke:#000000;stroke-width:0.8;" x="464.108338" xlink:href="#madb17c4df8" y="30.918527"/>
      </g>
     </g>
     <g id="text_22">
      <!-- 0.050 -->
      <g style="fill:#e74c3c;" transform="translate(471.108338 34.717746)scale(0.1 -0.1)">
       <use xlink:href="#DejaVuSans-48"/>
       <use x="63.623047" xlink:href="#DejaVuSans-46"/>
       <use x="95.410156" xlink:href="#DejaVuSans-48"/>
       <use x="159.033203" xlink:href="#DejaVuSans-53"/>
       <use x="222.65625" xlink:href="#DejaVuSans-48"/>
      </g>
     </g>
    </g>
    <g id="text_23">
     <!-- simulated (m) -->
     <g style="fill:#e74c3c;" transform="translate(511.3349 193.671482)rotate(-90)scale(0.1 -0.1)">
      <defs>
       <path d="M 9.421875 54.6875 
L 18.40625 54.6875 
L 18.40625 0 
L 9.421875 0 
z
M 9.421875 75.984375 
L 18.40625 75.984375 
L 18.40625 64.59375 
L 9.421875 64.59375 
z
" id="DejaVuSans-105"/>
       <path d="M 8.5 21.578125 
L 8.5 54.6875 
L 17.484375 54.6875 
L 17.484375 21.921875 
Q 17.484375 14.15625 20.5 10.265625 
Q 23.53125 6.390625 29.59375 6.390625 
Q 36.859375 6.390625 41.078125 11.03125 
Q 45.3125 15.671875 45.3125 23.6875 
L 45.3125 54.6875 
L 54.296875 54.6875 
L 54.296875 0 
L 45.3125 0 
L 45.3125 8.40625 
Q 42.046875 3.421875 37.71875 1 
Q 33.40625 -1.421875 27.6875 -1.421875 
Q 18.265625 -1.421875 13.375 4.4375 
Q 8.5 10.296875 8.5 21.578125 
z
M 31.109375 56 
z
" id="DejaVuSans-117"/>
       <path d="M 9.421875 75.984375 
L 18.40625 75.984375 
L 18.40625 0 
L 9.421875 0 
z
" id="DejaVuSans-108"/>
       <path d="M 34.28125 27.484375 
Q 23.390625 27.484375 19.1875 25 
Q 14.984375 22.515625 14.984375 16.5 
Q 14.984375 11.71875 18.140625 8.90625 
Q 21.296875 6.109375 26.703125 6.109375 
Q 34.1875 6.109375 38.703125 11.40625 
Q 43.21875 16.703125 43.21875 25.484375 
L 43.21875 27.484375 
z
M 52.203125 31.203125 
L 52.203125 0 
L 43.21875 0 
L 43.21875 8.296875 
Q 40.140625 3.328125 35.546875 0.953125 
Q 30.953125 -1.421875 24.3125 -1.421875 
Q 15.921875 -1.421875 10.953125 3.296875 
Q 6 8.015625 6 15.921875 
Q 6 25.140625 12.171875 29.828125 
Q 18.359375 34.515625 30.609375 34.515625 
L 43.21875 34.515625 
L 43.21875 35.40625 
Q 43.21875 41.609375 39.140625 45 
Q 35.0625 48.390625 27.6875 48.390625 
Q 23 48.390625 18.546875 47.265625 
Q 14.109375 46.140625 10.015625 43.890625 
L 10.015625 52.203125 
Q 14.9375 54.109375 19.578125 55.046875 
Q 24.21875 56 28.609375 56 
Q 40.484375 56 46.34375 49.84375 
Q 52.203125 43.703125 52.203125 31.203125 
z
" id="DejaVuSans-97"/>
       <path d="M 18.3125 70.21875 
L 18.3125 54.6875 
L 36.8125 54.6875 
L 36.8125 47.703125 
L 18.3125 47.703125 
L 18.3125 18.015625 
Q 18.3125 11.328125 20.140625 9.421875 
Q 21.96875 7.515625 27.59375 7.515625 
L 36.8125 7.515625 
L 36.8125 0 
L 27.59375 0 
Q 17.1875 0 13.234375 3.875 
Q 9.28125 7.765625 9.28125 18.015625 
L 9.28125 47.703125 
L 2.6875 47.703125 
L 2.6875 54.6875 
L 9.28125 54.6875 
L 9.28125 70.21875 
z
" id="DejaVuSans-116"/>
      </defs>
      <use xlink:href="#DejaVuSans-115"/>
      <use x="52.099609" xlink:href="#DejaVuSans-105"/>
      <use x="79.882812" xlink:href="#DejaVuSans-109"/>
      <use x="177.294922" xlink:href="#DejaVuSans-117"/>
      <use x="240.673828" xlink:href="#DejaVuSans-108"/>
      <use x="268.457031" xlink:href="#DejaVuSans-97"/>
      <use x="329.736328" xlink:href="#DejaVuSans-116"/>
      <use x="368.945312" xlink:href="#DejaVuSans-101"/>
      <use x="430.46875" xlink:href="#DejaVuSans-100"/>
      <use x="493.945312" xlink:href="#DejaVuSans-32"/>
      <use x="525.732422" xlink:href="#DejaVuSans-40"/>
      <use x="564.746094" xlink:href="#DejaVuSans-109"/>
      <use x="662.158203" xlink:href="#DejaVuSans-41"/>
     </g>
    </g>
    <g id="text_24">
     <!-- +4.616e2 -->
     <g style="fill:#e74c3c;" transform="translate(414.5849 14.798437)scale(0.1 -0.1)">
      <defs>
       <path d="M 46 62.703125 
L 46 35.5 
L 73.1875 35.5 
L 73.1875 27.203125 
L 46 27.203125 
L 46 0 
L 37.796875 0 
L 37.796875 27.203125 
L 10.59375 27.203125 
L 10.59375 35.5 
L 37.796875 35.5 
L 37.796875 62.703125 
z
" id="DejaVuSans-43"/>
      </defs>
      <use xlink:href="#DejaVuSans-43"/>
      <use x="83.789062" xlink:href="#DejaVuSans-52"/>
      <use x="147.412109" xlink:href="#DejaVuSans-46"/>
      <use x="179.199219" xlink:href="#DejaVuSans-54"/>
      <use x="242.822266" xlink:href="#DejaVuSans-49"/>
      <use x="306.445312" xlink:href="#DejaVuSans-54"/>
      <use x="370.068359" xlink:href="#DejaVuSans-101"/>
      <use x="431.591797" xlink:href="#DejaVuSans-50"/>
     </g>
    </g>
   </g>
   <g id="line2d_23">
    <path clip-path="url(#p9c4f211668)" d="M 87.662707 254.262379 
L 88.145206 277.956674 
L 90.557701 278.191782 
L 91.0402 277.121201 
L 92.005197 277.911973 
L 92.487696 278.546666 
L 93.452694 281.886954 
L 94.900191 285.480007 
L 95.38269 286.5354 
L 95.865188 286.627517 
L 96.347687 284.965832 
L 96.830186 281.726552 
L 97.312685 275.309115 
L 97.795184 274.73604 
L 98.277683 274.399677 
L 99.72518 273.917854 
L 101.172676 273.689784 
L 101.655175 221.692509 
L 102.137674 201.544715 
L 102.620173 190.791487 
L 103.102672 188.30112 
L 103.585171 180.470689 
L 104.550168 172.204617 
L 105.032667 155.112857 
L 105.515166 149.04018 
L 105.997665 148.161735 
L 106.480164 148.434134 
L 106.962663 147.856243 
L 107.445162 145.97118 
L 107.927661 138.425867 
L 108.410159 135.265986 
L 108.892658 134.615241 
L 109.857656 133.814219 
L 110.822654 133.22472 
L 111.787652 132.809453 
L 113.235148 132.35887 
L 114.200146 132.145865 
L 114.682645 132.167104 
L 115.165144 132.65078 
L 115.647643 133.991538 
L 116.130142 135.934513 
L 117.095139 141.235803 
L 119.025135 152.818454 
L 119.507634 154.585222 
L 119.990133 155.851768 
L 120.472632 156.558573 
L 120.95513 157.040891 
L 121.920128 157.623721 
L 122.402627 156.71737 
L 123.367625 151.869255 
L 125.29762 151.451148 
L 125.780119 151.378912 
L 126.262618 151.460286 
L 127.227616 152.287733 
L 127.710115 152.91193 
L 128.675113 156.404099 
L 130.122609 165.3161 
L 131.087607 168.859761 
L 131.570106 170.041475 
L 132.052605 170.829285 
L 132.535104 171.173673 
L 133.500102 171.614007 
L 134.947598 172.240427 
L 136.877594 172.700764 
L 137.360093 172.804365 
L 138.32509 173.441651 
L 138.807589 173.936316 
L 139.290088 173.536484 
L 139.772587 165.698892 
L 140.255086 166.079831 
L 140.737585 164.505323 
L 141.220084 160.201266 
L 142.185081 160.768785 
L 143.150079 161.312472 
L 143.632578 161.437806 
L 147.492569 161.386932 
L 148.940066 161.597961 
L 149.422565 161.936299 
L 149.905064 162.840304 
L 150.870061 165.719636 
L 151.835059 170.840645 
L 153.282556 179.68041 
L 154.247554 184.290947 
L 154.730052 185.839524 
L 155.212551 186.727106 
L 155.69505 187.075446 
L 157.142547 187.48207 
L 158.590044 187.612589 
L 160.520039 187.665192 
L 161.002538 187.972043 
L 161.485037 188.901361 
L 161.967536 190.513407 
L 162.450035 192.886097 
L 163.415032 199.16437 
L 165.345028 212.587877 
L 165.827527 215.106768 
L 166.310026 216.926015 
L 166.792525 217.976839 
L 167.757522 218.552755 
L 168.240021 218.748843 
L 170.170017 218.957526 
L 172.100012 219.045321 
L 172.582511 219.350073 
L 173.06501 220.359407 
L 173.547509 222.216933 
L 174.030008 224.792873 
L 175.477505 235.157136 
L 176.925001 245.288143 
L 177.889999 248.825753 
L 178.372498 249.842249 
L 178.854997 250.368896 
L 179.819994 250.723534 
L 181.267491 250.966668 
L 183.679986 251.074467 
L 184.162484 246.377987 
L 184.644983 246.87117 
L 185.127482 248.634481 
L 186.574979 255.546829 
L 188.022476 266.354266 
L 188.987473 271.867574 
L 189.469972 273.587542 
L 189.952471 274.282 
L 190.917469 274.929411 
L 191.882467 275.356779 
L 192.847464 275.562499 
L 194.77746 275.696229 
L 195.259959 268.329963 
L 195.742458 227.713942 
L 196.224957 200.608234 
L 196.707455 196.687586 
L 197.189954 195.56613 
L 197.672453 196.50187 
L 198.154952 197.739645 
L 200.084948 210.453877 
L 200.567447 212.831505 
L 201.049945 214.396752 
L 201.532444 215.04725 
L 202.497442 215.299645 
L 204.427438 215.411643 
L 206.357433 215.502031 
L 206.839932 214.360695 
L 207.322431 214.568267 
L 207.80493 213.881342 
L 208.287429 214.346371 
L 208.769928 214.989337 
L 209.252426 216.925768 
L 209.734925 219.772995 
L 210.217424 221.441349 
L 211.182422 223.127236 
L 211.664921 223.819595 
L 212.14742 215.721086 
L 212.629919 213.404828 
L 213.112418 213.288879 
L 213.594916 206.79649 
L 214.077415 190.234957 
L 214.559914 169.725981 
L 215.042413 156.292966 
L 216.007411 138.563549 
L 216.48991 135.309822 
L 216.972409 133.970422 
L 217.937406 132.540758 
L 218.419905 132.170438 
L 218.902404 132.098078 
L 219.867402 133.267074 
L 220.349901 133.845953 
L 220.8324 135.124971 
L 221.797398 138.522677 
L 223.244894 145.185717 
L 223.727393 146.819866 
L 224.209892 147.821051 
L 224.692391 148.311271 
L 225.17489 148.580459 
L 229.51738 149.363824 
L 229.999879 148.243356 
L 230.482377 148.439938 
L 230.964876 147.708683 
L 231.447375 131.695406 
L 231.929874 130.825976 
L 232.412373 130.809183 
L 233.377371 129.778115 
L 233.85987 130.307108 
L 234.342369 128.698767 
L 236.272364 129.820346 
L 238.20236 130.089535 
L 238.684858 130.120158 
L 239.167357 122.454945 
L 239.649856 101.683818 
L 240.132355 87.770462 
L 240.614854 61.153986 
L 241.097353 45.680199 
L 241.579852 35.661066 
L 242.062351 32.118393 
L 242.54485 31.036451 
L 243.027348 30.599822 
L 243.509847 30.618591 
L 244.474845 31.507161 
L 245.439843 32.89015 
L 246.404841 34.251405 
L 247.369838 35.347424 
L 248.334836 35.931613 
L 252.677326 37.830135 
L 253.159825 38.066848 
L 254.124823 38.957888 
L 255.089821 40.31334 
L 256.537317 42.89533 
L 257.984814 45.379646 
L 258.467313 46.519747 
L 258.949812 47.189755 
L 259.432311 47.60601 
L 260.397308 47.879274 
L 261.844805 47.959166 
L 264.739798 47.971144 
L 265.222297 48.360727 
L 265.704796 49.265473 
L 266.187295 51.014583 
L 267.152293 56.056192 
L 270.047286 73.301563 
L 270.529785 74.979301 
L 271.012284 76.009998 
L 271.977282 76.531705 
L 272.942279 76.806945 
L 274.389776 76.910299 
L 276.319772 76.959814 
L 276.80227 77.391628 
L 277.284769 78.481596 
L 277.767268 80.328009 
L 278.732266 85.977516 
L 281.14476 102.6019 
L 282.109758 107.154031 
L 282.592257 108.377976 
L 283.074756 108.811641 
L 284.039754 109.284204 
L 285.004751 109.545984 
L 287.899745 109.825668 
L 288.382244 110.318234 
L 288.864743 111.499455 
L 289.347241 113.370811 
L 289.82974 115.837222 
L 290.794738 122.422346 
L 292.242235 133.08852 
L 293.207233 138.648751 
L 293.689731 140.459725 
L 294.17223 141.629461 
L 295.137228 142.255881 
L 296.584725 142.651267 
L 299.479718 142.97096 
L 299.962217 143.549716 
L 300.444716 144.870099 
L 300.927215 146.919392 
L 301.892212 152.907114 
L 303.339709 163.123199 
L 304.787206 171.241094 
L 305.269705 172.641987 
L 305.752204 173.64984 
L 306.717201 174.901815 
L 307.682199 175.826812 
L 309.129696 176.796879 
L 310.094694 177.244869 
L 311.059691 177.555177 
L 311.54219 177.92525 
L 312.024689 178.528578 
L 312.989687 181.112544 
L 313.472186 182.834858 
L 314.919682 192.22325 
L 315.88468 197.180893 
L 316.849678 199.761524 
L 317.332177 200.788764 
L 317.814676 201.179952 
L 319.744671 201.678568 
L 321.192168 201.797604 
L 322.639665 201.845638 
L 323.122163 202.349194 
L 323.604662 203.515844 
L 324.087161 205.362504 
L 324.56966 207.803849 
L 327.947152 228.41766 
L 328.429651 230.152817 
L 328.91215 231.043857 
L 330.359647 231.50901 
L 332.289642 231.716952 
L 334.219638 231.794869 
L 334.702137 232.240512 
L 335.184636 233.404939 
L 336.149633 237.334725 
L 336.632132 240.276292 
L 337.59713 243.900092 
L 338.562128 250.551278 
L 339.044627 253.341333 
L 340.009624 255.682288 
L 340.492123 256.445772 
L 340.974622 256.888081 
L 342.904618 257.419667 
L 344.352114 258.100912 
L 345.799611 258.274897 
L 346.28211 258.515191 
L 346.764609 258.950709 
L 347.247108 257.545 
L 347.729607 246.113861 
L 348.212105 247.686887 
L 348.694604 250.178859 
L 349.177103 207.563307 
L 351.107099 93.89142 
L 351.589598 67.166405 
L 352.554595 53.611514 
L 353.037094 51.74769 
L 353.519593 50.674269 
L 354.002092 49.879544 
L 354.484591 49.349934 
L 355.449589 48.66412 
L 356.897085 48.227738 
L 357.379584 48.167232 
L 357.862083 48.341217 
L 358.344582 49.18842 
L 358.827081 50.467808 
L 360.757076 57.972002 
L 362.204573 66.088662 
L 362.687072 68.384052 
L 363.169571 70.081917 
L 363.65207 71.034697 
L 364.134569 71.557393 
L 365.099566 71.778053 
L 368.959558 72.116762 
L 369.442056 72.32137 
L 369.924555 72.682059 
L 370.407054 73.200803 
L 370.889553 73.916252 
L 371.372052 75.621156 
L 372.33705 78.110041 
L 374.267045 84.700968 
L 374.749544 85.8691 
L 375.232043 86.553679 
L 376.197041 86.850404 
L 377.644537 86.957462 
L 380.539531 87.020437 
L 381.02203 87.533254 
L 381.504529 88.620012 
L 382.469526 92.507073 
L 382.952025 94.845064 
L 384.882021 106.251261 
L 385.847018 110.306751 
L 386.329517 112.008197 
L 386.812016 113.133727 
L 387.294515 113.678155 
L 388.259513 114.076135 
L 390.672007 114.566355 
L 392.119504 114.699714 
L 392.602003 115.256861 
L 393.084502 116.466359 
L 393.567001 118.450947 
L 394.531998 124.04958 
L 396.944493 140.059646 
L 397.909491 144.248125 
L 398.39199 145.292281 
L 398.874488 145.794602 
L 399.839486 146.201843 
L 401.286983 146.447447 
L 403.699477 146.67564 
L 404.181976 146.895313 
L 404.664475 147.378247 
L 405.146974 148.979797 
L 405.629473 151.22703 
L 406.111972 154.008318 
L 406.594471 155.935735 
L 408.041967 163.221614 
L 408.524466 164.252434 
L 409.489464 167.537896 
L 409.971963 168.734675 
L 410.454462 169.440616 
L 411.419459 169.979858 
L 412.384457 170.432663 
L 413.349455 171.175773 
L 415.27945 171.824542 
L 415.761949 172.442812 
L 416.244448 173.687872 
L 416.726947 175.378452 
L 417.691945 179.958366 
L 420.586938 195.255946 
L 421.069437 196.910222 
L 421.551936 197.978334 
L 422.034435 198.508685 
L 422.999433 199.173878 
L 425.411927 200.115298 
L 426.859424 200.639228 
L 427.341923 201.227862 
L 427.824422 202.416121 
L 428.30692 204.161773 
L 429.271918 208.981858 
L 430.236916 214.674831 
L 431.684413 220.588341 
L 432.64941 223.869357 
L 433.131909 224.803616 
L 433.614408 225.239751 
L 435.061905 225.728489 
L 436.9919 226.059665 
L 438.439397 226.280943 
L 438.921896 226.778696 
L 439.404395 227.822975 
L 439.886894 229.467867 
L 440.851891 234.263626 
L 443.264386 247.624282 
L 444.229384 251.193132 
L 444.711882 252.347557 
L 445.194381 252.952862 
L 446.159379 253.509144 
L 446.159379 253.509144 
" style="fill:none;stroke:#e74c3c;stroke-linecap:square;stroke-width:0.75;"/>
   </g>
   <g id="patch_8">
    <path d="M 69.23125 299.428901 
L 69.23125 17.798437 
" style="fill:none;stroke:#000000;stroke-linecap:square;stroke-linejoin:miter;stroke-width:0.8;"/>
   </g>
   <g id="patch_9">
    <path d="M 464.108338 299.428901 
L 464.108338 17.798437 
" style="fill:none;stroke:#000000;stroke-linecap:square;stroke-linejoin:miter;stroke-width:0.8;"/>
   </g>
   <g id="patch_10">
    <path d="M 69.23125 299.428901 
L 464.108338 299.428901 
" style="fill:none;stroke:#000000;stroke-linecap:square;stroke-linejoin:miter;stroke-width:0.8;"/>
   </g>
   <g id="patch_11">
    <path d="M 69.23125 17.798437 
L 464.108338 17.798437 
" style="fill:none;stroke:#000000;stroke-linecap:square;stroke-linejoin:miter;stroke-width:0.8;"/>
   </g>
   <g id="legend_2">
    <g id="patch_12">
     <path d="M 453.108338 30.798437 
L 457.108338 30.798437 
Q 459.108338 30.798437 459.108338 28.798437 
L 459.108338 24.798437 
Q 459.108338 22.798437 457.108338 22.798437 
L 453.108338 22.798437 
Q 451.108338 22.798437 451.108338 24.798437 
L 451.108338 28.798437 
Q 451.108338 30.798437 453.108338 30.798437 
z
" style="fill:#ffffff;opacity:0.8;stroke:#cccccc;stroke-linejoin:miter;"/>
    </g>
   </g>
  </g>
 </g>
 <defs>
  <clipPath id="p9c4f211668">
   <rect height="281.630464" width="394.877088" x="69.23125" y="17.798437"/>
  </clipPath>
 </defs>
</svg>
