<?xml version="1.0" encoding="utf-8" standalone="no"?>
<!DOCTYPE svg PUBLIC "-//W3C//DTD SVG 1.1//EN"
  "http://www.w3.org/Graphics/SVG/1.1/DTD/svg11.dtd">
<!-- Created with matplotlib (https://matplotlib.org/) -->
<svg height="338.067279pt" version="1.1" viewBox="0 0 453.554687 338.067279" width="453.554687pt" xmlns="http://www.w3.org/2000/svg" xmlns:xlink="http://www.w3.org/1999/xlink">
 <metadata>
  <rdf:RDF xmlns:cc="http://creativecommons.org/ns#" xmlns:dc="http://purl.org/dc/elements/1.1/" xmlns:rdf="http://www.w3.org/1999/02/22-rdf-syntax-ns#">
   <cc:Work>
    <dc:type rdf:resource="http://purl.org/dc/dcmitype/StillImage"/>
    <dc:date>2021-04-19T19:47:01.583937</dc:date>
    <dc:format>image/svg+xml</dc:format>
    <dc:creator>
     <cc:Agent>
      <dc:title>Matplotlib v3.3.2, https://matplotlib.org/</dc:title>
     </cc:Agent>
    </dc:creator>
   </cc:Work>
  </rdf:RDF>
 </metadata>
 <defs>
  <style type="text/css">*{stroke-linecap:butt;stroke-linejoin:round;}</style>
 </defs>
 <g id="figure_1">
  <g id="patch_1">
   <path d="M 0 338.067279 
L 453.554687 338.067279 
L 453.554687 0 
L 0 0 
z
" style="fill:#ffffff;"/>
  </g>
  <g id="axes_1">
   <g id="patch_2">
    <path d="M 35.304688 292.790464 
L 446.354688 292.790464 
L 446.354688 7.2 
L 35.304688 7.2 
z
" style="fill:#ffffff;"/>
   </g>
   <g id="matplotlib.axis_1">
    <g id="xtick_1">
     <g id="line2d_1">
      <defs>
       <path d="M 0 0 
L 0 3.5 
" id="mf806fd7a95" style="stroke:#000000;stroke-width:0.8;"/>
      </defs>
      <g>
       <use style="stroke:#000000;stroke-width:0.8;" x="53.485842" xlink:href="#mf806fd7a95" y="292.790464"/>
      </g>
     </g>
     <g id="text_1">
      <!-- 01-05-20 -->
      <g transform="translate(13.136564 329.066216)rotate(-30)scale(0.1 -0.1)">
       <defs>
        <path d="M 31.78125 66.40625 
Q 24.171875 66.40625 20.328125 58.90625 
Q 16.5 51.421875 16.5 36.375 
Q 16.5 21.390625 20.328125 13.890625 
Q 24.171875 6.390625 31.78125 6.390625 
Q 39.453125 6.390625 43.28125 13.890625 
Q 47.125 21.390625 47.125 36.375 
Q 47.125 51.421875 43.28125 58.90625 
Q 39.453125 66.40625 31.78125 66.40625 
z
M 31.78125 74.21875 
Q 44.046875 74.21875 50.515625 64.515625 
Q 56.984375 54.828125 56.984375 36.375 
Q 56.984375 17.96875 50.515625 8.265625 
Q 44.046875 -1.421875 31.78125 -1.421875 
Q 19.53125 -1.421875 13.0625 8.265625 
Q 6.59375 17.96875 6.59375 36.375 
Q 6.59375 54.828125 13.0625 64.515625 
Q 19.53125 74.21875 31.78125 74.21875 
z
" id="DejaVuSans-48"/>
        <path d="M 12.40625 8.296875 
L 28.515625 8.296875 
L 28.515625 63.921875 
L 10.984375 60.40625 
L 10.984375 69.390625 
L 28.421875 72.90625 
L 38.28125 72.90625 
L 38.28125 8.296875 
L 54.390625 8.296875 
L 54.390625 0 
L 12.40625 0 
z
" id="DejaVuSans-49"/>
        <path d="M 4.890625 31.390625 
L 31.203125 31.390625 
L 31.203125 23.390625 
L 4.890625 23.390625 
z
" id="DejaVuSans-45"/>
        <path d="M 10.796875 72.90625 
L 49.515625 72.90625 
L 49.515625 64.59375 
L 19.828125 64.59375 
L 19.828125 46.734375 
Q 21.96875 47.46875 24.109375 47.828125 
Q 26.265625 48.1875 28.421875 48.1875 
Q 40.625 48.1875 47.75 41.5 
Q 54.890625 34.8125 54.890625 23.390625 
Q 54.890625 11.625 47.5625 5.09375 
Q 40.234375 -1.421875 26.90625 -1.421875 
Q 22.3125 -1.421875 17.546875 -0.640625 
Q 12.796875 0.140625 7.71875 1.703125 
L 7.71875 11.625 
Q 12.109375 9.234375 16.796875 8.0625 
Q 21.484375 6.890625 26.703125 6.890625 
Q 35.15625 6.890625 40.078125 11.328125 
Q 45.015625 15.765625 45.015625 23.390625 
Q 45.015625 31 40.078125 35.4375 
Q 35.15625 39.890625 26.703125 39.890625 
Q 22.75 39.890625 18.8125 39.015625 
Q 14.890625 38.140625 10.796875 36.28125 
z
" id="DejaVuSans-53"/>
        <path d="M 19.1875 8.296875 
L 53.609375 8.296875 
L 53.609375 0 
L 7.328125 0 
L 7.328125 8.296875 
Q 12.9375 14.109375 22.625 23.890625 
Q 32.328125 33.6875 34.8125 36.53125 
Q 39.546875 41.84375 41.421875 45.53125 
Q 43.3125 49.21875 43.3125 52.78125 
Q 43.3125 58.59375 39.234375 62.25 
Q 35.15625 65.921875 28.609375 65.921875 
Q 23.96875 65.921875 18.8125 64.3125 
Q 13.671875 62.703125 7.8125 59.421875 
L 7.8125 69.390625 
Q 13.765625 71.78125 18.9375 73 
Q 24.125 74.21875 28.421875 74.21875 
Q 39.75 74.21875 46.484375 68.546875 
Q 53.21875 62.890625 53.21875 53.421875 
Q 53.21875 48.921875 51.53125 44.890625 
Q 49.859375 40.875 45.40625 35.40625 
Q 44.1875 33.984375 37.640625 27.21875 
Q 31.109375 20.453125 19.1875 8.296875 
z
" id="DejaVuSans-50"/>
       </defs>
       <use xlink:href="#DejaVuSans-48"/>
       <use x="63.623047" xlink:href="#DejaVuSans-49"/>
       <use x="127.246094" xlink:href="#DejaVuSans-45"/>
       <use x="163.330078" xlink:href="#DejaVuSans-48"/>
       <use x="226.953125" xlink:href="#DejaVuSans-53"/>
       <use x="290.576172" xlink:href="#DejaVuSans-45"/>
       <use x="326.660156" xlink:href="#DejaVuSans-50"/>
       <use x="390.283203" xlink:href="#DejaVuSans-48"/>
      </g>
     </g>
    </g>
    <g id="xtick_2">
     <g id="line2d_2">
      <g>
       <use style="stroke:#000000;stroke-width:0.8;" x="101.767746" xlink:href="#mf806fd7a95" y="292.790464"/>
      </g>
     </g>
     <g id="text_2">
      <!-- 05-05-20 -->
      <g transform="translate(61.418468 329.066216)rotate(-30)scale(0.1 -0.1)">
       <use xlink:href="#DejaVuSans-48"/>
       <use x="63.623047" xlink:href="#DejaVuSans-53"/>
       <use x="127.246094" xlink:href="#DejaVuSans-45"/>
       <use x="163.330078" xlink:href="#DejaVuSans-48"/>
       <use x="226.953125" xlink:href="#DejaVuSans-53"/>
       <use x="290.576172" xlink:href="#DejaVuSans-45"/>
       <use x="326.660156" xlink:href="#DejaVuSans-50"/>
       <use x="390.283203" xlink:href="#DejaVuSans-48"/>
      </g>
     </g>
    </g>
    <g id="xtick_3">
     <g id="line2d_3">
      <g>
       <use style="stroke:#000000;stroke-width:0.8;" x="150.04965" xlink:href="#mf806fd7a95" y="292.790464"/>
      </g>
     </g>
     <g id="text_3">
      <!-- 09-05-20 -->
      <g transform="translate(109.700371 329.066216)rotate(-30)scale(0.1 -0.1)">
       <defs>
        <path d="M 10.984375 1.515625 
L 10.984375 10.5 
Q 14.703125 8.734375 18.5 7.8125 
Q 22.3125 6.890625 25.984375 6.890625 
Q 35.75 6.890625 40.890625 13.453125 
Q 46.046875 20.015625 46.78125 33.40625 
Q 43.953125 29.203125 39.59375 26.953125 
Q 35.25 24.703125 29.984375 24.703125 
Q 19.046875 24.703125 12.671875 31.3125 
Q 6.296875 37.9375 6.296875 49.421875 
Q 6.296875 60.640625 12.9375 67.421875 
Q 19.578125 74.21875 30.609375 74.21875 
Q 43.265625 74.21875 49.921875 64.515625 
Q 56.59375 54.828125 56.59375 36.375 
Q 56.59375 19.140625 48.40625 8.859375 
Q 40.234375 -1.421875 26.421875 -1.421875 
Q 22.703125 -1.421875 18.890625 -0.6875 
Q 15.09375 0.046875 10.984375 1.515625 
z
M 30.609375 32.421875 
Q 37.25 32.421875 41.125 36.953125 
Q 45.015625 41.5 45.015625 49.421875 
Q 45.015625 57.28125 41.125 61.84375 
Q 37.25 66.40625 30.609375 66.40625 
Q 23.96875 66.40625 20.09375 61.84375 
Q 16.21875 57.28125 16.21875 49.421875 
Q 16.21875 41.5 20.09375 36.953125 
Q 23.96875 32.421875 30.609375 32.421875 
z
" id="DejaVuSans-57"/>
       </defs>
       <use xlink:href="#DejaVuSans-48"/>
       <use x="63.623047" xlink:href="#DejaVuSans-57"/>
       <use x="127.246094" xlink:href="#DejaVuSans-45"/>
       <use x="163.330078" xlink:href="#DejaVuSans-48"/>
       <use x="226.953125" xlink:href="#DejaVuSans-53"/>
       <use x="290.576172" xlink:href="#DejaVuSans-45"/>
       <use x="326.660156" xlink:href="#DejaVuSans-50"/>
       <use x="390.283203" xlink:href="#DejaVuSans-48"/>
      </g>
     </g>
    </g>
    <g id="xtick_4">
     <g id="line2d_4">
      <g>
       <use style="stroke:#000000;stroke-width:0.8;" x="198.331553" xlink:href="#mf806fd7a95" y="292.790464"/>
      </g>
     </g>
     <g id="text_4">
      <!-- 13-05-20 -->
      <g transform="translate(157.982275 329.066216)rotate(-30)scale(0.1 -0.1)">
       <defs>
        <path d="M 40.578125 39.3125 
Q 47.65625 37.796875 51.625 33 
Q 55.609375 28.21875 55.609375 21.1875 
Q 55.609375 10.40625 48.1875 4.484375 
Q 40.765625 -1.421875 27.09375 -1.421875 
Q 22.515625 -1.421875 17.65625 -0.515625 
Q 12.796875 0.390625 7.625 2.203125 
L 7.625 11.71875 
Q 11.71875 9.328125 16.59375 8.109375 
Q 21.484375 6.890625 26.8125 6.890625 
Q 36.078125 6.890625 40.9375 10.546875 
Q 45.796875 14.203125 45.796875 21.1875 
Q 45.796875 27.640625 41.28125 31.265625 
Q 36.765625 34.90625 28.71875 34.90625 
L 20.21875 34.90625 
L 20.21875 43.015625 
L 29.109375 43.015625 
Q 36.375 43.015625 40.234375 45.921875 
Q 44.09375 48.828125 44.09375 54.296875 
Q 44.09375 59.90625 40.109375 62.90625 
Q 36.140625 65.921875 28.71875 65.921875 
Q 24.65625 65.921875 20.015625 65.03125 
Q 15.375 64.15625 9.8125 62.3125 
L 9.8125 71.09375 
Q 15.4375 72.65625 20.34375 73.4375 
Q 25.25 74.21875 29.59375 74.21875 
Q 40.828125 74.21875 47.359375 69.109375 
Q 53.90625 64.015625 53.90625 55.328125 
Q 53.90625 49.265625 50.4375 45.09375 
Q 46.96875 40.921875 40.578125 39.3125 
z
" id="DejaVuSans-51"/>
       </defs>
       <use xlink:href="#DejaVuSans-49"/>
       <use x="63.623047" xlink:href="#DejaVuSans-51"/>
       <use x="127.246094" xlink:href="#DejaVuSans-45"/>
       <use x="163.330078" xlink:href="#DejaVuSans-48"/>
       <use x="226.953125" xlink:href="#DejaVuSans-53"/>
       <use x="290.576172" xlink:href="#DejaVuSans-45"/>
       <use x="326.660156" xlink:href="#DejaVuSans-50"/>
       <use x="390.283203" xlink:href="#DejaVuSans-48"/>
      </g>
     </g>
    </g>
    <g id="xtick_5">
     <g id="line2d_5">
      <g>
       <use style="stroke:#000000;stroke-width:0.8;" x="246.613457" xlink:href="#mf806fd7a95" y="292.790464"/>
      </g>
     </g>
     <g id="text_5">
      <!-- 17-05-20 -->
      <g transform="translate(206.264179 329.066216)rotate(-30)scale(0.1 -0.1)">
       <defs>
        <path d="M 8.203125 72.90625 
L 55.078125 72.90625 
L 55.078125 68.703125 
L 28.609375 0 
L 18.3125 0 
L 43.21875 64.59375 
L 8.203125 64.59375 
z
" id="DejaVuSans-55"/>
       </defs>
       <use xlink:href="#DejaVuSans-49"/>
       <use x="63.623047" xlink:href="#DejaVuSans-55"/>
       <use x="127.246094" xlink:href="#DejaVuSans-45"/>
       <use x="163.330078" xlink:href="#DejaVuSans-48"/>
       <use x="226.953125" xlink:href="#DejaVuSans-53"/>
       <use x="290.576172" xlink:href="#DejaVuSans-45"/>
       <use x="326.660156" xlink:href="#DejaVuSans-50"/>
       <use x="390.283203" xlink:href="#DejaVuSans-48"/>
      </g>
     </g>
    </g>
    <g id="xtick_6">
     <g id="line2d_6">
      <g>
       <use style="stroke:#000000;stroke-width:0.8;" x="294.895361" xlink:href="#mf806fd7a95" y="292.790464"/>
      </g>
     </g>
     <g id="text_6">
      <!-- 21-05-20 -->
      <g transform="translate(254.546083 329.066216)rotate(-30)scale(0.1 -0.1)">
       <use xlink:href="#DejaVuSans-50"/>
       <use x="63.623047" xlink:href="#DejaVuSans-49"/>
       <use x="127.246094" xlink:href="#DejaVuSans-45"/>
       <use x="163.330078" xlink:href="#DejaVuSans-48"/>
       <use x="226.953125" xlink:href="#DejaVuSans-53"/>
       <use x="290.576172" xlink:href="#DejaVuSans-45"/>
       <use x="326.660156" xlink:href="#DejaVuSans-50"/>
       <use x="390.283203" xlink:href="#DejaVuSans-48"/>
      </g>
     </g>
    </g>
    <g id="xtick_7">
     <g id="line2d_7">
      <g>
       <use style="stroke:#000000;stroke-width:0.8;" x="343.177265" xlink:href="#mf806fd7a95" y="292.790464"/>
      </g>
     </g>
     <g id="text_7">
      <!-- 25-05-20 -->
      <g transform="translate(302.827987 329.066216)rotate(-30)scale(0.1 -0.1)">
       <use xlink:href="#DejaVuSans-50"/>
       <use x="63.623047" xlink:href="#DejaVuSans-53"/>
       <use x="127.246094" xlink:href="#DejaVuSans-45"/>
       <use x="163.330078" xlink:href="#DejaVuSans-48"/>
       <use x="226.953125" xlink:href="#DejaVuSans-53"/>
       <use x="290.576172" xlink:href="#DejaVuSans-45"/>
       <use x="326.660156" xlink:href="#DejaVuSans-50"/>
       <use x="390.283203" xlink:href="#DejaVuSans-48"/>
      </g>
     </g>
    </g>
    <g id="xtick_8">
     <g id="line2d_8">
      <g>
       <use style="stroke:#000000;stroke-width:0.8;" x="391.459169" xlink:href="#mf806fd7a95" y="292.790464"/>
      </g>
     </g>
     <g id="text_8">
      <!-- 29-05-20 -->
      <g transform="translate(351.109891 329.066216)rotate(-30)scale(0.1 -0.1)">
       <use xlink:href="#DejaVuSans-50"/>
       <use x="63.623047" xlink:href="#DejaVuSans-57"/>
       <use x="127.246094" xlink:href="#DejaVuSans-45"/>
       <use x="163.330078" xlink:href="#DejaVuSans-48"/>
       <use x="226.953125" xlink:href="#DejaVuSans-53"/>
       <use x="290.576172" xlink:href="#DejaVuSans-45"/>
       <use x="326.660156" xlink:href="#DejaVuSans-50"/>
       <use x="390.283203" xlink:href="#DejaVuSans-48"/>
      </g>
     </g>
    </g>
    <g id="xtick_9">
     <g id="line2d_9">
      <g>
       <use style="stroke:#000000;stroke-width:0.8;" x="427.670597" xlink:href="#mf806fd7a95" y="292.790464"/>
      </g>
     </g>
     <g id="text_9">
      <!-- 01-06-20 -->
      <g transform="translate(387.321318 329.066216)rotate(-30)scale(0.1 -0.1)">
       <defs>
        <path d="M 33.015625 40.375 
Q 26.375 40.375 22.484375 35.828125 
Q 18.609375 31.296875 18.609375 23.390625 
Q 18.609375 15.53125 22.484375 10.953125 
Q 26.375 6.390625 33.015625 6.390625 
Q 39.65625 6.390625 43.53125 10.953125 
Q 47.40625 15.53125 47.40625 23.390625 
Q 47.40625 31.296875 43.53125 35.828125 
Q 39.65625 40.375 33.015625 40.375 
z
M 52.59375 71.296875 
L 52.59375 62.3125 
Q 48.875 64.0625 45.09375 64.984375 
Q 41.3125 65.921875 37.59375 65.921875 
Q 27.828125 65.921875 22.671875 59.328125 
Q 17.53125 52.734375 16.796875 39.40625 
Q 19.671875 43.65625 24.015625 45.921875 
Q 28.375 48.1875 33.59375 48.1875 
Q 44.578125 48.1875 50.953125 41.515625 
Q 57.328125 34.859375 57.328125 23.390625 
Q 57.328125 12.15625 50.6875 5.359375 
Q 44.046875 -1.421875 33.015625 -1.421875 
Q 20.359375 -1.421875 13.671875 8.265625 
Q 6.984375 17.96875 6.984375 36.375 
Q 6.984375 53.65625 15.1875 63.9375 
Q 23.390625 74.21875 37.203125 74.21875 
Q 40.921875 74.21875 44.703125 73.484375 
Q 48.484375 72.75 52.59375 71.296875 
z
" id="DejaVuSans-54"/>
       </defs>
       <use xlink:href="#DejaVuSans-48"/>
       <use x="63.623047" xlink:href="#DejaVuSans-49"/>
       <use x="127.246094" xlink:href="#DejaVuSans-45"/>
       <use x="163.330078" xlink:href="#DejaVuSans-48"/>
       <use x="226.953125" xlink:href="#DejaVuSans-54"/>
       <use x="290.576172" xlink:href="#DejaVuSans-45"/>
       <use x="326.660156" xlink:href="#DejaVuSans-50"/>
       <use x="390.283203" xlink:href="#DejaVuSans-48"/>
      </g>
     </g>
    </g>
   </g>
   <g id="matplotlib.axis_2">
    <g id="ytick_1">
     <g id="line2d_10">
      <defs>
       <path d="M 0 0 
L -3.5 0 
" id="m550a4b1a6e" style="stroke:#000000;stroke-width:0.8;"/>
      </defs>
      <g>
       <use style="stroke:#000000;stroke-width:0.8;" x="35.304688" xlink:href="#m550a4b1a6e" y="288.105485"/>
      </g>
     </g>
     <g id="text_10">
      <!-- −50 -->
      <g transform="translate(7.2 291.904704)scale(0.1 -0.1)">
       <defs>
        <path d="M 10.59375 35.5 
L 73.1875 35.5 
L 73.1875 27.203125 
L 10.59375 27.203125 
z
" id="DejaVuSans-8722"/>
       </defs>
       <use xlink:href="#DejaVuSans-8722"/>
       <use x="83.789062" xlink:href="#DejaVuSans-53"/>
       <use x="147.412109" xlink:href="#DejaVuSans-48"/>
      </g>
     </g>
    </g>
    <g id="ytick_2">
     <g id="line2d_11">
      <g>
       <use style="stroke:#000000;stroke-width:0.8;" x="35.304688" xlink:href="#m550a4b1a6e" y="247.456959"/>
      </g>
     </g>
     <g id="text_11">
      <!-- 0 -->
      <g transform="translate(21.942187 251.256177)scale(0.1 -0.1)">
       <use xlink:href="#DejaVuSans-48"/>
      </g>
     </g>
    </g>
    <g id="ytick_3">
     <g id="line2d_12">
      <g>
       <use style="stroke:#000000;stroke-width:0.8;" x="35.304688" xlink:href="#m550a4b1a6e" y="206.808432"/>
      </g>
     </g>
     <g id="text_12">
      <!-- 50 -->
      <g transform="translate(15.579687 210.607651)scale(0.1 -0.1)">
       <use xlink:href="#DejaVuSans-53"/>
       <use x="63.623047" xlink:href="#DejaVuSans-48"/>
      </g>
     </g>
    </g>
    <g id="ytick_4">
     <g id="line2d_13">
      <g>
       <use style="stroke:#000000;stroke-width:0.8;" x="35.304688" xlink:href="#m550a4b1a6e" y="166.159906"/>
      </g>
     </g>
     <g id="text_13">
      <!-- 100 -->
      <g transform="translate(9.217187 169.959124)scale(0.1 -0.1)">
       <use xlink:href="#DejaVuSans-49"/>
       <use x="63.623047" xlink:href="#DejaVuSans-48"/>
       <use x="127.246094" xlink:href="#DejaVuSans-48"/>
      </g>
     </g>
    </g>
    <g id="ytick_5">
     <g id="line2d_14">
      <g>
       <use style="stroke:#000000;stroke-width:0.8;" x="35.304688" xlink:href="#m550a4b1a6e" y="125.511379"/>
      </g>
     </g>
     <g id="text_14">
      <!-- 150 -->
      <g transform="translate(9.217187 129.310598)scale(0.1 -0.1)">
       <use xlink:href="#DejaVuSans-49"/>
       <use x="63.623047" xlink:href="#DejaVuSans-53"/>
       <use x="127.246094" xlink:href="#DejaVuSans-48"/>
      </g>
     </g>
    </g>
    <g id="ytick_6">
     <g id="line2d_15">
      <g>
       <use style="stroke:#000000;stroke-width:0.8;" x="35.304688" xlink:href="#m550a4b1a6e" y="84.862852"/>
      </g>
     </g>
     <g id="text_15">
      <!-- 200 -->
      <g transform="translate(9.217187 88.662071)scale(0.1 -0.1)">
       <use xlink:href="#DejaVuSans-50"/>
       <use x="63.623047" xlink:href="#DejaVuSans-48"/>
       <use x="127.246094" xlink:href="#DejaVuSans-48"/>
      </g>
     </g>
    </g>
    <g id="ytick_7">
     <g id="line2d_16">
      <g>
       <use style="stroke:#000000;stroke-width:0.8;" x="35.304688" xlink:href="#m550a4b1a6e" y="44.214326"/>
      </g>
     </g>
     <g id="text_16">
      <!-- 250 -->
      <g transform="translate(9.217187 48.013545)scale(0.1 -0.1)">
       <use xlink:href="#DejaVuSans-50"/>
       <use x="63.623047" xlink:href="#DejaVuSans-53"/>
       <use x="127.246094" xlink:href="#DejaVuSans-48"/>
      </g>
     </g>
    </g>
   </g>
   <g id="line2d_17">
    <path clip-path="url(#pd749473802)" d="M 53.988778 251.331104 
L 54.491715 248.664054 
L 54.994651 248.179192 
L 55.497588 248.516102 
L 56.000524 248.535144 
L 56.503461 248.418315 
L 57.006397 248.538357 
L 57.509334 249.940927 
L 58.01227 250.762597 
L 58.515207 252.216331 
L 59.018143 259.264979 
L 59.52108 258.462006 
L 60.024016 256.422079 
L 60.526953 256.570794 
L 61.029889 254.830519 
L 61.532826 255.2883 
L 62.035762 254.658802 
L 62.538699 249.460093 
L 63.041635 251.847615 
L 63.544572 244.469187 
L 64.047508 248.111059 
L 64.550445 247.83986 
L 65.053381 248.219799 
L 66.059254 248.517653 
L 66.562191 248.6212 
L 67.065127 248.505156 
L 67.568064 248.65005 
L 68.071 279.809079 
L 68.573937 239.416513 
L 69.076873 243.170313 
L 69.57981 248.917228 
L 70.082746 244.553671 
L 70.585683 248.206979 
L 71.088619 248.020497 
L 71.591556 241.092453 
L 72.094492 248.756559 
L 72.597429 253.211545 
L 73.100365 254.585726 
L 73.603302 251.626799 
L 74.106238 250.472396 
L 74.609175 246.363418 
L 75.112111 248.398663 
L 75.615048 249.322889 
L 76.117984 248.787948 
L 76.620921 247.958448 
L 77.123857 247.748142 
L 78.12973 247.723542 
L 81.147349 247.852515 
L 81.650286 248.58211 
L 82.153222 251.563875 
L 82.656159 256.617987 
L 83.662032 263.76814 
L 84.667905 267.187406 
L 85.170841 266.935103 
L 85.673778 265.928402 
L 86.176714 264.506809 
L 86.679651 258.971514 
L 87.685524 252.276995 
L 88.691397 249.53038 
L 89.194333 249.819975 
L 89.69727 248.643048 
L 90.200206 246.193239 
L 90.703143 246.429322 
L 91.206079 247.563188 
L 91.709016 247.657091 
L 92.211952 247.882881 
L 93.217825 247.964975 
L 93.720762 248.899154 
L 94.223698 250.597491 
L 95.229571 252.007369 
L 95.732508 258.530412 
L 96.235444 259.129182 
L 96.738381 266.392206 
L 97.241317 267.296846 
L 97.744254 266.010109 
L 98.24719 259.954083 
L 98.750127 257.966344 
L 100.258936 249.970301 
L 100.761873 248.938502 
L 101.264809 249.4452 
L 102.270682 249.218557 
L 102.773619 248.779297 
L 103.276555 248.710652 
L 103.779492 248.522413 
L 105.288301 248.452824 
L 105.791238 249.507187 
L 106.294174 250.108852 
L 106.797111 250.901001 
L 107.300047 250.612267 
L 107.802984 246.7015 
L 108.30592 251.689235 
L 108.808857 249.849272 
L 109.311793 247.212086 
L 109.81473 251.920747 
L 110.820603 251.262628 
L 111.323539 249.93913 
L 111.826476 249.154942 
L 112.329412 248.138788 
L 113.838222 248.269838 
L 114.341158 248.049226 
L 114.844095 248.189859 
L 115.347031 248.024255 
L 115.849968 248.006412 
L 116.352904 248.300312 
L 117.358777 248.547452 
L 117.861714 250.161386 
L 118.867587 257.127296 
L 119.370523 256.510765 
L 119.87346 262.506758 
L 120.376396 265.126443 
L 120.879333 266.898538 
L 121.885206 265.52801 
L 122.388142 263.528655 
L 123.394015 257.358331 
L 124.399888 249.795299 
L 124.902825 248.66254 
L 126.411634 248.0973 
L 126.914571 247.839912 
L 129.429253 247.760055 
L 129.93219 249.5903 
L 130.938063 257.748514 
L 131.943936 266.404588 
L 132.949809 269.979854 
L 133.452745 269.691276 
L 133.955682 268.652318 
L 134.458618 266.591029 
L 134.961555 263.39752 
L 136.470364 249.636492 
L 136.973301 248.99734 
L 137.476237 248.759986 
L 137.979174 248.018687 
L 139.99092 247.736382 
L 141.499729 247.693609 
L 142.002666 249.48253 
L 143.008539 259.222874 
L 144.014412 267.793231 
L 144.517348 269.695111 
L 145.020285 270.271363 
L 145.523221 269.557204 
L 146.026158 270.347793 
L 146.529094 266.282556 
L 147.032031 259.981051 
L 148.037904 253.826769 
L 148.54084 250.739637 
L 149.043777 248.794054 
L 149.546713 248.359105 
L 151.558459 247.719117 
L 153.067269 247.610714 
L 153.570205 247.722697 
L 154.073142 243.875324 
L 155.079015 259.000172 
L 155.581951 262.357621 
L 156.084888 264.105809 
L 156.587824 259.209165 
L 157.090761 270.755804 
L 158.096634 269.326554 
L 158.59957 266.941707 
L 159.605443 258.177174 
L 160.10838 251.752248 
L 160.611316 249.6239 
L 161.114253 249.252645 
L 161.617189 249.050646 
L 162.120126 248.452506 
L 162.623062 248.287192 
L 163.125999 247.81479 
L 163.628935 247.576087 
L 164.634808 247.679245 
L 165.137745 247.598633 
L 165.640681 237.904035 
L 166.143618 203.985728 
L 167.149491 251.412696 
L 167.652427 252.075788 
L 168.155364 258.847198 
L 168.6583 258.297658 
L 169.161237 269.572285 
L 169.664173 270.013396 
L 170.167109 268.723179 
L 170.670046 266.181512 
L 171.172982 262.780519 
L 172.178855 251.635882 
L 172.681792 248.443336 
L 174.190601 247.624979 
L 176.705284 247.559286 
L 177.20822 247.789931 
L 177.711157 246.189076 
L 178.214093 248.86438 
L 178.71703 248.027204 
L 179.219966 250.692339 
L 179.722903 251.493156 
L 180.225839 259.499 
L 180.728776 265.136465 
L 181.231712 257.798643 
L 181.734649 253.1085 
L 182.237585 252.202683 
L 182.740522 251.715645 
L 183.243458 238.02365 
L 183.746395 246.184131 
L 184.249331 249.462608 
L 184.752268 239.78151 
L 185.255204 227.291781 
L 185.758141 225.6315 
L 186.261077 235.813312 
L 186.764014 239.209093 
L 187.26695 240.85771 
L 187.769887 246.190457 
L 188.272823 247.975179 
L 189.781633 248.111486 
L 190.284569 249.934317 
L 190.787506 252.705257 
L 191.290442 252.983357 
L 191.793379 252.163766 
L 192.296315 256.384834 
L 192.799252 258.183736 
L 193.302188 259.308959 
L 193.805125 262.373232 
L 194.308061 262.24277 
L 194.810998 261.052453 
L 195.313934 258.011793 
L 195.816871 253.857065 
L 196.319807 250.669329 
L 197.32568 248.050035 
L 197.828617 247.952653 
L 198.331553 248.026368 
L 198.83449 247.955025 
L 199.840363 248.117879 
L 200.343299 248.119493 
L 200.846236 247.903316 
L 201.349172 247.967195 
L 201.852109 246.210437 
L 202.355045 248.739436 
L 202.857982 247.842674 
L 203.360918 228.321378 
L 203.863855 251.243107 
L 204.366791 252.084819 
L 204.869728 250.281487 
L 205.372664 250.513443 
L 205.875601 252.727419 
L 206.378537 248.434402 
L 206.881474 251.196186 
L 207.38441 250.785047 
L 207.887347 249.7827 
L 208.390283 249.396283 
L 208.89322 248.468368 
L 209.899093 248.061765 
L 210.402029 248.133194 
L 210.904966 247.900836 
L 211.407902 236.816158 
L 211.910839 220.902404 
L 212.413775 233.265725 
L 212.916712 217.467433 
L 213.419648 233.328909 
L 213.922585 239.010546 
L 214.425521 246.881737 
L 214.928458 249.495089 
L 216.437267 252.344035 
L 216.940204 252.518853 
L 217.44314 252.932077 
L 217.946077 253.075259 
L 218.449013 252.930071 
L 218.95195 252.043201 
L 219.454886 251.670222 
L 220.963696 249.098132 
L 221.466632 248.918983 
L 222.472505 248.8405 
L 222.975442 248.974492 
L 223.478378 248.935831 
L 224.484251 249.217863 
L 224.987188 248.824539 
L 225.993061 249.066303 
L 226.998934 250.809552 
L 228.004807 252.176602 
L 228.507743 252.551528 
L 229.01068 253.148589 
L 229.513616 253.192509 
L 230.016553 252.810372 
L 230.519489 252.61321 
L 231.022426 252.804369 
L 231.525362 254.688533 
L 232.028299 251.676641 
L 233.034172 248.547336 
L 233.537108 248.050264 
L 234.542981 247.527438 
L 238.063537 247.460588 
L 238.566473 249.870539 
L 239.06941 253.070641 
L 240.075283 262.403667 
L 240.578219 263.660777 
L 241.081156 265.839835 
L 241.584092 267.085604 
L 242.087029 267.172533 
L 242.589965 265.847113 
L 243.092902 263.673425 
L 244.098775 257.685357 
L 245.104648 249.398438 
L 245.607584 248.598945 
L 246.110521 248.483326 
L 246.613457 248.004539 
L 247.61933 247.573209 
L 249.12814 247.456599 
L 250.134013 247.481545 
L 250.636949 250.034869 
L 252.648695 266.308789 
L 253.151632 267.788817 
L 253.654568 268.551831 
L 254.157505 268.344926 
L 254.660441 267.148518 
L 255.163378 265.427923 
L 256.169251 259.520607 
L 257.175124 249.949307 
L 257.67806 248.975275 
L 258.180997 248.581771 
L 259.689806 247.760048 
L 260.192743 247.758046 
L 260.695679 247.579031 
L 262.204489 247.586013 
L 262.707425 250.309548 
L 264.216235 262.029021 
L 264.719171 265.738374 
L 265.222108 268.088476 
L 265.725044 269.150867 
L 266.227981 268.692312 
L 267.233854 265.05405 
L 267.73679 262.155597 
L 269.2456 249.300042 
L 269.748536 249.019684 
L 270.251473 248.323588 
L 271.257346 247.897617 
L 271.760282 247.751401 
L 272.263219 247.78357 
L 273.772028 247.464089 
L 274.274965 247.628483 
L 274.777901 250.707664 
L 276.286711 263.359052 
L 276.789647 265.928574 
L 277.292584 267.50394 
L 277.79552 268.425956 
L 278.298457 264.663859 
L 278.801393 261.924674 
L 279.30433 264.826415 
L 279.807266 261.430813 
L 280.310203 255.221514 
L 281.316076 251.272504 
L 281.819012 250.424118 
L 282.321949 250.302662 
L 282.824885 249.541535 
L 285.842504 248.053058 
L 286.345441 248.276985 
L 287.351314 250.684271 
L 287.85425 254.599896 
L 288.357187 254.461202 
L 288.860123 256.889496 
L 289.36306 265.543725 
L 289.865996 265.434897 
L 290.368933 262.90074 
L 291.374806 260.202823 
L 291.877742 255.121435 
L 292.380679 253.422952 
L 292.883615 252.834276 
L 293.386552 249.335765 
L 293.889488 248.021284 
L 294.392425 247.999495 
L 296.907107 247.3367 
L 297.91298 247.281481 
L 298.415917 247.354781 
L 298.918853 249.965472 
L 300.427663 260.397607 
L 300.930599 263.50767 
L 301.433536 264.161537 
L 301.936472 262.040176 
L 302.942345 264.584545 
L 303.948218 259.465527 
L 304.451155 256.18073 
L 305.457028 248.040364 
L 305.959964 248.262825 
L 306.462901 247.587954 
L 309.983456 247.206341 
L 310.486393 247.295673 
L 310.989329 249.467396 
L 311.995202 257.010717 
L 312.498138 257.474973 
L 313.001075 262.223845 
L 313.504011 255.448937 
L 314.006948 257.203423 
L 314.509884 264.739676 
L 315.012821 263.229592 
L 315.515757 261.151404 
L 316.018694 253.37438 
L 316.52163 252.388038 
L 318.03044 247.715756 
L 319.036313 247.38787 
L 319.539249 248.295656 
L 320.042186 248.381661 
L 321.048059 247.964832 
L 321.550995 247.284153 
L 322.053932 247.208698 
L 322.556868 247.567628 
L 323.059805 248.256671 
L 323.562741 249.205404 
L 324.065678 246.75979 
L 324.568614 227.813436 
L 325.071551 261.818464 
L 325.574487 262.49457 
L 326.077424 172.452788 
L 326.58036 209.635679 
L 327.083297 197.694496 
L 327.586233 219.275734 
L 328.08917 218.868306 
L 328.592106 211.350465 
L 329.095043 244.045338 
L 329.597979 240.821096 
L 330.100916 247.868757 
L 331.106789 247.456959 
L 332.615598 247.64366 
L 333.118535 247.737142 
L 333.621471 247.946554 
L 334.124408 247.877419 
L 334.627344 248.026885 
L 335.130281 249.41724 
L 335.633217 253.340337 
L 336.63909 259.255299 
L 337.142027 261.004954 
L 337.644963 256.24944 
L 338.1479 261.739347 
L 338.650836 265.764747 
L 339.153773 265.066903 
L 340.159646 262.184049 
L 340.662582 258.348677 
L 341.165519 253.569607 
L 342.171392 248.307438 
L 343.177265 247.706298 
L 343.680201 247.930392 
L 344.183138 247.863528 
L 344.686074 247.594066 
L 345.691947 247.569877 
L 346.69782 247.883292 
L 347.703693 249.67603 
L 348.20663 250.61101 
L 348.709566 251.805891 
L 349.212503 257.951482 
L 349.715439 255.1081 
L 350.218376 254.957405 
L 350.721312 257.895559 
L 351.224249 259.066188 
L 352.230122 255.128976 
L 352.733058 253.902101 
L 353.738931 248.14194 
L 354.744804 247.520529 
L 355.750677 247.158418 
L 358.768296 247.197017 
L 359.774169 252.905799 
L 360.277106 256.257047 
L 360.780042 258.067117 
L 361.282979 258.72494 
L 361.785915 261.140049 
L 362.288852 261.751384 
L 362.791788 259.120569 
L 363.294725 259.541646 
L 363.797661 256.482522 
L 364.300598 255.865808 
L 364.803534 254.664641 
L 365.809407 249.383326 
L 366.312344 248.03691 
L 366.81528 247.66049 
L 367.318217 247.491463 
L 368.32409 247.445328 
L 370.335836 247.109328 
L 370.838772 247.226769 
L 371.341709 249.480626 
L 372.850518 258.514166 
L 373.353455 259.867642 
L 373.856391 260.856822 
L 374.359328 261.247703 
L 374.862264 261.213272 
L 375.365201 260.431539 
L 375.868137 258.83864 
L 376.87401 254.39176 
L 377.376947 251.1055 
L 377.879883 248.874237 
L 378.38282 247.786593 
L 379.891629 247.222668 
L 380.394566 247.032635 
L 381.903375 246.968234 
L 382.406312 246.93999 
L 382.909248 247.236558 
L 383.412185 247.737734 
L 383.915121 248.813326 
L 384.418058 253.398829 
L 385.423931 257.988794 
L 385.926867 254.433028 
L 386.429804 256.680828 
L 386.93274 257.891958 
L 387.938613 250.775696 
L 388.44155 254.305102 
L 388.944486 252.512015 
L 389.447423 251.402663 
L 389.950359 249.469148 
L 390.453296 248.057075 
L 390.956232 247.553554 
L 391.459169 247.503303 
L 391.962105 247.813801 
L 392.465042 248.476115 
L 393.470915 247.367525 
L 394.476788 247.33195 
L 394.979724 247.513848 
L 395.482661 249.139073 
L 395.985597 251.511915 
L 396.99147 254.774335 
L 397.494407 255.871984 
L 397.997343 256.437579 
L 398.50028 256.176516 
L 399.003216 256.45827 
L 399.506153 257.03115 
L 400.512026 253.915539 
L 401.014962 252.457827 
L 402.020835 248.497793 
L 402.523772 247.905254 
L 403.026708 247.797512 
L 403.529645 247.417333 
L 404.032581 247.248635 
L 404.535518 247.387265 
L 407.0502 247.303058 
L 407.553137 248.731627 
L 408.55901 252.607948 
L 409.061946 254.14226 
L 410.067819 256.157935 
L 410.570756 255.771628 
L 411.073692 253.206372 
L 411.576629 252.304091 
L 412.079565 253.346549 
L 412.582502 252.195892 
L 413.085438 251.419031 
L 414.091311 247.948915 
L 414.594248 247.250129 
L 415.097184 247.078532 
L 415.600121 247.100121 
L 416.605994 246.904001 
L 418.61774 246.828898 
L 419.120676 246.931632 
L 419.623613 248.251289 
L 421.635359 254.766485 
L 422.138295 255.06093 
L 422.641232 255.202037 
L 423.144168 255.211223 
L 423.647105 254.507388 
L 425.658851 249.857321 
L 426.161787 248.251893 
L 426.664724 247.392329 
L 427.670597 247.366409 
L 427.670597 247.366409 
" style="fill:none;stroke:#2ecc71;stroke-linecap:square;stroke-width:0.75;"/>
   </g>
   <g id="line2d_18">
    <path clip-path="url(#pd749473802)" d="M 53.988778 247.426257 
L 54.491715 246.71366 
L 54.994651 246.928934 
L 56.000524 246.900643 
L 56.503461 246.946738 
L 57.006397 241.819333 
L 57.509334 247.390539 
L 58.01227 247.061692 
L 59.018143 246.848775 
L 60.526953 246.733327 
L 61.532826 246.471355 
L 62.035762 240.722834 
L 62.538699 238.278737 
L 63.041635 229.691381 
L 63.544572 225.198823 
L 64.047508 247.514433 
L 64.550445 247.471964 
L 65.053381 247.174691 
L 65.556318 246.74269 
L 66.059254 246.585377 
L 67.568064 246.559352 
L 68.071 20.181385 
L 68.573937 208.205978 
L 69.076873 225.657432 
L 69.57981 247.525067 
L 70.082746 225.607781 
L 70.585683 238.711188 
L 71.088619 234.281857 
L 71.591556 194.097958 
L 72.094492 234.437955 
L 72.597429 247.511492 
L 73.100365 247.493247 
L 74.106238 238.566361 
L 74.609175 220.477563 
L 75.112111 238.827552 
L 75.615048 247.498324 
L 76.620921 247.304933 
L 80.141476 247.161945 
L 81.650286 247.131294 
L 85.170841 247.415915 
L 87.182587 247.286002 
L 89.194333 247.17559 
L 90.200206 238.762488 
L 90.703143 238.203282 
L 91.206079 247.51109 
L 91.709016 247.424686 
L 92.211952 247.096186 
L 93.217825 247.033308 
L 95.229571 247.175149 
L 95.732508 247.315746 
L 98.750127 247.369158 
L 101.264809 247.193312 
L 106.797111 247.251521 
L 107.300047 242.648888 
L 107.802984 215.203813 
L 108.30592 247.5224 
L 109.311793 231.027755 
L 109.81473 247.531628 
L 111.323539 247.522778 
L 113.335285 247.303795 
L 114.844095 247.236075 
L 117.861714 247.277211 
L 120.376396 247.619201 
L 121.885206 247.669155 
L 123.896952 247.476226 
L 125.405761 247.371922 
L 129.93219 247.358508 
L 131.943936 247.726173 
L 134.458618 247.76418 
L 135.967428 247.61262 
L 136.973301 247.487282 
L 141.499729 247.412814 
L 142.505602 247.549881 
L 144.014412 247.854501 
L 146.026158 247.938644 
L 150.552586 247.485413 
L 153.570205 247.461511 
L 154.073142 231.097804 
L 154.576078 247.519613 
L 155.581951 247.84881 
L 156.084888 247.890516 
L 156.587824 247.806048 
L 157.090761 248.038151 
L 158.59957 248.023355 
L 161.114253 247.609472 
L 165.137745 247.568254 
L 165.640681 225.71309 
L 166.143618 133.523271 
L 167.149491 247.519821 
L 170.670046 247.525019 
L 171.675919 247.731987 
L 173.687665 247.575896 
L 177.20822 247.57297 
L 177.711157 243.953013 
L 178.214093 247.56923 
L 178.71703 243.972764 
L 179.219966 247.644674 
L 179.722903 247.672802 
L 180.728776 248.08132 
L 181.734649 247.743937 
L 182.740522 247.698248 
L 183.243458 222.722774 
L 183.746395 240.435651 
L 184.249331 247.520268 
L 184.752268 229.805667 
L 185.255204 204.9141 
L 185.758141 201.181914 
L 186.261077 222.578163 
L 186.764014 229.691755 
L 187.26695 233.249935 
L 187.769887 243.954115 
L 188.272823 247.521418 
L 201.349172 247.552708 
L 201.852109 243.990384 
L 202.355045 247.563702 
L 202.857982 244.039928 
L 203.360918 200.866759 
L 203.863855 247.521736 
L 204.366791 247.51995 
L 204.869728 244.031238 
L 205.372664 244.035094 
L 205.875601 247.521719 
L 206.378537 240.55783 
L 206.881474 247.530918 
L 210.904966 247.575083 
L 211.407902 226.699339 
L 211.910839 195.024599 
L 212.413775 219.640154 
L 212.916712 187.82718 
L 213.419648 219.503787 
L 213.922585 229.996862 
L 214.425521 244.018473 
L 214.928458 247.523388 
L 231.022426 247.564352 
L 232.531235 247.587847 
L 236.051791 247.538985 
L 238.566473 247.609617 
L 239.572346 247.884825 
L 240.578219 248.163755 
L 241.584092 248.383501 
L 242.589965 248.392363 
L 244.098775 248.062866 
L 245.607584 247.632723 
L 250.134013 247.589635 
L 251.139886 247.92588 
L 252.648695 248.671781 
L 253.654568 248.894209 
L 254.660441 248.877706 
L 255.666314 248.644383 
L 256.169251 248.453254 
L 257.175124 247.806455 
L 258.683933 247.679631 
L 261.701552 247.630203 
L 262.204489 247.627601 
L 263.210362 248.136033 
L 265.222108 249.303296 
L 265.725044 249.492881 
L 266.227981 249.547594 
L 267.233854 249.332482 
L 267.73679 249.094525 
L 269.2456 247.855477 
L 272.263219 247.689306 
L 274.274965 247.676948 
L 274.777901 247.983601 
L 276.789647 249.704334 
L 277.79552 250.148216 
L 278.801393 249.477841 
L 279.30433 249.854327 
L 279.807266 249.498734 
L 280.310203 248.738851 
L 281.316076 248.203753 
L 282.321949 248.069451 
L 283.327822 247.941489 
L 286.345441 247.824096 
L 287.351314 248.162373 
L 287.85425 248.720884 
L 288.357187 248.745842 
L 288.860123 249.138182 
L 289.36306 250.453324 
L 289.865996 250.573481 
L 290.368933 250.256016 
L 291.374806 249.932048 
L 291.877742 249.126475 
L 292.380679 248.836407 
L 292.883615 248.734867 
L 293.386552 248.147171 
L 293.889488 247.898076 
L 298.415917 247.780033 
L 298.918853 248.238548 
L 300.930599 250.918343 
L 301.433536 251.129553 
L 301.936472 250.843388 
L 302.942345 251.588475 
L 303.445282 251.222394 
L 304.451155 249.930909 
L 305.457028 248.049858 
L 305.959964 248.063109 
L 306.462901 247.914011 
L 310.486393 247.86385 
L 310.989329 248.375534 
L 311.995202 250.235448 
L 312.498138 250.433813 
L 313.001075 251.62262 
L 313.504011 250.082366 
L 314.006948 250.471453 
L 314.509884 252.448598 
L 315.012821 252.201942 
L 315.515757 251.723672 
L 316.018694 249.735146 
L 316.52163 249.466784 
L 318.03044 248.102295 
L 319.036313 247.985959 
L 319.539249 248.250255 
L 320.545122 248.254808 
L 321.048059 248.179039 
L 321.550995 247.97913 
L 322.053932 247.94783 
L 323.059805 248.260661 
L 323.562741 248.556745 
L 324.065678 242.210047 
L 324.568614 219.506136 
L 325.071551 247.519136 
L 325.574487 249.806281 
L 326.077424 157.527032 
L 326.58036 199.34569 
L 327.083297 184.747429 
L 327.586233 210.237885 
L 328.08917 210.086775 
L 328.592106 201.225824 
L 329.095043 241.725483 
L 329.597979 238.822509 
L 330.100916 247.522633 
L 347.200757 247.572644 
L 348.709566 247.760766 
L 349.212503 247.963602 
L 350.218376 247.944741 
L 351.727185 248.326918 
L 352.733058 248.571135 
L 353.235995 248.371144 
L 353.738931 248.005958 
L 355.247741 247.880435 
L 358.26536 247.875395 
L 358.768296 247.887264 
L 359.271233 248.384477 
L 359.774169 249.051438 
L 360.780042 250.638925 
L 361.282979 251.252962 
L 361.785915 252.54965 
L 362.288852 253.311566 
L 362.791788 252.665254 
L 363.294725 253.013125 
L 363.797661 251.948783 
L 364.300598 251.676845 
L 364.803534 251.229223 
L 365.809407 249.092249 
L 366.312344 248.495041 
L 367.318217 248.248711 
L 368.827026 248.185787 
L 370.335836 248.088718 
L 370.838772 248.139041 
L 371.341709 249.073063 
L 372.347582 251.929191 
L 372.850518 253.314818 
L 373.856391 254.924093 
L 374.359328 255.249118 
L 374.862264 255.30936 
L 375.365201 255.070346 
L 375.868137 254.452814 
L 376.87401 252.275272 
L 377.376947 250.573644 
L 377.879883 249.327685 
L 378.38282 248.68739 
L 379.388693 248.366022 
L 380.394566 248.260905 
L 382.406312 248.207087 
L 382.909248 248.367404 
L 383.412185 248.652025 
L 383.915121 249.257526 
L 384.418058 251.847 
L 385.423931 254.827919 
L 385.926867 252.913698 
L 386.429804 254.160388 
L 386.93274 255.095223 
L 387.435677 253.261406 
L 387.938613 248.612108 
L 388.44155 252.302182 
L 388.944486 251.918053 
L 389.447423 251.257027 
L 390.453296 249.082656 
L 390.956232 248.72129 
L 391.459169 248.668122 
L 391.962105 248.876893 
L 392.465042 249.322563 
L 393.470915 248.635522 
L 394.476788 248.591866 
L 394.979724 248.712998 
L 395.482661 249.796769 
L 395.985597 251.444742 
L 397.494407 254.831821 
L 397.997343 255.409436 
L 398.50028 255.411632 
L 399.003216 255.802752 
L 399.506153 256.414837 
L 401.014962 253.131005 
L 402.020835 249.877335 
L 402.523772 249.316629 
L 403.026708 249.200049 
L 403.529645 248.893478 
L 404.032581 248.747712 
L 405.038454 248.849333 
L 407.0502 248.816245 
L 407.553137 250.023425 
L 409.061946 255.136522 
L 410.067819 257.335526 
L 410.570756 257.206508 
L 411.073692 254.949702 
L 411.576629 254.032508 
L 412.079565 255.028479 
L 413.085438 253.313029 
L 414.091311 249.824817 
L 414.594248 249.027699 
L 415.097184 248.803075 
L 415.600121 248.808278 
L 416.605994 248.611377 
L 418.61774 248.528779 
L 419.120676 248.625116 
L 419.623613 249.916926 
L 421.635359 257.058384 
L 422.138295 257.544216 
L 422.641232 257.871436 
L 423.144168 258.06346 
L 423.647105 257.416661 
L 424.652978 255.44602 
L 426.664724 249.464833 
L 427.16766 249.325815 
L 427.670597 249.357277 
L 427.670597 249.357277 
" style="fill:none;stroke:#e74c3c;stroke-linecap:square;stroke-width:0.75;"/>
   </g>
   <g id="patch_3">
    <path d="M 35.304688 292.790464 
L 35.304688 7.2 
" style="fill:none;stroke:#000000;stroke-linecap:square;stroke-linejoin:miter;stroke-width:0.8;"/>
   </g>
   <g id="patch_4">
    <path d="M 446.354688 292.790464 
L 446.354688 7.2 
" style="fill:none;stroke:#000000;stroke-linecap:square;stroke-linejoin:miter;stroke-width:0.8;"/>
   </g>
   <g id="patch_5">
    <path d="M 35.304688 292.790464 
L 446.354687 292.790464 
" style="fill:none;stroke:#000000;stroke-linecap:square;stroke-linejoin:miter;stroke-width:0.8;"/>
   </g>
   <g id="patch_6">
    <path d="M 35.304688 7.2 
L 446.354687 7.2 
" style="fill:none;stroke:#000000;stroke-linecap:square;stroke-linejoin:miter;stroke-width:0.8;"/>
   </g>
   <g id="legend_1">
    <g id="patch_7">
     <path d="M 246.654687 49.6 
L 439.354688 49.6 
Q 441.354688 49.6 441.354688 47.6 
L 441.354688 14.2 
Q 441.354688 12.2 439.354688 12.2 
L 246.654687 12.2 
Q 244.654687 12.2 244.654687 14.2 
L 244.654687 47.6 
Q 244.654687 49.6 246.654687 49.6 
z
" style="fill:#ffffff;opacity:0.8;stroke:#cccccc;stroke-linejoin:miter;"/>
    </g>
    <g id="line2d_19">
     <path d="M 248.654687 21.8 
L 268.654688 21.8 
" style="fill:none;stroke:#2ecc71;stroke-linecap:square;stroke-width:0.75;"/>
    </g>
    <g id="line2d_20"/>
    <g id="text_17">
     <!-- SM in-/out-fluxes ($m^3$/$\delta t_{exchange}$) -->
     <g transform="translate(276.654688 25.3)scale(0.1 -0.1)">
      <defs>
       <path d="M 53.515625 70.515625 
L 53.515625 60.890625 
Q 47.90625 63.578125 42.921875 64.890625 
Q 37.9375 66.21875 33.296875 66.21875 
Q 25.25 66.21875 20.875 63.09375 
Q 16.5 59.96875 16.5 54.203125 
Q 16.5 49.359375 19.40625 46.890625 
Q 22.3125 44.4375 30.421875 42.921875 
L 36.375 41.703125 
Q 47.40625 39.59375 52.65625 34.296875 
Q 57.90625 29 57.90625 20.125 
Q 57.90625 9.515625 50.796875 4.046875 
Q 43.703125 -1.421875 29.984375 -1.421875 
Q 24.8125 -1.421875 18.96875 -0.25 
Q 13.140625 0.921875 6.890625 3.21875 
L 6.890625 13.375 
Q 12.890625 10.015625 18.65625 8.296875 
Q 24.421875 6.59375 29.984375 6.59375 
Q 38.421875 6.59375 43.015625 9.90625 
Q 47.609375 13.234375 47.609375 19.390625 
Q 47.609375 24.75 44.3125 27.78125 
Q 41.015625 30.8125 33.5 32.328125 
L 27.484375 33.5 
Q 16.453125 35.6875 11.515625 40.375 
Q 6.59375 45.0625 6.59375 53.421875 
Q 6.59375 63.09375 13.40625 68.65625 
Q 20.21875 74.21875 32.171875 74.21875 
Q 37.3125 74.21875 42.625 73.28125 
Q 47.953125 72.359375 53.515625 70.515625 
z
" id="DejaVuSans-83"/>
       <path d="M 9.8125 72.90625 
L 24.515625 72.90625 
L 43.109375 23.296875 
L 61.8125 72.90625 
L 76.515625 72.90625 
L 76.515625 0 
L 66.890625 0 
L 66.890625 64.015625 
L 48.09375 14.015625 
L 38.1875 14.015625 
L 19.390625 64.015625 
L 19.390625 0 
L 9.8125 0 
z
" id="DejaVuSans-77"/>
       <path id="DejaVuSans-32"/>
       <path d="M 9.421875 54.6875 
L 18.40625 54.6875 
L 18.40625 0 
L 9.421875 0 
z
M 9.421875 75.984375 
L 18.40625 75.984375 
L 18.40625 64.59375 
L 9.421875 64.59375 
z
" id="DejaVuSans-105"/>
       <path d="M 54.890625 33.015625 
L 54.890625 0 
L 45.90625 0 
L 45.90625 32.71875 
Q 45.90625 40.484375 42.875 44.328125 
Q 39.84375 48.1875 33.796875 48.1875 
Q 26.515625 48.1875 22.3125 43.546875 
Q 18.109375 38.921875 18.109375 30.90625 
L 18.109375 0 
L 9.078125 0 
L 9.078125 54.6875 
L 18.109375 54.6875 
L 18.109375 46.1875 
Q 21.34375 51.125 25.703125 53.5625 
Q 30.078125 56 35.796875 56 
Q 45.21875 56 50.046875 50.171875 
Q 54.890625 44.34375 54.890625 33.015625 
z
" id="DejaVuSans-110"/>
       <path d="M 25.390625 72.90625 
L 33.6875 72.90625 
L 8.296875 -9.28125 
L 0 -9.28125 
z
" id="DejaVuSans-47"/>
       <path d="M 30.609375 48.390625 
Q 23.390625 48.390625 19.1875 42.75 
Q 14.984375 37.109375 14.984375 27.296875 
Q 14.984375 17.484375 19.15625 11.84375 
Q 23.34375 6.203125 30.609375 6.203125 
Q 37.796875 6.203125 41.984375 11.859375 
Q 46.1875 17.53125 46.1875 27.296875 
Q 46.1875 37.015625 41.984375 42.703125 
Q 37.796875 48.390625 30.609375 48.390625 
z
M 30.609375 56 
Q 42.328125 56 49.015625 48.375 
Q 55.71875 40.765625 55.71875 27.296875 
Q 55.71875 13.875 49.015625 6.21875 
Q 42.328125 -1.421875 30.609375 -1.421875 
Q 18.84375 -1.421875 12.171875 6.21875 
Q 5.515625 13.875 5.515625 27.296875 
Q 5.515625 40.765625 12.171875 48.375 
Q 18.84375 56 30.609375 56 
z
" id="DejaVuSans-111"/>
       <path d="M 8.5 21.578125 
L 8.5 54.6875 
L 17.484375 54.6875 
L 17.484375 21.921875 
Q 17.484375 14.15625 20.5 10.265625 
Q 23.53125 6.390625 29.59375 6.390625 
Q 36.859375 6.390625 41.078125 11.03125 
Q 45.3125 15.671875 45.3125 23.6875 
L 45.3125 54.6875 
L 54.296875 54.6875 
L 54.296875 0 
L 45.3125 0 
L 45.3125 8.40625 
Q 42.046875 3.421875 37.71875 1 
Q 33.40625 -1.421875 27.6875 -1.421875 
Q 18.265625 -1.421875 13.375 4.4375 
Q 8.5 10.296875 8.5 21.578125 
z
M 31.109375 56 
z
" id="DejaVuSans-117"/>
       <path d="M 18.3125 70.21875 
L 18.3125 54.6875 
L 36.8125 54.6875 
L 36.8125 47.703125 
L 18.3125 47.703125 
L 18.3125 18.015625 
Q 18.3125 11.328125 20.140625 9.421875 
Q 21.96875 7.515625 27.59375 7.515625 
L 36.8125 7.515625 
L 36.8125 0 
L 27.59375 0 
Q 17.1875 0 13.234375 3.875 
Q 9.28125 7.765625 9.28125 18.015625 
L 9.28125 47.703125 
L 2.6875 47.703125 
L 2.6875 54.6875 
L 9.28125 54.6875 
L 9.28125 70.21875 
z
" id="DejaVuSans-116"/>
       <path d="M 37.109375 75.984375 
L 37.109375 68.5 
L 28.515625 68.5 
Q 23.6875 68.5 21.796875 66.546875 
Q 19.921875 64.59375 19.921875 59.515625 
L 19.921875 54.6875 
L 34.71875 54.6875 
L 34.71875 47.703125 
L 19.921875 47.703125 
L 19.921875 0 
L 10.890625 0 
L 10.890625 47.703125 
L 2.296875 47.703125 
L 2.296875 54.6875 
L 10.890625 54.6875 
L 10.890625 58.5 
Q 10.890625 67.625 15.140625 71.796875 
Q 19.390625 75.984375 28.609375 75.984375 
z
" id="DejaVuSans-102"/>
       <path d="M 9.421875 75.984375 
L 18.40625 75.984375 
L 18.40625 0 
L 9.421875 0 
z
" id="DejaVuSans-108"/>
       <path d="M 54.890625 54.6875 
L 35.109375 28.078125 
L 55.90625 0 
L 45.3125 0 
L 29.390625 21.484375 
L 13.484375 0 
L 2.875 0 
L 24.125 28.609375 
L 4.6875 54.6875 
L 15.28125 54.6875 
L 29.78125 35.203125 
L 44.28125 54.6875 
z
" id="DejaVuSans-120"/>
       <path d="M 56.203125 29.59375 
L 56.203125 25.203125 
L 14.890625 25.203125 
Q 15.484375 15.921875 20.484375 11.0625 
Q 25.484375 6.203125 34.421875 6.203125 
Q 39.59375 6.203125 44.453125 7.46875 
Q 49.3125 8.734375 54.109375 11.28125 
L 54.109375 2.78125 
Q 49.265625 0.734375 44.1875 -0.34375 
Q 39.109375 -1.421875 33.890625 -1.421875 
Q 20.796875 -1.421875 13.15625 6.1875 
Q 5.515625 13.8125 5.515625 26.8125 
Q 5.515625 40.234375 12.765625 48.109375 
Q 20.015625 56 32.328125 56 
Q 43.359375 56 49.78125 48.890625 
Q 56.203125 41.796875 56.203125 29.59375 
z
M 47.21875 32.234375 
Q 47.125 39.59375 43.09375 43.984375 
Q 39.0625 48.390625 32.421875 48.390625 
Q 24.90625 48.390625 20.390625 44.140625 
Q 15.875 39.890625 15.1875 32.171875 
z
" id="DejaVuSans-101"/>
       <path d="M 44.28125 53.078125 
L 44.28125 44.578125 
Q 40.484375 46.53125 36.375 47.5 
Q 32.28125 48.484375 27.875 48.484375 
Q 21.1875 48.484375 17.84375 46.4375 
Q 14.5 44.390625 14.5 40.28125 
Q 14.5 37.15625 16.890625 35.375 
Q 19.28125 33.59375 26.515625 31.984375 
L 29.59375 31.296875 
Q 39.15625 29.25 43.1875 25.515625 
Q 47.21875 21.78125 47.21875 15.09375 
Q 47.21875 7.46875 41.1875 3.015625 
Q 35.15625 -1.421875 24.609375 -1.421875 
Q 20.21875 -1.421875 15.453125 -0.5625 
Q 10.6875 0.296875 5.421875 2 
L 5.421875 11.28125 
Q 10.40625 8.6875 15.234375 7.390625 
Q 20.0625 6.109375 24.8125 6.109375 
Q 31.15625 6.109375 34.5625 8.28125 
Q 37.984375 10.453125 37.984375 14.40625 
Q 37.984375 18.0625 35.515625 20.015625 
Q 33.0625 21.96875 24.703125 23.78125 
L 21.578125 24.515625 
Q 13.234375 26.265625 9.515625 29.90625 
Q 5.8125 33.546875 5.8125 39.890625 
Q 5.8125 47.609375 11.28125 51.796875 
Q 16.75 56 26.8125 56 
Q 31.78125 56 36.171875 55.265625 
Q 40.578125 54.546875 44.28125 53.078125 
z
" id="DejaVuSans-115"/>
       <path d="M 31 75.875 
Q 24.46875 64.65625 21.28125 53.65625 
Q 18.109375 42.671875 18.109375 31.390625 
Q 18.109375 20.125 21.3125 9.0625 
Q 24.515625 -2 31 -13.1875 
L 23.1875 -13.1875 
Q 15.875 -1.703125 12.234375 9.375 
Q 8.59375 20.453125 8.59375 31.390625 
Q 8.59375 42.28125 12.203125 53.3125 
Q 15.828125 64.359375 23.1875 75.875 
z
" id="DejaVuSans-40"/>
       <path d="M 89.796875 33.015625 
L 83.40625 0 
L 74.421875 0 
L 80.71875 32.71875 
Q 81.109375 34.8125 81.296875 36.328125 
Q 81.5 37.84375 81.5 38.921875 
Q 81.5 43.3125 79.046875 45.75 
Q 76.609375 48.1875 72.21875 48.1875 
Q 65.671875 48.1875 60.546875 43.28125 
Q 55.421875 38.375 53.90625 30.515625 
L 47.90625 0 
L 38.921875 0 
L 45.3125 32.71875 
Q 45.703125 34.515625 45.890625 36.046875 
Q 46.09375 37.59375 46.09375 38.8125 
Q 46.09375 43.265625 43.65625 45.71875 
Q 41.21875 48.1875 36.921875 48.1875 
Q 30.28125 48.1875 25.140625 43.28125 
Q 20.015625 38.375 18.5 30.515625 
L 12.5 0 
L 3.515625 0 
L 14.203125 54.6875 
L 23.1875 54.6875 
L 21.484375 46.1875 
Q 25.140625 50.984375 30.046875 53.484375 
Q 34.96875 56 40.578125 56 
Q 46.53125 56 50.359375 52.875 
Q 54.203125 49.75 54.984375 44.1875 
Q 59.078125 49.953125 64.46875 52.96875 
Q 69.875 56 75.875 56 
Q 82.90625 56 86.734375 51.953125 
Q 90.578125 47.90625 90.578125 40.484375 
Q 90.578125 38.875 90.375 36.9375 
Q 90.1875 35.015625 89.796875 33.015625 
z
" id="DejaVuSans-Oblique-109"/>
       <path d="M 54.25 63.328125 
Q 49.953125 66.75 38.28125 66.75 
Q 25.921875 66.75 24.8125 61.03125 
Q 23.921875 56.546875 36.375 54.203125 
Q 46.140625 52.390625 50.828125 46.921875 
Q 56.5 40.328125 53.859375 26.8125 
Q 51.3125 13.875 43.171875 6.25 
Q 34.96875 -1.421875 23.25 -1.421875 
Q 11.578125 -1.421875 6.34375 6.25 
Q 1.125 13.875 3.765625 27.296875 
Q 5.671875 37.25 13.921875 45.3125 
Q 17.140625 48.4375 21.140625 50.203125 
Q 14.265625 54.046875 15.625 60.9375 
Q 18.21875 74.21875 39.75 74.21875 
Q 50.53125 74.21875 55.71875 70.796875 
z
M 27.390625 47.75 
Q 23.828125 46.34375 20.40625 42.78125 
Q 15.140625 37.25 13.234375 27.296875 
Q 11.28125 17.390625 14.359375 11.8125 
Q 17.484375 6.203125 24.75 6.203125 
Q 31.9375 6.203125 37.203125 11.859375 
Q 42.53125 17.53125 44.34375 26.8125 
Q 46.1875 36.53125 42.671875 41.21875 
Q 38.921875 46.234375 32.859375 46.78125 
Q 29.78125 47.078125 27.390625 47.75 
z
" id="DejaVuSans-Oblique-948"/>
       <path d="M 42.28125 54.6875 
L 40.921875 47.703125 
L 23 47.703125 
L 17.1875 18.015625 
Q 16.890625 16.359375 16.75 15.234375 
Q 16.609375 14.109375 16.609375 13.484375 
Q 16.609375 10.359375 18.484375 8.9375 
Q 20.359375 7.515625 24.515625 7.515625 
L 33.59375 7.515625 
L 32.078125 0 
L 23.484375 0 
Q 15.484375 0 11.546875 3.125 
Q 7.625 6.25 7.625 12.59375 
Q 7.625 13.71875 7.765625 15.0625 
Q 7.90625 16.40625 8.203125 18.015625 
L 14.015625 47.703125 
L 6.390625 47.703125 
L 7.8125 54.6875 
L 15.28125 54.6875 
L 18.3125 70.21875 
L 27.296875 70.21875 
L 24.3125 54.6875 
z
" id="DejaVuSans-Oblique-116"/>
       <path d="M 48.09375 32.234375 
Q 48.25 33.015625 48.3125 33.84375 
Q 48.390625 34.671875 48.390625 35.5 
Q 48.390625 41.453125 44.890625 44.921875 
Q 41.40625 48.390625 35.40625 48.390625 
Q 28.71875 48.390625 23.578125 44.15625 
Q 18.453125 39.9375 15.828125 32.171875 
z
M 55.90625 25.203125 
L 14.109375 25.203125 
Q 13.8125 23.34375 13.71875 22.265625 
Q 13.625 21.1875 13.625 20.40625 
Q 13.625 13.625 17.796875 9.90625 
Q 21.96875 6.203125 29.59375 6.203125 
Q 35.453125 6.203125 40.671875 7.515625 
Q 45.90625 8.84375 50.390625 11.375 
L 48.6875 2.484375 
Q 43.84375 0.53125 38.6875 -0.4375 
Q 33.546875 -1.421875 28.21875 -1.421875 
Q 16.84375 -1.421875 10.71875 4.015625 
Q 4.59375 9.46875 4.59375 19.484375 
Q 4.59375 28.03125 7.640625 35.375 
Q 10.6875 42.71875 16.609375 48.484375 
Q 20.40625 52.09375 25.65625 54.046875 
Q 30.90625 56 36.8125 56 
Q 46.09375 56 51.578125 50.4375 
Q 57.078125 44.875 57.078125 35.5 
Q 57.078125 33.25 56.78125 30.6875 
Q 56.5 28.125 55.90625 25.203125 
z
" id="DejaVuSans-Oblique-101"/>
       <path d="M 60.015625 54.6875 
L 34.90625 27.875 
L 50.296875 0 
L 39.984375 0 
L 28.421875 21.6875 
L 8.296875 0 
L -2.59375 0 
L 24.3125 28.8125 
L 10.015625 54.6875 
L 20.3125 54.6875 
L 30.8125 34.90625 
L 49.125 54.6875 
z
" id="DejaVuSans-Oblique-120"/>
       <path d="M 53.609375 52.59375 
L 51.8125 43.703125 
Q 48.578125 46.046875 44.9375 47.21875 
Q 41.3125 48.390625 37.40625 48.390625 
Q 33.109375 48.390625 29.21875 46.875 
Q 25.34375 45.359375 22.703125 42.578125 
Q 18.5 38.328125 16.203125 32.609375 
Q 13.921875 26.90625 13.921875 20.796875 
Q 13.921875 13.421875 17.609375 9.8125 
Q 21.296875 6.203125 28.8125 6.203125 
Q 32.515625 6.203125 36.6875 7.328125 
Q 40.875 8.453125 45.40625 10.6875 
L 43.703125 1.8125 
Q 39.796875 0.203125 35.671875 -0.609375 
Q 31.546875 -1.421875 27.203125 -1.421875 
Q 16.3125 -1.421875 10.453125 4.015625 
Q 4.59375 9.46875 4.59375 19.578125 
Q 4.59375 28.078125 7.640625 35.234375 
Q 10.6875 42.390625 16.703125 48.09375 
Q 20.796875 52 26.3125 54 
Q 31.84375 56 38.375 56 
Q 42.1875 56 45.9375 55.140625 
Q 49.703125 54.296875 53.609375 52.59375 
z
" id="DejaVuSans-Oblique-99"/>
       <path d="M 55.71875 33.015625 
L 49.3125 0 
L 40.28125 0 
L 46.6875 32.671875 
Q 47.125 34.96875 47.359375 36.71875 
Q 47.609375 38.484375 47.609375 39.5 
Q 47.609375 43.609375 45.015625 45.890625 
Q 42.4375 48.1875 37.796875 48.1875 
Q 30.5625 48.1875 25.265625 43.296875 
Q 19.96875 38.421875 18.40625 30.328125 
L 12.5 0 
L 3.515625 0 
L 18.3125 75.984375 
L 27.296875 75.984375 
L 21.484375 46.09375 
Q 24.90625 50.6875 30.21875 53.34375 
Q 35.546875 56 41.40625 56 
Q 48.640625 56 52.609375 52.09375 
Q 56.59375 48.1875 56.59375 41.109375 
Q 56.59375 39.359375 56.375 37.359375 
Q 56.15625 35.359375 55.71875 33.015625 
z
" id="DejaVuSans-Oblique-104"/>
       <path d="M 53.71875 31.203125 
L 47.609375 0 
L 38.625 0 
L 40.28125 8.296875 
Q 36.328125 3.421875 31.265625 1 
Q 26.21875 -1.421875 20.015625 -1.421875 
Q 13.03125 -1.421875 8.5625 2.84375 
Q 4.109375 7.125 4.109375 13.8125 
Q 4.109375 23.390625 11.75 28.953125 
Q 19.390625 34.515625 32.8125 34.515625 
L 45.3125 34.515625 
L 45.796875 36.921875 
Q 45.90625 37.3125 45.953125 37.765625 
Q 46 38.234375 46 39.203125 
Q 46 43.5625 42.453125 45.96875 
Q 38.921875 48.390625 32.515625 48.390625 
Q 28.125 48.390625 23.5 47.265625 
Q 18.890625 46.140625 14.015625 43.890625 
L 15.578125 52.203125 
Q 20.65625 54.109375 25.515625 55.046875 
Q 30.375 56 34.90625 56 
Q 44.578125 56 49.625 51.796875 
Q 54.6875 47.609375 54.6875 39.59375 
Q 54.6875 37.984375 54.4375 35.8125 
Q 54.203125 33.640625 53.71875 31.203125 
z
M 44 27.484375 
L 35.015625 27.484375 
Q 23.96875 27.484375 18.671875 24.53125 
Q 13.375 21.578125 13.375 15.375 
Q 13.375 11.078125 16.078125 8.640625 
Q 18.796875 6.203125 23.578125 6.203125 
Q 30.90625 6.203125 36.375 11.453125 
Q 41.84375 16.703125 43.609375 25.484375 
z
" id="DejaVuSans-Oblique-97"/>
       <path d="M 55.71875 33.015625 
L 49.3125 0 
L 40.28125 0 
L 46.6875 32.671875 
Q 47.125 34.96875 47.359375 36.71875 
Q 47.609375 38.484375 47.609375 39.5 
Q 47.609375 43.609375 45.015625 45.890625 
Q 42.4375 48.1875 37.796875 48.1875 
Q 30.5625 48.1875 25.34375 43.375 
Q 20.125 38.578125 18.5 30.328125 
L 12.5 0 
L 3.515625 0 
L 14.109375 54.6875 
L 23.09375 54.6875 
L 21.296875 46.09375 
Q 25.046875 50.828125 30.3125 53.40625 
Q 35.59375 56 41.40625 56 
Q 48.640625 56 52.609375 52.09375 
Q 56.59375 48.1875 56.59375 41.109375 
Q 56.59375 39.359375 56.375 37.359375 
Q 56.15625 35.359375 55.71875 33.015625 
z
" id="DejaVuSans-Oblique-110"/>
       <path d="M 59.625 54.6875 
L 50.296875 6.78125 
Q 47.609375 -7.125 40.015625 -13.953125 
Q 32.421875 -20.796875 19.578125 -20.796875 
Q 14.84375 -20.796875 10.78125 -20.09375 
Q 6.734375 -19.390625 3.21875 -17.921875 
L 4.890625 -9.1875 
Q 8.203125 -11.328125 11.90625 -12.34375 
Q 15.625 -13.375 19.828125 -13.375 
Q 28.375 -13.375 33.859375 -8.703125 
Q 39.359375 -4.046875 41.109375 4.6875 
L 41.890625 8.796875 
Q 38.140625 4.5 33.15625 2.25 
Q 28.171875 0 22.40625 0 
Q 14.109375 0 9.34375 5.484375 
Q 4.59375 10.984375 4.59375 20.609375 
Q 4.59375 28.171875 7.46875 35.421875 
Q 10.359375 42.671875 15.578125 48.296875 
Q 19.046875 52 23.65625 54 
Q 28.265625 56 33.296875 56 
Q 38.8125 56 42.90625 53.4375 
Q 47.015625 50.875 49.03125 46.1875 
L 50.59375 54.6875 
z
M 46.09375 34.625 
Q 46.09375 41.265625 42.96875 44.875 
Q 39.84375 48.484375 34.078125 48.484375 
Q 30.515625 48.484375 27.296875 47.0625 
Q 24.078125 45.65625 21.78125 43.109375 
Q 18.0625 38.921875 15.984375 33.234375 
Q 13.921875 27.546875 13.921875 21.484375 
Q 13.921875 14.75 17.0625 11.125 
Q 20.21875 7.515625 26.125 7.515625 
Q 34.671875 7.515625 40.375 15.25 
Q 46.09375 23 46.09375 34.625 
z
" id="DejaVuSans-Oblique-103"/>
       <path d="M 8.015625 75.875 
L 15.828125 75.875 
Q 23.140625 64.359375 26.78125 53.3125 
Q 30.421875 42.28125 30.421875 31.390625 
Q 30.421875 20.453125 26.78125 9.375 
Q 23.140625 -1.703125 15.828125 -13.1875 
L 8.015625 -13.1875 
Q 14.5 -2 17.703125 9.0625 
Q 20.90625 20.125 20.90625 31.390625 
Q 20.90625 42.671875 17.703125 53.65625 
Q 14.5 64.65625 8.015625 75.875 
z
" id="DejaVuSans-41"/>
      </defs>
      <use transform="translate(0 0.765625)" xlink:href="#DejaVuSans-83"/>
      <use transform="translate(63.476562 0.765625)" xlink:href="#DejaVuSans-77"/>
      <use transform="translate(149.755859 0.765625)" xlink:href="#DejaVuSans-32"/>
      <use transform="translate(181.542969 0.765625)" xlink:href="#DejaVuSans-105"/>
      <use transform="translate(209.326172 0.765625)" xlink:href="#DejaVuSans-110"/>
      <use transform="translate(272.705078 0.765625)" xlink:href="#DejaVuSans-45"/>
      <use transform="translate(308.789062 0.765625)" xlink:href="#DejaVuSans-47"/>
      <use transform="translate(342.480469 0.765625)" xlink:href="#DejaVuSans-111"/>
      <use transform="translate(403.662109 0.765625)" xlink:href="#DejaVuSans-117"/>
      <use transform="translate(467.041016 0.765625)" xlink:href="#DejaVuSans-116"/>
      <use transform="translate(506.25 0.765625)" xlink:href="#DejaVuSans-45"/>
      <use transform="translate(542.333984 0.765625)" xlink:href="#DejaVuSans-102"/>
      <use transform="translate(577.539062 0.765625)" xlink:href="#DejaVuSans-108"/>
      <use transform="translate(605.322266 0.765625)" xlink:href="#DejaVuSans-117"/>
      <use transform="translate(668.701172 0.765625)" xlink:href="#DejaVuSans-120"/>
      <use transform="translate(727.880859 0.765625)" xlink:href="#DejaVuSans-101"/>
      <use transform="translate(789.404297 0.765625)" xlink:href="#DejaVuSans-115"/>
      <use transform="translate(841.503906 0.765625)" xlink:href="#DejaVuSans-32"/>
      <use transform="translate(873.291016 0.765625)" xlink:href="#DejaVuSans-40"/>
      <use transform="translate(912.304688 0.765625)" xlink:href="#DejaVuSans-Oblique-109"/>
      <use transform="translate(1014.366693 39.046875)scale(0.7)" xlink:href="#DejaVuSans-51"/>
      <use transform="translate(1061.637201 0.765625)" xlink:href="#DejaVuSans-47"/>
      <use transform="translate(1095.328607 0.765625)" xlink:href="#DejaVuSans-Oblique-948"/>
      <use transform="translate(1156.510247 0.765625)" xlink:href="#DejaVuSans-Oblique-116"/>
      <use transform="translate(1195.719232 -15.640625)scale(0.7)" xlink:href="#DejaVuSans-Oblique-101"/>
      <use transform="translate(1238.785638 -15.640625)scale(0.7)" xlink:href="#DejaVuSans-Oblique-120"/>
      <use transform="translate(1280.211419 -15.640625)scale(0.7)" xlink:href="#DejaVuSans-Oblique-99"/>
      <use transform="translate(1318.697747 -15.640625)scale(0.7)" xlink:href="#DejaVuSans-Oblique-104"/>
      <use transform="translate(1363.062982 -15.640625)scale(0.7)" xlink:href="#DejaVuSans-Oblique-97"/>
      <use transform="translate(1405.95849 -15.640625)scale(0.7)" xlink:href="#DejaVuSans-Oblique-110"/>
      <use transform="translate(1450.323724 -15.640625)scale(0.7)" xlink:href="#DejaVuSans-Oblique-103"/>
      <use transform="translate(1494.757318 -15.640625)scale(0.7)" xlink:href="#DejaVuSans-Oblique-101"/>
      <use transform="translate(1540.558099 0.765625)" xlink:href="#DejaVuSans-41"/>
     </g>
    </g>
    <g id="line2d_21">
     <path d="M 248.654687 39 
L 268.654688 39 
" style="fill:none;stroke:#e74c3c;stroke-linecap:square;stroke-width:0.75;"/>
    </g>
    <g id="line2d_22"/>
    <g id="text_18">
     <!-- GW in-/out-fluxes ($m^3$/$\delta t_{exchange}$) -->
     <g transform="translate(276.654688 42.5)scale(0.1 -0.1)">
      <defs>
       <path d="M 59.515625 10.40625 
L 59.515625 29.984375 
L 43.40625 29.984375 
L 43.40625 38.09375 
L 69.28125 38.09375 
L 69.28125 6.78125 
Q 63.578125 2.734375 56.6875 0.65625 
Q 49.8125 -1.421875 42 -1.421875 
Q 24.90625 -1.421875 15.25 8.5625 
Q 5.609375 18.5625 5.609375 36.375 
Q 5.609375 54.25 15.25 64.234375 
Q 24.90625 74.21875 42 74.21875 
Q 49.125 74.21875 55.546875 72.453125 
Q 61.96875 70.703125 67.390625 67.28125 
L 67.390625 56.78125 
Q 61.921875 61.421875 55.765625 63.765625 
Q 49.609375 66.109375 42.828125 66.109375 
Q 29.4375 66.109375 22.71875 58.640625 
Q 16.015625 51.171875 16.015625 36.375 
Q 16.015625 21.625 22.71875 14.15625 
Q 29.4375 6.6875 42.828125 6.6875 
Q 48.046875 6.6875 52.140625 7.59375 
Q 56.25 8.5 59.515625 10.40625 
z
" id="DejaVuSans-71"/>
       <path d="M 3.328125 72.90625 
L 13.28125 72.90625 
L 28.609375 11.28125 
L 43.890625 72.90625 
L 54.984375 72.90625 
L 70.3125 11.28125 
L 85.59375 72.90625 
L 95.609375 72.90625 
L 77.296875 0 
L 64.890625 0 
L 49.515625 63.28125 
L 33.984375 0 
L 21.578125 0 
z
" id="DejaVuSans-87"/>
      </defs>
      <use transform="translate(0 0.765625)" xlink:href="#DejaVuSans-71"/>
      <use transform="translate(77.490234 0.765625)" xlink:href="#DejaVuSans-87"/>
      <use transform="translate(176.367188 0.765625)" xlink:href="#DejaVuSans-32"/>
      <use transform="translate(208.154297 0.765625)" xlink:href="#DejaVuSans-105"/>
      <use transform="translate(235.9375 0.765625)" xlink:href="#DejaVuSans-110"/>
      <use transform="translate(299.316406 0.765625)" xlink:href="#DejaVuSans-45"/>
      <use transform="translate(335.400391 0.765625)" xlink:href="#DejaVuSans-47"/>
      <use transform="translate(369.091797 0.765625)" xlink:href="#DejaVuSans-111"/>
      <use transform="translate(430.273438 0.765625)" xlink:href="#DejaVuSans-117"/>
      <use transform="translate(493.652344 0.765625)" xlink:href="#DejaVuSans-116"/>
      <use transform="translate(532.861328 0.765625)" xlink:href="#DejaVuSans-45"/>
      <use transform="translate(568.945312 0.765625)" xlink:href="#DejaVuSans-102"/>
      <use transform="translate(604.150391 0.765625)" xlink:href="#DejaVuSans-108"/>
      <use transform="translate(631.933594 0.765625)" xlink:href="#DejaVuSans-117"/>
      <use transform="translate(695.3125 0.765625)" xlink:href="#DejaVuSans-120"/>
      <use transform="translate(754.492188 0.765625)" xlink:href="#DejaVuSans-101"/>
      <use transform="translate(816.015625 0.765625)" xlink:href="#DejaVuSans-115"/>
      <use transform="translate(868.115234 0.765625)" xlink:href="#DejaVuSans-32"/>
      <use transform="translate(899.902344 0.765625)" xlink:href="#DejaVuSans-40"/>
      <use transform="translate(938.916016 0.765625)" xlink:href="#DejaVuSans-Oblique-109"/>
      <use transform="translate(1040.978021 39.046875)scale(0.7)" xlink:href="#DejaVuSans-51"/>
      <use transform="translate(1088.248529 0.765625)" xlink:href="#DejaVuSans-47"/>
      <use transform="translate(1121.939935 0.765625)" xlink:href="#DejaVuSans-Oblique-948"/>
      <use transform="translate(1183.121576 0.765625)" xlink:href="#DejaVuSans-Oblique-116"/>
      <use transform="translate(1222.33056 -15.640625)scale(0.7)" xlink:href="#DejaVuSans-Oblique-101"/>
      <use transform="translate(1265.396966 -15.640625)scale(0.7)" xlink:href="#DejaVuSans-Oblique-120"/>
      <use transform="translate(1306.822747 -15.640625)scale(0.7)" xlink:href="#DejaVuSans-Oblique-99"/>
      <use transform="translate(1345.309076 -15.640625)scale(0.7)" xlink:href="#DejaVuSans-Oblique-104"/>
      <use transform="translate(1389.67431 -15.640625)scale(0.7)" xlink:href="#DejaVuSans-Oblique-97"/>
      <use transform="translate(1432.569818 -15.640625)scale(0.7)" xlink:href="#DejaVuSans-Oblique-110"/>
      <use transform="translate(1476.935052 -15.640625)scale(0.7)" xlink:href="#DejaVuSans-Oblique-103"/>
      <use transform="translate(1521.368646 -15.640625)scale(0.7)" xlink:href="#DejaVuSans-Oblique-101"/>
      <use transform="translate(1567.169427 0.765625)" xlink:href="#DejaVuSans-41"/>
     </g>
    </g>
   </g>
  </g>
 </g>
 <defs>
  <clipPath id="pd749473802">
   <rect height="285.590464" width="411.05" x="35.304688" y="7.2"/>
  </clipPath>
 </defs>
</svg>
